<?xml version="1.0" encoding="UTF-8" standalone="no"?>
<!-- Created with Inkscape (http://www.inkscape.org/) -->

<svg
   width="210mm"
   height="297mm"
   viewBox="0 0 210 297"
   version="1.1"
   id="svg8"
   inkscape:version="1.3.2 (1:1.3.2+202311252150+091e20ef0f)"
   sodipodi:docname="perroquet.svg"
   xmlns:inkscape="http://www.inkscape.org/namespaces/inkscape"
   xmlns:sodipodi="http://sodipodi.sourceforge.net/DTD/sodipodi-0.dtd"
   xmlns="http://www.w3.org/2000/svg"
   xmlns:svg="http://www.w3.org/2000/svg"
   xmlns:rdf="http://www.w3.org/1999/02/22-rdf-syntax-ns#"
   xmlns:cc="http://creativecommons.org/ns#"
   xmlns:dc="http://purl.org/dc/elements/1.1/">
  <sodipodi:namedview
     id="base"
     pagecolor="#ffffff"
     bordercolor="#666666"
     borderopacity="1.0"
     inkscape:pageopacity="0.0"
     inkscape:pageshadow="2"
     inkscape:zoom="0.57610622"
     inkscape:cx="192.6728"
     inkscape:cy="317.64975"
     inkscape:document-units="mm"
     inkscape:current-layer="layer1"
     showgrid="false"
     inkscape:window-width="1920"
     inkscape:window-height="1003"
     inkscape:window-x="0"
     inkscape:window-y="0"
     inkscape:window-maximized="1"
     inkscape:showpageshadow="0"
     inkscape:pagecheckerboard="0"
     inkscape:deskcolor="#d1d1d1" />
  <defs
     id="defs2">
    <marker
       inkscape:stockid="Arrow2Lend"
       orient="auto-start-reverse"
       refY="0.0"
       refX="0.0"
       id="marker1595"
       style="overflow:visible;"
       inkscape:isstock="true"
       viewBox="0 0 12.70584107 9.5264135"
       markerWidth="7.37029503"
       markerHeight="5.52600002"
       preserveAspectRatio="xMidYMid">
      <path
         id="path1593"
         style="fill-rule:evenodd;stroke-width:0.625;stroke-linejoin:round;stroke:#ff0000;stroke-opacity:1;fill:#ff0000;fill-opacity:1"
         d="M 8.7185878,4.0337352 L -2.2072895,0.016013256 L 8.7185884,-4.0017078 C 6.9730900,-1.6296469 6.9831476,1.6157441 8.7185878,4.0337352 z "
         transform="scale(1.1) rotate(180) translate(1,0)" />
    </marker>
    <marker
       inkscape:isstock="true"
       style="overflow:visible;"
       id="marker1293"
       refX="0.0"
       refY="0.0"
       orient="auto"
       inkscape:stockid="Arrow2Lend"
       inkscape:collect="always"
       viewBox="0 0 12.70584107 9.5264135"
       markerWidth="12.70584107"
       markerHeight="9.5264135"
       preserveAspectRatio="xMidYMid">
      <path
         transform="scale(1.1) rotate(180) translate(1,0)"
         d="M 8.7185878,4.0337352 L -2.2072895,0.016013256 L 8.7185884,-4.0017078 C 6.9730900,-1.6296469 6.9831476,1.6157441 8.7185878,4.0337352 z "
         style="fill-rule:evenodd;stroke-width:0.625;stroke-linejoin:round;stroke:#000000;stroke-opacity:1;fill:#000000;fill-opacity:1"
         id="path1291" />
    </marker>
    <marker
       inkscape:stockid="Arrow2Lstart"
       orient="auto"
       refY="0.0"
       refX="0.0"
       id="Arrow2Lstart"
       style="overflow:visible"
       inkscape:isstock="true"
       viewBox="0 0 12.70584107 9.5264135"
       markerWidth="8.70404339"
       markerHeight="6.52599981"
       preserveAspectRatio="xMidYMid">
      <path
         id="path839"
         style="fill-rule:evenodd;stroke-width:0.625;stroke-linejoin:round;stroke:#000000;stroke-opacity:1;fill:#000000;fill-opacity:1"
         d="M 8.7185878,4.0337352 L -2.2072895,0.016013256 L 8.7185884,-4.0017078 C 6.9730900,-1.6296469 6.9831476,1.6157441 8.7185878,4.0337352 z "
         transform="scale(1.1) translate(1,0)" />
    </marker>
    <marker
       inkscape:stockid="Arrow2Lend"
       orient="auto"
       refY="0.0"
       refX="0.0"
       id="Arrow2Lend"
       style="overflow:visible;"
       inkscape:isstock="true"
       inkscape:collect="always"
       viewBox="0 0 12.70584107 9.5264135"
       markerWidth="12.70584107"
       markerHeight="9.5264135"
       preserveAspectRatio="xMidYMid">
      <path
         id="path842"
         style="fill-rule:evenodd;stroke-width:0.625;stroke-linejoin:round;stroke:#000000;stroke-opacity:1;fill:#000000;fill-opacity:1"
         d="M 8.7185878,4.0337352 L -2.2072895,0.016013256 L 8.7185884,-4.0017078 C 6.9730900,-1.6296469 6.9831476,1.6157441 8.7185878,4.0337352 z "
         transform="scale(1.1) rotate(180) translate(1,0)" />
    </marker>
    <marker
       inkscape:stockid="Arrow2Lend"
       orient="auto"
       refY="0"
       refX="0"
       id="Arrow2Lend-3"
       style="overflow:visible"
       inkscape:isstock="true"
       inkscape:collect="always">
      <path
         id="path842-6"
         style="fill:#000000;fill-opacity:1;fill-rule:evenodd;stroke:#000000;stroke-width:0.625;stroke-linejoin:round;stroke-opacity:1"
         d="M 8.7185878,4.0337352 -2.2072895,0.01601326 8.7185884,-4.0017078 c -1.7454984,2.3720609 -1.7354408,5.6174519 -6e-7,8.035443 z"
         transform="matrix(-1.1,0,0,-1.1,-1.1,0)" />
    </marker>
  </defs>
  <metadata
     id="metadata5">
    <rdf:RDF>
      <cc:Work
         rdf:about="">
        <dc:format>image/svg+xml</dc:format>
        <dc:type
           rdf:resource="http://purl.org/dc/dcmitype/StillImage" />
        <dc:title />
      </cc:Work>
    </rdf:RDF>
  </metadata>
  <g
     inkscape:label="Calque 1"
     inkscape:groupmode="layer"
     id="layer1">
    <path
       inkscape:connector-curvature="0"
       id="path819"
       d="M 89.267641,50.055682 V 113.48341"
       style="fill:none;stroke:#000000;stroke-width:0.26499999;stroke-linecap:butt;stroke-linejoin:miter;stroke-miterlimit:4;stroke-dasharray:none;stroke-opacity:1;marker-end:url(#Arrow2Lend)"
       inkscape:export-filename="perroquet.pdf"
       inkscape:export-xdpi="300"
       inkscape:export-ydpi="300" />
    <path
       inkscape:connector-curvature="0"
       id="path819-5"
       d="M 69.256651,71.973051 H 120.63262"
       style="fill:none;stroke:#000000;stroke-width:0.238499;stroke-linecap:butt;stroke-linejoin:miter;stroke-miterlimit:4;stroke-dasharray:none;stroke-opacity:1;marker-end:url(#Arrow2Lend-3)" />
    <g
       id="g1117"
       transform="translate(0,-1.0583333)">
      <path
         style="fill:none;stroke:#000000;stroke-width:0.16500001;stroke-linecap:butt;stroke-linejoin:miter;stroke-miterlimit:4;stroke-dasharray:0.66000001, 0.66000001;stroke-dashoffset:0;stroke-opacity:1"
         d="m 114.8522,55.098644 -10.55715,7.082641 H 63.937348"
         id="path1105"
         inkscape:connector-curvature="0" />
      <path
         inkscape:connector-curvature="0"
         id="path1113"
         d="m 63.983311,62.195275 10.55715,-7.082641 h 40.357699"
         style="fill:none;stroke:#000000;stroke-width:0.16500001;stroke-linecap:butt;stroke-linejoin:miter;stroke-miterlimit:4;stroke-dasharray:0.66000001, 0.66000001;stroke-dashoffset:0;stroke-opacity:1" />
    </g>
    <g
       id="g1123"
       transform="translate(0,13.229169)">
      <path
         inkscape:connector-curvature="0"
         id="path1119"
         d="m 114.8522,55.098644 -10.55715,7.082641 H 63.937348"
         style="fill:none;stroke:#000000;stroke-width:0.16500001;stroke-linecap:butt;stroke-linejoin:miter;stroke-miterlimit:4;stroke-dasharray:0.66000001, 0.66000001;stroke-dashoffset:0;stroke-opacity:1" />
      <path
         style="fill:none;stroke:#000000;stroke-width:0.16500001;stroke-linecap:butt;stroke-linejoin:miter;stroke-miterlimit:4;stroke-dasharray:0.66000001, 0.66000001;stroke-dashoffset:0;stroke-opacity:1"
         d="m 63.983311,62.195275 10.55715,-7.082641 h 40.357699"
         id="path1121"
         inkscape:connector-curvature="0" />
    </g>
    <g
       transform="translate(0,28.575012)"
       id="g1129">
      <path
         style="fill:none;stroke:#000000;stroke-width:0.16500001;stroke-linecap:butt;stroke-linejoin:miter;stroke-miterlimit:4;stroke-dasharray:0.66000001, 0.66000001;stroke-dashoffset:0;stroke-opacity:1"
         d="m 114.8522,55.098644 -10.55715,7.082641 H 63.937348"
         id="path1125"
         inkscape:connector-curvature="0" />
      <path
         inkscape:connector-curvature="0"
         id="path1127"
         d="m 63.983311,62.195275 10.55715,-7.082641 h 40.357699"
         style="fill:none;stroke:#000000;stroke-width:0.16500001;stroke-linecap:butt;stroke-linejoin:miter;stroke-miterlimit:4;stroke-dasharray:0.66000001, 0.66000001;stroke-dashoffset:0;stroke-opacity:1" />
    </g>
    <g
       id="g1135"
       transform="translate(0,41.804187)">
      <path
         inkscape:connector-curvature="0"
         id="path1131"
         d="m 114.8522,55.098644 -10.55715,7.082641 H 63.937348"
         style="fill:none;stroke:#000000;stroke-width:0.16500001;stroke-linecap:butt;stroke-linejoin:miter;stroke-miterlimit:4;stroke-dasharray:0.66000001, 0.66000001;stroke-dashoffset:0;stroke-opacity:1" />
      <path
         style="fill:none;stroke:#000000;stroke-width:0.16500001;stroke-linecap:butt;stroke-linejoin:miter;stroke-miterlimit:4;stroke-dasharray:0.66000001, 0.66000001;stroke-dashoffset:0;stroke-opacity:1"
         d="m 63.983311,62.195275 10.55715,-7.082641 h 40.357699"
         id="path1133"
         inkscape:connector-curvature="0" />
    </g>
    <path
       style="fill:none;stroke:#000000;stroke-width:0.264583px;stroke-linecap:butt;stroke-linejoin:miter;stroke-opacity:1;marker-start:url(#Arrow2Lstart);marker-end:url(#marker1293)"
       d="M 105.25836,90.099021 V 76.044895"
       id="path1251"
       inkscape:connector-curvature="0" />
    <path
       style="fill:none;stroke:#030087;stroke-width:0.8;stroke-linecap:butt;stroke-linejoin:miter;stroke-miterlimit:4;stroke-dasharray:none;stroke-opacity:1"
       d="m 72.85838,56.522137 32.80979,2.579246"
       id="path1571"
       inkscape:connector-curvature="0" />
    <path
       inkscape:connector-curvature="0"
       id="path1575"
       d="M 74.35073,77.441728 103.08125,66.871361"
       style="fill:none;stroke:#030087;stroke-width:1.0005;stroke-linecap:butt;stroke-linejoin:miter;stroke-miterlimit:4;stroke-dasharray:none;stroke-opacity:1" />
    <path
       style="fill:none;stroke:#030087;stroke-width:0.8;stroke-linecap:butt;stroke-linejoin:miter;stroke-miterlimit:4;stroke-dasharray:none;stroke-opacity:1"
       d="M 83.256051,103.52605 94.864508,96.764137"
       id="path1577"
       inkscape:connector-curvature="0" />
    <path
       style="fill:none;stroke:#030087;stroke-width:0.8;stroke-linecap:butt;stroke-linejoin:miter;stroke-miterlimit:4;stroke-dasharray:none;stroke-opacity:1"
       d="m 76.343308,84.606639 27.161902,4.405068"
       id="path1579"
       inkscape:connector-curvature="0" />
    <path
       style="fill:none;fill-rule:evenodd;stroke:#ff0000;stroke-width:0.243;stroke-miterlimit:4;stroke-dasharray:none;marker-start:url(#marker1595);fill-opacity:0.83529413"
       id="path1583"
       sodipodi:type="arc"
       sodipodi:cx="100.79784"
       sodipodi:cy="71.10321"
       sodipodi:rx="6.7707024"
       sodipodi:ry="5.1152291"
       sodipodi:start="5.2048962"
       sodipodi:end="0.14023773"
       sodipodi:open="true"
       d="m 103.99927,66.595926 a 6.7707024,5.1152291 0 0 1 3.5028,5.222284"
       sodipodi:arc-type="arc" />
    <g
       id="g3130"
       transform="matrix(0.49999999,0,0,0.49999999,64.006401,15.916083)"
       style="fill:#ff0000;fill-opacity:0.835294;stroke:#ff0000;stroke-width:2;stroke-opacity:0.835294">
      <g
         word-spacing="normal"
         letter-spacing="normal"
         font-size-adjust="none"
         font-stretch="normal"
         font-weight="normal"
         font-variant="normal"
         font-style="normal"
         stroke-miterlimit="10.433"
         xml:space="preserve"
         transform="matrix(0.3,0,0,-0.3,-52.5,222.75)"
         id="content"
         style="font-style:normal;font-variant:normal;font-weight:normal;font-stretch:normal;letter-spacing:normal;word-spacing:normal;text-anchor:start;fill:#ff0000;fill-opacity:0.835294;fill-rule:evenodd;stroke:#ff0000;stroke-width:2;stroke-linecap:butt;stroke-linejoin:miter;stroke-miterlimit:10.433;stroke-dasharray:none;stroke-dashoffset:0;stroke-opacity:0.835294"><path
           id="path3125"
           d="m 478.19,431.11 v 0.31 l -0.01,0.34 -0.02,0.36 -0.02,0.37 -0.03,0.39 -0.04,0.39 -0.04,0.41 -0.06,0.41 -0.07,0.42 -0.07,0.43 -0.09,0.42 -0.1,0.43 -0.12,0.42 -0.12,0.42 -0.14,0.41 -0.16,0.41 -0.17,0.4 -0.18,0.38 -0.2,0.37 -0.22,0.36 -0.23,0.34 -0.25,0.32 -0.28,0.3 -0.29,0.27 -0.31,0.25 -0.16,0.12 -0.17,0.1 -0.17,0.1 -0.18,0.1 -0.18,0.08 -0.19,0.08 -0.19,0.07 -0.2,0.06 -0.21,0.05 -0.21,0.05 -0.22,0.03 -0.22,0.02 -0.23,0.02 h -0.23 l -0.05,-1.09 c 2.44,0 2.73,-3.19 2.73,-6.03 0,-2.44 -0.39,-4.99 -1.59,-9.92 h -10.41 c 0.85,3.2 1.85,7.18 3.83,10.72 1.36,2.43 3.19,5.23 5.44,5.23 l 0.05,1.09 c -6.92,0 -14.6,-14.04 -14.6,-25.45 0,-4.69 1.44,-10.22 5.99,-10.22 v 1.1 c -1.66,0 -2.71,1.45 -2.71,6.07 0,2.1 0.3,4.99 1.6,9.86 h 10.37 c -0.54,-2.28 -1.59,-6.51 -3.5,-10.11 -1.73,-3.39 -3.62,-5.82 -5.76,-5.82 v -1.1 c 7.01,0 14.59,14.3 14.59,25.46 z"
           inkscape:connector-curvature="0"
           style="fill:#ff0000;fill-opacity:0.835294;stroke:#ff0000;stroke-width:0;stroke-opacity:0.835294" /><path
           id="path3127"
           d="m 483.17,400.95 -0.01,-0.04 -0.02,-0.05 -0.01,-0.04 -0.01,-0.05 -0.02,-0.05 -0.01,-0.06 -0.02,-0.05 -0.01,-0.05 -0.03,-0.11 -0.03,-0.11 -0.03,-0.12 -0.02,-0.1 -0.02,-0.06 -0.01,-0.05 -0.01,-0.05 -0.01,-0.05 -0.01,-0.05 -0.01,-0.04 -0.01,-0.05 -0.01,-0.04 -0.01,-0.03 v -0.04 l -0.01,-0.03 v -0.03 l -0.01,-0.02 v -0.02 -0.01 -0.01 -0.01 0 c 0,-0.77 0.62,-1.11 1.19,-1.11 0.62,0 1.17,0.45 1.36,0.76 0.17,0.32 0.45,1.43 0.62,2.16 0.17,0.66 0.55,2.27 0.77,3.14 0.2,0.77 0.42,1.53 0.59,2.33 0.37,1.44 0.45,1.7 1.45,3.14 0.99,1.39 2.63,3.2 5.24,3.2 2.01,0 2.04,-1.78 2.04,-2.44 0,-2.09 -1.48,-5.95 -2.04,-7.42 -0.39,-0.98 -0.53,-1.29 -0.53,-1.89 0,-1.84 1.54,-2.98 3.31,-2.98 3.48,0 5.01,4.79 5.01,5.33 0,0.45 -0.45,0.45 -0.54,0.45 -0.5,0 -0.53,-0.2 -0.68,-0.59 -0.79,-2.79 -2.29,-4.22 -3.68,-4.22 -0.74,0 -0.88,0.48 -0.88,1.22 0,0.79 0.17,1.25 0.8,2.82 0.42,1.08 1.86,4.77 1.86,6.72 0,3.39 -2.69,3.97 -4.53,3.97 -2.89,0 -4.85,-1.76 -5.89,-3.16 -0.25,2.4 -2.3,3.16 -3.74,3.16 -1.5,0 -2.29,-1.08 -2.75,-1.87 -0.76,-1.29 -1.25,-3.29 -1.25,-3.46 0,-0.45 0.49,-0.45 0.6,-0.45 0.48,0 0.51,0.11 0.76,1.05 0.52,2.06 1.19,3.76 2.55,3.76 0.91,0 1.14,-0.76 1.14,-1.7 0,-0.67 -0.31,-1.95 -0.56,-2.89 -0.24,-0.95 -0.58,-2.38 -0.77,-3.14 z"
           inkscape:connector-curvature="0"
           style="fill:#ff0000;fill-opacity:0.835294;stroke:#ff0000;stroke-width:0;stroke-opacity:0.835294" /></g>
    </g>
    <g
       id="g3180"
       transform="matrix(0.49999998,0,0,0.49999998,64.61289,32.166751)"
       style="stroke-width:2">
      <g
         word-spacing="normal"
         letter-spacing="normal"
         font-size-adjust="none"
         font-stretch="normal"
         font-weight="normal"
         font-variant="normal"
         font-style="normal"
         stroke-miterlimit="10.433"
         xml:space="preserve"
         transform="matrix(0.3,0,0,-0.3,-52.5,222.75)"
         id="g3178"
         style="font-style:normal;font-variant:normal;font-weight:normal;font-stretch:normal;letter-spacing:normal;word-spacing:normal;text-anchor:start;fill:none;fill-opacity:1;fill-rule:evenodd;stroke:#000000;stroke-width:2;stroke-linecap:butt;stroke-linejoin:miter;stroke-miterlimit:10.433;stroke-dasharray:none;stroke-dashoffset:0;stroke-opacity:1"><path
           id="path3176"
           d="m 474.1,425.03 -0.09,0.17 -0.09,0.17 -0.09,0.16 -0.09,0.16 -0.1,0.16 -0.1,0.16 -0.11,0.15 -0.11,0.14 -0.11,0.15 -0.12,0.13 -0.12,0.14 -0.12,0.13 -0.13,0.12 -0.13,0.12 -0.14,0.11 -0.14,0.11 -0.14,0.11 -0.15,0.09 -0.15,0.1 -0.15,0.08 -0.16,0.08 -0.17,0.08 -0.17,0.06 -0.17,0.07 -0.17,0.05 -0.18,0.05 -0.19,0.04 -0.19,0.03 -0.19,0.03 -0.2,0.02 -0.2,0.01 h -0.21 l 0.05,-1.09 c 3.23,0 3.93,-4.08 3.93,-4.37 0,-0.32 -0.09,-0.61 -0.14,-0.86 l -2.5,-9.77 c -0.25,-0.89 -0.25,-0.98 -1,-1.84 -2.18,-2.74 -4.23,-3.53 -5.62,-3.53 -2.49,0 -3.19,2.73 -3.19,4.68 0,2.49 1.59,8.61 2.74,10.91 1.54,2.94 3.79,4.78 5.78,4.78 l -0.05,1.09 c -5.83,0 -12,-7.31 -12,-14.59 0,-4.69 2.73,-7.97 6.62,-7.97 0.99,0 3.49,0.21 6.47,3.74 0.41,-2.1 2.14,-3.74 4.53,-3.74 1.75,0 2.9,1.14 3.69,2.74 0.85,1.79 1.5,4.84 1.5,4.93 0,0.5 -0.45,0.5 -0.59,0.5 -0.5,0 -0.55,-0.2 -0.7,-0.9 -0.85,-3.24 -1.75,-6.17 -3.79,-6.17 -1.34,0 -1.5,1.29 -1.5,2.29 0,1.1 0.1,1.49 0.64,3.69 0.57,2.09 0.66,2.59 1.11,4.48 l 1.79,6.97 c 0.35,1.39 0.35,1.5 0.35,1.69 0,0.86 -0.6,1.36 -1.45,1.36 -1.19,0 -1.94,-1.11 -2.09,-2.2 z"
           inkscape:connector-curvature="0"
           style="fill:#000000;stroke-width:0" /></g>
    </g>
    <g
       id="g3232"
       transform="matrix(0.49999998,0,0,0.49999998,45.28868,68.017794)"
       style="stroke-width:2">
      <g
         word-spacing="normal"
         letter-spacing="normal"
         font-size-adjust="none"
         font-stretch="normal"
         font-weight="normal"
         font-variant="normal"
         font-style="normal"
         stroke-miterlimit="10.433"
         xml:space="preserve"
         transform="matrix(0.3,0,0,-0.3,-52.5,222.75)"
         id="g3230"
         style="font-style:normal;font-variant:normal;font-weight:normal;font-stretch:normal;letter-spacing:normal;word-spacing:normal;text-anchor:start;fill:none;fill-opacity:1;fill-rule:evenodd;stroke:#000000;stroke-width:2;stroke-linecap:butt;stroke-linejoin:miter;stroke-miterlimit:10.43299961;stroke-dasharray:none;stroke-dashoffset:0;stroke-opacity:1"><path
           id="path3228"
           d="m 472.16,421.25 0.03,0.13 0.04,0.15 0.04,0.16 0.04,0.18 0.06,0.19 0.06,0.21 0.06,0.22 0.07,0.22 0.08,0.23 0.09,0.24 0.1,0.25 0.1,0.24 0.11,0.25 0.12,0.25 0.13,0.25 0.14,0.25 0.15,0.24 0.15,0.24 0.17,0.23 0.18,0.22 0.18,0.22 0.2,0.2 0.21,0.19 0.22,0.18 0.23,0.16 0.25,0.14 0.12,0.07 0.13,0.06 0.14,0.05 0.13,0.05 0.14,0.05 0.14,0.04 0.15,0.03 0.15,0.03 0.15,0.02 0.16,0.02 0.16,0.01 h 0.16 c 0.25,0 1.44,0 2.48,-0.64 -1.39,-0.25 -2.39,-1.5 -2.39,-2.69 0,-0.79 0.55,-1.75 1.89,-1.75 1.1,0 2.69,0.89 2.69,2.89 0,2.6 -2.94,3.28 -4.63,3.28 -2.89,0 -4.64,-2.64 -5.23,-3.78 -1.25,3.28 -3.94,3.78 -5.37,3.78 -5.19,0 -8.04,-6.42 -8.04,-7.67 0,-0.5 0.5,-0.5 0.61,-0.5 0.39,0 0.55,0.11 0.64,0.55 1.69,5.28 4.99,6.53 6.68,6.53 0.95,0 2.68,-0.44 2.68,-3.33 0,-1.54 -0.84,-4.89 -2.68,-11.86 -0.8,-3.09 -2.54,-5.18 -4.74,-5.18 -0.3,0 -1.44,0 -2.48,0.65 1.25,0.24 2.34,1.28 2.34,2.69 0,1.34 -1.09,1.73 -1.84,1.73 -1.5,0 -2.75,-1.29 -2.75,-2.89 0,-2.28 2.5,-3.28 4.68,-3.28 3.3,0 5.08,3.49 5.24,3.78 0.59,-1.84 2.39,-3.78 5.37,-3.78 5.14,0 7.99,6.42 7.99,7.67 0,0.5 -0.45,0.5 -0.61,0.5 -0.44,0 -0.55,-0.2 -0.64,-0.54 -1.64,-5.33 -5.03,-6.53 -6.63,-6.53 -1.95,0 -2.75,1.59 -2.75,3.29 0,1.1 0.3,2.19 0.86,4.38 z"
           inkscape:connector-curvature="0"
           style="fill:#000000;stroke-width:0" /></g>
    </g>
    <g
       inkscape:label=""
       transform="translate(86.663435,40.854845)"
       id="g1">
      <g
         id="surface1"
         transform="matrix(0.352778,0,0,0.352778,-1.10547,-0.563695)">
        <g
           style="fill:#000000;fill-opacity:1"
           id="g3">
          <g
             id="use2"
             transform="translate(1.993,18.926001)">
            <path
               style="stroke:none"
               d="m 16.671875,-8.421875 c 0,-5.078125 -3.640625,-8.90625 -7.75,-8.90625 -4.21875,0 -7.78125,3.875 -7.78125,8.90625 0,5.03125 3.625,8.8125 7.75,8.8125 4.25,0 7.78125,-3.859375 7.78125,-8.8125 z m -7.75,8.375 c -2.828125,0 -5.90625,-2.828125 -5.90625,-8.703125 0,-5.84375 3.375,-8.125 5.875,-8.125 2.625,0 5.90625,2.359375 5.90625,8.125 0,5.96875 -3.15625,8.703125 -5.875,8.703125 z m 0,0"
               id="path3" />
          </g>
        </g>
      </g>
    </g>
    <g
       inkscape:label=""
       transform="matrix(0.82357296,0,0,0.82357296,122.58151,69.969953)"
       id="g6">
      <g
         id="g5"
         transform="matrix(0.352778,0,0,0.352778,-0.940109,-0.614936)">
        <g
           style="fill:#000000;fill-opacity:1"
           id="g4">
          <g
             id="g2"
             transform="translate(1.993,12.665)">
            <path
               style="stroke:none"
               d="M 6.515625,2.78125 C 5.84375,3.71875 4.875,4.5625 3.671875,4.5625 3.375,4.5625 2.1875,4.515625 1.8125,3.375 1.890625,3.390625 2,3.390625 2.0625,3.390625 2.796875,3.390625 3.296875,2.75 3.296875,2.1875 3.296875,1.609375 2.828125,1.40625 2.453125,1.40625 2.0625,1.40625 1.1875,1.703125 1.1875,2.921875 1.1875,4.1875 2.25,5.0625 3.671875,5.0625 c 2.46875,0 4.984375,-2.28125 5.671875,-5.03125 l 2.421875,-9.671875 c 0.03125,-0.125 0.07813,-0.265625 0.07813,-0.421875 0,-0.375 -0.296875,-0.625 -0.671875,-0.625 -0.21875,0 -0.734375,0.109375 -0.9375,0.84375 l -1.82813,7.296875 c -0.125,0.4375 -0.125,0.484375 -0.328125,0.765625 -0.5,0.6875 -1.3125,1.53125 -2.5,1.53125 C 4.1875,-0.25 4.0625,-1.609375 4.0625,-2.28125 c 0,-1.40625 0.671875,-3.3125 1.34375,-5.109375 0.265625,-0.71875 0.421875,-1.0625 0.421875,-1.5625 0,-1.03125 -0.75,-1.96875 -1.96875,-1.96875 -2.265625,0 -3.1875,3.59375 -3.1875,3.78125 0,0.109375 0.09375,0.234375 0.265625,0.234375 0.234375,0 0.25,-0.109375 0.34375,-0.453125 0.609375,-2.078125 1.546875,-3.078125 2.515625,-3.078125 0.21875,0 0.640625,0 0.640625,0.828125 0,0.640625 -0.28125,1.359375 -0.640625,2.296875 -1.21875,3.25 -1.21875,4.0625 -1.21875,4.65625 0,2.359375 1.6875,2.90625 2.921875,2.90625 0.71875,0 1.609375,-0.21875 2.484375,-1.140625 L 8,-0.875 C 7.625,0.59375 7.390625,1.5625 6.515625,2.78125 Z m 0,0"
               id="path1" />
          </g>
        </g>
      </g>
    </g>
    <g
       inkscape:label=""
       transform="translate(46.316619,54.917522)"
       id="g11">
      <g
         id="g10"
         transform="matrix(0.352778,0,0,0.352778,-0.901524,-0.584112)">
        <g
           style="fill:#000000;fill-opacity:1"
           id="g7">
          <g
             id="use6"
             transform="translate(1.993,15.312)">
            <path
               style="stroke:none"
               d="M 4.25,-6.046875 C 4.296875,-6.171875 4.8125,-7.203125 5.578125,-7.875 6.109375,-8.359375 6.8125,-8.703125 7.625,-8.703125 c 0.828125,0 1.109375,0.625 1.109375,1.453125 0,1.171875 -0.84375,3.53125 -1.25,4.640625 -0.1875,0.5 -0.296875,0.765625 -0.296875,1.140625 0,0.9375 0.640625,1.671875 1.625,1.671875 1.921875,0 2.65625,-3.03125 2.65625,-3.15625 0,-0.109375 -0.09375,-0.1875 -0.21875,-0.1875 -0.171875,0 -0.203125,0.0625 -0.296875,0.40625 -0.484375,1.703125 -1.265625,2.53125 -2.078125,2.53125 -0.203125,0 -0.53125,-0.03125 -0.53125,-0.6875 0,-0.515625 0.234375,-1.140625 0.359375,-1.421875 0.40625,-1.140625 1.28125,-3.453125 1.28125,-4.625 0,-1.25 -0.734375,-2.171875 -2.296875,-2.171875 -1.84375,0 -2.8125,1.296875 -3.1875,1.8125 -0.0625,-1.171875 -0.90625,-1.8125 -1.8125,-1.8125 -0.65625,0 -1.125,0.390625 -1.46875,1.09375 -0.375,0.75 -0.65625,1.984375 -0.65625,2.0625 0,0.09375 0.078125,0.1875 0.21875,0.1875 0.171875,0 0.1875,-0.015625 0.3125,-0.5 0.328125,-1.25 0.703125,-2.4375 1.53125,-2.4375 0.46875,0 0.640625,0.34375 0.640625,0.953125 0,0.453125 -0.203125,1.265625 -0.359375,1.90625 l -0.578125,2.234375 c -0.078125,0.390625 -0.296875,1.3125 -0.40625,1.6875 -0.140625,0.53125 -0.375,1.515625 -0.375,1.609375 0,0.296875 0.234375,0.515625 0.546875,0.515625 0.234375,0 0.53125,-0.125 0.6875,-0.4375 0.046875,-0.09375 0.234375,-0.8125 0.34375,-1.234375 l 0.453125,-1.859375 z m 0,0"
               id="path9" />
          </g>
        </g>
        <g
           style="fill:#000000;fill-opacity:1"
           id="g8">
          <g
             id="use7"
             transform="translate(18.660999,15.312)">
            <path
               style="stroke:none"
               d="m 13.609375,-4.75 c 0.359375,0 0.71875,0 0.71875,-0.421875 0,-0.40625 -0.359375,-0.40625 -0.71875,-0.40625 H 2.4375 c -0.34375,0 -0.71875,0 -0.71875,0.40625 0,0.421875 0.375,0.421875 0.71875,0.421875 z m 0,0"
               id="path10" />
          </g>
        </g>
        <g
           style="fill:#000000;fill-opacity:1"
           id="g9">
          <g
             id="use8"
             transform="translate(39.324001,15.312)">
            <path
               style="stroke:none"
               d="m 5.5,-13.203125 c 0,-0.4375 -0.03125,-0.453125 -0.3125,-0.453125 C 4.375,-12.6875 3.15625,-12.375 2,-12.328125 c -0.0625,0 -0.15625,0 -0.1875,0.03125 -0.015625,0.04687 -0.015625,0.09375 -0.015625,0.515625 0.640625,0 1.71875,-0.109375 2.546875,-0.609375 v 10.875 c 0,0.734375 -0.046875,0.984375 -1.828125,0.984375 H 1.90625 V 0 C 2.890625,-0.015625 3.921875,-0.046875 4.921875,-0.046875 5.90625,-0.046875 6.9375,-0.015625 7.9375,0 V -0.53125 H 7.3125 C 5.53125,-0.53125 5.5,-0.765625 5.5,-1.515625 Z m 0,0"
               id="path11" />
          </g>
        </g>
      </g>
    </g>
    <g
       inkscape:label=""
       transform="translate(52.278524,70.902847)"
       id="g15">
      <g
         id="g14"
         transform="matrix(0.352778,0,0,0.352778,-0.901524,-0.627459)">
        <g
           style="fill:#000000;fill-opacity:1"
           id="g13">
          <g
             id="g12"
             transform="translate(1.993,10.888)">
            <path
               style="stroke:none"
               d="M 4.25,-6.046875 C 4.296875,-6.171875 4.8125,-7.203125 5.578125,-7.875 6.109375,-8.359375 6.8125,-8.703125 7.625,-8.703125 c 0.828125,0 1.109375,0.625 1.109375,1.453125 0,1.171875 -0.84375,3.53125 -1.25,4.640625 -0.1875,0.5 -0.296875,0.765625 -0.296875,1.140625 0,0.9375 0.640625,1.671875 1.625,1.671875 1.921875,0 2.65625,-3.03125 2.65625,-3.15625 0,-0.109375 -0.09375,-0.1875 -0.21875,-0.1875 -0.171875,0 -0.203125,0.0625 -0.296875,0.40625 -0.484375,1.703125 -1.265625,2.53125 -2.078125,2.53125 -0.203125,0 -0.53125,-0.03125 -0.53125,-0.6875 0,-0.515625 0.234375,-1.140625 0.359375,-1.421875 0.40625,-1.140625 1.28125,-3.453125 1.28125,-4.625 0,-1.25 -0.734375,-2.171875 -2.296875,-2.171875 -1.84375,0 -2.8125,1.296875 -3.1875,1.8125 -0.0625,-1.171875 -0.90625,-1.8125 -1.8125,-1.8125 -0.65625,0 -1.125,0.390625 -1.46875,1.09375 -0.375,0.75 -0.65625,1.984375 -0.65625,2.0625 0,0.09375 0.078125,0.1875 0.21875,0.1875 0.171875,0 0.1875,-0.015625 0.3125,-0.5 0.328125,-1.25 0.703125,-2.4375 1.53125,-2.4375 0.46875,0 0.640625,0.34375 0.640625,0.953125 0,0.453125 -0.203125,1.265625 -0.359375,1.90625 l -0.578125,2.234375 c -0.078125,0.390625 -0.296875,1.3125 -0.40625,1.6875 -0.140625,0.53125 -0.375,1.515625 -0.375,1.609375 0,0.296875 0.234375,0.515625 0.546875,0.515625 0.234375,0 0.53125,-0.125 0.6875,-0.4375 0.046875,-0.09375 0.234375,-0.8125 0.34375,-1.234375 l 0.453125,-1.859375 z m 0,0"
               id="path12" />
          </g>
        </g>
      </g>
    </g>
    <g
       inkscape:label=""
       transform="translate(46.528826,85.284136)"
       id="g22">
      <g
         id="g21"
         transform="matrix(0.352778,0,0,0.352778,-0.901524,-0.584112)">
        <g
           style="fill:#000000;fill-opacity:1"
           id="g16">
          <g
             id="use5"
             transform="translate(1.993,15.312)">
            <path
               style="stroke:none"
               d="M 4.25,-6.046875 C 4.296875,-6.171875 4.8125,-7.203125 5.578125,-7.875 6.109375,-8.359375 6.8125,-8.703125 7.625,-8.703125 c 0.828125,0 1.109375,0.625 1.109375,1.453125 0,1.171875 -0.84375,3.53125 -1.25,4.640625 -0.1875,0.5 -0.296875,0.765625 -0.296875,1.140625 0,0.9375 0.640625,1.671875 1.625,1.671875 1.921875,0 2.65625,-3.03125 2.65625,-3.15625 0,-0.109375 -0.09375,-0.1875 -0.21875,-0.1875 -0.171875,0 -0.203125,0.0625 -0.296875,0.40625 -0.484375,1.703125 -1.265625,2.53125 -2.078125,2.53125 -0.203125,0 -0.53125,-0.03125 -0.53125,-0.6875 0,-0.515625 0.234375,-1.140625 0.359375,-1.421875 0.40625,-1.140625 1.28125,-3.453125 1.28125,-4.625 0,-1.25 -0.734375,-2.171875 -2.296875,-2.171875 -1.84375,0 -2.8125,1.296875 -3.1875,1.8125 -0.0625,-1.171875 -0.90625,-1.8125 -1.8125,-1.8125 -0.65625,0 -1.125,0.390625 -1.46875,1.09375 -0.375,0.75 -0.65625,1.984375 -0.65625,2.0625 0,0.09375 0.078125,0.1875 0.21875,0.1875 0.171875,0 0.1875,-0.015625 0.3125,-0.5 0.328125,-1.25 0.703125,-2.4375 1.53125,-2.4375 0.46875,0 0.640625,0.34375 0.640625,0.953125 0,0.453125 -0.203125,1.265625 -0.359375,1.90625 l -0.578125,2.234375 c -0.078125,0.390625 -0.296875,1.3125 -0.40625,1.6875 -0.140625,0.53125 -0.375,1.515625 -0.375,1.609375 0,0.296875 0.234375,0.515625 0.546875,0.515625 0.234375,0 0.53125,-0.125 0.6875,-0.4375 0.046875,-0.09375 0.234375,-0.8125 0.34375,-1.234375 l 0.453125,-1.859375 z m 0,0"
               id="path8" />
          </g>
        </g>
        <g
           style="fill:#000000;fill-opacity:1"
           id="g18">
          <g
             id="g17"
             transform="translate(18.660999,15.312)">
            <path
               style="stroke:none"
               d="m 7.78125,-4.796875 h 5.484375 c 0.28125,0 0.640625,0 0.640625,-0.34375 0,-0.375 -0.328125,-0.375 -0.640625,-0.375 H 7.78125 v -5.46875 c 0,-0.296875 0,-0.640625 -0.34375,-0.640625 -0.375,0 -0.375,0.328125 -0.375,0.640625 v 5.46875 H 1.59375 c -0.296875,0 -0.640625,0 -0.640625,0.34375 0,0.375 0.328125,0.375 0.640625,0.375 H 7.0625 V 0.6875 c 0,0.28125 0,0.640625 0.359375,0.640625 0.359375,0 0.359375,-0.34375 0.359375,-0.640625 z m 0,0"
               id="path16" />
          </g>
        </g>
        <g
           style="fill:#000000;fill-opacity:1"
           id="g20">
          <g
             id="g19"
             transform="translate(38.120941,15.312)">
            <path
               style="stroke:none"
               d="m 5.5,-13.203125 c 0,-0.4375 -0.03125,-0.453125 -0.3125,-0.453125 C 4.375,-12.6875 3.15625,-12.375 2,-12.328125 c -0.0625,0 -0.15625,0 -0.1875,0.03125 -0.015625,0.04687 -0.015625,0.09375 -0.015625,0.515625 0.640625,0 1.71875,-0.109375 2.546875,-0.609375 v 10.875 c 0,0.734375 -0.046875,0.984375 -1.828125,0.984375 H 1.90625 V 0 C 2.890625,-0.015625 3.921875,-0.046875 4.921875,-0.046875 5.90625,-0.046875 6.9375,-0.015625 7.9375,0 V -0.53125 H 7.3125 C 5.53125,-0.53125 5.5,-0.765625 5.5,-1.515625 Z m 0,0"
               id="path18" />
          </g>
        </g>
      </g>
    </g>
  </g>
</svg>
