<?xml version="1.0" encoding="UTF-8" standalone="no"?>
<svg
   xmlns:dc="http://purl.org/dc/elements/1.1/"
   xmlns:cc="http://creativecommons.org/ns#"
   xmlns:rdf="http://www.w3.org/1999/02/22-rdf-syntax-ns#"
   xmlns:svg="http://www.w3.org/2000/svg"
   xmlns="http://www.w3.org/2000/svg"
   xmlns:xlink="http://www.w3.org/1999/xlink"
   xmlns:sodipodi="http://sodipodi.sourceforge.net/DTD/sodipodi-0.dtd"
   xmlns:inkscape="http://www.inkscape.org/namespaces/inkscape"
   width="413.375409pt"
   height="274.722729pt"
   viewBox="0 0 413.375409 274.722729"
   version="1.2"
   id="svg221"
   sodipodi:docname="onde_stationnaire.svg"
   inkscape:version="0.92.5 (2060ec1f9f, 2020-04-08)">
  <metadata
     id="metadata225">
    <rdf:RDF>
      <cc:Work
         rdf:about="">
        <dc:format>image/svg+xml</dc:format>
        <dc:type
           rdf:resource="http://purl.org/dc/dcmitype/StillImage" />
        <dc:title></dc:title>
      </cc:Work>
    </rdf:RDF>
  </metadata>
  <sodipodi:namedview
     pagecolor="#ffffff"
     bordercolor="#666666"
     borderopacity="1"
     objecttolerance="10"
     gridtolerance="10"
     guidetolerance="10"
     inkscape:pageopacity="0"
     inkscape:pageshadow="2"
     inkscape:window-width="1848"
     inkscape:window-height="1016"
     id="namedview223"
     showgrid="false"
     inkscape:zoom="1.288572"
     inkscape:cx="331.65717"
     inkscape:cy="131.70047"
     inkscape:window-x="72"
     inkscape:window-y="27"
     inkscape:window-maximized="1"
     inkscape:current-layer="svg221" />
  <defs
     id="defs64">
    <marker
       inkscape:stockid="Arrow1Lend"
       orient="auto"
       refY="0.0"
       refX="0.0"
       id="marker5570"
       style="overflow:visible;"
       inkscape:isstock="true">
      <path
         id="path5568"
         d="M 0.0,0.0 L 5.0,-5.0 L -12.5,0.0 L 5.0,5.0 L 0.0,0.0 z "
         style="fill-rule:evenodd;stroke:#d42626;stroke-width:1pt;stroke-opacity:1;fill:#d42626;fill-opacity:1"
         transform="scale(0.8) rotate(180) translate(12.5,0)" />
    </marker>
    <inkscape:path-effect
       effect="bspline"
       id="path-effect5566"
       is_visible="true"
       weight="33.333333"
       steps="2"
       helper_size="0"
       apply_no_weight="true"
       apply_with_weight="true"
       only_selected="false" />
    <marker
       inkscape:isstock="true"
       style="overflow:visible;"
       id="marker4257"
       refX="0.0"
       refY="0.0"
       orient="auto"
       inkscape:stockid="Arrow1Lend"
       inkscape:collect="always">
      <path
         transform="scale(0.8) rotate(180) translate(12.5,0)"
         style="fill-rule:evenodd;stroke:#000000;stroke-width:1pt;stroke-opacity:1;fill:#000000;fill-opacity:1"
         d="M 0.0,0.0 L 5.0,-5.0 L -12.5,0.0 L 5.0,5.0 L 0.0,0.0 z "
         id="path4255" />
    </marker>
    <inkscape:path-effect
       only_selected="false"
       apply_with_weight="true"
       apply_no_weight="true"
       helper_size="0"
       steps="2"
       weight="33.333333"
       is_visible="true"
       id="path-effect4253"
       effect="bspline" />
    <marker
       inkscape:stockid="Arrow1Lend"
       orient="auto"
       refY="0.0"
       refX="0.0"
       id="marker4189"
       style="overflow:visible;"
       inkscape:isstock="true"
       inkscape:collect="always">
      <path
         id="path4187"
         d="M 0.0,0.0 L 5.0,-5.0 L -12.5,0.0 L 5.0,5.0 L 0.0,0.0 z "
         style="fill-rule:evenodd;stroke:#9466bd;stroke-width:1pt;stroke-opacity:1;fill:#9466bd;fill-opacity:1"
         transform="scale(0.8) rotate(180) translate(12.5,0)" />
    </marker>
    <inkscape:path-effect
       effect="bspline"
       id="path-effect4179"
       is_visible="true"
       weight="33.333333"
       steps="2"
       helper_size="0"
       apply_no_weight="true"
       apply_with_weight="true"
       only_selected="false" />
    <marker
       inkscape:stockid="Arrow1Lend"
       orient="auto"
       refY="0.0"
       refX="0.0"
       id="marker3087"
       style="overflow:visible;"
       inkscape:isstock="true">
      <path
         id="path3085"
         d="M 0.0,0.0 L 5.0,-5.0 L -12.5,0.0 L 5.0,5.0 L 0.0,0.0 z "
         style="fill-rule:evenodd;stroke:#000000;stroke-width:1pt;stroke-opacity:1;fill:#000000;fill-opacity:1"
         transform="scale(0.8) rotate(180) translate(12.5,0)" />
    </marker>
    <marker
       inkscape:stockid="Arrow1Lstart"
       orient="auto"
       refY="0.0"
       refX="0.0"
       id="marker3047"
       style="overflow:visible"
       inkscape:isstock="true">
      <path
         id="path3045"
         d="M 0.0,0.0 L 5.0,-5.0 L -12.5,0.0 L 5.0,5.0 L 0.0,0.0 z "
         style="fill-rule:evenodd;stroke:#000000;stroke-width:1pt;stroke-opacity:1;fill:#000000;fill-opacity:1"
         transform="scale(0.8) translate(12.5,0)" />
    </marker>
    <marker
       inkscape:isstock="true"
       style="overflow:visible;"
       id="marker2123"
       refX="0.0"
       refY="0.0"
       orient="auto"
       inkscape:stockid="Arrow1Lend"
       inkscape:collect="always">
      <path
         transform="scale(0.8) rotate(180) translate(12.5,0)"
         style="fill-rule:evenodd;stroke:#000000;stroke-width:1pt;stroke-opacity:1;fill:#000000;fill-opacity:1"
         d="M 0.0,0.0 L 5.0,-5.0 L -12.5,0.0 L 5.0,5.0 L 0.0,0.0 z "
         id="path2121" />
    </marker>
    <marker
       inkscape:isstock="true"
       style="overflow:visible"
       id="marker2095"
       refX="0.0"
       refY="0.0"
       orient="auto"
       inkscape:stockid="Arrow1Lstart"
       inkscape:collect="always">
      <path
         transform="scale(0.8) translate(12.5,0)"
         style="fill-rule:evenodd;stroke:#000000;stroke-width:1pt;stroke-opacity:1;fill:#000000;fill-opacity:1"
         d="M 0.0,0.0 L 5.0,-5.0 L -12.5,0.0 L 5.0,5.0 L 0.0,0.0 z "
         id="path2093" />
    </marker>
    <marker
       inkscape:stockid="Arrow1Lend"
       orient="auto"
       refY="0.0"
       refX="0.0"
       id="Arrow1Lend"
       style="overflow:visible;"
       inkscape:isstock="true"
       inkscape:collect="always">
      <path
         id="path1588"
         d="M 0.0,0.0 L 5.0,-5.0 L -12.5,0.0 L 5.0,5.0 L 0.0,0.0 z "
         style="fill-rule:evenodd;stroke:#000000;stroke-width:1pt;stroke-opacity:1;fill:#000000;fill-opacity:1"
         transform="scale(0.8) rotate(180) translate(12.5,0)" />
    </marker>
    <marker
       inkscape:stockid="Arrow1Lstart"
       orient="auto"
       refY="0.0"
       refX="0.0"
       id="Arrow1Lstart"
       style="overflow:visible"
       inkscape:isstock="true"
       inkscape:collect="always">
      <path
         id="path1585"
         d="M 0.0,0.0 L 5.0,-5.0 L -12.5,0.0 L 5.0,5.0 L 0.0,0.0 z "
         style="fill-rule:evenodd;stroke:#000000;stroke-width:1pt;stroke-opacity:1;fill:#000000;fill-opacity:1"
         transform="scale(0.8) translate(12.5,0)" />
    </marker>
    <g
       id="g59">
      <symbol
         overflow="visible"
         id="glyph0-0">
        <path
           style="stroke:none;"
           d=""
           id="path2" />
      </symbol>
      <symbol
         overflow="visible"
         id="glyph0-1">
        <path
           style="stroke:none;"
           d="M 7.53125 -5.765625 C 7.53125 -6.859375 7.515625 -8.71875 6.765625 -10.15625 C 6.09375 -11.40625 5.046875 -11.859375 4.109375 -11.859375 C 3.25 -11.859375 2.15625 -11.46875 1.46875 -10.171875 C 0.75 -8.828125 0.6875 -7.15625 0.6875 -5.765625 C 0.6875 -4.734375 0.703125 -3.171875 1.25 -1.8125 C 2.03125 0.03125 3.40625 0.28125 4.109375 0.28125 C 4.9375 0.28125 6.1875 -0.046875 6.921875 -1.765625 C 7.46875 -3 7.53125 -4.453125 7.53125 -5.765625 Z M 4.109375 0 C 2.953125 0 2.28125 -0.984375 2.03125 -2.34375 C 1.828125 -3.40625 1.828125 -4.953125 1.828125 -5.953125 C 1.828125 -7.34375 1.828125 -8.484375 2.0625 -9.578125 C 2.40625 -11.109375 3.40625 -11.5625 4.109375 -11.5625 C 4.84375 -11.5625 5.796875 -11.078125 6.140625 -9.609375 C 6.375 -8.59375 6.390625 -7.390625 6.390625 -5.953125 C 6.390625 -4.796875 6.390625 -3.359375 6.171875 -2.296875 C 5.796875 -0.34375 4.734375 0 4.109375 0 Z M 4.109375 0 "
           id="path5" />
      </symbol>
      <symbol
         overflow="visible"
         id="glyph0-2">
        <path
           style="stroke:none;"
           d="M 4.765625 -11.46875 C 4.765625 -11.84375 4.75 -11.859375 4.5 -11.859375 C 3.796875 -11.015625 2.75 -10.75 1.734375 -10.703125 C 1.6875 -10.703125 1.59375 -10.703125 1.578125 -10.671875 C 1.5625 -10.640625 1.5625 -10.59375 1.5625 -10.21875 C 2.109375 -10.21875 3.046875 -10.328125 3.765625 -10.765625 L 3.765625 -1.3125 C 3.765625 -0.6875 3.734375 -0.46875 2.1875 -0.46875 L 1.65625 -0.46875 L 1.65625 0 C 2.515625 -0.015625 3.40625 -0.03125 4.265625 -0.03125 C 5.125 -0.03125 6.03125 -0.015625 6.890625 0 L 6.890625 -0.46875 L 6.34375 -0.46875 C 4.8125 -0.46875 4.765625 -0.65625 4.765625 -1.3125 Z M 4.765625 -11.46875 "
           id="path8" />
      </symbol>
      <symbol
         overflow="visible"
         id="glyph0-3">
        <path
           style="stroke:none;"
           d="M 7.484375 -2.78125 L 7.15625 -2.78125 C 6.984375 -1.5 6.828125 -1.296875 6.765625 -1.1875 C 6.671875 -1.046875 5.375 -1.046875 5.125 -1.046875 L 1.6875 -1.046875 C 2.328125 -1.734375 3.59375 -3.015625 5.109375 -4.484375 C 6.203125 -5.53125 7.484375 -6.75 7.484375 -8.515625 C 7.484375 -10.640625 5.796875 -11.859375 3.90625 -11.859375 C 1.9375 -11.859375 0.734375 -10.109375 0.734375 -8.5 C 0.734375 -7.796875 1.25 -7.71875 1.46875 -7.71875 C 1.65625 -7.71875 2.1875 -7.828125 2.1875 -8.453125 C 2.1875 -9 1.71875 -9.171875 1.46875 -9.171875 C 1.359375 -9.171875 1.25 -9.140625 1.1875 -9.109375 C 1.53125 -10.640625 2.5625 -11.390625 3.65625 -11.390625 C 5.21875 -11.390625 6.25 -10.15625 6.25 -8.515625 C 6.25 -6.953125 5.328125 -5.609375 4.3125 -4.453125 L 0.734375 -0.40625 L 0.734375 0 L 7.046875 0 Z M 7.484375 -2.78125 "
           id="path11" />
      </symbol>
      <symbol
         overflow="visible"
         id="glyph0-4">
        <path
           style="stroke:none;"
           d="M 3.96875 -6.09375 C 5.5625 -6.09375 6.265625 -4.71875 6.265625 -3.125 C 6.265625 -0.96875 5.109375 -0.140625 4.078125 -0.140625 C 3.125 -0.140625 1.578125 -0.609375 1.09375 -1.984375 C 1.1875 -1.953125 1.28125 -1.953125 1.359375 -1.953125 C 1.796875 -1.953125 2.109375 -2.234375 2.109375 -2.703125 C 2.109375 -3.234375 1.71875 -3.46875 1.359375 -3.46875 C 1.0625 -3.46875 0.59375 -3.3125 0.59375 -2.65625 C 0.59375 -1 2.203125 0.28125 4.109375 0.28125 C 6.09375 0.28125 7.625 -1.28125 7.625 -3.109375 C 7.625 -4.84375 6.1875 -6.09375 4.484375 -6.296875 C 5.84375 -6.578125 7.15625 -7.796875 7.15625 -9.4375 C 7.15625 -10.828125 5.734375 -11.859375 4.125 -11.859375 C 2.5 -11.859375 1.0625 -10.859375 1.0625 -9.421875 C 1.0625 -8.796875 1.53125 -8.6875 1.765625 -8.6875 C 2.140625 -8.6875 2.453125 -8.921875 2.453125 -9.375 C 2.453125 -9.84375 2.140625 -10.078125 1.765625 -10.078125 C 1.6875 -10.078125 1.59375 -10.078125 1.53125 -10.046875 C 2.046875 -11.234375 3.46875 -11.4375 4.09375 -11.4375 C 4.71875 -11.4375 5.90625 -11.140625 5.90625 -9.421875 C 5.90625 -8.921875 5.828125 -8.015625 5.21875 -7.234375 C 4.6875 -6.53125 4.078125 -6.5 3.484375 -6.4375 C 3.390625 -6.4375 2.984375 -6.40625 2.90625 -6.40625 C 2.78125 -6.390625 2.703125 -6.375 2.703125 -6.25 C 2.703125 -6.109375 2.71875 -6.09375 3.078125 -6.09375 Z M 3.96875 -6.09375 "
           id="path14" />
      </symbol>
      <symbol
         overflow="visible"
         id="glyph0-5">
        <path
           style="stroke:none;"
           d="M 2.046875 -10.5 C 2.21875 -10.421875 2.953125 -10.1875 3.71875 -10.1875 C 5.375 -10.1875 6.296875 -11.078125 6.8125 -11.609375 C 6.8125 -11.75 6.8125 -11.84375 6.703125 -11.84375 C 6.6875 -11.84375 6.65625 -11.84375 6.515625 -11.765625 C 5.890625 -11.5 5.140625 -11.28125 4.25 -11.28125 C 3.71875 -11.28125 2.90625 -11.359375 2.03125 -11.75 C 1.828125 -11.84375 1.796875 -11.84375 1.78125 -11.84375 C 1.6875 -11.84375 1.671875 -11.828125 1.671875 -11.46875 L 1.671875 -6.265625 C 1.671875 -5.9375 1.671875 -5.84375 1.84375 -5.84375 C 1.9375 -5.84375 1.96875 -5.890625 2.0625 -6.015625 C 2.640625 -6.8125 3.421875 -7.15625 4.328125 -7.15625 C 4.953125 -7.15625 6.296875 -6.765625 6.296875 -3.6875 C 6.296875 -3.125 6.296875 -2.078125 5.765625 -1.25 C 5.3125 -0.515625 4.609375 -0.140625 3.84375 -0.140625 C 2.65625 -0.140625 1.453125 -0.96875 1.125 -2.34375 C 1.203125 -2.328125 1.34375 -2.296875 1.421875 -2.296875 C 1.65625 -2.296875 2.09375 -2.421875 2.09375 -2.984375 C 2.09375 -3.46875 1.765625 -3.65625 1.421875 -3.65625 C 1 -3.65625 0.734375 -3.40625 0.734375 -2.90625 C 0.734375 -1.34375 1.96875 0.28125 3.875 0.28125 C 5.71875 0.28125 7.484375 -1.3125 7.484375 -3.625 C 7.484375 -5.78125 6.078125 -7.4375 4.34375 -7.4375 C 3.421875 -7.4375 2.65625 -7.109375 2.046875 -6.453125 Z M 2.046875 -10.5 "
           id="path17" />
      </symbol>
      <symbol
         overflow="visible"
         id="glyph1-0">
        <path
           style="stroke:none;"
           d=""
           id="path20" />
      </symbol>
      <symbol
         overflow="visible"
         id="glyph1-1">
        <path
           style="stroke:none;"
           d="M 8.5 -7.3125 C 7.921875 -7.203125 7.71875 -6.78125 7.71875 -6.4375 C 7.71875 -6.015625 8.046875 -5.859375 8.3125 -5.859375 C 8.84375 -5.859375 9.21875 -6.328125 9.21875 -6.8125 C 9.21875 -7.5625 8.359375 -7.90625 7.609375 -7.90625 C 6.515625 -7.90625 5.90625 -6.828125 5.734375 -6.5 C 5.328125 -7.84375 4.21875 -7.90625 3.890625 -7.90625 C 2.0625 -7.90625 1.09375 -5.5625 1.09375 -5.171875 C 1.09375 -5.09375 1.171875 -5 1.296875 -5 C 1.4375 -5 1.46875 -5.109375 1.5 -5.1875 C 2.109375 -7.171875 3.3125 -7.546875 3.84375 -7.546875 C 4.640625 -7.546875 4.8125 -6.796875 4.8125 -6.375 C 4.8125 -5.96875 4.703125 -5.5625 4.484375 -4.703125 L 3.875 -2.234375 C 3.609375 -1.171875 3.078125 -0.171875 2.140625 -0.171875 C 2.046875 -0.171875 1.59375 -0.171875 1.21875 -0.40625 C 1.859375 -0.53125 2.015625 -1.078125 2.015625 -1.296875 C 2.015625 -1.65625 1.734375 -1.859375 1.40625 -1.859375 C 0.96875 -1.859375 0.5 -1.484375 0.5 -0.921875 C 0.5 -0.15625 1.34375 0.171875 2.109375 0.171875 C 2.984375 0.171875 3.59375 -0.5 3.96875 -1.234375 C 4.25 -0.171875 5.140625 0.171875 5.8125 0.171875 C 7.640625 0.171875 8.609375 -2.171875 8.609375 -2.5625 C 8.609375 -2.65625 8.53125 -2.71875 8.4375 -2.71875 C 8.265625 -2.71875 8.25 -2.640625 8.203125 -2.5 C 7.71875 -0.921875 6.671875 -0.171875 5.859375 -0.171875 C 5.234375 -0.171875 4.890625 -0.640625 4.890625 -1.375 C 4.890625 -1.78125 4.96875 -2.0625 5.25 -3.25 L 5.890625 -5.6875 C 6.15625 -6.765625 6.765625 -7.546875 7.59375 -7.546875 C 7.625 -7.546875 8.125 -7.546875 8.5 -7.3125 Z M 8.5 -7.3125 "
           id="path23" />
      </symbol>
      <symbol
         overflow="visible"
         id="glyph1-2">
        <path
           style="stroke:none;"
           d="M 3.296875 -0.859375 C 3.296875 -1.375 2.875 -1.734375 2.4375 -1.734375 C 1.921875 -1.734375 1.5625 -1.3125 1.5625 -0.875 C 1.5625 -0.359375 1.984375 0 2.421875 0 C 2.9375 0 3.296875 -0.4375 3.296875 -0.859375 Z M 3.296875 -0.859375 "
           id="path26" />
      </symbol>
      <symbol
         overflow="visible"
         id="glyph2-0">
        <path
           style="stroke:none;"
           d=""
           id="path29" />
      </symbol>
      <symbol
         overflow="visible"
         id="glyph2-1">
        <path
           style="stroke:none;"
           d="M 11.828125 -4.125 C 12.125 -4.125 12.453125 -4.125 12.453125 -4.484375 C 12.453125 -4.84375 12.125 -4.84375 11.828125 -4.84375 L 2.109375 -4.84375 C 1.8125 -4.84375 1.484375 -4.84375 1.484375 -4.484375 C 1.484375 -4.125 1.8125 -4.125 2.109375 -4.125 Z M 11.828125 -4.125 "
           id="path32" />
      </symbol>
      <symbol
         overflow="visible"
         id="glyph3-0">
        <path
           style="stroke:none;"
           d=""
           id="path35" />
      </symbol>
      <symbol
         overflow="visible"
         id="glyph3-1">
        <path
           style="stroke:none;"
           d="M -3.59375 -4.09375 C -3.53125 -4.390625 -3.421875 -4.875 -3.40625 -4.984375 C -3.34375 -5.21875 -3.046875 -6.03125 -2.1875 -6.03125 C -1.625 -6.03125 -0.171875 -5.53125 -0.171875 -3.4375 C -0.171875 -3.0625 -0.234375 -1.71875 -1.21875 -1.359375 C -1.125 -2.078125 -1.6875 -2.4375 -2.078125 -2.4375 C -2.453125 -2.4375 -2.65625 -2.1875 -2.65625 -1.828125 C -2.65625 -1.4375 -2.34375 -0.921875 -1.546875 -0.921875 C -0.484375 -0.921875 0.171875 -1.984375 0.171875 -3.421875 C 0.171875 -6.15625 -1.828125 -6.953125 -2.765625 -6.953125 C -3.03125 -6.953125 -3.53125 -6.953125 -4.109375 -6.390625 C -4.53125 -5.9375 -4.625 -5.5 -4.828125 -4.53125 C -4.9375 -4.046875 -5.09375 -3.28125 -5.90625 -3.28125 C -6.265625 -3.28125 -7.546875 -3.609375 -7.546875 -5.3125 C -7.546875 -6.0625 -7.265625 -6.796875 -6.625 -6.984375 C -6.625 -6.1875 -5.9375 -6.15625 -5.921875 -6.15625 C -5.546875 -6.15625 -5.4375 -6.5 -5.4375 -6.65625 C -5.4375 -6.90625 -5.625 -7.40625 -6.390625 -7.40625 C -7.140625 -7.40625 -7.90625 -6.71875 -7.90625 -5.328125 C -7.90625 -2.984375 -6.0625 -2.34375 -5.328125 -2.34375 C -3.96875 -2.34375 -3.671875 -3.671875 -3.59375 -4.09375 Z M -3.59375 -4.09375 "
           id="path38" />
      </symbol>
      <symbol
         overflow="visible"
         id="glyph3-2">
        <path
           style="stroke:none;"
           d="M -7.3125 -8.5 C -7.203125 -7.921875 -6.78125 -7.71875 -6.4375 -7.71875 C -6.015625 -7.71875 -5.859375 -8.046875 -5.859375 -8.3125 C -5.859375 -8.84375 -6.328125 -9.21875 -6.8125 -9.21875 C -7.5625 -9.21875 -7.90625 -8.359375 -7.90625 -7.609375 C -7.90625 -6.515625 -6.828125 -5.90625 -6.5 -5.734375 C -7.84375 -5.328125 -7.90625 -4.21875 -7.90625 -3.890625 C -7.90625 -2.0625 -5.5625 -1.09375 -5.171875 -1.09375 C -5.09375 -1.09375 -5 -1.171875 -5 -1.296875 C -5 -1.4375 -5.109375 -1.46875 -5.1875 -1.5 C -7.171875 -2.109375 -7.546875 -3.3125 -7.546875 -3.84375 C -7.546875 -4.640625 -6.796875 -4.8125 -6.375 -4.8125 C -5.96875 -4.8125 -5.5625 -4.703125 -4.703125 -4.484375 L -2.234375 -3.875 C -1.171875 -3.609375 -0.171875 -3.078125 -0.171875 -2.140625 C -0.171875 -2.046875 -0.171875 -1.59375 -0.40625 -1.21875 C -0.53125 -1.859375 -1.078125 -2.015625 -1.296875 -2.015625 C -1.65625 -2.015625 -1.859375 -1.734375 -1.859375 -1.40625 C -1.859375 -0.96875 -1.484375 -0.5 -0.921875 -0.5 C -0.15625 -0.5 0.171875 -1.34375 0.171875 -2.109375 C 0.171875 -2.984375 -0.5 -3.59375 -1.234375 -3.96875 C -0.171875 -4.25 0.171875 -5.140625 0.171875 -5.8125 C 0.171875 -7.640625 -2.171875 -8.609375 -2.5625 -8.609375 C -2.65625 -8.609375 -2.71875 -8.53125 -2.71875 -8.4375 C -2.71875 -8.265625 -2.640625 -8.25 -2.5 -8.203125 C -0.921875 -7.71875 -0.171875 -6.671875 -0.171875 -5.859375 C -0.171875 -5.234375 -0.640625 -4.890625 -1.375 -4.890625 C -1.78125 -4.890625 -2.0625 -4.96875 -3.25 -5.25 L -5.6875 -5.890625 C -6.765625 -6.15625 -7.546875 -6.765625 -7.546875 -7.59375 C -7.546875 -7.625 -7.546875 -8.125 -7.3125 -8.5 Z M -7.3125 -8.5 "
           id="path41" />
      </symbol>
      <symbol
         overflow="visible"
         id="glyph3-3">
        <path
           style="stroke:none;"
           d="M 0.078125 -3.5 C -0.96875 -3.5 -1.734375 -3.15625 -1.734375 -2.421875 C -1.734375 -1.84375 -1.28125 -1.5625 -0.875 -1.5625 C -0.484375 -1.5625 0 -1.828125 0 -2.4375 C 0 -2.671875 -0.078125 -2.875 -0.234375 -3.03125 C -0.265625 -3.0625 -0.265625 -3.078125 -0.265625 -3.109375 C -0.265625 -3.140625 -0.015625 -3.140625 0.078125 -3.140625 C 0.65625 -3.140625 1.828125 -3.03125 3 -1.984375 C 3.203125 -1.796875 3.25 -1.796875 3.28125 -1.796875 C 3.375 -1.796875 3.46875 -1.890625 3.46875 -1.96875 C 3.46875 -2.109375 2.140625 -3.5 0.078125 -3.5 Z M 0.078125 -3.5 "
           id="path44" />
      </symbol>
      <symbol
         overflow="visible"
         id="glyph3-4">
        <path
           style="stroke:none;"
           d="M -7.203125 -3.609375 L -7.203125 -5.25 C -7.203125 -5.59375 -7.203125 -5.78125 -7.53125 -5.78125 C -7.734375 -5.78125 -7.734375 -5.671875 -7.734375 -5.3125 L -7.734375 -3.734375 L -10.34375 -4.390625 C -10.59375 -4.46875 -10.640625 -4.46875 -10.765625 -4.46875 C -11.046875 -4.46875 -11.203125 -4.234375 -11.203125 -4 C -11.203125 -3.859375 -11.15625 -3.4375 -10.578125 -3.296875 L -7.734375 -2.59375 L -7.734375 -0.921875 C -7.734375 -0.5625 -7.734375 -0.390625 -7.390625 -0.390625 C -7.203125 -0.390625 -7.203125 -0.515625 -7.203125 -0.859375 L -7.203125 -2.453125 L -2.46875 -1.28125 C -1.84375 -1.125 -1.671875 -1.078125 -1.4375 -1.078125 C -0.59375 -1.078125 0.171875 -1.671875 0.171875 -2.671875 C 0.171875 -4.484375 -2.4375 -5.453125 -2.5625 -5.453125 C -2.671875 -5.453125 -2.71875 -5.375 -2.71875 -5.28125 C -2.71875 -5.234375 -2.71875 -5.171875 -2.65625 -5.125 C -2.640625 -5.109375 -2.625 -5.09375 -2.328125 -4.96875 C -1.4375 -4.59375 -0.171875 -3.765625 -0.171875 -2.71875 C -0.171875 -2.1875 -0.625 -2.15625 -1.015625 -2.15625 C -1.046875 -2.15625 -1.375 -2.15625 -1.59375 -2.203125 Z M -7.203125 -3.609375 "
           id="path47" />
      </symbol>
      <symbol
         overflow="visible"
         id="glyph4-0">
        <path
           style="stroke:none;"
           d=""
           id="path50" />
      </symbol>
      <symbol
         overflow="visible"
         id="glyph4-1">
        <path
           style="stroke:none;"
           d="M 4.375 -5.484375 C 4.359375 -5.484375 4.328125 -5.484375 4.265625 -5.4375 C 3.421875 -4.609375 1.125 -2.40625 -4.46875 -2.40625 C -10.0625 -2.40625 -12.34375 -4.578125 -13.234375 -5.453125 C -13.25 -5.453125 -13.296875 -5.484375 -13.34375 -5.484375 C -13.40625 -5.484375 -13.4375 -5.4375 -13.4375 -5.359375 C -13.4375 -5.171875 -12.109375 -3.640625 -10.140625 -2.765625 C -8.140625 -1.859375 -6.203125 -1.609375 -4.484375 -1.609375 C -3.1875 -1.609375 -1 -1.734375 1.3125 -2.8125 C 3.171875 -3.671875 4.484375 -5.140625 4.484375 -5.359375 C 4.484375 -5.453125 4.453125 -5.484375 4.375 -5.484375 Z M 4.375 -5.484375 "
           id="path53" />
      </symbol>
      <symbol
         overflow="visible"
         id="glyph4-2">
        <path
           style="stroke:none;"
           d="M -4.46875 -4.71875 C -5.765625 -4.71875 -7.953125 -4.59375 -10.265625 -3.515625 C -12.125 -2.65625 -13.4375 -1.1875 -13.4375 -0.96875 C -13.4375 -0.921875 -13.421875 -0.84375 -13.328125 -0.84375 C -13.296875 -0.84375 -13.28125 -0.859375 -13.234375 -0.875 C -12.34375 -1.734375 -10.0625 -3.921875 -4.484375 -3.921875 C 1.109375 -3.921875 3.390625 -1.765625 4.28125 -0.875 C 4.328125 -0.859375 4.34375 -0.84375 4.375 -0.84375 C 4.46875 -0.84375 4.484375 -0.921875 4.484375 -0.96875 C 4.484375 -1.171875 3.15625 -2.6875 1.1875 -3.5625 C -0.8125 -4.46875 -2.75 -4.71875 -4.46875 -4.71875 Z M -4.46875 -4.71875 "
           id="path56" />
      </symbol>
    </g>
    <clipPath
       id="clip1">
      <path
         d="M 0 0 L 413.375 0 L 413.375 274.722656 L 0 274.722656 Z M 0 0 "
         id="path61" />
    </clipPath>
  </defs>
  <g
     style="clip-rule:nonzero"
     id="g68"
     clip-path="url(#clip1)">
    <path
       inkscape:connector-curvature="0"
       id="path66"
       d="M 0,274.72266 H 413.375 V 0 H 0 Z m 0,0"
       style="fill:#ffffff;fill-opacity:1;fill-rule:nonzero;stroke:none" />
  </g>
  <path
     inkscape:connector-curvature="0"
     id="path70"
     d="M 71.375,224.64062 H 406.17578 V 7.199219 H 71.375 Z m 0,0"
     style="fill:#ffffff;fill-opacity:1;fill-rule:nonzero;stroke:none" />
  <path
     inkscape:connector-curvature="0"
     id="path72"
     d="m 86.59375,224.64063 v 3.5"
     style="fill:none;stroke:#000000;stroke-width:0.80000001;stroke-linecap:butt;stroke-linejoin:round;stroke-miterlimit:10;stroke-opacity:1" />
  <g
     id="g76"
     style="fill:#000000;fill-opacity:1">
    <use
       height="100%"
       width="100%"
       id="use74"
       y="244.09331"
       x="82.481445"
       xlink:href="#glyph0-1" />
  </g>
  <path
     inkscape:connector-curvature="0"
     id="path78"
     d="m 188.04687,224.64063 v 3.5"
     style="fill:none;stroke:#000000;stroke-width:0.80000001;stroke-linecap:butt;stroke-linejoin:round;stroke-miterlimit:10;stroke-opacity:1" />
  <g
     id="g82"
     style="fill:#000000;fill-opacity:1">
    <use
       height="100%"
       width="100%"
       id="use80"
       y="244.09331"
       x="183.93599"
       xlink:href="#glyph0-2" />
  </g>
  <path
     inkscape:connector-curvature="0"
     id="path84"
     d="m 289.50391,224.64063 v 3.5"
     style="fill:none;stroke:#000000;stroke-width:0.80000001;stroke-linecap:butt;stroke-linejoin:round;stroke-miterlimit:10;stroke-opacity:1" />
  <g
     id="g88"
     style="fill:#000000;fill-opacity:1">
    <use
       height="100%"
       width="100%"
       id="use86"
       y="244.09331"
       x="285.39053"
       xlink:href="#glyph0-3" />
  </g>
  <path
     inkscape:connector-curvature="0"
     id="path90"
     d="m 390.95703,224.64063 v 3.5"
     style="fill:none;stroke:#000000;stroke-width:0.80000001;stroke-linecap:butt;stroke-linejoin:round;stroke-miterlimit:10;stroke-opacity:1" />
  <g
     id="g94"
     style="fill:#000000;fill-opacity:1">
    <use
       height="100%"
       width="100%"
       id="use92"
       y="244.09331"
       x="386.84509"
       xlink:href="#glyph0-4" />
  </g>
  <g
     id="g98"
     style="fill:#000000;fill-opacity:1">
    <use
       height="100%"
       width="100%"
       id="use96"
       y="264.03467"
       x="233.78635"
       xlink:href="#glyph1-1" />
  </g>
  <path
     inkscape:connector-curvature="0"
     id="path100"
     d="m 71.375,215.75781 h -3.5"
     style="fill:none;stroke:#000000;stroke-width:0.80000001;stroke-linecap:butt;stroke-linejoin:round;stroke-miterlimit:10;stroke-opacity:1" />
  <g
     id="g104"
     style="fill:#000000;fill-opacity:1">
    <use
       height="100%"
       width="100%"
       id="use102"
       y="221.98293"
       x="29.101604"
       xlink:href="#glyph2-1" />
  </g>
  <g
     id="g108"
     style="fill:#000000;fill-opacity:1">
    <use
       height="100%"
       width="100%"
       id="use106"
       y="221.98293"
       x="43.049343"
       xlink:href="#glyph0-2" />
  </g>
  <g
     id="g112"
     style="fill:#000000;fill-opacity:1">
    <use
       height="100%"
       width="100%"
       id="use110"
       y="221.98293"
       x="51.273632"
       xlink:href="#glyph1-2" />
  </g>
  <g
     id="g116"
     style="fill:#000000;fill-opacity:1">
    <use
       height="100%"
       width="100%"
       id="use114"
       y="221.98293"
       x="56.151123"
       xlink:href="#glyph0-1" />
  </g>
  <path
     inkscape:connector-curvature="0"
     id="path118"
     d="m 71.375,165.83594 h -3.5"
     style="fill:none;stroke:#000000;stroke-width:0.80000001;stroke-linecap:butt;stroke-linejoin:round;stroke-miterlimit:10;stroke-opacity:1" />
  <g
     id="g122"
     style="fill:#000000;fill-opacity:1">
    <use
       height="100%"
       width="100%"
       id="use120"
       y="172.06325"
       x="29.101604"
       xlink:href="#glyph2-1" />
  </g>
  <g
     id="g126"
     style="fill:#000000;fill-opacity:1">
    <use
       height="100%"
       width="100%"
       id="use124"
       y="172.06325"
       x="43.049343"
       xlink:href="#glyph0-1" />
  </g>
  <g
     id="g130"
     style="fill:#000000;fill-opacity:1">
    <use
       height="100%"
       width="100%"
       id="use128"
       y="172.06325"
       x="51.273632"
       xlink:href="#glyph1-2" />
  </g>
  <g
     id="g134"
     style="fill:#000000;fill-opacity:1">
    <use
       height="100%"
       width="100%"
       id="use132"
       y="172.06325"
       x="56.151123"
       xlink:href="#glyph0-5" />
  </g>
  <path
     inkscape:connector-curvature="0"
     id="path136"
     d="m 71.375,115.91797 h -3.5"
     style="fill:none;stroke:#000000;stroke-width:0.80000001;stroke-linecap:butt;stroke-linejoin:round;stroke-miterlimit:10;stroke-opacity:1" />
  <g
     id="g140"
     style="fill:#000000;fill-opacity:1">
    <use
       height="100%"
       width="100%"
       id="use138"
       y="122.14357"
       x="43.049343"
       xlink:href="#glyph0-1" />
  </g>
  <g
     id="g144"
     style="fill:#000000;fill-opacity:1">
    <use
       height="100%"
       width="100%"
       id="use142"
       y="122.14357"
       x="51.273632"
       xlink:href="#glyph1-2" />
  </g>
  <g
     id="g148"
     style="fill:#000000;fill-opacity:1">
    <use
       height="100%"
       width="100%"
       id="use146"
       y="122.14357"
       x="56.151123"
       xlink:href="#glyph0-1" />
  </g>
  <path
     inkscape:connector-curvature="0"
     id="path150"
     d="m 71.375,65.9961 h -3.5"
     style="fill:none;stroke:#000000;stroke-width:0.80000001;stroke-linecap:butt;stroke-linejoin:round;stroke-miterlimit:10;stroke-opacity:1" />
  <g
     id="g154"
     style="fill:#000000;fill-opacity:1">
    <use
       height="100%"
       width="100%"
       id="use152"
       y="72.223892"
       x="43.049343"
       xlink:href="#glyph0-1" />
  </g>
  <g
     id="g158"
     style="fill:#000000;fill-opacity:1">
    <use
       height="100%"
       width="100%"
       id="use156"
       y="72.223892"
       x="51.273632"
       xlink:href="#glyph1-2" />
  </g>
  <g
     id="g162"
     style="fill:#000000;fill-opacity:1">
    <use
       height="100%"
       width="100%"
       id="use160"
       y="72.223892"
       x="56.151123"
       xlink:href="#glyph0-5" />
  </g>
  <path
     inkscape:connector-curvature="0"
     id="path164"
     d="m 71.375,16.07813 h -3.5"
     style="fill:none;stroke:#000000;stroke-width:0.80000001;stroke-linecap:butt;stroke-linejoin:round;stroke-miterlimit:10;stroke-opacity:1" />
  <g
     id="g168"
     style="fill:#000000;fill-opacity:1">
    <use
       height="100%"
       width="100%"
       id="use166"
       y="22.304216"
       x="43.049343"
       xlink:href="#glyph0-2" />
  </g>
  <g
     id="g172"
     style="fill:#000000;fill-opacity:1">
    <use
       height="100%"
       width="100%"
       id="use170"
       y="22.304216"
       x="51.273632"
       xlink:href="#glyph1-2" />
  </g>
  <g
     id="g176"
     style="fill:#000000;fill-opacity:1">
    <use
       height="100%"
       width="100%"
       id="use174"
       y="22.304216"
       x="56.151123"
       xlink:href="#glyph0-1" />
  </g>
  <g
     id="g180"
     style="fill:#000000;fill-opacity:1">
    <use
       height="100%"
       width="100%"
       id="use178"
       y="138.49861"
       x="20.633421"
       xlink:href="#glyph3-1" />
  </g>
  <g
     id="g184"
     style="fill:#000000;fill-opacity:1">
    <use
       height="100%"
       width="100%"
       id="use182"
       y="130.2276"
       x="20.633421"
       xlink:href="#glyph4-1" />
  </g>
  <g
     id="g190"
     style="fill:#000000;fill-opacity:1">
    <use
       height="100%"
       width="100%"
       id="use186"
       y="123.87708"
       x="20.633421"
       xlink:href="#glyph3-2" />
    <use
       height="100%"
       width="100%"
       id="use188"
       y="113.90646"
       x="20.633421"
       xlink:href="#glyph3-3" />
  </g>
  <g
     id="g194"
     style="fill:#000000;fill-opacity:1">
    <use
       height="100%"
       width="100%"
       id="use192"
       y="106.0579"
       x="20.633421"
       xlink:href="#glyph3-4" />
  </g>
  <g
     id="g198"
     style="fill:#000000;fill-opacity:1">
    <use
       height="100%"
       width="100%"
       id="use196"
       y="99.691925"
       x="20.633421"
       xlink:href="#glyph4-2" />
  </g>
  <path
     inkscape:connector-curvature="0"
     id="path200"
     d="m 86.59375,145.29688 1.53125,2.64453 1.527344,2.35937 1.53125,2.05469 1.527344,1.72266 1.53125,1.38281 1.527343,1.02734 1.53125,0.66406 1.527344,0.29688 1.531255,-0.0781 1.52734,-0.44921 1.53125,-0.81641 1.52734,-1.17578 1.53125,-1.52735 1.53125,-1.86328 1.52735,-2.18359 1.53125,-2.48047 1.52734,-2.76172 3.05859,-6.25 3.0586,-7.03515 4.58984,-11.47266 6.11719,-15.55859 3.05859,-7.26563 3.0586,-6.57422 1.53125,-2.95312 1.52734,-2.69141 1.53125,-2.41015 1.53125,-2.10157 1.52734,-1.78125 1.53125,-1.4414 1.52735,-1.08594 1.53125,-0.72656 1.52734,-0.35547 1.53125,0.0117 1.52734,0.39062 1.53125,0.75391 1.52735,1.11719 1.53125,1.47265 1.52734,1.80469 1.53125,2.13281 1.53125,2.4336 1.52735,2.71484 3.05859,6.17578 3.05859,6.98047 4.58985,11.42578 6.11718,15.58203 3.0586,7.31641 3.05859,6.63672 1.53125,2.99609 1.52735,2.73437 1.53125,2.46094 1.52734,2.15625 1.53125,1.83594 1.53125,1.49609 1.52734,1.14844 1.53125,0.78516 1.52735,0.41797 1.53125,0.0469 1.52734,-0.32422 1.53125,-0.69531 1.52734,-1.05859 1.53125,-1.41016 1.52735,-1.75391 1.53125,-2.07812 1.52734,-2.38281 1.53125,-2.67188 3.0586,-6.09765 3.05859,-6.92188 3.05859,-7.5 9.17969,-23.23047 3.05859,-7.0625 3.0586,-6.28906 1.52734,-2.78125 1.53125,-2.50391 1.52735,-2.21093 1.53125,-1.89063 1.52734,-1.55469 1.53125,-1.20703 1.53125,-0.84765 1.52734,-0.48047 1.53125,-0.10547 1.52735,0.26172 1.53125,0.63281 1.52734,1 1.53125,1.35156 1.52734,1.69922 1.53125,2.02344 1.52735,2.33594 1.53125,2.625 1.53125,2.88671 3.05859,6.46875 3.0586,7.19532 4.58593,11.58203 6.11719,15.46484 3.0625,7.11328 3.05859,6.36328 1.52735,2.82422 1.53125,2.55469 1.52734,2.26172 1.53125,1.9414 1.52735,1.61329 1.53125,1.26562 1.52734,0.91016 1.53125,0.53906 1.53125,0.17187 1.52734,-0.20312 1.53125,-0.57031 1.52735,-0.9375 1.53125,-1.29688 1.52734,-1.64062 1.53125,-1.97266 1.52734,-2.28516 1.53125,-2.57421 1.52735,-2.84766 3.0625,-6.39844 3.05859,-7.14453 4.58594,-11.54687 6.11719,-15.4961 3.05859,-7.17187 3.0625,-6.4336 1.52734,-2.86718 1.53125,-2.60157 1.52735,-2.30859 1.53125,-2 1.52734,-1.66797 1.53125,-1.32422 1.52735,-0.96875 1.53125,-0.60156 1.52734,-0.23437 1.53125,0.14062 1.53125,0.51172 1.52734,0.875 1.53125,1.23828 1.52735,1.58203 1.53125,1.91797 1.52734,2.23438 1.53125,2.53125 1.52734,2.80468 3.0586,6.32422 3.0625,7.08985 4.58594,11.51171 6.11718,15.53125 3.0586,7.21875 3.0625,6.50391 1.52734,2.91016"
     style="fill:none;stroke:#1e75b3;stroke-width:1.5;stroke-linecap:square;stroke-linejoin:round;stroke-miterlimit:10;stroke-opacity:1" />
  <path
     inkscape:connector-curvature="0"
     id="path202"
     d="m 86.59375,185.8086 1.53125,6.29687 1.527344,5.61328 1.53125,4.87891 1.527344,4.10547 1.53125,3.28906 1.527343,2.44531 1.53125,1.58203 1.527344,0.69922 1.531255,-0.18359 1.52734,-1.07031 1.53125,-1.94141 1.52734,-2.80078 1.53125,-3.63281 1.53125,-4.4336 1.52735,-5.1914 1.53125,-5.90235 1.52734,-6.5664 1.53125,-7.16797 3.05859,-15.875 3.0586,-17.44922 6.11719,-37.10156 4.58984,-27.12891 3.05859,-16.53906 3.0586,-14.59766 1.52734,-6.40234 L 140.125,35 l 1.53125,-5.0039 1.52734,-4.23438 1.53125,-3.42969 1.52735,-2.58593 1.53125,-1.72657 1.52734,-0.85156 1.53125,0.0391 1.52734,0.92188 1.53125,1.79687 1.52735,2.66016 1.53125,3.49609 1.52734,4.30078 1.53125,5.07032 1.53125,5.78906 1.52735,6.45703 1.53125,7.07422 3.05859,15.71484 3.05859,17.34375 4.58594,27.69532 4.58984,27.72656 3.0586,17.39453 3.05859,15.80078 1.53125,7.11719 1.52735,6.51172 1.53125,5.84765 1.52734,5.12891 1.53125,4.36719 1.53125,3.5664 1.52734,2.73047 1.53125,1.8711 1.52735,0.99218 1.53125,0.11328 1.52734,-0.77343 1.53125,-1.65625 1.52734,-2.51563 1.53125,-3.35937 1.52735,-4.16797 1.53125,-4.94531 1.52734,-5.67188 1.53125,-6.35156 1.53125,-6.97266 3.0586,-15.55469 3.05859,-17.23437 4.58594,-27.625 4.58984,-27.78125 3.05859,-17.50391 3.0586,-15.95312 1.53125,-7.21485 1.52734,-6.61718 1.53125,-5.96485 1.52735,-5.25 1.53125,-4.5 1.52734,-3.69922 1.53125,-2.87109 1.53125,-2.01562 1.52734,-1.14063 1.53125,-0.25781 1.52735,0.625 1.53125,1.50781 1.52734,2.375 1.53125,3.21875 1.52734,4.03906 1.53125,4.81641 1.52735,5.55469 1.53125,6.24218 1.53125,6.875 3.05859,15.39063 3.0586,17.11328 4.58593,27.55078 6.11719,36.78516 3.0625,16.93359 3.05859,15.13281 1.52735,6.72266 1.53125,6.07422 1.52734,5.375 1.53125,4.625 1.52735,3.83594 1.53125,3.01172 1.52734,2.16015 1.53125,1.28906 1.53125,0.40625 1.52734,-0.48046 1.53125,-1.36329 1.52735,-2.23046 1.53125,-3.08204 1.52734,-3.90234 1.53125,-4.69141 1.52734,-5.43359 1.53125,-6.13281 1.52735,-6.76953 3.0625,-15.22266 3.05859,-16.99219 4.58594,-27.47265 6.11719,-36.8711 3.05859,-17.05078 3.0625,-15.30859 1.52734,-6.82031 1.53125,-6.1875 1.52735,-5.4961 1.53125,-4.7539 1.52734,-3.96875 1.53125,-3.15235 1.52735,-2.30469 1.53125,-1.43359 1.52734,-0.55469 1.53125,0.33203 1.53125,1.21875 1.52734,2.08594 1.53125,2.94141 1.52735,3.76953 1.53125,4.55859 1.52734,5.31641 1.53125,6.01953 1.52734,6.66797 3.0586,15.04687 3.0625,16.86719 4.58594,27.38281 6.11718,36.94922 3.0586,17.17188 3.0625,15.47265 1.52734,6.92579"
     style="fill:none;stroke:#ff7d0c;stroke-width:1.5;stroke-linecap:square;stroke-linejoin:round;stroke-miterlimit:10;stroke-opacity:1" />
  <path
     inkscape:connector-curvature="0"
     id="path204"
     d="m 86.59375,162.0625 1.53125,4.15625 1.527344,3.70703 1.53125,3.22266 1.527344,2.71094 1.53125,2.17187 1.527343,1.61328 1.53125,1.04297 1.527344,0.46485 1.531255,-0.1211 1.52734,-0.70703 1.53125,-1.28516 1.52734,-1.84765 1.53125,-2.39844 1.53125,-2.92578 1.52735,-3.42969 1.53125,-3.89844 1.52734,-4.33203 3.05859,-9.82031 3.0586,-11.05078 4.58984,-18.01563 6.11719,-24.4414 3.05859,-11.41406 3.0586,-10.32422 1.53125,-4.63672 1.52734,-4.22656 1.53125,-3.78516 1.53125,-3.30469 1.52734,-2.79687 1.53125,-2.26172 1.52735,-1.71094 1.53125,-1.14062 1.52734,-0.5586 1.53125,0.0234 1.52734,0.60937 1.53125,1.1875 1.52735,1.75782 1.53125,2.30859 1.52734,2.83984 1.53125,3.34375 1.53125,3.82422 1.52735,4.26563 1.53125,4.66797 3.05859,10.375 3.05859,11.45312 4.58594,18.28516 4.58984,18.30469 3.0586,11.48828 3.05859,10.42968 1.53125,4.69922 1.52735,4.30078 1.53125,3.85938 1.52734,3.38672 1.53125,2.88281 1.53125,2.35547 1.52734,1.80078 1.53125,1.23828 1.52735,0.65625 1.53125,0.0742 1.52734,-0.51172 1.53125,-1.09375 1.52734,-1.66015 1.53125,-2.21875 1.52735,-2.75391 1.53125,-3.26172 1.52734,-3.74609 1.53125,-4.19532 1.53125,-4.60156 3.0586,-10.27344 3.05859,-11.375 4.58594,-18.24218 4.58984,-18.343749 3.05859,-11.55469 3.0586,-10.53516 1.53125,-4.76172 1.52734,-4.37109 1.53125,-3.93359 1.52735,-3.46875 1.53125,-2.96875 1.52734,-2.44532 1.53125,-1.89453 1.53125,-1.33203 1.52734,-0.7539 1.53125,-0.16797 1.52735,0.41406 1.53125,0.99219 1.52734,1.57031 1.53125,2.125 1.52734,2.66406 1.53125,3.1836 1.52735,3.66796 1.53125,4.1211 1.53125,4.53515 3.05859,10.16407 3.0586,11.29687 4.58593,18.191409 6.11719,24.28906 3.0625,11.17969 3.05859,9.99218 1.52735,4.4375 1.53125,4.01172 1.52734,3.54688 1.53125,3.05469 1.52735,2.53515 1.53125,1.98438 1.52734,1.42969 1.53125,0.84765 1.53125,0.26953 1.52734,-0.3164 1.53125,-0.89844 1.52735,-1.47266 1.53125,-2.03515 1.52734,-2.57813 1.53125,-3.09766 1.52734,-3.58593 1.53125,-4.05078 1.52735,-4.46875 3.0625,-10.05079 3.05859,-11.21874 4.58594,-18.13672 6.11719,-24.347659 3.05859,-11.25781 3.0625,-10.10547 1.52734,-4.50391 1.53125,-4.08593 1.52735,-3.62891 1.53125,-3.14063 1.52734,-2.62109 1.53125,-2.07812 1.52735,-1.51954 1.53125,-0.94921 1.52734,-0.36329 1.53125,0.21875 1.53125,0.80079 1.52734,1.3789 1.53125,1.94141 1.52735,2.48828 1.53125,3.01172 1.52734,3.50781 1.53125,3.97656 1.52734,4.40235 3.0586,9.93359 3.0625,11.13672 4.58594,18.082029 6.11718,24.39453 3.0586,11.33594 3.0625,10.21875 1.52734,4.57031"
     style="fill:none;stroke:#2b9e2b;stroke-width:1.5;stroke-linecap:square;stroke-linejoin:round;stroke-miterlimit:10;stroke-opacity:1" />
  <path
     inkscape:connector-curvature="0"
     id="path206"
     d="m 86.59375,95.89063 1.53125,-1.80469 1.527344,-1.60938 1.53125,-1.39843 1.527344,-1.17578 1.53125,-0.94141 1.527343,-0.69922 1.53125,-0.45312 1.527344,-0.20313 1.531255,0.0547 1.52734,0.30469 1.53125,0.55859 1.52734,0.80078 1.53125,1.04297 1.53125,1.26953 1.52735,1.48828 1.53125,1.69141 3.05859,3.93359 3.05859,4.55078 3.0586,5 12.23437,20.83203 3.0586,4.48047 3.05859,3.84766 1.53125,1.64062 1.53125,1.4336 1.52734,1.21484 1.53125,0.98047 1.52735,0.74219 1.53125,0.49609 1.52734,0.24219 1.53125,-0.0117 1.52734,-0.26172 1.53125,-0.51562 1.52735,-0.76172 1.53125,-1.00391 1.52734,-1.23047 1.53125,-1.45312 1.53125,-1.66016 1.52735,-1.85156 3.05859,-4.20703 3.05859,-4.75781 4.58985,-7.78907 6.11718,-10.62109 3.0586,-4.98828 3.05859,-4.52344 3.0586,-3.90625 1.53125,-1.67578 1.52734,-1.46875 1.53125,-1.25391 1.53125,-1.01953 1.52734,-0.78125 1.53125,-0.53906 1.52735,-0.28516 1.53125,-0.0312 1.52734,0.22266 1.53125,0.47266 1.52734,0.72265 1.53125,0.96094 1.52735,1.19531 1.53125,1.41797 1.52734,1.625 1.53125,1.82031 3.0586,4.15625 3.05859,4.71875 4.58984,7.75782 7.64844,13.1875 3.05859,4.8164 3.0586,4.28516 1.52734,1.89453 1.53125,1.71094 1.52735,1.5039 1.53125,1.28907 1.52734,1.05859 1.53125,0.82422 1.53125,0.57812 1.52734,0.32422 1.53125,0.0742 1.52735,-0.17969 1.53125,-0.42968 1.52734,-0.67969 1.53125,-0.92578 1.52734,-1.15625 1.53125,-1.37891 1.52735,-1.59375 1.53125,-1.78516 3.05859,-4.10546 3.0586,-4.67579 3.05859,-5.08593 10.70703,-18.33203 3.05859,-4.61329 3.0586,-4.01953 1.53125,-1.74218 1.52734,-1.53907 1.53125,-1.32422 1.52735,-1.10156 1.53125,-0.86328 1.52734,-0.61719 1.53125,-0.37109 1.53125,-0.11328 1.52734,0.13672 1.53125,0.39062 1.52735,0.63672 1.53125,0.88281 1.52734,1.1211 1.53125,1.34375 1.52734,1.55468 1.53125,1.75782 3.0586,4.04687 3.05859,4.63672 3.0586,5.05859 10.70703,18.35938 3.05859,4.65625 3.05859,4.07812 1.53125,1.76954 1.52735,1.57421 1.53125,1.36329 1.52734,1.13671 1.53125,0.90625 1.52735,0.65625 1.53125,0.41407 1.52734,0.15625 1.53125,-0.0937 1.53125,-0.34766 1.52734,-0.59766 1.53125,-0.84375 1.52735,-1.08203 1.53125,-1.30468 1.52734,-1.52344 1.53125,-1.72266 3.05859,-3.99219 3.0586,-4.59375 3.05859,-5.03125 12.23438,-20.79296 3.0625,-4.4336 1.52734,-1.98437"
     style="fill:none;stroke:#d42626;stroke-width:1.5;stroke-linecap:square;stroke-linejoin:round;stroke-miterlimit:10;stroke-opacity:1" />
  <path
     inkscape:connector-curvature="0"
     id="path208"
     d="m 86.59375,48.13281 1.53125,-6.10937 1.527344,-5.44531 1.53125,-4.73047 1.527344,-3.98047 1.53125,-3.19141 1.527343,-2.37109 1.53125,-1.53516 1.527344,-0.67968 1.531255,0.17968 1.52734,1.03516 1.53125,1.88672 1.52734,2.71484 1.53125,3.52344 1.53125,4.30078 1.52735,5.03516 1.53125,5.72656 1.52734,6.36719 1.53125,6.94922 3.05859,15.39843 3.0586,16.92578 6.11719,35.98047 4.58984,26.3125 3.05859,16.03906 3.0586,14.16016 1.52734,6.21094 1.53125,5.55859 1.53125,4.85547 1.52734,4.10938 1.53125,3.32421 1.52735,2.50782 1.53125,1.67578 1.52734,0.82031 1.53125,-0.0352 1.52734,-0.89453 1.53125,-1.74219 1.52735,-2.57812 1.53125,-3.39063 1.52734,-4.17187 1.53125,-4.91797 1.53125,-5.61328 1.52735,-6.26563 1.53125,-6.85937 3.05859,-15.24219 3.05859,-16.82031 4.58594,-26.85937 4.58984,-26.890634 3.0586,-16.875 3.05859,-15.32031 1.53125,-6.90625 1.52735,-6.31641 1.53125,-5.67187 1.52734,-4.97266 1.53125,-4.23828 1.53125,-3.45703 1.52734,-2.64453 1.53125,-1.81641 1.52735,-0.96484 1.53125,-0.10938 1.52734,0.75391 1.53125,1.60156 1.52734,2.44141 1.53125,3.25781 1.52735,4.04297 1.53125,4.79687 1.52734,5.5 1.53125,6.16016 1.53125,6.76563 3.0586,15.08593 3.05859,16.71094 4.58594,26.792974 4.58984,26.94922 3.05859,16.97656 3.0586,15.47266 1.53125,6.99609 1.52734,6.41796 1.53125,5.78125 1.52735,5.09375 1.53125,4.36329 1.52734,3.58984 1.53125,2.78516 1.53125,1.95312 1.52734,1.10938 1.53125,0.25 1.52735,-0.60938 1.53125,-1.46094 1.52734,-2.30468 1.53125,-3.1211 1.52734,-3.91797 1.53125,-4.67187 1.52735,-5.38672 1.53125,-6.05469 1.53125,-6.66406 3.05859,-14.92968 3.0586,-16.59766 4.58593,-26.72266 6.11719,-35.675784 3.0625,-16.42187 3.05859,-14.67969 1.52735,-6.51562 1.53125,-5.89454 1.52734,-5.21093 1.53125,-4.48828 1.52735,-3.71875 1.53125,-2.92188 1.52734,-2.09375 1.53125,-1.25 1.53125,-0.39453 1.52734,0.46484 1.53125,1.32032 1.52735,2.16406 1.53125,2.98828 1.52734,3.78516 1.53125,4.55078 1.52734,5.26953 1.53125,5.94922 1.52735,6.5664 3.0625,14.76172 3.05859,16.48438 4.58594,26.640624 6.11719,35.76172 3.05859,16.53906 3.0625,14.84375 1.52734,6.62109 1.53125,6 1.52735,5.32813 1.53125,4.60937 1.52734,3.85156 1.53125,3.05469 1.52735,2.23438 1.53125,1.39062 1.52734,0.53906 1.53125,-0.32421 1.53125,-1.17579 1.52734,-2.02734 1.53125,-2.85156 1.52735,-3.65625 1.53125,-4.42188 1.52734,-5.15625 1.53125,-5.83593 1.52734,-6.46875 3.0586,-14.59375 3.0625,-16.35938 4.58594,-26.55859 6.11718,-35.835944 3.0586,-16.65234 3.0625,-15.00781 1.52734,-6.71485"
     style="fill:none;stroke:#9466bd;stroke-width:1.5;stroke-linecap:square;stroke-linejoin:round;stroke-miterlimit:10;stroke-opacity:1" />
  <path
     inkscape:connector-curvature="0"
     id="path210"
     d="m 86.59375,62.69531 1.53125,-4.79687 1.527344,-4.27344 1.53125,-3.71875 1.527344,-3.125 1.53125,-2.5039 1.527343,-1.86329 1.53125,-1.20312 1.527344,-0.53516 1.531255,0.14063 1.52734,0.8164 1.53125,1.47657 1.52734,2.13281 1.53125,2.76953 1.53125,3.375 1.52735,3.95313 1.53125,4.49609 1.52734,5 3.05859,11.32422 3.0586,12.74609 4.58984,20.78125 6.11719,28.1836 3.05859,13.16796 3.0586,11.90625 1.53125,5.34766 1.52734,4.87891 1.53125,4.36328 1.53125,3.8125 1.52734,3.22656 1.53125,2.60938 1.52735,1.97265 1.53125,1.3125 1.52734,0.64453 1.53125,-0.0273 1.52734,-0.69922 1.53125,-1.37109 1.52735,-2.02734 1.53125,-2.66016 1.52734,-3.27734 1.53125,-3.85938 1.53125,-4.40625 1.52735,-4.92188 1.53125,-5.38281 3.05859,-11.96875 3.05859,-13.20703 4.58594,-21.08984 4.58984,-21.113286 3.0586,-13.25 3.05859,-12.03125 1.53125,-5.42187 1.52735,-4.95703 1.53125,-4.45313 1.52734,-3.90625 1.53125,-3.32812 1.53125,-2.71094 1.52734,-2.08203 1.53125,-1.42188 1.52735,-0.75781 1.53125,-0.0859 1.52734,0.58985 1.53125,1.25781 1.52734,1.91797 1.53125,2.55859 1.52735,3.17578 1.53125,3.76172 1.52734,4.32032 1.53125,4.83984 1.53125,5.30859 3.0586,11.84766 3.05859,13.12109 4.58594,21.039066 4.58984,21.15625 3.05859,13.32812 3.0586,12.14844 1.53125,5.49609 1.52734,5.03906 1.53125,4.53907 1.52735,4 1.53125,3.42578 1.52734,2.81641 1.53125,2.1875 1.53125,1.53515 1.52734,0.86719 1.53125,0.19922 1.52735,-0.47656 1.53125,-1.14844 1.52734,-1.80859 1.53125,-2.45313 1.52734,-3.07422 1.53125,-3.66797 1.52735,-4.23047 1.53125,-4.75391 1.53125,-5.23437 3.05859,-11.71875 3.0586,-13.03516 4.58593,-20.98046 6.11719,-28.011716 3.0625,-12.89453 3.05859,-11.52344 1.52735,-5.1211 1.53125,-4.625 1.52734,-4.09375 1.53125,-3.52343 1.52735,-2.92188 1.53125,-2.29297 1.52734,-1.64453 1.53125,-0.98047 1.53125,-0.30859 1.52734,0.36719 1.53125,1.03515 1.52735,1.69922 1.53125,2.34766 1.52734,2.97265 1.53125,3.57032 1.52734,4.13672 1.53125,4.67187 1.52735,5.15625 3.0625,11.58984 3.05859,12.94141 4.58594,20.921876 6.11719,28.07812 3.05859,12.98437 3.0625,11.65625 1.52734,5.19532 1.53125,4.71093 1.52735,4.18751 1.53125,3.61719 1.52734,3.02343 1.53125,2.40235 1.52735,1.7539 1.53125,1.08985 1.52734,0.42187 1.53125,-0.2539 1.53125,-0.92188 1.52734,-1.58984 1.53125,-2.24219 1.52735,-2.86719 1.53125,-3.47656 1.52734,-4.04687 1.53125,-4.58204 1.52734,-5.07813 3.0586,-11.46093 3.0625,-12.84375 4.58594,-20.85156 6.11718,-28.136716 3.0586,-13.07813 3.0625,-11.78515 1.52734,-5.26954"
     style="fill:none;stroke:#000000;stroke-width:1.5;stroke-linecap:square;stroke-linejoin:round;stroke-miterlimit:10;stroke-opacity:1" />
  <path
     inkscape:connector-curvature="0"
     id="path212"
     d="M 71.375,224.64063 V 7.19922"
     style="fill:none;stroke:#000000;stroke-width:0.80000001;stroke-linecap:square;stroke-linejoin:miter;stroke-miterlimit:10;stroke-opacity:1" />
  <path
     inkscape:connector-curvature="0"
     id="path214"
     d="M 406.17578,224.64063 V 7.19922"
     style="fill:none;stroke:#000000;stroke-width:0.80000001;stroke-linecap:square;stroke-linejoin:miter;stroke-miterlimit:10;stroke-opacity:1" />
  <path
     inkscape:connector-curvature="0"
     id="path216"
     d="M 71.375,224.64063 H 406.17578"
     style="fill:none;stroke:#000000;stroke-width:0.80000001;stroke-linecap:square;stroke-linejoin:miter;stroke-miterlimit:10;stroke-opacity:1" />
  <path
     inkscape:connector-curvature="0"
     id="path218"
     d="M 71.375,7.19922 H 406.17578"
     style="fill:none;stroke:#000000;stroke-width:0.80000001;stroke-linecap:square;stroke-linejoin:miter;stroke-miterlimit:10;stroke-opacity:1" />
  <path
     style="fill:none;stroke:#000000;stroke-width:0.75000006;stroke-linecap:butt;stroke-linejoin:miter;stroke-miterlimit:4;stroke-dasharray:3.00000012, 3.00000012;stroke-dashoffset:1.35000002;stroke-opacity:1"
     d="M 99.3683,19.858344 V 224.36478"
     id="path1109"
     inkscape:connector-curvature="0" />
  <path
     inkscape:connector-curvature="0"
     id="path1111"
     d="M 149.9933,19.858344 V 224.36478"
     style="fill:none;stroke:#000000;stroke-width:0.75000006;stroke-linecap:butt;stroke-linejoin:miter;stroke-miterlimit:4;stroke-dasharray:3.00000012, 3.00000012;stroke-dashoffset:1.35000002;stroke-opacity:1" />
  <path
     style="fill:none;stroke:#000000;stroke-width:0.75000006;stroke-linecap:butt;stroke-linejoin:miter;stroke-miterlimit:4;stroke-dasharray:3.00000012, 3.00000012;stroke-dashoffset:1.35000002;stroke-opacity:1"
     d="M 200.6183,19.858344 V 224.36478"
     id="path1113"
     inkscape:connector-curvature="0" />
  <path
     inkscape:connector-curvature="0"
     id="path1115"
     d="M 251.2433,19.858344 V 224.36478"
     style="fill:none;stroke:#000000;stroke-width:0.75000006;stroke-linecap:butt;stroke-linejoin:miter;stroke-miterlimit:4;stroke-dasharray:3.00000012, 3.00000012;stroke-dashoffset:1.35000002;stroke-opacity:1" />
  <path
     style="fill:none;stroke:#000000;stroke-width:0.75000006;stroke-linecap:butt;stroke-linejoin:miter;stroke-miterlimit:4;stroke-dasharray:3.00000012, 3.00000012;stroke-dashoffset:1.35000002;stroke-opacity:1"
     d="M 301.8683,19.858344 V 224.36478"
     id="path1117"
     inkscape:connector-curvature="0" />
  <path
     inkscape:connector-curvature="0"
     id="path1119"
     d="M 352.4933,19.858344 V 224.36478"
     style="fill:none;stroke:#000000;stroke-width:0.75000006;stroke-linecap:butt;stroke-linejoin:miter;stroke-miterlimit:4;stroke-dasharray:3.00000012, 3.00000012;stroke-dashoffset:1.35000002;stroke-opacity:1" />
  <path
     inkscape:connector-curvature="0"
     id="path1121"
     d="M 124.48513,115.516 V 224.71344"
     style="fill:none;stroke:#000000;stroke-width:0.75000003;stroke-linecap:butt;stroke-linejoin:miter;stroke-miterlimit:4;stroke-dasharray:0.75000003,1.50000006;stroke-dashoffset:1.34999993;stroke-opacity:1" />
  <path
     style="fill:none;stroke:#000000;stroke-width:0.75000006;stroke-linecap:butt;stroke-linejoin:miter;stroke-miterlimit:4;stroke-dasharray:0.75000003, 1.50000006;stroke-dashoffset:1.3499999;stroke-opacity:1"
     d="M 175.11013,115.516 V 224.71344"
     id="path1123"
     inkscape:connector-curvature="0" />
  <path
     inkscape:connector-curvature="0"
     id="path1125"
     d="M 226.02615,115.44325 V 224.64069"
     style="fill:none;stroke:#000000;stroke-width:0.75000006;stroke-linecap:butt;stroke-linejoin:miter;stroke-miterlimit:4;stroke-dasharray:0.75000003, 1.50000006;stroke-dashoffset:1.3499999;stroke-opacity:1" />
  <path
     style="fill:none;stroke:#000000;stroke-width:0.75000006;stroke-linecap:butt;stroke-linejoin:miter;stroke-miterlimit:4;stroke-dasharray:0.75000003, 1.50000006;stroke-dashoffset:1.3499999;stroke-opacity:1"
     d="M 276.79666,115.516 V 224.71344"
     id="path1127"
     inkscape:connector-curvature="0" />
  <path
     inkscape:connector-curvature="0"
     id="path1129"
     d="M 327.38528,115.516 V 224.71344"
     style="fill:none;stroke:#000000;stroke-width:0.75000006;stroke-linecap:butt;stroke-linejoin:miter;stroke-miterlimit:4;stroke-dasharray:0.75000003, 1.50000006;stroke-dashoffset:1.3499999;stroke-opacity:1" />
  <g
     id="g1270"
     transform="translate(101.96892,92.155936)">
    <g
       word-spacing="normal"
       letter-spacing="normal"
       font-size-adjust="none"
       font-stretch="normal"
       font-weight="normal"
       font-variant="normal"
       font-style="normal"
       stroke-miterlimit="10.433"
       xml:space="preserve"
       transform="matrix(0.39246104,0,0,-0.39246104,-68.680682,310.03156)"
       id="content"
       style="font-style:normal;font-variant:normal;font-weight:normal;font-stretch:normal;letter-spacing:normal;word-spacing:normal;text-anchor:start;fill:none;fill-opacity:1;fill-rule:evenodd;stroke:#000000;stroke-linecap:butt;stroke-linejoin:miter;stroke-miterlimit:10.43299961;stroke-dasharray:none;stroke-dashoffset:0;stroke-opacity:1"><path
         id="path1263"
         d="m 473.3,420.75 0.19,-0.5 0.2,-0.51 0.39,-1.05 0.4,-1.08 0.39,-1.1 0.39,-1.1 0.39,-1.09 0.37,-1.07 0.19,-0.53 0.18,-0.51 0.17,-0.5 0.18,-0.49 0.16,-0.47 0.17,-0.45 0.16,-0.44 0.15,-0.42 0.15,-0.39 0.14,-0.37 0.13,-0.35 0.13,-0.32 0.12,-0.29 0.12,-0.26 0.1,-0.23 0.1,-0.2 0.09,-0.16 0.08,-0.12 c 0.79,-1.1 1.29,-1.1 2.64,-1.1 h 1.09 c 0.5,0.05 0.55,0.35 0.55,0.5 0,0.14 -0.1,0.25 -0.25,0.46 -0.49,0.54 -0.8,1.28 -1.14,2.28 l -10.16,28.34 c -1.05,2.89 -3.75,3.55 -6.08,3.55 -0.25,0 -0.9,0 -0.9,-0.55 0,-0.41 0.4,-0.5 0.45,-0.5 1.64,-0.3 1.98,-0.59 3.23,-3.98 l 4.83,-13.55 -13.75,-13.66 c -0.59,-0.59 -0.89,-0.9 -0.89,-1.54 0,-0.85 0.7,-1.44 1.5,-1.44 0.8,0 1.23,0.55 1.64,1.05 z"
         inkscape:connector-curvature="0"
         style="fill:#000000;stroke-width:0" /><path
         id="path1265"
         d="m 506.43,441.67 0.02,0.03 0.01,0.03 0.01,0.03 0.01,0.03 0.01,0.02 0.01,0.03 0.01,0.03 0.01,0.02 0.01,0.05 0.02,0.05 0.01,0.04 0.02,0.05 0.01,0.04 0.01,0.04 0.01,0.03 0.01,0.04 0.01,0.03 0.01,0.03 0.01,0.03 v 0.02 l 0.01,0.03 v 0.02 l 0.01,0.02 v 0.02 0.02 l 0.01,0.02 v 0.01 0.02 0.01 0.01 0.01 0.01 0.01 0.01 0.01 0 c 0,0.55 -0.45,0.99 -1,0.99 -0.34,0 -0.7,-0.14 -0.84,-0.44 l -17.3,-47.48 c -0.25,-0.64 -0.25,-0.85 -0.25,-0.89 0,-0.55 0.46,-1 1,-1 0.66,0 0.8,0.34 1.1,1.18 z"
         inkscape:connector-curvature="0"
         style="fill:#000000;stroke-width:0" /><path
         id="path1267"
         d="m 515.84,410.04 5.28,5.13 c 7.77,6.87 10.77,9.56 10.77,14.54 0,5.69 -4.48,9.68 -10.56,9.68 -5.64,0 -9.33,-4.6 -9.33,-9.03 0,-2.79 2.5,-2.79 2.64,-2.79 0.86,0 2.59,0.6 2.59,2.64 0,1.3 -0.89,2.6 -2.64,2.6 -0.39,0 -0.5,0 -0.64,-0.05 1.14,3.24 3.83,5.08 6.72,5.08 4.53,0 6.69,-4.05 6.69,-8.13 0,-3.98 -2.5,-7.92 -5.24,-11.01 l -9.56,-10.66 C 512,407.5 512,407.4 512,406.2 h 18.48 l 1.41,8.67 h -1.25 c -0.25,-1.5 -0.59,-3.69 -1.09,-4.44 -0.36,-0.39 -3.64,-0.39 -4.74,-0.39 z"
         inkscape:connector-curvature="0"
         style="fill:#000000;stroke-width:0" /></g>  </g>
  <g
     id="g1423"
     transform="translate(11.12331,93.499577)">
    <g
       word-spacing="normal"
       letter-spacing="normal"
       font-size-adjust="none"
       font-stretch="normal"
       font-weight="normal"
       font-variant="normal"
       font-style="normal"
       stroke-miterlimit="10.433"
       xml:space="preserve"
       transform="matrix(0.39246104,0,0,-0.39246104,-68.680682,310.03156)"
       id="g1421"
       style="font-style:normal;font-variant:normal;font-weight:normal;font-stretch:normal;letter-spacing:normal;word-spacing:normal;text-anchor:start;fill:none;fill-opacity:1;fill-rule:evenodd;stroke:#000000;stroke-linecap:butt;stroke-linejoin:miter;stroke-miterlimit:10.43299961;stroke-dasharray:none;stroke-dashoffset:0;stroke-opacity:1"><path
         id="path1415"
         d="m 473.3,420.75 0.19,-0.5 0.2,-0.51 0.39,-1.05 0.4,-1.08 0.39,-1.1 0.39,-1.1 0.39,-1.09 0.37,-1.07 0.19,-0.53 0.18,-0.51 0.17,-0.5 0.18,-0.49 0.16,-0.47 0.17,-0.45 0.16,-0.44 0.15,-0.42 0.15,-0.39 0.14,-0.37 0.13,-0.35 0.13,-0.32 0.12,-0.29 0.12,-0.26 0.1,-0.23 0.1,-0.2 0.09,-0.16 0.08,-0.12 c 0.79,-1.1 1.29,-1.1 2.64,-1.1 h 1.09 c 0.5,0.05 0.55,0.35 0.55,0.5 0,0.14 -0.1,0.25 -0.25,0.46 -0.49,0.54 -0.8,1.28 -1.14,2.28 l -10.16,28.34 c -1.05,2.89 -3.75,3.55 -6.08,3.55 -0.25,0 -0.9,0 -0.9,-0.55 0,-0.41 0.4,-0.5 0.45,-0.5 1.64,-0.3 1.98,-0.59 3.23,-3.98 l 4.83,-13.55 -13.75,-13.66 c -0.59,-0.59 -0.89,-0.9 -0.89,-1.54 0,-0.85 0.7,-1.44 1.5,-1.44 0.8,0 1.23,0.55 1.64,1.05 z"
         inkscape:connector-curvature="0"
         style="fill:#000000;stroke-width:0" /><path
         id="path1417"
         d="m 506.43,441.67 0.02,0.03 0.01,0.03 0.01,0.03 0.01,0.03 0.01,0.02 0.01,0.03 0.01,0.03 0.01,0.02 0.01,0.05 0.02,0.05 0.01,0.04 0.02,0.05 0.01,0.04 0.01,0.04 0.01,0.03 0.01,0.04 0.01,0.03 0.01,0.03 0.01,0.03 v 0.02 l 0.01,0.03 v 0.02 l 0.01,0.02 v 0.02 0.02 l 0.01,0.02 v 0.01 0.02 0.01 0.01 0.01 0.01 0.01 0.01 0.01 0 c 0,0.55 -0.45,0.99 -1,0.99 -0.34,0 -0.7,-0.14 -0.84,-0.44 l -17.3,-47.48 c -0.25,-0.64 -0.25,-0.85 -0.25,-0.89 0,-0.55 0.46,-1 1,-1 0.66,0 0.8,0.34 1.1,1.18 z"
         inkscape:connector-curvature="0"
         style="fill:#000000;stroke-width:0" /><path
         id="path1419"
         d="m 524.16,414.42 v -4.33 c 0,-1.8 -0.1,-2.34 -3.78,-2.34 h -1.05 v -1.55 c 2.05,0.16 4.64,0.16 6.73,0.16 2.1,0 4.74,0 6.77,-0.16 v 1.55 h -1.05 c -3.69,0 -3.78,0.54 -3.78,2.34 v 4.33 h 4.98 v 1.54 H 528 v 22.68 c 0,1 0,1.29 -0.8,1.29 -0.45,0 -0.59,0 -1,-0.61 l -15.29,-23.36 h 1.4 l 12.16,18.58 v -18.58 h -12.16 -1.4 v -1.54 z"
         inkscape:connector-curvature="0"
         style="fill:#000000;stroke-width:0" /></g>  </g>
  <g
     id="g1577"
     transform="translate(84.104733,-146.96502)">
    <g
       word-spacing="normal"
       letter-spacing="normal"
       font-size-adjust="none"
       font-stretch="normal"
       font-weight="normal"
       font-variant="normal"
       font-style="normal"
       stroke-miterlimit="10.433"
       xml:space="preserve"
       transform="matrix(0.39246104,0,0,-0.39246104,-68.680682,310.03156)"
       id="g1575"
       style="font-style:normal;font-variant:normal;font-weight:normal;font-stretch:normal;letter-spacing:normal;word-spacing:normal;text-anchor:start;fill:none;fill-opacity:1;fill-rule:evenodd;stroke:#000000;stroke-linecap:butt;stroke-linejoin:miter;stroke-miterlimit:10.43299961;stroke-dasharray:none;stroke-dashoffset:0;stroke-opacity:1"><path
         id="path1573"
         d="m 473.3,420.75 0.19,-0.5 0.2,-0.51 0.39,-1.05 0.4,-1.08 0.39,-1.1 0.39,-1.1 0.39,-1.09 0.37,-1.07 0.19,-0.53 0.18,-0.51 0.17,-0.5 0.18,-0.49 0.16,-0.47 0.17,-0.45 0.16,-0.44 0.15,-0.42 0.15,-0.39 0.14,-0.37 0.13,-0.35 0.13,-0.32 0.12,-0.29 0.12,-0.26 0.1,-0.23 0.1,-0.2 0.09,-0.16 0.08,-0.12 c 0.79,-1.1 1.29,-1.1 2.64,-1.1 h 1.09 c 0.5,0.05 0.55,0.35 0.55,0.5 0,0.14 -0.1,0.25 -0.25,0.46 -0.49,0.54 -0.8,1.28 -1.14,2.28 l -10.16,28.34 c -1.05,2.89 -3.75,3.55 -6.08,3.55 -0.25,0 -0.9,0 -0.9,-0.55 0,-0.41 0.4,-0.5 0.45,-0.5 1.64,-0.3 1.98,-0.59 3.23,-3.98 l 4.83,-13.55 -13.75,-13.66 c -0.59,-0.59 -0.89,-0.9 -0.89,-1.54 0,-0.85 0.7,-1.44 1.5,-1.44 0.8,0 1.23,0.55 1.64,1.05 z"
         inkscape:connector-curvature="0"
         style="fill:#000000;stroke-width:0" /></g>  </g>
  <path
     style="fill:none;stroke:#000000;stroke-width:0.37500003;stroke-linecap:butt;stroke-linejoin:miter;stroke-miterlimit:4;stroke-dasharray:none;stroke-opacity:1;marker-start:url(#Arrow1Lstart);marker-end:url(#Arrow1Lend)"
     d="m 124.70395,226.60205 h 25.20831"
     id="path1583"
     inkscape:connector-curvature="0" />
  <path
     inkscape:connector-curvature="0"
     id="path2091"
     d="m 203.31075,226.60205 h 46.21919"
     style="fill:none;stroke:#000000;stroke-width:0.37500003;stroke-linecap:butt;stroke-linejoin:miter;stroke-miterlimit:4;stroke-dasharray:none;stroke-opacity:1;marker-start:url(#marker2095);marker-end:url(#marker2123)" />
  <path
     style="fill:none;stroke:#000000;stroke-width:0.37500003;stroke-linecap:butt;stroke-linejoin:miter;stroke-miterlimit:4;stroke-dasharray:none;stroke-opacity:1;marker-start:url(#marker3047);marker-end:url(#marker3087)"
     d="M 150.14728,12.667962 H 250.91304"
     id="path3043"
     inkscape:connector-curvature="0" />
  <path
     style="fill:none;stroke:#9466bd;stroke-width:0.75000006px;stroke-linecap:butt;stroke-linejoin:miter;stroke-opacity:1;marker-end:url(#marker4189)"
     d="M 94.595027,-19.442333 C 91.759426,-10.707935 88.923533,-1.972638 88.725704,5.2298004 88.527876,12.432239 90.96856,18.101283 93.409397,23.770682"
     id="path4177"
     inkscape:connector-curvature="0"
     inkscape:path-effect="#path-effect4179"
     inkscape:original-d="m 94.595027,-19.442333 c -2.835143,8.734547 -5.671036,17.4698438 -8.507679,26.2058905 2.441433,5.6682915 4.882117,11.3373355 7.322049,17.0071245"
     transform="translate(1.0185694,-3.4922381)"
     sodipodi:nodetypes="ccc" />
  <path
     inkscape:original-d="m 112.12871,-24.387985 c -3.02722,9.343838 -6.05506,18.6883866 -9.08351,28.0336459 -0.69495,5.4871373 -1.39045,10.9745821 -2.08658,16.4630921"
     inkscape:path-effect="#path-effect4253"
     inkscape:connector-curvature="0"
     id="path4251"
     d="m 112.12871,-24.387985 c -3.02757,9.343725 -6.05541,18.6882743 -7.91718,26.1044972 -1.86178,7.4162229 -2.55727,12.9036688 -3.25291,18.3922408"
     style="fill:none;stroke:#000000;stroke-width:0.5979178px;stroke-linecap:butt;stroke-linejoin:miter;stroke-opacity:1;marker-end:url(#marker4257)"
     transform="matrix(1.2921472,0,0,1.2176645,-26.661099,15.597633)"
     sodipodi:nodetypes="ccc" />
  <g
     id="g5105"
     transform="translate(-16.874132,-176.56104)"
     style="stroke:#9466bd;stroke-opacity:1;fill:#9466bd;fill-opacity:1">
    <g
       word-spacing="normal"
       letter-spacing="normal"
       font-size-adjust="none"
       font-stretch="normal"
       font-weight="normal"
       font-variant="normal"
       font-style="normal"
       stroke-miterlimit="10.433"
       xml:space="preserve"
       transform="matrix(0.39246104,0,0,-0.39246104,-68.680682,310.03156)"
       id="g5103"
       style="font-style:normal;font-variant:normal;font-weight:normal;font-stretch:normal;letter-spacing:normal;word-spacing:normal;text-anchor:start;fill:#9466bd;fill-opacity:1;fill-rule:evenodd;stroke:#9466bd;stroke-linecap:butt;stroke-linejoin:miter;stroke-miterlimit:10.43299961;stroke-dasharray:none;stroke-dashoffset:0;stroke-opacity:1"><path
         id="path5099"
         d="m 465.79,426.12 h 4.68 c 0.99,0 1.49,0 1.49,1 0,0.55 -0.5,0.55 -1.39,0.55 h -4.39 c 1.79,7.08 2.04,8.08 2.04,8.37 0,0.85 -0.59,1.35 -1.43,1.35 -0.16,0 -1.55,-0.05 -2,-1.8 l -1.94,-7.92 h -4.69 c -1,0 -1.5,0 -1.5,-0.94 0,-0.61 0.41,-0.61 1.41,-0.61 h 4.37 c -3.58,-14.14 -3.78,-14.98 -3.78,-15.89 0,-2.69 1.89,-4.58 4.58,-4.58 5.08,0 7.92,7.27 7.92,7.67 0,0.5 -0.39,0.5 -0.59,0.5 -0.46,0 -0.5,-0.15 -0.75,-0.7 -2.14,-5.17 -4.78,-6.37 -6.47,-6.37 -1.05,0 -1.55,0.65 -1.55,2.29 0,1.19 0.09,1.55 0.3,2.39 z"
         inkscape:connector-curvature="0"
         style="fill:#9466bd;stroke-width:0;stroke:#9466bd;stroke-opacity:1;fill-opacity:1" /><path
         id="path5101"
         d="m 485.19,420.92 v 0.04 0.04 0.05 0.04 0.03 0.04 0.04 0.03 l -0.01,0.04 v 0.03 0.03 0.03 0.03 l -0.01,0.03 v 0.03 0.02 l -0.01,0.03 v 0.02 l -0.01,0.03 v 0.02 l -0.02,0.04 -0.01,0.04 -0.02,0.03 -0.02,0.03 -0.02,0.03 -0.02,0.03 -0.03,0.02 -0.03,0.02 -0.03,0.02 -0.04,0.01 -0.04,0.01 -0.05,0.02 h -0.02 -0.02 l -0.03,0.01 h -0.03 l -0.02,0.01 h -0.03 -0.03 -0.03 -0.03 l -0.04,0.01 h -0.03 -0.04 -0.03 -0.04 -0.04 -0.04 -0.04 -0.05 -0.04 -0.05 c -2.23,-2.2 -5.39,-2.23 -6.82,-2.23 v -1.25 c 0.84,0 3.14,0 5.04,0.97 v -17.77 c 0,-1.16 0,-1.61 -3.48,-1.61 h -1.31 v -1.25 c 0.62,0.03 4.9,0.14 6.2,0.14 1.08,0 5.47,-0.11 6.23,-0.14 v 1.25 h -1.32 c -3.49,0 -3.49,0.45 -3.49,1.61 z"
         inkscape:connector-curvature="0"
         style="fill:#9466bd;stroke-width:0;stroke:#9466bd;stroke-opacity:1;fill-opacity:1" /></g>  </g>
  <g
     id="g5290"
     transform="translate(3.7661243,-168.04302)">
    <g
       word-spacing="normal"
       letter-spacing="normal"
       font-size-adjust="none"
       font-stretch="normal"
       font-weight="normal"
       font-variant="normal"
       font-style="normal"
       stroke-miterlimit="10.433"
       xml:space="preserve"
       transform="matrix(0.39246104,0,0,-0.39246104,-68.680682,310.03156)"
       id="g5288"
       style="font-style:normal;font-variant:normal;font-weight:normal;font-stretch:normal;letter-spacing:normal;word-spacing:normal;text-anchor:start;fill:none;fill-opacity:1;fill-rule:evenodd;stroke:#000000;stroke-linecap:butt;stroke-linejoin:miter;stroke-miterlimit:10.43299961;stroke-dasharray:none;stroke-dashoffset:0;stroke-opacity:1"><path
         id="path5284"
         d="m 465.79,426.12 h 4.68 c 0.99,0 1.49,0 1.49,1 0,0.55 -0.5,0.55 -1.39,0.55 h -4.39 c 1.79,7.08 2.04,8.08 2.04,8.37 0,0.85 -0.59,1.35 -1.43,1.35 -0.16,0 -1.55,-0.05 -2,-1.8 l -1.94,-7.92 h -4.69 c -1,0 -1.5,0 -1.5,-0.94 0,-0.61 0.41,-0.61 1.41,-0.61 h 4.37 c -3.58,-14.14 -3.78,-14.98 -3.78,-15.89 0,-2.69 1.89,-4.58 4.58,-4.58 5.08,0 7.92,7.27 7.92,7.67 0,0.5 -0.39,0.5 -0.59,0.5 -0.46,0 -0.5,-0.15 -0.75,-0.7 -2.14,-5.17 -4.78,-6.37 -6.47,-6.37 -1.05,0 -1.55,0.65 -1.55,2.29 0,1.19 0.09,1.55 0.3,2.39 z"
         inkscape:connector-curvature="0"
         style="fill:#000000;stroke-width:0" /><path
         id="path5286"
         d="m 491.11,405.11 h -1.18 c -0.1,-0.77 -0.46,-2.83 -0.91,-3.18 -0.27,-0.2 -2.95,-0.2 -3.44,-0.2 h -6.42 c 3.66,3.23 4.88,4.2 6.97,5.84 2.58,2.07 4.98,4.22 4.98,7.54 0,4.21 -3.68,6.79 -8.15,6.79 -4.32,0 -7.25,-3.03 -7.25,-6.23 0,-1.78 1.5,-1.96 1.86,-1.96 0.82,0 1.84,0.6 1.84,1.85 0,0.62 -0.25,1.84 -2.06,1.84 1.08,2.47 3.45,3.24 5.09,3.24 3.49,0 5.3,-2.71 5.3,-5.53 0,-3.04 -2.16,-5.44 -3.28,-6.69 l -8.39,-8.3 c -0.36,-0.31 -0.36,-0.39 -0.36,-1.36 h 14.36 z"
         inkscape:connector-curvature="0"
         style="fill:#000000;stroke-width:0" /></g>  </g>
  <g
     id="g5479"
     transform="translate(25.130382,-160.99148)"
     style="fill:#d42626;fill-opacity:1">
    <g
       word-spacing="normal"
       letter-spacing="normal"
       font-size-adjust="none"
       font-stretch="normal"
       font-weight="normal"
       font-variant="normal"
       font-style="normal"
       stroke-miterlimit="10.433"
       xml:space="preserve"
       transform="matrix(0.39246104,0,0,-0.39246104,-68.680682,310.03156)"
       id="g5477"
       style="font-style:normal;font-variant:normal;font-weight:normal;font-stretch:normal;letter-spacing:normal;word-spacing:normal;text-anchor:start;fill:#d42626;fill-opacity:1;fill-rule:evenodd;stroke:#000000;stroke-linecap:butt;stroke-linejoin:miter;stroke-miterlimit:10.43299961;stroke-dasharray:none;stroke-dashoffset:0;stroke-opacity:1"><path
         id="path5473"
         d="m 465.79,426.12 h 4.68 c 0.99,0 1.49,0 1.49,1 0,0.55 -0.5,0.55 -1.39,0.55 h -4.39 c 1.79,7.08 2.04,8.08 2.04,8.37 0,0.85 -0.59,1.35 -1.43,1.35 -0.16,0 -1.55,-0.05 -2,-1.8 l -1.94,-7.92 h -4.69 c -1,0 -1.5,0 -1.5,-0.94 0,-0.61 0.41,-0.61 1.41,-0.61 h 4.37 c -3.58,-14.14 -3.78,-14.98 -3.78,-15.89 0,-2.69 1.89,-4.58 4.58,-4.58 5.08,0 7.92,7.27 7.92,7.67 0,0.5 -0.39,0.5 -0.59,0.5 -0.46,0 -0.5,-0.15 -0.75,-0.7 -2.14,-5.17 -4.78,-6.37 -6.47,-6.37 -1.05,0 -1.55,0.65 -1.55,2.29 0,1.19 0.09,1.55 0.3,2.39 z"
         inkscape:connector-curvature="0"
         style="fill:#d42626;fill-opacity:1;stroke-width:0" /><path
         id="path5475"
         d="m 483.04,410.4 h 0.25 l 0.25,-0.02 0.24,-0.03 0.24,-0.04 0.23,-0.05 0.23,-0.06 0.22,-0.07 0.21,-0.08 0.21,-0.1 0.2,-0.1 0.2,-0.12 0.19,-0.12 0.18,-0.14 0.17,-0.15 0.17,-0.16 0.16,-0.17 0.15,-0.18 0.14,-0.19 0.14,-0.2 0.13,-0.22 0.11,-0.22 0.11,-0.24 0.1,-0.24 0.09,-0.26 0.08,-0.27 0.07,-0.28 0.06,-0.29 0.05,-0.3 0.04,-0.31 0.02,-0.32 0.02,-0.33 0.01,-0.35 c 0,-4.33 -2.52,-5.61 -4.53,-5.61 -1.39,0 -4.47,0.38 -5.93,2.44 1.63,0.06 2.02,1.22 2.02,1.95 0,1.11 -0.84,1.91 -1.92,1.91 -0.97,0 -1.96,-0.59 -1.96,-2.02 0,-3.28 3.63,-5.4 7.85,-5.4 4.84,0 8.19,3.25 8.19,6.73 0,2.72 -2.22,5.44 -6.07,6.24 3.66,1.33 4.99,3.93 4.99,6.06 0,2.75 -3.17,4.81 -7.03,4.81 -3.88,0 -6.83,-1.89 -6.83,-4.67 0,-1.19 0.76,-1.84 1.81,-1.84 1.08,0 1.77,0.79 1.77,1.76 0,1.02 -0.69,1.75 -1.77,1.81 1.22,1.55 3.61,1.93 4.91,1.93 1.56,0 3.76,-0.77 3.76,-3.8 0,-1.47 -0.48,-3.06 -1.39,-4.14 -1.15,-1.33 -2.12,-1.41 -3.87,-1.5 -0.88,-0.08 -0.94,-0.08 -1.11,-0.11 -0.08,0 -0.36,-0.06 -0.36,-0.45 0,-0.49 0.31,-0.49 0.9,-0.49 z"
         inkscape:connector-curvature="0"
         style="fill:#d42626;fill-opacity:1;stroke-width:0" /></g>  </g>
  <path
     transform="matrix(1.5035649,0,0,2.448683,-50.049348,17.341099)"
     style="fill:none;stroke:#d42626;stroke-width:0.39087144px;stroke-linecap:butt;stroke-linejoin:miter;stroke-opacity:1;marker-end:url(#marker5570)"
     d="m 125.77516,-10.126087 c -4.98536,8.9730836 -9.97114,17.9469243 -14.01153,24.34355 -4.04039,6.396626 -7.13481,10.215079 -10.23025,14.034796"
     id="path5564"
     inkscape:connector-curvature="0"
     inkscape:path-effect="#path-effect5566"
     inkscape:original-d="m 125.77516,-10.126087 c -4.98511,8.9732221 -9.97089,17.9470627 -14.95734,26.921523 -3.09443,3.818774 -6.18885,7.637226 -9.28444,11.456823"
     sodipodi:nodetypes="ccc" />
  <circle
     style="fill:#ff0000;fill-rule:evenodd;stroke-width:0.75000006"
     id="path9364"
     cx="150.15118"
     cy="17.490448"
     r="3.7500002" />
  <circle
     r="3.7500002"
     cy="17.902012"
     cx="251.39598"
     id="circle9368"
     style="fill:#ff0000;fill-rule:evenodd;stroke-width:0.75000006" />
  <circle
     r="3.7500002"
     cy="214.6297"
     cx="200.77357"
     id="circle9370"
     style="fill:#ff0000;fill-rule:evenodd;stroke-width:0.75000006" />
  <circle
     r="3.7500002"
     cy="115.85429"
     cx="124.63421"
     id="circle9372"
     style="fill:#0000ff;fill-rule:evenodd;stroke-width:0.75000006" />
  <circle
     style="fill:#0000ff;fill-rule:evenodd;stroke-width:0.75000006"
     id="circle9374"
     cx="175.42709"
     cy="115.63816"
     r="3.7500002" />
  <circle
     r="3.7500002"
     cy="115.63816"
     cx="327.29428"
     id="circle9376"
     style="fill:#0000ff;fill-rule:evenodd;stroke-width:0.75000006" />
</svg>
