<?xml version="1.0" encoding="UTF-8" standalone="no"?>
<!-- Created with Inkscape (http://www.inkscape.org/) -->

<svg
   xmlns:dc="http://purl.org/dc/elements/1.1/"
   xmlns:cc="http://creativecommons.org/ns#"
   xmlns:rdf="http://www.w3.org/1999/02/22-rdf-syntax-ns#"
   xmlns:svg="http://www.w3.org/2000/svg"
   xmlns="http://www.w3.org/2000/svg"
   xmlns:sodipodi="http://sodipodi.sourceforge.net/DTD/sodipodi-0.dtd"
   xmlns:inkscape="http://www.inkscape.org/namespaces/inkscape"
   width="210mm"
   height="297mm"
   viewBox="0 0 210 297"
   version="1.1"
   id="svg8"
   sodipodi:docname="paroi.svg"
   inkscape:version="0.92.5 (2060ec1f9f, 2020-04-08)">
  <defs
     id="defs2">
    <marker
       inkscape:stockid="Arrow2Lend"
       orient="auto"
       refY="0.0"
       refX="0.0"
       id="marker1413"
       style="overflow:visible;"
       inkscape:isstock="true">
      <path
         id="path1411"
         style="fill-rule:evenodd;stroke-width:0.625;stroke-linejoin:round;stroke:#000000;stroke-opacity:1;fill:#000000;fill-opacity:1"
         d="M 8.7185878,4.0337352 L -2.2072895,0.016013256 L 8.7185884,-4.0017078 C 6.9730900,-1.6296469 6.9831476,1.6157441 8.7185878,4.0337352 z "
         transform="scale(1.1) rotate(180) translate(1,0)" />
    </marker>
    <marker
       inkscape:isstock="true"
       style="overflow:visible;"
       id="marker1131"
       refX="0.0"
       refY="0.0"
       orient="auto"
       inkscape:stockid="Arrow2Lend"
       inkscape:collect="always">
      <path
         transform="scale(1.1) rotate(180) translate(1,0)"
         d="M 8.7185878,4.0337352 L -2.2072895,0.016013256 L 8.7185884,-4.0017078 C 6.9730900,-1.6296469 6.9831476,1.6157441 8.7185878,4.0337352 z "
         style="fill-rule:evenodd;stroke-width:0.625;stroke-linejoin:round;stroke:#ff0000;stroke-opacity:1;fill:#ff0000;fill-opacity:1"
         id="path1129" />
    </marker>
    <marker
       inkscape:stockid="Arrow2Lend"
       orient="auto"
       refY="0.0"
       refX="0.0"
       id="Arrow2Lend"
       style="overflow:visible;"
       inkscape:isstock="true"
       inkscape:collect="always">
      <path
         id="path842"
         style="fill-rule:evenodd;stroke-width:0.625;stroke-linejoin:round;stroke:#000000;stroke-opacity:1;fill:#000000;fill-opacity:1"
         d="M 8.7185878,4.0337352 L -2.2072895,0.016013256 L 8.7185884,-4.0017078 C 6.9730900,-1.6296469 6.9831476,1.6157441 8.7185878,4.0337352 z "
         transform="scale(1.1) rotate(180) translate(1,0)" />
    </marker>
  </defs>
  <sodipodi:namedview
     id="base"
     pagecolor="#ffffff"
     bordercolor="#666666"
     borderopacity="1.0"
     inkscape:pageopacity="0.0"
     inkscape:pageshadow="2"
     inkscape:zoom="3.959798"
     inkscape:cx="428.92767"
     inkscape:cy="924.95218"
     inkscape:document-units="mm"
     inkscape:current-layer="layer1"
     showgrid="false"
     inkscape:window-width="1848"
     inkscape:window-height="1016"
     inkscape:window-x="72"
     inkscape:window-y="27"
     inkscape:window-maximized="1" />
  <metadata
     id="metadata5">
    <rdf:RDF>
      <cc:Work
         rdf:about="">
        <dc:format>image/svg+xml</dc:format>
        <dc:type
           rdf:resource="http://purl.org/dc/dcmitype/StillImage" />
        <dc:title></dc:title>
      </cc:Work>
    </rdf:RDF>
  </metadata>
  <g
     inkscape:label="Calque 1"
     inkscape:groupmode="layer"
     id="layer1">
    <path
       inkscape:connector-curvature="0"
       id="path1409"
       d="m 89.755199,56.755256 h 7.709958"
       style="fill:none;stroke:#000000;stroke-width:0.26499999;stroke-linecap:butt;stroke-linejoin:miter;stroke-miterlimit:4;stroke-dasharray:none;stroke-opacity:1;marker-end:url(#marker1413)" />
    <path
       style="fill:none;stroke:#000000;stroke-width:0.26458332px;stroke-linecap:butt;stroke-linejoin:miter;stroke-opacity:1"
       d="M 44.412201,62.238987 H 81.241256"
       id="path817"
       inkscape:connector-curvature="0" />
    <path
       inkscape:connector-curvature="0"
       id="path819"
       d="M 89.920563,62.238987 H 126.74977"
       style="fill:none;stroke:#000000;stroke-width:0.165;stroke-linecap:butt;stroke-linejoin:miter;stroke-opacity:1;stroke-miterlimit:4;stroke-dasharray:none;marker-end:url(#Arrow2Lend)" />
    <rect
       style="opacity:0.4;fill:#999999;fill-opacity:1;fill-rule:evenodd;stroke:#000000;stroke-width:0.26499999;stroke-linecap:butt;stroke-linejoin:miter;stroke-miterlimit:4;stroke-dasharray:none;stroke-dashoffset:1.32661414;stroke-opacity:1"
       id="rect815"
       width="8.5526247"
       height="54.522984"
       x="81.249931"
       y="36.144939" />
    <path
       style="fill:none;stroke:#ff0000;stroke-width:0.265;stroke-linecap:butt;stroke-linejoin:miter;stroke-miterlimit:4;stroke-dasharray:none;stroke-opacity:1;marker-end:url(#marker1131)"
       d="m 89.920563,62.236841 h 9.629643"
       id="path1127"
       inkscape:connector-curvature="0" />
    <g
       id="g1766"
       transform="matrix(0.44999998,0,0,0.44999998,54.487462,25.256473)"
       style="stroke-width:2.22222233;fill:#ff0000">
      <g
         word-spacing="normal"
         letter-spacing="normal"
         font-size-adjust="none"
         font-stretch="normal"
         font-weight="normal"
         font-variant="normal"
         font-style="normal"
         stroke-miterlimit="10.433"
         xml:space="preserve"
         transform="matrix(0.3,0,0,-0.3,-52.5,222.75)"
         id="content"
         style="font-style:normal;font-variant:normal;font-weight:normal;font-stretch:normal;letter-spacing:normal;word-spacing:normal;text-anchor:start;fill:#ff0000;fill-opacity:1;fill-rule:evenodd;stroke:#000000;stroke-width:2.22222233;stroke-linecap:butt;stroke-linejoin:miter;stroke-miterlimit:10.43299961;stroke-dasharray:none;stroke-dashoffset:0;stroke-opacity:1"><path
           id="path1759"
           d="m 474.46,408.93 v -3.28 l 7.31,0.55 v 1.55 c -3.48,0 -3.88,0.34 -3.88,2.78 v 30.25 l -7.17,-0.55 v -1.55 c 3.49,0 3.88,-0.34 3.88,-2.79 v -10.75 c -1.44,1.78 -3.58,3.07 -6.28,3.07 l 0.2,-1.09 c 1.75,0 3.84,-0.75 5.39,-2.98 0.55,-0.85 0.55,-0.96 0.55,-1.85 v 0 -10.22 c 0,-0.89 0,-1 -0.55,-1.84 -1.5,-2.39 -3.75,-3.48 -5.89,-3.48 -2.23,0 -4.03,1.29 -5.22,3.18 -1.3,2.05 -1.45,4.89 -1.45,6.93 0,1.84 0.09,4.84 1.54,7.07 1.05,1.55 2.94,3.19 5.63,3.19 l -0.2,1.09 c -5.88,0 -11.11,-4.87 -11.11,-11.29 0,-6.33 4.89,-11.27 10.56,-11.27 3.19,0 5.44,1.69 6.69,3.28 z"
           inkscape:connector-curvature="0"
           style="fill:#ff0000;stroke-width:0" /><path
           id="path1761"
           d="m 514.55,448.44 -0.07,-0.06 -0.07,-0.07 -0.08,-0.07 -0.08,-0.07 -0.08,-0.08 -0.09,-0.08 -0.09,-0.09 -0.1,-0.08 -0.09,-0.09 -0.1,-0.09 -0.19,-0.19 -0.2,-0.2 -0.19,-0.2 -0.09,-0.11 -0.09,-0.1 -0.09,-0.1 -0.08,-0.1 -0.08,-0.11 -0.08,-0.1 -0.07,-0.1 -0.06,-0.1 -0.06,-0.1 -0.06,-0.1 -0.04,-0.1 -0.04,-0.09 -0.03,-0.09 -0.02,-0.09 -0.02,-0.09 v -0.09 c 0,-0.5 0.5,-1 1,-1 0.45,0 0.7,0.36 0.95,0.66 0.59,0.75 1.74,2.14 3.94,3.23 0.34,0.21 0.84,0.46 0.84,1.05 0,0.5 -0.34,0.75 -0.7,1 -1.09,0.75 -1.64,1.64 -2.05,2.83 -0.09,0.45 -0.29,1.11 -0.98,1.11 -0.71,0 -1,-0.66 -1,-1.05 0,-0.25 0.39,-1.84 1.19,-2.89 h -16.79 c -0.84,0 -1.75,0 -1.75,-1 0,-1 0.91,-1 1.75,-1 z"
           inkscape:connector-curvature="0"
           style="fill:#ff0000;stroke-width:0" /><path
           id="path1763"
           d="m 515.38,440.82 v 0.02 0.02 0.01 l -0.01,0.02 v 0.02 0.02 l -0.01,0.02 v 0.02 l -0.01,0.02 -0.01,0.02 -0.01,0.02 -0.01,0.02 -0.01,0.02 -0.01,0.02 -0.02,0.02 -0.01,0.02 -0.02,0.02 -0.01,0.02 -0.02,0.02 -0.02,0.02 -0.02,0.01 -0.03,0.02 -0.02,0.01 -0.03,0.02 -0.03,0.01 -0.02,0.01 -0.02,0.01 h -0.02 l -0.01,0.01 h -0.02 -0.02 l -0.01,0.01 h -0.02 -0.02 -0.02 -0.02 -0.02 -0.02 c -0.25,0 -0.31,-0.04 -0.9,-0.75 l -2.39,-2.84 c -1.3,2.34 -3.9,3.59 -7.13,3.59 -6.33,0 -12.3,-5.73 -12.3,-11.76 0,-4.03 2.64,-6.33 5.18,-7.06 l 5.32,-1.41 c 1.85,-0.44 4.6,-1.19 4.6,-5.28 0,-4.49 -4.1,-9.16 -8.97,-9.16 -3.19,0 -8.72,1.1 -8.72,7.27 0,1.2 0.25,2.39 0.3,2.69 0.04,0.2 0.09,0.25 0.09,0.35 0,0.5 -0.34,0.55 -0.59,0.55 -0.25,0 -0.35,-0.05 -0.5,-0.2 -0.21,-0.2 -2.99,-11.56 -2.99,-11.7 0,-0.3 0.25,-0.5 0.55,-0.5 0.25,0 0.3,0.04 0.89,0.75 l 2.45,2.82 c 2.14,-2.89 5.52,-3.57 8.41,-3.57 6.78,0 12.66,6.62 12.66,12.79 0,3.44 -1.69,5.14 -2.44,5.83 -1.14,1.16 -1.89,1.34 -6.33,2.5 -1.09,0.3 -2.89,0.8 -3.34,0.89 -1.35,0.45 -3.04,1.89 -3.04,4.53 0,4.05 3.99,8.28 8.72,8.28 4.14,0 7.18,-2.14 7.18,-7.73 0,-1.59 -0.21,-2.49 -0.21,-2.78 0,-0.05 0,-0.5 0.61,-0.5 0.5,0 0.55,0.15 0.74,1 z"
           inkscape:connector-curvature="0"
           style="fill:#ff0000;stroke-width:0" /></g>    </g>
    <g
       id="g1802"
       transform="matrix(0.44999997,0,0,0.44999997,52.764903,8.0086757)"
       style="stroke-width:2.22222233">
      <g
         word-spacing="normal"
         letter-spacing="normal"
         font-size-adjust="none"
         font-stretch="normal"
         font-weight="normal"
         font-variant="normal"
         font-style="normal"
         stroke-miterlimit="10.433"
         xml:space="preserve"
         transform="matrix(0.3,0,0,-0.3,-52.5,222.75)"
         id="g1800"
         style="font-style:normal;font-variant:normal;font-weight:normal;font-stretch:normal;letter-spacing:normal;word-spacing:normal;text-anchor:start;fill:none;fill-opacity:1;fill-rule:evenodd;stroke:#000000;stroke-width:2.22222233;stroke-linecap:butt;stroke-linejoin:miter;stroke-miterlimit:10.43299961;stroke-dasharray:none;stroke-dashoffset:0;stroke-opacity:1"><path
           id="path1794"
           d="m 480.35,435.84 -0.07,-0.06 -0.07,-0.07 -0.07,-0.07 -0.09,-0.07 -0.08,-0.08 -0.09,-0.08 -0.09,-0.09 -0.09,-0.08 -0.1,-0.09 -0.1,-0.1 -0.19,-0.19 -0.2,-0.19 -0.19,-0.21 -0.09,-0.1 -0.09,-0.1 -0.09,-0.1 -0.08,-0.11 -0.08,-0.1 -0.08,-0.1 -0.07,-0.1 -0.06,-0.1 -0.06,-0.1 -0.05,-0.1 -0.05,-0.1 -0.04,-0.09 -0.03,-0.09 -0.02,-0.1 -0.02,-0.08 v -0.09 c 0,-0.5 0.5,-1 1,-1 0.45,0 0.7,0.36 0.95,0.66 0.59,0.75 1.74,2.14 3.94,3.23 0.34,0.21 0.84,0.46 0.84,1.05 0,0.5 -0.34,0.75 -0.7,1 -1.09,0.75 -1.64,1.64 -2.05,2.83 -0.09,0.45 -0.29,1.11 -0.98,1.11 -0.71,0 -1,-0.66 -1,-1.05 0,-0.25 0.39,-1.84 1.19,-2.89 h -16.79 c -0.84,0 -1.75,0 -1.75,-1 0,-1 0.91,-1 1.75,-1 z"
           inkscape:connector-curvature="0"
           style="fill:#000000;stroke-width:0" /><path
           id="path1796"
           d="m 478.83,424.73 v 0.12 l -0.01,0.13 v 0.12 l -0.01,0.11 v 0.12 l -0.01,0.11 -0.02,0.11 -0.01,0.1 -0.03,0.21 -0.04,0.19 -0.04,0.18 -0.05,0.18 -0.05,0.16 -0.06,0.16 -0.06,0.15 -0.07,0.13 -0.07,0.13 -0.07,0.12 -0.08,0.12 -0.08,0.1 -0.08,0.1 -0.09,0.09 -0.09,0.08 -0.09,0.07 -0.09,0.07 -0.09,0.06 -0.09,0.05 -0.09,0.05 -0.09,0.04 -0.1,0.03 -0.09,0.03 -0.09,0.03 -0.09,0.01 -0.09,0.02 h -0.08 -0.09 c -1.25,0 -2.44,-1.29 -2.44,-2.39 0,-0.64 0.25,-0.93 0.8,-1.48 1.05,-1 1.69,-2.3 1.69,-4.09 0,-2.1 -3.03,-13.5 -8.86,-13.5 -2.55,0 -3.69,1.75 -3.69,4.32 0,2.8 1.34,6.44 2.89,10.57 0.35,0.86 0.59,1.54 0.59,2.5 0,2.23 -1.59,4.07 -4.09,4.07 -4.67,0 -6.58,-7.21 -6.58,-7.67 0,-0.5 0.5,-0.5 0.61,-0.5 0.5,0 0.55,0.11 0.8,0.91 1.44,5.03 3.58,6.17 5.03,6.17 0.39,0 1.25,0 1.25,-1.59 0,-1.25 -0.5,-2.6 -0.86,-3.49 -2.19,-5.78 -2.83,-8.08 -2.83,-10.22 0,-5.37 4.38,-6.17 6.67,-6.17 8.38,0 11.21,16.49 11.21,19.08 z"
           inkscape:connector-curvature="0"
           style="fill:#000000;stroke-width:0" /><path
           id="path1798"
           d="m 491.31,420.92 v 0.04 0.04 0.05 0.04 0.03 0.04 0.04 0.03 0.04 0.03 l -0.01,0.03 v 0.03 0.03 l -0.01,0.03 v 0.03 0.02 l -0.01,0.03 v 0.02 l -0.01,0.03 v 0.02 l -0.01,0.04 -0.02,0.04 -0.02,0.03 -0.02,0.03 -0.02,0.03 -0.02,0.03 -0.03,0.02 -0.03,0.02 -0.03,0.02 -0.04,0.01 -0.04,0.01 -0.05,0.02 h -0.02 -0.02 l -0.03,0.01 h -0.03 l -0.02,0.01 h -0.03 -0.03 -0.03 -0.03 l -0.04,0.01 h -0.03 -0.04 -0.03 -0.04 -0.04 -0.04 -0.04 -0.04 -0.05 -0.04 c -2.24,-2.2 -5.39,-2.23 -6.83,-2.23 v -1.25 c 0.84,0 3.14,0 5.04,0.97 v -17.77 c 0,-1.16 0,-1.61 -3.48,-1.61 h -1.31 v -1.25 c 0.62,0.03 4.9,0.14 6.2,0.14 1.08,0 5.47,-0.11 6.23,-0.14 v 1.25 h -1.32 c -3.49,0 -3.49,0.45 -3.49,1.61 z"
           inkscape:connector-curvature="0"
           style="fill:#000000;stroke-width:0" /></g>    </g>
    <g
       id="g1841"
       transform="matrix(0.44999998,0,0,0.44999997,58.748709,-2.1900192)"
       style="stroke-width:2.22222233">
      <g
         word-spacing="normal"
         letter-spacing="normal"
         font-size-adjust="none"
         font-stretch="normal"
         font-weight="normal"
         font-variant="normal"
         font-style="normal"
         stroke-miterlimit="10.433"
         xml:space="preserve"
         transform="matrix(0.3,0,0,-0.3,-52.5,222.75)"
         id="g1839"
         style="font-style:normal;font-variant:normal;font-weight:normal;font-stretch:normal;letter-spacing:normal;word-spacing:normal;text-anchor:start;fill:none;fill-opacity:1;fill-rule:evenodd;stroke:#000000;stroke-width:2.22222233;stroke-linecap:butt;stroke-linejoin:miter;stroke-miterlimit:10.43299961;stroke-dasharray:none;stroke-dashoffset:0;stroke-opacity:1"><path
           id="path1835"
           d="m 470.61,421.95 0.21,1.28 3.39,13.56 c 0.43,1.74 0.54,1.89 2.68,1.89 h 4.79 c 4.14,0 6.78,-1.34 6.78,-4.78 0,-1.95 -1,-6.23 -2.94,-8.03 -2.5,-2.23 -5.48,-2.64 -7.69,-2.64 h -7.01 l -0.21,-1.28 h 8.47 c 7.08,0 14,5.17 14,10.75 0,3.84 -3.28,7.53 -9.81,7.53 h -16.14 c -0.95,0 -1.5,0 -1.5,-0.95 0,-0.6 0.45,-0.6 1.45,-0.6 0.64,0 1.55,-0.04 2.14,-0.09 0.8,-0.11 1.1,-0.25 1.1,-0.8 0,-0.2 -0.05,-0.36 -0.21,-0.95 l -6.67,-26.75 c -0.5,-1.95 -0.59,-2.34 -4.53,-2.34 -0.84,0 -1.39,0 -1.39,-0.96 0,-0.59 0.59,-0.59 0.73,-0.59 1.41,0 4.94,0.16 6.33,0.16 1.05,0 2.14,-0.07 3.19,-0.07 1.11,0 2.2,-0.09 3.25,-0.09 0.34,0 0.98,0 0.98,1 0,0.55 -0.43,0.55 -1.39,0.55 -1.84,0 -3.23,0 -3.23,0.89 0,0.29 0.09,0.54 0.14,0.84 z"
           inkscape:connector-curvature="0"
           style="fill:#000000;stroke-width:0" /><path
           id="path1837"
           d="m 505.54,409.87 v 0.71 l -0.02,0.68 -0.03,0.66 -0.04,0.64 -0.06,0.62 -0.08,0.6 -0.09,0.57 -0.1,0.56 -0.13,0.55 -0.15,0.53 -0.17,0.51 -0.19,0.5 -0.21,0.49 -0.24,0.48 -0.26,0.47 -0.14,0.23 -0.15,0.23 c -1.08,1.61 -3.23,3 -6.03,3 v -0.98 c 1.89,0 3.7,-1.14 4.33,-3.17 0.56,-1.88 0.59,-4.39 0.59,-7.43 0,-2.57 0,-5.15 -0.45,-7.34 -0.71,-3.17 -3.06,-3.94 -4.47,-3.94 v 0 c -1.59,0 -3.72,0.94 -4.42,3.8 -0.49,2.05 -0.49,4.91 -0.49,7.48 0,2.55 0,5.21 0.52,7.11 0.73,2.75 2.97,3.49 4.39,3.49 v 0.98 c -8.08,0 -8.08,-9.51 -8.08,-12.03 0,-2.5 0,-11.81 8.08,-11.81 8.09,0 8.09,9.31 8.09,11.81 z"
           inkscape:connector-curvature="0"
           style="fill:#000000;stroke-width:0" /></g>    </g>
    <g
       id="g1889"
       transform="matrix(0.45,0,0,0.44999997,19.89305,-2.1900192)"
       style="stroke-width:2.22222233">
      <g
         word-spacing="normal"
         letter-spacing="normal"
         font-size-adjust="none"
         font-stretch="normal"
         font-weight="normal"
         font-variant="normal"
         font-style="normal"
         stroke-miterlimit="10.433"
         xml:space="preserve"
         transform="matrix(0.3,0,0,-0.3,-52.5,222.75)"
         id="g1887"
         style="font-style:normal;font-variant:normal;font-weight:normal;font-stretch:normal;letter-spacing:normal;word-spacing:normal;text-anchor:start;fill:none;fill-opacity:1;fill-rule:evenodd;stroke:#000000;stroke-width:2.22222233;stroke-linecap:butt;stroke-linejoin:miter;stroke-miterlimit:10.43299961;stroke-dasharray:none;stroke-dashoffset:0;stroke-opacity:1"><path
           id="path1877"
           d="m 470.61,421.95 0.21,1.28 3.39,13.56 c 0.43,1.74 0.54,1.89 2.68,1.89 h 4.79 c 4.14,0 6.78,-1.34 6.78,-4.78 0,-1.95 -1,-6.23 -2.94,-8.03 -2.5,-2.23 -5.48,-2.64 -7.69,-2.64 h -7.01 l -0.21,-1.28 h 8.47 c 7.08,0 14,5.17 14,10.75 0,3.84 -3.28,7.53 -9.81,7.53 h -16.14 c -0.95,0 -1.5,0 -1.5,-0.95 0,-0.6 0.45,-0.6 1.45,-0.6 0.64,0 1.55,-0.04 2.14,-0.09 0.8,-0.11 1.1,-0.25 1.1,-0.8 0,-0.2 -0.05,-0.36 -0.21,-0.95 l -6.67,-26.75 c -0.5,-1.95 -0.59,-2.34 -4.53,-2.34 -0.84,0 -1.39,0 -1.39,-0.96 0,-0.59 0.59,-0.59 0.73,-0.59 1.41,0 4.94,0.16 6.33,0.16 1.05,0 2.14,-0.07 3.19,-0.07 1.11,0 2.2,-0.09 3.25,-0.09 0.34,0 0.98,0 0.98,1 0,0.55 -0.43,0.55 -1.39,0.55 -1.84,0 -3.23,0 -3.23,0.89 0,0.29 0.09,0.54 0.14,0.84 z"
           inkscape:connector-curvature="0"
           style="fill:#000000;stroke-width:0" /><path
           id="path1879"
           d="m 505.54,409.87 v 0.71 l -0.02,0.68 -0.03,0.66 -0.04,0.64 -0.06,0.62 -0.08,0.6 -0.09,0.57 -0.1,0.56 -0.13,0.55 -0.15,0.53 -0.17,0.51 -0.19,0.5 -0.21,0.49 -0.24,0.48 -0.26,0.47 -0.14,0.23 -0.15,0.23 c -1.08,1.61 -3.23,3 -6.03,3 v -0.98 c 1.89,0 3.7,-1.14 4.33,-3.17 0.56,-1.88 0.59,-4.39 0.59,-7.43 0,-2.57 0,-5.15 -0.45,-7.34 -0.71,-3.17 -3.06,-3.94 -4.47,-3.94 v 0 c -1.59,0 -3.72,0.94 -4.42,3.8 -0.49,2.05 -0.49,4.91 -0.49,7.48 0,2.55 0,5.21 0.52,7.11 0.73,2.75 2.97,3.49 4.39,3.49 v 0.98 c -8.08,0 -8.08,-9.51 -8.08,-12.03 0,-2.5 0,-11.81 8.08,-11.81 8.09,0 8.09,9.31 8.09,11.81 z"
           inkscape:connector-curvature="0"
           style="fill:#000000;stroke-width:0" /><path
           id="path1881"
           d="m 541.3,417.65 h 13.9 c 0.69,0 1.64,0 1.64,1 0,1 -0.95,1 -1.64,1 h -13.9 v 13.96 c 0,0.68 0,1.64 -1,1.64 -0.99,0 -0.99,-0.96 -0.99,-1.64 v -13.96 h -13.95 c -0.7,0 -1.64,0 -1.64,-1 0,-1 0.94,-1 1.64,-1 h 13.95 v -13.94 c 0,-0.7 0,-1.65 0.99,-1.65 1,0 1,0.95 1,1.65 z"
           inkscape:connector-curvature="0"
           style="fill:#000000;stroke-width:0" /><path
           id="path1883"
           d="m 585.81,421.95 0.21,1.28 3.39,13.56 c 0.43,1.74 0.54,1.89 2.68,1.89 h 4.79 c 4.14,0 6.78,-1.34 6.78,-4.78 0,-1.95 -1,-6.23 -2.94,-8.03 -2.5,-2.23 -5.49,-2.64 -7.69,-2.64 h -7.01 l -0.21,-1.28 h 8.47 c 7.08,0 14,5.17 14,10.75 0,3.84 -3.28,7.53 -9.81,7.53 h -16.14 c -0.95,0 -1.5,0 -1.5,-0.95 0,-0.6 0.45,-0.6 1.45,-0.6 0.64,0 1.55,-0.04 2.14,-0.09 0.8,-0.11 1.1,-0.25 1.1,-0.8 0,-0.2 -0.05,-0.36 -0.21,-0.95 l -6.67,-26.75 c -0.5,-1.95 -0.59,-2.34 -4.53,-2.34 -0.84,0 -1.39,0 -1.39,-0.96 0,-0.59 0.59,-0.59 0.73,-0.59 1.41,0 4.94,0.16 6.33,0.16 1.05,0 2.14,-0.07 3.19,-0.07 1.11,0 2.2,-0.09 3.25,-0.09 0.34,0 0.98,0 0.98,1 0,0.55 -0.43,0.55 -1.39,0.55 -1.84,0 -3.23,0 -3.23,0.89 0,0.29 0.09,0.54 0.14,0.84 z"
           inkscape:connector-curvature="0"
           style="fill:#000000;stroke-width:0" /><path
           id="path1885"
           d="m 614.43,420.92 v 0.04 0.04 0.05 0.04 0.03 0.04 0.04 0.03 0.04 0.03 l -0.01,0.03 v 0.03 0.03 0.03 l -0.01,0.03 v 0.02 l -0.01,0.03 v 0.02 l -0.01,0.03 v 0.02 l -0.01,0.04 -0.02,0.04 -0.01,0.03 -0.02,0.03 -0.03,0.03 -0.02,0.03 -0.03,0.02 -0.03,0.02 -0.03,0.02 -0.04,0.01 -0.04,0.01 -0.04,0.02 h -0.03 -0.02 l -0.03,0.01 h -0.02 l -0.03,0.01 h -0.03 -0.03 -0.03 -0.03 l -0.04,0.01 h -0.03 -0.04 -0.03 -0.04 -0.04 -0.04 -0.04 -0.04 -0.05 -0.04 c -2.24,-2.2 -5.39,-2.23 -6.83,-2.23 v -1.25 c 0.84,0 3.14,0 5.04,0.97 v -17.77 c 0,-1.16 0,-1.61 -3.48,-1.61 h -1.31 v -1.25 c 0.62,0.03 4.91,0.14 6.2,0.14 1.08,0 5.47,-0.11 6.24,-0.14 v 1.25 h -1.33 c -3.49,0 -3.49,0.45 -3.49,1.61 z"
           inkscape:connector-curvature="0"
           style="fill:#000000;stroke-width:0" /></g>    </g>
    <g
       id="g1943"
       transform="matrix(0.44999997,0,0,0.44999997,89.899685,18.422198)"
       style="stroke-width:2.22222233">
      <g
         word-spacing="normal"
         letter-spacing="normal"
         font-size-adjust="none"
         font-stretch="normal"
         font-weight="normal"
         font-variant="normal"
         font-style="normal"
         stroke-miterlimit="10.433"
         xml:space="preserve"
         transform="matrix(0.3,0,0,-0.3,-52.5,222.75)"
         id="g1941"
         style="font-style:normal;font-variant:normal;font-weight:normal;font-stretch:normal;letter-spacing:normal;word-spacing:normal;text-anchor:start;fill:none;fill-opacity:1;fill-rule:evenodd;stroke:#000000;stroke-width:2.22222233;stroke-linecap:butt;stroke-linejoin:miter;stroke-miterlimit:10.43299961;stroke-dasharray:none;stroke-dashoffset:0;stroke-opacity:1"><path
           id="path1935"
           d="m 480.35,435.84 -0.07,-0.06 -0.07,-0.07 -0.07,-0.07 -0.09,-0.07 -0.08,-0.08 -0.09,-0.08 -0.09,-0.09 -0.09,-0.08 -0.1,-0.09 -0.1,-0.1 -0.19,-0.19 -0.2,-0.19 -0.19,-0.21 -0.09,-0.1 -0.09,-0.1 -0.09,-0.1 -0.08,-0.11 -0.08,-0.1 -0.08,-0.1 -0.07,-0.1 -0.06,-0.1 -0.06,-0.1 -0.05,-0.1 -0.05,-0.1 -0.04,-0.09 -0.03,-0.09 -0.02,-0.1 -0.02,-0.08 v -0.09 c 0,-0.5 0.5,-1 1,-1 0.45,0 0.7,0.36 0.95,0.66 0.59,0.75 1.74,2.14 3.94,3.23 0.34,0.21 0.84,0.46 0.84,1.05 0,0.5 -0.34,0.75 -0.7,1 -1.09,0.75 -1.64,1.64 -2.05,2.83 -0.09,0.45 -0.29,1.11 -0.98,1.11 -0.71,0 -1,-0.66 -1,-1.05 0,-0.25 0.39,-1.84 1.19,-2.89 h -16.79 c -0.84,0 -1.75,0 -1.75,-1 0,-1 0.91,-1 1.75,-1 z"
           inkscape:connector-curvature="0"
           style="fill:#000000;stroke-width:0" /><path
           id="path1937"
           d="m 464.83,417.71 0.14,0.01 h 0.16 0.16 0.18 l 0.19,0.01 h 0.2 l 0.21,0.01 0.21,0.01 0.23,0.01 0.23,0.01 0.24,0.01 0.24,0.02 0.25,0.02 0.26,0.02 0.52,0.05 0.54,0.07 0.54,0.07 0.55,0.1 0.54,0.11 0.53,0.12 0.26,0.07 0.26,0.08 0.26,0.08 0.24,0.08 0.25,0.09 0.23,0.1 c 3.49,1.5 3.74,4.43 3.74,5.12 0,2.2 -1.89,4.23 -5.33,4.23 v -1.09 c 2.34,0 3.69,-1.44 3.69,-3.14 0,-5.17 -7.97,-5.17 -10.02,-5.17 h -2.05 c 1.96,7.56 7.08,8.31 8.38,8.31 v 1.09 c -5.53,0 -13.05,-4.82 -13.05,-13.54 0,-5.08 2.94,-9.02 7.81,-9.02 7.13,0 11.32,5.28 11.32,5.88 0,0.29 -0.3,0.65 -0.6,0.65 -0.25,0 -0.34,-0.11 -0.65,-0.5 -3.94,-4.93 -9.36,-4.93 -9.96,-4.93 -3.89,0 -4.34,4.18 -4.34,5.78 0,0.59 0.05,2.14 0.8,5.18 z"
           inkscape:connector-curvature="0"
           style="fill:#000000;stroke-width:0" /><path
           id="path1939"
           d="m 487.35,402.45 -0.03,-0.11 -0.04,-0.12 -0.05,-0.12 -0.04,-0.12 -0.06,-0.12 -0.06,-0.13 -0.06,-0.13 -0.07,-0.12 -0.07,-0.13 -0.07,-0.13 -0.08,-0.13 -0.09,-0.12 -0.09,-0.13 -0.09,-0.12 -0.1,-0.12 -0.1,-0.12 -0.1,-0.12 -0.11,-0.11 -0.12,-0.1 -0.12,-0.1 -0.12,-0.1 -0.12,-0.09 -0.13,-0.08 -0.14,-0.08 -0.13,-0.07 -0.15,-0.06 -0.14,-0.05 -0.15,-0.05 -0.15,-0.04 -0.16,-0.02 -0.16,-0.02 h -0.16 c -0.11,0 -1.16,0 -1.89,0.48 1.43,0.45 1.53,1.72 1.53,1.92 0,0.77 -0.6,1.3 -1.39,1.3 -0.97,0 -1.99,-0.84 -1.99,-2.14 0,-1.74 1.95,-2.53 3.66,-2.53 1.61,0 3.03,1 3.9,2.47 0.83,-1.85 2.75,-2.47 4.14,-2.47 4.02,0 6.15,4.34 6.15,5.33 0,0.45 -0.46,0.45 -0.57,0.45 -0.48,0 -0.51,-0.17 -0.65,-0.59 -0.74,-2.41 -2.83,-4.22 -4.78,-4.22 -1.4,0 -2.13,0.93 -2.13,2.26 0,0.91 0.84,4.08 1.81,7.96 0.71,2.67 2.27,3.54 3.42,3.54 0.07,0 1.15,0 1.88,-0.48 -1.11,-0.31 -1.53,-1.3 -1.53,-1.92 0,-0.77 0.59,-1.29 1.39,-1.29 0.81,0 1.95,0.66 1.95,2.13 0,1.95 -2.23,2.53 -3.62,2.53 -1.74,0 -3.14,-1.14 -3.91,-2.47 -0.62,1.44 -2.22,2.47 -4.17,2.47 -3.91,0 -6.14,-4.28 -6.14,-5.33 0,-0.45 0.5,-0.45 0.59,-0.45 0.46,0 0.49,0.14 0.67,0.59 0.86,2.72 3.07,4.22 4.77,4.22 1.16,0 2.09,-0.62 2.09,-2.29 0,-0.71 -0.42,-2.44 -0.73,-3.63 z"
           inkscape:connector-curvature="0"
           style="fill:#000000;stroke-width:0" /></g>    </g>
  </g>
</svg>
