<?xml version="1.0" encoding="UTF-8" standalone="no"?>
<!-- Created with Inkscape (http://www.inkscape.org/) -->

<svg
   width="210mm"
   height="297mm"
   viewBox="0 0 210 297"
   version="1.1"
   id="svg8"
   inkscape:version="1.3.2 (1:1.3.2+202311252150+091e20ef0f)"
   sodipodi:docname="fil_infini.svg"
   xmlns:inkscape="http://www.inkscape.org/namespaces/inkscape"
   xmlns:sodipodi="http://sodipodi.sourceforge.net/DTD/sodipodi-0.dtd"
   xmlns="http://www.w3.org/2000/svg"
   xmlns:svg="http://www.w3.org/2000/svg"
   xmlns:rdf="http://www.w3.org/1999/02/22-rdf-syntax-ns#"
   xmlns:cc="http://creativecommons.org/ns#"
   xmlns:dc="http://purl.org/dc/elements/1.1/">
  <sodipodi:namedview
     id="base"
     pagecolor="#ffffff"
     bordercolor="#666666"
     borderopacity="1.0"
     inkscape:pageopacity="0.0"
     inkscape:pageshadow="2"
     inkscape:zoom="0.67618415"
     inkscape:cx="532.39935"
     inkscape:cy="557.54043"
     inkscape:document-units="mm"
     inkscape:current-layer="layer1"
     showgrid="false"
     inkscape:window-width="1920"
     inkscape:window-height="1003"
     inkscape:window-x="0"
     inkscape:window-y="0"
     inkscape:window-maximized="1"
     inkscape:showpageshadow="0"
     inkscape:pagecheckerboard="0"
     inkscape:deskcolor="#d1d1d1" />
  <defs
     id="defs2">
    <marker
       inkscape:stockid="Arrow2Lend"
       orient="auto"
       refY="0.0"
       refX="0.0"
       id="marker1559"
       style="overflow:visible;"
       inkscape:isstock="true">
      <path
         id="path1557"
         style="fill-rule:evenodd;stroke-width:0.625;stroke-linejoin:round;stroke:#000000;stroke-opacity:1;fill:#000000;fill-opacity:1"
         d="M 8.7185878,4.0337352 L -2.2072895,0.016013256 L 8.7185884,-4.0017078 C 6.9730900,-1.6296469 6.9831476,1.6157441 8.7185878,4.0337352 z "
         transform="scale(1.1) rotate(180) translate(1,0)" />
    </marker>
    <inkscape:path-effect
       is_visible="true"
       id="path-effect3826"
       effect="spiro" />
    <inkscape:path-effect
       effect="spiro"
       id="path-effect3822"
       is_visible="true" />
    <inkscape:path-effect
       effect="spiro"
       id="path-effect3818"
       is_visible="true" />
    <inkscape:path-effect
       is_visible="true"
       id="path-effect2910"
       effect="spiro" />
    <inkscape:path-effect
       effect="spiro"
       id="path-effect2906"
       is_visible="true" />
    <inkscape:path-effect
       is_visible="true"
       id="path-effect2860"
       effect="spiro" />
    <inkscape:path-effect
       effect="spiro"
       id="path-effect2856"
       is_visible="true" />
    <inkscape:path-effect
       is_visible="true"
       id="path-effect2598"
       effect="spiro" />
    <inkscape:path-effect
       is_visible="true"
       id="path-effect2594"
       effect="spiro" />
    <marker
       inkscape:isstock="true"
       style="overflow:visible;"
       id="marker2542"
       refX="0.0"
       refY="0.0"
       orient="auto"
       inkscape:stockid="Arrow2Lend">
      <path
         transform="scale(1.1) rotate(180) translate(1,0)"
         d="M 8.7185878,4.0337352 L -2.2072895,0.016013256 L 8.7185884,-4.0017078 C 6.9730900,-1.6296469 6.9831476,1.6157441 8.7185878,4.0337352 z "
         style="fill-rule:evenodd;stroke-width:0.625;stroke-linejoin:round;stroke:#000000;stroke-opacity:1;fill:#000000;fill-opacity:1"
         id="path2540" />
    </marker>
    <marker
       inkscape:isstock="true"
       style="overflow:visible;"
       id="marker2334"
       refX="0.0"
       refY="0.0"
       orient="auto"
       inkscape:stockid="Arrow2Lend">
      <path
         transform="scale(1.1) rotate(180) translate(1,0)"
         d="M 8.7185878,4.0337352 L -2.2072895,0.016013256 L 8.7185884,-4.0017078 C 6.9730900,-1.6296469 6.9831476,1.6157441 8.7185878,4.0337352 z "
         style="fill-rule:evenodd;stroke-width:0.625;stroke-linejoin:round;stroke:#000000;stroke-opacity:1;fill:#000000;fill-opacity:1"
         id="path2332" />
    </marker>
    <inkscape:path-effect
       effect="spiro"
       id="path-effect2330"
       is_visible="true" />
    <inkscape:path-effect
       effect="spiro"
       id="path-effect2326"
       is_visible="true" />
    <marker
       inkscape:stockid="Arrow2Lend"
       orient="auto"
       refY="0.0"
       refX="0.0"
       id="marker1872"
       style="overflow:visible;"
       inkscape:isstock="true"
       inkscape:collect="always">
      <path
         id="path1870"
         style="fill-rule:evenodd;stroke-width:0.625;stroke-linejoin:round;stroke:#000000;stroke-opacity:1;fill:#000000;fill-opacity:1"
         d="M 8.7185878,4.0337352 L -2.2072895,0.016013256 L 8.7185884,-4.0017078 C 6.9730900,-1.6296469 6.9831476,1.6157441 8.7185878,4.0337352 z "
         transform="scale(1.1) rotate(180) translate(1,0)" />
    </marker>
    <inkscape:path-effect
       is_visible="true"
       id="path-effect1868"
       effect="spiro" />
    <marker
       inkscape:isstock="true"
       style="overflow:visible;"
       id="marker1276"
       refX="0.0"
       refY="0.0"
       orient="auto"
       inkscape:stockid="Arrow2Lend"
       inkscape:collect="always">
      <path
         transform="scale(1.1) rotate(180) translate(1,0)"
         d="M 8.7185878,4.0337352 L -2.2072895,0.016013256 L 8.7185884,-4.0017078 C 6.9730900,-1.6296469 6.9831476,1.6157441 8.7185878,4.0337352 z "
         style="fill-rule:evenodd;stroke-width:0.625;stroke-linejoin:round;stroke:#000000;stroke-opacity:1;fill:#000000;fill-opacity:1"
         id="path1274" />
    </marker>
    <inkscape:path-effect
       effect="spiro"
       id="path-effect1272"
       is_visible="true" />
    <marker
       inkscape:stockid="Arrow2Lend"
       orient="auto"
       refY="0.0"
       refX="0.0"
       id="Arrow2Lend"
       style="overflow:visible;"
       inkscape:isstock="true"
       inkscape:collect="always">
      <path
         id="path979"
         style="fill-rule:evenodd;stroke-width:0.625;stroke-linejoin:round;stroke:#000000;stroke-opacity:1;fill:#000000;fill-opacity:1"
         d="M 8.7185878,4.0337352 L -2.2072895,0.016013256 L 8.7185884,-4.0017078 C 6.9730900,-1.6296469 6.9831476,1.6157441 8.7185878,4.0337352 z "
         transform="scale(1.1) rotate(180) translate(1,0)" />
    </marker>
    <inkscape:path-effect
       is_visible="true"
       id="path-effect956"
       effect="spiro" />
    <inkscape:path-effect
       effect="spiro"
       id="path-effect952"
       is_visible="true" />
    <inkscape:path-effect
       effect="spiro"
       id="path-effect827"
       is_visible="true" />
    <inkscape:path-effect
       is_visible="true"
       id="path-effect823"
       effect="spiro" />
    <inkscape:path-effect
       effect="spiro"
       id="path-effect819"
       is_visible="true" />
    <inkscape:path-effect
       effect="spiro"
       id="path-effect1272-7"
       is_visible="true" />
    <inkscape:path-effect
       is_visible="true"
       id="path-effect1868-5"
       effect="spiro" />
  </defs>
  <metadata
     id="metadata5">
    <rdf:RDF>
      <cc:Work
         rdf:about="">
        <dc:format>image/svg+xml</dc:format>
        <dc:type
           rdf:resource="http://purl.org/dc/dcmitype/StillImage" />
        <dc:title />
      </cc:Work>
    </rdf:RDF>
  </metadata>
  <g
     inkscape:label="Calque 1"
     inkscape:groupmode="layer"
     id="layer1">
    <g
       id="g3852"
       transform="translate(0.25667495,-69.089597)"
       inkscape:export-filename="fil_infini.pdf"
       inkscape:export-xdpi="300"
       inkscape:export-ydpi="300">
      <path
         inkscape:original-d="m 64.144686,104.56593 c 19.689119,6.4142 39.377974,12.82867 59.066564,19.24341"
         inkscape:path-effect="#path-effect2906"
         inkscape:connector-curvature="0"
         id="path2904"
         d="m 64.144686,104.56593 59.066564,19.24341"
         style="fill:none;stroke:#000000;stroke-width:0.57181215;stroke-linecap:butt;stroke-linejoin:miter;stroke-miterlimit:4;stroke-dasharray:0.57181214, 2.28724856;stroke-dashoffset:0;stroke-opacity:1"
         transform="matrix(0.70553212,0,0,0.69357982,78.037269,120.10499)" />
      <path
         transform="matrix(-0.21060268,-0.67291445,0.66240328,-0.20703489,67.537633,257.44269)"
         style="fill:none;stroke:#000000;stroke-width:0.57181215;stroke-linecap:butt;stroke-linejoin:miter;stroke-miterlimit:4;stroke-dasharray:0.57181214, 2.28724856;stroke-dashoffset:0;stroke-opacity:1"
         d="m 64.144686,104.56593 59.066564,19.24341"
         id="path2908"
         inkscape:connector-curvature="0"
         inkscape:path-effect="#path-effect2910"
         inkscape:original-d="m 64.144686,104.56593 c 19.689119,6.4142 39.377974,12.82867 59.066564,19.24341" />
      <path
         inkscape:original-d="m 64.144686,104.56593 c 19.689119,6.4142 39.377974,12.82867 59.066564,19.24341"
         inkscape:path-effect="#path-effect3822"
         inkscape:connector-curvature="0"
         id="path3820"
         d="m 64.144686,104.56593 59.066564,19.24341"
         style="fill:none;stroke:#000000;stroke-width:0.57181215;stroke-linecap:butt;stroke-linejoin:miter;stroke-miterlimit:4;stroke-dasharray:0.57181214, 2.28724856;stroke-dashoffset:0;stroke-opacity:1"
         transform="matrix(-0.21060268,-0.67291445,0.66240328,-0.20703489,109.211,270.78932)" />
      <path
         transform="matrix(0.70553212,0,0,0.69357982,78.344589,76.374383)"
         style="fill:none;stroke:#000000;stroke-width:0.57181215;stroke-linecap:butt;stroke-linejoin:miter;stroke-miterlimit:4;stroke-dasharray:0.57181214, 2.28724856;stroke-dashoffset:0;stroke-opacity:1"
         d="m 64.144686,104.56593 59.066564,19.24341"
         id="path3824"
         inkscape:connector-curvature="0"
         inkscape:path-effect="#path-effect3826"
         inkscape:original-d="m 64.144686,104.56593 c 19.689119,6.4142 39.377974,12.82867 59.066564,19.24341" />
      <path
         inkscape:connector-curvature="0"
         id="path3838"
         d="m 123.58915,149.2995 c -0.18822,14.44261 -0.20084,28.88704 -0.29574,43.33051 13.75146,4.32232 27.46092,8.95401 41.22606,13.12282 0.55942,-5.969 0.15516,-12.02719 0.30756,-18.03029 0.0303,-8.4387 0.17232,-16.87631 0.33427,-25.31335 -13.8541,-4.41122 -27.66692,-8.95937 -41.56427,-13.23036 z"
         style="opacity:0.3;fill:#008000;fill-opacity:1;fill-rule:evenodd;stroke:none;stroke-width:0.30000004;stroke-linecap:butt;stroke-linejoin:round;stroke-miterlimit:4;stroke-dasharray:0.30000001, 1.20000002;stroke-dashoffset:0;stroke-opacity:1" />
    </g>
    <g
       id="g2738"
       transform="matrix(0.97670229,0,0,0.97520082,4.4810066,-57.36099)"
       style="stroke-width:1.02464128">
      <path
         inkscape:original-d="m 64.144686,104.56593 c 19.689119,6.4142 39.377974,12.82867 59.066564,19.24341"
         inkscape:path-effect="#path-effect2326"
         inkscape:connector-curvature="0"
         id="path2324"
         d="m 64.144686,104.56593 59.066564,19.24341"
         style="fill:none;stroke:#000000;stroke-width:0.35925293;stroke-linecap:butt;stroke-linejoin:miter;stroke-miterlimit:4;stroke-dasharray:1.43701161, 1.43701161;stroke-dashoffset:0;stroke-opacity:1"
         transform="matrix(0.85856344,0,0,0.85273343,66.773738,96.55031)" />
      <path
         inkscape:original-d="m 64.144686,104.56593 c 19.689119,6.4142 39.377974,12.82867 59.066564,19.24341"
         inkscape:path-effect="#path-effect2330"
         inkscape:connector-curvature="0"
         id="path2328"
         d="m 64.144686,104.56593 59.066564,19.24341"
         style="fill:none;stroke:#000000;stroke-width:0.43055335;stroke-linecap:butt;stroke-linejoin:miter;stroke-miterlimit:4;stroke-dasharray:1.72221328, 1.72221328;stroke-dashoffset:0;stroke-opacity:1"
         transform="matrix(0.54375548,-0.47184383,0.4651217,0.53379877,38.394373,159.9508)" />
      <path
         transform="matrix(0.54375548,-0.47184383,0.4651217,0.53379877,89.043505,176.57578)"
         style="fill:none;stroke:#000000;stroke-width:0.43055335;stroke-linecap:butt;stroke-linejoin:miter;stroke-miterlimit:4;stroke-dasharray:1.72221328, 1.72221328;stroke-dashoffset:0;stroke-opacity:1"
         d="m 64.144686,104.56593 59.066564,19.24341"
         id="path2592"
         inkscape:connector-curvature="0"
         inkscape:path-effect="#path-effect2594"
         inkscape:original-d="m 64.144686,104.56593 c 19.689119,6.4142 39.377974,12.82867 59.066564,19.24341" />
      <path
         transform="matrix(0.85856344,0,0,0.85273343,107.90529,78.736746)"
         style="fill:none;stroke:#000000;stroke-width:0.35925293;stroke-linecap:butt;stroke-linejoin:miter;stroke-miterlimit:4;stroke-dasharray:1.43701161, 1.43701161;stroke-dashoffset:0;stroke-opacity:1"
         d="m 64.144686,104.56593 59.066564,19.24341"
         id="path2596"
         inkscape:connector-curvature="0"
         inkscape:path-effect="#path-effect2598"
         inkscape:original-d="m 64.144686,104.56593 c 19.689119,6.4142 39.377974,12.82867 59.066564,19.24341" />
    </g>
    <path
       inkscape:original-d="m 63.499999,40.354165 c 2.65e-4,49.262632 2.65e-4,98.525525 0,147.788685"
       inkscape:path-effect="#path-effect823"
       inkscape:connector-curvature="0"
       id="path821"
       d="M 63.499999,40.354165 V 188.14285"
       style="fill:none;stroke:#000000;stroke-width:7.6845;stroke-linecap:butt;stroke-linejoin:miter;stroke-miterlimit:4;stroke-dasharray:7.6845, 7.6845;stroke-dashoffset:0;stroke-opacity:1"
       transform="matrix(0.13013203,0,0,0.09878683,55.236615,158.22706)" />
    <path
       transform="matrix(0.13013203,0,0,0.07516972,55.236615,57.432373)"
       style="fill:none;stroke:#000000;stroke-width:7.6845;stroke-linecap:butt;stroke-linejoin:miter;stroke-miterlimit:4;stroke-dasharray:7.6845, 7.6845;stroke-dashoffset:0;stroke-opacity:1"
       d="M 63.499999,40.354165 V 188.14285"
       id="path825"
       inkscape:connector-curvature="0"
       inkscape:path-effect="#path-effect827"
       inkscape:original-d="m 63.499999,40.354165 c 2.65e-4,49.262632 2.65e-4,98.525525 0,147.788685" />
    <path
       style="fill:none;stroke:#000000;stroke-width:0.26458332;stroke-linecap:butt;stroke-linejoin:miter;stroke-opacity:1;stroke-miterlimit:4;stroke-dasharray:1.05833327,1.05833327;stroke-dashoffset:0"
       d="m 64.144686,104.56593 59.066564,19.24341"
       id="path950"
       inkscape:connector-curvature="0"
       inkscape:path-effect="#path-effect952"
       inkscape:original-d="m 64.144686,104.56593 c 19.689119,6.4142 39.377974,12.82867 59.066564,19.24341" />
    <path
       style="opacity:0.3;fill:#ff0000;fill-opacity:1;fill-rule:evenodd;stroke:none;stroke-width:0.5;stroke-linecap:butt;stroke-linejoin:round;stroke-miterlimit:4;stroke-dasharray:none;stroke-dashoffset:0;stroke-opacity:1"
       d="m 163.82984,106.54785 c -13.49173,5.62606 -26.89646,11.45872 -40.34204,17.19399 16.75531,5.26959 33.37281,10.995 50.19969,16.02521 13.30504,-5.56493 26.55276,-11.2971 39.68587,-17.24828 -16.42755,-5.46912 -32.90277,-10.80797 -49.4151,-16.01581 z"
       id="path2606"
       inkscape:connector-curvature="0" />
    <path
       inkscape:original-d="m 64.144686,104.56593 c 19.689119,6.4142 39.377974,12.82867 59.066564,19.24341"
       inkscape:path-effect="#path-effect956"
       inkscape:connector-curvature="0"
       id="path954"
       d="m 64.144686,104.56593 59.066564,19.24341"
       style="fill:none;stroke:#000000;stroke-width:1.11012506;stroke-linecap:butt;stroke-linejoin:miter;stroke-miterlimit:4;stroke-dasharray:none;stroke-dashoffset:0;stroke-opacity:1;marker-end:url(#Arrow2Lend)"
       transform="matrix(0.45411154,0,0,0.44671823,94.163157,77.11289)" />
    <path
       transform="matrix(-0.13555316,-0.43340816,0.42635192,-0.13334624,87.405129,165.5687)"
       style="fill:none;stroke:#000000;stroke-width:1.11012506;stroke-linecap:butt;stroke-linejoin:miter;stroke-miterlimit:4;stroke-dasharray:none;stroke-dashoffset:0;stroke-opacity:1;marker-end:url(#marker1276)"
       d="m 64.144686,104.56593 59.066564,19.24341"
       id="path1270"
       inkscape:connector-curvature="0"
       inkscape:path-effect="#path-effect1272"
       inkscape:original-d="m 64.144686,104.56593 c 19.689119,6.4142 39.377974,12.82867 59.066564,19.24341" />
    <path
       inkscape:original-d="m 64.144686,104.56593 c 19.689119,6.4142 39.377974,12.82867 59.066564,19.24341"
       inkscape:path-effect="#path-effect1868"
       inkscape:connector-curvature="0"
       id="path1866"
       d="m 64.144686,104.56593 59.066564,19.24341"
       style="fill:none;stroke:#000000;stroke-width:1.45694816;stroke-linecap:butt;stroke-linejoin:miter;stroke-miterlimit:4;stroke-dasharray:none;stroke-dashoffset:0;stroke-opacity:1;marker-end:url(#marker1872)"
       transform="matrix(0.26267143,-0.22568803,0.22468589,0.25532175,83.015917,111.56546)" />
    <g
       id="g902"
       transform="translate(49.076191,10.941933)">
      <g
         word-spacing="normal"
         letter-spacing="normal"
         font-size-adjust="none"
         font-stretch="normal"
         font-weight="normal"
         font-variant="normal"
         font-style="normal"
         stroke-miterlimit="10.433"
         xml:space="preserve"
         transform="matrix(0.3,0,0,-0.3,-52.5,222.75)"
         id="g900"
         style="font-style:normal;font-variant:normal;font-weight:normal;font-stretch:normal;letter-spacing:normal;word-spacing:normal;text-anchor:start;fill:none;fill-opacity:1;fill-rule:evenodd;stroke:#000000;stroke-linecap:butt;stroke-linejoin:miter;stroke-miterlimit:10.43299961;stroke-dasharray:none;stroke-dashoffset:0;stroke-opacity:1"><path
           id="path894"
           d="m 480.35,435.84 -0.07,-0.06 -0.07,-0.07 -0.07,-0.07 -0.09,-0.07 -0.08,-0.08 -0.09,-0.08 -0.09,-0.09 -0.09,-0.08 -0.1,-0.09 -0.1,-0.1 -0.19,-0.19 -0.2,-0.19 -0.19,-0.21 -0.09,-0.1 -0.09,-0.1 -0.09,-0.1 -0.08,-0.11 -0.08,-0.1 -0.08,-0.1 -0.07,-0.1 -0.06,-0.1 -0.06,-0.1 -0.05,-0.1 -0.05,-0.1 -0.04,-0.09 -0.03,-0.09 -0.02,-0.1 -0.02,-0.08 v -0.09 c 0,-0.5 0.5,-1 1,-1 0.45,0 0.7,0.36 0.95,0.66 0.59,0.75 1.74,2.14 3.94,3.23 0.34,0.21 0.84,0.46 0.84,1.05 0,0.5 -0.34,0.75 -0.7,1 -1.09,0.75 -1.64,1.64 -2.05,2.83 -0.09,0.45 -0.29,1.11 -0.98,1.11 -0.71,0 -1,-0.66 -1,-1.05 0,-0.25 0.39,-1.84 1.19,-2.89 h -16.79 c -0.84,0 -1.75,0 -1.75,-1 0,-1 0.91,-1 1.75,-1 z"
           inkscape:connector-curvature="0"
           style="fill:#000000;stroke-width:0" /><path
           id="path896"
           d="m 464.83,417.71 0.14,0.01 h 0.16 0.16 0.18 l 0.19,0.01 h 0.2 l 0.21,0.01 0.21,0.01 0.23,0.01 0.23,0.01 0.24,0.01 0.24,0.02 0.25,0.02 0.26,0.02 0.52,0.05 0.54,0.07 0.54,0.07 0.55,0.1 0.54,0.11 0.53,0.12 0.26,0.07 0.26,0.08 0.26,0.08 0.24,0.08 0.25,0.09 0.23,0.1 c 3.49,1.5 3.74,4.43 3.74,5.12 0,2.2 -1.89,4.23 -5.33,4.23 v -1.09 c 2.34,0 3.69,-1.44 3.69,-3.14 0,-5.17 -7.97,-5.17 -10.02,-5.17 h -2.05 c 1.96,7.56 7.08,8.31 8.38,8.31 v 1.09 c -5.53,0 -13.05,-4.82 -13.05,-13.54 0,-5.08 2.94,-9.02 7.81,-9.02 7.13,0 11.32,5.28 11.32,5.88 0,0.29 -0.3,0.65 -0.6,0.65 -0.25,0 -0.34,-0.11 -0.65,-0.5 -3.94,-4.93 -9.36,-4.93 -9.96,-4.93 -3.89,0 -4.34,4.18 -4.34,5.78 0,0.59 0.05,2.14 0.8,5.18 z"
           inkscape:connector-curvature="0"
           style="fill:#000000;stroke-width:0" /><path
           id="path898"
           d="m 496.49,415.73 v 0.34 l -0.01,0.35 -0.03,0.34 -0.03,0.34 -0.03,0.35 -0.05,0.34 -0.06,0.33 -0.06,0.33 -0.07,0.33 -0.09,0.32 -0.09,0.32 -0.1,0.31 -0.11,0.3 -0.13,0.29 -0.13,0.29 -0.14,0.27 -0.15,0.27 -0.16,0.25 -0.17,0.24 -0.18,0.22 -0.19,0.22 -0.2,0.2 -0.22,0.18 -0.22,0.17 -0.24,0.15 -0.24,0.13 -0.26,0.11 -0.27,0.1 -0.27,0.07 -0.29,0.06 -0.31,0.03 -0.31,0.01 -0.03,-0.97 c 2.22,0 2.22,-3.87 2.22,-4.53 0,-1.36 -0.28,-3.39 -1,-6.31 h -8.07 c 1.79,7.53 4.79,10.84 6.85,10.84 l 0.03,0.97 c -5.23,0 -10.81,-9.34 -10.81,-17.31 0,-4.16 1.61,-7.56 4.81,-7.56 l 0.03,0.97 c -1.91,0 -2.22,2.65 -2.22,4.53 0,2.29 0.66,5.01 1,6.31 h 8.06 c -0.98,-3.8 -1.78,-5.69 -2.82,-7.39 -1.08,-1.81 -2.47,-3.45 -4.02,-3.45 l -0.03,-0.97 c 5.3,0 10.81,9.51 10.81,17.31 z"
           inkscape:connector-curvature="0"
           style="fill:#000000;stroke-width:0" /></g>
    </g>
    <g
       id="g941"
       transform="translate(23.641989,-2.7648649)">
      <g
         word-spacing="normal"
         letter-spacing="normal"
         font-size-adjust="none"
         font-stretch="normal"
         font-weight="normal"
         font-variant="normal"
         font-style="normal"
         stroke-miterlimit="10.433"
         xml:space="preserve"
         transform="matrix(0.3,0,0,-0.3,-52.5,222.75)"
         id="g939"
         style="font-style:normal;font-variant:normal;font-weight:normal;font-stretch:normal;letter-spacing:normal;word-spacing:normal;text-anchor:start;fill:none;fill-opacity:1;fill-rule:evenodd;stroke:#000000;stroke-linecap:butt;stroke-linejoin:miter;stroke-miterlimit:10.43299961;stroke-dasharray:none;stroke-dashoffset:0;stroke-opacity:1"><path
           id="path933"
           d="m 480.35,435.84 -0.07,-0.06 -0.07,-0.07 -0.07,-0.07 -0.09,-0.07 -0.08,-0.08 -0.09,-0.08 -0.09,-0.09 -0.09,-0.08 -0.1,-0.09 -0.1,-0.1 -0.19,-0.19 -0.2,-0.19 -0.19,-0.21 -0.09,-0.1 -0.09,-0.1 -0.09,-0.1 -0.08,-0.11 -0.08,-0.1 -0.08,-0.1 -0.07,-0.1 -0.06,-0.1 -0.06,-0.1 -0.05,-0.1 -0.05,-0.1 -0.04,-0.09 -0.03,-0.09 -0.02,-0.1 -0.02,-0.08 v -0.09 c 0,-0.5 0.5,-1 1,-1 0.45,0 0.7,0.36 0.95,0.66 0.59,0.75 1.74,2.14 3.94,3.23 0.34,0.21 0.84,0.46 0.84,1.05 0,0.5 -0.34,0.75 -0.7,1 -1.09,0.75 -1.64,1.64 -2.05,2.83 -0.09,0.45 -0.29,1.11 -0.98,1.11 -0.71,0 -1,-0.66 -1,-1.05 0,-0.25 0.39,-1.84 1.19,-2.89 h -16.79 c -0.84,0 -1.75,0 -1.75,-1 0,-1 0.91,-1 1.75,-1 z"
           inkscape:connector-curvature="0"
           style="fill:#000000;stroke-width:0" /><path
           id="path935"
           d="m 464.83,417.71 0.14,0.01 h 0.16 0.16 0.18 l 0.19,0.01 h 0.2 l 0.21,0.01 0.21,0.01 0.23,0.01 0.23,0.01 0.24,0.01 0.24,0.02 0.25,0.02 0.26,0.02 0.52,0.05 0.54,0.07 0.54,0.07 0.55,0.1 0.54,0.11 0.53,0.12 0.26,0.07 0.26,0.08 0.26,0.08 0.24,0.08 0.25,0.09 0.23,0.1 c 3.49,1.5 3.74,4.43 3.74,5.12 0,2.2 -1.89,4.23 -5.33,4.23 v -1.09 c 2.34,0 3.69,-1.44 3.69,-3.14 0,-5.17 -7.97,-5.17 -10.02,-5.17 h -2.05 c 1.96,7.56 7.08,8.31 8.38,8.31 v 1.09 c -5.53,0 -13.05,-4.82 -13.05,-13.54 0,-5.08 2.94,-9.02 7.81,-9.02 7.13,0 11.32,5.28 11.32,5.88 0,0.29 -0.3,0.65 -0.6,0.65 -0.25,0 -0.34,-0.11 -0.65,-0.5 -3.94,-4.93 -9.36,-4.93 -9.96,-4.93 -3.89,0 -4.34,4.18 -4.34,5.78 0,0.59 0.05,2.14 0.8,5.18 z"
           inkscape:connector-curvature="0"
           style="fill:#000000;stroke-width:0" /><path
           id="path937"
           d="m 484.54,401.82 0.17,0.17 0.16,0.17 0.17,0.16 0.17,0.17 0.18,0.17 0.09,0.09 0.1,0.1 0.1,0.09 0.11,0.1 0.11,0.1 0.11,0.11 0.13,0.11 0.13,0.11 0.13,0.12 0.15,0.13 0.15,0.13 0.16,0.14 0.17,0.14 0.17,0.15 0.19,0.16 0.2,0.16 0.21,0.17 0.22,0.18 0.23,0.19 0.25,0.2 0.25,0.21 0.27,0.21 c 0.74,0.6 3.35,2.69 4.36,3.66 2.13,2.09 3.46,3.87 3.46,4.29 0,0.41 -0.46,0.41 -0.6,0.41 -0.31,0 -0.42,-0.06 -0.59,-0.34 -1.08,-1.6 -1.81,-2.13 -2.64,-2.13 -0.42,0 -0.96,0.03 -2,1.05 -1.17,1.19 -1.94,1.42 -2.75,1.42 -2.78,0 -4.67,-3.03 -4.67,-4.06 0,-0.33 0.36,-0.42 0.59,-0.42 0.42,0 0.5,0.09 0.62,0.48 0.54,1.22 2.49,1.3 3.05,1.3 0.8,0 1.7,-0.22 2.19,-0.33 1.92,-0.41 2.16,-0.41 3.03,-0.41 -0.91,-0.95 -1.53,-1.57 -4.84,-4.22 -2.72,-2.15 -3.66,-3.03 -4.32,-3.73 -2.09,-2.05 -3.11,-3.58 -3.11,-3.91 0,-0.4 0.46,-0.4 0.6,-0.4 0.34,0 0.42,0.06 0.59,0.34 0.94,1.33 2.02,2.13 3.21,2.13 0.42,0 0.93,-0.03 1.87,-0.91 1.09,-1.05 1.78,-1.56 2.91,-1.56 3.72,0 6.06,4.22 6.06,5.39 0,0.42 -0.39,0.45 -0.59,0.45 -0.43,0 -0.5,-0.17 -0.63,-0.55 -0.67,-1.75 -2.72,-2.57 -4.44,-2.57 -0.79,0 -1.67,0.17 -2.53,0.37 -1.61,0.35 -1.89,0.35 -2.51,0.35 -0.08,0 -0.6,0 -0.8,-0.04 z"
           inkscape:connector-curvature="0"
           style="fill:#000000;stroke-width:0" /></g>
    </g>
    <g
       id="g868"
       transform="translate(48.513164,42.412966)">
      <g
         word-spacing="normal"
         letter-spacing="normal"
         font-size-adjust="none"
         font-stretch="normal"
         font-weight="normal"
         font-variant="normal"
         font-style="normal"
         stroke-miterlimit="10.433"
         xml:space="preserve"
         transform="matrix(0.3,0,0,-0.3,-52.5,222.75)"
         id="g866"
         style="font-style:normal;font-variant:normal;font-weight:normal;font-stretch:normal;letter-spacing:normal;word-spacing:normal;text-anchor:start;fill:none;fill-opacity:1;fill-rule:evenodd;stroke:#000000;stroke-linecap:butt;stroke-linejoin:miter;stroke-miterlimit:10.43299961;stroke-dasharray:none;stroke-dashoffset:0;stroke-opacity:1"><path
           id="path860"
           d="m 480.35,435.84 -0.07,-0.06 -0.07,-0.07 -0.07,-0.07 -0.09,-0.07 -0.08,-0.08 -0.09,-0.08 -0.09,-0.09 -0.09,-0.08 -0.1,-0.09 -0.1,-0.1 -0.19,-0.19 -0.2,-0.19 -0.19,-0.21 -0.09,-0.1 -0.09,-0.1 -0.09,-0.1 -0.08,-0.11 -0.08,-0.1 -0.08,-0.1 -0.07,-0.1 -0.06,-0.1 -0.06,-0.1 -0.05,-0.1 -0.05,-0.1 -0.04,-0.09 -0.03,-0.09 -0.02,-0.1 -0.02,-0.08 v -0.09 c 0,-0.5 0.5,-1 1,-1 0.45,0 0.7,0.36 0.95,0.66 0.59,0.75 1.74,2.14 3.94,3.23 0.34,0.21 0.84,0.46 0.84,1.05 0,0.5 -0.34,0.75 -0.7,1 -1.09,0.75 -1.64,1.64 -2.05,2.83 -0.09,0.45 -0.29,1.11 -0.98,1.11 -0.71,0 -1,-0.66 -1,-1.05 0,-0.25 0.39,-1.84 1.19,-2.89 h -16.79 c -0.84,0 -1.75,0 -1.75,-1 0,-1 0.91,-1 1.75,-1 z"
           inkscape:connector-curvature="0"
           style="fill:#000000;stroke-width:0" /><path
           id="path862"
           d="m 464.83,417.71 0.14,0.01 h 0.16 0.16 0.18 l 0.19,0.01 h 0.2 l 0.21,0.01 0.21,0.01 0.23,0.01 0.23,0.01 0.24,0.01 0.24,0.02 0.25,0.02 0.26,0.02 0.52,0.05 0.54,0.07 0.54,0.07 0.55,0.1 0.54,0.11 0.53,0.12 0.26,0.07 0.26,0.08 0.26,0.08 0.24,0.08 0.25,0.09 0.23,0.1 c 3.49,1.5 3.74,4.43 3.74,5.12 0,2.2 -1.89,4.23 -5.33,4.23 v -1.09 c 2.34,0 3.69,-1.44 3.69,-3.14 0,-5.17 -7.97,-5.17 -10.02,-5.17 h -2.05 c 1.96,7.56 7.08,8.31 8.38,8.31 v 1.09 c -5.53,0 -13.05,-4.82 -13.05,-13.54 0,-5.08 2.94,-9.02 7.81,-9.02 7.13,0 11.32,5.28 11.32,5.88 0,0.29 -0.3,0.65 -0.6,0.65 -0.25,0 -0.34,-0.11 -0.65,-0.5 -3.94,-4.93 -9.36,-4.93 -9.96,-4.93 -3.89,0 -4.34,4.18 -4.34,5.78 0,0.59 0.05,2.14 0.8,5.18 z"
           inkscape:connector-curvature="0"
           style="fill:#000000;stroke-width:0" /><path
           id="path864"
           d="m 486.87,405.79 v 0.02 0.01 l 0.01,0.02 v 0.03 l 0.01,0.03 0.01,0.03 v 0.03 l 0.01,0.04 0.01,0.04 0.01,0.05 0.01,0.04 0.02,0.06 0.01,0.05 0.01,0.05 0.03,0.12 0.03,0.13 0.04,0.13 0.03,0.15 0.04,0.14 0.04,0.15 0.04,0.15 0.08,0.32 0.08,0.31 0.04,0.15 0.04,0.15 0.04,0.14 0.03,0.14 0.04,0.14 0.03,0.12 0.03,0.12 0.02,0.05 0.01,0.05 0.01,0.05 0.01,0.05 0.02,0.04 0.01,0.04 0.01,0.04 0.01,0.03 0.01,0.03 v 0.03 l 0.01,0.02 0.01,0.02 v 0.01 0.01 c 0.08,0.29 1.08,2.02 2.21,2.86 0.37,0.27 1.31,0.97 2.81,0.97 0.34,0 1.22,-0.03 1.92,-0.48 -1.12,-0.31 -1.53,-1.3 -1.53,-1.92 0,-0.77 0.59,-1.29 1.39,-1.29 0.8,0 1.95,0.66 1.95,2.13 0,1.81 -1.92,2.53 -3.7,2.53 -1.81,0 -3.37,-0.72 -4.91,-2.47 -0.62,2.13 -2.75,2.47 -3.59,2.47 -1.28,0 -2.16,-0.8 -2.72,-1.76 -0.8,-1.36 -1.28,-3.4 -1.28,-3.57 0,-0.45 0.48,-0.45 0.59,-0.45 0.49,0 0.52,0.11 0.77,1.05 0.52,2.12 1.19,3.76 2.55,3.76 0.9,0 1.14,-0.76 1.14,-1.7 0,-0.67 -0.32,-1.95 -0.57,-2.89 -0.23,-0.95 -0.57,-2.38 -0.76,-3.14 l -1.11,-4.47 c -0.14,-0.44 -0.34,-1.31 -0.34,-1.42 0,-0.77 0.62,-1.11 1.18,-1.11 0.52,0 1.22,0.31 1.49,1 0.08,0.22 0.45,1.75 0.67,2.62 z"
           inkscape:connector-curvature="0"
           style="fill:#000000;stroke-width:0" /></g>
    </g>
    <g
       id="g3930"
       transform="translate(-28.109834,-43.94569)">
      <g
         word-spacing="normal"
         letter-spacing="normal"
         font-size-adjust="none"
         font-stretch="normal"
         font-weight="normal"
         font-variant="normal"
         font-style="normal"
         stroke-miterlimit="10.433"
         xml:space="preserve"
         transform="matrix(0.3,0,0,-0.3,-52.5,222.75)"
         id="g3928"
         style="font-style:normal;font-variant:normal;font-weight:normal;font-stretch:normal;letter-spacing:normal;word-spacing:normal;text-anchor:start;fill:none;fill-opacity:1;fill-rule:evenodd;stroke:#000000;stroke-linecap:butt;stroke-linejoin:miter;stroke-miterlimit:10.433;stroke-dasharray:none;stroke-dashoffset:0;stroke-opacity:1"><path
           id="path3926"
           d="m 480.83,419.7 -0.24,0.31 -0.24,0.29 -0.22,0.29 -0.21,0.26 -0.21,0.26 -0.19,0.24 -0.18,0.23 -0.18,0.22 -0.17,0.2 -0.16,0.2 -0.15,0.19 -0.15,0.17 -0.15,0.17 -0.13,0.16 -0.14,0.16 -0.13,0.15 -0.12,0.14 -0.12,0.13 -0.13,0.13 -0.11,0.13 -0.24,0.23 -0.23,0.23 -0.24,0.22 -0.25,0.22 -0.26,0.22 -0.14,0.11 -0.14,0.11 c -2.79,2.25 -5.59,3.14 -8.12,3.14 -5.83,0 -9.63,-5.46 -9.63,-11.29 h 1.11 c 0,4.87 3.33,8.9 7.72,8.9 2.89,0 5.13,-2.09 6.17,-3.14 1.25,-1.34 2.39,-2.89 5.44,-6.81 v 0 c -2.05,-3.59 -5.73,-8.62 -11.36,-8.62 -5.28,0 -7.97,5.18 -7.97,9.67 h -1.11 c 0,-5.74 3.69,-11.27 9.43,-11.27 5.73,0 9.86,4.53 12.31,8.52 2.69,-3.39 3.28,-4.13 4.83,-5.38 2.78,-2.25 5.57,-3.14 8.12,-3.14 5.83,0 9.61,5.49 9.61,11.31 h -1.09 c 0,-4.89 -3.35,-8.92 -7.72,-8.92 -2.89,0 -5.14,2.1 -6.19,3.14 -1.23,1.35 -2.39,2.89 -5.42,6.83 v 0 c 2.03,3.58 5.72,8.61 11.36,8.61 5.28,0 7.97,-5.17 7.97,-9.66 h 1.09 c 0,5.72 -3.69,11.25 -9.42,11.25 -5.72,0 -9.86,-4.53 -12.3,-8.51 z"
           inkscape:connector-curvature="0"
           style="fill:#000000;stroke-width:0" /></g>
    </g>
    <g
       inkscape:label=""
       transform="matrix(4.1745257,0,0,4.1745257,111.02405,126.2259)"
       id="g1">
      <g
         id="surface1"
         transform="matrix(0.352778,0,0,0.352778,-0.835378,-0.701146)">
        <g
           style="fill:#000000;fill-opacity:1"
           id="g3">
          <g
             id="use2"
             transform="translate(1.993,8.8000002)">
            <path
               style="stroke:none"
               d="M 2.40625,-6.59375 C 2.3125,-6.8125 2.28125,-6.8125 2.046875,-6.8125 H 0.375 V -6.5 h 0.234375 c 0.765625,0 0.78125,0.109375 0.78125,0.46875 v 4.984375 c 0,0.265625 0,0.734375 -1.015625,0.734375 V 0 c 0.34375,-0.015625 0.828125,-0.03125 1.15625,-0.03125 0.328125,0 0.828125,0.015625 1.171875,0.03125 v -0.3125 c -1.03125,0 -1.03125,-0.46875 -1.03125,-0.734375 v -5.375 H 1.6875 L 4.09375,-0.21875 C 4.140625,-0.09375 4.1875,0 4.28125,0 4.390625,0 4.421875,-0.078125 4.46875,-0.1875 L 6.921875,-6.5 v 5.71875 c 0,0.359375 -0.015625,0.46875 -0.78125,0.46875 H 5.90625 V 0 c 0.359375,-0.03125 1.046875,-0.03125 1.4375,-0.03125 0.375,0 1.046875,0 1.421875,0.03125 v -0.3125 h -0.25 c -0.765625,0 -0.78125,-0.109375 -0.78125,-0.46875 v -5.25 C 7.734375,-6.390625 7.75,-6.5 8.515625,-6.5 h 0.25 v -0.3125 h -1.6875 C 6.8125,-6.8125 6.8125,-6.796875 6.75,-6.625 L 4.5625,-1 Z m 0,0"
               id="path3" />
          </g>
        </g>
      </g>
    </g>
    <path
       style="fill:#9a0000;fill-opacity:1;stroke:#a80000;stroke-width:0.3;stroke-linejoin:bevel;stroke-dasharray:none;stroke-opacity:1;paint-order:stroke fill markers;marker-mid:"
       d="m 63.247138,147.89571 c 0,-13.80367 -0.01524,-14.60453 -0.277806,-14.6036 -0.152792,4.3e-4 -0.48488,0.10896 -0.737973,0.24095 -0.253092,0.13199 -0.474964,0.22085 -0.493046,0.19746 -0.01809,-0.0234 0.31056,-0.97119 0.730319,-2.10622 l 0.7632,-2.06369 0.0077,-28.85199 c 0.0076,-28.743605 0.0088,-28.851987 0.325144,-28.851987 0.316322,0 0.317489,0.10583 0.317489,28.752587 v 28.75258 l 0.700945,1.92498 c 0.385519,1.05873 0.753109,2.05721 0.816867,2.21882 0.110251,0.27947 0.09187,0.28141 -0.375568,0.0397 -0.270323,-0.13979 -0.637913,-0.25416 -0.816869,-0.25416 h -0.325375 v 14.60458 c 0,14.49875 -0.0023,14.60458 -0.317489,14.60458 -0.315191,0 -0.317491,-0.10583 -0.317491,-14.60458 z"
       id="path6" />
  </g>
</svg>
