<?xml version="1.0" encoding="UTF-8" standalone="no"?>
<!-- Created with Inkscape (http://www.inkscape.org/) -->

<svg
   xmlns:dc="http://purl.org/dc/elements/1.1/"
   xmlns:cc="http://creativecommons.org/ns#"
   xmlns:rdf="http://www.w3.org/1999/02/22-rdf-syntax-ns#"
   xmlns:svg="http://www.w3.org/2000/svg"
   xmlns="http://www.w3.org/2000/svg"
   xmlns:sodipodi="http://sodipodi.sourceforge.net/DTD/sodipodi-0.dtd"
   xmlns:inkscape="http://www.inkscape.org/namespaces/inkscape"
   width="210mm"
   height="297mm"
   viewBox="0 0 210 297"
   version="1.1"
   id="svg8"
   inkscape:version="0.92.5 (2060ec1f9f, 2020-04-08)"
   sodipodi:docname="coanda.svg">
  <defs
     id="defs2">
    <marker
       inkscape:isstock="true"
       style="overflow:visible;"
       id="marker10470"
       refX="0.0"
       refY="0.0"
       orient="auto"
       inkscape:stockid="Arrow2Lend">
      <path
         transform="scale(1.1) rotate(180) translate(1,0)"
         d="M 8.7185878,4.0337352 L -2.2072895,0.016013256 L 8.7185884,-4.0017078 C 6.9730900,-1.6296469 6.9831476,1.6157441 8.7185878,4.0337352 z "
         style="fill-rule:evenodd;stroke-width:0.625;stroke-linejoin:round;stroke:#ff0000;stroke-opacity:1;fill:#ff0000;fill-opacity:1"
         id="path10468" />
    </marker>
    <inkscape:path-effect
       effect="spiro"
       id="path-effect10466"
       is_visible="true" />
    <marker
       inkscape:isstock="true"
       style="overflow:visible;"
       id="marker9724"
       refX="0.0"
       refY="0.0"
       orient="auto"
       inkscape:stockid="Arrow2Lend">
      <path
         transform="scale(1.1) rotate(180) translate(1,0)"
         d="M 8.7185878,4.0337352 L -2.2072895,0.016013256 L 8.7185884,-4.0017078 C 6.9730900,-1.6296469 6.9831476,1.6157441 8.7185878,4.0337352 z "
         style="fill-rule:evenodd;stroke-width:0.625;stroke-linejoin:round;stroke:#008000;stroke-opacity:1;fill:#008000;fill-opacity:1"
         id="path9722" />
    </marker>
    <inkscape:path-effect
       effect="spiro"
       id="path-effect9720"
       is_visible="true" />
    <marker
       inkscape:stockid="Arrow2Lend"
       orient="auto"
       refY="0.0"
       refX="0.0"
       id="marker9350"
       style="overflow:visible;"
       inkscape:isstock="true">
      <path
         id="path9348"
         style="fill-rule:evenodd;stroke-width:0.625;stroke-linejoin:round;stroke:#ff6600;stroke-opacity:1;fill:#ff6600;fill-opacity:1"
         d="M 8.7185878,4.0337352 L -2.2072895,0.016013256 L 8.7185884,-4.0017078 C 6.9730900,-1.6296469 6.9831476,1.6157441 8.7185878,4.0337352 z "
         transform="scale(1.1) rotate(180) translate(1,0)" />
    </marker>
    <inkscape:path-effect
       is_visible="true"
       id="path-effect9346"
       effect="spiro" />
    <inkscape:path-effect
       effect="spiro"
       id="path-effect8870"
       is_visible="true" />
    <marker
       inkscape:isstock="true"
       style="overflow:visible;"
       id="marker7168"
       refX="0.0"
       refY="0.0"
       orient="auto"
       inkscape:stockid="Arrow2Lend">
      <path
         transform="scale(1.1) rotate(180) translate(1,0)"
         d="M 8.7185878,4.0337352 L -2.2072895,0.016013256 L 8.7185884,-4.0017078 C 6.9730900,-1.6296469 6.9831476,1.6157441 8.7185878,4.0337352 z "
         style="fill-rule:evenodd;stroke-width:0.625;stroke-linejoin:round;stroke:#ff6600;stroke-opacity:1;fill:#ff6600;fill-opacity:1"
         id="path7166" />
    </marker>
    <inkscape:path-effect
       effect="spiro"
       id="path-effect7164"
       is_visible="true" />
    <marker
       inkscape:stockid="Arrow2Lend"
       orient="auto"
       refY="0.0"
       refX="0.0"
       id="marker6422"
       style="overflow:visible;"
       inkscape:isstock="true"
       inkscape:collect="always">
      <path
         id="path6420"
         style="fill-rule:evenodd;stroke-width:0.625;stroke-linejoin:round;stroke:#008000;stroke-opacity:1;fill:#008000;fill-opacity:1"
         d="M 8.7185878,4.0337352 L -2.2072895,0.016013256 L 8.7185884,-4.0017078 C 6.9730900,-1.6296469 6.9831476,1.6157441 8.7185878,4.0337352 z "
         transform="scale(1.1) rotate(180) translate(1,0)" />
    </marker>
    <inkscape:path-effect
       is_visible="true"
       id="path-effect6418"
       effect="spiro" />
    <inkscape:path-effect
       effect="spiro"
       id="path-effect5978"
       is_visible="true" />
    <marker
       inkscape:stockid="Arrow2Lend"
       orient="auto"
       refY="0.0"
       refX="0.0"
       id="marker5116"
       style="overflow:visible;"
       inkscape:isstock="true"
       inkscape:collect="always">
      <path
         id="path5114"
         style="fill-rule:evenodd;stroke-width:0.625;stroke-linejoin:round;stroke:#ff0000;stroke-opacity:1;fill:#ff0000;fill-opacity:1"
         d="M 8.7185878,4.0337352 L -2.2072895,0.016013256 L 8.7185884,-4.0017078 C 6.9730900,-1.6296469 6.9831476,1.6157441 8.7185878,4.0337352 z "
         transform="scale(1.1) rotate(180) translate(1,0)" />
    </marker>
    <inkscape:path-effect
       is_visible="true"
       id="path-effect5102"
       effect="spiro" />
    <marker
       inkscape:stockid="Arrow2Lend"
       orient="auto"
       refY="0.0"
       refX="0.0"
       id="marker4610"
       style="overflow:visible;"
       inkscape:isstock="true"
       inkscape:collect="always">
      <path
         id="path4608"
         style="fill-rule:evenodd;stroke-width:0.625;stroke-linejoin:round;stroke:#008000;stroke-opacity:1;fill:#008000;fill-opacity:1"
         d="M 8.7185878,4.0337352 L -2.2072895,0.016013256 L 8.7185884,-4.0017078 C 6.9730900,-1.6296469 6.9831476,1.6157441 8.7185878,4.0337352 z "
         transform="scale(1.1) rotate(180) translate(1,0)" />
    </marker>
    <inkscape:path-effect
       is_visible="true"
       id="path-effect4606"
       effect="spiro" />
    <marker
       inkscape:isstock="true"
       style="overflow:visible;"
       id="marker3745"
       refX="0.0"
       refY="0.0"
       orient="auto"
       inkscape:stockid="Arrow2Lend"
       inkscape:collect="always">
      <path
         transform="scale(1.1) rotate(180) translate(1,0)"
         d="M 8.7185878,4.0337352 L -2.2072895,0.016013256 L 8.7185884,-4.0017078 C 6.9730900,-1.6296469 6.9831476,1.6157441 8.7185878,4.0337352 z "
         style="fill-rule:evenodd;stroke-width:0.625;stroke-linejoin:round;stroke:#ff0000;stroke-opacity:1;fill:#ff0000;fill-opacity:1"
         id="path3743" />
    </marker>
    <inkscape:path-effect
       effect="spiro"
       id="path-effect3735"
       is_visible="true" />
    <marker
       inkscape:stockid="Arrow2Lend"
       orient="auto"
       refY="0.0"
       refX="0.0"
       id="marker2741"
       style="overflow:visible;"
       inkscape:isstock="true"
       inkscape:collect="always">
      <path
         id="path2739"
         style="fill-rule:evenodd;stroke-width:0.625;stroke-linejoin:round;stroke:#0000ff;stroke-opacity:1;fill:#0000ff;fill-opacity:1"
         d="M 8.7185878,4.0337352 L -2.2072895,0.016013256 L 8.7185884,-4.0017078 C 6.9730900,-1.6296469 6.9831476,1.6157441 8.7185878,4.0337352 z "
         transform="scale(1.1) rotate(180) translate(1,0)" />
    </marker>
    <inkscape:path-effect
       effect="spiro"
       id="path-effect2737"
       is_visible="true" />
    <marker
       inkscape:isstock="true"
       style="overflow:visible;"
       id="marker2139"
       refX="0.0"
       refY="0.0"
       orient="auto"
       inkscape:stockid="Arrow2Lend"
       inkscape:collect="always">
      <path
         transform="scale(1.1) rotate(180) translate(1,0)"
         d="M 8.7185878,4.0337352 L -2.2072895,0.016013256 L 8.7185884,-4.0017078 C 6.9730900,-1.6296469 6.9831476,1.6157441 8.7185878,4.0337352 z "
         style="fill-rule:evenodd;stroke-width:0.625;stroke-linejoin:round;stroke:#0000ff;stroke-opacity:1;fill:#0000ff;fill-opacity:1"
         id="path2137" />
    </marker>
    <inkscape:path-effect
       is_visible="true"
       id="path-effect2135"
       effect="spiro" />
    <marker
       inkscape:stockid="Arrow2Lend"
       orient="auto"
       refY="0.0"
       refX="0.0"
       id="Arrow2Lend"
       style="overflow:visible;"
       inkscape:isstock="true"
       inkscape:collect="always">
      <path
         id="path924"
         style="fill-rule:evenodd;stroke-width:0.625;stroke-linejoin:round;stroke:#0000ff;stroke-opacity:1;fill:#0000ff;fill-opacity:1"
         d="M 8.7185878,4.0337352 L -2.2072895,0.016013256 L 8.7185884,-4.0017078 C 6.9730900,-1.6296469 6.9831476,1.6157441 8.7185878,4.0337352 z "
         transform="scale(1.1) rotate(180) translate(1,0)" />
    </marker>
    <inkscape:path-effect
       effect="spiro"
       id="path-effect901"
       is_visible="true" />
    <inkscape:path-effect
       effect="spiro"
       id="path-effect897"
       is_visible="true" />
    <inkscape:path-effect
       is_visible="true"
       id="path-effect875"
       effect="spiro" />
    <inkscape:path-effect
       effect="spiro"
       id="path-effect871"
       is_visible="true" />
    <inkscape:path-effect
       is_visible="true"
       id="path-effect833"
       effect="spiro" />
    <inkscape:path-effect
       is_visible="true"
       id="path-effect829"
       effect="spiro" />
    <inkscape:path-effect
       effect="spiro"
       id="path-effect825"
       is_visible="true" />
  </defs>
  <sodipodi:namedview
     id="base"
     pagecolor="#ffffff"
     bordercolor="#666666"
     borderopacity="1.0"
     inkscape:pageopacity="0.0"
     inkscape:pageshadow="2"
     inkscape:zoom="0.98994949"
     inkscape:cx="622.63547"
     inkscape:cy="608.25653"
     inkscape:document-units="mm"
     inkscape:current-layer="layer1"
     showgrid="false"
     inkscape:window-width="1848"
     inkscape:window-height="1016"
     inkscape:window-x="72"
     inkscape:window-y="27"
     inkscape:window-maximized="1" />
  <metadata
     id="metadata5">
    <rdf:RDF>
      <cc:Work
         rdf:about="">
        <dc:format>image/svg+xml</dc:format>
        <dc:type
           rdf:resource="http://purl.org/dc/dcmitype/StillImage" />
        <dc:title></dc:title>
      </cc:Work>
    </rdf:RDF>
  </metadata>
  <g
     inkscape:label="Calque 1"
     inkscape:groupmode="layer"
     id="layer1">
    <circle
       style="fill:#000000;fill-rule:evenodd;stroke-width:0.26458332"
       id="path815"
       cx="51.842419"
       cy="82.715652"
       r="5.8422618" />
    <circle
       r="5.8422618"
       cy="86.797798"
       cx="134.37328"
       id="circle817"
       style="fill:#000000;fill-rule:evenodd;stroke-width:0.26458332" />
    <path
       transform="matrix(0.59169783,0,0,0.9320858,24.246414,3.6415663)"
       style="fill:none;stroke:#000000;stroke-width:0.53861946;stroke-linecap:butt;stroke-linejoin:miter;stroke-miterlimit:4;stroke-dasharray:1.07723896, 1.07723896;stroke-dashoffset:0;stroke-opacity:1"
       d="M 46.869048,89.869046 V 123.31994"
       id="path869"
       inkscape:connector-curvature="0"
       inkscape:path-effect="#path-effect871"
       inkscape:original-d="m 46.869048,89.869046 c 2.64e-4,11.150034 2.64e-4,22.300334 0,33.450894" />
    <path
       inkscape:original-d="m 46.869048,89.869046 c 2.64e-4,11.150034 2.64e-4,22.300334 0,33.450894"
       inkscape:path-effect="#path-effect875"
       inkscape:connector-curvature="0"
       id="path873"
       d="M 46.869048,89.869046 V 123.31994"
       style="fill:none;stroke:#000000;stroke-width:0.3982192;stroke-linecap:butt;stroke-linejoin:miter;stroke-miterlimit:4;stroke-dasharray:0.7964384, 0.7964384;stroke-dashoffset:0;stroke-opacity:1"
       transform="matrix(0.75256849,0.27353389,-0.4314871,1.1838623,129.08802,-33.82224)" />
    <g
       id="g11455">
      <path
         transform="scale(0.26458333)"
         style="opacity:1;fill:#0000ff;fill-opacity:1;fill-rule:evenodd;stroke:none;stroke-width:1.51181102;stroke-linecap:butt;stroke-linejoin:round;stroke-miterlimit:4;stroke-dasharray:3.02362204, 3.02362204;stroke-dashoffset:0;stroke-opacity:1"
         d="m 172.93172,493.85739 c -10.46351,-0.6034 -18.27944,11.4235 -14.49135,20.90838 2.00911,6.28398 8.22725,10.49318 14.72712,10.72103 -0.40821,-1.57543 1.12921,-5.50473 -1.68787,-5.22931 -7.55768,-1.16345 -11.49034,-10.75569 -7.08389,-16.92203 4.16602,-6.96812 15.34012,-5.75641 18.78946,1.29681 1.85455,2.99561 0.38906,6.98278 0.87893,10.38596 0.0809,19.61382 0.16178,39.22764 0.24267,58.84146 3.03176,0.167 6.4268,0.69575 5.0419,-3.5355 -0.0904,-21.63411 -0.18087,-43.26822 -0.2713,-64.90233 -2.4773,-6.65068 -8.58661,-12.43897 -16.14567,-11.56447 z"
         id="path887"
         inkscape:connector-curvature="0" />
      <path
         transform="translate(0,58.208364)"
         inkscape:original-d="m 46.869048,89.869046 c 2.64e-4,11.150034 2.64e-4,22.300334 0,33.450894"
         inkscape:path-effect="#path-effect825"
         inkscape:connector-curvature="0"
         id="path823"
         d="M 46.869048,89.869046 V 123.31994"
         style="fill:none;stroke:#000000;stroke-width:0.40000001;stroke-linecap:butt;stroke-linejoin:miter;stroke-miterlimit:4;stroke-dasharray:none;stroke-opacity:1" />
      <path
         transform="translate(10.054167,58.208364)"
         style="fill:none;stroke:#000000;stroke-width:0.40000001;stroke-linecap:butt;stroke-linejoin:miter;stroke-miterlimit:4;stroke-dasharray:none;stroke-opacity:1"
         d="M 46.869048,89.869046 V 123.31994"
         id="path827"
         inkscape:connector-curvature="0"
         inkscape:path-effect="#path-effect829"
         inkscape:original-d="m 46.869048,89.869046 c 2.64e-4,11.150034 2.64e-4,22.300334 0,33.450894" />
      <path
         transform="matrix(0,-1,0.31254269,0,18.58277,228.4609)"
         style="fill:none;stroke:#000000;stroke-width:0.35774645;stroke-linecap:butt;stroke-linejoin:miter;stroke-miterlimit:4;stroke-dasharray:none;stroke-opacity:1"
         d="M 46.869048,89.869046 V 123.31994"
         id="path831"
         inkscape:connector-curvature="0"
         inkscape:path-effect="#path-effect833"
         inkscape:original-d="m 46.869048,89.869046 c 2.64e-4,11.150034 2.64e-4,22.300334 0,33.450894" />
      <path
         transform="scale(0.26458333)"
         inkscape:connector-curvature="0"
         id="path881"
         d="m 215.9579,472.29102 c -5.70016,-0.0426 -10.48909,5.27448 -9.73233,10.95683 -0.42036,24.81277 -0.1287,49.63347 -0.22813,74.4494 3.87384,0.84338 5.45516,-0.60576 4.54569,-4.54568 0.18516,-23.29792 -0.40495,-46.61414 0.38526,-69.90019 -0.19091,-2.90848 1.1728,-6.03071 4.46525,-6.24204 4.4335,-0.89803 7.90034,4.078 5.87447,7.99343 -0.60179,2.29832 -3.44197,2.2472 -4.55555,3.8226 -0.25727,1.44023 -0.56942,5.20508 1.97591,3.98043 6.66772,-1.67617 10.36348,-10.05759 6.41506,-15.88031 -1.90548,-3.07936 -5.57275,-4.78974 -9.14563,-4.63447 z"
         style="opacity:1;fill:#0000ff;fill-opacity:1;fill-rule:evenodd;stroke:none;stroke-width:1.51181102;stroke-linecap:butt;stroke-linejoin:round;stroke-miterlimit:4;stroke-dasharray:3.02362204, 3.02362203999999979;stroke-dashoffset:0;stroke-opacity:1" />
      <path
         transform="scale(0.26458333)"
         inkscape:connector-curvature="0"
         id="path883"
         d="m 178.3968,445.31482 c -12.80472,-0.21332 -23.49386,13.05594 -20.4112,25.51918 2.01108,9.2685 10.59632,16.83846 20.23265,16.79872 0.39894,-3.05216 0.22239,-5.4596 -3.36586,-5.23425 -7.27948,-1.78553 -12.98449,-8.72666 -12.28191,-16.37254 -0.31167,-8.97452 8.46085,-16.97123 17.41948,-15.63371 6.86155,-0.0764 13.09449,5.73534 14.64538,12.09815 0.0889,42.51059 0.17732,85.02118 0.26522,127.53176 3.91986,0.72598 6.1031,-0.28467 5.03597,-4.54568 -0.14463,-40.15174 0.33019,-80.31107 -0.35217,-120.45774 0.0401,-10.93691 -10.47777,-20.08094 -21.18756,-19.70389 z"
         style="opacity:1;fill:#0000ff;fill-opacity:1;fill-rule:evenodd;stroke:none;stroke-width:1.51181102;stroke-linecap:butt;stroke-linejoin:round;stroke-miterlimit:4;stroke-dasharray:3.02362204, 3.02362203999999979;stroke-dashoffset:0;stroke-opacity:1" />
      <path
         transform="scale(0.26458333)"
         inkscape:connector-curvature="0"
         id="path885"
         d="m 172.93172,493.85739 c -10.46351,-0.6034 -18.27944,11.4235 -14.49135,20.90838 2.00911,6.28398 8.22725,10.49318 14.72712,10.72103 -0.40821,-1.57543 1.12921,-5.50473 -1.68787,-5.22931 -7.55768,-1.16345 -11.49034,-10.75569 -7.08389,-16.92203 4.16602,-6.96812 15.34012,-5.75641 18.78946,1.29681 1.85455,2.99561 0.38906,6.98278 0.87893,10.38596 0.0809,19.61382 0.16178,39.22764 0.24267,58.84146 3.03176,0.167 6.4268,0.69575 5.0419,-3.5355 -0.0904,-21.63411 -0.18087,-43.26822 -0.2713,-64.90233 -2.4773,-6.65068 -8.58661,-12.43897 -16.14567,-11.56447 z"
         style="opacity:1;fill:#0000ff;fill-opacity:1;fill-rule:evenodd;stroke:none;stroke-width:1.51181102;stroke-linecap:butt;stroke-linejoin:round;stroke-miterlimit:4;stroke-dasharray:3.02362204, 3.02362204;stroke-dashoffset:0;stroke-opacity:1" />
    </g>
    <g
       id="g8158"
       transform="translate(-22.883026,0.76246416)">
      <path
         style="fill:none;stroke:#000000;stroke-width:0.40000001;stroke-linecap:butt;stroke-linejoin:miter;stroke-miterlimit:4;stroke-dasharray:none;stroke-opacity:1"
         d="M 46.869048,89.869046 V 123.31994"
         id="path855"
         inkscape:connector-curvature="0"
         inkscape:path-effect="#path-effect825"
         inkscape:original-d="m 46.869048,89.869046 c 2.64e-4,11.150034 2.64e-4,22.300334 0,33.450894"
         transform="rotate(20,-81.398939,326.68112)" />
      <path
         inkscape:original-d="m 46.869048,89.869046 c 2.64e-4,11.150034 2.64e-4,22.300334 0,33.450894"
         inkscape:path-effect="#path-effect829"
         inkscape:connector-curvature="0"
         id="path857"
         d="M 46.869048,89.869046 V 123.31994"
         style="fill:none;stroke:#000000;stroke-width:0.40000001;stroke-linecap:butt;stroke-linejoin:miter;stroke-miterlimit:4;stroke-dasharray:none;stroke-opacity:1"
         transform="rotate(20,-86.426023,355.19113)" />
      <path
         inkscape:original-d="m 46.869048,89.869046 c 2.64e-4,11.150034 2.64e-4,22.300334 0,33.450894"
         inkscape:path-effect="#path-effect833"
         inkscape:connector-curvature="0"
         id="path859"
         d="M 46.869048,89.869046 V 123.31994"
         style="fill:none;stroke:#000000;stroke-width:0.35774645;stroke-linecap:butt;stroke-linejoin:miter;stroke-miterlimit:4;stroke-dasharray:none;stroke-opacity:1"
         transform="matrix(0.34202014,-0.93969262,0.29369406,0.1068959,66.054861,213.88209)" />
      <path
         style="opacity:1;fill:#0000ff;fill-opacity:1;fill-rule:evenodd;stroke:none;stroke-width:0.40000001;stroke-linecap:butt;stroke-linejoin:round;stroke-miterlimit:4;stroke-dasharray:0.79999999, 0.79999999;stroke-dashoffset:0;stroke-opacity:1"
         d="m 137.38846,129.65397 c -1.41335,-0.52643 -3.08517,0.3622 -3.41123,1.84346 -2.34989,6.13109 -4.52352,12.32856 -6.79389,18.48947 0.88681,0.56025 1.41111,0.34305 1.54154,-0.71882 2.15433,-5.77573 4.11755,-11.62618 6.42124,-17.34422 0.21575,-0.74039 0.83732,-1.39326 1.67504,-1.14787 1.18356,0.17793 1.59521,1.72883 0.73721,2.51899 -0.35761,0.51696 -1.05912,0.24723 -1.47855,0.53816 -0.19433,0.33478 -0.61261,1.24259 0.13107,1.16844 1.80944,0.18664 3.48677,-1.56277 3.032,-3.36776 -0.19509,-0.93804 -0.9521,-1.69515 -1.85447,-1.97986 z"
         id="path889"
         inkscape:connector-curvature="0" />
      <path
         style="opacity:1;fill:#0000ff;fill-opacity:1;fill-rule:evenodd;stroke:none;stroke-width:0.40000001;stroke-linecap:butt;stroke-linejoin:round;stroke-miterlimit:4;stroke-dasharray:0.79999999, 0.79999999;stroke-dashoffset:0;stroke-opacity:1"
         d="m 130.49091,119.54795 c -3.1643,-1.21174 -7.02267,1.12003 -7.38407,4.49769 -0.3387,2.48639 1.11076,5.14539 3.51022,6.00752 0.37538,-0.72275 0.5493,-1.33729 -0.36319,-1.60596 -1.6483,-1.10267 -2.43859,-3.34469 -1.57202,-5.18208 0.73461,-2.25953 3.63938,-3.45386 5.74571,-2.31062 1.71286,0.60194 2.73662,2.61091 2.54642,4.33323 -3.82481,10.57731 -7.64973,21.15459 -11.47473,31.73185 0.90888,0.53522 1.54315,0.48153 1.66343,-0.67446 3.59746,-9.99591 7.34971,-19.93762 10.81299,-29.98093 0.99967,-2.71558 -0.78789,-5.94083 -3.48475,-6.81624 z"
         id="path891"
         inkscape:connector-curvature="0" />
      <path
         style="opacity:1;fill:#0000ff;fill-opacity:1;fill-rule:evenodd;stroke:none;stroke-width:0.40000001;stroke-linecap:butt;stroke-linejoin:round;stroke-miterlimit:4;stroke-dasharray:0.79999999, 0.79999999;stroke-dashoffset:0;stroke-opacity:1"
         d="m 124.73939,131.12239 c -2.54691,-1.09689 -5.5785,1.18604 -5.495,3.88702 -0.0691,1.74418 1.09597,3.3534 2.69138,3.99824 0.0411,-0.42863 0.7789,-1.26644 0.0536,-1.45289 -1.77376,-0.97318 -1.8835,-3.71394 -0.22994,-4.84831 1.66635,-1.35547 4.33489,-0.043 4.55423,2.02273 0.19,0.91262 -0.53517,1.77132 -0.72133,2.66177 -1.7548,4.88384 -3.50961,9.76769 -5.26441,14.65153 0.73866,0.31589 1.53491,0.75456 1.57349,-0.42277 1.93527,-5.387 3.87045,-10.77402 5.80572,-16.16102 -0.0141,-1.87773 -1.00923,-3.86969 -2.96774,-4.33631 z"
         id="path893"
         inkscape:connector-curvature="0" />
    </g>
    <path
       style="fill:none;stroke:#0000ff;stroke-width:0.26458332px;stroke-linecap:butt;stroke-linejoin:miter;stroke-opacity:1"
       d="m 149.39542,84.332275 c 0.50622,-2.445783 2.00634,-4.6707 4.08388,-6.057039 2.07754,-1.386339 4.70782,-1.91763 7.16058,-1.446367 2.43496,0.467843 4.61347,1.86858 6.38801,3.600321 1.77453,1.731741 3.18821,3.792523 4.5733,5.849082 5.69327,8.453299 11.11466,17.089708 16.25297,25.891368"
       id="path895"
       inkscape:connector-curvature="0"
       inkscape:path-effect="#path-effect897"
       inkscape:original-d="m 149.39542,84.332275 c 3.81141,-2.438403 7.49657,-5.002536 11.24446,-7.503406 3.74789,-2.500874 7.3078,6.299337 10.96131,9.449403 3.6535,3.150065 10.83558,17.260648 16.25297,25.891368"
       transform="translate(-23.812505,1.0583333)" />
    <path
       style="fill:none;stroke:#0000ff;stroke-width:0.26458332px;stroke-linecap:butt;stroke-linejoin:miter;stroke-opacity:1;marker-end:url(#Arrow2Lend)"
       d="m 110.20823,98.018461 1.29474,1.677966"
       id="path899"
       inkscape:connector-curvature="0"
       inkscape:path-effect="#path-effect901"
       inkscape:original-d="m 110.20823,98.018461 c 1.32319,1.700631 -0.0279,-0.02319 1.29474,1.677966"
       sodipodi:nodetypes="cc"
       transform="rotate(8.1731925,113.44809,421.69361)" />
    <path
       transform="rotate(0.97718191,1083.7776,2037.9781)"
       sodipodi:nodetypes="cc"
       inkscape:original-d="m 110.20823,98.018461 c 1.32319,1.700631 -0.0279,-0.02319 1.29474,1.677966"
       inkscape:path-effect="#path-effect2135"
       inkscape:connector-curvature="0"
       id="path2133"
       d="m 110.20823,98.018461 1.29474,1.677966"
       style="fill:none;stroke:#0000ff;stroke-width:0.26458332px;stroke-linecap:butt;stroke-linejoin:miter;stroke-opacity:1;marker-end:url(#marker2139)" />
    <path
       style="fill:none;stroke:#0000ff;stroke-width:0.26458332px;stroke-linecap:butt;stroke-linejoin:miter;stroke-opacity:1;marker-end:url(#marker2741)"
       d="m 110.20823,98.018461 1.29474,1.677966"
       id="path2735"
       inkscape:connector-curvature="0"
       inkscape:path-effect="#path-effect2737"
       inkscape:original-d="m 110.20823,98.018461 c 1.32319,1.700631 -0.0279,-0.02319 1.29474,1.677966"
       sodipodi:nodetypes="cc"
       transform="rotate(-109.69177,113.11197,85.006539)" />
    <path
       style="fill:none;stroke:#ff0000;stroke-width:0.33837567;stroke-linecap:butt;stroke-linejoin:miter;stroke-opacity:1;marker-end:url(#marker3745);stroke-miterlimit:4;stroke-dasharray:none"
       d="M 64.946495,89.598845 V 104.56594"
       id="path3733"
       inkscape:connector-curvature="0"
       inkscape:path-effect="#path-effect3735"
       inkscape:original-d="m 64.946495,89.598845 c 2.64e-4,4.988767 2.64e-4,9.977798 0,14.967095"
       transform="matrix(1.1821181,0,0,1.1821181,-24.767481,-23.194745)" />
    <g
       id="g4439"
       style="fill:#ff0000;stroke-width:1.76497066"
       transform="matrix(0.56658164,0,0,0.56658164,8.1247896,38.063876)">
      <g
         word-spacing="normal"
         letter-spacing="normal"
         font-size-adjust="none"
         font-stretch="normal"
         font-weight="normal"
         font-variant="normal"
         font-style="normal"
         stroke-miterlimit="10.433"
         xml:space="preserve"
         transform="matrix(0.3,0,0,-0.3,-52.5,222.75)"
         id="content"
         style="font-style:normal;font-variant:normal;font-weight:normal;font-stretch:normal;letter-spacing:normal;word-spacing:normal;text-anchor:start;fill:#ff0000;fill-opacity:1;fill-rule:evenodd;stroke:#000000;stroke-width:3.1151216;stroke-linecap:butt;stroke-linejoin:miter;stroke-miterlimit:10.43299961;stroke-dasharray:none;stroke-dashoffset:0;stroke-opacity:1"><path
           id="path4432"
           d="m 459.91,409.14 -0.02,-0.07 -0.01,-0.08 -0.02,-0.07 -0.01,-0.08 -0.04,-0.16 -0.04,-0.16 -0.03,-0.16 -0.04,-0.16 -0.04,-0.16 -0.04,-0.16 -0.01,-0.08 -0.02,-0.07 -0.02,-0.07 -0.01,-0.07 -0.02,-0.07 -0.01,-0.07 -0.01,-0.06 -0.01,-0.06 -0.01,-0.06 -0.01,-0.05 -0.01,-0.05 -0.01,-0.04 -0.01,-0.04 v -0.04 -0.03 -0.02 c 0,-0.89 0.7,-1.35 1.43,-1.35 0.61,0 1.5,0.39 1.85,1.39 0.06,0.11 0.65,2.44 0.95,3.69 l 1.1,4.48 c 0.29,1.1 0.59,2.19 0.84,3.35 0.2,0.84 0.61,2.28 0.66,2.48 0.75,1.55 3.39,6.08 8.1,6.08 2.25,0 2.71,-1.84 2.71,-3.48 0,-1.25 -0.36,-2.64 -0.75,-4.14 l -1.39,-5.79 -1,-3.78 c -0.21,-1 -0.66,-2.68 -0.66,-2.93 0,-0.89 0.7,-1.35 1.45,-1.35 1.55,0 1.85,1.25 2.24,2.85 0.7,2.78 2.55,10.06 3,12 0.14,0.65 2.78,6.62 8.22,6.62 2.14,0 2.68,-1.69 2.68,-3.48 0,-2.85 -2.09,-8.52 -3.09,-11.16 -0.45,-1.2 -0.64,-1.75 -0.64,-2.75 0,-2.33 1.73,-4.08 4.08,-4.08 4.69,0 6.53,7.27 6.53,7.67 0,0.5 -0.45,0.5 -0.59,0.5 -0.5,0 -0.5,-0.15 -0.75,-0.9 -0.75,-2.64 -2.35,-6.17 -5.08,-6.17 -0.86,0 -1.21,0.5 -1.21,1.64 0,1.25 0.46,2.45 0.9,3.54 0.95,2.58 3.04,8.11 3.04,10.96 0,3.23 -2,5.32 -5.73,5.32 -3.74,0 -6.27,-2.18 -8.11,-4.82 -0.06,0.65 -0.2,2.34 -1.61,3.53 -1.24,1.04 -2.83,1.29 -4.08,1.29 -4.48,0 -6.92,-3.18 -7.76,-4.32 -0.25,2.84 -2.35,4.32 -4.6,4.32 -2.28,0 -3.23,-1.93 -3.69,-2.82 -0.89,-1.75 -1.54,-4.69 -1.54,-4.85 0,-0.5 0.5,-0.5 0.61,-0.5 0.5,0 0.54,0.07 0.84,1.16 0.84,3.53 1.84,5.92 3.64,5.92 0.8,0 1.55,-0.39 1.55,-2.28 0,-1.05 -0.16,-1.61 -0.8,-4.19 z"
           style="fill:#ff0000;stroke-width:0"
           inkscape:connector-curvature="0" /><path
           id="path4434"
           d="m 523.79,435.84 -0.07,-0.06 -0.07,-0.07 -0.08,-0.07 -0.08,-0.07 -0.08,-0.08 -0.09,-0.08 -0.09,-0.09 -0.1,-0.08 -0.09,-0.09 -0.1,-0.1 -0.19,-0.19 -0.2,-0.19 -0.19,-0.21 -0.09,-0.1 -0.09,-0.1 -0.09,-0.1 -0.08,-0.11 -0.08,-0.1 -0.08,-0.1 -0.07,-0.1 -0.07,-0.1 -0.05,-0.1 -0.06,-0.1 -0.04,-0.1 -0.04,-0.09 -0.03,-0.09 -0.03,-0.1 -0.01,-0.08 v -0.09 c 0,-0.5 0.5,-1 1,-1 0.45,0 0.7,0.36 0.95,0.66 0.59,0.75 1.73,2.14 3.94,3.23 0.34,0.21 0.84,0.46 0.84,1.05 0,0.5 -0.34,0.75 -0.7,1 -1.1,0.75 -1.64,1.64 -2.05,2.83 -0.09,0.45 -0.3,1.11 -0.98,1.11 -0.71,0 -1,-0.66 -1,-1.05 0,-0.25 0.39,-1.84 1.18,-2.89 h -16.78 c -0.84,0 -1.75,0 -1.75,-1 0,-1 0.91,-1 1.75,-1 z"
           style="fill:#ff0000;stroke-width:0"
           inkscape:connector-curvature="0" /><path
           id="path4436"
           d="m 522.66,424.98 0.01,0.06 0.01,0.05 0.01,0.05 0.02,0.06 0.02,0.1 0.01,0.05 0.01,0.06 0.01,0.05 0.01,0.06 0.01,0.05 0.01,0.06 0.01,0.06 v 0.06 0.03 0.03 0.03 0.03 c 0,0.86 -0.59,1.36 -1.43,1.36 -0.5,0 -1.85,-0.36 -2.05,-2.16 -0.89,1.85 -2.64,3.14 -4.62,3.14 l 0.04,-1.09 c 3.28,0 3.99,-4.03 3.99,-4.28 0,-0.25 -0.1,-0.55 -0.16,-0.75 l -2.39,-9.52 c -0.3,-1.29 -1.44,-2.53 -2.53,-3.48 -1.05,-0.89 -2.6,-1.8 -4.05,-1.8 -2.48,0 -3.23,2.6 -3.23,4.58 0,2.41 1.45,8.28 2.79,10.81 1.35,2.46 3.49,4.44 5.58,4.44 l -0.04,1.09 c -5.69,0 -11.86,-6.96 -11.86,-14.14 0,-4.93 3.03,-7.87 6.62,-7.87 2.94,0 5.28,2.34 5.78,2.89 l 0.05,-0.05 c -1.05,-4.43 -1.64,-6.48 -1.64,-6.58 -0.2,-0.45 -1.89,-5.39 -7.17,-5.39 -0.96,0 -2.6,0.07 -4,0.5 1.5,0.46 2.04,1.75 2.04,2.6 0,0.79 -0.54,1.75 -1.89,1.75 -1.09,0 -2.68,-0.91 -2.68,-2.89 0,-2.05 1.84,-3.05 6.62,-3.05 6.22,0 9.81,3.89 10.56,6.88 z"
           style="fill:#ff0000;stroke-width:0"
           inkscape:connector-curvature="0" /></g>    </g>
    <path
       transform="matrix(-1.1821181,0,0,-1.1821181,128.78137,188.63809)"
       inkscape:original-d="m 64.946495,89.598845 c 2.64e-4,4.988767 2.64e-4,9.977798 0,14.967095"
       inkscape:path-effect="#path-effect4606"
       inkscape:connector-curvature="0"
       id="path4604"
       d="M 64.946495,89.598845 V 104.56594"
       style="fill:none;stroke:#008000;stroke-width:0.33837566;stroke-linecap:butt;stroke-linejoin:miter;stroke-miterlimit:4;stroke-dasharray:none;stroke-opacity:1;marker-end:url(#marker4610)" />
    <g
       id="g5056"
       transform="matrix(0.50431264,0,0,0.50431264,12.324989,23.19659)"
       style="fill:#008000;stroke-width:1.98289692">
      <g
         word-spacing="normal"
         letter-spacing="normal"
         font-size-adjust="none"
         font-stretch="normal"
         font-weight="normal"
         font-variant="normal"
         font-style="normal"
         stroke-miterlimit="10.433"
         xml:space="preserve"
         transform="matrix(0.3,0,0,-0.3,-52.5,222.75)"
         id="g5054"
         style="font-style:normal;font-variant:normal;font-weight:normal;font-stretch:normal;letter-spacing:normal;word-spacing:normal;text-anchor:start;fill:#008000;fill-opacity:1;fill-rule:evenodd;stroke:#000000;stroke-width:3.93188024;stroke-linecap:butt;stroke-linejoin:miter;stroke-miterlimit:10.43299961;stroke-dasharray:none;stroke-dashoffset:0;stroke-opacity:1"><path
           id="path5048"
           d="m 489.71,448.44 -0.07,-0.06 -0.07,-0.07 -0.08,-0.07 -0.08,-0.07 -0.08,-0.08 -0.09,-0.08 -0.09,-0.09 -0.1,-0.08 -0.09,-0.09 -0.1,-0.09 -0.19,-0.19 -0.2,-0.2 -0.19,-0.2 -0.09,-0.11 -0.09,-0.1 -0.09,-0.1 -0.08,-0.1 -0.08,-0.11 -0.08,-0.1 -0.07,-0.1 -0.06,-0.1 -0.06,-0.1 -0.06,-0.1 -0.04,-0.1 -0.04,-0.09 -0.03,-0.09 -0.02,-0.09 -0.02,-0.09 v -0.09 c 0,-0.5 0.5,-1 1,-1 0.45,0 0.7,0.36 0.95,0.66 0.59,0.75 1.73,2.14 3.94,3.23 0.34,0.21 0.84,0.46 0.84,1.05 0,0.5 -0.34,0.75 -0.7,1 -1.1,0.75 -1.64,1.64 -2.05,2.83 -0.09,0.45 -0.3,1.11 -0.98,1.11 -0.71,0 -1,-0.66 -1,-1.05 0,-0.25 0.39,-1.84 1.18,-2.89 h -16.78 c -0.84,0 -1.75,0 -1.75,-1 0,-1 0.91,-1 1.75,-1 z"
           inkscape:connector-curvature="0"
           style="fill:#008000;stroke-width:0" /><path
           id="path5050"
           d="m 470.61,422.39 h 4.83 c 3.75,0 4.14,-0.8 4.14,-2.24 0,-0.36 0,-0.95 -0.34,-2.44 -0.11,-0.25 -0.16,-0.45 -0.16,-0.56 0,-0.39 0.3,-0.59 0.6,-0.59 0.5,0 0.5,0.15 0.75,1.05 l 2.75,10.81 c 0.14,0.54 0.14,0.65 0.14,0.79 0,0.1 -0.1,0.55 -0.6,0.55 -0.5,0 -0.54,-0.25 -0.75,-1.05 -1.04,-3.87 -2.18,-4.78 -6.42,-4.78 h -4.53 l 3.19,12.66 c 0.43,1.75 0.5,1.94 2.68,1.94 h 6.58 c 6.13,0 7.27,-1.64 7.27,-5.47 0,-1.16 0,-1.35 -0.14,-2.7 -0.11,-0.65 -0.11,-0.74 -0.11,-0.9 0,-0.25 0.15,-0.59 0.61,-0.59 0.54,0 0.59,0.3 0.69,1.25 l 1,8.61 c 0.15,1.34 -0.1,1.34 -1.35,1.34 h -24.4 c -1,0 -1.5,0 -1.5,-1 0,-0.54 0.45,-0.54 1.39,-0.54 1.84,0 3.23,0 3.23,-0.89 0,-0.21 0,-0.3 -0.25,-1.21 l -6.56,-26.34 c -0.5,-1.95 -0.61,-2.34 -4.55,-2.34 -0.84,0 -1.39,0 -1.39,-0.96 0,-0.59 0.59,-0.59 0.75,-0.59 1.44,0 5.13,0.16 6.58,0.16 1.64,0 5.78,-0.16 7.42,-0.16 0.45,0 1.05,0 1.05,0.95 0,0.39 -0.3,0.49 -0.3,0.55 -0.16,0.05 -0.25,0.05 -1.39,0.05 -1.11,0 -1.36,0 -2.59,0.09 -1.46,0.16 -1.6,0.36 -1.6,1 0,0.09 0,0.41 0.19,1.14 z"
           inkscape:connector-curvature="0"
           style="fill:#008000;stroke-width:0" /><path
           id="path5052"
           d="M 494.56,412.53 H 500 v 1.25 h -5.44 v 6.4 h -1.19 c -0.03,-3.12 -1.45,-6.57 -4.8,-6.68 v -0.97 h 3.24 v -9.41 c 0,-3.91 2.92,-4.7 4.87,-4.7 2.35,0 3.94,1.98 3.94,4.73 v 1.92 h -1.19 v -1.89 c 0,-2.36 -1.11,-3.65 -2.47,-3.65 -2.4,0 -2.4,2.92 -2.4,3.56 z"
           inkscape:connector-curvature="0"
           style="fill:#008000;stroke-width:0" /></g>    </g>
    <path
       transform="matrix(1.1821181,0,0,1.1821181,57.555741,-19.037007)"
       inkscape:original-d="m 64.946495,89.598845 c 2.64e-4,4.988767 2.64e-4,9.977798 0,14.967095"
       inkscape:path-effect="#path-effect5102"
       inkscape:connector-curvature="0"
       id="path5100"
       d="M 64.946495,89.598845 V 104.56594"
       style="fill:none;stroke:#ff0000;stroke-width:0.33837566;stroke-linecap:butt;stroke-linejoin:miter;stroke-miterlimit:4;stroke-dasharray:none;stroke-opacity:1;marker-end:url(#marker5116)" />
    <g
       transform="matrix(0.56658164,0,0,0.56658164,90.447981,42.221614)"
       style="fill:#ff0000;stroke-width:1.76497066"
       id="g5112">
      <g
         style="font-style:normal;font-variant:normal;font-weight:normal;font-stretch:normal;letter-spacing:normal;word-spacing:normal;text-anchor:start;fill:#ff0000;fill-opacity:1;fill-rule:evenodd;stroke:#000000;stroke-width:3.1151216;stroke-linecap:butt;stroke-linejoin:miter;stroke-miterlimit:10.43299961;stroke-dasharray:none;stroke-dashoffset:0;stroke-opacity:1"
         id="g5110"
         transform="matrix(0.3,0,0,-0.3,-52.5,222.75)"
         xml:space="preserve"
         stroke-miterlimit="10.433"
         font-style="normal"
         font-variant="normal"
         font-weight="normal"
         font-stretch="normal"
         font-size-adjust="none"
         letter-spacing="normal"
         word-spacing="normal"><path
           inkscape:connector-curvature="0"
           style="fill:#ff0000;stroke-width:0"
           d="m 459.91,409.14 -0.02,-0.07 -0.01,-0.08 -0.02,-0.07 -0.01,-0.08 -0.04,-0.16 -0.04,-0.16 -0.03,-0.16 -0.04,-0.16 -0.04,-0.16 -0.04,-0.16 -0.01,-0.08 -0.02,-0.07 -0.02,-0.07 -0.01,-0.07 -0.02,-0.07 -0.01,-0.07 -0.01,-0.06 -0.01,-0.06 -0.01,-0.06 -0.01,-0.05 -0.01,-0.05 -0.01,-0.04 -0.01,-0.04 v -0.04 -0.03 -0.02 c 0,-0.89 0.7,-1.35 1.43,-1.35 0.61,0 1.5,0.39 1.85,1.39 0.06,0.11 0.65,2.44 0.95,3.69 l 1.1,4.48 c 0.29,1.1 0.59,2.19 0.84,3.35 0.2,0.84 0.61,2.28 0.66,2.48 0.75,1.55 3.39,6.08 8.1,6.08 2.25,0 2.71,-1.84 2.71,-3.48 0,-1.25 -0.36,-2.64 -0.75,-4.14 l -1.39,-5.79 -1,-3.78 c -0.21,-1 -0.66,-2.68 -0.66,-2.93 0,-0.89 0.7,-1.35 1.45,-1.35 1.55,0 1.85,1.25 2.24,2.85 0.7,2.78 2.55,10.06 3,12 0.14,0.65 2.78,6.62 8.22,6.62 2.14,0 2.68,-1.69 2.68,-3.48 0,-2.85 -2.09,-8.52 -3.09,-11.16 -0.45,-1.2 -0.64,-1.75 -0.64,-2.75 0,-2.33 1.73,-4.08 4.08,-4.08 4.69,0 6.53,7.27 6.53,7.67 0,0.5 -0.45,0.5 -0.59,0.5 -0.5,0 -0.5,-0.15 -0.75,-0.9 -0.75,-2.64 -2.35,-6.17 -5.08,-6.17 -0.86,0 -1.21,0.5 -1.21,1.64 0,1.25 0.46,2.45 0.9,3.54 0.95,2.58 3.04,8.11 3.04,10.96 0,3.23 -2,5.32 -5.73,5.32 -3.74,0 -6.27,-2.18 -8.11,-4.82 -0.06,0.65 -0.2,2.34 -1.61,3.53 -1.24,1.04 -2.83,1.29 -4.08,1.29 -4.48,0 -6.92,-3.18 -7.76,-4.32 -0.25,2.84 -2.35,4.32 -4.6,4.32 -2.28,0 -3.23,-1.93 -3.69,-2.82 -0.89,-1.75 -1.54,-4.69 -1.54,-4.85 0,-0.5 0.5,-0.5 0.61,-0.5 0.5,0 0.54,0.07 0.84,1.16 0.84,3.53 1.84,5.92 3.64,5.92 0.8,0 1.55,-0.39 1.55,-2.28 0,-1.05 -0.16,-1.61 -0.8,-4.19 z"
           id="path5104" /><path
           inkscape:connector-curvature="0"
           style="fill:#ff0000;stroke-width:0"
           d="m 523.79,435.84 -0.07,-0.06 -0.07,-0.07 -0.08,-0.07 -0.08,-0.07 -0.08,-0.08 -0.09,-0.08 -0.09,-0.09 -0.1,-0.08 -0.09,-0.09 -0.1,-0.1 -0.19,-0.19 -0.2,-0.19 -0.19,-0.21 -0.09,-0.1 -0.09,-0.1 -0.09,-0.1 -0.08,-0.11 -0.08,-0.1 -0.08,-0.1 -0.07,-0.1 -0.07,-0.1 -0.05,-0.1 -0.06,-0.1 -0.04,-0.1 -0.04,-0.09 -0.03,-0.09 -0.03,-0.1 -0.01,-0.08 v -0.09 c 0,-0.5 0.5,-1 1,-1 0.45,0 0.7,0.36 0.95,0.66 0.59,0.75 1.73,2.14 3.94,3.23 0.34,0.21 0.84,0.46 0.84,1.05 0,0.5 -0.34,0.75 -0.7,1 -1.1,0.75 -1.64,1.64 -2.05,2.83 -0.09,0.45 -0.3,1.11 -0.98,1.11 -0.71,0 -1,-0.66 -1,-1.05 0,-0.25 0.39,-1.84 1.18,-2.89 h -16.78 c -0.84,0 -1.75,0 -1.75,-1 0,-1 0.91,-1 1.75,-1 z"
           id="path5106" /><path
           inkscape:connector-curvature="0"
           style="fill:#ff0000;stroke-width:0"
           d="m 522.66,424.98 0.01,0.06 0.01,0.05 0.01,0.05 0.02,0.06 0.02,0.1 0.01,0.05 0.01,0.06 0.01,0.05 0.01,0.06 0.01,0.05 0.01,0.06 0.01,0.06 v 0.06 0.03 0.03 0.03 0.03 c 0,0.86 -0.59,1.36 -1.43,1.36 -0.5,0 -1.85,-0.36 -2.05,-2.16 -0.89,1.85 -2.64,3.14 -4.62,3.14 l 0.04,-1.09 c 3.28,0 3.99,-4.03 3.99,-4.28 0,-0.25 -0.1,-0.55 -0.16,-0.75 l -2.39,-9.52 c -0.3,-1.29 -1.44,-2.53 -2.53,-3.48 -1.05,-0.89 -2.6,-1.8 -4.05,-1.8 -2.48,0 -3.23,2.6 -3.23,4.58 0,2.41 1.45,8.28 2.79,10.81 1.35,2.46 3.49,4.44 5.58,4.44 l -0.04,1.09 c -5.69,0 -11.86,-6.96 -11.86,-14.14 0,-4.93 3.03,-7.87 6.62,-7.87 2.94,0 5.28,2.34 5.78,2.89 l 0.05,-0.05 c -1.05,-4.43 -1.64,-6.48 -1.64,-6.58 -0.2,-0.45 -1.89,-5.39 -7.17,-5.39 -0.96,0 -2.6,0.07 -4,0.5 1.5,0.46 2.04,1.75 2.04,2.6 0,0.79 -0.54,1.75 -1.89,1.75 -1.09,0 -2.68,-0.91 -2.68,-2.89 0,-2.05 1.84,-3.05 6.62,-3.05 6.22,0 9.81,3.89 10.56,6.88 z"
           id="path5108" /></g>    </g>
    <g
       id="g8244"
       transform="matrix(0.57720784,0,0,0.57720784,92.773324,18.93824)"
       style="fill:#008000;stroke-width:1.73247814">
      <g
         word-spacing="normal"
         letter-spacing="normal"
         font-size-adjust="none"
         font-stretch="normal"
         font-weight="normal"
         font-variant="normal"
         font-style="normal"
         stroke-miterlimit="10.433"
         xml:space="preserve"
         transform="matrix(0.3,0,0,-0.3,-52.5,222.75)"
         id="g8242"
         style="font-style:normal;font-variant:normal;font-weight:normal;font-stretch:normal;letter-spacing:normal;word-spacing:normal;text-anchor:start;fill:#008000;fill-opacity:1;fill-rule:evenodd;stroke:#000000;stroke-width:3.00148058;stroke-linecap:butt;stroke-linejoin:miter;stroke-miterlimit:10.43299961;stroke-dasharray:none;stroke-dashoffset:0;stroke-opacity:1"><path
           id="path8236"
           d="m 489.71,448.44 -0.07,-0.06 -0.07,-0.07 -0.08,-0.07 -0.08,-0.07 -0.08,-0.08 -0.09,-0.08 -0.09,-0.09 -0.1,-0.08 -0.09,-0.09 -0.1,-0.09 -0.19,-0.19 -0.2,-0.2 -0.19,-0.2 -0.09,-0.11 -0.09,-0.1 -0.09,-0.1 -0.08,-0.1 -0.08,-0.11 -0.08,-0.1 -0.07,-0.1 -0.06,-0.1 -0.06,-0.1 -0.06,-0.1 -0.04,-0.1 -0.04,-0.09 -0.03,-0.09 -0.02,-0.09 -0.02,-0.09 v -0.09 c 0,-0.5 0.5,-1 1,-1 0.45,0 0.7,0.36 0.95,0.66 0.59,0.75 1.73,2.14 3.94,3.23 0.34,0.21 0.84,0.46 0.84,1.05 0,0.5 -0.34,0.75 -0.7,1 -1.1,0.75 -1.64,1.64 -2.05,2.83 -0.09,0.45 -0.3,1.11 -0.98,1.11 -0.71,0 -1,-0.66 -1,-1.05 0,-0.25 0.39,-1.84 1.18,-2.89 h -16.78 c -0.84,0 -1.75,0 -1.75,-1 0,-1 0.91,-1 1.75,-1 z"
           inkscape:connector-curvature="0"
           style="fill:#008000;stroke-width:0" /><path
           id="path8238"
           d="m 470.61,422.39 h 4.83 c 3.75,0 4.14,-0.8 4.14,-2.24 0,-0.36 0,-0.95 -0.34,-2.44 -0.11,-0.25 -0.16,-0.45 -0.16,-0.56 0,-0.39 0.3,-0.59 0.6,-0.59 0.5,0 0.5,0.15 0.75,1.05 l 2.75,10.81 c 0.14,0.54 0.14,0.65 0.14,0.79 0,0.1 -0.1,0.55 -0.6,0.55 -0.5,0 -0.54,-0.25 -0.75,-1.05 -1.04,-3.87 -2.18,-4.78 -6.42,-4.78 h -4.53 l 3.19,12.66 c 0.43,1.75 0.5,1.94 2.68,1.94 h 6.58 c 6.13,0 7.27,-1.64 7.27,-5.47 0,-1.16 0,-1.35 -0.14,-2.7 -0.11,-0.65 -0.11,-0.74 -0.11,-0.9 0,-0.25 0.15,-0.59 0.61,-0.59 0.54,0 0.59,0.3 0.69,1.25 l 1,8.61 c 0.15,1.34 -0.1,1.34 -1.35,1.34 h -24.4 c -1,0 -1.5,0 -1.5,-1 0,-0.54 0.45,-0.54 1.39,-0.54 1.84,0 3.23,0 3.23,-0.89 0,-0.21 0,-0.3 -0.25,-1.21 l -6.56,-26.34 c -0.5,-1.95 -0.61,-2.34 -4.55,-2.34 -0.84,0 -1.39,0 -1.39,-0.96 0,-0.59 0.59,-0.59 0.75,-0.59 1.44,0 5.13,0.16 6.58,0.16 1.64,0 5.78,-0.16 7.42,-0.16 0.45,0 1.05,0 1.05,0.95 0,0.39 -0.3,0.49 -0.3,0.55 -0.16,0.05 -0.25,0.05 -1.39,0.05 -1.11,0 -1.36,0 -2.59,0.09 -1.46,0.16 -1.6,0.36 -1.6,1 0,0.09 0,0.41 0.19,1.14 z"
           inkscape:connector-curvature="0"
           style="fill:#008000;stroke-width:0" /><path
           id="path8240"
           d="M 494.56,412.53 H 500 v 1.25 h -5.44 v 6.4 h -1.19 c -0.03,-3.12 -1.45,-6.57 -4.8,-6.68 v -0.97 h 3.24 v -9.41 c 0,-3.91 2.92,-4.7 4.87,-4.7 2.35,0 3.94,1.98 3.94,4.73 v 1.92 h -1.19 v -1.89 c 0,-2.36 -1.11,-3.65 -2.47,-3.65 -2.4,0 -2.4,2.92 -2.4,3.56 z"
           inkscape:connector-curvature="0"
           style="fill:#008000;stroke-width:0" /></g>    </g>
    <g
       id="g8445"
       transform="matrix(0.52535853,0,0,0.52535853,78.67621,41.983524)"
       style="fill:#ff6600;stroke:#ff6600;stroke-width:1.90346205">
      <g
         word-spacing="normal"
         letter-spacing="normal"
         font-size-adjust="none"
         font-stretch="normal"
         font-weight="normal"
         font-variant="normal"
         font-style="normal"
         stroke-miterlimit="10.433"
         xml:space="preserve"
         transform="matrix(0.3,0,0,-0.3,-52.5,222.75)"
         id="g8443"
         style="font-style:normal;font-variant:normal;font-weight:normal;font-stretch:normal;letter-spacing:normal;word-spacing:normal;text-anchor:start;fill:#ff6600;fill-opacity:1;fill-rule:evenodd;stroke:#ff6600;stroke-width:1.90346205;stroke-linecap:butt;stroke-linejoin:miter;stroke-miterlimit:10.43299961;stroke-dasharray:none;stroke-dashoffset:0;stroke-opacity:1"><path
           id="path8437"
           d="m 489.71,448.44 -0.07,-0.06 -0.07,-0.07 -0.08,-0.07 -0.08,-0.07 -0.08,-0.08 -0.09,-0.08 -0.09,-0.09 -0.1,-0.08 -0.09,-0.09 -0.1,-0.09 -0.19,-0.19 -0.2,-0.2 -0.19,-0.2 -0.09,-0.11 -0.09,-0.1 -0.09,-0.1 -0.08,-0.1 -0.08,-0.11 -0.08,-0.1 -0.07,-0.1 -0.06,-0.1 -0.06,-0.1 -0.06,-0.1 -0.04,-0.1 -0.04,-0.09 -0.03,-0.09 -0.02,-0.09 -0.02,-0.09 v -0.09 c 0,-0.5 0.5,-1 1,-1 0.45,0 0.7,0.36 0.95,0.66 0.59,0.75 1.73,2.14 3.94,3.23 0.34,0.21 0.84,0.46 0.84,1.05 0,0.5 -0.34,0.75 -0.7,1 -1.1,0.75 -1.64,1.64 -2.05,2.83 -0.09,0.45 -0.3,1.11 -0.98,1.11 -0.71,0 -1,-0.66 -1,-1.05 0,-0.25 0.39,-1.84 1.18,-2.89 h -16.78 c -0.84,0 -1.75,0 -1.75,-1 0,-1 0.91,-1 1.75,-1 z"
           inkscape:connector-curvature="0"
           style="fill:#ff6600;stroke:#ff6600;stroke-width:0" /><path
           id="path8439"
           d="m 470.61,422.39 h 4.83 c 3.75,0 4.14,-0.8 4.14,-2.24 0,-0.36 0,-0.95 -0.34,-2.44 -0.11,-0.25 -0.16,-0.45 -0.16,-0.56 0,-0.39 0.3,-0.59 0.6,-0.59 0.5,0 0.5,0.15 0.75,1.05 l 2.75,10.81 c 0.14,0.54 0.14,0.65 0.14,0.79 0,0.1 -0.1,0.55 -0.6,0.55 -0.5,0 -0.54,-0.25 -0.75,-1.05 -1.04,-3.87 -2.18,-4.78 -6.42,-4.78 h -4.53 l 3.19,12.66 c 0.43,1.75 0.5,1.94 2.68,1.94 h 6.58 c 6.13,0 7.27,-1.64 7.27,-5.47 0,-1.16 0,-1.35 -0.14,-2.7 -0.11,-0.65 -0.11,-0.74 -0.11,-0.9 0,-0.25 0.15,-0.59 0.61,-0.59 0.54,0 0.59,0.3 0.69,1.25 l 1,8.61 c 0.15,1.34 -0.1,1.34 -1.35,1.34 h -24.4 c -1,0 -1.5,0 -1.5,-1 0,-0.54 0.45,-0.54 1.39,-0.54 1.84,0 3.23,0 3.23,-0.89 0,-0.21 0,-0.3 -0.25,-1.21 l -6.56,-26.34 c -0.5,-1.95 -0.61,-2.34 -4.55,-2.34 -0.84,0 -1.39,0 -1.39,-0.96 0,-0.59 0.59,-0.59 0.75,-0.59 1.44,0 5.13,0.16 6.58,0.16 1.64,0 5.78,-0.16 7.42,-0.16 0.45,0 1.05,0 1.05,0.95 0,0.39 -0.3,0.49 -0.3,0.55 -0.16,0.05 -0.25,0.05 -1.39,0.05 -1.11,0 -1.36,0 -2.59,0.09 -1.46,0.16 -1.6,0.36 -1.6,1 0,0.09 0,0.41 0.19,1.14 z"
           inkscape:connector-curvature="0"
           style="fill:#ff6600;stroke:#ff6600;stroke-width:0" /><path
           id="path8441"
           d="m 497.25,393.26 h -0.11 -0.1 -0.1 -0.1 -0.09 -0.09 -0.09 -0.09 l -0.08,0.01 h -0.08 -0.08 -0.08 -0.07 l -0.07,0.01 h -0.07 l -0.07,0.01 h -0.06 l -0.06,0.01 -0.12,0.01 -0.11,0.01 -0.11,0.02 -0.09,0.02 -0.09,0.03 -0.08,0.03 -0.07,0.03 -0.06,0.04 -0.06,0.04 -0.06,0.05 -0.04,0.05 -0.05,0.06 -0.03,0.06 -0.04,0.07 -0.02,0.07 -0.03,0.09 -0.02,0.09 -0.01,0.09 -0.01,0.11 -0.01,0.11 -0.01,0.12 v 0.13 0.13 5.67 c 0.17,-0.17 1.81,-2.01 4.73,-2.01 l -0.2,0.97 c -3.08,0 -4.44,2.68 -4.53,2.89 v 8.09 c 1.04,1.74 3.06,2.64 4.9,2.64 2.92,0 5.19,-3.06 5.19,-6.72 0,-3.98 -2.61,-6.9 -5.56,-6.9 l 0.2,-0.97 c 4.59,0 8.53,3.44 8.53,7.87 0,4.28 -3.54,7.83 -7.97,7.83 -1.98,0 -4.01,-0.72 -5.43,-2.12 v 2.12 l -5.24,-0.37 v -1.25 c 2.44,0 2.63,-0.19 2.63,-1.64 v -16.1 c 0,-1.5 -0.36,-1.5 -2.63,-1.5 V 392 c 0.08,0 2.52,0.14 3.97,0.14 1.3,0 3.7,-0.1 4.02,-0.14 z"
           inkscape:connector-curvature="0"
           style="fill:#ff6600;stroke:#ff6600;stroke-width:0" /></g>    </g>
    <path
       transform="matrix(-0.15858188,0.36923737,-0.3978447,-0.14784466,180.27587,76.145447)"
       inkscape:original-d="m 64.946495,89.598845 c 2.64e-4,4.988767 2.64e-4,9.977798 0,14.967095"
       inkscape:path-effect="#path-effect9346"
       inkscape:connector-curvature="0"
       id="path9344"
       d="M 64.946495,89.598845 V 104.56594"
       style="fill:none;stroke:#ff6600;stroke-width:0.96916062;stroke-linecap:butt;stroke-linejoin:miter;stroke-miterlimit:4;stroke-dasharray:none;stroke-opacity:1;marker-end:url(#marker9350)" />
    <path
       transform="matrix(-1.1019159,-0.42884356,0.44121318,-1.0758678,166.30529,211.23299)"
       inkscape:original-d="m 64.946495,89.598845 c 2.64e-4,4.988767 2.64e-4,9.977798 0,14.967095"
       inkscape:path-effect="#path-effect6418"
       inkscape:connector-curvature="0"
       id="path6416"
       d="M 64.946495,89.598845 V 104.56594"
       style="fill:none;stroke:#008000;stroke-width:0.34115493;stroke-linecap:butt;stroke-linejoin:miter;stroke-miterlimit:4;stroke-dasharray:none;stroke-opacity:1;marker-end:url(#marker6422)" />
  </g>
</svg>
