<?xml version="1.0" encoding="UTF-8" standalone="no"?>
<!-- Created with Inkscape (http://www.inkscape.org/) -->

<svg
   width="210mm"
   height="297mm"
   viewBox="0 0 210 297"
   version="1.1"
   id="svg8"
   inkscape:version="1.3.2 (1:1.3.2+202311252150+091e20ef0f)"
   sodipodi:docname="dioptre_descartes.svg"
   xmlns:inkscape="http://www.inkscape.org/namespaces/inkscape"
   xmlns:sodipodi="http://sodipodi.sourceforge.net/DTD/sodipodi-0.dtd"
   xmlns="http://www.w3.org/2000/svg"
   xmlns:svg="http://www.w3.org/2000/svg"
   xmlns:rdf="http://www.w3.org/1999/02/22-rdf-syntax-ns#"
   xmlns:cc="http://creativecommons.org/ns#"
   xmlns:dc="http://purl.org/dc/elements/1.1/">
  <sodipodi:namedview
     id="base"
     pagecolor="#ffffff"
     bordercolor="#666666"
     borderopacity="1.0"
     inkscape:pageopacity="0.0"
     inkscape:pageshadow="2"
     inkscape:zoom="2.8"
     inkscape:cx="267.67857"
     inkscape:cy="572.32143"
     inkscape:document-units="mm"
     inkscape:current-layer="layer1"
     showgrid="false"
     inkscape:window-width="3440"
     inkscape:window-height="1364"
     inkscape:window-x="0"
     inkscape:window-y="0"
     inkscape:window-maximized="1"
     inkscape:snap-global="true"
     inkscape:showpageshadow="0"
     inkscape:pagecheckerboard="0"
     inkscape:deskcolor="#d1d1d1" />
  <defs
     id="defs2">
    <marker
       inkscape:stockid="Arrow2Lend"
       orient="auto"
       refY="0.0"
       refX="0.0"
       id="marker10753"
       style="overflow:visible;"
       inkscape:isstock="true">
      <path
         id="path10751"
         style="fill-rule:evenodd;stroke-width:0.625;stroke-linejoin:round;stroke:#000000;stroke-opacity:1;fill:#000000;fill-opacity:1"
         d="M 8.7185878,4.0337352 L -2.2072895,0.016013256 L 8.7185884,-4.0017078 C 6.9730900,-1.6296469 6.9831476,1.6157441 8.7185878,4.0337352 z "
         transform="scale(1.1) rotate(180) translate(1,0)" />
    </marker>
    <marker
       inkscape:isstock="true"
       style="overflow:visible;"
       id="marker7698"
       refX="0.0"
       refY="0.0"
       orient="auto"
       inkscape:stockid="Arrow2Lend"
       viewBox="0 0 12.70584107 9.5264135"
       markerWidth="12.70584107"
       markerHeight="9.5264135"
       preserveAspectRatio="xMidYMid">
      <path
         transform="scale(1.1) rotate(180) translate(1,0)"
         d="M 8.7185878,4.0337352 L -2.2072895,0.016013256 L 8.7185884,-4.0017078 C 6.9730900,-1.6296469 6.9831476,1.6157441 8.7185878,4.0337352 z "
         style="fill-rule:evenodd;stroke-width:0.625;stroke-linejoin:round;stroke:#ff0000;stroke-opacity:1;fill:#ff0000;fill-opacity:1"
         id="path7696" />
    </marker>
    <marker
       inkscape:stockid="Arrow2Lstart"
       orient="auto"
       refY="0.0"
       refX="0.0"
       id="marker6212"
       style="overflow:visible"
       inkscape:isstock="true">
      <path
         id="path6210"
         style="fill-rule:evenodd;stroke-width:0.625;stroke-linejoin:round;stroke:#808080;stroke-opacity:1;fill:#808080;fill-opacity:1"
         d="M 8.7185878,4.0337352 L -2.2072895,0.016013256 L 8.7185884,-4.0017078 C 6.9730900,-1.6296469 6.9831476,1.6157441 8.7185878,4.0337352 z "
         transform="scale(1.1) translate(1,0)" />
    </marker>
    <marker
       inkscape:isstock="true"
       style="overflow:visible;"
       id="marker3164"
       refX="0.0"
       refY="0.0"
       orient="auto"
       inkscape:stockid="Arrow1Lend">
      <path
         transform="scale(0.8) rotate(180) translate(12.5,0)"
         style="fill-rule:evenodd;stroke:#000000;stroke-width:1pt;stroke-opacity:1;fill:#000000;fill-opacity:1"
         d="M 0.0,0.0 L 5.0,-5.0 L -12.5,0.0 L 5.0,5.0 L 0.0,0.0 z "
         id="path3162" />
    </marker>
    <marker
       inkscape:isstock="true"
       style="overflow:visible"
       id="marker3106"
       refX="0.0"
       refY="0.0"
       orient="auto"
       inkscape:stockid="Arrow1Lstart">
      <path
         transform="scale(0.8) translate(12.5,0)"
         style="fill-rule:evenodd;stroke:#000000;stroke-width:1pt;stroke-opacity:1;fill:#000000;fill-opacity:1"
         d="M 0.0,0.0 L 5.0,-5.0 L -12.5,0.0 L 5.0,5.0 L 0.0,0.0 z "
         id="path3104" />
    </marker>
    <marker
       inkscape:isstock="true"
       style="overflow:visible;"
       id="marker2686"
       refX="0.0"
       refY="0.0"
       orient="auto"
       inkscape:stockid="Arrow1Lend">
      <path
         transform="scale(0.8) rotate(180) translate(12.5,0)"
         style="fill-rule:evenodd;stroke:#000000;stroke-width:1pt;stroke-opacity:1;fill:#000000;fill-opacity:1"
         d="M 0.0,0.0 L 5.0,-5.0 L -12.5,0.0 L 5.0,5.0 L 0.0,0.0 z "
         id="path2684" />
    </marker>
    <marker
       inkscape:isstock="true"
       style="overflow:visible"
       id="marker2640"
       refX="0.0"
       refY="0.0"
       orient="auto"
       inkscape:stockid="Arrow1Lstart">
      <path
         transform="scale(0.8) translate(12.5,0)"
         style="fill-rule:evenodd;stroke:#000000;stroke-width:1pt;stroke-opacity:1;fill:#000000;fill-opacity:1"
         d="M 0.0,0.0 L 5.0,-5.0 L -12.5,0.0 L 5.0,5.0 L 0.0,0.0 z "
         id="path2638" />
    </marker>
    <marker
       inkscape:isstock="true"
       style="overflow:visible;"
       id="marker1575"
       refX="0.0"
       refY="0.0"
       orient="auto"
       inkscape:stockid="Arrow2Lend">
      <path
         transform="scale(1.1) rotate(180) translate(1,0)"
         d="M 8.7185878,4.0337352 L -2.2072895,0.016013256 L 8.7185884,-4.0017078 C 6.9730900,-1.6296469 6.9831476,1.6157441 8.7185878,4.0337352 z "
         style="fill-rule:evenodd;stroke-width:0.625;stroke-linejoin:round;stroke:#000000;stroke-opacity:1;fill:#000000;fill-opacity:1"
         id="path1573" />
    </marker>
    <marker
       inkscape:isstock="true"
       style="overflow:visible;"
       id="marker1115"
       refX="0.0"
       refY="0.0"
       orient="auto"
       inkscape:stockid="Arrow2Lend">
      <path
         transform="scale(1.1) rotate(180) translate(1,0)"
         d="M 8.7185878,4.0337352 L -2.2072895,0.016013256 L 8.7185884,-4.0017078 C 6.9730900,-1.6296469 6.9831476,1.6157441 8.7185878,4.0337352 z "
         style="fill-rule:evenodd;stroke-width:0.625;stroke-linejoin:round;stroke:#000000;stroke-opacity:1;fill:#000000;fill-opacity:1"
         id="path1113" />
    </marker>
    <marker
       inkscape:stockid="Arrow2Lstart"
       orient="auto"
       refY="0"
       refX="0"
       id="marker6212-8"
       style="overflow:visible"
       inkscape:isstock="true">
      <path
         inkscape:connector-curvature="0"
         id="path6210-3"
         style="fill:#808080;fill-opacity:1;fill-rule:evenodd;stroke:#808080;stroke-width:0.625;stroke-linejoin:round;stroke-opacity:1"
         d="M 8.7185878,4.0337352 -2.2072895,0.01601326 8.7185884,-4.0017078 c -1.7454984,2.3720609 -1.7354408,5.6174519 -6e-7,8.035443 z"
         transform="matrix(1.1,0,0,1.1,1.1,0)" />
    </marker>
  </defs>
  <metadata
     id="metadata5">
    <rdf:RDF>
      <cc:Work
         rdf:about="">
        <dc:format>image/svg+xml</dc:format>
        <dc:type
           rdf:resource="http://purl.org/dc/dcmitype/StillImage" />
        <dc:title />
      </cc:Work>
    </rdf:RDF>
  </metadata>
  <g
     inkscape:label="Calque 1"
     inkscape:groupmode="layer"
     id="layer1">
    <rect
       style="opacity:0.3;fill:#808080;fill-opacity:1;fill-rule:evenodd;stroke:none;stroke-width:0.80000001;stroke-linecap:butt;stroke-linejoin:round;stroke-miterlimit:4;stroke-dasharray:none;stroke-dashoffset:0;stroke-opacity:1"
       id="rect10231"
       width="82.850693"
       height="21.66433"
       x="28.348215"
       y="151.85713"
       inkscape:export-filename="dioptre_descartes.pdf"
       inkscape:export-xdpi="96"
       inkscape:export-ydpi="96" />
    <path
       style="fill:none;stroke:#000000;stroke-width:0.26499999;stroke-linecap:butt;stroke-linejoin:miter;stroke-miterlimit:4;stroke-dasharray:none;stroke-opacity:1"
       d="M 28.348215,151.85714 H 111.2195"
       id="path815"
       inkscape:connector-curvature="0" />
    <path
       inkscape:connector-curvature="0"
       id="path6194"
       d="M 58.67936,173.32431 V 132.79506"
       style="fill:none;stroke:#000000;stroke-width:0.265;stroke-linecap:butt;stroke-linejoin:miter;stroke-miterlimit:4;stroke-dasharray:0.79499996,0.79499996;stroke-dashoffset:0;stroke-opacity:1" />
    <path
       inkscape:connector-curvature="0"
       id="path8488"
       d="m 30.844178,132.7406 27.868729,19.12394"
       style="fill:none;stroke:#ff1919;stroke-width:0.26499996;stroke-linecap:butt;stroke-linejoin:miter;stroke-miterlimit:4;stroke-dasharray:none;stroke-opacity:1" />
    <path
       style="fill:none;fill-rule:evenodd;stroke:#0000ff;stroke-width:0.26459429"
       id="path8818"
       sodipodi:type="arc"
       sodipodi:cx="107.63741"
       sodipodi:cy="-121.97061"
       sodipodi:rx="7.132875"
       sodipodi:ry="6.2977223"
       sodipodi:start="1.7966369"
       sodipodi:end="2.5815897"
       sodipodi:open="true"
       d="m 106.04018,-115.83281 a 7.132875,6.2977223 0 0 1 -4.44612,-2.79252"
       transform="matrix(-0.45600971,0.8899748,-0.88403235,-0.46742573,0,0)" />
    <path
       style="fill:none;stroke:#ff1919;stroke-width:0.26499996;stroke-linecap:butt;stroke-linejoin:miter;stroke-miterlimit:4;stroke-dasharray:none;stroke-opacity:1"
       d="m 54.127526,132.7406 27.868729,19.12394"
       id="path10327"
       inkscape:connector-curvature="0" />
    <path
       style="fill:none;stroke:#ff1919;stroke-width:0.265;stroke-linecap:butt;stroke-linejoin:miter;stroke-miterlimit:4;stroke-dasharray:none;stroke-opacity:1;marker-end:url(#marker7698)"
       d="M 58.744445,151.86775 69.36922,173.21298"
       id="path10329"
       inkscape:connector-curvature="0" />
    <path
       style="fill:none;stroke:#ff1919;stroke-width:0.265;stroke-linecap:butt;stroke-linejoin:miter;stroke-miterlimit:4;stroke-dasharray:none;stroke-opacity:1;marker-end:url(#marker7698)"
       d="M 81.999009,152.00047 92.623784,173.3457"
       id="path10329-7"
       inkscape:connector-curvature="0" />
    <path
       transform="matrix(0.59699033,-0.80224843,0.79449885,0.60726565,0,0)"
       d="m -89.145652,145.64562 a 7.132875,6.2977223 0 0 1 -3.46645,-1.80746"
       sodipodi:open="true"
       sodipodi:end="2.3903347"
       sodipodi:start="1.8181599"
       sodipodi:ry="6.2977223"
       sodipodi:rx="7.132875"
       sodipodi:cy="139.5396"
       sodipodi:cx="-87.399178"
       sodipodi:type="arc"
       id="path10333"
       style="fill:none;fill-rule:evenodd;stroke:#0000ff;stroke-width:0.264594"
       sodipodi:arc-type="arc" />
    <g
       id="g10370"
       transform="matrix(0.39999998,0,0,0.39999998,19.644657,116.85495)"
       style="stroke-width:2.5">
      <g
         word-spacing="normal"
         letter-spacing="normal"
         font-size-adjust="none"
         font-stretch="normal"
         font-weight="normal"
         font-variant="normal"
         font-style="normal"
         stroke-miterlimit="10.433"
         xml:space="preserve"
         transform="matrix(0.3,0,0,-0.3,-52.5,222.75)"
         id="content"
         style="font-style:normal;font-variant:normal;font-weight:normal;font-stretch:normal;letter-spacing:normal;word-spacing:normal;text-anchor:start;fill:none;fill-opacity:1;fill-rule:evenodd;stroke:#000000;stroke-width:2.5;stroke-linecap:butt;stroke-linejoin:miter;stroke-miterlimit:10.43299961;stroke-dasharray:none;stroke-dashoffset:0;stroke-opacity:1"><path
           id="path10367"
           d="m 475.35,440.87 -0.03,0.06 -0.02,0.06 -0.02,0.06 -0.02,0.05 -0.02,0.06 -0.02,0.05 -0.02,0.05 -0.02,0.04 -0.03,0.05 -0.02,0.04 -0.02,0.05 -0.02,0.04 -0.03,0.03 -0.02,0.04 -0.03,0.03 -0.03,0.04 -0.03,0.03 -0.03,0.03 -0.03,0.02 -0.04,0.03 -0.04,0.02 -0.04,0.02 -0.04,0.02 -0.04,0.02 -0.05,0.01 -0.05,0.01 -0.06,0.02 h -0.06 l -0.06,0.01 -0.06,0.01 h -0.07 -0.04 -0.03 c -0.8,0 -0.96,-0.3 -1.21,-1 l -10.31,-29.8 c -0.89,-2.53 -2.89,-3.28 -5.58,-3.32 v -1.55 c 1.14,0.05 3.28,0.16 5.08,0.16 1.55,0 4.14,-0.11 5.74,-0.16 v 1.55 c -2.49,0 -3.74,1.25 -3.74,2.53 0,0.15 0.05,0.65 0.1,0.75 l 2.29,6.53 0.55,1.55 5.58,16.18 5.62,-16.18 h -11.2 l -0.55,-1.55 h 12.3 l 2.64,-7.63 c 0.06,-0.2 0.16,-0.5 0.16,-0.68 0,-1.5 -2.8,-1.5 -4.14,-1.5 v -1.55 c 1.79,0.16 5.28,0.16 7.18,0.16 2.14,0 4.42,-0.07 6.52,-0.16 v 1.55 h -0.89 c -3,0 -3.69,0.34 -4.24,1.98 z"
           inkscape:connector-curvature="0"
           style="fill:#000000;stroke-width:0" /></g>
    </g>
    <g
       id="g10416"
       transform="matrix(0.39999998,0,0,0.39999998,44.125797,116.81356)"
       style="stroke-width:2.5">
      <g
         word-spacing="normal"
         letter-spacing="normal"
         font-size-adjust="none"
         font-stretch="normal"
         font-weight="normal"
         font-variant="normal"
         font-style="normal"
         stroke-miterlimit="10.433"
         xml:space="preserve"
         transform="matrix(0.3,0,0,-0.3,-52.5,222.75)"
         id="g10414"
         style="font-style:normal;font-variant:normal;font-weight:normal;font-stretch:normal;letter-spacing:normal;word-spacing:normal;text-anchor:start;fill:none;fill-opacity:1;fill-rule:evenodd;stroke:#000000;stroke-width:2.5;stroke-linecap:butt;stroke-linejoin:miter;stroke-miterlimit:10.43299961;stroke-dasharray:none;stroke-dashoffset:0;stroke-opacity:1"><path
           id="path10412"
           d="m 478.33,423.98 0.45,0.1 0.44,0.1 0.44,0.13 0.42,0.13 0.41,0.14 0.4,0.16 0.4,0.17 0.38,0.18 0.37,0.19 0.36,0.2 0.35,0.21 0.33,0.21 0.32,0.23 0.31,0.24 0.3,0.25 0.28,0.25 0.27,0.26 0.25,0.27 0.24,0.28 0.22,0.28 0.21,0.29 0.19,0.3 0.17,0.3 0.16,0.31 0.14,0.32 0.12,0.32 0.11,0.32 0.09,0.33 0.06,0.34 0.05,0.33 0.03,0.34 0.01,0.35 c 0,4.33 -4.59,8.42 -11.06,8.42 l -0.36,-1.55 c 4.85,0 6.58,-4.23 6.58,-6.87 0,-3.19 -2.44,-7.38 -7.97,-7.38 h -7.22 v -1.09 h 9.36 c 4.94,0 7.03,-4.64 7.03,-7.97 0,-3.55 -2.59,-7.62 -7.72,-7.62 v 0 h -6.23 c -2.34,0 -2.44,0.34 -2.44,1.98 v 13.61 1.09 12.25 c 0,1.66 0.1,2 2.44,2 h 6.17 l 0.36,1.55 h -18.23 v -1.55 h 1.18 c 3.85,0 3.94,-0.54 3.94,-2.34 v -26.25 c 0,-1.8 -0.09,-2.34 -3.94,-2.34 h -1.18 v -1.55 h 19.53 c 6.62,0 11.11,4.44 11.11,9.12 0,4.33 -4.1,8.07 -9.63,8.66 z"
           inkscape:connector-curvature="0"
           style="fill:#000000;stroke-width:0" /></g>
    </g>
    <g
       inkscape:label=""
       transform="translate(33.150756,144.17584)"
       id="g1">
      <g
         id="surface1"
         transform="matrix(0.352778,0,0,0.352778,-0.84089,-0.649773)">
        <g
           style="fill:#000000;fill-opacity:1"
           id="g5">
          <g
             id="use4"
             transform="translate(1.993,8.1700001)">
            <path
               style="stroke:none"
               d="M 2.953125,-4.203125 C 2.984375,-4.28125 3.34375,-5 3.875,-5.46875 c 0.375,-0.34375 0.859375,-0.5625 1.421875,-0.5625 0.5625,0 0.765625,0.421875 0.765625,1 0,0.8125 -0.578125,2.453125 -0.875,3.21875 -0.125,0.34375 -0.203125,0.53125 -0.203125,0.796875 0,0.640625 0.453125,1.15625 1.140625,1.15625 1.328125,0 1.828125,-2.109375 1.828125,-2.1875 C 7.953125,-2.125 7.90625,-2.1875 7.8125,-2.1875 c -0.125,0 -0.140625,0.046875 -0.203125,0.296875 -0.34375,1.171875 -0.875,1.75 -1.4375,1.75 -0.140625,0 -0.375,-0.015625 -0.375,-0.46875 0,-0.359375 0.15625,-0.796875 0.234375,-1 C 6.328125,-2.390625 6.921875,-4 6.921875,-4.8125 c 0,-0.875 -0.5,-1.515625 -1.59375,-1.515625 -1.265625,0 -1.9375,0.90625 -2.203125,1.265625 C 3.078125,-5.875 2.5,-6.328125 1.859375,-6.328125 c -0.453125,0 -0.765625,0.28125 -1.015625,0.765625 -0.25,0.515625 -0.453125,1.375 -0.453125,1.4375 0,0.046875 0.046875,0.125 0.15625,0.125 0.109375,0 0.125,-0.015625 0.21875,-0.34375 0.21875,-0.875 0.484375,-1.6875 1.0625,-1.6875 0.328125,0 0.4375,0.21875 0.4375,0.65625 0,0.3125 -0.140625,0.875 -0.25,1.3125 L 1.625,-2.515625 c -0.0625,0.28125 -0.21875,0.921875 -0.296875,1.1875 -0.09375,0.359375 -0.25,1.046875 -0.25,1.109375 0,0.203125 0.15625,0.359375 0.375,0.359375 0.171875,0 0.375,-0.078125 0.484375,-0.296875 0.03125,-0.078125 0.15625,-0.578125 0.234375,-0.859375 l 0.3125,-1.296875 z m 0,0"
               id="path6" />
          </g>
        </g>
        <g
           style="fill:#000000;fill-opacity:1"
           id="g6">
          <g
             id="use5"
             transform="translate(10.378,10.321)">
            <path
               style="stroke:none"
               d="m 3.203125,-6.984375 c 0,-0.25 0,-0.28125 -0.25,-0.28125 C 2.28125,-6.5625 1.3125,-6.5625 0.96875,-6.5625 v 0.328125 c 0.21875,0 0.859375,0 1.4375,-0.28125 v 5.65625 c 0,0.390625 -0.046875,0.515625 -1.015625,0.515625 H 1.03125 V 0 c 0.390625,-0.03125 1.328125,-0.03125 1.765625,-0.03125 0.4375,0 1.390625,0 1.765625,0.03125 V -0.34375 H 4.21875 c -0.984375,0 -1.015625,-0.109375 -1.015625,-0.515625 z m 0,0"
               id="path7" />
          </g>
        </g>
      </g>
    </g>
    <g
       inkscape:label=""
       transform="translate(33.092878,159.51423)"
       id="g9">
      <g
         id="g8"
         transform="matrix(0.352778,0,0,0.352778,-0.84089,-0.649773)">
        <g
           style="fill:#000000;fill-opacity:1"
           id="g3">
          <g
             id="g2"
             transform="translate(1.993,8.1700001)">
            <path
               style="stroke:none"
               d="M 2.953125,-4.203125 C 2.984375,-4.28125 3.34375,-5 3.875,-5.46875 c 0.375,-0.34375 0.859375,-0.5625 1.421875,-0.5625 0.5625,0 0.765625,0.421875 0.765625,1 0,0.8125 -0.578125,2.453125 -0.875,3.21875 -0.125,0.34375 -0.203125,0.53125 -0.203125,0.796875 0,0.640625 0.453125,1.15625 1.140625,1.15625 1.328125,0 1.828125,-2.109375 1.828125,-2.1875 C 7.953125,-2.125 7.90625,-2.1875 7.8125,-2.1875 c -0.125,0 -0.140625,0.046875 -0.203125,0.296875 -0.34375,1.171875 -0.875,1.75 -1.4375,1.75 -0.140625,0 -0.375,-0.015625 -0.375,-0.46875 0,-0.359375 0.15625,-0.796875 0.234375,-1 C 6.328125,-2.390625 6.921875,-4 6.921875,-4.8125 c 0,-0.875 -0.5,-1.515625 -1.59375,-1.515625 -1.265625,0 -1.9375,0.90625 -2.203125,1.265625 C 3.078125,-5.875 2.5,-6.328125 1.859375,-6.328125 c -0.453125,0 -0.765625,0.28125 -1.015625,0.765625 -0.25,0.515625 -0.453125,1.375 -0.453125,1.4375 0,0.046875 0.046875,0.125 0.15625,0.125 0.109375,0 0.125,-0.015625 0.21875,-0.34375 0.21875,-0.875 0.484375,-1.6875 1.0625,-1.6875 0.328125,0 0.4375,0.21875 0.4375,0.65625 0,0.3125 -0.140625,0.875 -0.25,1.3125 L 1.625,-2.515625 c -0.0625,0.28125 -0.21875,0.921875 -0.296875,1.1875 -0.09375,0.359375 -0.25,1.046875 -0.25,1.109375 0,0.203125 0.15625,0.359375 0.375,0.359375 0.171875,0 0.375,-0.078125 0.484375,-0.296875 0.03125,-0.078125 0.15625,-0.578125 0.234375,-0.859375 l 0.3125,-1.296875 z m 0,0"
               id="path1" />
          </g>
        </g>
        <g
           style="fill:#000000;fill-opacity:1"
           id="g7">
          <g
             id="g4"
             transform="translate(10.378,10.321)">
            <path
               style="stroke:none"
               d="m 1.390625,-0.84375 1.15625,-1.125 c 1.703125,-1.5 2.34375,-2.09375 2.34375,-3.171875 0,-1.25 -0.96875,-2.125 -2.3125,-2.125 -1.21875,0 -2.03125,1 -2.03125,1.96875 0,0.625 0.546875,0.625 0.578125,0.625 0.1875,0 0.5625,-0.140625 0.5625,-0.578125 0,-0.296875 -0.1875,-0.578125 -0.578125,-0.578125 -0.078125,0 -0.109375,0 -0.140625,0.015625 0.25,-0.703125 0.84375,-1.109375 1.46875,-1.109375 1,0 1.46875,0.875 1.46875,1.78125 0,0.859375 -0.546875,1.734375 -1.140625,2.40625 l -2.09375,2.328125 c -0.125,0.125 -0.125,0.140625 -0.125,0.40625 H 4.59375 L 4.890625,-1.890625 H 4.625 C 4.5625,-1.578125 4.5,-1.09375 4.390625,-0.921875 4.3125,-0.84375 3.59375,-0.84375 3.34375,-0.84375 Z m 0,0"
               id="path3" />
          </g>
        </g>
      </g>
    </g>
    <g
       inkscape:label=""
       transform="translate(52.435869,141.08426)"
       id="g15"
       style="fill:#1100f1;fill-opacity:1;stroke:none;stroke-opacity:1">
      <g
         id="g14"
         transform="matrix(0.352778,0,0,0.352778,-0.907036,-0.656961)"
         style="fill:#1100f1;fill-opacity:1;stroke:none;stroke-opacity:1">
        <g
           style="fill:#1100f1;fill-opacity:1;stroke:none;stroke-opacity:1"
           id="g11">
          <g
             id="g10"
             transform="translate(1.993,11.956)"
             style="fill:#1100f1;fill-opacity:1;stroke:none;stroke-opacity:1">
            <path
               style="fill:#1100f1;fill-opacity:1;stroke:none;stroke-opacity:1"
               d="m 6.359375,-7.21875 c 0,-1.453125 -0.46875,-2.875 -1.640625,-2.875 -2,0 -4.140625,4.203125 -4.140625,7.359375 0,0.65625 0.140625,2.875 1.640625,2.875 1.953125,0 4.140625,-4.09375 4.140625,-7.359375 z M 2.015625,-5.1875 C 2.21875,-6.03125 2.53125,-7.25 3.09375,-8.265625 3.578125,-9.125 4.078125,-9.8125 4.703125,-9.8125 5.171875,-9.8125 5.5,-9.40625 5.5,-8.03125 5.5,-7.515625 5.453125,-6.796875 5.03125,-5.1875 Z M 4.9375,-4.765625 c -0.359375,1.40625 -0.65625,2.3125 -1.171875,3.21875 -0.421875,0.734375 -0.921875,1.40625 -1.53125,1.40625 -0.4375,0 -0.796875,-0.34375 -0.796875,-1.765625 0,-0.9375 0.21875,-1.90625 0.453125,-2.859375 z m 0,0"
               id="path9" />
          </g>
        </g>
        <g
           style="fill:#1100f1;fill-opacity:1;stroke:none;stroke-opacity:1"
           id="g13">
          <g
             id="g12"
             transform="translate(8.5389996,14.107)"
             style="fill:#1100f1;fill-opacity:1;stroke:none;stroke-opacity:1">
            <path
               style="fill:#1100f1;fill-opacity:1;stroke:none;stroke-opacity:1"
               d="m 3.203125,-6.984375 c 0,-0.25 0,-0.28125 -0.25,-0.28125 C 2.28125,-6.5625 1.3125,-6.5625 0.96875,-6.5625 v 0.328125 c 0.21875,0 0.859375,0 1.4375,-0.28125 v 5.65625 c 0,0.390625 -0.046875,0.515625 -1.015625,0.515625 H 1.03125 V 0 c 0.390625,-0.03125 1.328125,-0.03125 1.765625,-0.03125 0.4375,0 1.390625,0 1.765625,0.03125 V -0.34375 H 4.21875 c -0.984375,0 -1.015625,-0.109375 -1.015625,-0.515625 z m 0,0"
               id="path11" />
          </g>
        </g>
      </g>
    </g>
    <g
       inkscape:label=""
       transform="translate(60.315716,163.70909)"
       id="g21"
       style="fill:#1100f1;fill-opacity:1;stroke:none;stroke-opacity:1">
      <g
         id="g20"
         transform="matrix(0.352778,0,0,0.352778,-0.907036,-0.656961)"
         style="fill:#1100f1;fill-opacity:1;stroke:none;stroke-opacity:1">
        <g
           style="fill:#1100f1;fill-opacity:1;stroke:none;stroke-opacity:1"
           id="g17">
          <g
             id="g16"
             transform="translate(1.993,11.956)"
             style="fill:#1100f1;fill-opacity:1;stroke:none;stroke-opacity:1">
            <path
               style="stroke:none;fill:#1100f1;fill-opacity:1;stroke-opacity:1"
               d="m 6.359375,-7.21875 c 0,-1.453125 -0.46875,-2.875 -1.640625,-2.875 -2,0 -4.140625,4.203125 -4.140625,7.359375 0,0.65625 0.140625,2.875 1.640625,2.875 1.953125,0 4.140625,-4.09375 4.140625,-7.359375 z M 2.015625,-5.1875 C 2.21875,-6.03125 2.53125,-7.25 3.09375,-8.265625 3.578125,-9.125 4.078125,-9.8125 4.703125,-9.8125 5.171875,-9.8125 5.5,-9.40625 5.5,-8.03125 5.5,-7.515625 5.453125,-6.796875 5.03125,-5.1875 Z M 4.9375,-4.765625 c -0.359375,1.40625 -0.65625,2.3125 -1.171875,3.21875 -0.421875,0.734375 -0.921875,1.40625 -1.53125,1.40625 -0.4375,0 -0.796875,-0.34375 -0.796875,-1.765625 0,-0.9375 0.21875,-1.90625 0.453125,-2.859375 z m 0,0"
               id="path15" />
          </g>
        </g>
        <g
           style="fill:#1100f1;fill-opacity:1;stroke:none;stroke-opacity:1"
           id="g19">
          <g
             id="g18"
             transform="translate(8.5389996,14.107)"
             style="fill:#1100f1;fill-opacity:1;stroke:none;stroke-opacity:1">
            <path
               style="stroke:none;fill:#1100f1;fill-opacity:1;stroke-opacity:1"
               d="m 1.390625,-0.84375 1.15625,-1.125 c 1.703125,-1.5 2.34375,-2.09375 2.34375,-3.171875 0,-1.25 -0.96875,-2.125 -2.3125,-2.125 -1.21875,0 -2.03125,1 -2.03125,1.96875 0,0.625 0.546875,0.625 0.578125,0.625 0.1875,0 0.5625,-0.140625 0.5625,-0.578125 0,-0.296875 -0.1875,-0.578125 -0.578125,-0.578125 -0.078125,0 -0.109375,0 -0.140625,0.015625 0.25,-0.703125 0.84375,-1.109375 1.46875,-1.109375 1,0 1.46875,0.875 1.46875,1.78125 0,0.859375 -0.546875,1.734375 -1.140625,2.40625 l -2.09375,2.328125 c -0.125,0.125 -0.125,0.140625 -0.125,0.40625 H 4.59375 L 4.890625,-1.890625 H 4.625 C 4.5625,-1.578125 4.5,-1.09375 4.390625,-0.921875 4.3125,-0.84375 3.59375,-0.84375 3.34375,-0.84375 Z m 0,0"
               id="path17" />
          </g>
        </g>
      </g>
    </g>
  </g>
</svg>
