<?xml version="1.0" encoding="UTF-8" standalone="no"?>
<!-- Created with Inkscape (http://www.inkscape.org/) -->

<svg
   xmlns:dc="http://purl.org/dc/elements/1.1/"
   xmlns:cc="http://creativecommons.org/ns#"
   xmlns:rdf="http://www.w3.org/1999/02/22-rdf-syntax-ns#"
   xmlns:svg="http://www.w3.org/2000/svg"
   xmlns="http://www.w3.org/2000/svg"
   xmlns:sodipodi="http://sodipodi.sourceforge.net/DTD/sodipodi-0.dtd"
   xmlns:inkscape="http://www.inkscape.org/namespaces/inkscape"
   width="210mm"
   height="297mm"
   viewBox="0 0 210 297"
   version="1.1"
   id="svg8"
   inkscape:version="0.92.5 (2060ec1f9f, 2020-04-08)"
   sodipodi:docname="vphi_vg.svg">
  <defs
     id="defs2">
    <marker
       inkscape:stockid="Arrow2Lend"
       orient="auto"
       refY="0.0"
       refX="0.0"
       id="marker3694"
       style="overflow:visible;"
       inkscape:isstock="true">
      <path
         id="path3692"
         style="fill-rule:evenodd;stroke-width:0.625;stroke-linejoin:round;stroke:#ff0000;stroke-opacity:1;fill:#ff0000;fill-opacity:1"
         d="M 8.7185878,4.0337352 L -2.2072895,0.016013256 L 8.7185884,-4.0017078 C 6.9730900,-1.6296469 6.9831476,1.6157441 8.7185878,4.0337352 z "
         transform="scale(1.1) rotate(180) translate(1,0)" />
    </marker>
    <marker
       inkscape:isstock="true"
       style="overflow:visible;"
       id="marker2766"
       refX="0.0"
       refY="0.0"
       orient="auto"
       inkscape:stockid="Arrow2Lend"
       inkscape:collect="always">
      <path
         transform="scale(1.1) rotate(180) translate(1,0)"
         d="M 8.7185878,4.0337352 L -2.2072895,0.016013256 L 8.7185884,-4.0017078 C 6.9730900,-1.6296469 6.9831476,1.6157441 8.7185878,4.0337352 z "
         style="fill-rule:evenodd;stroke-width:0.625;stroke-linejoin:round;stroke:#008000;stroke-opacity:1;fill:#008000;fill-opacity:1"
         id="path2764" />
    </marker>
    <marker
       inkscape:stockid="Arrow2Lend"
       orient="auto"
       refY="0.0"
       refX="0.0"
       id="marker2732"
       style="overflow:visible;"
       inkscape:isstock="true">
      <path
         id="path2730"
         style="fill-rule:evenodd;stroke-width:0.625;stroke-linejoin:round;stroke:#ff0000;stroke-opacity:1;fill:#ff0000;fill-opacity:1"
         d="M 8.7185878,4.0337352 L -2.2072895,0.016013256 L 8.7185884,-4.0017078 C 6.9730900,-1.6296469 6.9831476,1.6157441 8.7185878,4.0337352 z "
         transform="scale(1.1) rotate(180) translate(1,0)" />
    </marker>
    <inkscape:path-effect
       is_visible="true"
       id="path-effect1170"
       effect="spiro" />
    <inkscape:path-effect
       effect="spiro"
       id="path-effect1166"
       is_visible="true" />
    <inkscape:path-effect
       effect="bspline"
       id="path-effect1160"
       is_visible="true"
       weight="33.333333"
       steps="2"
       helper_size="0"
       apply_no_weight="true"
       apply_with_weight="true"
       only_selected="false" />
  </defs>
  <sodipodi:namedview
     id="base"
     pagecolor="#ffffff"
     bordercolor="#666666"
     borderopacity="1.0"
     inkscape:pageopacity="0.0"
     inkscape:pageshadow="2"
     inkscape:zoom="0.49497475"
     inkscape:cx="-119.71961"
     inkscape:cy="475.51454"
     inkscape:document-units="mm"
     inkscape:current-layer="layer1"
     showgrid="false"
     inkscape:snap-global="false"
     inkscape:window-width="1848"
     inkscape:window-height="1016"
     inkscape:window-x="72"
     inkscape:window-y="27"
     inkscape:window-maximized="1" />
  <metadata
     id="metadata5">
    <rdf:RDF>
      <cc:Work
         rdf:about="">
        <dc:format>image/svg+xml</dc:format>
        <dc:type
           rdf:resource="http://purl.org/dc/dcmitype/StillImage" />
        <dc:title></dc:title>
      </cc:Work>
    </rdf:RDF>
  </metadata>
  <g
     inkscape:label="Calque 1"
     inkscape:groupmode="layer"
     id="layer1">
    <g
       id="g1030"
       transform="translate(-81.23847,-18.349302)">
      <g
         word-spacing="normal"
         letter-spacing="normal"
         font-size-adjust="none"
         font-stretch="normal"
         font-weight="normal"
         font-variant="normal"
         font-style="normal"
         stroke-miterlimit="10.433"
         xml:space="preserve"
         transform="matrix(0.3,0,0,-0.3,-52.5,222.75)"
         id="content"
         style="font-style:normal;font-variant:normal;font-weight:normal;font-stretch:normal;letter-spacing:normal;word-spacing:normal;text-anchor:start;fill:none;fill-opacity:1;fill-rule:evenodd;stroke:#000000;stroke-linecap:butt;stroke-linejoin:miter;stroke-miterlimit:10.43299961;stroke-dasharray:none;stroke-dashoffset:0;stroke-opacity:1"><path
           id="path1019"
           d="m 465.79,426.12 h 4.68 c 0.99,0 1.49,0 1.49,1 0,0.55 -0.5,0.55 -1.39,0.55 h -4.39 c 1.79,7.08 2.04,8.08 2.04,8.37 0,0.85 -0.59,1.35 -1.43,1.35 -0.16,0 -1.55,-0.05 -2,-1.8 l -1.94,-7.92 h -4.69 c -1,0 -1.5,0 -1.5,-0.94 0,-0.61 0.41,-0.61 1.41,-0.61 h 4.37 c -3.58,-14.14 -3.78,-14.98 -3.78,-15.89 0,-2.69 1.89,-4.58 4.58,-4.58 5.08,0 7.92,7.27 7.92,7.67 0,0.5 -0.39,0.5 -0.59,0.5 -0.46,0 -0.5,-0.15 -0.75,-0.7 -2.14,-5.17 -4.78,-6.37 -6.47,-6.37 -1.05,0 -1.55,0.65 -1.55,2.29 0,1.19 0.09,1.55 0.3,2.39 z"
           inkscape:connector-curvature="0"
           style="fill:#000000;stroke-width:0" /><path
           id="path1021"
           d="m 521.68,422.5 h 0.14 0.14 0.14 l 0.08,0.01 h 0.07 l 0.07,0.01 0.07,0.01 0.07,0.01 0.07,0.01 0.07,0.01 0.07,0.02 0.06,0.02 0.06,0.02 0.07,0.02 0.05,0.03 0.06,0.03 0.05,0.04 0.05,0.03 0.05,0.05 0.04,0.04 0.04,0.05 0.02,0.03 0.02,0.03 0.01,0.02 0.02,0.03 0.01,0.03 0.02,0.04 0.01,0.03 0.01,0.04 0.01,0.03 0.01,0.04 0.01,0.04 v 0.04 l 0.01,0.04 v 0.04 0.04 0.05 c 0,1 -0.95,1 -1.64,1 h -29.84 c -0.7,0 -1.64,0 -1.64,-1 0,-0.98 0.94,-0.98 1.69,-0.98 z"
           inkscape:connector-curvature="0"
           style="fill:#000000;stroke-width:0" /><path
           id="path1023"
           d="m 521.72,412.82 h 0.07 0.06 l 0.14,0.01 h 0.14 0.07 l 0.07,0.01 0.07,0.01 h 0.07 l 0.07,0.01 0.06,0.02 0.07,0.01 0.07,0.02 0.06,0.02 0.06,0.02 0.06,0.02 0.06,0.03 0.05,0.03 0.06,0.04 0.04,0.04 0.05,0.04 0.04,0.05 0.02,0.02 0.02,0.03 0.02,0.02 0.02,0.03 0.02,0.03 0.01,0.03 0.01,0.03 0.02,0.03 0.01,0.04 0.01,0.03 0.01,0.04 0.01,0.04 0.01,0.04 v 0.04 l 0.01,0.04 v 0.04 0.05 0.04 c 0,1 -0.95,1 -1.68,1 h -29.75 c -0.75,0 -1.69,0 -1.69,-1 0,-1 0.94,-1 1.64,-1 z"
           inkscape:connector-curvature="0"
           style="fill:#000000;stroke-width:0" /><path
           id="path1025"
           d="m 550.26,426.12 h 4.69 c 0.98,0 1.48,0 1.48,1 0,0.55 -0.5,0.55 -1.39,0.55 h -4.39 c 1.8,7.08 2.05,8.08 2.05,8.37 0,0.85 -0.6,1.35 -1.44,1.35 -0.16,0 -1.54,-0.05 -2,-1.8 l -1.94,-7.92 h -4.68 c -1,0 -1.5,0 -1.5,-0.94 0,-0.61 0.4,-0.61 1.4,-0.61 h 4.38 c -3.58,-14.14 -3.78,-14.98 -3.78,-15.89 0,-2.69 1.89,-4.58 4.58,-4.58 5.07,0 7.92,7.27 7.92,7.67 0,0.5 -0.39,0.5 -0.6,0.5 -0.45,0 -0.5,-0.15 -0.75,-0.7 -2.14,-5.17 -4.78,-6.37 -6.47,-6.37 -1.04,0 -1.54,0.65 -1.54,2.29 0,1.19 0.09,1.55 0.29,2.39 z"
           inkscape:connector-curvature="0"
           style="fill:#000000;stroke-width:0" /><path
           id="path1027"
           d="m 575.98,409.87 v 0.71 l -0.02,0.68 -0.03,0.66 -0.04,0.64 -0.06,0.62 -0.07,0.6 -0.09,0.57 -0.11,0.56 -0.13,0.55 -0.15,0.53 -0.17,0.51 -0.19,0.5 -0.21,0.49 -0.24,0.48 -0.26,0.47 -0.14,0.23 -0.15,0.23 c -1.08,1.61 -3.23,3 -6.03,3 v -0.98 c 1.89,0 3.7,-1.14 4.33,-3.17 0.56,-1.88 0.59,-4.39 0.59,-7.43 0,-2.57 0,-5.15 -0.45,-7.34 -0.7,-3.17 -3.06,-3.94 -4.47,-3.94 v 0 c -1.59,0 -3.72,0.94 -4.42,3.8 -0.49,2.05 -0.49,4.91 -0.49,7.48 0,2.55 0,5.21 0.52,7.11 0.73,2.75 2.97,3.49 4.39,3.49 v 0.98 c -8.08,0 -8.08,-9.51 -8.08,-12.03 0,-2.5 0,-11.81 8.08,-11.81 8.09,0 8.09,9.31 8.09,11.81 z"
           inkscape:connector-curvature="0"
           style="fill:#000000;stroke-width:0" /></g>    </g>
    <g
       id="g2863"
       transform="matrix(1.2997917,0,0,1.2997922,147.26147,257.80705)"
       style="stroke-width:0.76935393">
      <circle
         r="2.4568453"
         cy="-150.5238"
         cx="6.3783488"
         id="path2855"
         style="fill:#008000;fill-rule:evenodd;stroke:none;stroke-width:0.20355821" />
      <g
         transform="translate(-106.37327,-111.18412)"
         id="g2813"
         style="stroke-width:0.76935393">
        <path
           sodipodi:nodetypes="cccccccccccc"
           transform="matrix(1,0,0,2.7591239,97.517857,-210.47186)"
           inkscape:original-d="m -32.033482,66.434514 c 2.709095,-0.598726 5.417923,-1.197189 8.126488,-1.795386 2.488325,2.550785 4.976951,5.102413 7.46503,7.654018 2.646101,-4.189508 5.291931,-8.378738 7.9374999,-12.567708 2.5199202,5.574471 5.039947,11.150031 7.55952363,16.725444 2.74065107,-6.929977 5.48091927,-13.859391 8.22098207,-20.78869 2.5829828,7.590409 5.1659394,15.181781 7.7485114,22.773065 2.772148,-7.622939 5.543916,-15.245302 8.315477,-22.867559 2.677483,7.212481 5.354926,14.425827 8.031994,21.639139 2.646151,-6.299997 5.291931,-12.599472 7.9375,-18.898812 2.488398,4.21645 4.976772,8.433403 7.46503,12.650705 3.717298,-1.719446 7.433994,-3.438639 11.150297,-5.157677"
           inkscape:path-effect="#path-effect1160"
           inkscape:connector-curvature="0"
           id="path2713"
           d="m -32.033482,66.434514 c 2.709138,-0.59853 5.417967,-1.196992 8.016256,-0.220666 2.598289,0.976326 5.086915,3.527955 7.654105,2.708851 2.567189,-0.819104 5.213019,-5.008335 7.7956383,-4.31549 2.5826191,0.692844 5.1026464,6.268404 7.73285064,5.591023 2.63020416,-0.677382 5.37047246,-7.606796 8.03190576,-7.276159 2.6614333,0.330636 5.2443893,7.922008 7.9218333,7.906099 2.677444,-0.01591 5.449213,-7.638271 8.17365,-7.843073 2.724438,-0.204802 5.401881,7.008544 8.063585,7.465115 2.661703,0.456572 5.307483,-5.842904 7.874412,-6.884251 2.56693,-1.041347 5.055303,3.175606 8.158196,4.424453 3.102892,1.248847 6.819588,-0.470347 10.535901,-2.189363"
           style="fill:none;stroke:#ff0000;stroke-width:0.13895105;stroke-linecap:butt;stroke-linejoin:miter;stroke-miterlimit:4;stroke-dasharray:none;stroke-opacity:1" />
        <path
           transform="matrix(1.0404639,0,0,0.91211966,98.397936,-88.616087)"
           inkscape:original-d="M -31.67144,66.079118 C -15.991362,62.069813 -0.22246002,58.060769 15.501633,54.05199 31.225725,50.043212 43.565196,60.911644 57.596582,64.341866"
           inkscape:path-effect="#path-effect1166"
           inkscape:connector-curvature="0"
           id="path2715"
           d="M -31.67144,66.079118 C -17.33997,58.084483 -0.9081382,53.895064 15.501633,54.05199 30.074099,54.191346 44.603135,57.742888 57.596582,64.341866"
           style="fill:none;stroke:#008000;stroke-width:0.20895329;stroke-linecap:butt;stroke-linejoin:miter;stroke-miterlimit:4;stroke-dasharray:0.83581316, 0.83581316;stroke-dashoffset:0;stroke-opacity:1" />
        <path
           style="fill:none;stroke:#008000;stroke-width:0.20895329;stroke-linecap:butt;stroke-linejoin:miter;stroke-miterlimit:4;stroke-dasharray:0.83581316, 0.83581316;stroke-dashoffset:0;stroke-opacity:1"
           d="M -31.67144,66.079118 C -17.33997,58.084483 -0.9081382,53.895064 15.501633,54.05199 30.074099,54.191346 44.603135,57.742888 57.596582,64.341866"
           id="path2717"
           inkscape:connector-curvature="0"
           inkscape:path-effect="#path-effect1170"
           inkscape:original-d="M -31.67144,66.079118 C -15.991362,62.069813 -0.22246002,58.060769 15.501633,54.05199 31.225725,50.043212 43.565196,60.911644 57.596582,64.341866"
           transform="matrix(-1.0404639,0,0,-0.91211966,125.30379,35.639531)" />
      </g>
      <rect
         y="-128.01701"
         x="4.6688027"
         height="3.1988888"
         width="3.1988888"
         id="rect2847"
         style="opacity:1;fill:#ff0000;fill-opacity:1;fill-rule:evenodd;stroke:none;stroke-width:0.20355821;stroke-linecap:butt;stroke-linejoin:miter;stroke-miterlimit:4;stroke-dasharray:0.81423282, 0.81423282;stroke-dashoffset:0;stroke-opacity:1" />
    </g>
    <ellipse
       cy="101.15115"
       cx="168.54991"
       id="circle2865"
       style="fill:#008000;fill-rule:evenodd;stroke:none;stroke-width:0.26458332"
       rx="3.193387"
       ry="3.1933882" />
    <g
       transform="matrix(1.2997917,0,0,1.2997922,21.996288,152.28456)"
       id="g2873"
       style="stroke-width:0.76935393">
      <path
         sodipodi:nodetypes="cccccccccccc"
         transform="matrix(1,0,0,2.7591239,97.517857,-210.47186)"
         inkscape:original-d="m -32.033482,66.434514 c 2.709095,-0.598726 5.417923,-1.197189 8.126488,-1.795386 2.488325,2.550785 4.976951,5.102413 7.46503,7.654018 2.646101,-4.189508 5.291931,-8.378738 7.9374999,-12.567708 2.5199202,5.574471 5.039947,11.150031 7.55952363,16.725444 2.74065107,-6.929977 5.48091927,-13.859391 8.22098207,-20.78869 2.5829828,7.590409 5.1659394,15.181781 7.7485114,22.773065 2.772148,-7.622939 5.543916,-15.245302 8.315477,-22.867559 2.677483,7.212481 5.354926,14.425827 8.031994,21.639139 2.646151,-6.299997 5.291931,-12.599472 7.9375,-18.898812 2.488398,4.21645 4.976772,8.433403 7.46503,12.650705 3.717298,-1.719446 7.433994,-3.438639 11.150297,-5.157677"
         inkscape:path-effect="#path-effect1160"
         inkscape:connector-curvature="0"
         id="path2867"
         d="m -32.033482,66.434514 c 2.709138,-0.59853 5.417967,-1.196992 8.016256,-0.220666 2.598289,0.976326 5.086915,3.527955 7.654105,2.708851 2.567189,-0.819104 5.213019,-5.008335 7.7956383,-4.31549 2.5826191,0.692844 5.1026464,6.268404 7.73285064,5.591023 2.63020416,-0.677382 5.37047246,-7.606796 8.03190576,-7.276159 2.6614333,0.330636 5.2443893,7.922008 7.9218333,7.906099 2.677444,-0.01591 5.449213,-7.638271 8.17365,-7.843073 2.724438,-0.204802 5.401881,7.008544 8.063585,7.465115 2.661703,0.456572 5.307483,-5.842904 7.874412,-6.884251 2.56693,-1.041347 5.055303,3.175606 8.158196,4.424453 3.102892,1.248847 6.819588,-0.470347 10.535901,-2.189363"
         style="fill:none;stroke:#ff0000;stroke-width:0.13895105;stroke-linecap:butt;stroke-linejoin:miter;stroke-miterlimit:4;stroke-dasharray:none;stroke-opacity:1" />
      <path
         transform="matrix(1.0404639,0,0,0.91211966,98.397936,-88.616087)"
         inkscape:original-d="M -31.67144,66.079118 C -15.991362,62.069813 -0.22246002,58.060769 15.501633,54.05199 31.225725,50.043212 43.565196,60.911644 57.596582,64.341866"
         inkscape:path-effect="#path-effect1166"
         inkscape:connector-curvature="0"
         id="path2869"
         d="M -31.67144,66.079118 C -17.33997,58.084483 -0.9081382,53.895064 15.501633,54.05199 30.074099,54.191346 44.603135,57.742888 57.596582,64.341866"
         style="fill:none;stroke:#008000;stroke-width:0.20895329;stroke-linecap:butt;stroke-linejoin:miter;stroke-miterlimit:4;stroke-dasharray:0.83581316, 0.83581316;stroke-dashoffset:0;stroke-opacity:1" />
      <path
         style="fill:none;stroke:#008000;stroke-width:0.20895329;stroke-linecap:butt;stroke-linejoin:miter;stroke-miterlimit:4;stroke-dasharray:0.83581316, 0.83581316;stroke-dashoffset:0;stroke-opacity:1"
         d="M -31.67144,66.079118 C -17.33997,58.084483 -0.9081382,53.895064 15.501633,54.05199 30.074099,54.191346 44.603135,57.742888 57.596582,64.341866"
         id="path2871"
         inkscape:connector-curvature="0"
         inkscape:path-effect="#path-effect1170"
         inkscape:original-d="M -31.67144,66.079118 C -15.991362,62.069813 -0.22246002,58.060769 15.501633,54.05199 31.225725,50.043212 43.565196,60.911644 57.596582,64.341866"
         transform="matrix(-1.0404639,0,0,-0.91211966,125.30379,35.639531)" />
    </g>
    <rect
       y="105.64424"
       x="179.32576"
       height="4.1578908"
       width="4.1578889"
       id="rect2875"
       style="opacity:1;fill:#ff0000;fill-opacity:1;fill-rule:evenodd;stroke:none;stroke-width:0.26458332;stroke-linecap:butt;stroke-linejoin:miter;stroke-miterlimit:4;stroke-dasharray:1.05833326, 1.05833326;stroke-dashoffset:0;stroke-opacity:1" />
    <ellipse
       style="fill:#008000;fill-rule:evenodd;stroke:none;stroke-width:0.26458332"
       id="circle2879"
       cx="181.54782"
       cy="140.1449"
       rx="3.193387"
       ry="3.1933882" />
    <g
       id="g2887"
       transform="matrix(1.2997917,0,0,1.2997922,34.994206,191.27833)"
       style="stroke-width:0.76935393">
      <path
         style="fill:none;stroke:#ff0000;stroke-width:0.13895105;stroke-linecap:butt;stroke-linejoin:miter;stroke-miterlimit:4;stroke-dasharray:none;stroke-opacity:1"
         d="m -32.033482,66.434514 c 2.709138,-0.59853 5.417967,-1.196992 8.016256,-0.220666 2.598289,0.976326 5.086915,3.527955 7.654105,2.708851 2.567189,-0.819104 5.213019,-5.008335 7.7956383,-4.31549 2.5826191,0.692844 5.1026464,6.268404 7.73285064,5.591023 2.63020416,-0.677382 5.37047246,-7.606796 8.03190576,-7.276159 2.6614333,0.330636 5.2443893,7.922008 7.9218333,7.906099 2.677444,-0.01591 5.449213,-7.638271 8.17365,-7.843073 2.724438,-0.204802 5.401881,7.008544 8.063585,7.465115 2.661703,0.456572 5.307483,-5.842904 7.874412,-6.884251 2.56693,-1.041347 5.055303,3.175606 8.158196,4.424453 3.102892,1.248847 6.819588,-0.470347 10.535901,-2.189363"
         id="path2881"
         inkscape:connector-curvature="0"
         inkscape:path-effect="#path-effect1160"
         inkscape:original-d="m -32.033482,66.434514 c 2.709095,-0.598726 5.417923,-1.197189 8.126488,-1.795386 2.488325,2.550785 4.976951,5.102413 7.46503,7.654018 2.646101,-4.189508 5.291931,-8.378738 7.9374999,-12.567708 2.5199202,5.574471 5.039947,11.150031 7.55952363,16.725444 2.74065107,-6.929977 5.48091927,-13.859391 8.22098207,-20.78869 2.5829828,7.590409 5.1659394,15.181781 7.7485114,22.773065 2.772148,-7.622939 5.543916,-15.245302 8.315477,-22.867559 2.677483,7.212481 5.354926,14.425827 8.031994,21.639139 2.646151,-6.299997 5.291931,-12.599472 7.9375,-18.898812 2.488398,4.21645 4.976772,8.433403 7.46503,12.650705 3.717298,-1.719446 7.433994,-3.438639 11.150297,-5.157677"
         transform="matrix(1,0,0,2.7591239,97.517857,-210.47186)"
         sodipodi:nodetypes="cccccccccccc" />
      <path
         style="fill:none;stroke:#008000;stroke-width:0.20895329;stroke-linecap:butt;stroke-linejoin:miter;stroke-miterlimit:4;stroke-dasharray:0.83581316, 0.83581316;stroke-dashoffset:0;stroke-opacity:1"
         d="M -31.67144,66.079118 C -17.33997,58.084483 -0.9081382,53.895064 15.501633,54.05199 30.074099,54.191346 44.603135,57.742888 57.596582,64.341866"
         id="path2883"
         inkscape:connector-curvature="0"
         inkscape:path-effect="#path-effect1166"
         inkscape:original-d="M -31.67144,66.079118 C -15.991362,62.069813 -0.22246002,58.060769 15.501633,54.05199 31.225725,50.043212 43.565196,60.911644 57.596582,64.341866"
         transform="matrix(1.0404639,0,0,0.91211966,98.397936,-88.616087)" />
      <path
         transform="matrix(-1.0404639,0,0,-0.91211966,125.30379,35.639531)"
         inkscape:original-d="M -31.67144,66.079118 C -15.991362,62.069813 -0.22246002,58.060769 15.501633,54.05199 31.225725,50.043212 43.565196,60.911644 57.596582,64.341866"
         inkscape:path-effect="#path-effect1170"
         inkscape:connector-curvature="0"
         id="path2885"
         d="M -31.67144,66.079118 C -17.33997,58.084483 -0.9081382,53.895064 15.501633,54.05199 30.074099,54.191346 44.603135,57.742888 57.596582,64.341866"
         style="fill:none;stroke:#008000;stroke-width:0.20895329;stroke-linecap:butt;stroke-linejoin:miter;stroke-miterlimit:4;stroke-dasharray:0.83581316, 0.83581316;stroke-dashoffset:0;stroke-opacity:1" />
    </g>
    <rect
       style="opacity:1;fill:#ff0000;fill-opacity:1;fill-rule:evenodd;stroke:none;stroke-width:0.26458332;stroke-linecap:butt;stroke-linejoin:miter;stroke-miterlimit:4;stroke-dasharray:1.05833326, 1.05833326;stroke-dashoffset:0;stroke-opacity:1"
       id="rect2889"
       width="4.1578889"
       height="4.1578908"
       x="205.32159"
       y="159.76974" />
    <g
       id="g3001"
       transform="translate(-88.05935,21.9161)">
      <g
         word-spacing="normal"
         letter-spacing="normal"
         font-size-adjust="none"
         font-stretch="normal"
         font-weight="normal"
         font-variant="normal"
         font-style="normal"
         stroke-miterlimit="10.433"
         xml:space="preserve"
         transform="matrix(0.3,0,0,-0.3,-52.5,222.75)"
         id="g2999"
         style="font-style:normal;font-variant:normal;font-weight:normal;font-stretch:normal;letter-spacing:normal;word-spacing:normal;text-anchor:start;fill:none;fill-opacity:1;fill-rule:evenodd;stroke:#000000;stroke-linecap:butt;stroke-linejoin:miter;stroke-miterlimit:10.43299961;stroke-dasharray:none;stroke-dashoffset:0;stroke-opacity:1"><path
           id="path2981"
           d="m 465.79,426.12 h 4.68 c 0.99,0 1.49,0 1.49,1 0,0.55 -0.5,0.55 -1.39,0.55 h -4.39 c 1.79,7.08 2.04,8.08 2.04,8.37 0,0.85 -0.59,1.35 -1.43,1.35 -0.16,0 -1.55,-0.05 -2,-1.8 l -1.94,-7.92 h -4.69 c -1,0 -1.5,0 -1.5,-0.94 0,-0.61 0.41,-0.61 1.41,-0.61 h 4.37 c -3.58,-14.14 -3.78,-14.98 -3.78,-15.89 0,-2.69 1.89,-4.58 4.58,-4.58 5.08,0 7.92,7.27 7.92,7.67 0,0.5 -0.39,0.5 -0.59,0.5 -0.46,0 -0.5,-0.15 -0.75,-0.7 -2.14,-5.17 -4.78,-6.37 -6.47,-6.37 -1.05,0 -1.55,0.65 -1.55,2.29 0,1.19 0.09,1.55 0.3,2.39 z"
           inkscape:connector-curvature="0"
           style="fill:#000000;stroke-width:0" /><path
           id="path2983"
           d="m 485.19,420.92 v 0.04 0.04 0.05 0.04 0.03 0.04 0.04 0.03 l -0.01,0.04 v 0.03 0.03 0.03 0.03 l -0.01,0.03 v 0.03 0.02 l -0.01,0.03 v 0.02 l -0.01,0.03 v 0.02 l -0.02,0.04 -0.01,0.04 -0.02,0.03 -0.02,0.03 -0.02,0.03 -0.02,0.03 -0.03,0.02 -0.03,0.02 -0.03,0.02 -0.04,0.01 -0.04,0.01 -0.05,0.02 h -0.02 -0.02 l -0.03,0.01 h -0.03 l -0.02,0.01 h -0.03 -0.03 -0.03 -0.03 l -0.04,0.01 h -0.03 -0.04 -0.03 -0.04 -0.04 -0.04 -0.04 -0.05 -0.04 -0.05 c -2.23,-2.2 -5.39,-2.23 -6.82,-2.23 v -1.25 c 0.84,0 3.14,0 5.04,0.97 v -17.77 c 0,-1.16 0,-1.61 -3.48,-1.61 h -1.31 v -1.25 c 0.62,0.03 4.9,0.14 6.2,0.14 1.08,0 5.47,-0.11 6.23,-0.14 v 1.25 h -1.32 c -3.49,0 -3.49,0.45 -3.49,1.61 z"
           inkscape:connector-curvature="0"
           style="fill:#000000;stroke-width:0" /><path
           id="path2985"
           d="m 544,422.5 h 0.14 0.14 0.14 l 0.08,0.01 h 0.07 l 0.07,0.01 0.07,0.01 0.07,0.01 0.07,0.01 0.07,0.01 0.07,0.02 0.06,0.02 0.07,0.02 0.06,0.02 0.05,0.03 0.06,0.03 0.05,0.04 0.05,0.03 0.05,0.05 0.04,0.04 0.04,0.05 0.02,0.03 0.02,0.03 0.02,0.02 0.01,0.03 0.02,0.03 0.01,0.04 0.01,0.03 0.01,0.04 0.01,0.03 0.01,0.04 0.01,0.04 v 0.04 l 0.01,0.04 v 0.04 0.04 0.05 c 0,1 -0.95,1 -1.64,1 H 514.2 c -0.7,0 -1.64,0 -1.64,-1 0,-0.98 0.94,-0.98 1.69,-0.98 z"
           inkscape:connector-curvature="0"
           style="fill:#000000;stroke-width:0" /><path
           id="path2987"
           d="m 544.04,412.82 h 0.07 0.06 l 0.14,0.01 h 0.14 0.07 l 0.07,0.01 0.07,0.01 h 0.07 l 0.07,0.01 0.06,0.02 0.07,0.01 0.07,0.02 0.06,0.02 0.06,0.02 0.06,0.02 0.06,0.03 0.05,0.03 0.06,0.04 0.05,0.04 0.04,0.04 0.04,0.05 0.02,0.02 0.02,0.03 0.02,0.02 0.02,0.03 0.02,0.03 0.01,0.03 0.02,0.03 0.01,0.03 0.01,0.04 0.01,0.03 0.01,0.04 0.01,0.04 0.01,0.04 v 0.04 l 0.01,0.04 v 0.04 0.05 0.04 c 0,1 -0.95,1 -1.68,1 h -29.75 c -0.75,0 -1.69,0 -1.69,-1 0,-1 0.94,-1 1.64,-1 z"
           inkscape:connector-curvature="0"
           style="fill:#000000;stroke-width:0" /><path
           id="path2989"
           d="m 572.58,426.12 h 4.69 c 0.98,0 1.48,0 1.48,1 0,0.55 -0.5,0.55 -1.39,0.55 h -4.39 c 1.8,7.08 2.05,8.08 2.05,8.37 0,0.85 -0.59,1.35 -1.44,1.35 -0.15,0 -1.55,-0.05 -2,-1.8 l -1.93,-7.92 h -4.69 c -1,0 -1.5,0 -1.5,-0.94 0,-0.61 0.4,-0.61 1.4,-0.61 h 4.38 c -3.58,-14.14 -3.78,-14.98 -3.78,-15.89 0,-2.69 1.89,-4.58 4.57,-4.58 5.08,0 7.93,7.27 7.93,7.67 0,0.5 -0.39,0.5 -0.6,0.5 -0.45,0 -0.5,-0.15 -0.75,-0.7 -2.14,-5.17 -4.78,-6.37 -6.46,-6.37 -1.05,0 -1.55,0.65 -1.55,2.29 0,1.19 0.09,1.55 0.3,2.39 z"
           inkscape:connector-curvature="0"
           style="fill:#000000;stroke-width:0" /><path
           id="path2991"
           d="m 598.3,409.87 v 0.71 l -0.02,0.68 -0.03,0.66 -0.04,0.64 -0.06,0.62 -0.07,0.6 -0.09,0.57 -0.11,0.56 -0.13,0.55 -0.15,0.53 -0.17,0.51 -0.19,0.5 -0.21,0.49 -0.24,0.48 -0.26,0.47 -0.14,0.23 -0.15,0.23 c -1.08,1.61 -3.23,3 -6.03,3 v -0.98 c 1.89,0 3.7,-1.14 4.33,-3.17 0.56,-1.88 0.59,-4.39 0.59,-7.43 0,-2.57 0,-5.15 -0.45,-7.34 -0.7,-3.17 -3.06,-3.94 -4.47,-3.94 v 0 c -1.59,0 -3.72,0.94 -4.42,3.8 -0.49,2.05 -0.49,4.91 -0.49,7.48 0,2.55 0,5.21 0.52,7.11 0.73,2.75 2.97,3.49 4.39,3.49 v 0.98 c -8.08,0 -8.08,-9.51 -8.08,-12.03 0,-2.5 0,-11.81 8.08,-11.81 8.09,0 8.09,9.31 8.09,11.81 z"
           inkscape:connector-curvature="0"
           style="fill:#000000;stroke-width:0" /><path
           id="path2993"
           d="m 634.05,417.65 h 13.91 c 0.69,0 1.64,0 1.64,1 0,1 -0.95,1 -1.64,1 h -13.91 v 13.96 c 0,0.68 0,1.64 -1,1.64 -0.98,0 -0.98,-0.96 -0.98,-1.64 v -13.96 h -13.95 c -0.71,0 -1.64,0 -1.64,-1 0,-1 0.93,-1 1.64,-1 h 13.95 v -13.94 c 0,-0.7 0,-1.65 0.98,-1.65 1,0 1,0.95 1,1.65 z"
           inkscape:connector-curvature="0"
           style="fill:#000000;stroke-width:0" /><path
           id="path2995"
           d="m 685.49,440.98 -0.03,0.06 -0.03,0.06 -0.03,0.05 -0.03,0.05 -0.02,0.05 -0.03,0.05 -0.03,0.05 -0.02,0.04 -0.03,0.04 -0.03,0.04 -0.03,0.04 -0.02,0.03 -0.03,0.04 -0.03,0.03 -0.03,0.03 -0.03,0.03 -0.04,0.02 -0.03,0.03 -0.04,0.02 -0.04,0.02 -0.04,0.02 -0.04,0.01 -0.05,0.02 -0.05,0.01 -0.05,0.01 -0.06,0.01 -0.05,0.01 -0.07,0.01 h -0.06 l -0.07,0.01 h -0.08 -0.04 -0.03 c -0.85,0 -0.94,-0.25 -1.29,-0.89 l -0.31,-4.09 13.41,-26.91 h -26.86 l 13.45,26.91 0.31,4.09 -16.84,-33.78 c -0.25,-0.45 -0.25,-0.55 -0.25,-0.59 0,-0.41 0.3,-0.41 1.09,-0.41 h 34.58 c 0.8,0 1.1,0 1.1,0.41 0,0.04 0,0.14 -0.25,0.59 z"
           inkscape:connector-curvature="0"
           style="fill:#000000;stroke-width:0" /><path
           id="path2997"
           d="m 715.26,426.12 h 4.69 c 0.98,0 1.48,0 1.48,1 0,0.55 -0.5,0.55 -1.39,0.55 h -4.39 c 1.8,7.08 2.05,8.08 2.05,8.37 0,0.85 -0.6,1.35 -1.44,1.35 -0.16,0 -1.54,-0.05 -2,-1.8 l -1.94,-7.92 h -4.68 c -1,0 -1.5,0 -1.5,-0.94 0,-0.61 0.4,-0.61 1.4,-0.61 h 4.38 c -3.58,-14.14 -3.78,-14.98 -3.78,-15.89 0,-2.69 1.89,-4.58 4.58,-4.58 5.07,0 7.92,7.27 7.92,7.67 0,0.5 -0.39,0.5 -0.6,0.5 -0.45,0 -0.5,-0.15 -0.75,-0.7 -2.14,-5.17 -4.78,-6.37 -6.47,-6.37 -1.04,0 -1.54,0.65 -1.54,2.29 0,1.19 0.09,1.55 0.29,2.39 z"
           inkscape:connector-curvature="0"
           style="fill:#000000;stroke-width:0" /></g>    </g>
    <g
       id="g3125"
       transform="translate(-87.52481,60.824637)">
      <g
         word-spacing="normal"
         letter-spacing="normal"
         font-size-adjust="none"
         font-stretch="normal"
         font-weight="normal"
         font-variant="normal"
         font-style="normal"
         stroke-miterlimit="10.433"
         xml:space="preserve"
         transform="matrix(0.3,0,0,-0.3,-52.5,222.75)"
         id="g3123"
         style="font-style:normal;font-variant:normal;font-weight:normal;font-stretch:normal;letter-spacing:normal;word-spacing:normal;text-anchor:start;fill:none;fill-opacity:1;fill-rule:evenodd;stroke:#000000;stroke-linecap:butt;stroke-linejoin:miter;stroke-miterlimit:10.43299961;stroke-dasharray:none;stroke-dashoffset:0;stroke-opacity:1"><path
           id="path3103"
           d="m 465.79,426.12 h 4.68 c 0.99,0 1.49,0 1.49,1 0,0.55 -0.5,0.55 -1.39,0.55 h -4.39 c 1.79,7.08 2.04,8.08 2.04,8.37 0,0.85 -0.59,1.35 -1.43,1.35 -0.16,0 -1.55,-0.05 -2,-1.8 l -1.94,-7.92 h -4.69 c -1,0 -1.5,0 -1.5,-0.94 0,-0.61 0.41,-0.61 1.41,-0.61 h 4.37 c -3.58,-14.14 -3.78,-14.98 -3.78,-15.89 0,-2.69 1.89,-4.58 4.58,-4.58 5.08,0 7.92,7.27 7.92,7.67 0,0.5 -0.39,0.5 -0.59,0.5 -0.46,0 -0.5,-0.15 -0.75,-0.7 -2.14,-5.17 -4.78,-6.37 -6.47,-6.37 -1.05,0 -1.55,0.65 -1.55,2.29 0,1.19 0.09,1.55 0.3,2.39 z"
           inkscape:connector-curvature="0"
           style="fill:#000000;stroke-width:0" /><path
           id="path3105"
           d="m 491.11,405.11 h -1.18 c -0.1,-0.77 -0.46,-2.83 -0.91,-3.18 -0.27,-0.2 -2.95,-0.2 -3.44,-0.2 h -6.42 c 3.66,3.23 4.88,4.2 6.97,5.84 2.58,2.07 4.98,4.22 4.98,7.54 0,4.21 -3.68,6.79 -8.15,6.79 -4.32,0 -7.25,-3.03 -7.25,-6.23 0,-1.78 1.5,-1.96 1.86,-1.96 0.82,0 1.84,0.6 1.84,1.85 0,0.62 -0.25,1.84 -2.06,1.84 1.08,2.47 3.45,3.24 5.09,3.24 3.49,0 5.3,-2.71 5.3,-5.53 0,-3.04 -2.16,-5.44 -3.28,-6.69 l -8.39,-8.3 c -0.36,-0.31 -0.36,-0.39 -0.36,-1.36 h 14.36 z"
           inkscape:connector-curvature="0"
           style="fill:#000000;stroke-width:0" /><path
           id="path3107"
           d="m 544,422.5 h 0.14 0.14 0.14 l 0.08,0.01 h 0.07 l 0.07,0.01 0.07,0.01 0.07,0.01 0.07,0.01 0.07,0.01 0.07,0.02 0.06,0.02 0.07,0.02 0.06,0.02 0.05,0.03 0.06,0.03 0.05,0.04 0.05,0.03 0.05,0.05 0.04,0.04 0.04,0.05 0.02,0.03 0.02,0.03 0.02,0.02 0.01,0.03 0.02,0.03 0.01,0.04 0.01,0.03 0.01,0.04 0.01,0.03 0.01,0.04 0.01,0.04 v 0.04 l 0.01,0.04 v 0.04 0.04 0.05 c 0,1 -0.95,1 -1.64,1 H 514.2 c -0.7,0 -1.64,0 -1.64,-1 0,-0.98 0.94,-0.98 1.69,-0.98 z"
           inkscape:connector-curvature="0"
           style="fill:#000000;stroke-width:0" /><path
           id="path3109"
           d="m 544.04,412.82 h 0.07 0.06 l 0.14,0.01 h 0.14 0.07 l 0.07,0.01 0.07,0.01 h 0.07 l 0.07,0.01 0.06,0.02 0.07,0.01 0.07,0.02 0.06,0.02 0.06,0.02 0.06,0.02 0.06,0.03 0.05,0.03 0.06,0.04 0.05,0.04 0.04,0.04 0.04,0.05 0.02,0.02 0.02,0.03 0.02,0.02 0.02,0.03 0.02,0.03 0.01,0.03 0.02,0.03 0.01,0.03 0.01,0.04 0.01,0.03 0.01,0.04 0.01,0.04 0.01,0.04 v 0.04 l 0.01,0.04 v 0.04 0.05 0.04 c 0,1 -0.95,1 -1.68,1 h -29.75 c -0.75,0 -1.69,0 -1.69,-1 0,-1 0.94,-1 1.64,-1 z"
           inkscape:connector-curvature="0"
           style="fill:#000000;stroke-width:0" /><path
           id="path3111"
           d="m 572.58,426.12 h 4.69 c 0.98,0 1.48,0 1.48,1 0,0.55 -0.5,0.55 -1.39,0.55 h -4.39 c 1.8,7.08 2.05,8.08 2.05,8.37 0,0.85 -0.59,1.35 -1.44,1.35 -0.15,0 -1.55,-0.05 -2,-1.8 l -1.93,-7.92 h -4.69 c -1,0 -1.5,0 -1.5,-0.94 0,-0.61 0.4,-0.61 1.4,-0.61 h 4.38 c -3.58,-14.14 -3.78,-14.98 -3.78,-15.89 0,-2.69 1.89,-4.58 4.57,-4.58 5.08,0 7.93,7.27 7.93,7.67 0,0.5 -0.39,0.5 -0.6,0.5 -0.45,0 -0.5,-0.15 -0.75,-0.7 -2.14,-5.17 -4.78,-6.37 -6.46,-6.37 -1.05,0 -1.55,0.65 -1.55,2.29 0,1.19 0.09,1.55 0.3,2.39 z"
           inkscape:connector-curvature="0"
           style="fill:#000000;stroke-width:0" /><path
           id="path3113"
           d="m 598.3,409.87 v 0.71 l -0.02,0.68 -0.03,0.66 -0.04,0.64 -0.06,0.62 -0.07,0.6 -0.09,0.57 -0.11,0.56 -0.13,0.55 -0.15,0.53 -0.17,0.51 -0.19,0.5 -0.21,0.49 -0.24,0.48 -0.26,0.47 -0.14,0.23 -0.15,0.23 c -1.08,1.61 -3.23,3 -6.03,3 v -0.98 c 1.89,0 3.7,-1.14 4.33,-3.17 0.56,-1.88 0.59,-4.39 0.59,-7.43 0,-2.57 0,-5.15 -0.45,-7.34 -0.7,-3.17 -3.06,-3.94 -4.47,-3.94 v 0 c -1.59,0 -3.72,0.94 -4.42,3.8 -0.49,2.05 -0.49,4.91 -0.49,7.48 0,2.55 0,5.21 0.52,7.11 0.73,2.75 2.97,3.49 4.39,3.49 v 0.98 c -8.08,0 -8.08,-9.51 -8.08,-12.03 0,-2.5 0,-11.81 8.08,-11.81 8.09,0 8.09,9.31 8.09,11.81 z"
           inkscape:connector-curvature="0"
           style="fill:#000000;stroke-width:0" /><path
           id="path3115"
           d="m 634.05,417.65 h 13.91 c 0.69,0 1.64,0 1.64,1 0,1 -0.95,1 -1.64,1 h -13.91 v 13.96 c 0,0.68 0,1.64 -1,1.64 -0.98,0 -0.98,-0.96 -0.98,-1.64 v -13.96 h -13.95 c -0.71,0 -1.64,0 -1.64,-1 0,-1 0.93,-1 1.64,-1 h 13.95 v -13.94 c 0,-0.7 0,-1.65 0.98,-1.65 1,0 1,0.95 1,1.65 z"
           inkscape:connector-curvature="0"
           style="fill:#000000;stroke-width:0" /><path
           id="path3117"
           d="m 669.8,410.04 5.29,5.13 c 7.76,6.87 10.76,9.56 10.76,14.54 0,5.69 -4.48,9.68 -10.56,9.68 -5.64,0 -9.33,-4.6 -9.33,-9.03 0,-2.79 2.5,-2.79 2.64,-2.79 0.86,0 2.6,0.6 2.6,2.64 0,1.3 -0.9,2.6 -2.65,2.6 -0.39,0 -0.5,0 -0.64,-0.05 1.14,3.24 3.83,5.08 6.72,5.08 4.53,0 6.69,-4.05 6.69,-8.13 0,-3.98 -2.5,-7.92 -5.23,-11.01 l -9.57,-10.66 c -0.56,-0.54 -0.56,-0.64 -0.56,-1.84 h 18.49 l 1.4,8.67 h -1.25 c -0.25,-1.5 -0.59,-3.69 -1.09,-4.44 -0.36,-0.39 -3.64,-0.39 -4.74,-0.39 z"
           inkscape:connector-curvature="0"
           style="fill:#000000;stroke-width:0" /><path
           id="path3119"
           d="m 710.45,440.98 -0.03,0.06 -0.03,0.06 -0.03,0.05 -0.03,0.05 -0.03,0.05 -0.02,0.05 -0.03,0.05 -0.03,0.04 -0.02,0.04 -0.03,0.04 -0.03,0.04 -0.03,0.03 -0.02,0.04 -0.03,0.03 -0.03,0.03 -0.04,0.03 -0.03,0.02 -0.03,0.03 -0.04,0.02 -0.04,0.02 -0.04,0.02 -0.05,0.01 -0.04,0.02 -0.05,0.01 -0.05,0.01 -0.06,0.01 -0.06,0.01 -0.06,0.01 h -0.07 l -0.07,0.01 h -0.07 -0.04 -0.04 c -0.84,0 -0.93,-0.25 -1.28,-0.89 l -0.31,-4.09 13.41,-26.91 H 694.1 l 13.46,26.91 0.31,4.09 -16.84,-33.78 c -0.25,-0.45 -0.25,-0.55 -0.25,-0.59 0,-0.41 0.29,-0.41 1.09,-0.41 h 34.58 c 0.8,0 1.09,0 1.09,0.41 0,0.04 0,0.14 -0.25,0.59 z"
           inkscape:connector-curvature="0"
           style="fill:#000000;stroke-width:0" /><path
           id="path3121"
           d="m 740.22,426.12 h 4.69 c 0.98,0 1.48,0 1.48,1 0,0.55 -0.5,0.55 -1.39,0.55 h -4.39 c 1.8,7.08 2.05,8.08 2.05,8.37 0,0.85 -0.6,1.35 -1.44,1.35 -0.16,0 -1.55,-0.05 -2,-1.8 l -1.94,-7.92 h -4.69 c -1,0 -1.5,0 -1.5,-0.94 0,-0.61 0.41,-0.61 1.41,-0.61 h 4.38 c -3.58,-14.14 -3.79,-14.98 -3.79,-15.89 0,-2.69 1.89,-4.58 4.58,-4.58 5.08,0 7.92,7.27 7.92,7.67 0,0.5 -0.39,0.5 -0.59,0.5 -0.45,0 -0.5,-0.15 -0.75,-0.7 -2.14,-5.17 -4.78,-6.37 -6.47,-6.37 -1.05,0 -1.55,0.65 -1.55,2.29 0,1.19 0.1,1.55 0.3,2.39 z"
           inkscape:connector-curvature="0"
           style="fill:#000000;stroke-width:0" /></g>    </g>
    <g
       id="g3375"
       transform="translate(-131.91362,20.032738)">
      <g
         word-spacing="normal"
         letter-spacing="normal"
         font-size-adjust="none"
         font-stretch="normal"
         font-weight="normal"
         font-variant="normal"
         font-style="normal"
         stroke-miterlimit="10.433"
         xml:space="preserve"
         transform="matrix(0.3,0,0,-0.3,-52.5,222.75)"
         id="g3373"
         style="font-style:normal;font-variant:normal;font-weight:normal;font-stretch:normal;letter-spacing:normal;word-spacing:normal;text-anchor:start;fill:none;fill-opacity:1;fill-rule:evenodd;stroke:#000000;stroke-linecap:butt;stroke-linejoin:miter;stroke-miterlimit:10.43299961;stroke-dasharray:none;stroke-dashoffset:0;stroke-opacity:1"><path
           id="path3371"
           d="m 468.18,424.48 0.26,0.3 0.25,0.31 0.25,0.31 0.24,0.31 0.23,0.3 0.22,0.31 0.22,0.3 0.2,0.31 0.2,0.29 0.19,0.3 0.18,0.29 0.18,0.29 0.16,0.28 0.16,0.27 0.15,0.27 0.14,0.26 0.13,0.25 0.12,0.25 0.12,0.23 0.1,0.22 0.1,0.21 0.09,0.2 0.08,0.19 0.08,0.18 0.06,0.16 0.06,0.15 0.05,0.13 0.03,0.11 0.03,0.11 0.03,0.08 0.01,0.06 v 0.05 c 0,0.6 -0.54,0.6 -0.98,0.6 -0.75,0 -0.75,-0.05 -1.2,-1.05 -2.05,-4.58 -5.74,-9.17 -12.25,-11.95 -0.71,-0.3 -0.86,-0.36 -0.86,-0.71 0,-0.09 0,-0.2 0.06,-0.29 0.09,-0.1 0.14,-0.16 1.14,-0.6 5.48,-2.3 9.56,-6.53 12.11,-12.31 0.2,-0.45 0.39,-0.5 1,-0.5 0.44,0 0.98,0 0.98,0.61 0,0.39 -1.48,4.03 -4.32,7.26 h 24.45 c -2.83,-3.23 -4.33,-6.87 -4.33,-7.26 0,-0.61 0.55,-0.61 1,-0.61 0.75,0 0.75,0.05 1.19,1.05 2.05,4.59 5.73,9.17 12.26,11.96 0.69,0.3 0.85,0.35 0.85,0.69 0,0.11 0,0.21 -0.05,0.3 -0.11,0.11 -0.16,0.16 -1.16,0.61 l -2.57,-0.91 c -2.75,-1.59 -4.24,-2.84 -5.24,-3.83 h -28.34 c -1.5,1.44 -3.2,2.64 -5.24,3.83 2.74,1.6 4.24,2.85 5.24,3.85 h 28.34 c 1.49,-1.46 3.19,-2.64 5.24,-3.85 l 2.57,0.91 c -5.46,2.28 -9.56,6.51 -12.09,12.3 -0.2,0.45 -0.41,0.5 -1,0.5 -0.45,0 -1,0 -1,-0.6 0,-0.4 1.5,-4.05 4.33,-7.28 z"
           inkscape:connector-curvature="0"
           style="fill:#000000;stroke-width:0" /></g>    </g>
    <path
       style="fill:none;stroke:#ff0000;stroke-width:0.21427661;stroke-linecap:butt;stroke-linejoin:miter;stroke-miterlimit:4;stroke-dasharray:none;stroke-opacity:1"
       d="m -32.033482,66.434514 c 2.709138,-0.59853 5.417967,-1.196992 8.016256,-0.220666 2.598289,0.976326 5.086915,3.527955 7.654105,2.708851 2.567189,-0.819104 5.213019,-5.008335 7.7956383,-4.31549 2.5826191,0.692844 5.1026464,6.268404 7.73285064,5.591023 2.63020416,-0.677382 5.37047246,-7.606796 8.03190576,-7.276159 2.6614333,0.330636 5.2443893,7.922008 7.9218333,7.906099 2.677444,-0.01591 5.449213,-7.638271 8.17365,-7.843073 2.724438,-0.204802 5.401881,7.008544 8.063585,7.465115 2.661703,0.456572 5.307483,-5.842904 7.874412,-6.884251 2.56693,-1.041347 5.055303,3.175606 8.158196,4.424453 3.102892,1.248847 6.819588,-0.470347 10.535901,-2.189363"
       id="path3293"
       inkscape:connector-curvature="0"
       inkscape:path-effect="#path-effect1160"
       inkscape:original-d="m -32.033482,66.434514 c 2.709095,-0.598726 5.417923,-1.197189 8.126488,-1.795386 2.488325,2.550785 4.976951,5.102413 7.46503,7.654018 2.646101,-4.189508 5.291931,-8.378738 7.9374999,-12.567708 2.5199202,5.574471 5.039947,11.150031 7.55952363,16.725444 2.74065107,-6.929977 5.48091927,-13.859391 8.22098207,-20.78869 2.5829828,7.590409 5.1659394,15.181781 7.7485114,22.773065 2.772148,-7.622939 5.543916,-15.245302 8.315477,-22.867559 2.677483,7.212481 5.354926,14.425827 8.031994,21.639139 2.646151,-6.299997 5.291931,-12.599472 7.9375,-18.898812 2.488398,4.21645 4.976772,8.433403 7.46503,12.650705 3.717298,-1.719446 7.433994,-3.438639 11.150297,-5.157677"
       transform="matrix(1.6836191,0,0,4.6570309,-174.093,-193.6227)"
       sodipodi:nodetypes="cccccccccccc" />
    <path
       style="fill:none;stroke:#008000;stroke-width:0.30446663;stroke-linecap:butt;stroke-linejoin:miter;stroke-miterlimit:4;stroke-dasharray:1.21786654,1.21786654;stroke-dashoffset:0;stroke-opacity:1"
       d="M -31.67144,66.079118 C -17.33997,58.084483 -0.9081382,53.895064 15.501633,54.05199 30.074099,54.191346 44.603135,57.742888 57.596582,64.341866"
       id="path3295"
       inkscape:connector-curvature="0"
       inkscape:path-effect="#path-effect1166"
       inkscape:original-d="M -31.67144,66.079118 C -15.991362,62.069813 -0.22246002,58.060769 15.501633,54.05199 31.225725,50.043212 43.565196,60.911644 57.596582,64.341866"
       transform="matrix(1.7517449,0,0,1.5395356,-172.61129,12.053487)" />
    <path
       transform="matrix(-1.7517449,0,0,-1.5395356,-127.31208,221.7803)"
       inkscape:original-d="M -31.67144,66.079118 C -15.991362,62.069813 -0.22246002,58.060769 15.501633,54.05199 31.225725,50.043212 43.565196,60.911644 57.596582,64.341866"
       inkscape:path-effect="#path-effect1170"
       inkscape:connector-curvature="0"
       id="path3297"
       d="M -31.67144,66.079118 C -17.33997,58.084483 -0.9081382,53.895064 15.501633,54.05199 30.074099,54.191346 44.603135,57.742888 57.596582,64.341866"
       style="fill:none;stroke:#008000;stroke-width:0.30446663;stroke-linecap:butt;stroke-linejoin:miter;stroke-miterlimit:4;stroke-dasharray:1.21786654,1.21786654;stroke-dashoffset:0;stroke-opacity:1" />
    <path
       style="fill:none;stroke:#008000;stroke-width:0.7;stroke-linecap:butt;stroke-linejoin:miter;stroke-miterlimit:4;stroke-dasharray:none;stroke-opacity:1;marker-end:url(#marker2766)"
       d="m -141.83898,94.688852 h 12.16068"
       id="path3382"
       inkscape:connector-curvature="0" />
    <path
       inkscape:connector-curvature="0"
       id="path3690"
       d="m -142.09862,119.52362 h 23.7881"
       style="fill:none;stroke:#ff0000;stroke-width:0.7;stroke-linecap:butt;stroke-linejoin:miter;stroke-miterlimit:4;stroke-dasharray:none;stroke-opacity:1;marker-end:url(#marker3694)" />
    <g
       id="g4576"
       transform="translate(-220.76462,-11.893495)"
       style="fill:#008000">
      <g
         word-spacing="normal"
         letter-spacing="normal"
         font-size-adjust="none"
         font-stretch="normal"
         font-weight="normal"
         font-variant="normal"
         font-style="normal"
         stroke-miterlimit="10.433"
         xml:space="preserve"
         transform="matrix(0.3,0,0,-0.3,-52.5,222.75)"
         id="g4574"
         style="font-style:normal;font-variant:normal;font-weight:normal;font-stretch:normal;letter-spacing:normal;word-spacing:normal;text-anchor:start;fill:#008000;fill-opacity:1;fill-rule:evenodd;stroke:#000000;stroke-linecap:butt;stroke-linejoin:miter;stroke-miterlimit:10.43299961;stroke-dasharray:none;stroke-dashoffset:0;stroke-opacity:1"><path
           id="path4570"
           d="m 478.83,424.73 v 0.12 0.13 l -0.01,0.12 v 0.11 l -0.01,0.12 -0.01,0.11 -0.01,0.11 -0.02,0.1 -0.03,0.21 -0.03,0.19 -0.05,0.18 -0.04,0.18 -0.06,0.16 -0.06,0.16 -0.06,0.15 -0.07,0.13 -0.07,0.13 -0.07,0.12 -0.08,0.12 -0.08,0.1 -0.08,0.1 -0.09,0.09 -0.08,0.08 -0.09,0.07 -0.09,0.07 -0.09,0.06 -0.1,0.05 -0.09,0.05 -0.09,0.04 -0.09,0.03 -0.09,0.03 -0.1,0.03 -0.09,0.01 -0.08,0.02 h -0.09 -0.09 c -1.25,0 -2.43,-1.29 -2.43,-2.39 0,-0.64 0.25,-0.93 0.79,-1.48 1.05,-1 1.69,-2.3 1.69,-4.09 0,-2.1 -3.03,-13.5 -8.86,-13.5 -2.54,0 -3.69,1.75 -3.69,4.32 0,2.8 1.35,6.44 2.9,10.57 0.34,0.86 0.59,1.54 0.59,2.5 0,2.23 -1.59,4.07 -4.09,4.07 -4.68,0 -6.58,-7.21 -6.58,-7.67 0,-0.5 0.5,-0.5 0.61,-0.5 0.5,0 0.54,0.11 0.79,0.91 1.44,5.03 3.58,6.17 5.03,6.17 0.4,0 1.25,0 1.25,-1.59 0,-1.25 -0.5,-2.6 -0.85,-3.49 -2.19,-5.78 -2.83,-8.08 -2.83,-10.22 0,-5.37 4.37,-6.17 6.67,-6.17 8.37,0 11.2,16.49 11.2,19.08 z"
           inkscape:connector-curvature="0"
           style="fill:#008000;stroke-width:0" /><path
           id="path4572"
           d="m 484.66,404.96 0.05,-0.03 0.05,-0.03 0.06,-0.03 0.07,-0.04 0.07,-0.04 0.07,-0.04 0.08,-0.04 0.08,-0.05 0.09,-0.04 0.09,-0.04 0.09,-0.05 0.1,-0.04 0.1,-0.05 0.11,-0.04 0.11,-0.05 0.12,-0.04 0.12,-0.04 0.12,-0.05 0.13,-0.04 0.14,-0.03 0.13,-0.04 0.15,-0.04 0.14,-0.03 0.15,-0.03 0.16,-0.03 0.16,-0.02 0.16,-0.02 0.17,-0.02 0.18,-0.01 0.17,-0.01 0.19,-0.01 h 0.18 c 3.6,0 6.21,2.4 6.21,5.12 0,1.36 -0.63,2.44 -1.47,3.35 1.58,1.1 2.93,1.14 3.53,1.14 -0.14,-0.14 -0.31,-0.29 -0.31,-0.83 0,-0.71 0.51,-1.13 1.11,-1.13 0.48,0 1.1,0.36 1.1,1.16 0,0.8 -0.65,1.78 -2.04,1.78 -0.53,0 -2.41,-0.11 -4.05,-1.61 -1.05,0.77 -2.5,1.25 -4.05,1.25 l -0.03,-1.03 c 3.43,0 3.43,-3.36 3.43,-4.08 0,-0.56 0,-1.95 -0.71,-2.86 -0.48,-0.59 -1.42,-1.22 -2.69,-1.22 v 0 c -3.4,0 -3.4,3.35 -3.4,4.08 0,0.55 0,1.95 0.69,2.85 0.5,0.59 1.43,1.23 2.68,1.23 l 0.03,1.03 c -3.57,0 -6.2,-2.39 -6.2,-5.11 0,-1.36 0.7,-2.62 1.69,-3.53 -0.28,-0.31 -1.05,-1.45 -1.05,-2.81 0,-0.46 0.1,-2.1 1.46,-3.11 -1.57,-0.52 -3.38,-1.67 -3.38,-3.49 0,-2.54 3.83,-4.45 8.53,-4.45 v 1.05 c -3.65,0 -6.41,1.64 -6.41,3.45 0,1.22 1.11,2.7 3.35,2.75 h 2.01 c 3.11,0 7.47,0 7.47,-2.75 0,-1.86 -2.76,-3.45 -6.42,-3.45 v -1.05 c 4.44,0 8.55,1.74 8.55,4.53 0,1.05 -0.42,2.92 -2.35,3.97 -2.04,1.08 -4.11,1.08 -7.48,1.08 -0.77,0 -2.03,0 -2.3,0.03 -1.12,0.25 -1.75,1.3 -1.75,2.31 0,0.86 0.25,1.14 0.46,1.42 z"
           inkscape:connector-curvature="0"
           style="fill:#008000;stroke-width:0" /></g>    </g>
    <g
       id="g4664"
       transform="translate(-225.84275,28.86511)"
       style="fill:#ff0000">
      <g
         word-spacing="normal"
         letter-spacing="normal"
         font-size-adjust="none"
         font-stretch="normal"
         font-weight="normal"
         font-variant="normal"
         font-style="normal"
         stroke-miterlimit="10.433"
         xml:space="preserve"
         transform="matrix(0.3,0,0,-0.3,-52.5,222.75)"
         id="g4662"
         style="font-style:normal;font-variant:normal;font-weight:normal;font-stretch:normal;letter-spacing:normal;word-spacing:normal;text-anchor:start;fill:#ff0000;fill-opacity:1;fill-rule:evenodd;stroke:#000000;stroke-linecap:butt;stroke-linejoin:miter;stroke-miterlimit:10.43299961;stroke-dasharray:none;stroke-dashoffset:0;stroke-opacity:1"><path
           id="path4658"
           d="m 478.83,424.73 v 0.12 0.13 l -0.01,0.12 v 0.11 l -0.01,0.12 -0.01,0.11 -0.01,0.11 -0.02,0.1 -0.03,0.21 -0.03,0.19 -0.05,0.18 -0.04,0.18 -0.06,0.16 -0.06,0.16 -0.06,0.15 -0.07,0.13 -0.07,0.13 -0.07,0.12 -0.08,0.12 -0.08,0.1 -0.08,0.1 -0.09,0.09 -0.08,0.08 -0.09,0.07 -0.09,0.07 -0.09,0.06 -0.1,0.05 -0.09,0.05 -0.09,0.04 -0.09,0.03 -0.09,0.03 -0.1,0.03 -0.09,0.01 -0.08,0.02 h -0.09 -0.09 c -1.25,0 -2.43,-1.29 -2.43,-2.39 0,-0.64 0.25,-0.93 0.79,-1.48 1.05,-1 1.69,-2.3 1.69,-4.09 0,-2.1 -3.03,-13.5 -8.86,-13.5 -2.54,0 -3.69,1.75 -3.69,4.32 0,2.8 1.35,6.44 2.9,10.57 0.34,0.86 0.59,1.54 0.59,2.5 0,2.23 -1.59,4.07 -4.09,4.07 -4.68,0 -6.58,-7.21 -6.58,-7.67 0,-0.5 0.5,-0.5 0.61,-0.5 0.5,0 0.54,0.11 0.79,0.91 1.44,5.03 3.58,6.17 5.03,6.17 0.4,0 1.25,0 1.25,-1.59 0,-1.25 -0.5,-2.6 -0.85,-3.49 -2.19,-5.78 -2.83,-8.08 -2.83,-10.22 0,-5.37 4.37,-6.17 6.67,-6.17 8.37,0 11.2,16.49 11.2,19.08 z"
           inkscape:connector-curvature="0"
           style="fill:#ff0000;stroke-width:0" /><path
           id="path4660"
           d="m 490.66,398.45 0.07,-0.01 h 0.07 l 0.07,-0.01 h 0.07 0.15 l 0.15,-0.01 h 0.16 0.15 0.15 0.14 c 6.27,0 12.02,5.12 12.02,10.62 l -1.25,-0.7 c 0,-3.52 -4.39,-7.56 -10.39,-7.56 -0.31,0 -0.8,0 -1.11,0.04 v 0 c 0.69,4 0.97,5.57 2.64,7.83 1.58,2.13 3.42,3.11 5.16,3.11 2.4,0 3.7,-1.61 3.7,-3.42 l 1.25,0.7 c 0,3.1 -1.84,5.08 -4.56,5.08 -4.82,0 -7.36,-6.12 -8.33,-8.73 -0.45,-1.3 -1.22,-3.74 -1.44,-4.39 -3.83,0.51 -6.26,2.26 -6.26,4.84 0,0.03 0.2,3.94 3.03,7.06 0.25,0.25 0.28,0.31 0.28,0.46 0,0.42 -0.46,0.42 -0.56,0.42 -0.32,0 -0.46,0 -1.11,-0.77 -1.96,-2.4 -2.86,-6.03 -2.86,-7.53 0,-3.09 2.26,-5.78 6.76,-6.75 -1.75,-5.41 -1.95,-6.06 -1.95,-6.37 0,-0.96 0.8,-1.13 1.17,-1.13 0.39,0 1.09,0.25 1.36,0.77 0.25,0.53 0.56,2.31 1.27,6.45 z"
           inkscape:connector-curvature="0"
           style="fill:#ff0000;stroke-width:0" /></g>    </g>
  </g>
</svg>
