<?xml version="1.0" encoding="UTF-8" standalone="no"?>
<svg
   xmlns:dc="http://purl.org/dc/elements/1.1/"
   xmlns:cc="http://creativecommons.org/ns#"
   xmlns:rdf="http://www.w3.org/1999/02/22-rdf-syntax-ns#"
   xmlns:svg="http://www.w3.org/2000/svg"
   xmlns="http://www.w3.org/2000/svg"
   xmlns:xlink="http://www.w3.org/1999/xlink"
   xmlns:sodipodi="http://sodipodi.sourceforge.net/DTD/sodipodi-0.dtd"
   xmlns:inkscape="http://www.inkscape.org/namespaces/inkscape"
   width="408.497917pt"
   height="274.722729pt"
   viewBox="0 0 408.497917 274.722729"
   version="1.2"
   id="svg161"
   sodipodi:docname="naissance_oscillations.svg"
   inkscape:version="0.92.5 (2060ec1f9f, 2020-04-08)">
  <metadata
     id="metadata165">
    <rdf:RDF>
      <cc:Work
         rdf:about="">
        <dc:format>image/svg+xml</dc:format>
        <dc:type
           rdf:resource="http://purl.org/dc/dcmitype/StillImage" />
        <dc:title></dc:title>
      </cc:Work>
    </rdf:RDF>
  </metadata>
  <sodipodi:namedview
     pagecolor="#ffffff"
     bordercolor="#666666"
     borderopacity="1"
     objecttolerance="10"
     gridtolerance="10"
     guidetolerance="10"
     inkscape:pageopacity="0"
     inkscape:pageshadow="2"
     inkscape:window-width="1848"
     inkscape:window-height="1016"
     id="namedview163"
     showgrid="false"
     inkscape:zoom="0.911158"
     inkscape:cx="528.37664"
     inkscape:cy="224.15846"
     inkscape:window-x="72"
     inkscape:window-y="27"
     inkscape:window-maximized="1"
     inkscape:current-layer="svg161"
     inkscape:snap-global="true" />
  <defs
     id="defs58">
    <g
       id="g53">
      <symbol
         overflow="visible"
         id="glyph0-0">
        <path
           style="stroke:none;"
           d=""
           id="path2" />
      </symbol>
      <symbol
         overflow="visible"
         id="glyph0-1">
        <path
           style="stroke:none;"
           d="M 7.53125 -5.765625 C 7.53125 -6.859375 7.515625 -8.71875 6.765625 -10.15625 C 6.09375 -11.40625 5.046875 -11.859375 4.109375 -11.859375 C 3.25 -11.859375 2.15625 -11.46875 1.46875 -10.171875 C 0.75 -8.828125 0.6875 -7.15625 0.6875 -5.765625 C 0.6875 -4.734375 0.703125 -3.171875 1.25 -1.8125 C 2.03125 0.03125 3.40625 0.28125 4.109375 0.28125 C 4.9375 0.28125 6.1875 -0.046875 6.921875 -1.765625 C 7.46875 -3 7.53125 -4.453125 7.53125 -5.765625 Z M 4.109375 0 C 2.953125 0 2.28125 -0.984375 2.03125 -2.34375 C 1.828125 -3.40625 1.828125 -4.953125 1.828125 -5.953125 C 1.828125 -7.34375 1.828125 -8.484375 2.0625 -9.578125 C 2.40625 -11.109375 3.40625 -11.5625 4.109375 -11.5625 C 4.84375 -11.5625 5.796875 -11.078125 6.140625 -9.609375 C 6.375 -8.59375 6.390625 -7.390625 6.390625 -5.953125 C 6.390625 -4.796875 6.390625 -3.359375 6.171875 -2.296875 C 5.796875 -0.34375 4.734375 0 4.109375 0 Z M 4.109375 0 "
           id="path5" />
      </symbol>
      <symbol
         overflow="visible"
         id="glyph0-2">
        <path
           style="stroke:none;"
           d="M 4.765625 -11.46875 C 4.765625 -11.84375 4.75 -11.859375 4.5 -11.859375 C 3.796875 -11.015625 2.75 -10.75 1.734375 -10.703125 C 1.6875 -10.703125 1.59375 -10.703125 1.578125 -10.671875 C 1.5625 -10.640625 1.5625 -10.59375 1.5625 -10.21875 C 2.109375 -10.21875 3.046875 -10.328125 3.765625 -10.765625 L 3.765625 -1.3125 C 3.765625 -0.6875 3.734375 -0.46875 2.1875 -0.46875 L 1.65625 -0.46875 L 1.65625 0 C 2.515625 -0.015625 3.40625 -0.03125 4.265625 -0.03125 C 5.125 -0.03125 6.03125 -0.015625 6.890625 0 L 6.890625 -0.46875 L 6.34375 -0.46875 C 4.8125 -0.46875 4.765625 -0.65625 4.765625 -1.3125 Z M 4.765625 -11.46875 "
           id="path8" />
      </symbol>
      <symbol
         overflow="visible"
         id="glyph0-3">
        <path
           style="stroke:none;"
           d="M 7.484375 -2.78125 L 7.15625 -2.78125 C 6.984375 -1.5 6.828125 -1.296875 6.765625 -1.1875 C 6.671875 -1.046875 5.375 -1.046875 5.125 -1.046875 L 1.6875 -1.046875 C 2.328125 -1.734375 3.59375 -3.015625 5.109375 -4.484375 C 6.203125 -5.53125 7.484375 -6.75 7.484375 -8.515625 C 7.484375 -10.640625 5.796875 -11.859375 3.90625 -11.859375 C 1.9375 -11.859375 0.734375 -10.109375 0.734375 -8.5 C 0.734375 -7.796875 1.25 -7.71875 1.46875 -7.71875 C 1.65625 -7.71875 2.1875 -7.828125 2.1875 -8.453125 C 2.1875 -9 1.71875 -9.171875 1.46875 -9.171875 C 1.359375 -9.171875 1.25 -9.140625 1.1875 -9.109375 C 1.53125 -10.640625 2.5625 -11.390625 3.65625 -11.390625 C 5.21875 -11.390625 6.25 -10.15625 6.25 -8.515625 C 6.25 -6.953125 5.328125 -5.609375 4.3125 -4.453125 L 0.734375 -0.40625 L 0.734375 0 L 7.046875 0 Z M 7.484375 -2.78125 "
           id="path11" />
      </symbol>
      <symbol
         overflow="visible"
         id="glyph0-4">
        <path
           style="stroke:none;"
           d="M 3.96875 -6.09375 C 5.5625 -6.09375 6.265625 -4.71875 6.265625 -3.125 C 6.265625 -0.96875 5.109375 -0.140625 4.078125 -0.140625 C 3.125 -0.140625 1.578125 -0.609375 1.09375 -1.984375 C 1.1875 -1.953125 1.28125 -1.953125 1.359375 -1.953125 C 1.796875 -1.953125 2.109375 -2.234375 2.109375 -2.703125 C 2.109375 -3.234375 1.71875 -3.46875 1.359375 -3.46875 C 1.0625 -3.46875 0.59375 -3.3125 0.59375 -2.65625 C 0.59375 -1 2.203125 0.28125 4.109375 0.28125 C 6.09375 0.28125 7.625 -1.28125 7.625 -3.109375 C 7.625 -4.84375 6.1875 -6.09375 4.484375 -6.296875 C 5.84375 -6.578125 7.15625 -7.796875 7.15625 -9.4375 C 7.15625 -10.828125 5.734375 -11.859375 4.125 -11.859375 C 2.5 -11.859375 1.0625 -10.859375 1.0625 -9.421875 C 1.0625 -8.796875 1.53125 -8.6875 1.765625 -8.6875 C 2.140625 -8.6875 2.453125 -8.921875 2.453125 -9.375 C 2.453125 -9.84375 2.140625 -10.078125 1.765625 -10.078125 C 1.6875 -10.078125 1.59375 -10.078125 1.53125 -10.046875 C 2.046875 -11.234375 3.46875 -11.4375 4.09375 -11.4375 C 4.71875 -11.4375 5.90625 -11.140625 5.90625 -9.421875 C 5.90625 -8.921875 5.828125 -8.015625 5.21875 -7.234375 C 4.6875 -6.53125 4.078125 -6.5 3.484375 -6.4375 C 3.390625 -6.4375 2.984375 -6.40625 2.90625 -6.40625 C 2.78125 -6.390625 2.703125 -6.375 2.703125 -6.25 C 2.703125 -6.109375 2.71875 -6.09375 3.078125 -6.09375 Z M 3.96875 -6.09375 "
           id="path14" />
      </symbol>
      <symbol
         overflow="visible"
         id="glyph0-5">
        <path
           style="stroke:none;"
           d="M 6.03125 -11.609375 C 6.03125 -11.984375 6.015625 -12 5.6875 -12 L 0.359375 -3.515625 L 0.359375 -3.046875 L 4.984375 -3.046875 L 4.984375 -1.296875 C 4.984375 -0.640625 4.953125 -0.46875 3.6875 -0.46875 L 3.359375 -0.46875 L 3.359375 0 C 3.921875 -0.03125 4.890625 -0.03125 5.5 -0.03125 C 6.109375 -0.03125 7.078125 -0.03125 7.65625 0 L 7.65625 -0.46875 L 7.3125 -0.46875 C 6.0625 -0.46875 6.03125 -0.640625 6.03125 -1.296875 L 6.03125 -3.046875 L 7.859375 -3.046875 L 7.859375 -3.515625 L 6.03125 -3.515625 Z M 5.046875 -10.421875 L 5.046875 -3.515625 L 0.71875 -3.515625 Z M 5.046875 -10.421875 "
           id="path17" />
      </symbol>
      <symbol
         overflow="visible"
         id="glyph0-6">
        <path
           style="stroke:none;"
           d="M 2.046875 -10.5 C 2.21875 -10.421875 2.953125 -10.1875 3.71875 -10.1875 C 5.375 -10.1875 6.296875 -11.078125 6.8125 -11.609375 C 6.8125 -11.75 6.8125 -11.84375 6.703125 -11.84375 C 6.6875 -11.84375 6.65625 -11.84375 6.515625 -11.765625 C 5.890625 -11.5 5.140625 -11.28125 4.25 -11.28125 C 3.71875 -11.28125 2.90625 -11.359375 2.03125 -11.75 C 1.828125 -11.84375 1.796875 -11.84375 1.78125 -11.84375 C 1.6875 -11.84375 1.671875 -11.828125 1.671875 -11.46875 L 1.671875 -6.265625 C 1.671875 -5.9375 1.671875 -5.84375 1.84375 -5.84375 C 1.9375 -5.84375 1.96875 -5.890625 2.0625 -6.015625 C 2.640625 -6.8125 3.421875 -7.15625 4.328125 -7.15625 C 4.953125 -7.15625 6.296875 -6.765625 6.296875 -3.6875 C 6.296875 -3.125 6.296875 -2.078125 5.765625 -1.25 C 5.3125 -0.515625 4.609375 -0.140625 3.84375 -0.140625 C 2.65625 -0.140625 1.453125 -0.96875 1.125 -2.34375 C 1.203125 -2.328125 1.34375 -2.296875 1.421875 -2.296875 C 1.65625 -2.296875 2.09375 -2.421875 2.09375 -2.984375 C 2.09375 -3.46875 1.765625 -3.65625 1.421875 -3.65625 C 1 -3.65625 0.734375 -3.40625 0.734375 -2.90625 C 0.734375 -1.34375 1.96875 0.28125 3.875 0.28125 C 5.71875 0.28125 7.484375 -1.3125 7.484375 -3.625 C 7.484375 -5.78125 6.078125 -7.4375 4.34375 -7.4375 C 3.421875 -7.4375 2.65625 -7.109375 2.046875 -6.453125 Z M 2.046875 -10.5 "
           id="path20" />
      </symbol>
      <symbol
         overflow="visible"
         id="glyph1-0">
        <path
           style="stroke:none;"
           d=""
           id="path23" />
      </symbol>
      <symbol
         overflow="visible"
         id="glyph1-1">
        <path
           style="stroke:none;"
           d="M 3.609375 -7.203125 L 5.25 -7.203125 C 5.59375 -7.203125 5.78125 -7.203125 5.78125 -7.53125 C 5.78125 -7.734375 5.671875 -7.734375 5.3125 -7.734375 L 3.734375 -7.734375 L 4.390625 -10.34375 C 4.46875 -10.59375 4.46875 -10.640625 4.46875 -10.765625 C 4.46875 -11.046875 4.234375 -11.203125 4 -11.203125 C 3.859375 -11.203125 3.4375 -11.15625 3.296875 -10.578125 L 2.59375 -7.734375 L 0.921875 -7.734375 C 0.5625 -7.734375 0.390625 -7.734375 0.390625 -7.390625 C 0.390625 -7.203125 0.515625 -7.203125 0.859375 -7.203125 L 2.453125 -7.203125 L 1.28125 -2.46875 C 1.125 -1.84375 1.078125 -1.671875 1.078125 -1.4375 C 1.078125 -0.59375 1.671875 0.171875 2.671875 0.171875 C 4.484375 0.171875 5.453125 -2.4375 5.453125 -2.5625 C 5.453125 -2.671875 5.375 -2.71875 5.28125 -2.71875 C 5.234375 -2.71875 5.171875 -2.71875 5.125 -2.65625 C 5.109375 -2.640625 5.09375 -2.625 4.96875 -2.328125 C 4.59375 -1.4375 3.765625 -0.171875 2.71875 -0.171875 C 2.1875 -0.171875 2.15625 -0.625 2.15625 -1.015625 C 2.15625 -1.046875 2.15625 -1.375 2.203125 -1.59375 Z M 3.609375 -7.203125 "
           id="path26" />
      </symbol>
      <symbol
         overflow="visible"
         id="glyph2-0">
        <path
           style="stroke:none;"
           d=""
           id="path29" />
      </symbol>
      <symbol
         overflow="visible"
         id="glyph2-1">
        <path
           style="stroke:none;"
           d="M 11.828125 -4.125 C 12.125 -4.125 12.453125 -4.125 12.453125 -4.484375 C 12.453125 -4.84375 12.125 -4.84375 11.828125 -4.84375 L 2.109375 -4.84375 C 1.8125 -4.84375 1.484375 -4.84375 1.484375 -4.484375 C 1.484375 -4.125 1.8125 -4.125 2.109375 -4.125 Z M 11.828125 -4.125 "
           id="path32" />
      </symbol>
      <symbol
         overflow="visible"
         id="glyph3-0">
        <path
           style="stroke:none;"
           d=""
           id="path35" />
      </symbol>
      <symbol
         overflow="visible"
         id="glyph3-1">
        <path
           style="stroke:none;"
           d="M -3.59375 -4.09375 C -3.53125 -4.390625 -3.421875 -4.875 -3.40625 -4.984375 C -3.34375 -5.21875 -3.046875 -6.03125 -2.1875 -6.03125 C -1.625 -6.03125 -0.171875 -5.53125 -0.171875 -3.4375 C -0.171875 -3.0625 -0.234375 -1.71875 -1.21875 -1.359375 C -1.125 -2.078125 -1.6875 -2.4375 -2.078125 -2.4375 C -2.453125 -2.4375 -2.65625 -2.1875 -2.65625 -1.828125 C -2.65625 -1.4375 -2.34375 -0.921875 -1.546875 -0.921875 C -0.484375 -0.921875 0.171875 -1.984375 0.171875 -3.421875 C 0.171875 -6.15625 -1.828125 -6.953125 -2.765625 -6.953125 C -3.03125 -6.953125 -3.53125 -6.953125 -4.109375 -6.390625 C -4.53125 -5.9375 -4.625 -5.5 -4.828125 -4.53125 C -4.9375 -4.046875 -5.09375 -3.28125 -5.90625 -3.28125 C -6.265625 -3.28125 -7.546875 -3.609375 -7.546875 -5.3125 C -7.546875 -6.0625 -7.265625 -6.796875 -6.625 -6.984375 C -6.625 -6.1875 -5.9375 -6.15625 -5.921875 -6.15625 C -5.546875 -6.15625 -5.4375 -6.5 -5.4375 -6.65625 C -5.4375 -6.90625 -5.625 -7.40625 -6.390625 -7.40625 C -7.140625 -7.40625 -7.90625 -6.71875 -7.90625 -5.328125 C -7.90625 -2.984375 -6.0625 -2.34375 -5.328125 -2.34375 C -3.96875 -2.34375 -3.671875 -3.671875 -3.59375 -4.09375 Z M -3.59375 -4.09375 "
           id="path38" />
      </symbol>
      <symbol
         overflow="visible"
         id="glyph3-2">
        <path
           style="stroke:none;"
           d="M -7.203125 -3.609375 L -7.203125 -5.25 C -7.203125 -5.59375 -7.203125 -5.78125 -7.53125 -5.78125 C -7.734375 -5.78125 -7.734375 -5.671875 -7.734375 -5.3125 L -7.734375 -3.734375 L -10.34375 -4.390625 C -10.59375 -4.46875 -10.640625 -4.46875 -10.765625 -4.46875 C -11.046875 -4.46875 -11.203125 -4.234375 -11.203125 -4 C -11.203125 -3.859375 -11.15625 -3.4375 -10.578125 -3.296875 L -7.734375 -2.59375 L -7.734375 -0.921875 C -7.734375 -0.5625 -7.734375 -0.390625 -7.390625 -0.390625 C -7.203125 -0.390625 -7.203125 -0.515625 -7.203125 -0.859375 L -7.203125 -2.453125 L -2.46875 -1.28125 C -1.84375 -1.125 -1.671875 -1.078125 -1.4375 -1.078125 C -0.59375 -1.078125 0.171875 -1.671875 0.171875 -2.671875 C 0.171875 -4.484375 -2.4375 -5.453125 -2.5625 -5.453125 C -2.671875 -5.453125 -2.71875 -5.375 -2.71875 -5.28125 C -2.71875 -5.234375 -2.71875 -5.171875 -2.65625 -5.125 C -2.640625 -5.109375 -2.625 -5.09375 -2.328125 -4.96875 C -1.4375 -4.59375 -0.171875 -3.765625 -0.171875 -2.71875 C -0.171875 -2.1875 -0.625 -2.15625 -1.015625 -2.15625 C -1.046875 -2.15625 -1.375 -2.15625 -1.59375 -2.203125 Z M -7.203125 -3.609375 "
           id="path41" />
      </symbol>
      <symbol
         overflow="visible"
         id="glyph4-0">
        <path
           style="stroke:none;"
           d=""
           id="path44" />
      </symbol>
      <symbol
         overflow="visible"
         id="glyph4-1">
        <path
           style="stroke:none;"
           d="M 4.375 -5.484375 C 4.359375 -5.484375 4.328125 -5.484375 4.265625 -5.4375 C 3.421875 -4.609375 1.125 -2.40625 -4.46875 -2.40625 C -10.0625 -2.40625 -12.34375 -4.578125 -13.234375 -5.453125 C -13.25 -5.453125 -13.296875 -5.484375 -13.34375 -5.484375 C -13.40625 -5.484375 -13.4375 -5.4375 -13.4375 -5.359375 C -13.4375 -5.171875 -12.109375 -3.640625 -10.140625 -2.765625 C -8.140625 -1.859375 -6.203125 -1.609375 -4.484375 -1.609375 C -3.1875 -1.609375 -1 -1.734375 1.3125 -2.8125 C 3.171875 -3.671875 4.484375 -5.140625 4.484375 -5.359375 C 4.484375 -5.453125 4.453125 -5.484375 4.375 -5.484375 Z M 4.375 -5.484375 "
           id="path47" />
      </symbol>
      <symbol
         overflow="visible"
         id="glyph4-2">
        <path
           style="stroke:none;"
           d="M -4.46875 -4.71875 C -5.765625 -4.71875 -7.953125 -4.59375 -10.265625 -3.515625 C -12.125 -2.65625 -13.4375 -1.1875 -13.4375 -0.96875 C -13.4375 -0.921875 -13.421875 -0.84375 -13.328125 -0.84375 C -13.296875 -0.84375 -13.28125 -0.859375 -13.234375 -0.875 C -12.34375 -1.734375 -10.0625 -3.921875 -4.484375 -3.921875 C 1.109375 -3.921875 3.390625 -1.765625 4.28125 -0.875 C 4.328125 -0.859375 4.34375 -0.84375 4.375 -0.84375 C 4.46875 -0.84375 4.484375 -0.921875 4.484375 -0.96875 C 4.484375 -1.171875 3.15625 -2.6875 1.1875 -3.5625 C -0.8125 -4.46875 -2.75 -4.71875 -4.46875 -4.71875 Z M -4.46875 -4.71875 "
           id="path50" />
      </symbol>
    </g>
    <clipPath
       id="clip1">
      <path
         d="M 0 0 L 408.496094 0 L 408.496094 274.722656 L 0 274.722656 Z M 0 0 "
         id="path55" />
    </clipPath>
  </defs>
  <g
     id="g1395">
    <g
       transform="translate(0,-18)"
       style="fill:#000000;fill-opacity:1"
       id="g104">
      <use
         xlink:href="#glyph1-1"
         x="230.72755"
         y="264.03467"
         id="use102"
         width="100%"
         height="100%" />
    </g>
    <path
       style="fill:none;stroke:#000000;stroke-width:0.80000001;stroke-linecap:butt;stroke-linejoin:round;stroke-miterlimit:10;stroke-opacity:1"
       d="m 66.496094,215.4424 h -3.5"
       id="path106"
       inkscape:connector-curvature="0" />
    <path
       style="fill:none;stroke:#000000;stroke-width:0.80000001;stroke-linecap:butt;stroke-linejoin:round;stroke-miterlimit:10;stroke-opacity:1"
       d="m 66.496094,115.92188 h -3.5"
       id="path118"
       inkscape:connector-curvature="0" />
    <path
       style="fill:none;stroke:#000000;stroke-width:0.80000001;stroke-linecap:butt;stroke-linejoin:round;stroke-miterlimit:10;stroke-opacity:1"
       d="m 66.205074,16.570814 h -3.5"
       id="path124"
       inkscape:connector-curvature="0" />
    <g
       style="fill:#000000;fill-opacity:1"
       id="g134">
      <use
         xlink:href="#glyph3-1"
         x="20.633421"
         y="129.5764"
         id="use132"
         width="100%"
         height="100%" />
    </g>
    <g
       style="fill:#000000;fill-opacity:1"
       id="g138">
      <use
         xlink:href="#glyph4-1"
         x="20.633421"
         y="121.3054"
         id="use136"
         width="100%"
         height="100%" />
    </g>
    <g
       style="fill:#000000;fill-opacity:1"
       id="g142">
      <use
         xlink:href="#glyph3-2"
         x="20.633421"
         y="114.95487"
         id="use140"
         width="100%"
         height="100%" />
    </g>
    <g
       style="fill:#000000;fill-opacity:1"
       id="g146">
      <use
         xlink:href="#glyph4-2"
         x="20.633421"
         y="108.61413"
         id="use144"
         width="100%"
         height="100%" />
    </g>
    <path
       style="fill:none;stroke:#1e75b3;stroke-width:1.5;stroke-linecap:square;stroke-linejoin:round;stroke-miterlimit:10;stroke-opacity:1"
       d="m 81.714844,111 0.429687,0.0742 0.457031,0.32031 0.53125,0.66407 0.675782,1.24218 0.992187,2.36328 1.710938,4.04297 0.703125,1.10157 0.535156,0.46875 0.441406,0.10937 0.410156,-0.12891 0.445313,-0.39453 0.539063,-0.79687 0.6875,-1.45313 1.058593,-2.84375 1.515625,-3.97656 0.703125,-1.25391 0.527344,-0.53906 0.429687,-0.14844 0.386719,0.0937 0.417969,0.35157 0.503906,0.74218 0.628906,1.36719 0.894532,2.53906 2.027344,5.89454 0.656252,1.19921 0.5039,0.50391 0.40235,0.11719 0.36328,-0.1211 0.40234,-0.38671 0.49219,-0.8125 0.62109,-1.49219 0.88672,-2.77735 2.05469,-6.63281 0.65625,-1.32422 0.49609,-0.54687 0.38282,-0.13281 0.34765,0.11328 0.38282,0.375 0.46484,0.79687 0.59375,1.50781 0.8125,2.73047 2.41797,8.52344 0.60547,1.19531 0.45703,0.46875 0.35547,0.082 0.32812,-0.15234 0.38281,-0.44922 0.46485,-0.92578 0.60547,-1.74219 0.83984,-3.1914 2.24609,-8.8711 0.6211,-1.46093 0.46484,-0.60157 0.35547,-0.14062 0.30859,0.10937 0.34766,0.375 0.42969,0.82422 0.54687,1.58203 0.74219,2.89063 1.60547,7.50781 0.93359,3.67969 0.6211,1.64844 0.46484,0.68359 0.34766,0.17578 0.30078,-0.0937 0.32812,-0.35937 0.41016,-0.8125 0.51953,-1.57422 0.69531,-2.87891 1.15235,-5.90625 1.29687,-6.30078 0.68359,-2.32031 0.5,-1.01953 0.375,-0.33594 0.29297,0.008 0.29297,0.24219 0.36328,0.6289 0.46875,1.3086 0.60157,2.42578 0.84765,4.46094 2.15625,11.70312 0.62891,2.10156 0.46484,0.8711 0.33985,0.23437 0.27343,-0.0664 0.29297,-0.32813 0.375,-0.79297 0.48438,-1.61328 0.6289,-2.96484 0.92188,-5.5586 1.82812,-11.125 0.66407,-2.67968 0.48437,-1.14453 0.35547,-0.36329 0.26562,0.0117 0.27344,0.26172 0.33985,0.67188 0.4375,1.41797 0.5664,2.66406 0.78516,4.88281 2.53906,16.66406 0.56641,2.03125 0.41797,0.80469 0.30078,0.17578 0.24609,-0.11328 0.28516,-0.41016 0.36328,-0.96875 0.47656,-1.96093 0.62109,-3.59375 0.91407,-6.76172 1.85156,-13.92188 0.66016,-3.25 0.48046,-1.41797 0.34766,-0.44531 0.24609,-0.008 0.25,0.24609 0.3086,0.67188 0.41015,1.48437 0.53125,2.83985 0.71094,5.15234 1.32422,11.60156 1.09766,8.69922 0.65625,3.63672 0.48437,1.59375 0.34766,0.50781 0.23437,0.0274 0.23047,-0.22266 0.29297,-0.64062 0.39063,-1.46485 0.51171,-2.8789 0.67579,-5.21094 1.09765,-10.47656 1.36719,-12.57813 0.6875,-4.38672 0.49219,-1.92187 0.35547,-0.65235 0.23828,-0.0781 0.20703,0.17969 0.27734,0.57031 0.36328,1.35937 0.47657,2.71485 0.6289,5.03906 0.92969,9.50391 1.79297,18.41796 0.66406,4.5625 0.48438,1.96875 0.33984,0.6211 0.22656,0.0547 0.21094,-0.21875 0.27344,-0.66407 0.36328,-1.54297 0.48437,-3.125 0.64063,-5.7539 0.94922,-10.85547 1.70703,-19.52734 0.67578,-5.21485 0.48437,-2.24219 0.34766,-0.73828 0.21875,-0.0781 0.19141,0.1875 0.25781,0.61328 0.34375,1.48828 0.45703,3.04688 0.60547,5.69921 0.85547,10.4961 2.08203,26.21094 0.63281,4.98046 0.45313,2.09375 0.32031,0.625 0.20312,0.0274 0.19141,-0.24219 0.26563,-0.76172 0.35546,-1.79297 0.47266,-3.68359 0.62109,-6.74609 0.91407,-12.69141 1.84375,-25.97266 0.66015,-6.11718 0.47266,-2.64063 0.33984,-0.85937 0.20703,-0.0859 0.17579,0.1914 0.24609,0.6836 0.33594,1.69922 0.44922,3.54687 0.58593,6.61719 0.82032,12.14453 2.27343,35.01953 0.60157,5.55078 0.4375,2.29297 0.30468,0.63672 0.17969,0.004 0.18359,-0.28907 0.25782,-0.89453 0.35547,-2.17578 0.46484,-4.39844 0.61328,-8.10156 0.89453,-15.21484 1.92578,-33.37891 0.64844,-7.29297 0.47266,-3.14843 0.33203,-0.96094 0.1914,-0.082 0.16407,0.21093 0.23828,0.77344 0.32812,1.96485 0.4375,4.15625 0.57422,7.84765 0.79688,14.2461 2.4375,45.87109 0.57422,6.14844 0.42187,2.48437 0.28125,0.63281 0.15625,-0.0156 0.17188,-0.32422 0.24609,-1.02344 0.34766,-2.52734 0.45703,-5.16797 0.60156,-9.64062 0.85937,-17.74219 2.07422,-44.07031 0.62891,-8.42579 0.45703,-3.5625 0.32031,-1.07421 0.17969,-0.0703 0.15625,0.25391 0.23047,0.89844 0.31641,2.29687 0.42968,4.90235 0.5586,9.17187 0.77734,16.88672 2.57422,59.28125 0.55469,6.95312 0.40234,2.70703 0.26563,0.64454 0.13671,-0.0312 0.16407,-0.36719 0.24609,-1.22266 0.33984,-2.96875 0.44532,-6.11719 0.59375,-11.5039 0.83984,-21.17578 2.17578,-56.76563 0.6211,-9.95703 0.44531,-4.11719 0.3125,-1.1914 0.15234,-0.0664 0.0117,0.008 0.14453,0.28125 0.21875,1.01172 0.3125,2.64063 0.41797,5.72265 0.54688,10.84766 0.75,19.72266 2.75,77.12109 0.52734,7.52344 0.38672,2.8125 0.24609,0.5625 0.11719,-0.082 0.16406,-0.5 0.2461,-1.57422 0.34765,-3.875 0.45703,-7.89453 0.60157,-14.69532 0.86718,-27.32031 2.04688,-66.179688 0.6289,-12.92968 0.45704,-5.50782 0.32031,-1.70703 0.15625,-0.16406 0.0273,0.0156 0.125,0.25781 0.20313,1.00781 0.29297,2.76563 0.39062,6.07031 0.51953,11.88281 0.70313,21.76172 1.23437,46.609368 1.17969,41.30078 0.67578,16.58985 0.48047,7.1836 0.33984,2.375 0.19922,0.33203 0.10938,-0.16016 0.17578,-0.75391 0.26562,-2.32031 0.36328,-5.46875 0.47657,-10.80469 0.6289,-19.88281 0.94141,-37.66406 1.73437,-69.718748 0.66797,-18.03125 0.48047,-7.89453 0.33985,-2.57813 0.18359,-0.33984 0.0156,0.008 0.10938,0.19922 0.18359,0.93359 0.27344,2.80078 0.375,6.47266 0.49219,12.88281 0.64844,23.35156 1.0039,45.421878 0.95313,44.62109"
       id="path148"
       inkscape:connector-curvature="0" />
    <path
       style="fill:none;stroke:#1e75b3;stroke-width:1.5;stroke-linecap:square;stroke-linejoin:round;stroke-miterlimit:10;stroke-opacity:1"
       d="m 264.33594,160.20703 0.84375,31.99219 0.58984,14.82422 0.43359,6.04297 0.29297,1.60547 0.10157,0.0781 0.0391,-0.0312 0.125,-0.3711 0.20703,-1.42578 0.30078,-3.82031 0.40625,-8.45313 0.53516,-16.21875 0.73828,-29.76171 2.80078,-120.675785 0.53516,-11.58984 0.39062,-4.38672 0.25,-0.92188 0.0937,0.0469 0.008,0.008 0.14063,0.48437 0.22656,1.75782 0.31641,4.46875 0.42578,9.51953 0.5664,18.16797 0.78907,33.34765 2.41015,106.488285 0.59766,15.26172 0.43359,6.23828 0.29688,1.75781 0.11719,0.11328 0.0351,-0.0352 0.12891,-0.36328 0.20703,-1.41406 0.29687,-3.80859 0.40625,-8.44141 0.53907,-16.19922 0.73437,-29.74219 2.8086,-120.874998 0.53515,-11.53906 0.39063,-4.34766 0.24609,-0.89843 0.10547,0.0664 0.14062,0.5 0.22266,1.77735 0.32422,4.61328 0.43359,9.77734 0.57032,18.55859 0.80468,34.125 2.33594,103.660158 0.60547,15.83985 0.44141,6.67968 0.30468,1.92188 0.12891,0.14453 0.0312,-0.0234 0.12109,-0.31641 0.19922,-1.29297 0.29297,-3.57421 0.39453,-7.91016 0.52344,-15.39453 0.71484,-28.16797 1.42188,-67.69922 1.02344,-42.93359 0.65234,-18.98828 0.47656,-8.28907 0.33203,-2.72265 0.1836,-0.35547 0.0117,0.004 0.10546,0.18359 0.16797,0.85547 0.26172,2.66015 0.35938,6.20704 0.48047,12.61718 0.64062,23.21485 0.98438,45.08984 1.59765,72.05078 0.6875,21.39063 0.5,9.52734 0.35938,3.33984 0.21875,0.52735 0.0976,-0.13282 0.16407,-0.74218 0.25,-2.35157 0.34375,-5.65625 0.46484,-11.58593 0.61328,-21.54297 0.91406,-40.83594 1.82032,-82.23437 0.66796,-20.19141 0.48829,-8.91406 0.34765,-3.03516 0.19922,-0.44531 h 0.008 l 0.0977,0.14453 0.16406,0.76172 0.25,2.38281 0.35156,5.82422 0.46875,11.875 0.6211,21.96094 0.93359,41.90625 1.75781,79.53125 0.67579,20.57812 0.49218,9.13281 0.35547,3.1211 0.19922,0.44922 h 0.008 l 0.0977,-0.14453 0.16406,-0.75782 0.25,-2.375 0.34375,-5.6914 0.46485,-11.62891 0.62109,-21.82812 0.91797,-41.21485 1.79687,-81.15625 0.66797,-20.29297 0.49219,-9.07812 0.34766,-3.04688 0.20703,-0.45312 0.0976,0.14062 0.16407,0.75391 0.25,2.375 0.34765,5.68359 0.46094,11.61719 0.62109,21.82031 0.92188,41.20704 1.79297,81.16796 0.67187,20.30078 0.49219,9.08985 0.34766,3.05469 0.20703,0.45703 0.0976,-0.14063 0.16407,-0.75 0.25,-2.36719 0.34765,-5.67578 0.46094,-11.61328 0.61719,-21.5664 0.91015,-40.85547 1.82032,-82.20313 0.67187,-20.16406 0.48438,-8.88672 0.34765,-3.01172 0.20313,-0.43359 h 0.004 l 0.10547,0.17187 0.16797,0.83594 0.25781,2.54688 0.35938,6.11718 0.47265,12.31641 0.63282,22.79297 0.96875,44.02344 1.64453,74.33203 0.67969,21.15234 0.5,9.52344 0.35937,3.33203 0.21875,0.52344 0.0977,-0.13282 0.16406,-0.74609 0.25,-2.35547 0.34766,-5.66406 0.46093,-11.59375 0.61719,-21.55078 0.91406,-40.83984 1.82032,-82.22657 0.66796,-20.18359 0.48829,-8.90625 0.34765,-3.02734 0.19922,-0.44141 h 0.008 l 0.0937,0.14844 0.16797,0.76562 0.2461,2.38672 0.35546,5.82813 0.46875,11.88281 0.6211,21.97265 0.92969,41.91016 1.76171,79.51953 0.67579,20.57031 0.49218,9.125 0.34766,3.08594 0.20703,0.47266 h 0.004 l 0.0976,-0.14453 0.16407,-0.76172 0.25,-2.38282 0.35156,-5.82031 0.46875,-11.875 0.62109,-21.96094 0.9336,-41.90624 1.75781,-79.53125 0.67578,-20.57813 0.49219,-9.13672 0.35547,-3.12109 0.19921,-0.44922 h 0.008 l 0.0976,0.14453 0.16407,0.75781 0.25,2.375 0.34765,5.69141 0.46094,11.625 0.62109,21.82812 0.91797,41.21485 1.79688,81.15625 0.66797,20.29297 0.49609,9.07812 0.34766,3.05078 0.20703,0.45313 0.0937,-0.14063 0.16797,-0.7539 0.24609,-2.3711 0.34766,-5.68359 0.46484,-11.6211 0.62109,-21.8164 0.91797,-41.20703 1.79688,-81.16797 0.66797,-20.30469 0.49218,-9.08594 0.34766,-3.05859 0.20703,-0.45703 0.0977,0.14062 0.16406,0.75 0.25,2.36329 0.34766,5.67968 0.46093,11.60938 0.61719,21.5664 0.91406,40.85547 1.81641,82.20313 0.67187,20.16406 0.48829,8.88672 0.34375,3.01562 0.20312,0.4336 h 0.004 l 0.10547,-0.16797 0.17187,-0.83985 0.25391,-2.54687 0.35937,-6.11328 0.47266,-12.31641 0.63672,-22.78906 0.96484,-44.02734 1.64453,-74.33203 0.13281,-4.8125"
       id="path150"
       inkscape:connector-curvature="0" />
    <path
       style="fill:none;stroke:#000000;stroke-width:0.80000001;stroke-linecap:square;stroke-linejoin:miter;stroke-miterlimit:10;stroke-opacity:1"
       d="M 66.496094,224.64063 V 7.19922"
       id="path152"
       inkscape:connector-curvature="0" />
    <path
       style="fill:none;stroke:#000000;stroke-width:0.80000001;stroke-linecap:square;stroke-linejoin:miter;stroke-miterlimit:10;stroke-opacity:1"
       d="M 401.29687,224.64063 V 7.19922"
       id="path154"
       inkscape:connector-curvature="0" />
    <path
       style="fill:none;stroke:#000000;stroke-width:0.80000001;stroke-linecap:square;stroke-linejoin:miter;stroke-miterlimit:10;stroke-opacity:1"
       d="M 66.496094,224.64063 H 401.29687"
       id="path156"
       inkscape:connector-curvature="0" />
    <path
       style="fill:none;stroke:#000000;stroke-width:0.80000001;stroke-linecap:square;stroke-linejoin:miter;stroke-miterlimit:10;stroke-opacity:1"
       d="M 66.496094,7.19922 H 401.29687"
       id="path158"
       inkscape:connector-curvature="0" />
    <g
       transform="translate(-84.250116,-128.65273)"
       id="g1118">
      <g
         style="font-style:normal;font-variant:normal;font-weight:normal;font-stretch:normal;letter-spacing:normal;word-spacing:normal;text-anchor:start;fill:none;fill-opacity:1;fill-rule:evenodd;stroke:#000000;stroke-linecap:butt;stroke-linejoin:miter;stroke-miterlimit:10.43299961;stroke-dasharray:none;stroke-dashoffset:0;stroke-opacity:1"
         id="content"
         transform="matrix(0.39246104,0,0,-0.39246104,-68.680682,306.37344)"
         xml:space="preserve"
         stroke-miterlimit="10.433"
         font-style="normal"
         font-variant="normal"
         font-weight="normal"
         font-stretch="normal"
         font-size-adjust="none"
         letter-spacing="normal"
         word-spacing="normal"><path
           style="fill:#000000;stroke-width:0"
           inkscape:connector-curvature="0"
           d="m 486.8,434.54 0.23,0.36 0.23,0.33 0.22,0.31 0.22,0.29 0.22,0.28 0.22,0.25 0.22,0.24 0.22,0.22 0.21,0.2 0.21,0.19 0.21,0.17 0.2,0.16 0.21,0.14 0.2,0.13 0.21,0.12 0.19,0.11 0.2,0.09 0.2,0.09 0.19,0.07 0.2,0.07 0.19,0.06 0.19,0.05 0.18,0.04 0.19,0.03 0.18,0.03 0.19,0.03 0.36,0.04 0.35,0.02 0.35,0.02 c 0.6,0.05 0.64,0.89 0.64,0.96 0,0.39 -0.25,0.59 -0.64,0.59 -1.3,0 -2.75,-0.16 -4.09,-0.16 -1.64,0 -3.35,0.16 -4.94,0.16 -0.3,0 -0.94,0 -0.94,-0.95 0,-0.55 0.46,-0.6 0.8,-0.6 1.34,-0.09 2.3,-0.59 2.3,-1.64 0,-0.75 -0.75,-1.84 -0.75,-1.89 l -15.3,-24.31 -3.39,26.34 c 0,0.85 1.14,1.5 3.44,1.5 0.7,0 1.25,0 1.25,1 0,0.44 -0.41,0.55 -0.71,0.55 -1.98,0 -4.14,-0.16 -6.17,-0.16 -0.9,0 -1.84,0.05 -2.75,0.05 -0.89,0 -1.84,0.11 -2.69,0.11 -0.34,0 -0.93,0 -0.93,-0.95 0,-0.6 0.43,-0.6 1.23,-0.6 2.8,0 2.84,-0.45 3,-1.68 l 3.92,-30.75 c 0.16,-1 0.36,-1.14 1,-1.14 0.8,0 1,0.25 1.41,0.89 z"
           id="path1109" /><path
           style="fill:#000000;stroke-width:0"
           inkscape:connector-curvature="0"
           d="m 497.76,413.4 v 0.06 0.05 0.05 0.05 0.05 0.05 0.04 l -0.01,0.04 v 0.05 0.04 l -0.01,0.03 v 0.04 l -0.01,0.03 -0.01,0.04 -0.01,0.03 -0.01,0.03 -0.01,0.03 -0.01,0.02 -0.02,0.03 -0.02,0.02 -0.02,0.02 -0.02,0.02 -0.02,0.02 -0.02,0.01 -0.03,0.01 -0.03,0.02 -0.03,0.01 h -0.03 l -0.02,0.01 h -0.02 -0.02 l -0.02,0.01 h -0.02 -0.02 -0.02 -0.02 c -0.17,0 -0.25,0 -0.71,-0.42 -0.06,-0.03 -0.4,-0.35 -0.62,-0.53 -1.05,0.73 -2.36,0.95 -3.66,0.95 -4.98,0 -6.17,-2.63 -6.17,-4.36 0,-1.13 0.5,-2.02 1.33,-2.72 1.33,-1.16 2.66,-1.39 4.81,-1.75 1.74,-0.31 4.56,-0.8 4.56,-3.12 0,-1.36 -0.93,-2.97 -4.28,-2.97 -3.34,0 -4.56,2.2 -5.2,4.56 -0.09,0.45 -0.14,0.59 -0.63,0.59 -0.59,0 -0.59,-0.23 -0.59,-0.93 v -4.29 c 0,-0.59 0,-0.9 0.5,-0.9 0.31,0 0.97,0.73 1.67,1.5 1.53,-1.44 3.41,-1.5 4.25,-1.5 4.53,0 6.21,2.44 6.21,4.9 0,1.33 -0.6,2.38 -1.5,3.21 -1.33,1.22 -2.94,1.5 -4.16,1.72 -2.78,0.48 -5.05,0.9 -5.05,2.75 0,1.11 0.94,2.46 4.25,2.46 4.05,0 4.22,-2.82 4.28,-3.82 0.05,-0.39 0.46,-0.39 0.6,-0.39 0.59,0 0.59,0.25 0.59,0.9 z"
           id="path1111" /><path
           style="fill:#000000;stroke-width:0"
           inkscape:connector-curvature="0"
           d="m 515.95,408.11 -0.01,0.33 v 0.33 l -0.01,0.32 -0.01,0.31 -0.01,0.15 -0.01,0.15 -0.02,0.14 -0.02,0.15 -0.02,0.14 -0.03,0.14 -0.03,0.14 -0.04,0.13 -0.04,0.14 -0.04,0.13 -0.05,0.13 -0.06,0.13 -0.06,0.13 -0.07,0.13 -0.07,0.13 -0.08,0.12 -0.09,0.13 -0.1,0.12 -0.1,0.12 -0.11,0.13 -0.12,0.12 -0.13,0.12 -0.14,0.12 -0.14,0.12 c -1.43,1.19 -3.1,1.75 -5.16,1.75 -3.31,0 -5.64,-1.27 -5.64,-3.39 0,-1.11 0.76,-1.71 1.67,-1.71 0.94,0 1.64,0.71 1.64,1.65 0,0.59 -0.28,1.32 -1.22,1.59 1.25,0.87 3.27,0.87 3.49,0.87 1.93,0 4.06,-1.28 4.06,-4.21 v -1.08 -0.91 -3.45 c 0,-3.35 -2.92,-4.28 -4.48,-4.28 -1.79,0 -3.46,1.18 -3.46,2.89 0,1.92 1.67,4.61 7.94,4.84 v 0.91 c -1.91,-0.07 -4.2,-0.17 -6.75,-1.11 -3.14,-1.16 -4.11,-3.06 -4.11,-4.64 0,-3 3.63,-3.86 6.09,-3.86 2.79,0 4.43,1.56 5.16,2.92 0.14,-1.42 1.08,-2.75 2.69,-2.75 0.06,0 3.44,0 3.44,3.31 v 1.91 h -1.18 v -1.88 c 0,-0.34 0,-2.01 -1.29,-2.01 -1.28,0 -1.28,1.62 -1.28,2.08 z"
           id="path1113" /><path
           style="fill:#000000;stroke-width:0"
           inkscape:connector-curvature="0"
           d="m 527.2,412.53 h 5.43 v 1.25 h -5.43 v 6.4 h -1.19 c -0.03,-3.12 -1.46,-6.57 -4.8,-6.68 v -0.97 h 3.24 v -9.41 c 0,-3.91 2.92,-4.7 4.87,-4.7 2.34,0 3.94,1.98 3.94,4.73 v 1.92 h -1.19 v -1.89 c 0,-2.36 -1.11,-3.65 -2.47,-3.65 -2.4,0 -2.4,2.92 -2.4,3.56 z"
           id="path1115" /></g>    </g>
    <g
       transform="translate(-97.952274,69.560841)"
       id="g1232">
      <g
         style="font-style:normal;font-variant:normal;font-weight:normal;font-stretch:normal;letter-spacing:normal;word-spacing:normal;text-anchor:start;fill:none;fill-opacity:1;fill-rule:evenodd;stroke:#000000;stroke-linecap:butt;stroke-linejoin:miter;stroke-miterlimit:10.43299961;stroke-dasharray:none;stroke-dashoffset:0;stroke-opacity:1"
         id="g1230"
         transform="matrix(0.39246104,0,0,-0.39246104,-68.680682,306.37344)"
         xml:space="preserve"
         stroke-miterlimit="10.433"
         font-style="normal"
         font-variant="normal"
         font-weight="normal"
         font-stretch="normal"
         font-size-adjust="none"
         letter-spacing="normal"
         word-spacing="normal"><path
           style="fill:#000000;stroke-width:0"
           inkscape:connector-curvature="0"
           d="m 488.35,417.65 h 0.16 0.16 l 0.15,0.01 h 0.08 l 0.08,0.01 h 0.07 l 0.08,0.01 0.07,0.01 0.07,0.01 0.07,0.02 0.07,0.02 0.07,0.02 0.06,0.02 0.06,0.02 0.06,0.03 0.05,0.03 0.06,0.04 0.05,0.03 0.04,0.05 0.04,0.04 0.04,0.05 0.02,0.03 0.02,0.03 0.01,0.03 0.02,0.03 0.01,0.03 0.02,0.03 0.01,0.04 0.01,0.03 0.01,0.04 v 0.04 l 0.01,0.04 0.01,0.04 v 0.04 l 0.01,0.04 v 0.05 0.04 c 0,1 -0.91,1 -1.75,1 h -26.96 c -0.84,0 -1.73,0 -1.73,-1 0,-1 0.89,-1 1.73,-1 z"
           id="path1220" /><path
           style="fill:#000000;stroke-width:0"
           inkscape:connector-curvature="0"
           d="m 525.56,434.54 0.23,0.36 0.22,0.33 0.23,0.31 0.22,0.29 0.22,0.28 0.22,0.25 0.22,0.24 0.21,0.22 0.22,0.2 0.21,0.19 0.21,0.17 0.2,0.16 0.21,0.14 0.2,0.13 0.2,0.12 0.2,0.11 0.2,0.09 0.2,0.09 0.19,0.07 0.19,0.07 0.19,0.06 0.19,0.05 0.19,0.04 0.19,0.03 0.18,0.03 0.18,0.03 0.37,0.04 0.35,0.02 0.35,0.02 c 0.59,0.05 0.64,0.89 0.64,0.96 0,0.39 -0.25,0.59 -0.64,0.59 -1.3,0 -2.75,-0.16 -4.1,-0.16 -1.63,0 -3.34,0.16 -4.93,0.16 -0.3,0 -0.94,0 -0.94,-0.95 0,-0.55 0.45,-0.6 0.8,-0.6 1.34,-0.09 2.29,-0.59 2.29,-1.64 0,-0.75 -0.75,-1.84 -0.75,-1.89 l -15.29,-24.31 -3.39,26.34 c 0,0.85 1.14,1.5 3.43,1.5 0.71,0 1.25,0 1.25,1 0,0.44 -0.4,0.55 -0.7,0.55 -1.98,0 -4.14,-0.16 -6.17,-0.16 -0.91,0 -1.84,0.05 -2.75,0.05 -0.89,0 -1.84,0.11 -2.69,0.11 -0.34,0 -0.94,0 -0.94,-0.95 0,-0.6 0.44,-0.6 1.24,-0.6 2.8,0 2.84,-0.45 3,-1.68 l 3.92,-30.75 c 0.16,-1 0.36,-1.14 1,-1.14 0.8,0 1,0.25 1.41,0.89 z"
           id="path1222" /><path
           style="fill:#000000;stroke-width:0"
           inkscape:connector-curvature="0"
           d="m 536.52,413.4 v 0.06 0.05 0.05 0.05 0.05 0.05 0.04 0.04 l -0.01,0.05 v 0.04 l -0.01,0.03 v 0.04 l -0.01,0.03 -0.01,0.04 -0.01,0.03 -0.01,0.03 -0.01,0.03 -0.01,0.02 -0.02,0.03 -0.02,0.02 -0.01,0.02 -0.02,0.02 -0.03,0.02 -0.02,0.01 -0.03,0.01 -0.03,0.02 -0.03,0.01 h -0.03 l -0.02,0.01 h -0.02 -0.02 l -0.02,0.01 h -0.02 -0.02 -0.02 -0.02 c -0.17,0 -0.25,0 -0.7,-0.42 -0.07,-0.03 -0.41,-0.35 -0.63,-0.53 -1.05,0.73 -2.36,0.95 -3.66,0.95 -4.98,0 -6.17,-2.63 -6.17,-4.36 0,-1.13 0.5,-2.02 1.33,-2.72 1.33,-1.16 2.66,-1.39 4.81,-1.75 1.74,-0.31 4.57,-0.8 4.57,-3.12 0,-1.36 -0.94,-2.97 -4.29,-2.97 -3.34,0 -4.56,2.2 -5.2,4.56 -0.09,0.45 -0.14,0.59 -0.62,0.59 -0.6,0 -0.6,-0.23 -0.6,-0.93 v -4.29 c 0,-0.59 0,-0.9 0.5,-0.9 0.32,0 0.97,0.73 1.67,1.5 1.54,-1.44 3.41,-1.5 4.25,-1.5 4.54,0 6.21,2.44 6.21,4.9 0,1.33 -0.6,2.38 -1.5,3.21 -1.33,1.22 -2.94,1.5 -4.16,1.72 -2.78,0.48 -5.05,0.9 -5.05,2.75 0,1.11 0.94,2.46 4.25,2.46 4.05,0 4.22,-2.82 4.29,-3.82 0.04,-0.39 0.45,-0.39 0.59,-0.39 0.59,0 0.59,0.25 0.59,0.9 z"
           id="path1224" /><path
           style="fill:#000000;stroke-width:0"
           inkscape:connector-curvature="0"
           d="m 554.71,408.11 v 0.33 l -0.01,0.33 v 0.32 l -0.02,0.31 -0.01,0.15 -0.01,0.15 -0.02,0.14 -0.02,0.15 -0.02,0.14 -0.03,0.14 -0.03,0.14 -0.03,0.13 -0.04,0.14 -0.05,0.13 -0.05,0.13 -0.06,0.13 -0.06,0.13 -0.07,0.13 -0.07,0.13 -0.08,0.12 -0.09,0.13 -0.1,0.12 -0.1,0.12 -0.11,0.13 -0.12,0.12 -0.13,0.12 -0.14,0.12 -0.14,0.12 c -1.42,1.19 -3.1,1.75 -5.16,1.75 -3.31,0 -5.64,-1.27 -5.64,-3.39 0,-1.11 0.77,-1.71 1.67,-1.71 0.94,0 1.64,0.71 1.64,1.65 0,0.59 -0.28,1.32 -1.21,1.59 1.25,0.87 3.26,0.87 3.48,0.87 1.94,0 4.06,-1.28 4.06,-4.21 v -1.08 -0.91 -3.45 c 0,-3.35 -2.92,-4.28 -4.48,-4.28 -1.78,0 -3.46,1.18 -3.46,2.89 0,1.92 1.68,4.61 7.94,4.84 v 0.91 c -1.91,-0.07 -4.2,-0.17 -6.75,-1.11 -3.14,-1.16 -4.11,-3.06 -4.11,-4.64 0,-3 3.63,-3.86 6.1,-3.86 2.78,0 4.42,1.56 5.15,2.92 0.14,-1.42 1.08,-2.75 2.69,-2.75 0.06,0 3.44,0 3.44,3.31 v 1.91 h -1.18 v -1.88 c 0,-0.34 0,-2.01 -1.29,-2.01 -1.28,0 -1.28,1.62 -1.28,2.08 z"
           id="path1226" /><path
           style="fill:#000000;stroke-width:0"
           inkscape:connector-curvature="0"
           d="m 565.96,412.53 h 5.44 v 1.25 h -5.44 v 6.4 h -1.19 c -0.03,-3.12 -1.45,-6.57 -4.8,-6.68 v -0.97 h 3.24 v -9.41 c 0,-3.91 2.92,-4.7 4.87,-4.7 2.35,0 3.94,1.98 3.94,4.73 v 1.92 h -1.19 v -1.89 c 0,-2.36 -1.11,-3.65 -2.47,-3.65 -2.4,0 -2.4,2.92 -2.4,3.56 z"
           id="path1228" /></g>    </g>
    <g
       transform="translate(-61.734629,-25.928544)"
       id="g1346">
      <g
         style="font-style:normal;font-variant:normal;font-weight:normal;font-stretch:normal;letter-spacing:normal;word-spacing:normal;text-anchor:start;fill:none;fill-opacity:1;fill-rule:evenodd;stroke:#000000;stroke-linecap:butt;stroke-linejoin:miter;stroke-miterlimit:10.43299961;stroke-dasharray:none;stroke-dashoffset:0;stroke-opacity:1"
         id="g1344"
         transform="matrix(0.39246104,0,0,-0.39246104,-68.680682,306.37344)"
         xml:space="preserve"
         stroke-miterlimit="10.433"
         font-style="normal"
         font-variant="normal"
         font-weight="normal"
         font-stretch="normal"
         font-size-adjust="none"
         letter-spacing="normal"
         word-spacing="normal"><path
           style="fill:#000000;stroke-width:0"
           inkscape:connector-curvature="0"
           d="m 478.44,422.14 v 0.74 l -0.01,0.75 -0.02,0.75 -0.04,0.74 -0.04,0.75 -0.06,0.74 -0.08,0.74 -0.09,0.73 -0.12,0.73 -0.14,0.73 -0.16,0.72 -0.19,0.72 -0.21,0.72 -0.25,0.7 -0.28,0.7 -0.15,0.35 -0.16,0.34 c -2.28,4.8 -6.37,5.6 -8.47,5.6 -2.98,0 -6.62,-1.3 -8.67,-5.94 -1.59,-3.44 -1.84,-7.33 -1.84,-11.31 0,-3.74 0.2,-8.22 2.25,-12 2.14,-4.03 5.78,-5.03 8.22,-5.03 v 1.09 c -1.94,0 -4.89,1.25 -5.79,6.03 -0.54,2.98 -0.54,7.56 -0.54,10.52 0,3.18 0,6.46 0.4,9.15 0.94,5.94 4.68,6.38 5.93,6.38 1.64,0 4.93,-0.89 5.87,-5.83 0.5,-2.78 0.5,-6.58 0.5,-9.7 0,-3.75 0,-7.13 -0.55,-10.32 -0.75,-4.73 -3.59,-6.23 -5.82,-6.23 v 0 -1.09 c 2.68,0 6.46,1.04 8.67,5.78 1.59,3.43 1.84,7.31 1.84,11.25 z"
           id="path1342" /></g>    </g>
    <path
       inkscape:connector-curvature="0"
       id="path1352"
       d="M 375.42536,16.536406 H 67.187856"
       style="fill:none;stroke:#000000;stroke-width:0.37500001;stroke-linecap:butt;stroke-linejoin:miter;stroke-opacity:1;stroke-miterlimit:4;stroke-dasharray:1.50000002,1.50000002;stroke-dashoffset:0" />
    <path
       style="fill:none;stroke:#000000;stroke-width:0.375;stroke-linecap:butt;stroke-linejoin:miter;stroke-miterlimit:4;stroke-dasharray:1.50000002, 1.50000002;stroke-dashoffset:0;stroke-opacity:1"
       d="M 375.42536,215.41799 H 67.187856"
       id="path1354"
       inkscape:connector-curvature="0" />
  </g>
</svg>
