<?xml version="1.0" encoding="UTF-8" standalone="no"?>
<!-- Created with Inkscape (http://www.inkscape.org/) -->

<svg
   xmlns:dc="http://purl.org/dc/elements/1.1/"
   xmlns:cc="http://creativecommons.org/ns#"
   xmlns:rdf="http://www.w3.org/1999/02/22-rdf-syntax-ns#"
   xmlns:svg="http://www.w3.org/2000/svg"
   xmlns="http://www.w3.org/2000/svg"
   xmlns:sodipodi="http://sodipodi.sourceforge.net/DTD/sodipodi-0.dtd"
   xmlns:inkscape="http://www.inkscape.org/namespaces/inkscape"
   width="210mm"
   height="297mm"
   viewBox="0 0 210 297"
   version="1.1"
   id="svg8"
   inkscape:version="0.92.5 (2060ec1f9f, 2020-04-08)"
   sodipodi:docname="camion_sable.svg">
  <defs
     id="defs2">
    <marker
       inkscape:isstock="true"
       style="overflow:visible;"
       id="marker1500"
       refX="0.0"
       refY="0.0"
       orient="auto"
       inkscape:stockid="Arrow2Lend">
      <path
         transform="scale(1.1) rotate(180) translate(1,0)"
         d="M 8.7185878,4.0337352 L -2.2072895,0.016013256 L 8.7185884,-4.0017078 C 6.9730900,-1.6296469 6.9831476,1.6157441 8.7185878,4.0337352 z "
         style="fill-rule:evenodd;stroke-width:0.625;stroke-linejoin:round;stroke:#000000;stroke-opacity:1;fill:#000000;fill-opacity:1"
         id="path1498" />
    </marker>
    <inkscape:path-effect
       effect="spiro"
       id="path-effect1490"
       is_visible="true" />
    <inkscape:path-effect
       is_visible="true"
       id="path-effect1371"
       effect="spiro" />
    <inkscape:path-effect
       effect="spiro"
       id="path-effect1367"
       is_visible="true" />
    <marker
       inkscape:stockid="Arrow2Lend"
       orient="auto"
       refY="0.0"
       refX="0.0"
       id="Arrow2Lend"
       style="overflow:visible;"
       inkscape:isstock="true"
       inkscape:collect="always">
      <path
         id="path912"
         style="fill-rule:evenodd;stroke-width:0.625;stroke-linejoin:round;stroke:#000000;stroke-opacity:1;fill:#000000;fill-opacity:1"
         d="M 8.7185878,4.0337352 L -2.2072895,0.016013256 L 8.7185884,-4.0017078 C 6.9730900,-1.6296469 6.9831476,1.6157441 8.7185878,4.0337352 z "
         transform="scale(1.1) rotate(180) translate(1,0)" />
    </marker>
    <inkscape:path-effect
       effect="spiro"
       id="path-effect889"
       is_visible="true" />
    <inkscape:path-effect
       effect="spiro"
       id="path-effect883"
       is_visible="true" />
    <inkscape:path-effect
       is_visible="true"
       id="path-effect879"
       effect="spiro" />
    <inkscape:path-effect
       effect="spiro"
       id="path-effect875"
       is_visible="true" />
    <inkscape:path-effect
       effect="spiro"
       id="path-effect871"
       is_visible="true" />
    <inkscape:path-effect
       effect="spiro"
       id="path-effect867"
       is_visible="true" />
    <inkscape:path-effect
       is_visible="true"
       id="path-effect863"
       effect="spiro" />
    <inkscape:path-effect
       is_visible="true"
       id="path-effect859"
       effect="spiro" />
    <inkscape:path-effect
       effect="spiro"
       id="path-effect855"
       is_visible="true" />
    <inkscape:path-effect
       is_visible="true"
       id="path-effect851"
       effect="spiro" />
    <inkscape:path-effect
       effect="spiro"
       id="path-effect847"
       is_visible="true" />
    <inkscape:path-effect
       effect="spiro"
       id="path-effect825"
       is_visible="true" />
    <inkscape:path-effect
       is_visible="true"
       id="path-effect821"
       effect="spiro" />
    <inkscape:path-effect
       effect="spiro"
       id="path-effect817"
       is_visible="true" />
  </defs>
  <sodipodi:namedview
     id="base"
     pagecolor="#ffffff"
     bordercolor="#666666"
     borderopacity="1.0"
     inkscape:pageopacity="0.0"
     inkscape:pageshadow="2"
     inkscape:zoom="1.4"
     inkscape:cx="370.7592"
     inkscape:cy="736.59349"
     inkscape:document-units="mm"
     inkscape:current-layer="layer1"
     showgrid="false"
     inkscape:window-width="1848"
     inkscape:window-height="1016"
     inkscape:window-x="72"
     inkscape:window-y="27"
     inkscape:window-maximized="1" />
  <metadata
     id="metadata5">
    <rdf:RDF>
      <cc:Work
         rdf:about="">
        <dc:format>image/svg+xml</dc:format>
        <dc:type
           rdf:resource="http://purl.org/dc/dcmitype/StillImage" />
        <dc:title></dc:title>
      </cc:Work>
    </rdf:RDF>
  </metadata>
  <g
     inkscape:label="Calque 1"
     inkscape:groupmode="layer"
     id="layer1">
    <path
       style="fill:none;stroke:#000000;stroke-width:0.31169391px;stroke-linecap:butt;stroke-linejoin:miter;stroke-opacity:1"
       d="m 37.797618,84.199404 0.02103,55.512476"
       id="path815"
       inkscape:connector-curvature="0"
       inkscape:path-effect="#path-effect817"
       inkscape:original-d="m 37.797618,84.199404 c 0.0073,18.503896 0.01429,37.008056 0.02103,55.512476"
       transform="matrix(1,0,0,0.72055694,0,39.041515)" />
    <path
       inkscape:original-d="m 37.797618,84.199404 c 0.0073,18.503896 0.01429,37.008056 0.02103,55.512476"
       inkscape:path-effect="#path-effect821"
       inkscape:connector-curvature="0"
       id="path819"
       d="m 37.797618,84.199404 0.02103,55.512476"
       style="fill:none;stroke:#000000;stroke-width:0.31169391px;stroke-linecap:butt;stroke-linejoin:miter;stroke-opacity:1"
       transform="matrix(1,0,0,0.72055694,82.550046,39.041515)" />
    <path
       transform="matrix(0,-1,1.4893265,0,-87.582984,177.5095)"
       style="fill:none;stroke:#000000;stroke-width:0.21680412px;stroke-linecap:butt;stroke-linejoin:miter;stroke-opacity:1"
       d="m 37.797618,84.199404 0.02103,55.512476"
       id="path823"
       inkscape:connector-curvature="0"
       inkscape:path-effect="#path-effect825"
       inkscape:original-d="m 37.797618,84.199404 c 0.0073,18.503896 0.01429,37.008056 0.02103,55.512476" />
    <g
       id="g835">
      <path
         d="m 66.393867,139.51141 a 10,10 0 0 1 -9.942754,9.99984 10,10 0 0 1 -10.05659,-9.88535"
         sodipodi:open="true"
         sodipodi:end="3.1301434"
         sodipodi:start="0"
         sodipodi:ry="10"
         sodipodi:rx="10"
         sodipodi:cy="139.51141"
         sodipodi:cx="56.393867"
         sodipodi:type="arc"
         id="path827"
         style="fill:none;fill-rule:evenodd;stroke:#000000;stroke-width:0.26458332" />
      <path
         transform="scale(1,-1)"
         style="fill:none;fill-rule:evenodd;stroke:#000000;stroke-width:0.26499999;stroke-miterlimit:4;stroke-dasharray:0.26499999,0.52999997;stroke-dashoffset:0"
         id="path831"
         sodipodi:type="arc"
         sodipodi:cx="56.393867"
         sodipodi:cy="-139.74039"
         sodipodi:rx="10"
         sodipodi:ry="10"
         sodipodi:start="0"
         sodipodi:end="3.1301434"
         sodipodi:open="true"
         d="m 66.393867,-139.74039 a 10,10 0 0 1 -9.942754,9.99984 10,10 0 0 1 -10.05659,-9.88535" />
    </g>
    <g
       id="g841"
       transform="translate(46.56669)">
      <path
         style="fill:none;fill-rule:evenodd;stroke:#000000;stroke-width:0.26458332"
         id="path837"
         sodipodi:type="arc"
         sodipodi:cx="56.393867"
         sodipodi:cy="139.51141"
         sodipodi:rx="10"
         sodipodi:ry="10"
         sodipodi:start="0"
         sodipodi:end="3.1301434"
         sodipodi:open="true"
         d="m 66.393867,139.51141 a 10,10 0 0 1 -9.942754,9.99984 10,10 0 0 1 -10.05659,-9.88535" />
      <path
         d="m 66.393867,-139.74039 a 10,10 0 0 1 -9.942754,9.99984 10,10 0 0 1 -10.05659,-9.88535"
         sodipodi:open="true"
         sodipodi:end="3.1301434"
         sodipodi:start="0"
         sodipodi:ry="10"
         sodipodi:rx="10"
         sodipodi:cy="-139.74039"
         sodipodi:cx="56.393867"
         sodipodi:type="arc"
         id="path839"
         style="fill:none;fill-rule:evenodd;stroke:#000000;stroke-width:0.26499999;stroke-miterlimit:4;stroke-dasharray:0.26499999, 0.52999997;stroke-dashoffset:0"
         transform="scale(1,-1)" />
    </g>
    <rect
       style="opacity:0.3;fill:#ffcc00;fill-opacity:1;fill-rule:evenodd;stroke:none;stroke-width:0.26499999;stroke-linecap:butt;stroke-linejoin:round;stroke-miterlimit:4;stroke-dasharray:0.26499998, 0.52999996999999999;stroke-dashoffset:0;stroke-opacity:1"
       id="rect843"
       width="82.185364"
       height="20.178844"
       x="37.818645"
       y="119.53303" />
    <path
       style="fill:none;stroke:#000000;stroke-width:0.26458332px;stroke-linecap:butt;stroke-linejoin:miter;stroke-opacity:1"
       d="M 61.326635,71.915178 71.437499,82.781994"
       id="path845"
       inkscape:connector-curvature="0"
       inkscape:path-effect="#path-effect847"
       inkscape:original-d="m 61.326635,71.915178 c 3.370553,3.622005 6.740842,7.244278 10.110864,10.866816"
       transform="translate(-15.345837)" />
    <path
       style="fill:none;stroke:#000000;stroke-width:0.26458332px;stroke-linecap:butt;stroke-linejoin:miter;stroke-opacity:1"
       d="m 71.437499,82.781994 -0.0097,10.42499"
       id="path853"
       inkscape:connector-curvature="0"
       inkscape:path-effect="#path-effect855"
       inkscape:original-d="m 71.437499,82.781994 c -0.003,3.47473 -0.0062,6.949728 -0.0097,10.42499"
       transform="translate(-15.345837)" />
    <path
       inkscape:original-d="m 61.326635,71.915178 c 3.370553,3.622005 6.740842,7.244278 10.110864,10.866816"
       inkscape:path-effect="#path-effect859"
       inkscape:connector-curvature="0"
       id="path857"
       d="M 61.326635,71.915178 71.437499,82.781994"
       style="fill:none;stroke:#000000;stroke-width:0.26458332px;stroke-linecap:butt;stroke-linejoin:miter;stroke-opacity:1"
       transform="matrix(-1,0,0,1,140.75832,0)" />
    <path
       style="fill:none;stroke:#000000;stroke-width:0.26458332px;stroke-linecap:butt;stroke-linejoin:miter;stroke-opacity:1"
       d="m 84.66675,82.781994 -8.4e-5,8.598958"
       id="path865"
       inkscape:connector-curvature="0"
       inkscape:path-effect="#path-effect867"
       inkscape:original-d="m 84.66675,82.781994 c 2.36e-4,2.866054 2.09e-4,5.732372 -8.4e-5,8.598958"
       transform="translate(-15.345837)" />
    <path
       style="fill:none;stroke:#000000;stroke-width:0.26458332px;stroke-linecap:butt;stroke-linejoin:miter;stroke-opacity:1"
       d="m 71.427797,93.206982 21.955945,-0.007"
       id="path869"
       inkscape:connector-curvature="0"
       inkscape:path-effect="#path-effect871"
       inkscape:original-d="m 71.427797,93.206982 c 7.318914,-0.0026 14.637562,-0.0049 21.955945,-0.007"
       transform="translate(-15.345837)" />
    <path
       style="fill:none;stroke:#000000;stroke-width:0.25451764px;stroke-linecap:butt;stroke-linejoin:miter;stroke-opacity:1"
       d="m 84.666666,91.380952 h 8.362722"
       id="path873"
       inkscape:connector-curvature="0"
       inkscape:path-effect="#path-effect875"
       inkscape:original-d="m 84.666666,91.380952 c 2.787837,-2.65e-4 5.575413,-2.65e-4 8.362722,0"
       transform="matrix(1.039548,0,0,1.039548,-18.694239,-3.6139365)" />
    <path
       style="opacity:0.3;fill:#ffcc00;fill-opacity:1;fill-rule:evenodd;stroke:none;stroke-width:0.26499999;stroke-linecap:butt;stroke-linejoin:round;stroke-miterlimit:4;stroke-dasharray:0.26499998, 0.52999997;stroke-dashoffset:0;stroke-opacity:1"
       d="m 46.629717,72.392304 c 3.198519,3.426957 6.39295,6.858127 9.561433,10.31277 0.111477,0.363318 0.02215,0.779745 0.05415,1.162256 0.0049,3.060909 -0.02858,6.121704 -0.04547,9.182534 7.170783,0 14.341563,0 21.512345,0 0,-0.503968 0,-1.007935 0,-1.511903 -2.743647,-0.01397 -5.488331,0.03075 -8.231317,-0.02999 -0.140174,0.02811 -0.195966,-0.07082 -0.27047,-0.141187 -0.08985,-1.459024 -0.03085,-2.926025 -0.04985,-4.38816 0.01299,-1.408925 -0.02294,-2.822993 0.04717,-4.228608 1.196816,-1.358908 2.475148,-2.705131 3.712083,-4.050614 2.052418,-2.210681 4.108442,-4.418013 6.162453,-6.627212 -10.917846,0 -21.835692,0 -32.753538,0 0.10034,0.106704 0.200678,0.21341 0.301016,0.320117 z"
       id="path885"
       inkscape:connector-curvature="0" />
    <path
       style="fill:none;stroke:#000000;stroke-width:0.16500001;stroke-linecap:butt;stroke-linejoin:miter;stroke-miterlimit:4;stroke-dasharray:none;stroke-opacity:1;marker-end:url(#Arrow2Lend)"
       d="m 91.740264,92.338357 h 5.011303"
       id="path887"
       inkscape:connector-curvature="0"
       inkscape:path-effect="#path-effect889"
       inkscape:original-d="m 91.740264,92.338357 c 1.670698,-2.64e-4 3.341134,-2.64e-4 5.011303,0"
       transform="translate(-15.345837)" />
    <path
       style="fill:none;stroke:#000000;stroke-width:0.26458332;stroke-linecap:butt;stroke-linejoin:miter;stroke-opacity:1;stroke-miterlimit:4;stroke-dasharray:0.79374995,0.79374995;stroke-dashoffset:0"
       d="m 78.037903,93.199981 c 3.440492,1.324846 6.476214,3.681143 8.613138,6.685433 2.332001,3.278546 3.577123,7.316776 3.49628,11.339286"
       id="path1365"
       inkscape:connector-curvature="0"
       inkscape:path-effect="#path-effect1367"
       inkscape:original-d="m 78.037903,93.199981 c 2.871312,2.228212 5.742356,4.456692 8.613138,6.685433 2.870782,2.228746 2.331116,7.559256 3.49628,11.339286"
       transform="translate(3.367827,-0.861624)" />
    <g
       id="g1420"
       transform="matrix(0.48999999,0,0,0.48999999,37.644195,40.255769)"
       style="stroke-width:2.04081631">
      <g
         word-spacing="normal"
         letter-spacing="normal"
         font-size-adjust="none"
         font-stretch="normal"
         font-weight="normal"
         font-variant="normal"
         font-style="normal"
         stroke-miterlimit="10.433"
         xml:space="preserve"
         transform="matrix(0.3,0,0,-0.3,-52.5,222.75)"
         id="content"
         style="font-style:normal;font-variant:normal;font-weight:normal;font-stretch:normal;letter-spacing:normal;word-spacing:normal;text-anchor:start;fill:none;fill-opacity:1;fill-rule:evenodd;stroke:#000000;stroke-width:2.91545177;stroke-linecap:butt;stroke-linejoin:miter;stroke-miterlimit:10.43299961;stroke-dasharray:none;stroke-dashoffset:0;stroke-opacity:1"><path
           id="path1413"
           d="m 480.35,435.84 -0.07,-0.06 -0.07,-0.07 -0.07,-0.07 -0.09,-0.07 -0.08,-0.08 -0.09,-0.08 -0.09,-0.09 -0.09,-0.08 -0.1,-0.09 -0.1,-0.1 -0.19,-0.19 -0.2,-0.19 -0.19,-0.21 -0.09,-0.1 -0.09,-0.1 -0.09,-0.1 -0.08,-0.11 -0.08,-0.1 -0.08,-0.1 -0.07,-0.1 -0.06,-0.1 -0.06,-0.1 -0.05,-0.1 -0.05,-0.1 -0.04,-0.09 -0.03,-0.09 -0.02,-0.1 -0.02,-0.08 v -0.09 c 0,-0.5 0.5,-1 1,-1 0.45,0 0.7,0.36 0.95,0.66 0.59,0.75 1.74,2.14 3.94,3.23 0.34,0.21 0.84,0.46 0.84,1.05 0,0.5 -0.34,0.75 -0.7,1 -1.09,0.75 -1.64,1.64 -2.05,2.83 -0.09,0.45 -0.29,1.11 -0.98,1.11 -0.71,0 -1,-0.66 -1,-1.05 0,-0.25 0.39,-1.84 1.19,-2.89 h -16.79 c -0.84,0 -1.75,0 -1.75,-1 0,-1 0.91,-1 1.75,-1 z"
           inkscape:connector-curvature="0"
           style="fill:#000000;stroke-width:0" /><path
           id="path1415"
           d="m 478.83,424.73 v 0.12 l -0.01,0.13 v 0.12 l -0.01,0.11 v 0.12 l -0.01,0.11 -0.02,0.11 -0.01,0.1 -0.03,0.21 -0.04,0.19 -0.04,0.18 -0.05,0.18 -0.05,0.16 -0.06,0.16 -0.06,0.15 -0.07,0.13 -0.07,0.13 -0.07,0.12 -0.08,0.12 -0.08,0.1 -0.08,0.1 -0.09,0.09 -0.09,0.08 -0.09,0.07 -0.09,0.07 -0.09,0.06 -0.09,0.05 -0.09,0.05 -0.09,0.04 -0.1,0.03 -0.09,0.03 -0.09,0.03 -0.09,0.01 -0.09,0.02 h -0.08 -0.09 c -1.25,0 -2.44,-1.29 -2.44,-2.39 0,-0.64 0.25,-0.93 0.8,-1.48 1.05,-1 1.69,-2.3 1.69,-4.09 0,-2.1 -3.03,-13.5 -8.86,-13.5 -2.55,0 -3.69,1.75 -3.69,4.32 0,2.8 1.34,6.44 2.89,10.57 0.35,0.86 0.59,1.54 0.59,2.5 0,2.23 -1.59,4.07 -4.09,4.07 -4.67,0 -6.58,-7.21 -6.58,-7.67 0,-0.5 0.5,-0.5 0.61,-0.5 0.5,0 0.55,0.11 0.8,0.91 1.44,5.03 3.58,6.17 5.03,6.17 0.39,0 1.25,0 1.25,-1.59 0,-1.25 -0.5,-2.6 -0.86,-3.49 -2.19,-5.78 -2.83,-8.08 -2.83,-10.22 0,-5.37 4.38,-6.17 6.67,-6.17 8.38,0 11.21,16.49 11.21,19.08 z"
           inkscape:connector-curvature="0"
           style="fill:#000000;stroke-width:0" /><path
           id="path1417"
           d="m 492.84,413.4 v 0.06 0.05 0.05 0.05 0.05 0.05 0.04 0.04 l -0.01,0.05 v 0.04 l -0.01,0.03 v 0.04 l -0.01,0.03 -0.01,0.04 -0.01,0.03 -0.01,0.03 -0.01,0.03 -0.01,0.02 -0.02,0.03 -0.01,0.02 -0.02,0.02 -0.02,0.02 -0.03,0.02 -0.02,0.01 -0.03,0.01 -0.03,0.02 -0.03,0.01 h -0.03 l -0.02,0.01 h -0.02 -0.02 l -0.02,0.01 h -0.02 -0.02 -0.02 -0.02 c -0.17,0 -0.25,0 -0.7,-0.42 -0.07,-0.03 -0.41,-0.35 -0.63,-0.53 -1.05,0.73 -2.36,0.95 -3.65,0.95 -4.99,0 -6.18,-2.63 -6.18,-4.36 0,-1.13 0.5,-2.02 1.33,-2.72 1.33,-1.16 2.66,-1.39 4.81,-1.75 1.74,-0.31 4.57,-0.8 4.57,-3.12 0,-1.36 -0.94,-2.97 -4.29,-2.97 -3.34,0 -4.56,2.2 -5.2,4.56 -0.09,0.45 -0.14,0.59 -0.62,0.59 -0.6,0 -0.6,-0.23 -0.6,-0.93 v -4.29 c 0,-0.59 0,-0.9 0.5,-0.9 0.32,0 0.97,0.73 1.68,1.5 1.53,-1.44 3.4,-1.5 4.24,-1.5 4.54,0 6.21,2.44 6.21,4.9 0,1.33 -0.6,2.38 -1.5,3.21 -1.33,1.22 -2.94,1.5 -4.16,1.72 -2.78,0.48 -5.05,0.9 -5.05,2.75 0,1.11 0.94,2.46 4.26,2.46 4.04,0 4.21,-2.82 4.28,-3.82 0.04,-0.39 0.45,-0.39 0.59,-0.39 0.59,0 0.59,0.25 0.59,0.9 z"
           inkscape:connector-curvature="0"
           style="fill:#000000;stroke-width:0" /></g>    </g>
    <g
       id="g1480"
       transform="matrix(0.48999999,0,0,0.48999999,83.529653,77.722741)"
       style="stroke-width:2.04081631">
      <g
         word-spacing="normal"
         letter-spacing="normal"
         font-size-adjust="none"
         font-stretch="normal"
         font-weight="normal"
         font-variant="normal"
         font-style="normal"
         stroke-miterlimit="10.433"
         xml:space="preserve"
         transform="matrix(0.3,0,0,-0.3,-52.5,222.75)"
         id="g1478"
         style="font-style:normal;font-variant:normal;font-weight:normal;font-stretch:normal;letter-spacing:normal;word-spacing:normal;text-anchor:start;fill:none;fill-opacity:1;fill-rule:evenodd;stroke:#000000;stroke-width:2.04081631;stroke-linecap:butt;stroke-linejoin:miter;stroke-miterlimit:10.43299961;stroke-dasharray:none;stroke-dashoffset:0;stroke-opacity:1"><path
           id="path1474"
           d="m 489.71,448.44 -0.07,-0.06 -0.07,-0.07 -0.08,-0.07 -0.08,-0.07 -0.08,-0.08 -0.09,-0.08 -0.09,-0.09 -0.1,-0.08 -0.09,-0.09 -0.1,-0.09 -0.19,-0.19 -0.2,-0.2 -0.19,-0.2 -0.09,-0.11 -0.09,-0.1 -0.09,-0.1 -0.08,-0.1 -0.08,-0.11 -0.08,-0.1 -0.07,-0.1 -0.06,-0.1 -0.06,-0.1 -0.06,-0.1 -0.04,-0.1 -0.04,-0.09 -0.03,-0.09 -0.02,-0.09 -0.02,-0.09 v -0.09 c 0,-0.5 0.5,-1 1,-1 0.45,0 0.7,0.36 0.95,0.66 0.59,0.75 1.73,2.14 3.94,3.23 0.34,0.21 0.84,0.46 0.84,1.05 0,0.5 -0.34,0.75 -0.7,1 -1.1,0.75 -1.64,1.64 -2.05,2.83 -0.09,0.45 -0.3,1.11 -0.98,1.11 -0.71,0 -1,-0.66 -1,-1.05 0,-0.25 0.39,-1.84 1.18,-2.89 h -16.78 c -0.84,0 -1.75,0 -1.75,-1 0,-1 0.91,-1 1.75,-1 z"
           inkscape:connector-curvature="0"
           style="fill:#000000;stroke-width:0" /><path
           id="path1476"
           d="m 470.61,422.39 h 4.83 c 3.75,0 4.14,-0.8 4.14,-2.24 0,-0.36 0,-0.95 -0.34,-2.44 -0.11,-0.25 -0.16,-0.45 -0.16,-0.56 0,-0.39 0.3,-0.59 0.6,-0.59 0.5,0 0.5,0.15 0.75,1.05 l 2.75,10.81 c 0.14,0.54 0.14,0.65 0.14,0.79 0,0.1 -0.1,0.55 -0.6,0.55 -0.5,0 -0.54,-0.25 -0.75,-1.05 -1.04,-3.87 -2.18,-4.78 -6.42,-4.78 h -4.53 l 3.19,12.66 c 0.43,1.75 0.5,1.94 2.68,1.94 h 6.58 c 6.13,0 7.27,-1.64 7.27,-5.47 0,-1.16 0,-1.35 -0.14,-2.7 -0.11,-0.65 -0.11,-0.74 -0.11,-0.9 0,-0.25 0.15,-0.59 0.61,-0.59 0.54,0 0.59,0.3 0.69,1.25 l 1,8.61 c 0.15,1.34 -0.1,1.34 -1.35,1.34 h -24.4 c -1,0 -1.5,0 -1.5,-1 0,-0.54 0.45,-0.54 1.39,-0.54 1.84,0 3.23,0 3.23,-0.89 0,-0.21 0,-0.3 -0.25,-1.21 l -6.56,-26.34 c -0.5,-1.95 -0.61,-2.34 -4.55,-2.34 -0.84,0 -1.39,0 -1.39,-0.96 0,-0.59 0.59,-0.59 0.75,-0.59 1.44,0 5.13,0.16 6.58,0.16 1.64,0 5.78,-0.16 7.42,-0.16 0.45,0 1.05,0 1.05,0.95 0,0.39 -0.3,0.49 -0.3,0.55 -0.16,0.05 -0.25,0.05 -1.39,0.05 -1.11,0 -1.36,0 -2.59,0.09 -1.46,0.16 -1.6,0.36 -1.6,1 0,0.09 0,0.41 0.19,1.14 z"
           inkscape:connector-curvature="0"
           style="fill:#000000;stroke-width:0" /></g>    </g>
    <path
       style="fill:none;stroke:#000000;stroke-width:0.44358322px;stroke-linecap:butt;stroke-linejoin:miter;stroke-opacity:1;marker-end:url(#marker1500)"
       d="m 120.38542,129.74553 h 24.37946"
       id="path1488"
       inkscape:connector-curvature="0"
       inkscape:path-effect="#path-effect1490"
       inkscape:original-d="m 120.38542,129.74553 c 8.12675,-2.7e-4 16.25324,-2.7e-4 24.37946,0"
       transform="matrix(0.5964683,0,0,0.5964683,48.579334,52.354551)" />
  </g>
</svg>
