<?xml version="1.0" encoding="UTF-8" standalone="no"?>
<!-- Created with Inkscape (http://www.inkscape.org/) -->

<svg
   xmlns:dc="http://purl.org/dc/elements/1.1/"
   xmlns:cc="http://creativecommons.org/ns#"
   xmlns:rdf="http://www.w3.org/1999/02/22-rdf-syntax-ns#"
   xmlns:svg="http://www.w3.org/2000/svg"
   xmlns="http://www.w3.org/2000/svg"
   xmlns:sodipodi="http://sodipodi.sourceforge.net/DTD/sodipodi-0.dtd"
   xmlns:inkscape="http://www.inkscape.org/namespaces/inkscape"
   width="210mm"
   height="297mm"
   viewBox="0 0 210 297"
   version="1.1"
   id="svg8"
   inkscape:version="0.92.5 (2060ec1f9f, 2020-04-08)"
   sodipodi:docname="tube_U.svg">
  <defs
     id="defs2">
    <marker
       inkscape:stockid="Arrow2Lend"
       orient="auto"
       refY="0.0"
       refX="0.0"
       id="Arrow2Lend"
       style="overflow:visible;"
       inkscape:isstock="true">
      <path
         id="path885"
         style="fill-rule:evenodd;stroke-width:0.625;stroke-linejoin:round;stroke:#ff00ff;stroke-opacity:1;fill:#ff00ff;fill-opacity:1"
         d="M 8.7185878,4.0337352 L -2.2072895,0.016013256 L 8.7185884,-4.0017078 C 6.9730900,-1.6296469 6.9831476,1.6157441 8.7185878,4.0337352 z "
         transform="scale(1.1) rotate(180) translate(1,0)" />
    </marker>
    <inkscape:path-effect
       effect="spiro"
       id="path-effect1396"
       is_visible="true" />
    <marker
       inkscape:stockid="Arrow1Lend"
       orient="auto"
       refY="0.0"
       refX="0.0"
       id="Arrow1Lend"
       style="overflow:visible;"
       inkscape:isstock="true">
      <path
         id="path867"
         d="M 0.0,0.0 L 5.0,-5.0 L -12.5,0.0 L 5.0,5.0 L 0.0,0.0 z "
         style="fill-rule:evenodd;stroke:#000000;stroke-width:1pt;stroke-opacity:1;fill:#000000;fill-opacity:1"
         transform="scale(0.8) rotate(180) translate(12.5,0)" />
    </marker>
    <marker
       inkscape:stockid="Arrow1Lstart"
       orient="auto"
       refY="0.0"
       refX="0.0"
       id="Arrow1Lstart"
       style="overflow:visible"
       inkscape:isstock="true">
      <path
         id="path864"
         d="M 0.0,0.0 L 5.0,-5.0 L -12.5,0.0 L 5.0,5.0 L 0.0,0.0 z "
         style="fill-rule:evenodd;stroke:#000000;stroke-width:1pt;stroke-opacity:1;fill:#000000;fill-opacity:1"
         transform="scale(0.8) translate(12.5,0)" />
    </marker>
    <inkscape:path-effect
       effect="spiro"
       id="path-effect862"
       is_visible="true" />
    <inkscape:path-effect
       effect="spiro"
       id="path-effect858"
       is_visible="true" />
    <inkscape:path-effect
       effect="spiro"
       id="path-effect854"
       is_visible="true" />
    <inkscape:path-effect
       effect="spiro"
       id="path-effect848"
       is_visible="true" />
    <inkscape:path-effect
       effect="spiro"
       id="path-effect844"
       is_visible="true" />
    <inkscape:path-effect
       is_visible="true"
       id="path-effect827"
       effect="spiro" />
    <inkscape:path-effect
       effect="spiro"
       id="path-effect821"
       is_visible="true" />
    <inkscape:path-effect
       effect="spiro"
       id="path-effect817"
       is_visible="true" />
  </defs>
  <sodipodi:namedview
     id="base"
     pagecolor="#ffffff"
     bordercolor="#666666"
     borderopacity="1.0"
     inkscape:pageopacity="0.0"
     inkscape:pageshadow="2"
     inkscape:zoom="1.4"
     inkscape:cx="478.50547"
     inkscape:cy="715.30665"
     inkscape:document-units="mm"
     inkscape:current-layer="layer1"
     showgrid="false"
     inkscape:window-width="1848"
     inkscape:window-height="1016"
     inkscape:window-x="72"
     inkscape:window-y="27"
     inkscape:window-maximized="1"
     inkscape:snap-global="false" />
  <metadata
     id="metadata5">
    <rdf:RDF>
      <cc:Work
         rdf:about="">
        <dc:format>image/svg+xml</dc:format>
        <dc:type
           rdf:resource="http://purl.org/dc/dcmitype/StillImage" />
        <dc:title></dc:title>
      </cc:Work>
    </rdf:RDF>
  </metadata>
  <g
     inkscape:label="Calque 1"
     inkscape:groupmode="layer"
     id="layer1">
    <g
       id="g832">
      <path
         inkscape:original-d="m 63.610148,59.13012 c 2.64e-4,20.846758 2.64e-4,41.69378 0,62.54107"
         inkscape:path-effect="#path-effect821"
         inkscape:connector-curvature="0"
         id="path819"
         d="m 63.610148,59.13012 v 62.54107"
         style="fill:none;stroke:#000000;stroke-width:0.26458332px;stroke-linecap:butt;stroke-linejoin:miter;stroke-opacity:1" />
      <path
         d="M 106.90497,121.23827 A 21.648832,26.726952 0 0 1 85.43148,147.96435 21.648832,26.726952 0 0 1 63.61015,121.67119"
         sodipodi:open="true"
         sodipodi:end="3.1253941"
         sodipodi:start="0"
         sodipodi:ry="26.726952"
         sodipodi:rx="21.648832"
         sodipodi:cy="121.23827"
         sodipodi:cx="85.256142"
         sodipodi:type="arc"
         id="path823"
         style="fill:none;fill-rule:evenodd;stroke:#000000;stroke-width:0.26458332" />
      <path
         transform="translate(43.294543,-0.3584629)"
         style="fill:none;stroke:#000000;stroke-width:0.26458332px;stroke-linecap:butt;stroke-linejoin:miter;stroke-opacity:1"
         d="m 63.610148,59.13012 v 62.54107"
         id="path825"
         inkscape:connector-curvature="0"
         inkscape:path-effect="#path-effect827"
         inkscape:original-d="m 63.610148,59.13012 c 2.64e-4,20.846758 2.64e-4,41.69378 0,62.54107" />
    </g>
    <g
       id="g840"
       transform="matrix(0.78746802,0,0,0.9446246,18.184563,3.6568439)"
       style="stroke-width:1.15945494">
      <path
         style="fill:none;stroke:#000000;stroke-width:0.30677244px;stroke-linecap:butt;stroke-linejoin:miter;stroke-opacity:1"
         d="m 63.610148,59.13012 v 62.54107"
         id="path834"
         inkscape:connector-curvature="0"
         inkscape:path-effect="#path-effect821"
         inkscape:original-d="m 63.610148,59.13012 c 2.64e-4,20.846758 2.64e-4,41.69378 0,62.54107" />
      <path
         style="fill:none;fill-rule:evenodd;stroke:#000000;stroke-width:0.30677244"
         id="path836"
         sodipodi:type="arc"
         sodipodi:cx="85.256142"
         sodipodi:cy="121.23827"
         sodipodi:rx="21.648832"
         sodipodi:ry="26.726952"
         sodipodi:start="0"
         sodipodi:end="3.1253941"
         sodipodi:open="true"
         d="M 106.90497,121.23827 A 21.648832,26.726952 0 0 1 85.43148,147.96435 21.648832,26.726952 0 0 1 63.61015,121.67119" />
      <path
         inkscape:original-d="m 63.610148,59.13012 c 2.64e-4,20.846758 2.64e-4,41.69378 0,62.54107"
         inkscape:path-effect="#path-effect827"
         inkscape:connector-curvature="0"
         id="path838"
         d="m 63.610148,59.13012 v 62.54107"
         style="fill:none;stroke:#000000;stroke-width:0.30677244px;stroke-linecap:butt;stroke-linejoin:miter;stroke-opacity:1"
         transform="translate(43.294543,-0.3584629)" />
    </g>
    <path
       style="fill:none;stroke:#000000;stroke-width:0.26458332px;stroke-linecap:butt;stroke-linejoin:miter;stroke-opacity:1"
       d="m 63.576739,98.318515 h 4.677217"
       id="path842"
       inkscape:connector-curvature="0"
       inkscape:path-effect="#path-effect844"
       inkscape:original-d="m 63.576739,98.318515 c 1.559335,-2.65e-4 3.118408,-2.65e-4 4.677217,0" />
    <path
       style="fill:#0000ff;stroke:#000000;stroke-width:0.26458332px;stroke-linecap:butt;stroke-linejoin:miter;stroke-opacity:1"
       d="m 102.33705,76.214657 h 4.53572"
       id="path846"
       inkscape:connector-curvature="0"
       inkscape:path-effect="#path-effect848"
       inkscape:original-d="m 102.33705,76.214657 c 1.51217,-2.65e-4 3.02408,-2.65e-4 4.53572,0" />
    <path
       style="opacity:0.3;fill:#0000ff;fill-opacity:1;fill-rule:evenodd;stroke:none;stroke-width:2.51338577;stroke-linecap:butt;stroke-linejoin:round;stroke-miterlimit:4;stroke-dasharray:none;stroke-dashoffset:0;stroke-opacity:1"
       d="m 387.46894,371.7248 c -0.12742,29.41949 0.22425,58.85199 -0.54552,88.26208 -2.6176,25.40117 -11.74551,51.50915 -30.99314,69.09977 -12.27644,11.40581 -30.46794,16.9611 -46.71265,11.61773 -20.37572,-6.44127 -34.30573,-24.84771 -42.21332,-43.88442 -6.83775,-16.44211 -9.58881,-34.28485 -9.57498,-52.02438 -0.44194,-24.15641 -0.19744,-48.31883 -0.27006,-72.4779 -5.38748,0 -10.77496,0 -16.16244,0 0.2019,31.66099 -0.47147,63.33976 0.57959,94.98802 1.89134,30.74373 16.49501,61.78942 42.44067,79.31163 14.99378,10.24802 34.08026,14.37551 51.88278,10.36984 22.7515,-4.62222 41.58098,-21.27069 52.62954,-41.23277 9.49119,-17.1334 15.01318,-36.7232 14.35469,-56.38894 0.41428,-56.79401 0.17737,-113.59034 0.24221,-170.38537 -5.21912,0 -10.43825,0 -15.65737,0 0,27.58157 0,55.16315 0,82.74471 z"
       id="path850"
       inkscape:connector-curvature="0"
       transform="scale(0.26458333)" />
    <path
       style="fill:none;stroke:#000000;stroke-width:0.36674292;stroke-linecap:butt;stroke-linejoin:miter;stroke-opacity:1;stroke-miterlimit:4;stroke-dasharray:0.36674292,1.10022877;stroke-dashoffset:0"
       d="m 68.253956,98.318515 34.263864,0.03367"
       id="path852"
       inkscape:connector-curvature="0"
       inkscape:path-effect="#path-effect854"
       inkscape:original-d="m 68.253956,98.318515 c 11.421551,0.01095 22.842841,0.02217 34.263864,0.03367"
       transform="matrix(0.52211759,0,0,1,32.619285,0)" />
    <path
       style="fill:none;stroke:#000000;stroke-width:0.38199089;stroke-linecap:butt;stroke-linejoin:miter;stroke-opacity:1;stroke-miterlimit:4;stroke-dasharray:0.38199089,1.14597267;stroke-dashoffset:0"
       d="M 102.33705,76.214657 68.420998,76.168547"
       id="path856"
       inkscape:connector-curvature="0"
       inkscape:path-effect="#path-effect858"
       inkscape:original-d="m 102.33705,76.214657 c -11.305086,-0.01564 -22.610438,-0.031 -33.916052,-0.04611"
       transform="matrix(0.47975439,0,0,1,53.237957,0)" />
    <path
       style="fill:none;stroke:#000000;stroke-width:0.26458332px;stroke-linecap:butt;stroke-linejoin:miter;stroke-opacity:1;marker-start:url(#Arrow1Lstart);marker-end:url(#Arrow1Lend)"
       d="m 86.063229,76.168545 0.08241,22.183638"
       id="path860"
       inkscape:connector-curvature="0"
       inkscape:path-effect="#path-effect862"
       inkscape:original-d="m 86.063229,76.168545 c 0.02774,7.394282 0.0552,14.788827 0.08241,22.183638" />
    <g
       id="g1216"
       transform="matrix(0.39999999,0,0,0.39999999,41.537325,48.536763)"
       style="stroke-width:2.5">
      <g
         word-spacing="normal"
         letter-spacing="normal"
         font-size-adjust="none"
         font-stretch="normal"
         font-weight="normal"
         font-variant="normal"
         font-style="normal"
         stroke-miterlimit="10.433"
         xml:space="preserve"
         transform="matrix(0.3,0,0,-0.3,-52.5,222.75)"
         id="content"
         style="font-style:normal;font-variant:normal;font-weight:normal;font-stretch:normal;letter-spacing:normal;word-spacing:normal;text-anchor:start;fill:none;fill-opacity:1;fill-rule:evenodd;stroke:#000000;stroke-width:6.25;stroke-linecap:butt;stroke-linejoin:miter;stroke-miterlimit:10.43299961;stroke-dasharray:none;stroke-dashoffset:0;stroke-opacity:1"><path
           id="path1207"
           d="m 469.82,440.23 v 0 0.01 0 0.01 l -0.01,0.02 v 0.01 0.02 0.02 0.02 l -0.01,0.02 v 0.02 l -0.01,0.02 -0.01,0.02 -0.01,0.03 -0.01,0.02 -0.01,0.03 -0.01,0.02 -0.02,0.03 -0.02,0.02 -0.02,0.02 -0.02,0.03 -0.01,0.01 -0.01,0.01 -0.02,0.01 -0.01,0.01 -0.02,0.01 -0.01,0.01 -0.02,0.01 -0.01,0.01 -0.02,0.01 -0.02,0.01 h -0.02 l -0.02,0.01 -0.02,0.01 h -0.02 l -0.02,0.01 -0.02,0.01 h -0.03 -0.02 l -0.03,0.01 h -0.02 -0.03 l -0.03,0.01 h -0.02 -0.03 c -1.16,0 -4.79,-0.41 -6.08,-0.5 -0.41,-0.05 -0.96,-0.1 -0.96,-1 0,-0.6 0.46,-0.6 1.21,-0.6 2.39,0 2.48,-0.34 2.48,-0.84 l -0.15,-1 -7.22,-28.7 c -0.21,-0.69 -0.21,-0.8 -0.21,-1.1 0,-1.14 1,-1.39 1.46,-1.39 0.79,0 1.59,0.6 1.84,1.3 l 0.94,3.78 1.11,4.48 c 0.29,1.1 0.59,2.19 0.84,3.35 0.1,0.3 0.5,1.94 0.55,2.23 0.14,0.46 1.69,3.25 3.39,4.6 1.09,0.79 2.64,1.73 4.78,1.73 2.14,0 2.69,-1.69 2.69,-3.48 0,-2.69 -1.89,-8.13 -3.1,-11.16 -0.39,-1.16 -0.64,-1.75 -0.64,-2.75 0,-2.33 1.74,-4.08 4.08,-4.08 4.69,0 6.53,7.27 6.53,7.67 0,0.5 -0.45,0.5 -0.59,0.5 -0.5,0 -0.5,-0.15 -0.75,-0.9 -0.75,-2.64 -2.34,-6.17 -5.08,-6.17 -0.86,0 -1.2,0.5 -1.2,1.64 0,1.25 0.45,2.45 0.9,3.54 0.8,2.14 3.04,8.07 3.04,10.96 0,3.23 -2,5.32 -5.74,5.32 -3.14,0 -5.53,-1.53 -7.37,-3.82 z"
           inkscape:connector-curvature="0"
           style="fill:#000000;stroke-width:0" /><path
           id="path1209"
           d="m 500.68,394.25 v 0.02 0.03 0.01 0.02 0.01 l -0.01,0.02 v 0.01 l -0.01,0.02 -0.01,0.02 -0.01,0.02 -0.01,0.02 -0.02,0.03 -0.01,0.02 -0.02,0.03 -0.02,0.03 -0.03,0.03 -0.02,0.03 -0.03,0.04 -0.02,0.02 -0.01,0.02 -0.02,0.02 -0.02,0.02 -0.02,0.02 -0.02,0.03 -0.02,0.02 -0.02,0.02 -0.02,0.03 -0.03,0.02 -0.02,0.03 -0.03,0.03 -0.03,0.03 -0.02,0.03 -0.03,0.03 -0.03,0.03 -0.03,0.03 -0.03,0.03 -0.04,0.04 -0.03,0.03 -0.04,0.04 -0.03,0.03 -0.04,0.04 -0.04,0.04 c -6.22,6.28 -7.81,15.69 -7.81,23.31 0,8.67 1.89,17.35 8.01,23.56 0.64,0.61 0.64,0.71 0.64,0.86 0,0.35 -0.18,0.49 -0.48,0.49 -0.5,0 -4.99,-3.38 -7.92,-9.7 -2.55,-5.49 -3.14,-11.02 -3.14,-15.21 0,-3.89 0.54,-9.9 3.28,-15.54 2.98,-6.13 7.28,-9.36 7.78,-9.36 0.3,0 0.48,0.14 0.48,0.5 z"
           inkscape:connector-curvature="0"
           style="fill:#000000;stroke-width:0" /><path
           id="path1211"
           d="m 513.78,426.12 h 4.69 c 0.98,0 1.48,0 1.48,1 0,0.55 -0.5,0.55 -1.39,0.55 h -4.39 c 1.8,7.08 2.05,8.08 2.05,8.37 0,0.85 -0.6,1.35 -1.44,1.35 -0.16,0 -1.55,-0.05 -2,-1.8 l -1.94,-7.92 h -4.68 c -1,0 -1.5,0 -1.5,-0.94 0,-0.61 0.4,-0.61 1.4,-0.61 h 4.38 c -3.58,-14.14 -3.78,-14.98 -3.78,-15.89 0,-2.69 1.89,-4.58 4.57,-4.58 5.08,0 7.93,7.27 7.93,7.67 0,0.5 -0.39,0.5 -0.6,0.5 -0.45,0 -0.5,-0.15 -0.75,-0.7 -2.14,-5.17 -4.78,-6.37 -6.47,-6.37 -1.04,0 -1.54,0.65 -1.54,2.29 0,1.19 0.09,1.55 0.29,2.39 z"
           inkscape:connector-curvature="0"
           style="fill:#000000;stroke-width:0" /><path
           id="path1213"
           d="m 535.91,418.65 -0.01,0.37 v 0.39 l -0.01,0.39 -0.01,0.41 -0.04,0.84 -0.06,0.88 -0.08,0.92 -0.11,0.95 -0.14,0.97 -0.16,1.01 -0.2,1.02 -0.23,1.03 -0.26,1.05 -0.31,1.06 -0.35,1.07 -0.39,1.07 -0.21,0.53 -0.23,0.53 -0.24,0.53 -0.25,0.53 c -2.98,6.12 -7.26,9.36 -7.76,9.36 -0.3,0 -0.5,-0.19 -0.5,-0.49 0,-0.15 0,-0.25 0.94,-1.15 4.89,-4.92 7.73,-12.85 7.73,-23.27 0,-8.51 -1.84,-17.28 -8.03,-23.56 -0.64,-0.59 -0.64,-0.7 -0.64,-0.84 0,-0.3 0.2,-0.5 0.5,-0.5 0.5,0 4.97,3.39 7.92,9.71 2.53,5.47 3.13,11 3.13,15.19 z"
           inkscape:connector-curvature="0"
           style="fill:#000000;stroke-width:0" /></g>    </g>
    <circle
       style="fill:#000000;fill-rule:evenodd;stroke-width:0.26458332"
       id="path1226"
       cx="66.015572"
       cy="98.285095"
       r="0.69999999" />
    <circle
       r="0.69999999"
       cy="76.235359"
       cx="104.76965"
       id="circle1228"
       style="fill:#000000;fill-rule:evenodd;stroke-width:0.26458332" />
    <g
       id="g1271"
       transform="matrix(0.39999998,0,0,0.39999998,25.05321,59.795945)"
       style="stroke-width:2.5">
      <g
         word-spacing="normal"
         letter-spacing="normal"
         font-size-adjust="none"
         font-stretch="normal"
         font-weight="normal"
         font-variant="normal"
         font-style="normal"
         stroke-miterlimit="10.433"
         xml:space="preserve"
         transform="matrix(0.3,0,0,-0.3,-52.5,222.75)"
         id="g1269"
         style="font-style:normal;font-variant:normal;font-weight:normal;font-stretch:normal;letter-spacing:normal;word-spacing:normal;text-anchor:start;fill:none;fill-opacity:1;fill-rule:evenodd;stroke:#000000;stroke-width:2.5;stroke-linecap:butt;stroke-linejoin:miter;stroke-miterlimit:10.43299961;stroke-dasharray:none;stroke-dashoffset:0;stroke-opacity:1"><path
           id="path1267"
           d="m 475.35,440.87 -0.03,0.06 -0.02,0.06 -0.02,0.06 -0.02,0.05 -0.02,0.06 -0.02,0.05 -0.02,0.05 -0.02,0.04 -0.03,0.05 -0.02,0.04 -0.02,0.05 -0.02,0.04 -0.03,0.03 -0.02,0.04 -0.03,0.03 -0.03,0.04 -0.03,0.03 -0.03,0.03 -0.03,0.02 -0.04,0.03 -0.04,0.02 -0.04,0.02 -0.04,0.02 -0.04,0.02 -0.05,0.01 -0.05,0.01 -0.06,0.02 h -0.06 l -0.06,0.01 -0.06,0.01 h -0.07 -0.04 -0.03 c -0.8,0 -0.96,-0.3 -1.21,-1 l -10.31,-29.8 c -0.89,-2.53 -2.89,-3.28 -5.58,-3.32 v -1.55 c 1.14,0.05 3.28,0.16 5.08,0.16 1.55,0 4.14,-0.11 5.74,-0.16 v 1.55 c -2.49,0 -3.74,1.25 -3.74,2.53 0,0.15 0.05,0.65 0.1,0.75 l 2.29,6.53 0.55,1.55 5.58,16.18 5.62,-16.18 h -11.2 l -0.55,-1.55 h 12.3 l 2.64,-7.63 c 0.06,-0.2 0.16,-0.5 0.16,-0.68 0,-1.5 -2.8,-1.5 -4.14,-1.5 v -1.55 c 1.79,0.16 5.28,0.16 7.18,0.16 2.14,0 4.42,-0.07 6.52,-0.16 v 1.55 h -0.89 c -3,0 -3.69,0.34 -4.24,1.98 z"
           inkscape:connector-curvature="0"
           style="fill:#000000;stroke-width:0" /></g>    </g>
    <g
       id="g1322"
       transform="matrix(0.39999998,0,0,0.39999998,74.088139,37.35927)"
       style="stroke-width:2.5">
      <g
         word-spacing="normal"
         letter-spacing="normal"
         font-size-adjust="none"
         font-stretch="normal"
         font-weight="normal"
         font-variant="normal"
         font-style="normal"
         stroke-miterlimit="10.433"
         xml:space="preserve"
         transform="matrix(0.3,0,0,-0.3,-52.5,222.75)"
         id="g1320"
         style="font-style:normal;font-variant:normal;font-weight:normal;font-stretch:normal;letter-spacing:normal;word-spacing:normal;text-anchor:start;fill:none;fill-opacity:1;fill-rule:evenodd;stroke:#000000;stroke-width:2.5;stroke-linecap:butt;stroke-linejoin:miter;stroke-miterlimit:10.43299961;stroke-dasharray:none;stroke-dashoffset:0;stroke-opacity:1"><path
           id="path1318"
           d="m 478.33,423.98 0.45,0.1 0.44,0.1 0.44,0.13 0.42,0.13 0.41,0.14 0.4,0.16 0.4,0.17 0.38,0.18 0.37,0.19 0.36,0.2 0.35,0.21 0.33,0.21 0.32,0.23 0.31,0.24 0.3,0.25 0.28,0.25 0.27,0.26 0.25,0.27 0.24,0.28 0.22,0.28 0.21,0.29 0.19,0.3 0.17,0.3 0.16,0.31 0.14,0.32 0.12,0.32 0.11,0.32 0.09,0.33 0.06,0.34 0.05,0.33 0.03,0.34 0.01,0.35 c 0,4.33 -4.59,8.42 -11.06,8.42 l -0.36,-1.55 c 4.85,0 6.58,-4.23 6.58,-6.87 0,-3.19 -2.44,-7.38 -7.97,-7.38 h -7.22 v -1.09 h 9.36 c 4.94,0 7.03,-4.64 7.03,-7.97 0,-3.55 -2.59,-7.62 -7.72,-7.62 v 0 h -6.23 c -2.34,0 -2.44,0.34 -2.44,1.98 v 13.61 1.09 12.25 c 0,1.66 0.1,2 2.44,2 h 6.17 l 0.36,1.55 h -18.23 v -1.55 h 1.18 c 3.85,0 3.94,-0.54 3.94,-2.34 v -26.25 c 0,-1.8 -0.09,-2.34 -3.94,-2.34 h -1.18 v -1.55 h 19.53 c 6.62,0 11.11,4.44 11.11,9.12 0,4.33 -4.1,8.07 -9.63,8.66 z"
           inkscape:connector-curvature="0"
           style="fill:#000000;stroke-width:0" /></g>    </g>
    <g
       id="g1378"
       transform="matrix(0.39999998,0,0,0.39999999,39.099945,93.615534)"
       style="fill:#ff00ff;stroke-width:2.5">
      <g
         word-spacing="normal"
         letter-spacing="normal"
         font-size-adjust="none"
         font-stretch="normal"
         font-weight="normal"
         font-variant="normal"
         font-style="normal"
         stroke-miterlimit="10.433"
         xml:space="preserve"
         transform="matrix(0.3,0,0,-0.3,-52.5,222.75)"
         id="g1376"
         style="font-style:normal;font-variant:normal;font-weight:normal;font-stretch:normal;letter-spacing:normal;word-spacing:normal;text-anchor:start;fill:#ff00ff;fill-opacity:1;fill-rule:evenodd;stroke:#000000;stroke-width:2.5;stroke-linecap:butt;stroke-linejoin:miter;stroke-miterlimit:10.43299961;stroke-dasharray:none;stroke-dashoffset:0;stroke-opacity:1"><path
           id="path1372"
           d="m 488.15,448.44 -0.07,-0.06 -0.07,-0.07 -0.08,-0.07 -0.08,-0.07 -0.08,-0.08 -0.09,-0.08 -0.09,-0.09 -0.1,-0.08 -0.09,-0.09 -0.1,-0.09 -0.2,-0.19 -0.19,-0.2 -0.19,-0.2 -0.09,-0.11 -0.09,-0.1 -0.09,-0.1 -0.08,-0.1 -0.08,-0.11 -0.08,-0.1 -0.07,-0.1 -0.07,-0.1 -0.05,-0.1 -0.06,-0.1 -0.04,-0.1 -0.04,-0.09 -0.03,-0.09 -0.03,-0.09 -0.01,-0.09 -0.01,-0.09 c 0,-0.5 0.5,-1 1,-1 0.46,0 0.71,0.36 0.96,0.66 0.59,0.75 1.73,2.14 3.94,3.23 0.34,0.21 0.84,0.46 0.84,1.05 0,0.5 -0.34,0.75 -0.7,1 -1.1,0.75 -1.64,1.64 -2.05,2.83 -0.09,0.45 -0.3,1.11 -0.99,1.11 -0.7,0 -1,-0.66 -1,-1.05 0,-0.25 0.4,-1.84 1.19,-2.89 h -16.78 c -0.84,0 -1.75,0 -1.75,-1 0,-1 0.91,-1 1.75,-1 z"
           inkscape:connector-curvature="0"
           style="fill:#ff00ff;stroke-width:0" /><path
           id="path1374"
           d="m 476.8,436.43 0.02,0.07 0.01,0.06 0.03,0.12 0.03,0.12 0.03,0.11 0.03,0.11 0.03,0.09 0.03,0.1 0.03,0.09 0.03,0.08 0.03,0.08 0.03,0.07 0.03,0.07 0.03,0.06 0.03,0.06 0.03,0.06 0.03,0.05 0.03,0.05 0.03,0.04 0.04,0.04 0.03,0.04 0.04,0.04 0.03,0.03 0.04,0.03 0.04,0.03 0.04,0.02 0.05,0.03 0.04,0.02 0.05,0.02 0.04,0.01 0.05,0.02 0.06,0.01 0.05,0.02 c 0.45,0.11 2.1,0.11 3.14,0.11 5.03,0 7.27,-0.21 7.27,-4.1 0,-0.73 -0.19,-2.68 -0.39,-3.98 -0.05,-0.19 -0.16,-0.8 -0.16,-0.94 0,-0.3 0.16,-0.66 0.59,-0.66 0.57,0 0.66,0.41 0.75,1.16 l 1.35,8.66 c 0.06,0.2 0.11,0.7 0.11,0.86 0,0.54 -0.5,0.54 -1.35,0.54 H 461.6 c -1.21,0 -1.25,-0.06 -1.6,-1 l -2.98,-8.76 c -0.06,-0.11 -0.3,-0.8 -0.3,-0.91 0,-0.3 0.24,-0.55 0.6,-0.55 0.5,0 0.54,0.25 0.84,1.05 2.69,7.72 3.98,8.63 11.36,8.63 h 1.94 c 1.4,0 1.4,-0.21 1.4,-0.6 0,-0.31 -0.15,-0.9 -0.2,-1.04 l -6.67,-26.61 c -0.45,-1.85 -0.61,-2.39 -5.94,-2.39 -1.8,0 -2.09,0 -2.09,-0.96 0,-0.59 0.54,-0.59 0.84,-0.59 1.36,0 2.75,0.09 4.09,0.09 1.4,0 2.85,0.07 4.24,0.07 1.39,0 2.78,-0.07 4.14,-0.07 1.44,0 2.94,-0.09 4.33,-0.09 0.5,0 1.09,0 1.09,1 0,0.55 -0.39,0.55 -1.69,0.55 -1.25,0 -1.89,0 -3.18,0.09 -1.46,0.16 -1.85,0.3 -1.85,1.09 0,0.07 0,0.32 0.19,1.05 z"
           inkscape:connector-curvature="0"
           style="fill:#ff00ff;stroke-width:0" /></g>    </g>
    <g
       style="stroke-width:0.52109397;stroke-miterlimit:4;stroke-dasharray:2.08437588,0.52109397;fill:none;stroke:#000000;stroke-dashoffset:0"
       transform="matrix(0.90179341,0,0,1.0209415,8.5146487,-4.6805986)"
       id="g1392">
      <path
         inkscape:original-d="m 63.610148,100.62341 c 2.64e-4,20.84676 2.64e-4,0.20049 0,21.04778"
         inkscape:path-effect="#path-effect821"
         inkscape:connector-curvature="0"
         id="path1386"
         d="m 63.610148,100.62341 v 21.04778"
         style="fill:none;stroke:#000000;stroke-width:0.52109397;stroke-linecap:butt;stroke-linejoin:miter;stroke-opacity:1;stroke-miterlimit:4;stroke-dasharray:2.08437588,0.52109397;stroke-dashoffset:0"
         sodipodi:nodetypes="cc" />
      <path
         d="M 106.90497,121.23827 A 21.648832,26.726952 0 0 1 85.43148,147.96435 21.648832,26.726952 0 0 1 63.61015,121.67119"
         sodipodi:open="true"
         sodipodi:end="3.1253941"
         sodipodi:start="0"
         sodipodi:ry="26.726952"
         sodipodi:rx="21.648832"
         sodipodi:cy="121.23827"
         sodipodi:cx="85.256142"
         sodipodi:type="arc"
         id="path1388"
         style="fill:none;fill-rule:evenodd;stroke:#000000;stroke-width:0.52109397;stroke-miterlimit:4;stroke-dasharray:2.08437588,0.52109397;stroke-dashoffset:0" />
      <path
         transform="translate(43.294543,-0.3584629)"
         style="fill:none;stroke:#000000;stroke-width:0.52109397;stroke-linecap:butt;stroke-linejoin:miter;stroke-opacity:1;stroke-miterlimit:4;stroke-dasharray:2.08437588,0.52109397;stroke-dashoffset:0"
         d="m 63.313772,79.418636 0.296376,42.252554"
         id="path1390"
         inkscape:connector-curvature="0"
         inkscape:path-effect="#path-effect827"
         inkscape:original-d="m 63.313772,79.418636 c 2.64e-4,20.846754 0.29664,21.405264 0.296376,42.252554"
         sodipodi:nodetypes="cc" />
    </g>
    <path
       style="fill:#ff00ff;stroke:#ff00ff;stroke-width:0.4;stroke-linecap:butt;stroke-linejoin:miter;stroke-opacity:1;marker-end:url(#Arrow2Lend);stroke-miterlimit:3;stroke-dasharray:none"
       d="m 67.88646,131.56015 4.543581,8.8199"
       id="path1394"
       inkscape:connector-curvature="0"
       inkscape:path-effect="#path-effect1396"
       inkscape:original-d="m 67.88646,131.56015 c 1.51479,2.9397 3.029318,5.87967 4.543581,8.8199"
       transform="translate(1.1358955,2.4054258)" />
  </g>
</svg>
