<?xml version="1.0" encoding="UTF-8" standalone="no"?>
<!-- Created with Inkscape (http://www.inkscape.org/) -->

<svg
   xmlns:dc="http://purl.org/dc/elements/1.1/"
   xmlns:cc="http://creativecommons.org/ns#"
   xmlns:rdf="http://www.w3.org/1999/02/22-rdf-syntax-ns#"
   xmlns:svg="http://www.w3.org/2000/svg"
   xmlns="http://www.w3.org/2000/svg"
   xmlns:sodipodi="http://sodipodi.sourceforge.net/DTD/sodipodi-0.dtd"
   xmlns:inkscape="http://www.inkscape.org/namespaces/inkscape"
   width="210mm"
   height="297mm"
   viewBox="0 0 210 297"
   version="1.1"
   id="svg8"
   inkscape:version="0.92.5 (2060ec1f9f, 2020-04-08)"
   sodipodi:docname="viscosimètre_couette.svg">
  <defs
     id="defs2">
    <marker
       inkscape:isstock="true"
       style="overflow:visible;"
       id="marker1508"
       refX="0.0"
       refY="0.0"
       orient="auto"
       inkscape:stockid="Arrow2Lend">
      <path
         transform="scale(1.1) rotate(180) translate(1,0)"
         d="M 8.7185878,4.0337352 L -2.2072895,0.016013256 L 8.7185884,-4.0017078 C 6.9730900,-1.6296469 6.9831476,1.6157441 8.7185878,4.0337352 z "
         style="fill-rule:evenodd;stroke-width:0.625;stroke-linejoin:round;stroke:#000000;stroke-opacity:1;fill:#000000;fill-opacity:1"
         id="path1506" />
    </marker>
    <marker
       inkscape:isstock="true"
       style="overflow:visible"
       id="marker4609"
       refX="0.0"
       refY="0.0"
       orient="auto"
       inkscape:stockid="Arrow2Lstart">
      <path
         transform="scale(1.1) translate(1,0)"
         d="M 8.7185878,4.0337352 L -2.2072895,0.016013256 L 8.7185884,-4.0017078 C 6.9730900,-1.6296469 6.9831476,1.6157441 8.7185878,4.0337352 z "
         style="fill-rule:evenodd;stroke-width:0.625;stroke-linejoin:round;stroke:#000000;stroke-opacity:1;fill:#000000;fill-opacity:1"
         id="path4607" />
    </marker>
    <marker
       inkscape:isstock="true"
       style="overflow:visible;"
       id="marker4527"
       refX="0.0"
       refY="0.0"
       orient="auto"
       inkscape:stockid="Arrow2Lend">
      <path
         transform="scale(1.1) rotate(180) translate(1,0)"
         d="M 8.7185878,4.0337352 L -2.2072895,0.016013256 L 8.7185884,-4.0017078 C 6.9730900,-1.6296469 6.9831476,1.6157441 8.7185878,4.0337352 z "
         style="fill-rule:evenodd;stroke-width:0.625;stroke-linejoin:round;stroke:#000000;stroke-opacity:1;fill:#000000;fill-opacity:1"
         id="path4525" />
    </marker>
    <marker
       inkscape:stockid="Arrow2Lend"
       orient="auto"
       refY="0.0"
       refX="0.0"
       id="marker3211"
       style="overflow:visible;"
       inkscape:isstock="true"
       inkscape:collect="always">
      <path
         id="path3209"
         style="fill-rule:evenodd;stroke-width:0.625;stroke-linejoin:round;stroke:#000000;stroke-opacity:1;fill:#000000;fill-opacity:1"
         d="M 8.7185878,4.0337352 L -2.2072895,0.016013256 L 8.7185884,-4.0017078 C 6.9730900,-1.6296469 6.9831476,1.6157441 8.7185878,4.0337352 z "
         transform="scale(1.1) rotate(180) translate(1,0)" />
    </marker>
    <marker
       inkscape:isstock="true"
       style="overflow:visible;"
       id="marker1399"
       refX="0.0"
       refY="0.0"
       orient="auto"
       inkscape:stockid="Arrow2Lend"
       inkscape:collect="always">
      <path
         transform="scale(1.1) rotate(180) translate(1,0)"
         d="M 8.7185878,4.0337352 L -2.2072895,0.016013256 L 8.7185884,-4.0017078 C 6.9730900,-1.6296469 6.9831476,1.6157441 8.7185878,4.0337352 z "
         style="fill-rule:evenodd;stroke-width:0.625;stroke-linejoin:round;stroke:#000000;stroke-opacity:1;fill:#000000;fill-opacity:1"
         id="path1397" />
    </marker>
    <marker
       inkscape:isstock="true"
       style="overflow:visible"
       id="marker1365"
       refX="0.0"
       refY="0.0"
       orient="auto"
       inkscape:stockid="Arrow2Lstart">
      <path
         transform="scale(1.1) translate(1,0)"
         d="M 8.7185878,4.0337352 L -2.2072895,0.016013256 L 8.7185884,-4.0017078 C 6.9730900,-1.6296469 6.9831476,1.6157441 8.7185878,4.0337352 z "
         style="fill-rule:evenodd;stroke-width:0.625;stroke-linejoin:round;stroke:#000000;stroke-opacity:1;fill:#000000;fill-opacity:1"
         id="path1363" />
    </marker>
    <inkscape:path-effect
       is_visible="true"
       id="path-effect1361"
       effect="spiro" />
    <marker
       inkscape:stockid="Arrow2Lstart"
       orient="auto"
       refY="0.0"
       refX="0.0"
       id="Arrow2Lstart"
       style="overflow:visible"
       inkscape:isstock="true"
       inkscape:collect="always">
      <path
         id="path855"
         style="fill-rule:evenodd;stroke-width:0.625;stroke-linejoin:round;stroke:#000000;stroke-opacity:1;fill:#000000;fill-opacity:1"
         d="M 8.7185878,4.0337352 L -2.2072895,0.016013256 L 8.7185884,-4.0017078 C 6.9730900,-1.6296469 6.9831476,1.6157441 8.7185878,4.0337352 z "
         transform="scale(1.1) translate(1,0)" />
    </marker>
    <marker
       inkscape:stockid="Arrow2Lend"
       orient="auto"
       refY="0.0"
       refX="0.0"
       id="marker1121"
       style="overflow:visible;"
       inkscape:isstock="true">
      <path
         id="path1119"
         style="fill-rule:evenodd;stroke-width:0.625;stroke-linejoin:round;stroke:#000000;stroke-opacity:1;fill:#000000;fill-opacity:1"
         d="M 8.7185878,4.0337352 L -2.2072895,0.016013256 L 8.7185884,-4.0017078 C 6.9730900,-1.6296469 6.9831476,1.6157441 8.7185878,4.0337352 z "
         transform="scale(1.1) rotate(180) translate(1,0)" />
    </marker>
    <marker
       inkscape:stockid="Arrow2Lend"
       orient="auto"
       refY="0.0"
       refX="0.0"
       id="Arrow2Lend"
       style="overflow:visible;"
       inkscape:isstock="true"
       inkscape:collect="always">
      <path
         id="path858"
         style="fill-rule:evenodd;stroke-width:0.625;stroke-linejoin:round;stroke:#000000;stroke-opacity:1;fill:#000000;fill-opacity:1"
         d="M 8.7185878,4.0337352 L -2.2072895,0.016013256 L 8.7185884,-4.0017078 C 6.9730900,-1.6296469 6.9831476,1.6157441 8.7185878,4.0337352 z "
         transform="scale(1.1) rotate(180) translate(1,0)" />
    </marker>
    <inkscape:path-effect
       effect="spiro"
       id="path-effect835"
       is_visible="true" />
    <inkscape:path-effect
       is_visible="true"
       id="path-effect831"
       effect="spiro" />
    <inkscape:path-effect
       is_visible="true"
       id="path-effect827"
       effect="spiro" />
    <inkscape:path-effect
       effect="spiro"
       id="path-effect823"
       is_visible="true" />
  </defs>
  <sodipodi:namedview
     id="base"
     pagecolor="#ffffff"
     bordercolor="#666666"
     borderopacity="1.0"
     inkscape:pageopacity="0.0"
     inkscape:pageshadow="2"
     inkscape:zoom="0.9899495"
     inkscape:cx="209.07591"
     inkscape:cy="764.88412"
     inkscape:document-units="mm"
     inkscape:current-layer="layer1"
     showgrid="false"
     inkscape:window-width="1848"
     inkscape:window-height="1016"
     inkscape:window-x="72"
     inkscape:window-y="27"
     inkscape:window-maximized="1" />
  <metadata
     id="metadata5">
    <rdf:RDF>
      <cc:Work
         rdf:about="">
        <dc:format>image/svg+xml</dc:format>
        <dc:type
           rdf:resource="http://purl.org/dc/dcmitype/StillImage" />
        <dc:title />
      </cc:Work>
    </rdf:RDF>
  </metadata>
  <g
     inkscape:label="Calque 1"
     inkscape:groupmode="layer"
     id="layer1">
    <path
       style="opacity:0.2;fill:#0000ff;fill-opacity:1;fill-rule:evenodd;stroke:#000000;stroke-width:0.75590551;stroke-linecap:butt;stroke-linejoin:round;stroke-miterlimit:4;stroke-dasharray:0.75590551, 0.75590550999999984;stroke-dashoffset:0;stroke-opacity:1"
       d="m 355.16845,313.27172 c -31.35226,0.38298 -63.60099,6.82141 -90.23306,24.04538 -14.7281,9.62905 -28.21195,24.33259 -29.74031,42.62272 -1.54421,17.13254 8.79352,32.93514 21.70778,43.25554 21.57237,17.1697 48.90411,25.62097 76.00095,28.69346 14.5304,1.69433 29.24919,1.47275 43.8131,0.35435 27.84883,-3.03972 56.26562,-10.85415 78.6273,-28.3923 -4.28764,-0.18252 -8.85164,0.39633 -12.98895,-0.44194 0.21553,-1.40087 3.7813,-3.4374 0.81582,-4.10967 -7.48871,-3.10098 -14.98855,-6.56807 -22.64655,-9.0233 -8.66037,5.71478 -17.85435,10.77648 -27.9128,13.57593 -25.70777,7.41814 -53.88984,6.84052 -79.0884,-2.29655 -13.67727,-5.24121 -27.49435,-13.877 -33.6369,-27.73185 -3.57343,-9.10302 -2.14636,-19.75757 3.61347,-27.65786 10.44767,-14.65429 28.18012,-21.68606 45.11306,-25.67063 14.25125,-3.49785 29.08947,-3.04768 43.62056,-2.15197 19.40208,2.85502 39.88435,8.73878 53.69986,23.48605 7.97215,8.16543 11.38859,20.77792 7.1421,31.58798 -2.24387,6.11964 -6.80812,10.93471 -11.14424,15.6406 7.7869,2.99072 15.59224,6.61152 23.40516,9.14859 0.67924,-0.89266 -0.35416,-3.75626 0.94307,-3.74368 3.423,2.80006 6.57885,5.90779 9.84998,8.88026 11.66753,-10.03558 21.67581,-23.96852 21.65119,-39.94936 0.15462,-17.74071 -11.72037,-33.0901 -25.4965,-43.08106 -24.51274,-17.62828 -54.95041,-25.03039 -84.72652,-26.7556 -4.12592,-0.21472 -8.25773,-0.3106 -12.38917,-0.28509 z m 1.1374,0.98746 c 1.64474,1.61562 -2.11389,0.85473 0,0 z m 0,2.02031 c 1.64474,1.61561 -2.11389,0.85472 0,0 z m 0.1391,1.70463 c 1.23731,1.28396 -1.62465,1.75286 -0.43701,0.21209 0.11455,-0.10863 0.26457,-0.24757 0.43701,-0.21209 z m -0.18941,1.82498 c 1.38358,0.63669 -0.64837,2.53437 -0.5465,0.60175 0.0325,-0.27233 0.22167,-0.64254 0.5465,-0.60175 z m 0,2.02031 c 1.38358,0.63668 -0.64837,2.53437 -0.5465,0.60175 0.0325,-0.27233 0.22167,-0.64255 0.5465,-0.60175 z m -0.0207,1.99071 c 1.1333,0.47695 -0.21264,2.53384 -0.41038,0.59682 -0.0273,-0.24821 0.0924,-0.64336 0.41038,-0.59682 z m 0.071,2.05582 c 1.64474,1.61561 -2.1139,0.85472 0,0 z m 0,2.0203 c 1.64474,1.61562 -2.1139,0.85472 0,0 z m 0.13909,1.70463 c 1.23732,1.28397 -1.62465,1.75287 -0.437,0.2121 0.11454,-0.10863 0.26456,-0.24758 0.437,-0.2121 z m -0.1894,1.82499 c 1.38358,0.63668 -0.64837,2.53437 -0.54651,0.60175 0.0325,-0.27233 0.22168,-0.64255 0.54651,-0.60175 z m 0,2.0203 c 1.38358,0.63669 -0.64837,2.53437 -0.54651,0.60175 0.0325,-0.27233 0.22168,-0.64254 0.54651,-0.60175 z m -0.0207,1.99071 c 1.13331,0.47696 -0.21263,2.53385 -0.41037,0.59682 -0.0273,-0.24821 0.0924,-0.64336 0.41037,-0.59682 z m 0.071,94.98986 c 1.64475,1.61561 -2.11389,0.85472 0,0 z m 0.1391,1.70463 c 1.23731,1.28396 -1.62465,1.75286 -0.43701,0.21209 0.11455,-0.10863 0.26457,-0.24757 0.43701,-0.21209 z m -0.18941,1.82498 c 1.38358,0.63669 -0.64837,2.53437 -0.5465,0.60175 0.0325,-0.27233 0.22167,-0.64255 0.5465,-0.60175 z m 0,2.0203 c 1.38358,0.63669 -0.64837,2.53438 -0.5465,0.60176 0.0325,-0.27233 0.22167,-0.64255 0.5465,-0.60176 z m -0.0207,1.99072 c 1.13325,0.47679 -0.21257,2.53403 -0.41038,0.59682 -0.0273,-0.24822 0.0924,-0.64337 0.41038,-0.59682 z m 0.071,2.05581 c 1.64474,1.61562 -2.1139,0.85472 0,0 z m 0,2.02031 c 1.64474,1.61561 -2.1139,0.85472 0,0 z m -0.0503,1.50931 c 1.38358,0.63669 -0.64837,2.53437 -0.5465,0.60175 0.0325,-0.27233 0.22167,-0.64255 0.5465,-0.60175 z m 0,2.0203 c 1.38358,0.63669 -0.64837,2.53438 -0.5465,0.60176 0.0325,-0.27234 0.22167,-0.64255 0.5465,-0.60176 z m 0,2.02031 c 1.38358,0.63669 -0.64837,2.53437 -0.5465,0.60175 0.0325,-0.27233 0.22167,-0.64255 0.5465,-0.60175 z m 0.0503,2.02622 c 1.64474,1.61562 -2.1139,0.85472 0,0 z m 0,2.02031 c 1.64474,1.61561 -2.1139,0.85472 0,0 z"
       id="path4971"
       inkscape:connector-curvature="0"
       transform="scale(0.26458333)" />
    <ellipse
       style="fill:none;fill-rule:evenodd;stroke-width:0.26458332;stroke:#000000"
       id="path815"
       cx="94.305054"
       cy="101.39732"
       rx="32.316963"
       ry="18.709822" />
    <ellipse
       ry="11.926661"
       rx="20.635231"
       cy="101.39732"
       cx="94.305054"
       id="ellipse817"
       style="fill:none;fill-rule:evenodd;stroke:#000000;stroke-width:0.26458332" />
    <path
       id="ellipse819"
       style="fill:none;fill-rule:evenodd;stroke:#000000;stroke-width:0.26458332"
       sodipodi:type="arc"
       sodipodi:cx="94.305054"
       sodipodi:cy="131.55975"
       sodipodi:rx="32.316963"
       sodipodi:ry="18.709822"
       sodipodi:start="0"
       sodipodi:end="3.1415927"
       sodipodi:open="true"
       d="m 126.62202,131.55975 a 32.316963,18.709822 0 0 1 -16.15849,16.20318 32.316963,18.709822 0 0 1 -32.316959,0 32.316963,18.709822 0 0 1 -16.15848,-16.20318" />
    <path
       style="fill:none;stroke:#000000;stroke-width:0.61074162px;stroke-linecap:butt;stroke-linejoin:miter;stroke-opacity:1"
       d="M 25.324405,116.51637 V 182.6622"
       id="path821"
       inkscape:connector-curvature="0"
       inkscape:path-effect="#path-effect823"
       inkscape:original-d="m 25.324405,116.51637 c 2.64e-4,22.04834 2.64e-4,44.09695 0,66.14583"
       transform="matrix(0.40747994,0,0,0.46057853,51.668908,47.587872)" />
    <path
       transform="matrix(0.40837364,0,0,0.46158869,116.284,47.445115)"
       inkscape:original-d="m 25.324405,116.51637 c 2.64e-4,22.04834 2.64e-4,44.09695 0,66.14583"
       inkscape:path-effect="#path-effect827"
       inkscape:connector-curvature="0"
       id="path825"
       d="M 25.324405,116.51637 V 182.6622"
       style="fill:none;stroke:#000000;stroke-width:0.60940504px;stroke-linecap:butt;stroke-linejoin:miter;stroke-opacity:1" />
    <path
       transform="matrix(0.66192455,0,0,0.95110064,77.503142,-36.490419)"
       inkscape:original-d="m 25.324405,116.51637 c 2.64e-4,22.04834 2.64e-4,44.09695 0,66.14583"
       inkscape:path-effect="#path-effect831"
       inkscape:connector-curvature="0"
       id="path829"
       d="M 25.324405,116.51637 V 182.6622"
       style="fill:none;stroke:#000000;stroke-width:0.25206497;stroke-linecap:butt;stroke-linejoin:miter;stroke-miterlimit:4;stroke-dasharray:0.25206497, 0.25206497;stroke-dashoffset:0;stroke-opacity:1;marker-start:url(#marker4609)" />
    <path
       style="fill:none;stroke:#000000;stroke-width:0.2759262;stroke-linecap:butt;stroke-linejoin:miter;stroke-miterlimit:4;stroke-dasharray:none;stroke-opacity:1;marker-start:url(#Arrow2Lstart);marker-end:url(#Arrow2Lend)"
       d="m 94.346142,101.69279 -17.038433,6.28084"
       id="path833"
       inkscape:connector-curvature="0"
       inkscape:path-effect="#path-effect835"
       inkscape:original-d="m 94.346142,101.69279 c -5.679212,2.09335 -11.358689,4.18696 -17.038433,6.28084"
       transform="matrix(0.95357328,0,0,0.96727904,3.8510285,3.2631984)" />
    <path
       transform="matrix(1.1098819,1.0267263,-1.0201828,1.1493409,119.19189,-101.86091)"
       inkscape:original-d="m 94.346142,101.69279 c -5.679212,2.09335 -11.358689,4.18696 -17.038433,6.28084"
       inkscape:path-effect="#path-effect1361"
       inkscape:connector-curvature="0"
       id="path1359"
       d="m 94.346142,101.69279 -17.038433,6.28084"
       style="fill:none;stroke:#000000;stroke-width:0.17386559;stroke-linecap:butt;stroke-linejoin:miter;stroke-miterlimit:4;stroke-dasharray:none;stroke-opacity:1;marker-start:url(#marker1365);marker-end:url(#marker1399)" />
    <path
       sodipodi:type="spiral"
       style="fill:none;fill-rule:evenodd;stroke:#000000;stroke-width:0.24379122;marker-end:url(#marker3211)"
       id="path3201"
       sodipodi:cx="93.310471"
       sodipodi:cy="-77.598289"
       sodipodi:expansion="1"
       sodipodi:revolution="3.0593467"
       sodipodi:radius="7.3350153"
       sodipodi:argument="-18.235786"
       sodipodi:t0="0.8983382"
       d="m 97.048813,-83.024521 c 3.234097,1.962515 4.133587,6.322325 2.181483,9.504631 -0.486234,0.792654 -1.126786,1.488024 -1.874691,2.04037"
       transform="matrix(1,0,0,-1.1778469,16.277491,10.244711)" />
    <g
       id="g4348"
       transform="matrix(0.39999998,0,0,0.39999999,57.957652,31.921534)"
       style="stroke-width:2.5">
      <g
         word-spacing="normal"
         letter-spacing="normal"
         font-size-adjust="none"
         font-stretch="normal"
         font-weight="normal"
         font-variant="normal"
         font-style="normal"
         stroke-miterlimit="10.433"
         xml:space="preserve"
         transform="matrix(0.3,0,0,-0.3,-52.5,222.75)"
         id="g4346"
         style="font-style:normal;font-variant:normal;font-weight:normal;font-stretch:normal;letter-spacing:normal;word-spacing:normal;text-anchor:start;fill:none;fill-opacity:1;fill-rule:evenodd;stroke:#000000;stroke-width:2.5;stroke-linecap:butt;stroke-linejoin:miter;stroke-miterlimit:10.43299961;stroke-dasharray:none;stroke-dashoffset:0;stroke-opacity:1"><path
           id="path4340"
           d="m 480.35,435.84 -0.07,-0.06 -0.07,-0.07 -0.07,-0.07 -0.09,-0.07 -0.08,-0.08 -0.09,-0.08 -0.09,-0.09 -0.09,-0.08 -0.1,-0.09 -0.1,-0.1 -0.19,-0.19 -0.2,-0.19 -0.19,-0.21 -0.09,-0.1 -0.09,-0.1 -0.09,-0.1 -0.08,-0.11 -0.08,-0.1 -0.08,-0.1 -0.07,-0.1 -0.06,-0.1 -0.06,-0.1 -0.05,-0.1 -0.05,-0.1 -0.04,-0.09 -0.03,-0.09 -0.02,-0.1 -0.02,-0.08 v -0.09 c 0,-0.5 0.5,-1 1,-1 0.45,0 0.7,0.36 0.95,0.66 0.59,0.75 1.74,2.14 3.94,3.23 0.34,0.21 0.84,0.46 0.84,1.05 0,0.5 -0.34,0.75 -0.7,1 -1.09,0.75 -1.64,1.64 -2.05,2.83 -0.09,0.45 -0.29,1.11 -0.98,1.11 -0.71,0 -1,-0.66 -1,-1.05 0,-0.25 0.39,-1.84 1.19,-2.89 h -16.79 c -0.84,0 -1.75,0 -1.75,-1 0,-1 0.91,-1 1.75,-1 z"
           inkscape:connector-curvature="0"
           style="fill:#000000;stroke-width:0" /><path
           id="path4342"
           d="m 464.83,417.71 0.14,0.01 h 0.16 0.16 0.18 l 0.19,0.01 h 0.2 l 0.21,0.01 0.21,0.01 0.23,0.01 0.23,0.01 0.24,0.01 0.24,0.02 0.25,0.02 0.26,0.02 0.52,0.05 0.54,0.07 0.54,0.07 0.55,0.1 0.54,0.11 0.53,0.12 0.26,0.07 0.26,0.08 0.26,0.08 0.24,0.08 0.25,0.09 0.23,0.1 c 3.49,1.5 3.74,4.43 3.74,5.12 0,2.2 -1.89,4.23 -5.33,4.23 v -1.09 c 2.34,0 3.69,-1.44 3.69,-3.14 0,-5.17 -7.97,-5.17 -10.02,-5.17 h -2.05 c 1.96,7.56 7.08,8.31 8.38,8.31 v 1.09 c -5.53,0 -13.05,-4.82 -13.05,-13.54 0,-5.08 2.94,-9.02 7.81,-9.02 7.13,0 11.32,5.28 11.32,5.88 0,0.29 -0.3,0.65 -0.6,0.65 -0.25,0 -0.34,-0.11 -0.65,-0.5 -3.94,-4.93 -9.36,-4.93 -9.96,-4.93 -3.89,0 -4.34,4.18 -4.34,5.78 0,0.59 0.05,2.14 0.8,5.18 z"
           inkscape:connector-curvature="0"
           style="fill:#000000;stroke-width:0" /><path
           id="path4344"
           d="m 484.54,401.82 0.17,0.17 0.16,0.17 0.17,0.16 0.17,0.17 0.18,0.17 0.09,0.09 0.1,0.1 0.1,0.09 0.11,0.1 0.11,0.1 0.11,0.11 0.13,0.11 0.13,0.11 0.13,0.12 0.15,0.13 0.15,0.13 0.16,0.14 0.17,0.14 0.17,0.15 0.19,0.16 0.2,0.16 0.21,0.17 0.22,0.18 0.23,0.19 0.25,0.2 0.25,0.21 0.27,0.21 c 0.74,0.6 3.35,2.69 4.36,3.66 2.13,2.09 3.46,3.87 3.46,4.29 0,0.41 -0.46,0.41 -0.6,0.41 -0.31,0 -0.42,-0.06 -0.59,-0.34 -1.08,-1.6 -1.81,-2.13 -2.64,-2.13 -0.42,0 -0.96,0.03 -2,1.05 -1.17,1.19 -1.94,1.42 -2.75,1.42 -2.78,0 -4.67,-3.03 -4.67,-4.06 0,-0.33 0.36,-0.42 0.59,-0.42 0.42,0 0.5,0.09 0.62,0.48 0.54,1.22 2.49,1.3 3.05,1.3 0.8,0 1.7,-0.22 2.19,-0.33 1.92,-0.41 2.16,-0.41 3.03,-0.41 -0.91,-0.95 -1.53,-1.57 -4.84,-4.22 -2.72,-2.15 -3.66,-3.03 -4.32,-3.73 -2.09,-2.05 -3.11,-3.58 -3.11,-3.91 0,-0.4 0.46,-0.4 0.6,-0.4 0.34,0 0.42,0.06 0.59,0.34 0.94,1.33 2.02,2.13 3.21,2.13 0.42,0 0.93,-0.03 1.87,-0.91 1.09,-1.05 1.78,-1.56 2.91,-1.56 3.72,0 6.06,4.22 6.06,5.39 0,0.42 -0.39,0.45 -0.59,0.45 -0.43,0 -0.5,-0.17 -0.63,-0.55 -0.67,-1.75 -2.72,-2.57 -4.44,-2.57 -0.79,0 -1.67,0.17 -2.53,0.37 -1.61,0.35 -1.89,0.35 -2.51,0.35 -0.08,0 -0.6,0 -0.8,-0.04 z"
           inkscape:connector-curvature="0"
           style="fill:#000000;stroke-width:0" /></g>    </g>
    <g
       id="g4400"
       transform="matrix(0.39999998,0,0,0.39999998,52.256014,67.508057)"
       style="stroke-width:2.5">
      <g
         word-spacing="normal"
         letter-spacing="normal"
         font-size-adjust="none"
         font-stretch="normal"
         font-weight="normal"
         font-variant="normal"
         font-style="normal"
         stroke-miterlimit="10.433"
         xml:space="preserve"
         transform="matrix(0.3,0,0,-0.3,-52.5,222.75)"
         id="g4398"
         style="font-style:normal;font-variant:normal;font-weight:normal;font-stretch:normal;letter-spacing:normal;word-spacing:normal;text-anchor:start;fill:none;fill-opacity:1;fill-rule:evenodd;stroke:#000000;stroke-width:2.5;stroke-linecap:butt;stroke-linejoin:miter;stroke-miterlimit:10.43299961;stroke-dasharray:none;stroke-dashoffset:0;stroke-opacity:1"><path
           id="path4394"
           d="m 459.91,409.14 -0.02,-0.07 -0.01,-0.08 -0.02,-0.07 -0.01,-0.08 -0.04,-0.16 -0.04,-0.16 -0.03,-0.16 -0.04,-0.16 -0.04,-0.16 -0.04,-0.16 -0.01,-0.08 -0.02,-0.07 -0.02,-0.07 -0.01,-0.07 -0.02,-0.07 -0.01,-0.07 -0.01,-0.06 -0.01,-0.06 -0.01,-0.06 -0.01,-0.05 -0.01,-0.05 -0.01,-0.04 -0.01,-0.04 v -0.04 -0.03 -0.02 c 0,-0.89 0.7,-1.35 1.43,-1.35 0.61,0 1.5,0.39 1.85,1.39 0.11,0.21 1.8,6.99 2,7.88 0.39,1.64 1.3,5.12 1.59,6.48 0.21,0.64 1.6,2.99 2.78,4.08 0.41,0.34 1.85,1.64 4,1.64 1.28,0 2.03,-0.59 2.08,-0.59 -1.48,-0.25 -2.58,-1.46 -2.58,-2.74 0,-0.79 0.55,-1.75 1.89,-1.75 1.35,0 2.74,1.14 2.74,2.94 0,1.75 -1.6,3.23 -4.13,3.23 -3.25,0 -5.43,-2.43 -6.39,-3.82 -0.39,2.23 -2.18,3.82 -4.53,3.82 -2.28,0 -3.23,-1.93 -3.69,-2.82 -0.89,-1.71 -1.54,-4.69 -1.54,-4.85 0,-0.5 0.5,-0.5 0.61,-0.5 0.5,0 0.54,0.07 0.84,1.16 0.84,3.53 1.84,5.92 3.64,5.92 0.84,0 1.55,-0.39 1.55,-2.28 0,-1.05 -0.16,-1.61 -0.8,-4.19 z"
           inkscape:connector-curvature="0"
           style="fill:#000000;stroke-width:0" /><path
           id="path4396"
           d="m 489.63,420.92 v 0.04 0.04 0.05 0.04 0.03 0.04 0.04 0.03 0.04 0.03 l -0.01,0.03 v 0.03 0.03 l -0.01,0.03 v 0.03 0.02 l -0.01,0.03 v 0.02 l -0.01,0.03 v 0.02 l -0.01,0.04 -0.02,0.04 -0.02,0.03 -0.02,0.03 -0.02,0.03 -0.02,0.03 -0.03,0.02 -0.03,0.02 -0.03,0.02 -0.04,0.01 -0.04,0.01 -0.05,0.02 h -0.02 -0.02 l -0.03,0.01 h -0.03 l -0.02,0.01 h -0.03 -0.03 -0.03 -0.03 l -0.04,0.01 h -0.03 -0.04 -0.03 -0.04 -0.04 -0.04 -0.04 -0.04 -0.05 -0.04 c -2.24,-2.2 -5.39,-2.23 -6.83,-2.23 v -1.25 c 0.84,0 3.14,0 5.04,0.97 v -17.77 c 0,-1.16 0,-1.61 -3.48,-1.61 h -1.31 v -1.25 c 0.62,0.03 4.9,0.14 6.2,0.14 1.08,0 5.47,-0.11 6.24,-0.14 v 1.25 h -1.33 c -3.49,0 -3.49,0.45 -3.49,1.61 z"
           inkscape:connector-curvature="0"
           style="fill:#000000;stroke-width:0" /></g>    </g>
    <g
       id="g4455"
       transform="matrix(0.39999998,0,0,0.39999998,71.598421,63.632649)"
       style="stroke-width:2.5">
      <g
         word-spacing="normal"
         letter-spacing="normal"
         font-size-adjust="none"
         font-stretch="normal"
         font-weight="normal"
         font-variant="normal"
         font-style="normal"
         stroke-miterlimit="10.433"
         xml:space="preserve"
         transform="matrix(0.3,0,0,-0.3,-52.5,222.75)"
         id="g4453"
         style="font-style:normal;font-variant:normal;font-weight:normal;font-stretch:normal;letter-spacing:normal;word-spacing:normal;text-anchor:start;fill:none;fill-opacity:1;fill-rule:evenodd;stroke:#000000;stroke-width:2.5;stroke-linecap:butt;stroke-linejoin:miter;stroke-miterlimit:10.43299961;stroke-dasharray:none;stroke-dashoffset:0;stroke-opacity:1"><path
           id="path4449"
           d="m 459.91,409.14 -0.02,-0.07 -0.01,-0.08 -0.02,-0.07 -0.01,-0.08 -0.04,-0.16 -0.04,-0.16 -0.03,-0.16 -0.04,-0.16 -0.04,-0.16 -0.04,-0.16 -0.01,-0.08 -0.02,-0.07 -0.02,-0.07 -0.01,-0.07 -0.02,-0.07 -0.01,-0.07 -0.01,-0.06 -0.01,-0.06 -0.01,-0.06 -0.01,-0.05 -0.01,-0.05 -0.01,-0.04 -0.01,-0.04 v -0.04 -0.03 -0.02 c 0,-0.89 0.7,-1.35 1.43,-1.35 0.61,0 1.5,0.39 1.85,1.39 0.11,0.21 1.8,6.99 2,7.88 0.39,1.64 1.3,5.12 1.59,6.48 0.21,0.64 1.6,2.99 2.78,4.08 0.41,0.34 1.85,1.64 4,1.64 1.28,0 2.03,-0.59 2.08,-0.59 -1.48,-0.25 -2.58,-1.46 -2.58,-2.74 0,-0.79 0.55,-1.75 1.89,-1.75 1.35,0 2.74,1.14 2.74,2.94 0,1.75 -1.6,3.23 -4.13,3.23 -3.25,0 -5.43,-2.43 -6.39,-3.82 -0.39,2.23 -2.18,3.82 -4.53,3.82 -2.28,0 -3.23,-1.93 -3.69,-2.82 -0.89,-1.71 -1.54,-4.69 -1.54,-4.85 0,-0.5 0.5,-0.5 0.61,-0.5 0.5,0 0.54,0.07 0.84,1.16 0.84,3.53 1.84,5.92 3.64,5.92 0.84,0 1.55,-0.39 1.55,-2.28 0,-1.05 -0.16,-1.61 -0.8,-4.19 z"
           inkscape:connector-curvature="0"
           style="fill:#000000;stroke-width:0" /><path
           id="path4451"
           d="m 495.55,405.11 h -1.18 c -0.1,-0.77 -0.46,-2.83 -0.91,-3.18 -0.26,-0.2 -2.95,-0.2 -3.44,-0.2 h -6.42 c 3.66,3.23 4.88,4.2 6.97,5.84 2.58,2.07 4.98,4.22 4.98,7.54 0,4.21 -3.68,6.79 -8.15,6.79 -4.31,0 -7.25,-3.03 -7.25,-6.23 0,-1.78 1.5,-1.96 1.86,-1.96 0.83,0 1.84,0.6 1.84,1.85 0,0.62 -0.25,1.84 -2.06,1.84 1.08,2.47 3.45,3.24 5.09,3.24 3.49,0 5.3,-2.71 5.3,-5.53 0,-3.04 -2.16,-5.44 -3.28,-6.69 l -8.39,-8.3 c -0.36,-0.31 -0.36,-0.39 -0.36,-1.36 h 14.36 z"
           inkscape:connector-curvature="0"
           style="fill:#000000;stroke-width:0" /></g>    </g>
    <path
       transform="matrix(1.443975,0,0,-2.2505863,-16.291344,-72.135119)"
       d="m 96.303422,-83.413813 c 3.434487,1.521496 4.873448,5.701034 3.355527,9.082759 -0.506733,1.128936 -1.308313,2.116679 -2.303344,2.851534"
       sodipodi:t0="0.89168108"
       sodipodi:argument="-18.235786"
       sodipodi:radius="7.3350153"
       sodipodi:revolution="3.0593467"
       sodipodi:expansion="1"
       sodipodi:cy="-77.598289"
       sodipodi:cx="93.310471"
       id="path1504"
       style="fill:none;fill-rule:evenodd;stroke:#000000;stroke-width:0.14676915;marker-end:url(#marker1508)"
       sodipodi:type="spiral" />
    <g
       id="g2916"
       transform="matrix(0.39999999,0,0,0.39999998,84.014961,61.396066)"
       style="stroke-width:2.5">
      <g
         word-spacing="normal"
         letter-spacing="normal"
         font-size-adjust="none"
         font-stretch="normal"
         font-weight="normal"
         font-variant="normal"
         font-style="normal"
         stroke-miterlimit="10.433"
         xml:space="preserve"
         transform="matrix(0.3,0,0,-0.3,-52.5,222.75)"
         id="g2914"
         style="font-style:normal;font-variant:normal;font-weight:normal;font-stretch:normal;letter-spacing:normal;word-spacing:normal;text-anchor:start;fill:none;fill-opacity:1;fill-rule:evenodd;stroke:#000000;stroke-width:2.5;stroke-linecap:butt;stroke-linejoin:miter;stroke-miterlimit:10.43299961;stroke-dasharray:none;stroke-dashoffset:0;stroke-opacity:1"><path
           id="path2910"
           d="m 485.66,424.73 v 0.21 l -0.01,0.2 -0.01,0.2 -0.02,0.19 -0.02,0.18 -0.03,0.18 -0.03,0.17 -0.04,0.16 -0.04,0.16 -0.04,0.16 -0.05,0.14 -0.05,0.14 -0.05,0.13 -0.06,0.13 -0.07,0.12 -0.06,0.12 -0.07,0.1 -0.07,0.1 -0.08,0.1 -0.08,0.09 -0.08,0.08 -0.08,0.07 -0.08,0.07 -0.09,0.06 -0.09,0.05 -0.09,0.05 -0.1,0.04 -0.09,0.03 -0.1,0.02 -0.1,0.02 -0.1,0.01 h -0.1 c -1.3,0 -2.64,-1.18 -2.64,-2.34 0,-0.48 0.23,-1.03 0.73,-1.48 0.86,-0.75 1.75,-2.1 1.75,-4.19 0,-2 -0.95,-4.83 -2.48,-7.13 -1.5,-2.14 -3.35,-3.82 -5.69,-3.82 -2.85,0 -4.39,1.78 -4.83,4.46 0.55,1.3 1.69,4.49 1.69,5.9 0,0.59 -0.25,1.09 -0.89,1.09 -0.41,0 -0.96,-0.11 -1.35,-0.84 -0.54,-1 -1.15,-4.24 -1.15,-6.04 -1.64,-2.34 -3.63,-4.57 -6.77,-4.57 -3.3,0 -4.34,2.93 -4.34,5.71 0,6.24 5.09,11.47 5.09,12.11 0,0.55 -0.41,0.96 -0.95,0.96 -0.66,0 -1,-0.66 -1.3,-1.11 -2.55,-3.69 -4.44,-9.61 -4.44,-14.14 0,-3.44 1.16,-7.13 5.24,-7.13 3.53,0 5.87,2.49 7.67,5.24 0.45,-2.89 2.39,-5.24 5.48,-5.24 3.89,0 6.29,3.03 8.07,6.78 1.2,2.44 3.09,9.21 3.09,12.3 z"
           inkscape:connector-curvature="0"
           style="fill:#000000;stroke-width:0" /><path
           id="path2912"
           d="m 498.15,420.92 v 0.04 0.04 0.05 0.04 0.03 0.04 0.04 0.03 0.04 l -0.01,0.03 v 0.03 0.03 0.03 l -0.01,0.03 v 0.03 0.02 l -0.01,0.03 v 0.02 l -0.01,0.03 v 0.02 l -0.01,0.04 -0.02,0.04 -0.02,0.03 -0.02,0.03 -0.02,0.03 -0.02,0.03 -0.03,0.02 -0.03,0.02 -0.03,0.02 -0.04,0.01 -0.04,0.01 -0.05,0.02 h -0.02 -0.02 l -0.03,0.01 h -0.03 l -0.02,0.01 h -0.03 -0.03 -0.03 -0.03 l -0.04,0.01 h -0.03 -0.04 -0.03 -0.04 -0.04 -0.04 -0.04 -0.05 -0.04 -0.04 c -2.24,-2.2 -5.4,-2.23 -6.83,-2.23 v -1.25 c 0.84,0 3.14,0 5.04,0.97 v -17.77 c 0,-1.16 0,-1.61 -3.48,-1.61 h -1.31 v -1.25 c 0.62,0.03 4.9,0.14 6.2,0.14 1.08,0 5.47,-0.11 6.23,-0.14 v 1.25 h -1.32 c -3.49,0 -3.49,0.45 -3.49,1.61 z"
           inkscape:connector-curvature="0"
           style="fill:#000000;stroke-width:0" /></g>    </g>
    <g
       id="g2990"
       transform="matrix(0.39999999,0,0,0.39999998,96.304594,62.246512)"
       style="stroke-width:2.5">
      <g
         word-spacing="normal"
         letter-spacing="normal"
         font-size-adjust="none"
         font-stretch="normal"
         font-weight="normal"
         font-variant="normal"
         font-style="normal"
         stroke-miterlimit="10.433"
         xml:space="preserve"
         transform="matrix(0.3,0,0,-0.3,-52.5,222.75)"
         id="g2988"
         style="font-style:normal;font-variant:normal;font-weight:normal;font-stretch:normal;letter-spacing:normal;word-spacing:normal;text-anchor:start;fill:none;fill-opacity:1;fill-rule:evenodd;stroke:#000000;stroke-width:6.25000048;stroke-linecap:butt;stroke-linejoin:miter;stroke-miterlimit:10.43299961;stroke-dasharray:none;stroke-dashoffset:0;stroke-opacity:1"><path
           id="path2984"
           d="m 485.66,424.73 v 0.21 l -0.01,0.2 -0.01,0.2 -0.02,0.19 -0.02,0.18 -0.03,0.18 -0.03,0.17 -0.04,0.16 -0.04,0.16 -0.04,0.16 -0.05,0.14 -0.05,0.14 -0.05,0.13 -0.06,0.13 -0.07,0.12 -0.06,0.12 -0.07,0.1 -0.07,0.1 -0.08,0.1 -0.08,0.09 -0.08,0.08 -0.08,0.07 -0.08,0.07 -0.09,0.06 -0.09,0.05 -0.09,0.05 -0.1,0.04 -0.09,0.03 -0.1,0.02 -0.1,0.02 -0.1,0.01 h -0.1 c -1.3,0 -2.64,-1.18 -2.64,-2.34 0,-0.48 0.23,-1.03 0.73,-1.48 0.86,-0.75 1.75,-2.1 1.75,-4.19 0,-2 -0.95,-4.83 -2.48,-7.13 -1.5,-2.14 -3.35,-3.82 -5.69,-3.82 -2.85,0 -4.39,1.78 -4.83,4.46 0.55,1.3 1.69,4.49 1.69,5.9 0,0.59 -0.25,1.09 -0.89,1.09 -0.41,0 -0.96,-0.11 -1.35,-0.84 -0.54,-1 -1.15,-4.24 -1.15,-6.04 -1.64,-2.34 -3.63,-4.57 -6.77,-4.57 -3.3,0 -4.34,2.93 -4.34,5.71 0,6.24 5.09,11.47 5.09,12.11 0,0.55 -0.41,0.96 -0.95,0.96 -0.66,0 -1,-0.66 -1.3,-1.11 -2.55,-3.69 -4.44,-9.61 -4.44,-14.14 0,-3.44 1.16,-7.13 5.24,-7.13 3.53,0 5.87,2.49 7.67,5.24 0.45,-2.89 2.39,-5.24 5.48,-5.24 3.89,0 6.29,3.03 8.07,6.78 1.2,2.44 3.09,9.21 3.09,12.3 z"
           inkscape:connector-curvature="0"
           style="fill:#000000;stroke-width:0" /><path
           id="path2986"
           d="m 504.07,405.11 h -1.18 c -0.1,-0.77 -0.46,-2.83 -0.91,-3.18 -0.27,-0.2 -2.95,-0.2 -3.44,-0.2 h -6.42 c 3.66,3.23 4.88,4.2 6.97,5.84 2.58,2.07 4.98,4.22 4.98,7.54 0,4.21 -3.68,6.79 -8.15,6.79 -4.31,0 -7.25,-3.03 -7.25,-6.23 0,-1.78 1.5,-1.96 1.86,-1.96 0.83,0 1.84,0.6 1.84,1.85 0,0.62 -0.25,1.84 -2.06,1.84 1.08,2.47 3.45,3.24 5.09,3.24 3.49,0 5.3,-2.71 5.3,-5.53 0,-3.04 -2.16,-5.44 -3.28,-6.69 l -8.39,-8.3 c -0.36,-0.31 -0.36,-0.39 -0.36,-1.36 h 14.36 z"
           inkscape:connector-curvature="0"
           style="fill:#000000;stroke-width:0" /></g>    </g>
  </g>
</svg>
