<?xml version="1.0" encoding="UTF-8" standalone="no"?>
<!-- Created with Inkscape (http://www.inkscape.org/) -->

<svg
   xmlns:dc="http://purl.org/dc/elements/1.1/"
   xmlns:cc="http://creativecommons.org/ns#"
   xmlns:rdf="http://www.w3.org/1999/02/22-rdf-syntax-ns#"
   xmlns:svg="http://www.w3.org/2000/svg"
   xmlns="http://www.w3.org/2000/svg"
   xmlns:sodipodi="http://sodipodi.sourceforge.net/DTD/sodipodi-0.dtd"
   xmlns:inkscape="http://www.inkscape.org/namespaces/inkscape"
   width="210mm"
   height="297mm"
   viewBox="0 0 210 297"
   version="1.1"
   id="svg8"
   inkscape:version="0.92.5 (2060ec1f9f, 2020-04-08)"
   sodipodi:docname="distribution.svg">
  <defs
     id="defs2">
    <marker
       inkscape:isstock="true"
       style="overflow:visible;"
       id="marker1711"
       refX="0.0"
       refY="0.0"
       orient="auto"
       inkscape:stockid="Arrow2Lend">
      <path
         transform="scale(1.1) rotate(180) translate(1,0)"
         d="M 8.7185878,4.0337352 L -2.2072895,0.016013256 L 8.7185884,-4.0017078 C 6.9730900,-1.6296469 6.9831476,1.6157441 8.7185878,4.0337352 z "
         style="fill-rule:evenodd;stroke-width:0.625;stroke-linejoin:round;stroke:#008000;stroke-opacity:1;fill:#008000;fill-opacity:1"
         id="path1709" />
    </marker>
    <marker
       inkscape:isstock="true"
       style="overflow:visible"
       id="marker1665"
       refX="0.0"
       refY="0.0"
       orient="auto"
       inkscape:stockid="Arrow2Lstart">
      <path
         transform="scale(1.1) translate(1,0)"
         d="M 8.7185878,4.0337352 L -2.2072895,0.016013256 L 8.7185884,-4.0017078 C 6.9730900,-1.6296469 6.9831476,1.6157441 8.7185878,4.0337352 z "
         style="fill-rule:evenodd;stroke-width:0.625;stroke-linejoin:round;stroke:#008000;stroke-opacity:1;fill:#008000;fill-opacity:1"
         id="path1663" />
    </marker>
    <inkscape:path-effect
       effect="simplify"
       id="path-effect1212"
       is_visible="true"
       steps="1"
       threshold="0.5"
       smooth_angles="360"
       helper_size="0"
       simplify_individual_paths="false"
       simplify_just_coalesce="false"
       simplifyindividualpaths="false"
       simplifyJustCoalesce="false" />
    <inkscape:path-effect
       effect="spiro"
       id="path-effect1145"
       is_visible="true" />
    <inkscape:path-effect
       effect="bspline"
       id="path-effect1141"
       is_visible="true"
       weight="33.333333"
       steps="2"
       helper_size="0"
       apply_no_weight="true"
       apply_with_weight="true"
       only_selected="false" />
    <marker
       inkscape:stockid="Arrow2Lend"
       orient="auto"
       refY="0.0"
       refX="0.0"
       id="Arrow2Lend"
       style="overflow:visible;"
       inkscape:isstock="true"
       inkscape:collect="always">
      <path
         id="path838"
         style="fill-rule:evenodd;stroke-width:0.625;stroke-linejoin:round;stroke:#000000;stroke-opacity:1;fill:#000000;fill-opacity:1"
         d="M 8.7185878,4.0337352 L -2.2072895,0.016013256 L 8.7185884,-4.0017078 C 6.9730900,-1.6296469 6.9831476,1.6157441 8.7185878,4.0337352 z "
         transform="scale(1.1) rotate(180) translate(1,0)" />
    </marker>
    <marker
       inkscape:stockid="Arrow2Lstart"
       orient="auto"
       refY="0.0"
       refX="0.0"
       id="Arrow2Lstart"
       style="overflow:visible"
       inkscape:isstock="true"
       inkscape:collect="always">
      <path
         id="path835"
         style="fill-rule:evenodd;stroke-width:0.625;stroke-linejoin:round;stroke:#000000;stroke-opacity:1;fill:#000000;fill-opacity:1"
         d="M 8.7185878,4.0337352 L -2.2072895,0.016013256 L 8.7185884,-4.0017078 C 6.9730900,-1.6296469 6.9831476,1.6157441 8.7185878,4.0337352 z "
         transform="scale(1.1) translate(1,0)" />
    </marker>
  </defs>
  <sodipodi:namedview
     id="base"
     pagecolor="#ffffff"
     bordercolor="#666666"
     borderopacity="1.0"
     inkscape:pageopacity="0.0"
     inkscape:pageshadow="2"
     inkscape:zoom="0.7"
     inkscape:cx="40.297126"
     inkscape:cy="479.45121"
     inkscape:document-units="mm"
     inkscape:current-layer="layer1"
     showgrid="false"
     inkscape:window-width="1848"
     inkscape:window-height="1016"
     inkscape:window-x="72"
     inkscape:window-y="27"
     inkscape:window-maximized="1"
     inkscape:snap-global="false" />
  <metadata
     id="metadata5">
    <rdf:RDF>
      <cc:Work
         rdf:about="">
        <dc:format>image/svg+xml</dc:format>
        <dc:type
           rdf:resource="http://purl.org/dc/dcmitype/StillImage" />
        <dc:title></dc:title>
      </cc:Work>
    </rdf:RDF>
  </metadata>
  <g
     inkscape:label="Calque 1"
     inkscape:groupmode="layer"
     id="layer1">
    <path
       style="fill:none;stroke:#000000;stroke-width:0.5;stroke-linecap:butt;stroke-linejoin:miter;stroke-miterlimit:4;stroke-dasharray:none;stroke-opacity:1;marker-start:url(#Arrow2Lstart);marker-end:url(#Arrow2Lend)"
       d="M 26.726951,77.299076 V 172.44703 H 172.12158"
       id="path815"
       inkscape:connector-curvature="0" />
    <path
       inkscape:connector-curvature="0"
       id="path1175"
       d="m 46.726951,171.8801 v -4.78002 h 9.735417 v 4.77816"
       style="fill:none;stroke:#000000;stroke-width:0.26458335px;stroke-linecap:butt;stroke-linejoin:miter;stroke-opacity:1" />
    <path
       style="fill:none;stroke:#000000;stroke-width:0.26458335px;stroke-linecap:butt;stroke-linejoin:miter;stroke-opacity:1"
       d="m 56.726951,172.00226 v -15.24592 h 9.735417 v 15.23997"
       id="path1177"
       inkscape:connector-curvature="0" />
    <path
       inkscape:connector-curvature="0"
       id="path1179"
       d="m 66.726951,172.24211 v -35.79714 h 9.735417 v 35.78316"
       style="fill:none;stroke:#000000;stroke-width:0.26458335px;stroke-linecap:butt;stroke-linejoin:miter;stroke-opacity:1" />
    <path
       style="fill:none;stroke:#000000;stroke-width:0.26458335px;stroke-linecap:butt;stroke-linejoin:miter;stroke-opacity:1"
       d="m 76.726951,172.57303 v -64.15022 h 9.735417 v 64.12516"
       id="path1181"
       inkscape:connector-curvature="0" />
    <path
       inkscape:connector-curvature="0"
       id="path1183"
       d="M 86.726951,172.75511 V 93.001187 h 9.735417 v 79.722773"
       style="fill:none;stroke:#000000;stroke-width:0.26458335px;stroke-linecap:butt;stroke-linejoin:miter;stroke-opacity:1" />
    <path
       style="fill:none;stroke:#000000;stroke-width:0.26458338px;stroke-linecap:butt;stroke-linejoin:miter;stroke-opacity:1"
       d="m 96.726951,172.56193 v -63.19877 h 9.735419 v 63.17409"
       id="path1185"
       inkscape:connector-curvature="0" />
    <path
       inkscape:connector-curvature="0"
       id="path1187"
       d="m 106.72695,172.24211 v -35.79714 h 9.73542 v 35.78316"
       style="fill:none;stroke:#000000;stroke-width:0.26458335px;stroke-linecap:butt;stroke-linejoin:miter;stroke-opacity:1" />
    <path
       style="fill:none;stroke:#000000;stroke-width:0.26458335px;stroke-linecap:butt;stroke-linejoin:miter;stroke-opacity:1"
       d="m 116.72695,171.91786 v -8.01494 h 9.73542 v 8.01181"
       id="path1189"
       inkscape:connector-curvature="0" />
    <path
       inkscape:connector-curvature="0"
       id="path1191"
       d="m 126.72695,171.84679 v -1.92569 h 9.73542 v 1.92493"
       style="fill:none;stroke:#000000;stroke-width:0.26458335px;stroke-linecap:butt;stroke-linejoin:miter;stroke-opacity:1" />
    <path
       style="fill:none;stroke:#ff0000;stroke-width:0.69618329;stroke-linecap:butt;stroke-linejoin:miter;stroke-opacity:1;stroke-miterlimit:4;stroke-dasharray:2.78473316,2.78473316;stroke-dashoffset:0"
       d="m 37.419642,172.07887 c 40.562686,0.65304 46.696166,-121.707467 66.712798,-53.86161 5.6775,19.24374 16.66514,54.26995 32.32993,53.62877"
       id="path1210"
       inkscape:connector-curvature="0"
       inkscape:path-effect="#path-effect1212"
       inkscape:original-d="m 37.419642,172.07887 c 3.12751,0.0487 6.452211,0.17568 9.07143,-1.13393 0.25709,-0.12855 0.722416,0.0335 0.944938,-0.18899 0.507598,-0.5076 2.093839,-1.77387 2.834823,-2.26786 0.349678,-0.23312 1.190823,-0.41657 1.322916,-0.94494 0.439161,-1.75665 1.263542,-3.09405 2.078869,-4.7247 0.03484,-0.0697 2.203349,-1.72088 2.456846,-1.88988 0.642425,-0.42828 0.681633,-1.46236 1.322917,-1.88988 0.566962,-0.37798 0.188987,0.18899 0.566962,0 0.17462,-0.0873 2.047788,-2.91937 2.267858,-3.2128 0.542131,-0.72284 1.090522,-1.27951 1.700892,-1.88988 0.584838,-0.58483 0.73773,-1.87166 1.322917,-2.45685 0.407358,-0.40735 0.848511,-0.56309 1.13393,-1.13392 1.005385,-2.01077 1.093436,-4.45473 2.078868,-6.4256 0.295037,-0.59007 -0.159255,-1.74549 0.18899,-2.26786 0.885293,-1.32794 0.436004,-2.44194 0.94494,-3.96875 0.254056,-0.76216 0.566418,-1.50972 0.755952,-2.26785 0.18582,-0.74328 0.290737,-2.84934 0.566965,-3.40179 1.533716,-3.06743 1.73745,-6.85841 3.590772,-9.63839 0.181615,-0.27242 0.03032,-1.00558 0.188989,-1.32292 0.507894,-1.01579 0.746733,-2.06965 1.511906,-2.83482 0.08936,-0.0894 1.09457,-3.28372 1.322916,-3.96875 0.14174,-0.42522 -0.283482,-0.66146 0,-1.13393 0.19276,-0.32126 0.847371,-0.13713 1.133928,-0.56696 0.602562,-0.90385 0.447968,-2.40784 0.944941,-3.40179 0.233243,-0.46648 0.762505,-0.77561 0.94494,-1.32292 0.22379,-0.67136 0.678744,-3.89154 0.944941,-4.15773 0.230182,-0.23019 0.422238,-0.0885 0.566963,-0.37798 0.251534,-0.50306 0.313108,-2.13812 0.755954,-3.02381 1.333018,-2.666037 3.067762,-2.47882 5.291666,-3.590772 0.468575,-0.234288 1.219526,0.05169 1.700893,-0.188989 0.915823,-0.457912 2.001187,-1.739733 3.212796,-1.133927 2.083316,1.041656 4.350268,1.13924 5.858631,3.401785 0.477282,0.715922 1.057344,4.837103 1.13393,4.913693 1.616549,1.61655 1.019591,2.79514 1.889879,4.53571 0.68657,1.37313 0.05282,-0.10975 0.75595,0.94494 0.48694,0.7304 0.90768,2.58373 1.51191,3.59077 0.94396,1.57328 1.04099,3.78288 1.88988,5.48066 0.6541,1.3082 0.44845,3.16476 1.13393,4.53572 0.49572,0.99144 0.96149,1.56157 1.32291,2.64583 0.24501,0.735 0.21992,2.1098 0.75596,2.64583 0.38908,0.38908 0.74216,0.3366 0.94494,0.94494 0.20282,0.60848 -0.0775,1.73488 0.18899,2.26786 0.32963,0.65927 0.50076,2.45203 0.75595,2.83482 1.17386,1.7608 1.29538,4.02008 1.70089,6.04762 0.0618,0.30886 0.55919,0.321 0.75595,0.56696 0.72065,0.90082 0.65597,2.82385 1.13393,3.77976 0.21653,0.43306 0.70658,0.65721 0.94494,1.13393 0.37998,0.75996 0.10853,1.95819 0.56697,2.64584 0.55986,0.8398 1.00721,1.54086 1.32291,2.64583 0.45484,1.59192 2.34815,3.94033 3.2128,5.66964 0.22188,0.44377 -0.007,1.11949 0.18899,1.51191 0.54408,1.08815 1.37372,1.99149 1.88988,3.02381 0.25551,0.51101 0.28283,1.32161 0.56696,1.88988 0.18992,0.37983 0.61889,0.40393 0.94494,0.56696 1.51143,0.75571 2.21001,2.67026 3.59078,3.59078 1.31765,0.87843 2.60841,1.3987 3.96875,2.07886 0.19229,0.0961 0.79511,-0.14982 0.94494,0 1.36282,1.36283 2.5553,0.5217 3.77976,1.13393 0.48817,0.24409 0.98683,0.58093 1.5119,0.75596 0.51936,0.17312 1.3365,0.18898 1.88989,0.18898 0.44545,0 1.76527,0.13662 1.32291,0.18899 -1.00277,0.11874 -2.00723,0.22275 -3.01084,0.33413"
       transform="matrix(0.95991387,0,0,1.053214,1.5008179,-9.163003)" />
    <g
       id="g1312"
       transform="matrix(0.5,0,0,0.49999999,-50.327417,24.367633)"
       style="stroke-width:2">
      <g
         word-spacing="normal"
         letter-spacing="normal"
         font-size-adjust="none"
         font-stretch="normal"
         font-weight="normal"
         font-variant="normal"
         font-style="normal"
         stroke-miterlimit="10.433"
         xml:space="preserve"
         transform="matrix(0.3,0,0,-0.3,-52.5,222.75)"
         id="content"
         style="font-style:normal;font-variant:normal;font-weight:normal;font-stretch:normal;letter-spacing:normal;word-spacing:normal;text-anchor:start;fill:none;fill-opacity:1;fill-rule:evenodd;stroke:#000000;stroke-width:4;stroke-linecap:butt;stroke-linejoin:miter;stroke-miterlimit:10.43299961;stroke-dasharray:none;stroke-dashoffset:0;stroke-opacity:1"><path
           id="path1271"
           d="m 467.08,439.57 -0.04,0.06 -0.04,0.05 -0.04,0.05 -0.03,0.05 -0.04,0.04 -0.03,0.04 -0.03,0.04 -0.03,0.03 -0.03,0.04 -0.03,0.03 -0.03,0.02 -0.04,0.03 -0.03,0.02 -0.03,0.02 -0.03,0.02 -0.04,0.02 -0.03,0.02 -0.04,0.01 -0.04,0.01 -0.04,0.01 -0.05,0.01 -0.04,0.01 -0.05,0.01 h -0.06 l -0.05,0.01 h -0.06 -0.07 l -0.06,0.01 h -0.08 -0.03 -0.04 -0.04 -0.04 -0.05 -0.04 -8.47 v -1.55 h 1.45 c 0.75,0 1.74,-0.04 2.49,-0.09 1.14,-0.16 1.2,-0.2 1.2,-1.16 v -26 c 0,-1.34 0,-3.68 -5.14,-3.68 v -1.55 c 1.75,0.05 4.19,0.16 5.83,0.16 1.65,0 4.09,-0.11 5.83,-0.16 v 1.55 c -5.13,0 -5.13,2.34 -5.13,3.68 v 25.91 c 0.25,-0.25 0.3,-0.3 0.5,-0.59 l 20.33,-29.91 c 0.44,-0.59 0.5,-0.64 0.84,-0.64 0.71,0 0.71,0.34 0.71,1.3 V 435 c 0,1.34 0,3.68 5.12,3.68 v 1.55 c -1.75,-0.05 -4.19,-0.16 -5.83,-0.16 -1.64,0 -4.09,0.11 -5.82,0.16 v -1.55 c 5.12,0 5.12,-2.34 5.12,-3.68 v -21.29 z"
           inkscape:connector-curvature="0"
           style="fill:#000000;stroke-width:0" /><path
           id="path1273"
           d="m 516.3,416.86 -0.01,0.59 -0.04,0.59 -0.07,0.58 -0.1,0.57 -0.13,0.56 -0.14,0.55 -0.18,0.54 -0.2,0.53 -0.22,0.51 -0.25,0.5 -0.26,0.49 -0.29,0.47 -0.31,0.46 -0.33,0.44 -0.35,0.43 -0.36,0.4 -0.39,0.39 -0.4,0.37 -0.41,0.35 -0.44,0.32 -0.44,0.31 -0.46,0.28 -0.48,0.26 -0.49,0.24 -0.49,0.21 -0.51,0.18 -0.53,0.16 -0.53,0.13 -0.54,0.11 -0.54,0.07 -0.56,0.05 -0.56,0.01 -0.05,-1.09 c 2.19,0 4.33,-1.1 5.63,-3.24 1.29,-2.14 1.29,-5.03 1.29,-6.92 0,-1.8 0,-4.48 -1.09,-6.67 -1.09,-2.25 -3.28,-3.69 -5.78,-3.69 v 0 c -2.14,0 -4.33,1.05 -5.67,3.33 -1.25,2.2 -1.25,5.23 -1.25,7.03 0,1.94 0,4.63 1.18,6.83 1.36,2.28 3.69,3.33 5.69,3.33 l 0.05,1.09 c -6.22,0 -11.06,-5.42 -11.06,-11.65 0,-6.43 5.18,-11.21 11.01,-11.21 6.03,0 11.06,4.88 11.06,11.21 z"
           inkscape:connector-curvature="0"
           style="fill:#000000;stroke-width:0" /><path
           id="path1275"
           d="m 523.28,423.34 v -13.36 c 0,-2.23 -0.55,-2.23 -3.89,-2.23 v -1.55 c 1.75,0.05 4.28,0.16 5.62,0.16 1.3,0 3.89,-0.11 5.58,-0.16 v 1.55 c -3.33,0 -3.87,0 -3.87,2.23 v 9.17 c 0,5.19 3.53,7.97 6.71,7.97 3.14,0 3.69,-2.69 3.69,-5.53 v -11.61 c 0,-2.23 -0.55,-2.23 -3.89,-2.23 v -1.55 c 1.75,0.05 4.3,0.16 5.64,0.16 1.3,0 3.88,-0.11 5.58,-0.16 v 1.55 c -3.35,0 -3.89,0 -3.89,2.23 v 9.17 c 0,5.19 3.54,7.97 6.73,7.97 3.14,0 3.69,-2.69 3.69,-5.53 v -11.61 c 0,-2.23 -0.55,-2.23 -3.89,-2.23 v -1.55 c 1.73,0.05 4.28,0.16 5.63,0.16 1.29,0 3.88,-0.11 5.57,-0.16 v 1.55 c -2.57,0 -3.82,0 -3.87,1.5 v 9.51 c 0,4.28 0,5.83 -1.55,7.61 -0.7,0.86 -2.34,1.84 -5.23,1.84 -4.19,0 -6.38,-2.98 -7.22,-4.87 -0.7,4.33 -4.39,4.87 -6.63,4.87 -3.64,0 -5.98,-2.14 -7.37,-5.21 v 5.21 l -7.03,-0.54 v -1.55 c 3.48,0 3.89,-0.34 3.89,-2.78 z"
           inkscape:connector-curvature="0"
           style="fill:#000000;stroke-width:0" /><path
           id="path1277"
           d="m 566.43,424.98 v 15.8 l -7.17,-0.55 v -1.55 c 3.49,0 3.89,-0.34 3.89,-2.79 V 406.2 h 1.25 c 0.05,0.05 0.44,0.75 1.78,3.09 0.75,-1.15 2.85,-3.64 6.54,-3.64 l -0.21,1.1 c -2.23,0 -4.03,1.2 -5.22,3.04 -0.7,1.05 -0.7,1.19 -0.7,2.08 v 0 10.27 c 0,0.95 0,1 0.55,1.79 1.93,2.8 4.68,3.19 5.87,3.19 2.25,0 4.05,-1.3 5.24,-3.19 1.29,-2.04 1.45,-4.87 1.45,-6.92 0,-1.84 -0.11,-4.83 -1.55,-7.08 -1.05,-1.54 -2.93,-3.18 -5.64,-3.18 l 0.21,-1.1 c 5.93,0 11.1,4.88 11.1,11.31 0,6.33 -4.87,11.25 -10.56,11.25 -3.87,0 -6.03,-2.34 -6.83,-3.23 z"
           inkscape:connector-curvature="0"
           style="fill:#000000;stroke-width:0" /><path
           id="path1279"
           d="m 593.9,422.75 v 5.46 l -6.92,-0.54 v -1.55 c 3.49,0 3.89,-0.34 3.89,-2.78 v -13.36 c 0,-2.23 -0.55,-2.23 -3.89,-2.23 v -1.55 c 1.95,0.05 4.28,0.16 5.69,0.16 1.98,0 4.33,0 6.33,-0.16 v 1.55 h -1.05 c -3.69,0 -3.8,0.54 -3.8,2.34 v 7.67 c 0,4.92 2.1,9.36 5.89,9.36 0.35,0 0.44,0 0.55,-0.05 -0.16,-0.04 -1.16,-0.64 -1.16,-1.93 0,-1.41 1.05,-2.14 2.16,-2.14 0.89,0 2.14,0.59 2.14,2.18 0,1.6 -1.55,3.03 -3.69,3.03 -3.64,0 -5.44,-3.32 -6.14,-5.46 z"
           inkscape:connector-curvature="0"
           style="fill:#000000;stroke-width:0" /><path
           id="path1281"
           d="m 610.68,417.71 0.05,1.05 c 0.29,7.42 4.48,8.66 6.18,8.66 5.13,0 5.63,-6.72 5.63,-8.66 h -11.81 l -0.05,-1.05 h 13.91 c 1.09,0 1.23,0 1.23,1.05 0,4.92 -2.69,9.75 -8.91,9.75 -5.78,0 -10.37,-5.12 -10.37,-11.36 0,-6.67 5.23,-11.5 10.97,-11.5 6.08,0 8.31,5.53 8.31,6.47 0,0.5 -0.39,0.61 -0.64,0.61 -0.45,0 -0.55,-0.3 -0.66,-0.7 -1.73,-5.13 -6.22,-5.13 -6.72,-5.13 -2.5,0 -4.48,1.49 -5.62,3.33 -1.5,2.39 -1.5,5.69 -1.5,7.48 z"
           inkscape:connector-curvature="0"
           style="fill:#000000;stroke-width:0" /><path
           id="path1283"
           d="m 662.85,408.93 v -3.28 l 7.31,0.55 v 1.55 c -3.48,0 -3.88,0.34 -3.88,2.78 v 30.25 l -7.17,-0.55 v -1.55 c 3.49,0 3.88,-0.34 3.88,-2.79 v -10.75 c -1.44,1.78 -3.58,3.07 -6.28,3.07 l 0.2,-1.09 c 1.75,0 3.84,-0.75 5.39,-2.98 0.55,-0.85 0.55,-0.96 0.55,-1.85 v 0 -10.22 c 0,-0.89 0,-1 -0.55,-1.84 -1.5,-2.39 -3.75,-3.48 -5.89,-3.48 -2.23,0 -4.03,1.29 -5.22,3.18 -1.29,2.05 -1.45,4.89 -1.45,6.93 0,1.84 0.09,4.84 1.54,7.07 1.05,1.55 2.94,3.19 5.63,3.19 l -0.2,1.09 c -5.88,0 -11.11,-4.87 -11.11,-11.29 0,-6.33 4.89,-11.27 10.56,-11.27 3.19,0 5.44,1.69 6.69,3.28 z"
           inkscape:connector-curvature="0"
           style="fill:#000000;stroke-width:0" /><path
           id="path1285"
           d="m 681.9,435.54 -0.01,0.28 -0.01,0.27 -0.02,0.27 -0.02,0.26 -0.03,0.26 -0.04,0.25 -0.05,0.25 -0.05,0.24 -0.05,0.23 -0.07,0.23 -0.07,0.22 -0.08,0.21 -0.08,0.2 -0.09,0.2 -0.1,0.19 -0.1,0.18 -0.11,0.17 -0.12,0.16 -0.12,0.15 -0.13,0.15 -0.13,0.13 -0.15,0.12 -0.14,0.12 -0.15,0.1 -0.16,0.09 -0.17,0.08 -0.17,0.07 -0.17,0.05 -0.18,0.05 -0.19,0.03 -0.19,0.02 -0.2,0.01 c -1.73,0 -2.64,-1.35 -2.64,-2.64 0,-1.3 0.84,-2.64 2.64,-2.64 1,0 1.7,0.5 2,0.79 0.05,0.1 0.1,0.14 0.14,0.14 0.11,0 0.11,-0.68 0.11,-0.89 0,-1.59 -0.36,-5.18 -3.5,-8.26 -0.59,-0.6 -0.59,-0.71 -0.59,-0.85 0,-0.36 0.25,-0.56 0.5,-0.56 0.54,0 4.69,3.8 4.69,9.67 z"
           inkscape:connector-curvature="0"
           style="fill:#000000;stroke-width:0" /><path
           id="path1287"
           d="m 702.67,437.68 0.04,0.04 0.04,0.03 0.08,0.07 0.08,0.08 0.08,0.08 0.07,0.08 0.04,0.05 0.03,0.04 0.03,0.05 0.04,0.04 0.03,0.05 0.03,0.05 0.03,0.05 0.02,0.05 0.03,0.05 0.02,0.05 0.03,0.05 0.02,0.05 0.02,0.05 0.02,0.06 0.01,0.05 0.02,0.05 0.01,0.06 0.01,0.05 0.01,0.06 v 0.05 0.06 l 0.01,0.05 c 0,0.89 -0.9,1.8 -1.8,1.8 -0.75,0 -1.3,-0.55 -1.5,-0.86 l -5.97,-7.61 0.84,-0.9 z"
           inkscape:connector-curvature="0"
           style="fill:#000000;stroke-width:0" /><path
           id="path1289"
           d="m 690.95,417.71 0.05,1.05 c 0.3,7.42 4.48,8.66 6.19,8.66 5.12,0 5.62,-6.72 5.62,-8.66 H 691 l -0.05,-1.05 h 13.91 c 1.09,0 1.23,0 1.23,1.05 0,4.92 -2.68,9.75 -8.9,9.75 -5.78,0 -10.38,-5.12 -10.38,-11.36 0,-6.67 5.24,-11.5 10.97,-11.5 6.08,0 8.31,5.53 8.31,6.47 0,0.5 -0.39,0.61 -0.64,0.61 -0.45,0 -0.54,-0.3 -0.65,-0.7 -1.74,-5.13 -6.22,-5.13 -6.72,-5.13 -2.5,0 -4.49,1.49 -5.63,3.33 -1.5,2.39 -1.5,5.69 -1.5,7.48 z"
           inkscape:connector-curvature="0"
           style="fill:#000000;stroke-width:0" /><path
           id="path1291"
           d="m 728.22,422.79 0.04,0.11 0.05,0.12 0.05,0.12 0.05,0.12 0.06,0.13 0.06,0.13 0.06,0.13 0.07,0.14 0.08,0.13 0.08,0.14 0.09,0.14 0.09,0.14 0.1,0.13 0.11,0.14 0.12,0.13 0.12,0.13 0.13,0.12 0.14,0.13 0.15,0.11 0.16,0.12 0.17,0.11 0.18,0.1 0.19,0.09 0.2,0.09 0.21,0.08 0.22,0.07 0.24,0.07 0.25,0.05 0.26,0.05 0.13,0.01 0.14,0.02 0.15,0.01 0.14,0.01 0.15,0.01 h 0.15 v 1.55 c -1.15,-0.1 -2.59,-0.14 -3.73,-0.14 -1.2,0 -3.5,0.09 -4.35,0.14 v -1.55 c 1.85,-0.05 2.39,-1.19 2.39,-2.14 0,-0.44 -0.09,-0.64 -0.29,-1.19 l -5.08,-12.7 -5.58,13.89 c -0.29,0.66 -0.29,0.75 -0.29,0.86 0,1.28 1.93,1.28 2.82,1.28 v 1.55 c -1.48,-0.05 -4.28,-0.14 -5.42,-0.14 -1.34,0 -3.34,0.04 -4.83,0.14 v -1.55 c 3.13,0 3.33,-0.3 3.99,-1.84 l 7.17,-17.67 c 0.3,-0.71 0.39,-0.96 1.05,-0.96 0.64,0 0.84,0.46 1.04,0.96 z"
           inkscape:connector-curvature="0"
           style="fill:#000000;stroke-width:0" /><path
           id="path1293"
           d="m 746.04,431.61 0.89,0.84 -5.97,7.67 c -0.16,0.2 -0.7,0.86 -1.5,0.86 -0.89,0 -1.8,-0.91 -1.8,-1.8 0,-0.59 0.35,-1.09 0.85,-1.5 z"
           inkscape:connector-curvature="0"
           style="fill:#000000;stroke-width:0" /><path
           id="path1295"
           d="m 739.3,417.71 0.05,1.05 c 0.3,7.42 4.49,8.66 6.19,8.66 5.12,0 5.62,-6.72 5.62,-8.66 h -11.81 l -0.05,-1.05 h 13.91 c 1.09,0 1.24,0 1.24,1.05 0,4.92 -2.69,9.75 -8.91,9.75 -5.78,0 -10.38,-5.12 -10.38,-11.36 0,-6.67 5.24,-11.5 10.97,-11.5 6.08,0 8.32,5.53 8.32,6.47 0,0.5 -0.4,0.61 -0.65,0.61 -0.45,0 -0.54,-0.3 -0.65,-0.7 -1.74,-5.13 -6.22,-5.13 -6.72,-5.13 -2.5,0 -4.48,1.49 -5.63,3.33 -1.5,2.39 -1.5,5.69 -1.5,7.48 z"
           inkscape:connector-curvature="0"
           style="fill:#000000;stroke-width:0" /><path
           id="path1297"
           d="m 761.34,423.34 v -13.36 c 0,-2.23 -0.55,-2.23 -3.89,-2.23 v -1.55 c 1.75,0.05 4.28,0.16 5.62,0.16 1.3,0 3.89,-0.11 5.58,-0.16 v 1.55 c -3.33,0 -3.88,0 -3.88,2.23 v 9.17 c 0,5.19 3.53,7.97 6.72,7.97 3.14,0 3.69,-2.69 3.69,-5.53 v -11.61 c 0,-2.23 -0.55,-2.23 -3.89,-2.23 v -1.55 c 1.75,0.05 4.3,0.16 5.64,0.16 1.3,0 3.87,-0.11 5.58,-0.16 v 1.55 c -2.6,0 -3.85,0 -3.89,1.5 v 9.51 c 0,4.28 0,5.83 -1.55,7.61 -0.69,0.86 -2.34,1.84 -5.22,1.84 -3.64,0 -5.98,-2.14 -7.37,-5.21 v 5.21 l -7.03,-0.54 v -1.55 c 3.48,0 3.89,-0.34 3.89,-2.78 z"
           inkscape:connector-curvature="0"
           style="fill:#000000;stroke-width:0" /><path
           id="path1299"
           d="m 789.1,417.71 0.05,1.05 c 0.3,7.42 4.48,8.66 6.19,8.66 5.12,0 5.62,-6.72 5.62,-8.66 h -11.81 l -0.05,-1.05 h 13.91 c 1.09,0 1.23,0 1.23,1.05 0,4.92 -2.69,9.75 -8.9,9.75 -5.79,0 -10.38,-5.12 -10.38,-11.36 0,-6.67 5.24,-11.5 10.97,-11.5 6.08,0 8.31,5.53 8.31,6.47 0,0.5 -0.39,0.61 -0.64,0.61 -0.45,0 -0.55,-0.3 -0.65,-0.7 -1.74,-5.13 -6.22,-5.13 -6.72,-5.13 -2.5,0 -4.49,1.49 -5.63,3.33 -1.5,2.39 -1.5,5.69 -1.5,7.48 z"
           inkscape:connector-curvature="0"
           style="fill:#000000;stroke-width:0" /><path
           id="path1301"
           d="m 811.13,423.34 v -13.36 c 0,-2.23 -0.54,-2.23 -3.89,-2.23 v -1.55 c 1.75,0.05 4.28,0.16 5.63,0.16 1.29,0 3.89,-0.11 5.58,-0.16 v 1.55 c -3.33,0 -3.88,0 -3.88,2.23 v 9.17 c 0,5.19 3.53,7.97 6.72,7.97 3.14,0 3.69,-2.69 3.69,-5.53 v -11.61 c 0,-2.23 -0.55,-2.23 -3.89,-2.23 v -1.55 c 1.75,0.05 4.29,0.16 5.64,0.16 1.29,0 3.87,-0.11 5.57,-0.16 v 1.55 c -3.34,0 -3.89,0 -3.89,2.23 v 9.17 c 0,5.19 3.55,7.97 6.74,7.97 3.14,0 3.69,-2.69 3.69,-5.53 v -11.61 c 0,-2.23 -0.55,-2.23 -3.89,-2.23 v -1.55 c 1.73,0.05 4.28,0.16 5.62,0.16 1.3,0 3.89,-0.11 5.58,-0.16 v 1.55 c -2.58,0 -3.83,0 -3.88,1.5 v 9.51 c 0,4.28 0,5.83 -1.54,7.61 -0.71,0.86 -2.35,1.84 -5.24,1.84 -4.19,0 -6.37,-2.98 -7.22,-4.87 -0.7,4.33 -4.39,4.87 -6.62,4.87 -3.64,0 -5.99,-2.14 -7.38,-5.21 v 5.21 l -7.03,-0.54 v -1.55 c 3.49,0 3.89,-0.34 3.89,-2.78 z"
           inkscape:connector-curvature="0"
           style="fill:#000000;stroke-width:0" /><path
           id="path1303"
           d="m 852.7,417.71 0.05,1.05 c 0.29,7.42 4.48,8.66 6.18,8.66 5.13,0 5.63,-6.72 5.63,-8.66 h -11.81 l -0.05,-1.05 h 13.9 c 1.1,0 1.24,0 1.24,1.05 0,4.92 -2.69,9.75 -8.91,9.75 -5.78,0 -10.37,-5.12 -10.37,-11.36 0,-6.67 5.23,-11.5 10.97,-11.5 6.07,0 8.31,5.53 8.31,6.47 0,0.5 -0.39,0.61 -0.64,0.61 -0.45,0 -0.55,-0.3 -0.66,-0.7 -1.73,-5.13 -6.22,-5.13 -6.72,-5.13 -2.5,0 -4.48,1.49 -5.62,3.33 -1.5,2.39 -1.5,5.69 -1.5,7.48 z"
           inkscape:connector-curvature="0"
           style="fill:#000000;stroke-width:0" /><path
           id="path1305"
           d="m 874.73,423.34 v -13.36 c 0,-2.23 -0.55,-2.23 -3.89,-2.23 v -1.55 c 1.75,0.05 4.28,0.16 5.63,0.16 1.29,0 3.88,-0.11 5.57,-0.16 v 1.55 c -3.32,0 -3.87,0 -3.87,2.23 v 9.17 c 0,5.19 3.53,7.97 6.72,7.97 3.14,0 3.68,-2.69 3.68,-5.53 v -11.61 c 0,-2.23 -0.54,-2.23 -3.89,-2.23 v -1.55 c 1.75,0.05 4.3,0.16 5.64,0.16 1.3,0 3.88,-0.11 5.58,-0.16 v 1.55 c -2.59,0 -3.84,0 -3.89,1.5 v 9.51 c 0,4.28 0,5.83 -1.54,7.61 -0.69,0.86 -2.35,1.84 -5.22,1.84 -3.65,0 -5.99,-2.14 -7.38,-5.21 v 5.21 l -7.03,-0.54 v -1.55 c 3.48,0 3.89,-0.34 3.89,-2.78 z"
           inkscape:connector-curvature="0"
           style="fill:#000000;stroke-width:0" /><path
           id="path1307"
           d="m 904.15,426.12 h 7.12 v 1.55 h -7.12 v 9.17 h -1.25 c -0.05,-4.08 -1.55,-9.42 -6.42,-9.61 v -1.11 h 4.23 v -13.75 c 0,-6.12 4.63,-6.72 6.42,-6.72 3.53,0 4.94,3.53 4.94,6.72 v 2.84 h -1.25 v -2.73 c 0,-3.69 -1.5,-5.58 -3.34,-5.58 -3.33,0 -3.33,4.53 -3.33,5.38 z"
           inkscape:connector-curvature="0"
           style="fill:#000000;stroke-width:0" /><path
           id="path1309"
           d="m 925.2,415.87 0.11,-0.02 0.13,-0.02 0.14,-0.03 0.16,-0.04 0.16,-0.04 0.18,-0.04 0.19,-0.05 0.2,-0.06 0.21,-0.06 0.21,-0.07 0.21,-0.08 0.22,-0.08 0.22,-0.1 0.22,-0.1 0.22,-0.11 0.22,-0.12 0.22,-0.14 0.21,-0.14 0.21,-0.15 0.19,-0.16 0.19,-0.18 0.18,-0.19 0.17,-0.2 0.16,-0.21 0.14,-0.22 0.07,-0.12 0.06,-0.12 0.06,-0.13 0.05,-0.12 0.05,-0.14 0.05,-0.13 0.04,-0.14 0.03,-0.14 0.04,-0.15 0.02,-0.15 0.02,-0.16 0.02,-0.15 v -0.17 l 0.01,-0.16 c 0,-2.53 -1.75,-4.53 -5.63,-4.53 -4.19,0 -5.98,2.84 -6.94,7.07 -0.14,0.64 -0.18,0.85 -0.68,0.85 -0.66,0 -0.66,-0.35 -0.66,-1.25 v -6.58 c 0,-0.84 0,-1.19 0.55,-1.19 0.25,0 0.29,0.05 1.25,1 0.09,0.1 0.09,0.19 1,1.14 2.19,-2.09 4.44,-2.14 5.48,-2.14 5.72,0 8.02,3.35 8.02,6.92 0,2.64 -1.5,4.14 -2.1,4.74 -1.64,1.59 -3.59,2 -5.68,2.39 -2.78,0.55 -6.13,1.2 -6.13,4.09 0,1.74 1.3,3.78 5.58,3.78 5.48,0 5.73,-4.48 5.83,-6.03 0.06,-0.45 0.5,-0.45 0.61,-0.45 0.64,0 0.64,0.25 0.64,1.2 v 5.03 c 0,0.85 0,1.19 -0.55,1.19 -0.25,0 -0.34,0 -1,-0.59 -0.14,-0.21 -0.64,-0.64 -0.84,-0.8 -1.89,1.39 -3.94,1.39 -4.69,1.39 -6.08,0 -7.97,-3.33 -7.97,-6.12 0,-1.74 0.8,-3.14 2.14,-4.24 1.6,-1.29 3,-1.59 6.58,-2.28 z"
           inkscape:connector-curvature="0"
           style="fill:#000000;stroke-width:0" /></g>    </g>
    <g
       id="g1411"
       transform="matrix(0.5,0,0,0.49999999,132.11529,123.89147)"
       style="stroke-width:2">
      <g
         word-spacing="normal"
         letter-spacing="normal"
         font-size-adjust="none"
         font-stretch="normal"
         font-weight="normal"
         font-variant="normal"
         font-style="normal"
         stroke-miterlimit="10.433"
         xml:space="preserve"
         transform="matrix(0.3,0,0,-0.3,-52.5,222.75)"
         id="g1409"
         style="font-style:normal;font-variant:normal;font-weight:normal;font-stretch:normal;letter-spacing:normal;word-spacing:normal;text-anchor:start;fill:none;fill-opacity:1;fill-rule:evenodd;stroke:#000000;stroke-width:2;stroke-linecap:butt;stroke-linejoin:miter;stroke-miterlimit:10.43299961;stroke-dasharray:none;stroke-dashoffset:0;stroke-opacity:1"><path
           id="path1381"
           d="m 486.46,435.34 0.06,0.17 0.08,0.17 0.07,0.17 0.08,0.16 0.09,0.16 0.09,0.16 0.1,0.15 0.1,0.15 0.1,0.15 0.12,0.14 0.12,0.14 0.12,0.14 0.14,0.13 0.14,0.12 0.14,0.12 0.16,0.12 0.16,0.11 0.17,0.1 0.18,0.1 0.19,0.09 0.2,0.09 0.2,0.08 0.22,0.07 0.22,0.07 0.24,0.06 0.24,0.06 0.26,0.04 0.27,0.04 0.27,0.03 0.29,0.03 0.3,0.02 h 0.31 v 1.55 c -1.54,-0.11 -3.54,-0.16 -4.84,-0.16 -1.48,0 -4.37,0.11 -5.67,0.16 v -1.55 c 2.59,-0.04 3.64,-1.34 3.64,-2.48 0,-0.41 -0.16,-0.7 -0.25,-1 l -9.13,-24.02 -9.51,25.16 c -0.3,0.7 -0.3,0.8 -0.3,0.89 0,1.45 2.85,1.45 4.08,1.45 v 1.55 c -1.78,-0.16 -5.22,-0.16 -7.11,-0.16 -2.41,0 -4.55,0.11 -6.33,0.16 v -1.55 c 3.24,0 4.17,0 4.88,-1.89 l 11.56,-30.59 c 0.34,-0.95 0.59,-1.09 1.25,-1.09 0.84,0 0.94,0.25 1.19,0.93 z"
           inkscape:connector-curvature="0"
           style="fill:#000000;stroke-width:0" /><path
           id="path1383"
           d="m 505.23,409.98 0.02,-0.19 0.03,-0.18 0.04,-0.19 0.04,-0.18 0.05,-0.19 0.05,-0.18 0.07,-0.18 0.06,-0.18 0.08,-0.18 0.08,-0.17 0.09,-0.18 0.09,-0.16 0.1,-0.16 0.11,-0.16 0.11,-0.16 0.12,-0.14 0.13,-0.14 0.13,-0.14 0.14,-0.13 0.14,-0.12 0.15,-0.12 0.16,-0.1 0.16,-0.1 0.17,-0.09 0.18,-0.08 0.18,-0.07 0.19,-0.06 0.19,-0.05 0.2,-0.04 0.2,-0.03 0.21,-0.02 0.22,-0.01 c 1.03,0 4.08,0.71 4.08,4.74 v 2.78 h -1.25 v -2.78 c 0,-2.89 -1.24,-3.19 -1.8,-3.19 -1.64,0 -1.84,2.23 -1.84,2.48 v 9.97 c 0,2.1 0,4.03 -1.78,5.88 -1.96,1.93 -4.44,2.73 -6.83,2.73 -4.09,0 -7.53,-2.33 -7.53,-5.62 0,-1.49 1,-2.35 2.29,-2.35 1.4,0 2.3,1 2.3,2.3 0,0.59 -0.25,2.23 -2.55,2.3 1.35,1.73 3.79,2.28 5.38,2.28 2.45,0 5.28,-1.94 5.28,-6.38 v -1.84 -1.05 -4.98 c 0,-4.74 -3.58,-6.42 -5.83,-6.42 -2.43,0 -4.48,1.75 -4.48,4.23 0,2.73 2.09,6.88 10.31,7.17 v 0 1.05 c -2.53,-0.14 -6.01,-0.3 -9.16,-1.8 -3.73,-1.69 -4.98,-4.28 -4.98,-6.47 0,-4.03 4.83,-5.28 7.97,-5.28 3.3,0 5.58,1.99 6.53,4.33 z"
           inkscape:connector-curvature="0"
           style="fill:#000000;stroke-width:0" /><path
           id="path1385"
           d="m 522.41,440.78 -7.18,-0.55 v -1.55 c 3.49,0 3.89,-0.34 3.89,-2.79 v -25.91 c 0,-2.23 -0.54,-2.23 -3.89,-2.23 v -1.55 c 1.65,0.05 4.29,0.16 5.54,0.16 1.25,0 3.68,-0.11 5.53,-0.16 v 1.55 c -3.35,0 -3.89,0 -3.89,2.23 z"
           inkscape:connector-curvature="0"
           style="fill:#000000;stroke-width:0" /><path
           id="path1387"
           d="m 532.92,417.71 0.05,1.05 c 0.3,7.42 4.48,8.66 6.19,8.66 5.12,0 5.62,-6.72 5.62,-8.66 h -11.81 l -0.05,-1.05 h 13.91 c 1.09,0 1.23,0 1.23,1.05 0,4.92 -2.68,9.75 -8.9,9.75 -5.78,0 -10.38,-5.12 -10.38,-11.36 0,-6.67 5.24,-11.5 10.97,-11.5 6.08,0 8.31,5.53 8.31,6.47 0,0.5 -0.39,0.61 -0.64,0.61 -0.45,0 -0.54,-0.3 -0.65,-0.7 -1.74,-5.13 -6.22,-5.13 -6.72,-5.13 -2.5,0 -4.49,1.49 -5.63,3.33 -1.5,2.39 -1.5,5.69 -1.5,7.48 z"
           inkscape:connector-curvature="0"
           style="fill:#000000;stroke-width:0" /><path
           id="path1389"
           d="m 568.95,410.14 v -4.49 l 7.17,0.55 v 1.55 c -3.48,0 -3.89,0.34 -3.89,2.78 v 17.68 l -7.32,-0.54 v -1.55 c 3.5,0 3.89,-0.34 3.89,-2.78 v -8.88 c 0,-4.32 -2.39,-7.71 -6.03,-7.71 -4.18,0 -4.38,2.34 -4.38,4.93 v 16.53 l -7.33,-0.54 v -1.55 c 3.89,0 3.89,-0.14 3.89,-4.58 v -7.47 c 0,-3.89 0,-8.42 7.57,-8.42 2.79,0 4.98,1.39 6.43,4.49 z"
           inkscape:connector-curvature="0"
           style="fill:#000000;stroke-width:0" /><path
           id="path1391"
           d="m 585.5,422.75 v 5.46 l -6.92,-0.54 v -1.55 c 3.48,0 3.89,-0.34 3.89,-2.78 v -13.36 c 0,-2.23 -0.55,-2.23 -3.89,-2.23 v -1.55 c 1.95,0.05 4.28,0.16 5.69,0.16 1.98,0 4.32,0 6.32,-0.16 v 1.55 h -1.04 c -3.69,0 -3.8,0.54 -3.8,2.34 v 7.67 c 0,4.92 2.09,9.36 5.89,9.36 0.34,0 0.44,0 0.55,-0.05 -0.16,-0.04 -1.16,-0.64 -1.16,-1.93 0,-1.41 1.05,-2.14 2.16,-2.14 0.89,0 2.14,0.59 2.14,2.18 0,1.6 -1.55,3.03 -3.69,3.03 -3.64,0 -5.44,-3.32 -6.14,-5.46 z"
           inkscape:connector-curvature="0"
           style="fill:#000000;stroke-width:0" /><path
           id="path1393"
           d="m 618.91,423.34 v -13.36 c 0,-2.23 -0.55,-2.23 -3.89,-2.23 v -1.55 c 1.75,0.05 4.28,0.16 5.63,0.16 1.29,0 3.88,-0.11 5.57,-0.16 v 1.55 c -3.32,0 -3.87,0 -3.87,2.23 v 9.17 c 0,5.19 3.53,7.97 6.72,7.97 3.14,0 3.68,-2.69 3.68,-5.53 v -11.61 c 0,-2.23 -0.54,-2.23 -3.89,-2.23 v -1.55 c 1.75,0.05 4.3,0.16 5.64,0.16 1.3,0 3.88,-0.11 5.58,-0.16 v 1.55 c -3.34,0 -3.89,0 -3.89,2.23 v 9.17 c 0,5.19 3.55,7.97 6.74,7.97 3.14,0 3.68,-2.69 3.68,-5.53 v -11.61 c 0,-2.23 -0.54,-2.23 -3.89,-2.23 v -1.55 c 1.74,0.05 4.28,0.16 5.63,0.16 1.3,0 3.89,-0.11 5.58,-0.16 v 1.55 c -2.58,0 -3.83,0 -3.88,1.5 v 9.51 c 0,4.28 0,5.83 -1.55,7.61 -0.7,0.86 -2.34,1.84 -5.23,1.84 -4.19,0 -6.37,-2.98 -7.22,-4.87 -0.7,4.33 -4.39,4.87 -6.62,4.87 -3.65,0 -5.99,-2.14 -7.38,-5.21 v 5.21 l -7.03,-0.54 v -1.55 c 3.48,0 3.89,-0.34 3.89,-2.78 z"
           inkscape:connector-curvature="0"
           style="fill:#000000;stroke-width:0" /><path
           id="path1395"
           d="m 660.48,417.71 0.04,1.05 c 0.3,7.42 4.49,8.66 6.19,8.66 5.13,0 5.63,-6.72 5.63,-8.66 h -11.82 l -0.04,-1.05 h 13.9 c 1.1,0 1.24,0 1.24,1.05 0,4.92 -2.69,9.75 -8.91,9.75 -5.78,0 -10.37,-5.12 -10.37,-11.36 0,-6.67 5.23,-11.5 10.96,-11.5 6.08,0 8.32,5.53 8.32,6.47 0,0.5 -0.39,0.61 -0.64,0.61 -0.46,0 -0.55,-0.3 -0.66,-0.7 -1.73,-5.13 -6.22,-5.13 -6.72,-5.13 -2.5,0 -4.48,1.49 -5.62,3.33 -1.5,2.39 -1.5,5.69 -1.5,7.48 z"
           inkscape:connector-curvature="0"
           style="fill:#000000;stroke-width:0" /><path
           id="path1397"
           d="m 687.38,415.87 0.11,-0.02 0.13,-0.02 0.14,-0.03 0.16,-0.04 0.17,-0.04 0.18,-0.04 0.19,-0.05 0.19,-0.06 0.21,-0.06 0.21,-0.07 0.22,-0.08 0.21,-0.08 0.23,-0.1 0.22,-0.1 0.22,-0.11 0.22,-0.12 0.21,-0.14 0.21,-0.14 0.21,-0.15 0.2,-0.16 0.19,-0.18 0.18,-0.19 0.17,-0.2 0.15,-0.21 0.15,-0.22 0.06,-0.12 0.07,-0.12 0.05,-0.13 0.06,-0.12 0.05,-0.14 0.04,-0.13 0.04,-0.14 0.04,-0.14 0.03,-0.15 0.02,-0.15 0.02,-0.16 0.02,-0.15 0.01,-0.17 v -0.16 c 0,-2.53 -1.75,-4.53 -5.62,-4.53 -4.19,0 -5.99,2.84 -6.94,7.07 -0.14,0.64 -0.19,0.85 -0.69,0.85 -0.66,0 -0.66,-0.35 -0.66,-1.25 v -6.58 c 0,-0.84 0,-1.19 0.55,-1.19 0.25,0 0.3,0.05 1.25,1 0.09,0.1 0.09,0.19 1,1.14 2.19,-2.09 4.44,-2.14 5.49,-2.14 5.71,0 8.01,3.35 8.01,6.92 0,2.64 -1.5,4.14 -2.09,4.74 -1.64,1.59 -3.6,2 -5.69,2.39 -2.78,0.55 -6.13,1.2 -6.13,4.09 0,1.74 1.3,3.78 5.58,3.78 5.49,0 5.74,-4.48 5.83,-6.03 0.06,-0.45 0.5,-0.45 0.61,-0.45 0.64,0 0.64,0.25 0.64,1.2 v 5.03 c 0,0.85 0,1.19 -0.55,1.19 -0.25,0 -0.34,0 -1,-0.59 -0.14,-0.21 -0.64,-0.64 -0.84,-0.8 -1.89,1.39 -3.94,1.39 -4.69,1.39 -6.08,0 -7.97,-3.33 -7.97,-6.12 0,-1.74 0.8,-3.14 2.14,-4.24 1.6,-1.29 3,-1.59 6.58,-2.28 z"
           inkscape:connector-curvature="0"
           style="fill:#000000;stroke-width:0" /><path
           id="path1399"
           d="m 716.19,410.14 v -4.49 l 7.17,0.55 v 1.55 c -3.48,0 -3.89,0.34 -3.89,2.78 v 17.68 l -7.33,-0.54 v -1.55 c 3.5,0 3.89,-0.34 3.89,-2.78 v -8.88 c 0,-4.32 -2.39,-7.71 -6.03,-7.71 -4.17,0 -4.38,2.34 -4.38,4.93 v 16.53 l -7.32,-0.54 v -1.55 c 3.89,0 3.89,-0.14 3.89,-4.58 v -7.47 c 0,-3.89 0,-8.42 7.56,-8.42 2.8,0 4.98,1.39 6.44,4.49 z"
           inkscape:connector-curvature="0"
           style="fill:#000000;stroke-width:0" /><path
           id="path1401"
           d="m 732.73,422.75 v 5.46 l -6.92,-0.54 v -1.55 c 3.49,0 3.89,-0.34 3.89,-2.78 v -13.36 c 0,-2.23 -0.54,-2.23 -3.89,-2.23 v -1.55 c 1.96,0.05 4.28,0.16 5.69,0.16 1.98,0 4.33,0 6.33,-0.16 v 1.55 h -1.05 c -3.69,0 -3.8,0.54 -3.8,2.34 v 7.67 c 0,4.92 2.1,9.36 5.9,9.36 0.34,0 0.43,0 0.54,-0.05 -0.15,-0.04 -1.15,-0.64 -1.15,-1.93 0,-1.41 1.04,-2.14 2.15,-2.14 0.89,0 2.14,0.59 2.14,2.18 0,1.6 -1.54,3.03 -3.68,3.03 -3.65,0 -5.44,-3.32 -6.15,-5.46 z"
           inkscape:connector-curvature="0"
           style="fill:#000000;stroke-width:0" /><path
           id="path1403"
           d="m 761.23,437.68 0.04,0.04 0.04,0.03 0.08,0.07 0.08,0.08 0.07,0.08 0.08,0.08 0.03,0.05 0.04,0.04 0.03,0.05 0.03,0.04 0.03,0.05 0.03,0.05 0.03,0.05 0.03,0.05 0.02,0.05 0.03,0.05 0.02,0.05 0.02,0.05 0.02,0.05 0.02,0.06 0.02,0.05 0.01,0.05 0.01,0.06 0.01,0.05 0.01,0.06 0.01,0.05 v 0.06 0.05 c 0,0.89 -0.89,1.8 -1.8,1.8 -0.75,0 -1.29,-0.55 -1.5,-0.86 l -5.97,-7.61 0.85,-0.9 z"
           inkscape:connector-curvature="0"
           style="fill:#000000;stroke-width:0" /><path
           id="path1405"
           d="m 749.51,417.71 0.04,1.05 c 0.3,7.42 4.49,8.66 6.19,8.66 5.13,0 5.63,-6.72 5.63,-8.66 h -11.82 l -0.04,-1.05 h 13.9 c 1.1,0 1.24,0 1.24,1.05 0,4.92 -2.69,9.75 -8.91,9.75 -5.78,0 -10.37,-5.12 -10.37,-11.36 0,-6.67 5.23,-11.5 10.97,-11.5 6.07,0 8.31,5.53 8.31,6.47 0,0.5 -0.39,0.61 -0.64,0.61 -0.46,0 -0.55,-0.3 -0.66,-0.7 -1.73,-5.13 -6.22,-5.13 -6.72,-5.13 -2.5,0 -4.48,1.49 -5.62,3.33 -1.5,2.39 -1.5,5.69 -1.5,7.48 z"
           inkscape:connector-curvature="0"
           style="fill:#000000;stroke-width:0" /><path
           id="path1407"
           d="m 771.59,417.71 0.04,1.05 c 0.3,7.42 4.49,8.66 6.19,8.66 5.13,0 5.63,-6.72 5.63,-8.66 h -11.82 l -0.04,-1.05 h 13.9 c 1.1,0 1.24,0 1.24,1.05 0,4.92 -2.69,9.75 -8.91,9.75 -5.78,0 -10.37,-5.12 -10.37,-11.36 0,-6.67 5.23,-11.5 10.96,-11.5 6.08,0 8.32,5.53 8.32,6.47 0,0.5 -0.39,0.61 -0.64,0.61 -0.46,0 -0.55,-0.3 -0.66,-0.7 -1.73,-5.13 -6.22,-5.13 -6.72,-5.13 -2.5,0 -4.48,1.49 -5.62,3.33 -1.5,2.39 -1.5,5.69 -1.5,7.48 z"
           inkscape:connector-curvature="0"
           style="fill:#000000;stroke-width:0" /></g>    </g>
    <g
       id="g1518"
       transform="matrix(0.5,0,0,0.49999999,25.054961,36.003046)"
       style="fill:#0000ff;stroke-width:2">
      <g
         word-spacing="normal"
         letter-spacing="normal"
         font-size-adjust="none"
         font-stretch="normal"
         font-weight="normal"
         font-variant="normal"
         font-style="normal"
         stroke-miterlimit="10.433"
         xml:space="preserve"
         transform="matrix(0.3,0,0,-0.3,-52.5,222.75)"
         id="g1516"
         style="font-style:normal;font-variant:normal;font-weight:normal;font-stretch:normal;letter-spacing:normal;word-spacing:normal;text-anchor:start;fill:#0000ff;fill-opacity:1;fill-rule:evenodd;stroke:#000000;stroke-width:2;stroke-linecap:butt;stroke-linejoin:miter;stroke-miterlimit:10.43299961;stroke-dasharray:none;stroke-dashoffset:0;stroke-opacity:1"><path
           id="path1490"
           d="m 486.46,435.34 0.06,0.17 0.08,0.17 0.07,0.17 0.08,0.16 0.09,0.16 0.09,0.16 0.1,0.15 0.1,0.15 0.1,0.15 0.12,0.14 0.12,0.14 0.12,0.14 0.14,0.13 0.14,0.12 0.14,0.12 0.16,0.12 0.16,0.11 0.17,0.1 0.18,0.1 0.19,0.09 0.2,0.09 0.2,0.08 0.22,0.07 0.22,0.07 0.24,0.06 0.24,0.06 0.26,0.04 0.27,0.04 0.27,0.03 0.29,0.03 0.3,0.02 h 0.31 v 1.55 c -1.54,-0.11 -3.54,-0.16 -4.84,-0.16 -1.48,0 -4.37,0.11 -5.67,0.16 v -1.55 c 2.59,-0.04 3.64,-1.34 3.64,-2.48 0,-0.41 -0.16,-0.7 -0.25,-1 l -9.13,-24.02 -9.51,25.16 c -0.3,0.7 -0.3,0.8 -0.3,0.89 0,1.45 2.85,1.45 4.08,1.45 v 1.55 c -1.78,-0.16 -5.22,-0.16 -7.11,-0.16 -2.41,0 -4.55,0.11 -6.33,0.16 v -1.55 c 3.24,0 4.17,0 4.88,-1.89 l 11.56,-30.59 c 0.34,-0.95 0.59,-1.09 1.25,-1.09 0.84,0 0.94,0.25 1.19,0.93 z"
           inkscape:connector-curvature="0"
           style="fill:#0000ff;stroke-width:0" /><path
           id="path1492"
           d="m 505.23,409.98 0.02,-0.19 0.03,-0.18 0.04,-0.19 0.04,-0.18 0.05,-0.19 0.05,-0.18 0.07,-0.18 0.06,-0.18 0.08,-0.18 0.08,-0.17 0.09,-0.18 0.09,-0.16 0.1,-0.16 0.11,-0.16 0.11,-0.16 0.12,-0.14 0.13,-0.14 0.13,-0.14 0.14,-0.13 0.14,-0.12 0.15,-0.12 0.16,-0.1 0.16,-0.1 0.17,-0.09 0.18,-0.08 0.18,-0.07 0.19,-0.06 0.19,-0.05 0.2,-0.04 0.2,-0.03 0.21,-0.02 0.22,-0.01 c 1.03,0 4.08,0.71 4.08,4.74 v 2.78 h -1.25 v -2.78 c 0,-2.89 -1.24,-3.19 -1.8,-3.19 -1.64,0 -1.84,2.23 -1.84,2.48 v 9.97 c 0,2.1 0,4.03 -1.78,5.88 -1.96,1.93 -4.44,2.73 -6.83,2.73 -4.09,0 -7.53,-2.33 -7.53,-5.62 0,-1.49 1,-2.35 2.29,-2.35 1.4,0 2.3,1 2.3,2.3 0,0.59 -0.25,2.23 -2.55,2.3 1.35,1.73 3.79,2.28 5.38,2.28 2.45,0 5.28,-1.94 5.28,-6.38 v -1.84 -1.05 -4.98 c 0,-4.74 -3.58,-6.42 -5.83,-6.42 -2.43,0 -4.48,1.75 -4.48,4.23 0,2.73 2.09,6.88 10.31,7.17 v 0 1.05 c -2.53,-0.14 -6.01,-0.3 -9.16,-1.8 -3.73,-1.69 -4.98,-4.28 -4.98,-6.47 0,-4.03 4.83,-5.28 7.97,-5.28 3.3,0 5.58,1.99 6.53,4.33 z"
           inkscape:connector-curvature="0"
           style="fill:#0000ff;stroke-width:0" /><path
           id="path1494"
           d="m 522.41,440.78 -7.18,-0.55 v -1.55 c 3.49,0 3.89,-0.34 3.89,-2.79 v -25.91 c 0,-2.23 -0.54,-2.23 -3.89,-2.23 v -1.55 c 1.65,0.05 4.29,0.16 5.54,0.16 1.25,0 3.68,-0.11 5.53,-0.16 v 1.55 c -3.35,0 -3.89,0 -3.89,2.23 z"
           inkscape:connector-curvature="0"
           style="fill:#0000ff;stroke-width:0" /><path
           id="path1496"
           d="m 532.92,417.71 0.05,1.05 c 0.3,7.42 4.48,8.66 6.19,8.66 5.12,0 5.62,-6.72 5.62,-8.66 h -11.81 l -0.05,-1.05 h 13.91 c 1.09,0 1.23,0 1.23,1.05 0,4.92 -2.68,9.75 -8.9,9.75 -5.78,0 -10.38,-5.12 -10.38,-11.36 0,-6.67 5.24,-11.5 10.97,-11.5 6.08,0 8.31,5.53 8.31,6.47 0,0.5 -0.39,0.61 -0.64,0.61 -0.45,0 -0.54,-0.3 -0.65,-0.7 -1.74,-5.13 -6.22,-5.13 -6.72,-5.13 -2.5,0 -4.49,1.49 -5.63,3.33 -1.5,2.39 -1.5,5.69 -1.5,7.48 z"
           inkscape:connector-curvature="0"
           style="fill:#0000ff;stroke-width:0" /><path
           id="path1498"
           d="m 568.95,410.14 v -4.49 l 7.17,0.55 v 1.55 c -3.48,0 -3.89,0.34 -3.89,2.78 v 17.68 l -7.32,-0.54 v -1.55 c 3.5,0 3.89,-0.34 3.89,-2.78 v -8.88 c 0,-4.32 -2.39,-7.71 -6.03,-7.71 -4.18,0 -4.38,2.34 -4.38,4.93 v 16.53 l -7.33,-0.54 v -1.55 c 3.89,0 3.89,-0.14 3.89,-4.58 v -7.47 c 0,-3.89 0,-8.42 7.57,-8.42 2.79,0 4.98,1.39 6.43,4.49 z"
           inkscape:connector-curvature="0"
           style="fill:#0000ff;stroke-width:0" /><path
           id="path1500"
           d="m 585.5,422.75 v 5.46 l -6.92,-0.54 v -1.55 c 3.48,0 3.89,-0.34 3.89,-2.78 v -13.36 c 0,-2.23 -0.55,-2.23 -3.89,-2.23 v -1.55 c 1.95,0.05 4.28,0.16 5.69,0.16 1.98,0 4.32,0 6.32,-0.16 v 1.55 h -1.04 c -3.69,0 -3.8,0.54 -3.8,2.34 v 7.67 c 0,4.92 2.09,9.36 5.89,9.36 0.34,0 0.44,0 0.55,-0.05 -0.16,-0.04 -1.16,-0.64 -1.16,-1.93 0,-1.41 1.05,-2.14 2.16,-2.14 0.89,0 2.14,0.59 2.14,2.18 0,1.6 -1.55,3.03 -3.69,3.03 -3.64,0 -5.44,-3.32 -6.14,-5.46 z"
           inkscape:connector-curvature="0"
           style="fill:#0000ff;stroke-width:0" /><path
           id="path1502"
           d="m 618.91,423.34 v -13.36 c 0,-2.23 -0.55,-2.23 -3.89,-2.23 v -1.55 c 1.75,0.05 4.28,0.16 5.63,0.16 1.29,0 3.88,-0.11 5.57,-0.16 v 1.55 c -3.32,0 -3.87,0 -3.87,2.23 v 9.17 c 0,5.19 3.53,7.97 6.72,7.97 3.14,0 3.68,-2.69 3.68,-5.53 v -11.61 c 0,-2.23 -0.54,-2.23 -3.89,-2.23 v -1.55 c 1.75,0.05 4.3,0.16 5.64,0.16 1.3,0 3.88,-0.11 5.58,-0.16 v 1.55 c -3.34,0 -3.89,0 -3.89,2.23 v 9.17 c 0,5.19 3.55,7.97 6.74,7.97 3.14,0 3.68,-2.69 3.68,-5.53 v -11.61 c 0,-2.23 -0.54,-2.23 -3.89,-2.23 v -1.55 c 1.74,0.05 4.28,0.16 5.63,0.16 1.3,0 3.89,-0.11 5.58,-0.16 v 1.55 c -2.58,0 -3.83,0 -3.88,1.5 v 9.51 c 0,4.28 0,5.83 -1.55,7.61 -0.7,0.86 -2.34,1.84 -5.23,1.84 -4.19,0 -6.37,-2.98 -7.22,-4.87 -0.7,4.33 -4.39,4.87 -6.62,4.87 -3.65,0 -5.99,-2.14 -7.38,-5.21 v 5.21 l -7.03,-0.54 v -1.55 c 3.48,0 3.89,-0.34 3.89,-2.78 z"
           inkscape:connector-curvature="0"
           style="fill:#0000ff;stroke-width:0" /><path
           id="path1504"
           d="m 678.41,416.86 -0.01,0.59 -0.04,0.59 -0.07,0.58 -0.1,0.57 -0.13,0.56 -0.15,0.55 -0.17,0.54 -0.2,0.53 -0.22,0.51 -0.25,0.5 -0.26,0.49 -0.29,0.47 -0.31,0.46 -0.33,0.44 -0.35,0.43 -0.36,0.4 -0.39,0.39 -0.4,0.37 -0.41,0.35 -0.44,0.32 -0.44,0.31 -0.46,0.28 -0.48,0.26 -0.49,0.24 -0.5,0.21 -0.51,0.18 -0.52,0.16 -0.53,0.13 -0.54,0.11 -0.54,0.07 -0.56,0.05 -0.56,0.01 -0.05,-1.09 c 2.19,0 4.33,-1.1 5.63,-3.24 1.29,-2.14 1.29,-5.03 1.29,-6.92 0,-1.8 0,-4.48 -1.09,-6.67 -1.09,-2.25 -3.28,-3.69 -5.78,-3.69 v 0 c -2.14,0 -4.33,1.05 -5.67,3.33 -1.25,2.2 -1.25,5.23 -1.25,7.03 0,1.94 0,4.63 1.18,6.83 1.36,2.28 3.69,3.33 5.69,3.33 l 0.05,1.09 c -6.22,0 -11.06,-5.42 -11.06,-11.65 0,-6.43 5.18,-11.21 11.01,-11.21 6.03,0 11.06,4.88 11.06,11.21 z"
           inkscape:connector-curvature="0"
           style="fill:#0000ff;stroke-width:0" /><path
           id="path1506"
           d="m 699.13,422.93 0.06,0.15 0.07,0.14 0.06,0.14 0.07,0.13 0.07,0.12 0.07,0.13 0.07,0.12 0.07,0.11 0.15,0.22 0.15,0.2 0.16,0.19 0.16,0.18 0.17,0.16 0.16,0.14 0.17,0.14 0.17,0.12 0.17,0.11 0.17,0.1 0.17,0.09 0.17,0.09 0.17,0.07 0.16,0.06 0.17,0.05 0.16,0.05 0.15,0.04 0.16,0.03 0.14,0.03 0.14,0.02 0.14,0.02 0.13,0.02 0.12,0.01 h 0.12 l 0.11,0.01 h 0.09 0.09 0.08 v 1.55 c -1.15,-0.1 -2.59,-0.14 -3.73,-0.14 -0.91,0 -3.25,0.09 -4.34,0.14 v -1.55 c 1.54,-0.05 2.34,-0.89 2.34,-2.14 0,-0.5 -0.05,-0.59 -0.3,-1.19 l -5.03,-12.26 -5.53,13.4 c -0.2,0.5 -0.3,0.71 -0.3,0.91 0,1.28 1.85,1.28 2.78,1.28 v 1.55 c -1.28,-0.05 -4.57,-0.14 -5.42,-0.14 -1.34,0 -3.34,0.04 -4.83,0.14 v -1.55 c 2.39,0 3.33,0 4.04,-1.73 l 7.46,-18.19 c -0.25,-0.64 -0.93,-2.3 -1.25,-2.94 -1.09,-2.73 -2.48,-6.19 -5.67,-6.19 -0.25,0 -1.39,0 -2.34,0.91 1.55,0.2 1.94,1.3 1.94,2.09 0,1.3 -0.94,2.1 -2.08,2.1 -1,0 -2.1,-0.66 -2.1,-2.14 0,-2.25 2.1,-4.05 4.58,-4.05 3.14,0 5.19,2.84 6.38,5.69 z"
           inkscape:connector-curvature="0"
           style="fill:#0000ff;stroke-width:0" /><path
           id="path1508"
           d="m 708.83,417.71 0.05,1.05 c 0.3,7.42 4.48,8.66 6.19,8.66 5.12,0 5.62,-6.72 5.62,-8.66 h -11.81 l -0.05,-1.05 h 13.91 c 1.09,0 1.23,0 1.23,1.05 0,4.92 -2.69,9.75 -8.9,9.75 -5.79,0 -10.38,-5.12 -10.38,-11.36 0,-6.67 5.24,-11.5 10.97,-11.5 6.08,0 8.31,5.53 8.31,6.47 0,0.5 -0.39,0.61 -0.64,0.61 -0.45,0 -0.55,-0.3 -0.65,-0.7 -1.74,-5.13 -6.22,-5.13 -6.72,-5.13 -2.5,0 -4.49,1.49 -5.63,3.33 -1.5,2.39 -1.5,5.69 -1.5,7.48 z"
           inkscape:connector-curvature="0"
           style="fill:#0000ff;stroke-width:0" /><path
           id="path1510"
           d="m 730.86,423.34 v -13.36 c 0,-2.23 -0.54,-2.23 -3.89,-2.23 v -1.55 c 1.75,0.05 4.28,0.16 5.63,0.16 1.3,0 3.89,-0.11 5.58,-0.16 v 1.55 c -3.33,0 -3.88,0 -3.88,2.23 v 9.17 c 0,5.19 3.53,7.97 6.72,7.97 3.14,0 3.69,-2.69 3.69,-5.53 v -11.61 c 0,-2.23 -0.55,-2.23 -3.89,-2.23 v -1.55 c 1.75,0.05 4.29,0.16 5.64,0.16 1.29,0 3.87,-0.11 5.57,-0.16 v 1.55 c -2.59,0 -3.84,0 -3.88,1.5 v 9.51 c 0,4.28 0,5.83 -1.55,7.61 -0.69,0.86 -2.35,1.84 -5.22,1.84 -3.64,0 -5.98,-2.14 -7.38,-5.21 v 5.21 l -7.03,-0.54 v -1.55 c 3.49,0 3.89,-0.34 3.89,-2.78 z"
           inkscape:connector-curvature="0"
           style="fill:#0000ff;stroke-width:0" /><path
           id="path1512"
           d="m 758.58,423.34 v -13.36 c 0,-2.23 -0.55,-2.23 -3.89,-2.23 v -1.55 c 1.75,0.05 4.28,0.16 5.63,0.16 1.29,0 3.89,-0.11 5.58,-0.16 v 1.55 c -3.33,0 -3.88,0 -3.88,2.23 v 9.17 c 0,5.19 3.53,7.97 6.72,7.97 3.14,0 3.69,-2.69 3.69,-5.53 v -11.61 c 0,-2.23 -0.55,-2.23 -3.9,-2.23 v -1.55 c 1.75,0.05 4.3,0.16 5.65,0.16 1.29,0 3.87,-0.11 5.57,-0.16 v 1.55 c -2.59,0 -3.84,0 -3.89,1.5 v 9.51 c 0,4.28 0,5.83 -1.54,7.61 -0.69,0.86 -2.35,1.84 -5.22,1.84 -3.64,0 -5.99,-2.14 -7.38,-5.21 v 5.21 l -7.03,-0.54 v -1.55 c 3.49,0 3.89,-0.34 3.89,-2.78 z"
           inkscape:connector-curvature="0"
           style="fill:#0000ff;stroke-width:0" /><path
           id="path1514"
           d="m 786.35,417.71 0.05,1.05 c 0.29,7.42 4.48,8.66 6.18,8.66 5.13,0 5.63,-6.72 5.63,-8.66 H 786.4 l -0.05,-1.05 h 13.9 c 1.1,0 1.24,0 1.24,1.05 0,4.92 -2.69,9.75 -8.91,9.75 -5.78,0 -10.37,-5.12 -10.37,-11.36 0,-6.67 5.23,-11.5 10.97,-11.5 6.07,0 8.31,5.53 8.31,6.47 0,0.5 -0.39,0.61 -0.64,0.61 -0.45,0 -0.55,-0.3 -0.66,-0.7 -1.73,-5.13 -6.22,-5.13 -6.72,-5.13 -2.5,0 -4.48,1.49 -5.62,3.33 -1.5,2.39 -1.5,5.69 -1.5,7.48 z"
           inkscape:connector-curvature="0"
           style="fill:#0000ff;stroke-width:0" /></g>    </g>
    <g
       id="g1637"
       transform="matrix(0.5,0,0,0.49999999,71.408044,51.133179)"
       style="stroke-width:2;fill:#008000">
      <g
         word-spacing="normal"
         letter-spacing="normal"
         font-size-adjust="none"
         font-stretch="normal"
         font-weight="normal"
         font-variant="normal"
         font-style="normal"
         stroke-miterlimit="10.433"
         xml:space="preserve"
         transform="matrix(0.3,0,0,-0.3,-52.5,222.75)"
         id="g1635"
         style="font-style:normal;font-variant:normal;font-weight:normal;font-stretch:normal;letter-spacing:normal;word-spacing:normal;text-anchor:start;fill:#008000;fill-opacity:1;fill-rule:evenodd;stroke:#000000;stroke-width:2;stroke-linecap:butt;stroke-linejoin:miter;stroke-miterlimit:10.43299961;stroke-dasharray:none;stroke-dashoffset:0;stroke-opacity:1"><path
           id="path1611"
           d="m 457.27,440.23 v -1.55 h 1.19 c 3.84,0 3.93,-0.54 3.93,-2.34 v -26.25 c 0,-1.8 -0.09,-2.34 -3.93,-2.34 h -1.19 v -1.55 h 18.23 l -1.34,1.55 h -5.05 c -2.32,0 -2.43,0.34 -2.43,1.98 v 26.95 c 0,1.66 0.11,2 2.43,2 h 4.99 c 3.09,0 6.53,-1.09 9.08,-4.64 2.14,-2.93 2.57,-7.22 2.57,-11.11 0,-5.53 -0.93,-8.51 -2.73,-10.95 -1,-1.34 -3.83,-4.23 -8.86,-4.23 l 1.34,-1.55 c 8.36,0 15.24,7.37 15.24,16.73 0,9.47 -6.72,17.3 -15.24,17.3 z"
           inkscape:connector-curvature="0"
           style="fill:#008000;stroke-width:0" /><path
           id="path1613"
           d="m 502.37,428.21 -6.97,-0.54 v -1.55 c 3.24,0 3.69,-0.3 3.69,-2.73 v -13.41 c 0,-2.23 -0.55,-2.23 -3.89,-2.23 v -1.55 c 1.59,0.05 4.28,0.16 5.48,0.16 1.75,0 3.49,-0.11 5.19,-0.16 v 1.55 c -3.3,0 -3.5,0.25 -3.5,2.18 z"
           inkscape:connector-curvature="0"
           style="fill:#008000;stroke-width:0" /><path
           id="path1615"
           d="m 502.57,436.89 v 0.14 l -0.01,0.15 -0.02,0.14 -0.02,0.14 -0.03,0.13 -0.04,0.13 -0.04,0.13 -0.05,0.12 -0.06,0.12 -0.06,0.12 -0.06,0.11 -0.07,0.1 -0.08,0.1 -0.08,0.1 -0.09,0.1 -0.08,0.08 -0.1,0.09 -0.09,0.08 -0.11,0.07 -0.1,0.07 -0.11,0.07 -0.11,0.06 -0.11,0.05 -0.12,0.05 -0.12,0.04 -0.12,0.04 -0.12,0.03 -0.12,0.03 -0.13,0.02 -0.13,0.01 -0.13,0.01 -0.13,0.01 c -1.54,0 -2.64,-1.35 -2.64,-2.64 0,-1.35 1.1,-2.64 2.64,-2.64 1.39,0 2.64,1.04 2.64,2.64 z"
           inkscape:connector-curvature="0"
           style="fill:#008000;stroke-width:0" /><path
           id="path1617"
           d="m 517.72,415.87 0.11,-0.02 0.12,-0.02 0.15,-0.03 0.15,-0.04 0.17,-0.04 0.18,-0.04 0.19,-0.05 0.2,-0.06 0.2,-0.06 0.21,-0.07 0.22,-0.08 0.22,-0.08 0.22,-0.1 0.22,-0.1 0.22,-0.11 0.22,-0.12 0.21,-0.14 0.22,-0.14 0.2,-0.15 0.2,-0.16 0.19,-0.18 0.18,-0.19 0.17,-0.2 0.16,-0.21 0.14,-0.22 0.06,-0.12 0.07,-0.12 0.06,-0.13 0.05,-0.12 0.05,-0.14 0.04,-0.13 0.04,-0.14 0.04,-0.14 0.03,-0.15 0.03,-0.15 0.02,-0.16 0.01,-0.15 0.01,-0.17 v -0.16 c 0,-2.53 -1.75,-4.53 -5.62,-4.53 -4.19,0 -5.99,2.84 -6.94,7.07 -0.14,0.64 -0.19,0.85 -0.69,0.85 -0.65,0 -0.65,-0.35 -0.65,-1.25 v -6.58 c 0,-0.84 0,-1.19 0.54,-1.19 0.25,0 0.3,0.05 1.25,1 0.1,0.1 0.1,0.19 1,1.14 2.19,-2.09 4.44,-2.14 5.49,-2.14 5.72,0 8.01,3.35 8.01,6.92 0,2.64 -1.5,4.14 -2.09,4.74 -1.64,1.59 -3.6,2 -5.69,2.39 -2.78,0.55 -6.12,1.2 -6.12,4.09 0,1.74 1.29,3.78 5.58,3.78 5.48,0 5.73,-4.48 5.82,-6.03 0.06,-0.45 0.5,-0.45 0.61,-0.45 0.64,0 0.64,0.25 0.64,1.2 v 5.03 c 0,0.85 0,1.19 -0.54,1.19 -0.25,0 -0.35,0 -1,-0.59 -0.15,-0.21 -0.65,-0.64 -0.85,-0.8 -1.89,1.39 -3.93,1.39 -4.68,1.39 -6.08,0 -7.97,-3.33 -7.97,-6.12 0,-1.74 0.79,-3.14 2.14,-4.24 1.59,-1.29 3,-1.59 6.58,-2.28 z"
           inkscape:connector-curvature="0"
           style="fill:#008000;stroke-width:0" /><path
           id="path1619"
           d="m 535.6,424.93 v 3.28 l -7.17,-0.54 v -1.55 c 3.54,0 3.89,-0.3 3.89,-2.48 v -23.32 c 0,-2.25 -0.55,-2.25 -3.89,-2.25 v -1.54 c 1.7,0.06 4.28,0.15 5.57,0.15 1.35,0 3.9,-0.09 5.65,-0.15 v 1.54 c -3.35,0 -3.9,0 -3.9,2.25 v 8.36 0.46 l 0.71,0.65 c -0.71,1.05 -0.71,1.1 -0.71,2.08 v 0 11.13 c 1.44,2.53 3.9,3.98 6.43,3.98 3.64,0 6.68,-4.39 6.68,-10.02 0,-6.03 -3.5,-10.21 -7.18,-10.21 -1.99,0 -3.88,1 -5.22,3.04 l -0.71,-0.65 c 0.25,-0.8 2.35,-3.49 6.13,-3.49 5.94,0 11.11,4.88 11.11,11.31 0,6.33 -4.83,11.25 -10.41,11.25 -3.89,0 -5.98,-2.18 -6.98,-3.28 z"
           inkscape:connector-curvature="0"
           style="fill:#008000;stroke-width:0" /><path
           id="path1621"
           d="m 561.73,417.71 0.04,1.05 c 0.3,7.42 4.49,8.66 6.19,8.66 5.13,0 5.63,-6.72 5.63,-8.66 h -11.82 l -0.04,-1.05 h 13.9 c 1.1,0 1.24,0 1.24,1.05 0,4.92 -2.69,9.75 -8.91,9.75 -5.78,0 -10.37,-5.12 -10.37,-11.36 0,-6.67 5.23,-11.5 10.96,-11.5 6.08,0 8.32,5.53 8.32,6.47 0,0.5 -0.39,0.61 -0.64,0.61 -0.46,0 -0.55,-0.3 -0.66,-0.7 -1.73,-5.13 -6.22,-5.13 -6.72,-5.13 -2.5,0 -4.48,1.49 -5.62,3.33 -1.5,2.39 -1.5,5.69 -1.5,7.48 z"
           inkscape:connector-curvature="0"
           style="fill:#008000;stroke-width:0" /><path
           id="path1623"
           d="m 586.59,422.75 v 5.46 l -6.93,-0.54 v -1.55 c 3.49,0 3.89,-0.34 3.89,-2.78 v -13.36 c 0,-2.23 -0.54,-2.23 -3.89,-2.23 v -1.55 c 1.96,0.05 4.29,0.16 5.69,0.16 1.99,0 4.33,0 6.33,-0.16 v 1.55 h -1.05 c -3.68,0 -3.79,0.54 -3.79,2.34 v 7.67 c 0,4.92 2.09,9.36 5.89,9.36 0.34,0 0.43,0 0.54,-0.05 -0.15,-0.04 -1.15,-0.64 -1.15,-1.93 0,-1.41 1.04,-2.14 2.15,-2.14 0.89,0 2.14,0.59 2.14,2.18 0,1.6 -1.54,3.03 -3.68,3.03 -3.64,0 -5.44,-3.32 -6.14,-5.46 z"
           inkscape:connector-curvature="0"
           style="fill:#008000;stroke-width:0" /><path
           id="path1625"
           d="m 608.19,415.87 0.11,-0.02 0.13,-0.02 0.14,-0.03 0.16,-0.04 0.17,-0.04 0.18,-0.04 0.19,-0.05 0.19,-0.06 0.21,-0.06 0.21,-0.07 0.21,-0.08 0.22,-0.08 0.22,-0.1 0.23,-0.1 0.22,-0.11 0.22,-0.12 0.21,-0.14 0.21,-0.14 0.21,-0.15 0.2,-0.16 0.19,-0.18 0.18,-0.19 0.17,-0.2 0.15,-0.21 0.15,-0.22 0.06,-0.12 0.06,-0.12 0.06,-0.13 0.06,-0.12 0.05,-0.14 0.04,-0.13 0.04,-0.14 0.04,-0.14 0.03,-0.15 0.02,-0.15 0.02,-0.16 0.02,-0.15 0.01,-0.17 v -0.16 c 0,-2.53 -1.75,-4.53 -5.63,-4.53 -4.18,0 -5.98,2.84 -6.93,7.07 -0.14,0.64 -0.19,0.85 -0.69,0.85 -0.66,0 -0.66,-0.35 -0.66,-1.25 v -6.58 c 0,-0.84 0,-1.19 0.55,-1.19 0.25,0 0.3,0.05 1.25,1 0.09,0.1 0.09,0.19 1,1.14 2.19,-2.09 4.44,-2.14 5.48,-2.14 5.72,0 8.02,3.35 8.02,6.92 0,2.64 -1.5,4.14 -2.09,4.74 -1.65,1.59 -3.6,2 -5.69,2.39 -2.78,0.55 -6.13,1.2 -6.13,4.09 0,1.74 1.3,3.78 5.58,3.78 5.49,0 5.74,-4.48 5.83,-6.03 0.06,-0.45 0.5,-0.45 0.61,-0.45 0.64,0 0.64,0.25 0.64,1.2 v 5.03 c 0,0.85 0,1.19 -0.55,1.19 -0.25,0 -0.34,0 -1,-0.59 -0.14,-0.21 -0.64,-0.64 -0.84,-0.8 -1.89,1.39 -3.94,1.39 -4.69,1.39 -6.08,0 -7.97,-3.33 -7.97,-6.12 0,-1.74 0.8,-3.14 2.14,-4.24 1.6,-1.29 3,-1.59 6.58,-2.28 z"
           inkscape:connector-curvature="0"
           style="fill:#008000;stroke-width:0" /><path
           id="path1627"
           d="m 626.32,428.21 -6.97,-0.54 v -1.55 c 3.24,0 3.69,-0.3 3.69,-2.73 v -13.41 c 0,-2.23 -0.54,-2.23 -3.89,-2.23 v -1.55 c 1.6,0.05 4.28,0.16 5.49,0.16 1.75,0 3.48,-0.11 5.18,-0.16 v 1.55 c -3.29,0 -3.5,0.25 -3.5,2.18 z"
           inkscape:connector-curvature="0"
           style="fill:#008000;stroke-width:0" /><path
           id="path1629"
           d="m 626.53,436.89 -0.01,0.14 -0.01,0.15 -0.02,0.14 -0.02,0.14 -0.03,0.13 -0.04,0.13 -0.04,0.13 -0.05,0.12 -0.05,0.12 -0.07,0.12 -0.06,0.11 -0.07,0.1 -0.08,0.1 -0.08,0.1 -0.08,0.1 -0.09,0.08 -0.09,0.09 -0.1,0.08 -0.1,0.07 -0.11,0.07 -0.1,0.07 -0.11,0.06 -0.12,0.05 -0.11,0.05 -0.12,0.04 -0.12,0.04 -0.13,0.03 -0.12,0.03 -0.13,0.02 -0.12,0.01 -0.13,0.01 -0.13,0.01 c -1.55,0 -2.64,-1.35 -2.64,-2.64 0,-1.35 1.09,-2.64 2.64,-2.64 1.39,0 2.64,1.04 2.64,2.64 z"
           inkscape:connector-curvature="0"
           style="fill:#008000;stroke-width:0" /><path
           id="path1631"
           d="m 654.78,416.86 -0.02,0.59 -0.04,0.59 -0.07,0.58 -0.1,0.57 -0.12,0.56 -0.15,0.55 -0.18,0.54 -0.2,0.53 -0.22,0.51 -0.24,0.5 -0.27,0.49 -0.29,0.47 -0.31,0.46 -0.33,0.44 -0.34,0.43 -0.37,0.4 -0.38,0.39 -0.4,0.37 -0.42,0.35 -0.43,0.32 -0.45,0.31 -0.46,0.28 -0.48,0.26 -0.48,0.24 -0.5,0.21 -0.51,0.18 -0.52,0.16 -0.53,0.13 -0.54,0.11 -0.55,0.07 -0.56,0.05 -0.56,0.01 -0.04,-1.09 c 2.18,0 4.32,-1.1 5.62,-3.24 1.3,-2.14 1.3,-5.03 1.3,-6.92 0,-1.8 0,-4.48 -1.1,-6.67 -1.09,-2.25 -3.28,-3.69 -5.78,-3.69 v 0 c -2.14,0 -4.33,1.05 -5.67,3.33 -1.25,2.2 -1.25,5.23 -1.25,7.03 0,1.94 0,4.63 1.19,6.83 1.36,2.28 3.69,3.33 5.69,3.33 l 0.04,1.09 c -6.22,0 -11.06,-5.42 -11.06,-11.65 0,-6.43 5.19,-11.21 11.02,-11.21 6.03,0 11.06,4.88 11.06,11.21 z"
           inkscape:connector-curvature="0"
           style="fill:#008000;stroke-width:0" /><path
           id="path1633"
           d="m 661.75,423.34 v -13.36 c 0,-2.23 -0.55,-2.23 -3.89,-2.23 v -1.55 c 1.75,0.05 4.28,0.16 5.62,0.16 1.3,0 3.9,-0.11 5.58,-0.16 v 1.55 c -3.33,0 -3.87,0 -3.87,2.23 v 9.17 c 0,5.19 3.53,7.97 6.72,7.97 3.14,0 3.68,-2.69 3.68,-5.53 v -11.61 c 0,-2.23 -0.54,-2.23 -3.89,-2.23 v -1.55 c 1.75,0.05 4.3,0.16 5.64,0.16 1.3,0 3.88,-0.11 5.58,-0.16 v 1.55 c -2.59,0 -3.84,0 -3.89,1.5 v 9.51 c 0,4.28 0,5.83 -1.55,7.61 -0.68,0.86 -2.34,1.84 -5.21,1.84 -3.65,0 -5.99,-2.14 -7.38,-5.21 v 5.21 l -7.03,-0.54 v -1.55 c 3.48,0 3.89,-0.34 3.89,-2.78 z"
           inkscape:connector-curvature="0"
           style="fill:#008000;stroke-width:0" /></g>    </g>
    <path
       style="fill:none;stroke:#008000;stroke-width:0.5;stroke-linecap:butt;stroke-linejoin:miter;stroke-opacity:1;marker-start:url(#marker1665);marker-end:url(#marker1711);stroke-miterlimit:4;stroke-dasharray:none"
       d="M 69.208868,138.81696 H 107.68399"
       id="path1655"
       inkscape:connector-curvature="0" />
    <path
       style="fill:none;stroke:#008000;stroke-width:0.26458332px;stroke-linecap:butt;stroke-linejoin:miter;stroke-opacity:1"
       d="M 91.326507,138.88714 129.01151,103.87483"
       id="path2091"
       inkscape:connector-curvature="0" />
    <path
       style="fill:none;stroke:#0000ff;stroke-width:0.49999997;stroke-linecap:butt;stroke-linejoin:miter;stroke-miterlimit:4;stroke-dasharray:1.00000002, 2.00000002;stroke-dashoffset:0;stroke-opacity:1"
       d="M 89.769341,172.07885 V 85.522311"
       id="path2093"
       inkscape:connector-curvature="0" />
    <g
       id="g2311"
       transform="matrix(0.49999999,0,0,0.49999999,42.762274,129.46365)"
       style="stroke-width:2;fill:#0000ff">
      <g
         word-spacing="normal"
         letter-spacing="normal"
         font-size-adjust="none"
         font-stretch="normal"
         font-weight="normal"
         font-variant="normal"
         font-style="normal"
         stroke-miterlimit="10.433"
         xml:space="preserve"
         transform="matrix(0.3,0,0,-0.3,-52.5,222.75)"
         id="g2309"
         style="font-style:normal;font-variant:normal;font-weight:normal;font-stretch:normal;letter-spacing:normal;word-spacing:normal;text-anchor:start;fill:#0000ff;fill-opacity:1;fill-rule:evenodd;stroke:#000000;stroke-width:2;stroke-linecap:butt;stroke-linejoin:miter;stroke-miterlimit:10.43299961;stroke-dasharray:none;stroke-dashoffset:0;stroke-opacity:1"><path
           id="path2303"
           d="m 471.86,441.67 0.01,0.02 0.02,0.03 0.01,0.02 0.01,0.03 0.02,0.04 0.02,0.04 0.01,0.04 0.02,0.04 0.01,0.04 0.02,0.04 0.01,0.03 0.01,0.03 0.01,0.03 0.01,0.03 0.01,0.03 0.01,0.02 0.01,0.03 v 0.02 l 0.01,0.03 v 0.02 l 0.01,0.02 v 0.02 0.02 l 0.01,0.02 v 0.04 0.04 0.05 0.04 0.02 0.02 c 0,0.55 -0.45,0.99 -1,0.99 -0.45,0 -0.79,-0.25 -1.14,-1.14 l -8.72,-22.86 c -0.11,-0.31 -0.25,-0.61 -0.25,-0.91 0,-0.14 0,-0.25 0.25,-0.84 l 8.72,-22.88 c 0.19,-0.54 0.44,-1.18 1.14,-1.18 0.55,0 1,0.45 1,1 0,0.14 0,0.25 -0.25,0.79 l -8.82,23.11 z"
           inkscape:connector-curvature="0"
           style="fill:#0000ff;stroke-width:0" /><path
           id="path2305"
           d="m 491.48,421.25 0.03,0.13 0.03,0.15 0.04,0.16 0.05,0.18 0.05,0.19 0.06,0.21 0.07,0.22 0.07,0.22 0.08,0.23 0.09,0.24 0.09,0.25 0.11,0.24 0.11,0.25 0.12,0.25 0.13,0.25 0.13,0.25 0.15,0.24 0.16,0.24 0.16,0.23 0.18,0.22 0.19,0.22 0.2,0.2 0.21,0.19 0.22,0.18 0.23,0.16 0.24,0.14 0.13,0.07 0.13,0.06 0.13,0.05 0.14,0.05 0.14,0.05 0.14,0.04 0.15,0.03 0.15,0.03 0.15,0.02 0.15,0.02 0.16,0.01 h 0.16 c 0.25,0 1.44,0 2.49,-0.64 -1.39,-0.25 -2.39,-1.5 -2.39,-2.69 0,-0.79 0.54,-1.75 1.89,-1.75 1.09,0 2.69,0.89 2.69,2.89 0,2.6 -2.94,3.28 -4.63,3.28 -2.89,0 -4.64,-2.64 -5.23,-3.78 -1.25,3.28 -3.94,3.78 -5.38,3.78 -5.19,0 -8.03,-6.42 -8.03,-7.67 0,-0.5 0.5,-0.5 0.61,-0.5 0.39,0 0.55,0.11 0.64,0.55 1.69,5.28 4.98,6.53 6.67,6.53 0.96,0 2.69,-0.44 2.69,-3.33 0,-1.54 -0.84,-4.89 -2.69,-11.86 -0.79,-3.09 -2.53,-5.18 -4.73,-5.18 -0.3,0 -1.44,0 -2.49,0.65 1.25,0.24 2.35,1.28 2.35,2.69 0,1.34 -1.1,1.73 -1.85,1.73 -1.5,0 -2.75,-1.29 -2.75,-2.89 0,-2.28 2.5,-3.28 4.69,-3.28 3.3,0 5.08,3.49 5.24,3.78 0.59,-1.84 2.39,-3.78 5.37,-3.78 5.14,0 7.98,6.42 7.98,7.67 0,0.5 -0.45,0.5 -0.6,0.5 -0.44,0 -0.55,-0.2 -0.65,-0.54 -1.64,-5.33 -5.03,-6.53 -6.62,-6.53 -1.95,0 -2.75,1.59 -2.75,3.29 0,1.1 0.3,2.19 0.86,4.38 z"
           inkscape:connector-curvature="0"
           style="fill:#0000ff;stroke-width:0" /><path
           id="path2307"
           d="m 516.87,417.81 0.01,0.03 0.01,0.02 0.01,0.03 0.01,0.02 0.01,0.03 0.01,0.02 0.01,0.03 0.01,0.02 0.01,0.02 0.01,0.02 0.01,0.02 v 0.03 l 0.02,0.03 0.01,0.04 0.01,0.04 0.02,0.03 0.01,0.03 0.01,0.03 v 0.03 l 0.01,0.02 0.01,0.03 0.01,0.02 v 0.02 l 0.01,0.02 v 0.02 0.02 l 0.01,0.02 v 0.01 0.02 0.01 0.02 l 0.01,0.01 v 0.03 0.03 0.02 c 0,0.16 0,0.25 -0.25,0.85 l -8.72,22.92 c -0.3,0.84 -0.6,1.14 -1.14,1.14 -0.55,0 -1,-0.44 -1,-0.99 0,-0.15 0,-0.25 0.25,-0.79 l 8.83,-23.13 -8.83,-23.01 c -0.25,-0.55 -0.25,-0.64 -0.25,-0.89 0,-0.55 0.45,-1 1,-1 0.65,0 0.84,0.5 1.04,1 z"
           inkscape:connector-curvature="0"
           style="fill:#0000ff;stroke-width:0" /></g>    </g>
    <g
       id="g2196"
       transform="matrix(0.49999999,0,0,0.49999999,42.445488,94.767828)"
       style="fill:#008000;stroke-width:2">
      <g
         word-spacing="normal"
         letter-spacing="normal"
         font-size-adjust="none"
         font-stretch="normal"
         font-weight="normal"
         font-variant="normal"
         font-style="normal"
         stroke-miterlimit="10.433"
         xml:space="preserve"
         transform="matrix(0.3,0,0,-0.3,-52.5,222.75)"
         id="g2194"
         style="font-style:normal;font-variant:normal;font-weight:normal;font-stretch:normal;letter-spacing:normal;word-spacing:normal;text-anchor:start;fill:#008000;fill-opacity:1;fill-rule:evenodd;stroke:#000000;stroke-width:2;stroke-linecap:butt;stroke-linejoin:miter;stroke-miterlimit:10.43299961;stroke-dasharray:none;stroke-dashoffset:0;stroke-opacity:1"><path
           id="path2190"
           d="m 477.54,440.98 -0.04,0.06 -0.03,0.06 -0.03,0.05 -0.02,0.05 -0.03,0.05 -0.03,0.05 -0.03,0.05 -0.02,0.04 -0.03,0.04 -0.03,0.04 -0.02,0.04 -0.03,0.03 -0.03,0.04 -0.03,0.03 -0.03,0.03 -0.03,0.03 -0.03,0.02 -0.04,0.03 -0.04,0.02 -0.03,0.02 -0.05,0.02 -0.04,0.01 -0.05,0.02 -0.04,0.01 -0.06,0.01 -0.05,0.01 -0.06,0.01 -0.06,0.01 h -0.07 l -0.07,0.01 h -0.07 -0.04 -0.04 c -0.85,0 -0.94,-0.25 -1.28,-0.89 l -0.32,-4.09 13.41,-26.91 h -26.86 l 13.45,26.91 0.32,4.09 -16.85,-33.78 c -0.25,-0.45 -0.25,-0.55 -0.25,-0.59 0,-0.41 0.3,-0.41 1.1,-0.41 h 34.58 c 0.79,0 1.09,0 1.09,0.41 0,0.04 0,0.14 -0.25,0.59 z"
           inkscape:connector-curvature="0"
           style="fill:#008000;stroke-width:0" /><path
           id="path2192"
           d="m 513.68,421.25 0.03,0.13 0.04,0.15 0.04,0.16 0.04,0.18 0.06,0.19 0.06,0.21 0.06,0.22 0.07,0.22 0.08,0.23 0.09,0.24 0.1,0.25 0.1,0.24 0.11,0.25 0.12,0.25 0.13,0.25 0.14,0.25 0.14,0.24 0.16,0.24 0.17,0.23 0.18,0.22 0.18,0.22 0.2,0.2 0.21,0.19 0.22,0.18 0.23,0.16 0.25,0.14 0.12,0.07 0.13,0.06 0.14,0.05 0.13,0.05 0.14,0.05 0.14,0.04 0.15,0.03 0.15,0.03 0.15,0.02 0.16,0.02 0.15,0.01 h 0.17 c 0.25,0 1.43,0 2.48,-0.64 -1.39,-0.25 -2.39,-1.5 -2.39,-2.69 0,-0.79 0.55,-1.75 1.89,-1.75 1.1,0 2.69,0.89 2.69,2.89 0,2.6 -2.94,3.28 -4.63,3.28 -2.89,0 -4.64,-2.64 -5.23,-3.78 -1.25,3.28 -3.94,3.78 -5.38,3.78 -5.18,0 -8.03,-6.42 -8.03,-7.67 0,-0.5 0.5,-0.5 0.61,-0.5 0.39,0 0.55,0.11 0.64,0.55 1.69,5.28 4.99,6.53 6.68,6.53 0.95,0 2.68,-0.44 2.68,-3.33 0,-1.54 -0.84,-4.89 -2.68,-11.86 -0.8,-3.09 -2.54,-5.18 -4.74,-5.18 -0.3,0 -1.44,0 -2.48,0.65 1.25,0.24 2.34,1.28 2.34,2.69 0,1.34 -1.09,1.73 -1.84,1.73 -1.5,0 -2.75,-1.29 -2.75,-2.89 0,-2.28 2.5,-3.28 4.68,-3.28 3.3,0 5.08,3.49 5.24,3.78 0.59,-1.84 2.39,-3.78 5.37,-3.78 5.14,0 7.99,6.42 7.99,7.67 0,0.5 -0.46,0.5 -0.61,0.5 -0.44,0 -0.55,-0.2 -0.64,-0.54 -1.64,-5.33 -5.03,-6.53 -6.63,-6.53 -1.95,0 -2.75,1.59 -2.75,3.29 0,1.1 0.3,2.19 0.86,4.38 z"
           inkscape:connector-curvature="0"
           style="fill:#008000;stroke-width:0" /></g>    </g>
  </g>
</svg>
