<?xml version="1.0" encoding="UTF-8" standalone="no"?>
<!-- Created with Inkscape (http://www.inkscape.org/) -->

<svg
   xmlns:dc="http://purl.org/dc/elements/1.1/"
   xmlns:cc="http://creativecommons.org/ns#"
   xmlns:rdf="http://www.w3.org/1999/02/22-rdf-syntax-ns#"
   xmlns:svg="http://www.w3.org/2000/svg"
   xmlns="http://www.w3.org/2000/svg"
   xmlns:sodipodi="http://sodipodi.sourceforge.net/DTD/sodipodi-0.dtd"
   xmlns:inkscape="http://www.inkscape.org/namespaces/inkscape"
   width="210mm"
   height="297mm"
   viewBox="0 0 210 297"
   version="1.1"
   id="svg8"
   inkscape:version="0.92.5 (2060ec1f9f, 2020-04-08)"
   sodipodi:docname="interf_electrons_young.svg">
  <defs
     id="defs2">
    <marker
       inkscape:isstock="true"
       style="overflow:visible;"
       id="marker1941"
       refX="0.0"
       refY="0.0"
       orient="auto"
       inkscape:stockid="Arrow2Lend">
      <path
         transform="scale(1.1) rotate(180) translate(1,0)"
         d="M 8.7185878,4.0337352 L -2.2072895,0.016013256 L 8.7185884,-4.0017078 C 6.9730900,-1.6296469 6.9831476,1.6157441 8.7185878,4.0337352 z "
         style="fill-rule:evenodd;stroke-width:0.625;stroke-linejoin:round;stroke:#000000;stroke-opacity:1;fill:#000000;fill-opacity:1"
         id="path1939" />
    </marker>
    <marker
       inkscape:isstock="true"
       style="overflow:visible"
       id="marker1913"
       refX="0.0"
       refY="0.0"
       orient="auto"
       inkscape:stockid="Arrow2Lstart">
      <path
         transform="scale(1.1) translate(1,0)"
         d="M 8.7185878,4.0337352 L -2.2072895,0.016013256 L 8.7185884,-4.0017078 C 6.9730900,-1.6296469 6.9831476,1.6157441 8.7185878,4.0337352 z "
         style="fill-rule:evenodd;stroke-width:0.625;stroke-linejoin:round;stroke:#000000;stroke-opacity:1;fill:#000000;fill-opacity:1"
         id="path1911" />
    </marker>
    <marker
       inkscape:stockid="Arrow2Lend"
       orient="auto"
       refY="0.0"
       refX="0.0"
       id="Arrow2Lend"
       style="overflow:visible;"
       inkscape:isstock="true"
       inkscape:collect="always">
      <path
         id="path1568"
         style="fill-rule:evenodd;stroke-width:0.625;stroke-linejoin:round;stroke:#000000;stroke-opacity:1;fill:#000000;fill-opacity:1"
         d="M 8.7185878,4.0337352 L -2.2072895,0.016013256 L 8.7185884,-4.0017078 C 6.9730900,-1.6296469 6.9831476,1.6157441 8.7185878,4.0337352 z "
         transform="scale(1.1) rotate(180) translate(1,0)" />
    </marker>
    <marker
       inkscape:stockid="Arrow2Lstart"
       orient="auto"
       refY="0.0"
       refX="0.0"
       id="Arrow2Lstart"
       style="overflow:visible"
       inkscape:isstock="true"
       inkscape:collect="always">
      <path
         id="path1565"
         style="fill-rule:evenodd;stroke-width:0.625;stroke-linejoin:round;stroke:#000000;stroke-opacity:1;fill:#000000;fill-opacity:1"
         d="M 8.7185878,4.0337352 L -2.2072895,0.016013256 L 8.7185884,-4.0017078 C 6.9730900,-1.6296469 6.9831476,1.6157441 8.7185878,4.0337352 z "
         transform="scale(1.1) translate(1,0)" />
    </marker>
  </defs>
  <sodipodi:namedview
     id="base"
     pagecolor="#ffffff"
     bordercolor="#666666"
     borderopacity="1.0"
     inkscape:pageopacity="0.0"
     inkscape:pageshadow="2"
     inkscape:zoom="0.98994949"
     inkscape:cx="624.94969"
     inkscape:cy="677.21501"
     inkscape:document-units="mm"
     inkscape:current-layer="layer1"
     showgrid="false"
     inkscape:window-width="2560"
     inkscape:window-height="1043"
     inkscape:window-x="1920"
     inkscape:window-y="0"
     inkscape:window-maximized="1" />
  <metadata
     id="metadata5">
    <rdf:RDF>
      <cc:Work
         rdf:about="">
        <dc:format>image/svg+xml</dc:format>
        <dc:type
           rdf:resource="http://purl.org/dc/dcmitype/StillImage" />
        <dc:title></dc:title>
      </cc:Work>
    </rdf:RDF>
  </metadata>
  <g
     inkscape:label="Calque 1"
     inkscape:groupmode="layer"
     id="layer1">
    <path
       style="fill:none;stroke:#000000;stroke-width:0.26458332px;stroke-linecap:butt;stroke-linejoin:miter;stroke-opacity:1"
       d="M 73.23185,142.78548 V 80.778952"
       id="path817"
       inkscape:connector-curvature="0" />
    <path
       inkscape:connector-curvature="0"
       id="path819"
       d="M 102.89877,131.29289 V 69.286362"
       style="fill:none;stroke:#000000;stroke-width:0.26458332px;stroke-linecap:butt;stroke-linejoin:miter;stroke-opacity:1" />
    <path
       inkscape:connector-curvature="0"
       id="path821"
       d="m 73.23185,80.778952 29.66692,-11.49259"
       style="fill:none;stroke:#000000;stroke-width:0.26458332px;stroke-linecap:butt;stroke-linejoin:miter;stroke-opacity:1" />
    <path
       style="fill:none;stroke:#000000;stroke-width:0.26458332px;stroke-linecap:butt;stroke-linejoin:miter;stroke-opacity:1"
       d="m 73.23185,142.78548 29.66692,-11.49266"
       id="path823"
       inkscape:connector-curvature="0" />
    <g
       id="g839"
       transform="translate(85.195881)">
      <path
         style="fill:none;stroke:#000000;stroke-width:0.26458332px;stroke-linecap:butt;stroke-linejoin:miter;stroke-opacity:1"
         d="M 73.23185,142.78548 V 80.778952"
         id="path831"
         inkscape:connector-curvature="0" />
      <path
         inkscape:connector-curvature="0"
         id="path833"
         d="M 102.89877,131.29289 V 69.286362"
         style="fill:none;stroke:#000000;stroke-width:0.26458332px;stroke-linecap:butt;stroke-linejoin:miter;stroke-opacity:1" />
      <path
         inkscape:connector-curvature="0"
         id="path835"
         d="m 73.23185,80.778952 29.66692,-11.49259"
         style="fill:none;stroke:#000000;stroke-width:0.26458332px;stroke-linecap:butt;stroke-linejoin:miter;stroke-opacity:1" />
      <path
         style="fill:none;stroke:#000000;stroke-width:0.26458332px;stroke-linecap:butt;stroke-linejoin:miter;stroke-opacity:1"
         d="m 73.23185,142.78548 29.66692,-11.49266"
         id="path837"
         inkscape:connector-curvature="0" />
    </g>
    <g
       id="g906"
       transform="translate(0,3.1750001)">
      <path
         inkscape:connector-curvature="0"
         id="path890"
         d="m 77.7686,105.27158 v -4.34673"
         style="fill:none;stroke:#000000;stroke-width:0.26458332px;stroke-linecap:butt;stroke-linejoin:miter;stroke-opacity:1" />
      <path
         inkscape:connector-curvature="0"
         id="path896"
         d="M 77.77681,100.93815 99.042382,92.726255"
         style="fill:none;stroke:#000000;stroke-width:0.26458332px;stroke-linecap:butt;stroke-linejoin:miter;stroke-opacity:1" />
      <path
         style="fill:none;stroke:#000000;stroke-width:0.26458332px;stroke-linecap:butt;stroke-linejoin:miter;stroke-opacity:1"
         d="m 99.042382,97.072985 v -4.34673"
         id="path898"
         inkscape:connector-curvature="0" />
      <path
         style="fill:none;stroke:#000000;stroke-width:0.26458332px;stroke-linecap:butt;stroke-linejoin:miter;stroke-opacity:1"
         d="M 77.77681,105.28488 99.042382,97.072985"
         id="path900"
         inkscape:connector-curvature="0" />
    </g>
    <g
       id="g916"
       transform="translate(0,12.170835)">
      <path
         style="fill:none;stroke:#000000;stroke-width:0.26458332px;stroke-linecap:butt;stroke-linejoin:miter;stroke-opacity:1"
         d="m 77.7686,105.27158 v -4.34673"
         id="path908"
         inkscape:connector-curvature="0" />
      <path
         style="fill:none;stroke:#000000;stroke-width:0.26458332px;stroke-linecap:butt;stroke-linejoin:miter;stroke-opacity:1"
         d="M 77.77681,100.93815 99.042382,92.726255"
         id="path910"
         inkscape:connector-curvature="0" />
      <path
         inkscape:connector-curvature="0"
         id="path912"
         d="m 99.042382,97.072985 v -4.34673"
         style="fill:none;stroke:#000000;stroke-width:0.26458332px;stroke-linecap:butt;stroke-linejoin:miter;stroke-opacity:1" />
      <path
         inkscape:connector-curvature="0"
         id="path914"
         d="M 77.77681,105.28488 99.042382,97.072985"
         style="fill:none;stroke:#000000;stroke-width:0.26458332px;stroke-linecap:butt;stroke-linejoin:miter;stroke-opacity:1" />
    </g>
    <circle
       style="fill:#000000;fill-rule:evenodd;stroke:#000000;stroke-width:0.26458332"
       id="path815"
       cx="10.205358"
       cy="106.23541"
       r="3" />
    <path
       style="fill:#000000;stroke:#000000;stroke-width:0.26499999;stroke-linecap:butt;stroke-linejoin:miter;stroke-miterlimit:4;stroke-dasharray:0.26499999, 1.05999995;stroke-dashoffset:0;stroke-opacity:1"
       d="M 89.958333,106.4244 H 175.19196"
       id="path918"
       inkscape:connector-curvature="0" />
    <g
       id="g968"
       transform="matrix(0.5,0,0,0.49999999,-15.212892,54.304708)"
       style="stroke-width:2">
      <g
         word-spacing="normal"
         letter-spacing="normal"
         font-size-adjust="none"
         font-stretch="normal"
         font-weight="normal"
         font-variant="normal"
         font-style="normal"
         stroke-miterlimit="10.433"
         xml:space="preserve"
         transform="matrix(0.3,0,0,-0.3,-52.5,222.75)"
         id="content"
         style="font-style:normal;font-variant:normal;font-weight:normal;font-stretch:normal;letter-spacing:normal;word-spacing:normal;text-anchor:start;fill:none;fill-opacity:1;fill-rule:evenodd;stroke:#000000;stroke-width:4;stroke-linecap:butt;stroke-linejoin:miter;stroke-miterlimit:10.43299961;stroke-dasharray:none;stroke-dashoffset:0;stroke-opacity:1"><path
           id="path949"
           d="m 464.24,427.67 v 5.78 c 0,4.39 2.39,6.78 4.58,6.78 0.15,0 0.9,0 1.65,-0.36 -0.61,-0.19 -1.5,-0.84 -1.5,-2.08 0,-1.15 0.8,-2.15 2.14,-2.15 1.44,0 2.19,1 2.19,2.2 0,1.84 -1.84,3.48 -4.48,3.48 -3.49,0 -7.72,-2.64 -7.72,-7.92 v -5.73 h -3.94 v -1.55 h 3.94 v -16.14 c 0,-2.23 -0.55,-2.23 -3.89,-2.23 v -1.55 c 1.95,0.05 4.29,0.16 5.68,0.16 1.99,0 4.33,0 6.33,-0.16 v 1.55 h -1.04 c -3.69,0 -3.79,0.54 -3.79,2.34 v 16.03 h 5.68 v 1.55 z"
           inkscape:connector-curvature="0"
           style="fill:#000000;stroke-width:0" /><path
           id="path951"
           d="m 487.35,409.98 0.02,-0.19 0.03,-0.18 0.04,-0.19 0.04,-0.18 0.05,-0.19 0.06,-0.18 0.06,-0.18 0.07,-0.18 0.07,-0.18 0.08,-0.17 0.09,-0.18 0.09,-0.16 0.1,-0.16 0.11,-0.16 0.11,-0.16 0.12,-0.14 0.13,-0.14 0.13,-0.14 0.14,-0.13 0.14,-0.12 0.16,-0.12 0.15,-0.1 0.16,-0.1 0.17,-0.09 0.18,-0.08 0.18,-0.07 0.19,-0.06 0.19,-0.05 0.2,-0.04 0.2,-0.03 0.22,-0.02 0.21,-0.01 c 1.03,0 4.08,0.71 4.08,4.74 v 2.78 h -1.25 v -2.78 c 0,-2.89 -1.23,-3.19 -1.8,-3.19 -1.64,0 -1.84,2.23 -1.84,2.48 v 9.97 c 0,2.1 0,4.03 -1.78,5.88 -1.95,1.93 -4.44,2.73 -6.83,2.73 -4.09,0 -7.53,-2.33 -7.53,-5.62 0,-1.49 1,-2.35 2.3,-2.35 1.39,0 2.29,1 2.29,2.3 0,0.59 -0.25,2.23 -2.54,2.3 1.34,1.73 3.78,2.28 5.37,2.28 2.45,0 5.28,-1.94 5.28,-6.38 v -1.84 -1.05 -4.98 c 0,-4.74 -3.58,-6.42 -5.83,-6.42 -2.43,0 -4.48,1.75 -4.48,4.23 0,2.73 2.09,6.88 10.31,7.17 v 0 1.05 c -2.53,-0.14 -6.01,-0.3 -9.15,-1.8 -3.74,-1.69 -4.99,-4.28 -4.99,-6.47 0,-4.03 4.83,-5.28 7.97,-5.28 3.3,0 5.58,1.99 6.53,4.33 z"
           inkscape:connector-curvature="0"
           style="fill:#000000;stroke-width:0" /><path
           id="path953"
           d="m 504.53,428.21 -6.97,-0.54 v -1.55 c 3.23,0 3.69,-0.3 3.69,-2.73 v -13.41 c 0,-2.23 -0.55,-2.23 -3.89,-2.23 v -1.55 c 1.59,0.05 4.28,0.16 5.48,0.16 1.75,0 3.48,-0.11 5.19,-0.16 v 1.55 c -3.3,0 -3.5,0.25 -3.5,2.18 z"
           inkscape:connector-curvature="0"
           style="fill:#000000;stroke-width:0" /><path
           id="path955"
           d="m 504.73,436.89 v 0.14 l -0.01,0.15 -0.02,0.14 -0.03,0.14 -0.03,0.13 -0.03,0.13 -0.05,0.13 -0.05,0.12 -0.05,0.12 -0.06,0.12 -0.07,0.11 -0.07,0.1 -0.07,0.1 -0.08,0.1 -0.09,0.1 -0.09,0.08 -0.09,0.09 -0.1,0.08 -0.1,0.07 -0.1,0.07 -0.11,0.07 -0.11,0.06 -0.12,0.05 -0.11,0.05 -0.12,0.04 -0.12,0.04 -0.12,0.03 -0.13,0.03 -0.12,0.02 -0.13,0.01 -0.13,0.01 -0.13,0.01 c -1.55,0 -2.64,-1.35 -2.64,-2.64 0,-1.35 1.09,-2.64 2.64,-2.64 1.39,0 2.64,1.04 2.64,2.64 z"
           inkscape:connector-curvature="0"
           style="fill:#000000;stroke-width:0" /><path
           id="path957"
           d="m 519.87,415.87 0.11,-0.02 0.13,-0.02 0.14,-0.03 0.16,-0.04 0.17,-0.04 0.18,-0.04 0.19,-0.05 0.19,-0.06 0.21,-0.06 0.21,-0.07 0.21,-0.08 0.22,-0.08 0.22,-0.1 0.23,-0.1 0.22,-0.11 0.22,-0.12 0.21,-0.14 0.21,-0.14 0.21,-0.15 0.2,-0.16 0.19,-0.18 0.18,-0.19 0.17,-0.2 0.15,-0.21 0.15,-0.22 0.06,-0.12 0.06,-0.12 0.06,-0.13 0.06,-0.12 0.05,-0.14 0.04,-0.13 0.04,-0.14 0.04,-0.14 0.03,-0.15 0.02,-0.15 0.02,-0.16 0.02,-0.15 0.01,-0.17 v -0.16 c 0,-2.53 -1.75,-4.53 -5.63,-4.53 -4.18,0 -5.98,2.84 -6.93,7.07 -0.15,0.64 -0.19,0.85 -0.69,0.85 -0.66,0 -0.66,-0.35 -0.66,-1.25 v -6.58 c 0,-0.84 0,-1.19 0.55,-1.19 0.25,0 0.3,0.05 1.25,1 0.09,0.1 0.09,0.19 1,1.14 2.19,-2.09 4.44,-2.14 5.48,-2.14 5.72,0 8.02,3.35 8.02,6.92 0,2.64 -1.5,4.14 -2.1,4.74 -1.63,1.59 -3.59,2 -5.68,2.39 -2.78,0.55 -6.13,1.2 -6.13,4.09 0,1.74 1.3,3.78 5.58,3.78 5.48,0 5.73,-4.48 5.83,-6.03 0.06,-0.45 0.5,-0.45 0.61,-0.45 0.64,0 0.64,0.25 0.64,1.2 v 5.03 c 0,0.85 0,1.19 -0.55,1.19 -0.25,0 -0.34,0 -1,-0.59 -0.14,-0.21 -0.64,-0.64 -0.84,-0.8 -1.89,1.39 -3.94,1.39 -4.69,1.39 -6.08,0 -7.97,-3.33 -7.97,-6.12 0,-1.74 0.8,-3.14 2.14,-4.24 1.6,-1.29 3,-1.59 6.58,-2.28 z"
           inkscape:connector-curvature="0"
           style="fill:#000000;stroke-width:0" /><path
           id="path959"
           d="m 535.02,417.06 v 0.38 l 0.01,0.36 0.02,0.36 0.02,0.35 0.02,0.34 0.03,0.34 0.04,0.32 0.04,0.32 0.05,0.31 0.05,0.3 0.05,0.29 0.07,0.29 0.13,0.55 0.15,0.51 0.17,0.49 0.18,0.46 0.2,0.43 0.2,0.4 0.22,0.38 0.24,0.35 0.24,0.32 0.25,0.3 0.25,0.28 0.27,0.26 0.27,0.23 0.27,0.21 0.28,0.19 0.28,0.16 0.28,0.15 0.29,0.13 0.28,0.12 0.28,0.09 0.28,0.08 0.28,0.06 0.27,0.05 0.26,0.03 0.26,0.02 0.25,0.01 c 0.44,0 3.58,-0.05 5.33,-1.85 -2.05,-0.15 -2.34,-1.64 -2.34,-2.29 0,-1.3 0.89,-2.3 2.29,-2.3 1.29,0 2.29,0.86 2.29,2.34 0,3.39 -3.79,5.33 -7.63,5.33 -6.22,0 -10.81,-5.37 -10.81,-11.55 0,-6.37 4.94,-11.31 10.72,-11.31 6.67,0 8.26,5.99 8.26,6.47 0,0.5 -0.5,0.5 -0.64,0.5 -0.45,0 -0.54,-0.19 -0.65,-0.5 -1.44,-4.62 -4.67,-5.22 -6.52,-5.22 -2.64,0 -7.03,2.14 -7.03,10.16 z"
           inkscape:connector-curvature="0"
           style="fill:#000000;stroke-width:0" /><path
           id="path961"
           d="m 556.8,417.71 0.05,1.05 c 0.3,7.42 4.48,8.66 6.18,8.66 5.13,0 5.63,-6.72 5.63,-8.66 h -11.81 l -0.05,-1.05 h 13.91 c 1.09,0 1.23,0 1.23,1.05 0,4.92 -2.69,9.75 -8.91,9.75 -5.78,0 -10.37,-5.12 -10.37,-11.36 0,-6.67 5.24,-11.5 10.97,-11.5 6.08,0 8.31,5.53 8.31,6.47 0,0.5 -0.39,0.61 -0.64,0.61 -0.45,0 -0.55,-0.3 -0.65,-0.7 -1.74,-5.13 -6.22,-5.13 -6.72,-5.13 -2.5,0 -4.49,1.49 -5.63,3.33 -1.5,2.39 -1.5,5.69 -1.5,7.48 z"
           inkscape:connector-curvature="0"
           style="fill:#000000;stroke-width:0" /><path
           id="path963"
           d="m 589.94,409.98 0.02,-0.19 0.03,-0.18 0.04,-0.19 0.04,-0.18 0.05,-0.19 0.05,-0.18 0.07,-0.18 0.07,-0.18 0.07,-0.18 0.08,-0.17 0.09,-0.18 0.09,-0.16 0.1,-0.16 0.11,-0.16 0.11,-0.16 0.12,-0.14 0.13,-0.14 0.13,-0.14 0.14,-0.13 0.14,-0.12 0.16,-0.12 0.15,-0.1 0.16,-0.1 0.17,-0.09 0.18,-0.08 0.18,-0.07 0.19,-0.06 0.19,-0.05 0.2,-0.04 0.2,-0.03 0.22,-0.02 0.21,-0.01 c 1.03,0 4.08,0.71 4.08,4.74 v 2.78 h -1.25 v -2.78 c 0,-2.89 -1.23,-3.19 -1.8,-3.19 -1.64,0 -1.84,2.23 -1.84,2.48 v 9.97 c 0,2.1 0,4.03 -1.78,5.88 -1.96,1.93 -4.44,2.73 -6.83,2.73 -4.09,0 -7.53,-2.33 -7.53,-5.62 0,-1.49 1,-2.35 2.3,-2.35 1.39,0 2.29,1 2.29,2.3 0,0.59 -0.25,2.23 -2.54,2.3 1.34,1.73 3.78,2.28 5.37,2.28 2.45,0 5.28,-1.94 5.28,-6.38 v -1.84 -1.05 -4.98 c 0,-4.74 -3.58,-6.42 -5.83,-6.42 -2.43,0 -4.48,1.75 -4.48,4.23 0,2.73 2.09,6.88 10.31,7.17 v 0 1.05 c -2.53,-0.14 -6.01,-0.3 -9.15,-1.8 -3.74,-1.69 -4.99,-4.28 -4.99,-6.47 0,-4.03 4.83,-5.28 7.97,-5.28 3.3,0 5.58,1.99 6.53,4.33 z"
           inkscape:connector-curvature="0"
           style="fill:#000000;stroke-width:0" /><path
           id="path965"
           d="m 617.79,410.14 v -4.49 l 7.17,0.55 v 1.55 c -3.48,0 -3.89,0.34 -3.89,2.78 v 17.68 l -7.33,-0.54 v -1.55 c 3.5,0 3.89,-0.34 3.89,-2.78 v -8.88 c 0,-4.32 -2.39,-7.71 -6.03,-7.71 -4.17,0 -4.37,2.34 -4.37,4.93 v 16.53 l -7.33,-0.54 v -1.55 c 3.89,0 3.89,-0.14 3.89,-4.58 v -7.47 c 0,-3.89 0,-8.42 7.56,-8.42 2.8,0 4.99,1.39 6.44,4.49 z"
           inkscape:connector-curvature="0"
           style="fill:#000000;stroke-width:0" /></g>    </g>
    <g
       id="g1045"
       transform="matrix(0.5,0,0,0.49999999,-19.269435,62.35616)"
       style="stroke-width:2">
      <g
         word-spacing="normal"
         letter-spacing="normal"
         font-size-adjust="none"
         font-stretch="normal"
         font-weight="normal"
         font-variant="normal"
         font-style="normal"
         stroke-miterlimit="10.433"
         xml:space="preserve"
         transform="matrix(0.3,0,0,-0.3,-52.5,222.75)"
         id="g1043"
         style="font-style:normal;font-variant:normal;font-weight:normal;font-stretch:normal;letter-spacing:normal;word-spacing:normal;text-anchor:start;fill:none;fill-opacity:1;fill-rule:evenodd;stroke:#000000;stroke-width:2;stroke-linecap:butt;stroke-linejoin:miter;stroke-miterlimit:10.43299961;stroke-dasharray:none;stroke-dashoffset:0;stroke-opacity:1"><path
           id="path1019"
           d="m 474.46,408.93 v -3.28 l 7.31,0.55 v 1.55 c -3.48,0 -3.88,0.34 -3.88,2.78 v 30.25 l -7.17,-0.55 v -1.55 c 3.49,0 3.88,-0.34 3.88,-2.79 v -10.75 c -1.44,1.78 -3.58,3.07 -6.28,3.07 l 0.2,-1.09 c 1.75,0 3.84,-0.75 5.39,-2.98 0.55,-0.85 0.55,-0.96 0.55,-1.85 v 0 -10.22 c 0,-0.89 0,-1 -0.55,-1.84 -1.5,-2.39 -3.75,-3.48 -5.89,-3.48 -2.23,0 -4.03,1.29 -5.22,3.18 -1.3,2.05 -1.45,4.89 -1.45,6.93 0,1.84 0.09,4.84 1.54,7.07 1.05,1.55 2.94,3.19 5.63,3.19 l -0.2,1.09 c -5.88,0 -11.11,-4.87 -11.11,-11.29 0,-6.33 4.89,-11.27 10.56,-11.27 3.19,0 5.44,1.69 6.69,3.28 z"
           inkscape:connector-curvature="0"
           style="fill:#000000;stroke-width:0" /><path
           id="path1021"
           d="m 493.5,435.54 v 0.28 l -0.01,0.27 -0.02,0.27 -0.02,0.26 -0.03,0.26 -0.04,0.25 -0.05,0.25 -0.05,0.24 -0.06,0.23 -0.06,0.23 -0.07,0.22 -0.08,0.21 -0.08,0.2 -0.09,0.2 -0.1,0.19 -0.11,0.18 -0.1,0.17 -0.12,0.16 -0.12,0.15 -0.13,0.15 -0.14,0.13 -0.14,0.12 -0.14,0.12 -0.15,0.1 -0.16,0.09 -0.17,0.08 -0.17,0.07 -0.17,0.05 -0.18,0.05 -0.19,0.03 -0.19,0.02 -0.2,0.01 c -1.73,0 -2.64,-1.35 -2.64,-2.64 0,-1.3 0.84,-2.64 2.64,-2.64 1,0 1.7,0.5 2,0.79 0.05,0.1 0.09,0.14 0.14,0.14 0.11,0 0.11,-0.68 0.11,-0.89 0,-1.59 -0.36,-5.18 -3.5,-8.26 -0.59,-0.6 -0.59,-0.71 -0.59,-0.85 0,-0.36 0.25,-0.56 0.5,-0.56 0.54,0 4.68,3.8 4.68,9.67 z"
           inkscape:connector-curvature="0"
           style="fill:#000000;stroke-width:0" /><path
           id="path1023"
           d="m 514.28,437.68 0.04,0.04 0.04,0.03 0.08,0.07 0.08,0.08 0.08,0.08 0.07,0.08 0.04,0.05 0.03,0.04 0.03,0.05 0.04,0.04 0.03,0.05 0.03,0.05 0.03,0.05 0.02,0.05 0.03,0.05 0.02,0.05 0.03,0.05 0.02,0.05 0.02,0.05 0.01,0.06 0.02,0.05 0.01,0.05 0.02,0.06 0.01,0.05 v 0.06 l 0.01,0.05 v 0.06 0.05 c 0,0.89 -0.89,1.8 -1.79,1.8 -0.75,0 -1.3,-0.55 -1.5,-0.86 l -5.97,-7.61 0.84,-0.9 z"
           inkscape:connector-curvature="0"
           style="fill:#000000;stroke-width:0" /><path
           id="path1025"
           d="m 502.56,417.71 0.05,1.05 c 0.3,7.42 4.48,8.66 6.19,8.66 5.12,0 5.62,-6.72 5.62,-8.66 h -11.81 l -0.05,-1.05 h 13.91 c 1.09,0 1.23,0 1.23,1.05 0,4.92 -2.68,9.75 -8.9,9.75 -5.78,0 -10.38,-5.12 -10.38,-11.36 0,-6.67 5.24,-11.5 10.97,-11.5 6.08,0 8.31,5.53 8.31,6.47 0,0.5 -0.39,0.61 -0.64,0.61 -0.45,0 -0.54,-0.3 -0.65,-0.7 -1.74,-5.13 -6.22,-5.13 -6.72,-5.13 -2.5,0 -4.49,1.49 -5.63,3.33 -1.5,2.39 -1.5,5.69 -1.5,7.48 z"
           inkscape:connector-curvature="0"
           style="fill:#000000;stroke-width:0" /><path
           id="path1027"
           d="m 527.92,440.78 -7.17,-0.55 v -1.55 c 3.48,0 3.89,-0.34 3.89,-2.79 v -25.91 c 0,-2.23 -0.55,-2.23 -3.89,-2.23 v -1.55 c 1.64,0.05 4.28,0.16 5.53,0.16 1.25,0 3.69,-0.11 5.53,-0.16 v 1.55 c -3.34,0 -3.89,0 -3.89,2.23 z"
           inkscape:connector-curvature="0"
           style="fill:#000000;stroke-width:0" /><path
           id="path1029"
           d="m 538.44,417.71 0.04,1.05 c 0.3,7.42 4.49,8.66 6.19,8.66 5.13,0 5.63,-6.72 5.63,-8.66 h -11.82 l -0.04,-1.05 h 13.9 c 1.1,0 1.24,0 1.24,1.05 0,4.92 -2.69,9.75 -8.91,9.75 -5.78,0 -10.37,-5.12 -10.37,-11.36 0,-6.67 5.23,-11.5 10.97,-11.5 6.07,0 8.31,5.53 8.31,6.47 0,0.5 -0.39,0.61 -0.64,0.61 -0.46,0 -0.55,-0.3 -0.66,-0.7 -1.73,-5.13 -6.22,-5.13 -6.72,-5.13 -2.5,0 -4.48,1.49 -5.62,3.33 -1.5,2.39 -1.5,5.69 -1.5,7.48 z"
           inkscape:connector-curvature="0"
           style="fill:#000000;stroke-width:0" /><path
           id="path1031"
           d="m 560.81,417.06 0.01,0.38 v 0.36 l 0.02,0.36 0.02,0.35 0.03,0.34 0.03,0.34 0.03,0.32 0.04,0.32 0.05,0.31 0.05,0.3 0.06,0.29 0.06,0.29 0.13,0.55 0.15,0.51 0.17,0.49 0.18,0.46 0.2,0.43 0.21,0.4 0.22,0.38 0.23,0.35 0.24,0.32 0.25,0.3 0.26,0.28 0.26,0.26 0.27,0.23 0.28,0.21 0.27,0.19 0.28,0.16 0.29,0.15 0.28,0.13 0.28,0.12 0.28,0.09 0.28,0.08 0.28,0.06 0.27,0.05 0.27,0.03 0.26,0.02 0.25,0.01 c 0.43,0 3.57,-0.05 5.33,-1.85 -2.05,-0.15 -2.35,-1.64 -2.35,-2.29 0,-1.3 0.89,-2.3 2.3,-2.3 1.28,0 2.28,0.86 2.28,2.34 0,3.39 -3.78,5.33 -7.63,5.33 -6.21,0 -10.81,-5.37 -10.81,-11.55 0,-6.37 4.94,-11.31 10.72,-11.31 6.67,0 8.27,5.99 8.27,6.47 0,0.5 -0.5,0.5 -0.64,0.5 -0.46,0 -0.55,-0.19 -0.66,-0.5 -1.44,-4.62 -4.67,-5.22 -6.52,-5.22 -2.64,0 -7.03,2.14 -7.03,10.16 z"
           inkscape:connector-curvature="0"
           style="fill:#000000;stroke-width:0" /><path
           id="path1033"
           d="m 585.69,426.12 h 7.12 v 1.55 h -7.12 v 9.17 h -1.25 c -0.05,-4.08 -1.55,-9.42 -6.42,-9.61 v -1.11 h 4.23 v -13.75 c 0,-6.12 4.63,-6.72 6.42,-6.72 3.53,0 4.94,3.53 4.94,6.72 v 2.84 h -1.25 v -2.73 c 0,-3.69 -1.5,-5.58 -3.34,-5.58 -3.33,0 -3.33,4.53 -3.33,5.38 z"
           inkscape:connector-curvature="0"
           style="fill:#000000;stroke-width:0" /><path
           id="path1035"
           d="m 604.69,422.75 v 5.46 l -6.92,-0.54 v -1.55 c 3.48,0 3.89,-0.34 3.89,-2.78 v -13.36 c 0,-2.23 -0.55,-2.23 -3.89,-2.23 v -1.55 c 1.95,0.05 4.28,0.16 5.69,0.16 1.98,0 4.32,0 6.32,-0.16 v 1.55 h -1.04 c -3.69,0 -3.8,0.54 -3.8,2.34 v 7.67 c 0,4.92 2.09,9.36 5.89,9.36 0.35,0 0.44,0 0.55,-0.05 -0.16,-0.04 -1.16,-0.64 -1.16,-1.93 0,-1.41 1.05,-2.14 2.16,-2.14 0.89,0 2.14,0.59 2.14,2.18 0,1.6 -1.55,3.03 -3.69,3.03 -3.64,0 -5.43,-3.32 -6.14,-5.46 z"
           inkscape:connector-curvature="0"
           style="fill:#000000;stroke-width:0" /><path
           id="path1037"
           d="m 639.41,416.86 -0.02,0.59 -0.04,0.59 -0.07,0.58 -0.1,0.57 -0.12,0.56 -0.15,0.55 -0.18,0.54 -0.2,0.53 -0.22,0.51 -0.24,0.5 -0.27,0.49 -0.29,0.47 -0.31,0.46 -0.33,0.44 -0.34,0.43 -0.37,0.4 -0.38,0.39 -0.4,0.37 -0.42,0.35 -0.43,0.32 -0.45,0.31 -0.46,0.28 -0.48,0.26 -0.48,0.24 -0.5,0.21 -0.51,0.18 -0.52,0.16 -0.53,0.13 -0.54,0.11 -0.55,0.07 -0.56,0.05 -0.56,0.01 -0.05,-1.09 c 2.19,0 4.33,-1.1 5.63,-3.24 1.3,-2.14 1.3,-5.03 1.3,-6.92 0,-1.8 0,-4.48 -1.1,-6.67 -1.09,-2.25 -3.28,-3.69 -5.78,-3.69 v 0 c -2.14,0 -4.33,1.05 -5.67,3.33 -1.25,2.2 -1.25,5.23 -1.25,7.03 0,1.94 0,4.63 1.19,6.83 1.36,2.28 3.68,3.33 5.68,3.33 l 0.05,1.09 c -6.22,0 -11.06,-5.42 -11.06,-11.65 0,-6.43 5.19,-11.21 11.01,-11.21 6.04,0 11.07,4.88 11.07,11.21 z"
           inkscape:connector-curvature="0"
           style="fill:#000000;stroke-width:0" /><path
           id="path1039"
           d="m 646.38,423.34 v -13.36 c 0,-2.23 -0.55,-2.23 -3.89,-2.23 v -1.55 c 1.75,0.05 4.28,0.16 5.62,0.16 1.3,0 3.89,-0.11 5.58,-0.16 v 1.55 c -3.33,0 -3.87,0 -3.87,2.23 v 9.17 c 0,5.19 3.53,7.97 6.71,7.97 3.15,0 3.69,-2.69 3.69,-5.53 v -11.61 c 0,-2.23 -0.54,-2.23 -3.89,-2.23 v -1.55 c 1.75,0.05 4.3,0.16 5.64,0.16 1.3,0 3.88,-0.11 5.58,-0.16 v 1.55 c -2.59,0 -3.84,0 -3.89,1.5 v 9.51 c 0,4.28 0,5.83 -1.55,7.61 -0.68,0.86 -2.34,1.84 -5.21,1.84 -3.65,0 -5.99,-2.14 -7.38,-5.21 v 5.21 l -7.03,-0.54 v -1.55 c 3.48,0 3.89,-0.34 3.89,-2.78 z"
           inkscape:connector-curvature="0"
           style="fill:#000000;stroke-width:0" /><path
           id="path1041"
           d="m 678.97,415.87 0.11,-0.02 0.13,-0.02 0.14,-0.03 0.16,-0.04 0.17,-0.04 0.18,-0.04 0.19,-0.05 0.19,-0.06 0.21,-0.06 0.21,-0.07 0.22,-0.08 0.21,-0.08 0.23,-0.1 0.22,-0.1 0.22,-0.11 0.22,-0.12 0.21,-0.14 0.21,-0.14 0.21,-0.15 0.2,-0.16 0.19,-0.18 0.18,-0.19 0.17,-0.2 0.15,-0.21 0.15,-0.22 0.06,-0.12 0.06,-0.12 0.06,-0.13 0.06,-0.12 0.05,-0.14 0.04,-0.13 0.04,-0.14 0.04,-0.14 0.03,-0.15 0.02,-0.15 0.02,-0.16 0.02,-0.15 0.01,-0.17 v -0.16 c 0,-2.53 -1.75,-4.53 -5.63,-4.53 -4.18,0 -5.98,2.84 -6.93,7.07 -0.14,0.64 -0.19,0.85 -0.69,0.85 -0.66,0 -0.66,-0.35 -0.66,-1.25 v -6.58 c 0,-0.84 0,-1.19 0.55,-1.19 0.25,0 0.3,0.05 1.25,1 0.1,0.1 0.1,0.19 1,1.14 2.19,-2.09 4.44,-2.14 5.48,-2.14 5.72,0 8.02,3.35 8.02,6.92 0,2.64 -1.5,4.14 -2.09,4.74 -1.64,1.59 -3.6,2 -5.69,2.39 -2.78,0.55 -6.12,1.2 -6.12,4.09 0,1.74 1.29,3.78 5.57,3.78 5.49,0 5.74,-4.48 5.83,-6.03 0.06,-0.45 0.5,-0.45 0.61,-0.45 0.64,0 0.64,0.25 0.64,1.2 v 5.03 c 0,0.85 0,1.19 -0.55,1.19 -0.25,0 -0.34,0 -1,-0.59 -0.14,-0.21 -0.64,-0.64 -0.84,-0.8 -1.89,1.39 -3.94,1.39 -4.69,1.39 -6.07,0 -7.97,-3.33 -7.97,-6.12 0,-1.74 0.8,-3.14 2.15,-4.24 1.59,-1.29 3,-1.59 6.57,-2.28 z"
           inkscape:connector-curvature="0"
           style="fill:#000000;stroke-width:0" /></g>    </g>
    <g
       id="g1133"
       transform="matrix(0.5,0,0,0.49999999,42.162603,93.889994)"
       style="stroke-width:2">
      <g
         word-spacing="normal"
         letter-spacing="normal"
         font-size-adjust="none"
         font-stretch="normal"
         font-weight="normal"
         font-variant="normal"
         font-style="normal"
         stroke-miterlimit="10.433"
         xml:space="preserve"
         transform="matrix(0.3,0,0,-0.3,-52.5,222.75)"
         id="g1131"
         style="font-style:normal;font-variant:normal;font-weight:normal;font-stretch:normal;letter-spacing:normal;word-spacing:normal;text-anchor:start;fill:none;fill-opacity:1;fill-rule:evenodd;stroke:#000000;stroke-width:4;stroke-linecap:butt;stroke-linejoin:miter;stroke-miterlimit:10.43299961;stroke-dasharray:none;stroke-dashoffset:0;stroke-opacity:1"><path
           id="path1113"
           d="m 464.08,424.98 v 15.8 l -7.17,-0.55 v -1.55 c 3.48,0 3.89,-0.34 3.89,-2.79 V 406.2 h 1.25 c 0.05,0.05 0.44,0.75 1.78,3.09 0.75,-1.15 2.85,-3.64 6.53,-3.64 l -0.2,1.1 c -2.23,0 -4.03,1.2 -5.22,3.04 -0.7,1.05 -0.7,1.19 -0.7,2.08 v 0 10.27 c 0,0.95 0,1 0.55,1.79 1.93,2.8 4.68,3.19 5.87,3.19 2.25,0 4.05,-1.3 5.23,-3.19 1.3,-2.04 1.46,-4.87 1.46,-6.92 0,-1.84 -0.11,-4.83 -1.55,-7.08 -1.05,-1.54 -2.94,-3.18 -5.64,-3.18 l 0.2,-1.1 c 5.94,0 11.11,4.88 11.11,11.31 0,6.33 -4.87,11.25 -10.56,11.25 -3.87,0 -6.03,-2.34 -6.83,-3.23 z"
           inkscape:connector-curvature="0"
           style="fill:#000000;stroke-width:0" /><path
           id="path1115"
           d="m 492.05,428.21 -6.97,-0.54 v -1.55 c 3.24,0 3.69,-0.3 3.69,-2.73 v -13.41 c 0,-2.23 -0.55,-2.23 -3.89,-2.23 v -1.55 c 1.59,0.05 4.28,0.16 5.48,0.16 1.75,0 3.49,-0.11 5.19,-0.16 v 1.55 c -3.3,0 -3.5,0.25 -3.5,2.18 z"
           inkscape:connector-curvature="0"
           style="fill:#000000;stroke-width:0" /><path
           id="path1117"
           d="m 492.25,436.89 v 0.14 l -0.01,0.15 -0.02,0.14 -0.02,0.14 -0.03,0.13 -0.04,0.13 -0.04,0.13 -0.05,0.12 -0.06,0.12 -0.06,0.12 -0.06,0.11 -0.07,0.1 -0.08,0.1 -0.08,0.1 -0.09,0.1 -0.08,0.08 -0.1,0.09 -0.1,0.08 -0.1,0.07 -0.1,0.07 -0.11,0.07 -0.11,0.06 -0.11,0.05 -0.12,0.05 -0.12,0.04 -0.12,0.04 -0.12,0.03 -0.12,0.03 -0.13,0.02 -0.13,0.01 -0.13,0.01 -0.13,0.01 c -1.54,0 -2.64,-1.35 -2.64,-2.64 0,-1.35 1.1,-2.64 2.64,-2.64 1.39,0 2.64,1.04 2.64,2.64 z"
           inkscape:connector-curvature="0"
           style="fill:#000000;stroke-width:0" /><path
           id="path1119"
           d="m 505.75,427.67 v 5.78 c 0,4.39 2.39,6.78 4.58,6.78 0.16,0 0.91,0 1.66,-0.36 -0.61,-0.19 -1.5,-0.84 -1.5,-2.08 0,-1.15 0.8,-2.15 2.14,-2.15 1.44,0 2.19,1 2.19,2.2 0,1.84 -1.85,3.48 -4.49,3.48 -3.48,0 -7.72,-2.64 -7.72,-7.92 v -5.73 h -3.93 v -1.55 h 3.93 v -16.14 c 0,-2.23 -0.54,-2.23 -3.89,-2.23 v -1.55 c 1.96,0.05 4.3,0.16 5.69,0.16 1.98,0 4.33,0 6.33,-0.16 v 1.55 h -1.05 c -3.69,0 -3.78,0.54 -3.78,2.34 v 16.03 h 5.67 v 1.55 z"
           inkscape:connector-curvature="0"
           style="fill:#000000;stroke-width:0" /><path
           id="path1121"
           d="m 517.8,417.71 0.05,1.05 c 0.3,7.42 4.49,8.66 6.19,8.66 5.12,0 5.62,-6.72 5.62,-8.66 h -11.81 l -0.05,-1.05 h 13.91 c 1.09,0 1.24,0 1.24,1.05 0,4.92 -2.69,9.75 -8.91,9.75 -5.78,0 -10.38,-5.12 -10.38,-11.36 0,-6.67 5.24,-11.5 10.97,-11.5 6.08,0 8.32,5.53 8.32,6.47 0,0.5 -0.4,0.61 -0.65,0.61 -0.45,0 -0.54,-0.3 -0.65,-0.7 -1.74,-5.13 -6.22,-5.13 -6.72,-5.13 -2.5,0 -4.48,1.49 -5.63,3.33 -1.5,2.39 -1.5,5.69 -1.5,7.48 z"
           inkscape:connector-curvature="0"
           style="fill:#000000;stroke-width:0" /><path
           id="path1123"
           d="m 539.84,423.34 v -13.36 c 0,-2.23 -0.55,-2.23 -3.89,-2.23 v -1.55 c 1.75,0.05 4.28,0.16 5.62,0.16 1.3,0 3.89,-0.11 5.58,-0.16 v 1.55 c -3.33,0 -3.88,0 -3.88,2.23 v 9.17 c 0,5.19 3.53,7.97 6.72,7.97 3.14,0 3.69,-2.69 3.69,-5.53 v -11.61 c 0,-2.23 -0.55,-2.23 -3.89,-2.23 v -1.55 c 1.75,0.05 4.3,0.16 5.64,0.16 1.3,0 3.87,-0.11 5.58,-0.16 v 1.55 c -2.6,0 -3.85,0 -3.89,1.5 v 9.51 c 0,4.28 0,5.83 -1.55,7.61 -0.69,0.86 -2.34,1.84 -5.22,1.84 -3.64,0 -5.98,-2.14 -7.37,-5.21 v 5.21 l -7.03,-0.54 v -1.55 c 3.48,0 3.89,-0.34 3.89,-2.78 z"
           inkscape:connector-curvature="0"
           style="fill:#000000;stroke-width:0" /><path
           id="path1125"
           d="m 569.25,426.12 h 7.13 v 1.55 h -7.13 v 9.17 H 568 c -0.04,-4.08 -1.54,-9.42 -6.42,-9.61 v -1.11 h 4.24 v -13.75 c 0,-6.12 4.62,-6.72 6.42,-6.72 3.53,0 4.94,3.53 4.94,6.72 v 2.84 h -1.25 v -2.73 c 0,-3.69 -1.5,-5.58 -3.35,-5.58 -3.33,0 -3.33,4.53 -3.33,5.38 z"
           inkscape:connector-curvature="0"
           style="fill:#000000;stroke-width:0" /><path
           id="path1127"
           d="m 585.48,417.71 0.04,1.05 c 0.3,7.42 4.49,8.66 6.19,8.66 5.13,0 5.63,-6.72 5.63,-8.66 h -11.82 l -0.04,-1.05 h 13.9 c 1.1,0 1.24,0 1.24,1.05 0,4.92 -2.69,9.75 -8.91,9.75 -5.78,0 -10.37,-5.12 -10.37,-11.36 0,-6.67 5.23,-11.5 10.96,-11.5 6.08,0 8.32,5.53 8.32,6.47 0,0.5 -0.39,0.61 -0.64,0.61 -0.46,0 -0.55,-0.3 -0.66,-0.7 -1.73,-5.13 -6.22,-5.13 -6.72,-5.13 -2.5,0 -4.48,1.49 -5.62,3.33 -1.5,2.39 -1.5,5.69 -1.5,7.48 z"
           inkscape:connector-curvature="0"
           style="fill:#000000;stroke-width:0" /><path
           id="path1129"
           d="m 612.38,415.87 0.11,-0.02 0.13,-0.02 0.14,-0.03 0.16,-0.04 0.17,-0.04 0.18,-0.04 0.19,-0.05 0.19,-0.06 0.21,-0.06 0.21,-0.07 0.22,-0.08 0.21,-0.08 0.23,-0.1 0.22,-0.1 0.22,-0.11 0.22,-0.12 0.21,-0.14 0.21,-0.14 0.21,-0.15 0.2,-0.16 0.19,-0.18 0.18,-0.19 0.17,-0.2 0.15,-0.21 0.15,-0.22 0.06,-0.12 0.07,-0.12 0.05,-0.13 0.06,-0.12 0.05,-0.14 0.04,-0.13 0.04,-0.14 0.04,-0.14 0.03,-0.15 0.02,-0.15 0.02,-0.16 0.02,-0.15 0.01,-0.17 v -0.16 c 0,-2.53 -1.75,-4.53 -5.62,-4.53 -4.19,0 -5.99,2.84 -6.94,7.07 -0.14,0.64 -0.19,0.85 -0.69,0.85 -0.66,0 -0.66,-0.35 -0.66,-1.25 v -6.58 c 0,-0.84 0,-1.19 0.55,-1.19 0.25,0 0.3,0.05 1.25,1 0.09,0.1 0.09,0.19 1,1.14 2.19,-2.09 4.44,-2.14 5.49,-2.14 5.71,0 8.01,3.35 8.01,6.92 0,2.64 -1.5,4.14 -2.09,4.74 -1.64,1.59 -3.6,2 -5.69,2.39 -2.78,0.55 -6.13,1.2 -6.13,4.09 0,1.74 1.3,3.78 5.58,3.78 5.49,0 5.74,-4.48 5.83,-6.03 0.06,-0.45 0.5,-0.45 0.61,-0.45 0.64,0 0.64,0.25 0.64,1.2 v 5.03 c 0,0.85 0,1.19 -0.55,1.19 -0.25,0 -0.34,0 -1,-0.59 -0.14,-0.21 -0.64,-0.64 -0.84,-0.8 -1.89,1.39 -3.94,1.39 -4.69,1.39 -6.08,0 -7.97,-3.33 -7.97,-6.12 0,-1.74 0.8,-3.14 2.14,-4.24 1.6,-1.29 3,-1.59 6.58,-2.28 z"
           inkscape:connector-curvature="0"
           style="fill:#000000;stroke-width:0" /></g>    </g>
    <g
       id="g1223"
       transform="matrix(0.5,0,0,0.49999999,128.6594,93.190421)"
       style="stroke-width:2">
      <g
         word-spacing="normal"
         letter-spacing="normal"
         font-size-adjust="none"
         font-stretch="normal"
         font-weight="normal"
         font-variant="normal"
         font-style="normal"
         stroke-miterlimit="10.433"
         xml:space="preserve"
         transform="matrix(0.3,0,0,-0.3,-52.5,222.75)"
         id="g1221"
         style="font-style:normal;font-variant:normal;font-weight:normal;font-stretch:normal;letter-spacing:normal;word-spacing:normal;text-anchor:start;fill:none;fill-opacity:1;fill-rule:evenodd;stroke:#000000;stroke-width:2;stroke-linecap:butt;stroke-linejoin:miter;stroke-miterlimit:10.43299961;stroke-dasharray:none;stroke-dashoffset:0;stroke-opacity:1"><path
           id="path1209"
           d="m 472.89,437.68 0.04,0.04 0.04,0.03 0.08,0.07 0.08,0.08 0.07,0.08 0.08,0.08 0.03,0.05 0.04,0.04 0.03,0.05 0.03,0.04 0.03,0.05 0.03,0.05 0.03,0.05 0.03,0.05 0.02,0.05 0.03,0.05 0.02,0.05 0.02,0.05 0.02,0.05 0.02,0.06 0.02,0.05 0.01,0.05 0.01,0.06 0.01,0.05 0.01,0.06 0.01,0.05 v 0.06 0.05 c 0,0.89 -0.89,1.8 -1.8,1.8 -0.75,0 -1.29,-0.55 -1.5,-0.86 l -5.97,-7.61 0.85,-0.9 z"
           inkscape:connector-curvature="0"
           style="fill:#000000;stroke-width:0" /><path
           id="path1211"
           d="m 461.17,417.71 0.04,1.05 c 0.3,7.42 4.49,8.66 6.19,8.66 5.13,0 5.63,-6.72 5.63,-8.66 h -11.82 l -0.04,-1.05 h 13.9 c 1.1,0 1.24,0 1.24,1.05 0,4.92 -2.69,9.75 -8.91,9.75 -5.78,0 -10.37,-5.12 -10.37,-11.36 0,-6.67 5.23,-11.5 10.97,-11.5 6.07,0 8.31,5.53 8.31,6.47 0,0.5 -0.39,0.61 -0.64,0.61 -0.46,0 -0.55,-0.3 -0.66,-0.7 -1.73,-5.13 -6.22,-5.13 -6.72,-5.13 -2.5,0 -4.48,1.49 -5.62,3.33 -1.5,2.39 -1.5,5.69 -1.5,7.48 z"
           inkscape:connector-curvature="0"
           style="fill:#000000;stroke-width:0" /><path
           id="path1213"
           d="m 483.54,417.06 0.01,0.38 v 0.36 l 0.02,0.36 0.02,0.35 0.03,0.34 0.03,0.34 0.03,0.32 0.04,0.32 0.05,0.31 0.05,0.3 0.06,0.29 0.06,0.29 0.13,0.55 0.15,0.51 0.17,0.49 0.18,0.46 0.2,0.43 0.21,0.4 0.22,0.38 0.23,0.35 0.24,0.32 0.25,0.3 0.26,0.28 0.26,0.26 0.27,0.23 0.28,0.21 0.27,0.19 0.29,0.16 0.28,0.15 0.28,0.13 0.28,0.12 0.29,0.09 0.27,0.08 0.28,0.06 0.27,0.05 0.27,0.03 0.26,0.02 0.25,0.01 c 0.43,0 3.58,-0.05 5.33,-1.85 -2.05,-0.15 -2.35,-1.64 -2.35,-2.29 0,-1.3 0.89,-2.3 2.3,-2.3 1.28,0 2.28,0.86 2.28,2.34 0,3.39 -3.78,5.33 -7.63,5.33 -6.21,0 -10.81,-5.37 -10.81,-11.55 0,-6.37 4.94,-11.31 10.72,-11.31 6.67,0 8.27,5.99 8.27,6.47 0,0.5 -0.5,0.5 -0.64,0.5 -0.46,0 -0.55,-0.19 -0.66,-0.5 -1.44,-4.62 -4.67,-5.22 -6.52,-5.22 -2.64,0 -7.03,2.14 -7.03,10.16 z"
           inkscape:connector-curvature="0"
           style="fill:#000000;stroke-width:0" /><path
           id="path1215"
           d="m 508.11,422.75 v 5.46 l -6.93,-0.54 v -1.55 c 3.49,0 3.89,-0.34 3.89,-2.78 v -13.36 c 0,-2.23 -0.54,-2.23 -3.89,-2.23 v -1.55 c 1.96,0.05 4.28,0.16 5.69,0.16 1.99,0 4.33,0 6.33,-0.16 v 1.55 h -1.05 c -3.69,0 -3.79,0.54 -3.79,2.34 v 7.67 c 0,4.92 2.09,9.36 5.89,9.36 0.34,0 0.43,0 0.54,-0.05 -0.15,-0.04 -1.15,-0.64 -1.15,-1.93 0,-1.41 1.04,-2.14 2.15,-2.14 0.89,0 2.14,0.59 2.14,2.18 0,1.6 -1.54,3.03 -3.68,3.03 -3.64,0 -5.44,-3.32 -6.14,-5.46 z"
           inkscape:connector-curvature="0"
           style="fill:#000000;stroke-width:0" /><path
           id="path1217"
           d="m 535.95,409.98 0.02,-0.19 0.03,-0.18 0.03,-0.19 0.04,-0.18 0.05,-0.19 0.06,-0.18 0.06,-0.18 0.07,-0.18 0.07,-0.18 0.09,-0.17 0.08,-0.18 0.1,-0.16 0.1,-0.16 0.1,-0.16 0.12,-0.16 0.12,-0.14 0.12,-0.14 0.14,-0.14 0.13,-0.13 0.15,-0.12 0.15,-0.12 0.16,-0.1 0.16,-0.1 0.17,-0.09 0.17,-0.08 0.18,-0.07 0.19,-0.06 0.19,-0.05 0.2,-0.04 0.21,-0.03 0.21,-0.02 0.22,-0.01 c 1.03,0 4.07,0.71 4.07,4.74 v 2.78 h -1.25 v -2.78 c 0,-2.89 -1.23,-3.19 -1.79,-3.19 -1.64,0 -1.85,2.23 -1.85,2.48 v 9.97 c 0,2.1 0,4.03 -1.78,5.88 -1.95,1.93 -4.44,2.73 -6.83,2.73 -4.09,0 -7.53,-2.33 -7.53,-5.62 0,-1.49 1,-2.35 2.3,-2.35 1.39,0 2.3,1 2.3,2.3 0,0.59 -0.25,2.23 -2.55,2.3 1.34,1.73 3.78,2.28 5.37,2.28 2.46,0 5.29,-1.94 5.29,-6.38 v -1.84 -1.05 -4.98 c 0,-4.74 -3.58,-6.42 -5.83,-6.42 -2.44,0 -4.49,1.75 -4.49,4.23 0,2.73 2.1,6.88 10.32,7.17 v 0 1.05 c -2.54,-0.14 -6.02,-0.3 -9.16,-1.8 -3.73,-1.69 -4.98,-4.28 -4.98,-6.47 0,-4.03 4.82,-5.28 7.96,-5.28 3.3,0 5.58,1.99 6.54,4.33 z"
           inkscape:connector-curvature="0"
           style="fill:#000000;stroke-width:0" /><path
           id="path1219"
           d="m 549.79,423.34 v -13.36 c 0,-2.23 -0.54,-2.23 -3.89,-2.23 v -1.55 c 1.75,0.05 4.28,0.16 5.63,0.16 1.29,0 3.89,-0.11 5.57,-0.16 v 1.55 c -3.32,0 -3.87,0 -3.87,2.23 v 9.17 c 0,5.19 3.53,7.97 6.72,7.97 3.14,0 3.69,-2.69 3.69,-5.53 v -11.61 c 0,-2.23 -0.55,-2.23 -3.89,-2.23 v -1.55 c 1.75,0.05 4.29,0.16 5.64,0.16 1.29,0 3.87,-0.11 5.58,-0.16 v 1.55 c -2.6,0 -3.85,0 -3.9,1.5 v 9.51 c 0,4.28 0,5.83 -1.54,7.61 -0.69,0.86 -2.35,1.84 -5.22,1.84 -3.64,0 -5.99,-2.14 -7.38,-5.21 v 5.21 l -7.03,-0.54 v -1.55 c 3.49,0 3.89,-0.34 3.89,-2.78 z"
           inkscape:connector-curvature="0"
           style="fill:#000000;stroke-width:0" /></g>    </g>
    <g
       id="g1330"
       transform="matrix(0.5,0,0,0.49999999,118.12904,99.150257)"
       style="stroke-width:2">
      <g
         word-spacing="normal"
         letter-spacing="normal"
         font-size-adjust="none"
         font-stretch="normal"
         font-weight="normal"
         font-variant="normal"
         font-style="normal"
         stroke-miterlimit="10.433"
         xml:space="preserve"
         transform="matrix(0.3,0,0,-0.3,-52.5,222.75)"
         id="g1328"
         style="font-style:normal;font-variant:normal;font-weight:normal;font-stretch:normal;letter-spacing:normal;word-spacing:normal;text-anchor:start;fill:none;fill-opacity:1;fill-rule:evenodd;stroke:#000000;stroke-width:2;stroke-linecap:butt;stroke-linejoin:miter;stroke-miterlimit:10.43299961;stroke-dasharray:none;stroke-dashoffset:0;stroke-opacity:1"><path
           id="path1304"
           d="m 472,394.25 v 0.02 0.03 0.01 0.02 0.01 l -0.01,0.02 v 0.01 l -0.01,0.02 -0.01,0.02 -0.01,0.02 -0.01,0.02 -0.02,0.03 -0.01,0.02 -0.02,0.03 -0.02,0.03 -0.03,0.03 -0.02,0.03 -0.03,0.04 -0.02,0.02 -0.01,0.02 -0.02,0.02 -0.02,0.02 -0.02,0.02 -0.02,0.03 -0.02,0.02 -0.02,0.02 -0.02,0.03 -0.03,0.02 -0.02,0.03 -0.03,0.03 -0.03,0.03 -0.02,0.03 -0.03,0.03 -0.03,0.03 -0.03,0.03 -0.03,0.03 -0.04,0.04 -0.03,0.03 -0.04,0.04 -0.03,0.03 -0.04,0.04 -0.04,0.04 c -6.22,6.28 -7.81,15.69 -7.81,23.31 0,8.67 1.89,17.35 8.01,23.56 0.64,0.61 0.64,0.71 0.64,0.86 0,0.35 -0.18,0.49 -0.48,0.49 -0.5,0 -4.98,-3.38 -7.92,-9.7 -2.55,-5.49 -3.14,-11.02 -3.14,-15.21 0,-3.89 0.54,-9.9 3.28,-15.54 2.98,-6.13 7.28,-9.36 7.78,-9.36 0.3,0 0.48,0.14 0.48,0.5 z"
           inkscape:connector-curvature="0"
           style="fill:#000000;stroke-width:0" /><path
           id="path1306"
           d="m 493.77,408.93 v -3.28 l 7.32,0.55 v 1.55 c -3.49,0 -3.88,0.34 -3.88,2.78 v 30.25 l -7.17,-0.55 v -1.55 c 3.48,0 3.87,-0.34 3.87,-2.79 v -10.75 c -1.43,1.78 -3.57,3.07 -6.28,3.07 l 0.21,-1.09 c 1.75,0 3.84,-0.75 5.39,-2.98 0.54,-0.85 0.54,-0.96 0.54,-1.85 v 0 -10.22 c 0,-0.89 0,-1 -0.54,-1.84 -1.5,-2.39 -3.75,-3.48 -5.89,-3.48 -2.24,0 -4.04,1.29 -5.22,3.18 -1.3,2.05 -1.46,4.89 -1.46,6.93 0,1.84 0.1,4.84 1.55,7.07 1.05,1.55 2.94,3.19 5.63,3.19 l -0.21,1.09 c -5.87,0 -11.11,-4.87 -11.11,-11.29 0,-6.33 4.89,-11.27 10.57,-11.27 3.18,0 5.43,1.69 6.68,3.28 z"
           inkscape:connector-curvature="0"
           style="fill:#000000;stroke-width:0" /><path
           id="path1308"
           d="m 519.8,437.68 0.04,0.04 0.04,0.03 0.08,0.07 0.08,0.08 0.08,0.08 0.07,0.08 0.04,0.05 0.03,0.04 0.03,0.05 0.04,0.04 0.03,0.05 0.03,0.05 0.03,0.05 0.02,0.05 0.03,0.05 0.02,0.05 0.03,0.05 0.02,0.05 0.02,0.05 0.01,0.06 0.02,0.05 0.01,0.05 0.02,0.06 0.01,0.05 v 0.06 l 0.01,0.05 v 0.06 l 0.01,0.05 c 0,0.89 -0.9,1.8 -1.8,1.8 -0.75,0 -1.3,-0.55 -1.5,-0.86 l -5.97,-7.61 0.84,-0.9 z"
           inkscape:connector-curvature="0"
           style="fill:#000000;stroke-width:0" /><path
           id="path1310"
           d="m 508.08,417.71 0.05,1.05 c 0.3,7.42 4.48,8.66 6.19,8.66 5.12,0 5.62,-6.72 5.62,-8.66 h -11.81 l -0.05,-1.05 h 13.91 c 1.09,0 1.23,0 1.23,1.05 0,4.92 -2.69,9.75 -8.9,9.75 -5.78,0 -10.38,-5.12 -10.38,-11.36 0,-6.67 5.24,-11.5 10.97,-11.5 6.08,0 8.31,5.53 8.31,6.47 0,0.5 -0.39,0.61 -0.64,0.61 -0.45,0 -0.55,-0.3 -0.65,-0.7 -1.74,-5.13 -6.22,-5.13 -6.72,-5.13 -2.5,0 -4.49,1.49 -5.63,3.33 -1.5,2.39 -1.5,5.69 -1.5,7.48 z"
           inkscape:connector-curvature="0"
           style="fill:#000000;stroke-width:0" /><path
           id="path1312"
           d="m 533.25,426.12 h 7.13 v 1.55 h -7.13 v 9.17 H 532 c -0.04,-4.08 -1.54,-9.42 -6.42,-9.61 v -1.11 h 4.24 v -13.75 c 0,-6.12 4.62,-6.72 6.42,-6.72 3.53,0 4.94,3.53 4.94,6.72 v 2.84 h -1.25 v -2.73 c 0,-3.69 -1.5,-5.58 -3.35,-5.58 -3.33,0 -3.33,4.53 -3.33,5.38 z"
           inkscape:connector-curvature="0"
           style="fill:#000000;stroke-width:0" /><path
           id="path1314"
           d="m 549.48,417.71 0.04,1.05 c 0.3,7.42 4.49,8.66 6.19,8.66 5.13,0 5.63,-6.72 5.63,-8.66 h -11.82 l -0.04,-1.05 h 13.9 c 1.1,0 1.24,0 1.24,1.05 0,4.92 -2.69,9.75 -8.91,9.75 -5.78,0 -10.37,-5.12 -10.37,-11.36 0,-6.67 5.23,-11.5 10.96,-11.5 6.08,0 8.32,5.53 8.32,6.47 0,0.5 -0.39,0.61 -0.64,0.61 -0.46,0 -0.55,-0.3 -0.66,-0.7 -1.73,-5.13 -6.22,-5.13 -6.72,-5.13 -2.5,0 -4.48,1.49 -5.62,3.33 -1.5,2.39 -1.5,5.69 -1.5,7.48 z"
           inkscape:connector-curvature="0"
           style="fill:#000000;stroke-width:0" /><path
           id="path1316"
           d="m 571.85,417.06 v 0.38 l 0.01,0.36 0.02,0.36 0.02,0.35 0.02,0.34 0.04,0.34 0.03,0.32 0.04,0.32 0.05,0.31 0.05,0.3 0.06,0.29 0.06,0.29 0.13,0.55 0.15,0.51 0.17,0.49 0.18,0.46 0.2,0.43 0.21,0.4 0.22,0.38 0.23,0.35 0.24,0.32 0.25,0.3 0.26,0.28 0.26,0.26 0.27,0.23 0.27,0.21 0.28,0.19 0.28,0.16 0.29,0.15 0.28,0.13 0.28,0.12 0.28,0.09 0.28,0.08 0.28,0.06 0.27,0.05 0.27,0.03 0.25,0.02 0.26,0.01 c 0.43,0 3.57,-0.05 5.32,-1.85 -2.04,-0.15 -2.34,-1.64 -2.34,-2.29 0,-1.3 0.89,-2.3 2.3,-2.3 1.28,0 2.28,0.86 2.28,2.34 0,3.39 -3.78,5.33 -7.63,5.33 -6.22,0 -10.81,-5.37 -10.81,-11.55 0,-6.37 4.94,-11.31 10.72,-11.31 6.67,0 8.27,5.99 8.27,6.47 0,0.5 -0.5,0.5 -0.65,0.5 -0.45,0 -0.54,-0.19 -0.65,-0.5 -1.44,-4.62 -4.67,-5.22 -6.52,-5.22 -2.64,0 -7.03,2.14 -7.03,10.16 z"
           inkscape:connector-curvature="0"
           style="fill:#000000;stroke-width:0" /><path
           id="path1318"
           d="m 596.73,426.12 h 7.12 v 1.55 h -7.12 v 9.17 h -1.25 c -0.05,-4.08 -1.55,-9.42 -6.43,-9.61 v -1.11 h 4.24 v -13.75 c 0,-6.12 4.62,-6.72 6.42,-6.72 3.53,0 4.94,3.53 4.94,6.72 v 2.84 h -1.25 v -2.73 c 0,-3.69 -1.5,-5.58 -3.35,-5.58 -3.32,0 -3.32,4.53 -3.32,5.38 z"
           inkscape:connector-curvature="0"
           style="fill:#000000;stroke-width:0" /><path
           id="path1320"
           d="m 612.95,417.71 0.05,1.05 c 0.29,7.42 4.48,8.66 6.18,8.66 5.13,0 5.63,-6.72 5.63,-8.66 H 613 l -0.05,-1.05 h 13.9 c 1.1,0 1.24,0 1.24,1.05 0,4.92 -2.69,9.75 -8.91,9.75 -5.78,0 -10.37,-5.12 -10.37,-11.36 0,-6.67 5.23,-11.5 10.97,-11.5 6.07,0 8.31,5.53 8.31,6.47 0,0.5 -0.39,0.61 -0.64,0.61 -0.45,0 -0.55,-0.3 -0.66,-0.7 -1.73,-5.13 -6.22,-5.13 -6.72,-5.13 -2.5,0 -4.48,1.49 -5.62,3.33 -1.5,2.39 -1.5,5.69 -1.5,7.48 z"
           inkscape:connector-curvature="0"
           style="fill:#000000;stroke-width:0" /><path
           id="path1322"
           d="m 648.98,410.14 v -4.49 l 7.17,0.55 v 1.55 c -3.48,0 -3.89,0.34 -3.89,2.78 v 17.68 l -7.33,-0.54 v -1.55 c 3.5,0 3.89,-0.34 3.89,-2.78 v -8.88 c 0,-4.32 -2.39,-7.71 -6.03,-7.71 -4.17,0 -4.37,2.34 -4.37,4.93 v 16.53 l -7.33,-0.54 v -1.55 c 3.89,0 3.89,-0.14 3.89,-4.58 v -7.47 c 0,-3.89 0,-8.42 7.56,-8.42 2.8,0 4.99,1.39 6.44,4.49 z"
           inkscape:connector-curvature="0"
           style="fill:#000000;stroke-width:0" /><path
           id="path1324"
           d="m 665.53,422.75 v 5.46 l -6.93,-0.54 v -1.55 c 3.49,0 3.9,-0.34 3.9,-2.78 v -13.36 c 0,-2.23 -0.55,-2.23 -3.9,-2.23 v -1.55 c 1.96,0.05 4.29,0.16 5.69,0.16 1.99,0 4.33,0 6.33,-0.16 v 1.55 h -1.05 c -3.68,0 -3.79,0.54 -3.79,2.34 v 7.67 c 0,4.92 2.09,9.36 5.89,9.36 0.34,0 0.43,0 0.55,-0.05 -0.16,-0.04 -1.16,-0.64 -1.16,-1.93 0,-1.41 1.04,-2.14 2.16,-2.14 0.88,0 2.13,0.59 2.13,2.18 0,1.6 -1.54,3.03 -3.68,3.03 -3.64,0 -5.44,-3.32 -6.14,-5.46 z"
           inkscape:connector-curvature="0"
           style="fill:#000000;stroke-width:0" /><path
           id="path1326"
           d="m 691.16,418.65 v 0.37 0.39 l -0.01,0.39 -0.01,0.41 -0.04,0.84 -0.06,0.88 -0.09,0.92 -0.1,0.95 -0.14,0.97 -0.16,1.01 -0.2,1.02 -0.23,1.03 -0.26,1.05 -0.31,1.06 -0.35,1.07 -0.39,1.07 -0.21,0.53 -0.23,0.53 -0.24,0.53 -0.25,0.53 c -2.98,6.12 -7.26,9.36 -7.76,9.36 -0.3,0 -0.5,-0.19 -0.5,-0.49 0,-0.15 0,-0.25 0.93,-1.15 4.9,-4.92 7.74,-12.85 7.74,-23.27 0,-8.51 -1.84,-17.28 -8.03,-23.56 -0.64,-0.59 -0.64,-0.7 -0.64,-0.84 0,-0.3 0.2,-0.5 0.5,-0.5 0.5,0 4.97,3.39 7.92,9.71 2.53,5.47 3.12,11 3.12,15.19 z"
           inkscape:connector-curvature="0"
           style="fill:#000000;stroke-width:0" /></g>    </g>
    <g
       id="g1435"
       transform="matrix(0.49999998,0,0,0.49999998,61.251602,52.844545)"
       style="stroke-width:2">
      <g
         word-spacing="normal"
         letter-spacing="normal"
         font-size-adjust="none"
         font-stretch="normal"
         font-weight="normal"
         font-variant="normal"
         font-style="normal"
         stroke-miterlimit="10.433"
         xml:space="preserve"
         transform="matrix(0.3,0,0,-0.3,-52.5,222.75)"
         id="g1433"
         style="font-style:normal;font-variant:normal;font-weight:normal;font-stretch:normal;letter-spacing:normal;word-spacing:normal;text-anchor:start;fill:none;fill-opacity:1;fill-rule:evenodd;stroke:#000000;stroke-width:2;stroke-linecap:butt;stroke-linejoin:miter;stroke-miterlimit:10.43299961;stroke-dasharray:none;stroke-dashoffset:0;stroke-opacity:1"><path
           id="path1431"
           d="m 474.1,425.03 -0.09,0.17 -0.09,0.17 -0.09,0.16 -0.09,0.16 -0.1,0.16 -0.1,0.16 -0.11,0.15 -0.11,0.14 -0.11,0.15 -0.12,0.13 -0.12,0.14 -0.12,0.13 -0.13,0.12 -0.13,0.12 -0.14,0.11 -0.14,0.11 -0.14,0.11 -0.15,0.09 -0.15,0.1 -0.15,0.08 -0.16,0.08 -0.17,0.08 -0.17,0.06 -0.17,0.07 -0.17,0.05 -0.18,0.05 -0.19,0.04 -0.19,0.03 -0.19,0.03 -0.2,0.02 -0.2,0.01 h -0.21 l 0.05,-1.09 c 3.23,0 3.93,-4.08 3.93,-4.37 0,-0.32 -0.09,-0.61 -0.14,-0.86 l -2.5,-9.77 c -0.25,-0.89 -0.25,-0.98 -1,-1.84 -2.18,-2.74 -4.23,-3.53 -5.62,-3.53 -2.49,0 -3.19,2.73 -3.19,4.68 0,2.49 1.59,8.61 2.74,10.91 1.54,2.94 3.79,4.78 5.78,4.78 l -0.05,1.09 c -5.83,0 -12,-7.31 -12,-14.59 0,-4.69 2.73,-7.97 6.62,-7.97 0.99,0 3.49,0.21 6.47,3.74 0.41,-2.1 2.14,-3.74 4.53,-3.74 1.75,0 2.9,1.14 3.69,2.74 0.85,1.79 1.5,4.84 1.5,4.93 0,0.5 -0.45,0.5 -0.59,0.5 -0.5,0 -0.55,-0.2 -0.7,-0.9 -0.85,-3.24 -1.75,-6.17 -3.79,-6.17 -1.34,0 -1.5,1.29 -1.5,2.29 0,1.1 0.1,1.49 0.64,3.69 0.57,2.09 0.66,2.59 1.11,4.48 l 1.79,6.97 c 0.35,1.39 0.35,1.5 0.35,1.69 0,0.86 -0.6,1.36 -1.45,1.36 -1.19,0 -1.94,-1.11 -2.09,-2.2 z"
           inkscape:connector-curvature="0"
           style="fill:#000000;stroke-width:0" /></g>    </g>
    <g
       id="g1532"
       transform="matrix(0.49999999,0,0,0.49999999,84.961924,38.603843)"
       style="stroke-width:2">
      <g
         word-spacing="normal"
         letter-spacing="normal"
         font-size-adjust="none"
         font-stretch="normal"
         font-weight="normal"
         font-variant="normal"
         font-style="normal"
         stroke-miterlimit="10.433"
         xml:space="preserve"
         transform="matrix(0.3,0,0,-0.3,-52.5,222.75)"
         id="g1530"
         style="font-style:normal;font-variant:normal;font-weight:normal;font-stretch:normal;letter-spacing:normal;word-spacing:normal;text-anchor:start;fill:none;fill-opacity:1;fill-rule:evenodd;stroke:#000000;stroke-width:2;stroke-linecap:butt;stroke-linejoin:miter;stroke-miterlimit:10.43299961;stroke-dasharray:none;stroke-dashoffset:0;stroke-opacity:1"><path
           id="path1528"
           d="m 463.44,410.09 -0.04,-0.18 -0.05,-0.17 -0.04,-0.16 -0.05,-0.15 -0.04,-0.15 -0.05,-0.13 -0.04,-0.13 -0.05,-0.12 -0.06,-0.11 -0.06,-0.11 -0.06,-0.1 -0.07,-0.09 -0.08,-0.09 -0.09,-0.07 -0.09,-0.08 -0.11,-0.06 -0.11,-0.07 -0.12,-0.05 -0.14,-0.05 -0.15,-0.05 -0.16,-0.04 -0.09,-0.02 -0.08,-0.01 -0.1,-0.02 -0.1,-0.02 -0.1,-0.01 -0.1,-0.01 -0.11,-0.01 -0.11,-0.02 -0.12,-0.01 -0.12,-0.01 h -0.13 l -0.13,-0.01 -0.13,-0.01 h -0.15 l -0.14,-0.01 h -0.15 l -0.16,-0.01 h -0.16 -0.16 -0.17 -0.18 -0.18 c -0.84,0 -1.39,0 -1.39,-0.96 0,-0.59 0.44,-0.59 1.39,-0.59 h 16.48 l -0.89,1.55 h -5.62 c -0.7,0 -0.8,0 -1.11,0.04 -0.48,0.05 -0.64,0.1 -0.64,0.5 0,0.14 0,0.25 0.25,1.14 l 6.83,27.36 c 0.43,1.74 0.54,1.89 2.68,1.89 h 5.33 c 4.89,0 9.02,-2.64 9.02,-9.22 0,-2.43 -1,-10.6 -5.24,-16.09 -1.43,-1.84 -5.37,-5.62 -11.5,-5.62 l 0.89,-1.55 c 10.36,0 20.19,10.51 20.19,21.42 0,7.03 -4.23,12.61 -11.72,12.61 h -16.73 c -0.95,0 -1.5,0 -1.5,-0.95 0,-0.6 0.45,-0.6 1.45,-0.6 0.64,0 1.55,-0.04 2.14,-0.09 0.8,-0.11 1.1,-0.25 1.1,-0.8 0,-0.2 -0.05,-0.36 -0.21,-0.95 z"
           inkscape:connector-curvature="0"
           style="fill:#000000;stroke-width:0" /></g>    </g>
    <path
       style="opacity:0.3;fill:#000000;fill-opacity:1;fill-rule:evenodd;stroke:none;stroke-width:1.00157475;stroke-linecap:butt;stroke-linejoin:miter;stroke-miterlimit:4;stroke-dasharray:1.00157475, 4.00629902000000016;stroke-dashoffset:0;stroke-opacity:1"
       d="m 375.83097,267.7635 c -32.78877,12.73126 -65.59448,25.41879 -98.39565,38.11803 0.0551,77.54495 -0.13535,155.09123 0.17857,232.63532 36.75011,-14.15769 73.45401,-28.43518 110.17857,-42.65904 0.12117,-77.63253 0.24161,-155.26507 0.36133,-232.8976 -4.10761,1.6011 -8.21522,3.20219 -12.32282,4.80329 z m -1.40347,94.35408 c 1.80269,4.02149 0.20741,9.25538 0.59332,13.68449 1.59499,5.5205 -5.43659,4.97691 -8.74798,7.04845 -24.09009,9.18261 -48.22451,18.85841 -72.29316,27.71851 -1.2333,-5.64139 -1.38507,-11.98252 0.0628,-17.57534 26.54093,-10.78446 53.30523,-21.09196 80.22461,-30.89286 z m 0.31809,34.02622 c 0.86718,5.58653 0.98509,11.83883 -0.44225,17.27539 -26.57687,10.69176 -53.2905,21.23891 -80.26367,30.80916 -1.85555,-3.72233 -0.23224,-8.77738 -0.63464,-12.94668 -1.81298,-5.66552 4.42451,-5.6735 8.09684,-7.48417 24.3947,-9.21707 48.60326,-19.28392 73.24372,-27.6537 z"
       id="path1539"
       inkscape:connector-curvature="0"
       transform="scale(0.26458333)" />
    <path
       inkscape:connector-curvature="0"
       id="path1543"
       d="M 10.394345,106.42439 H 72.760412"
       style="fill:#000000;stroke:#000000;stroke-width:0.26499999;stroke-linecap:butt;stroke-linejoin:miter;stroke-miterlimit:4;stroke-dasharray:0.26499999, 1.05999995;stroke-dashoffset:0;stroke-opacity:1" />
    <path
       style="fill:none;stroke:#000000;stroke-width:0.26499999;stroke-linecap:butt;stroke-linejoin:miter;stroke-miterlimit:4;stroke-dasharray:none;stroke-opacity:1;marker-start:url(#Arrow2Lstart);marker-end:url(#Arrow2Lend)"
       d="M 100.61623,107.23863 V 97.750557"
       id="path1545"
       inkscape:connector-curvature="0" />
    <path
       inkscape:connector-curvature="0"
       id="path1909"
       d="M 88.284329,90.267062 H 173.77345"
       style="fill:none;stroke:#000000;stroke-width:0.26499999;stroke-linecap:butt;stroke-linejoin:miter;stroke-miterlimit:4;stroke-dasharray:none;stroke-opacity:1;marker-start:url(#marker1913);marker-end:url(#marker1941)" />
  </g>
</svg>
