<?xml version="1.0" encoding="UTF-8" standalone="no"?>
<!-- Created with Inkscape (http://www.inkscape.org/) -->

<svg
   version="1.1"
   id="svg834"
   xml:space="preserve"
   width="793.33331"
   height="1122.6667"
   viewBox="0 0 793.33331 1122.6667"
   sodipodi:docname="aires_cubique.svg"
   inkscape:version="1.2.2 (1:1.2.2+202305151915+b0a8486541)"
   inkscape:export-filename="aires_cartesien.pdf"
   inkscape:export-xdpi="96"
   inkscape:export-ydpi="96"
   xmlns:inkscape="http://www.inkscape.org/namespaces/inkscape"
   xmlns:sodipodi="http://sodipodi.sourceforge.net/DTD/sodipodi-0.dtd"
   xmlns:xlink="http://www.w3.org/1999/xlink"
   xmlns="http://www.w3.org/2000/svg"
   xmlns:svg="http://www.w3.org/2000/svg"
   xmlns:rdf="http://www.w3.org/1999/02/22-rdf-syntax-ns#"
   xmlns:cc="http://creativecommons.org/ns#"
   xmlns:dc="http://purl.org/dc/elements/1.1/"
   xmlns:ns6="http://www.iki.fi/pav/software/textext/"><metadata
     id="metadata840"><rdf:RDF><cc:Work
         rdf:about=""><dc:format>image/svg+xml</dc:format><dc:type
           rdf:resource="http://purl.org/dc/dcmitype/StillImage" /><dc:title /></cc:Work></rdf:RDF></metadata><defs
     id="defs838"><linearGradient
       inkscape:collect="always"
       id="linearGradient1751"><stop
         style="stop-color:#ff0000;stop-opacity:1;"
         offset="0"
         id="stop1747" /><stop
         style="stop-color:#000000;stop-opacity:0;"
         offset="1"
         id="stop1749" /></linearGradient><inkscape:perspective
       sodipodi:type="inkscape:persp3d"
       inkscape:vp_x="46.090434 : 437.01616 : 1"
       inkscape:vp_y="0 : 1000 : 0"
       inkscape:vp_z="839.42374 : 437.01616 : 1"
       inkscape:persp3d-origin="442.75708 : 249.90504 : 1"
       id="perspective758" /><linearGradient
       inkscape:collect="always"
       id="linearGradient2810"><stop
         style="stop-color:#ff0000;stop-opacity:1;"
         offset="0"
         id="stop2806" /><stop
         style="stop-color:#008000;stop-opacity:0;"
         offset="1"
         id="stop2808" /></linearGradient><linearGradient
       inkscape:collect="always"
       id="linearGradient2730"><stop
         style="stop-color:#008000;stop-opacity:1;"
         offset="0"
         id="stop2726" /><stop
         style="stop-color:#008000;stop-opacity:0;"
         offset="1"
         id="stop2728" /></linearGradient><marker
       inkscape:stockid="Arrow2Lend"
       orient="auto"
       refY="0.0"
       refX="0.0"
       id="marker3247"
       style="overflow:visible;"
       inkscape:isstock="true"><path
         id="path3245"
         style="fill-rule:evenodd;stroke-width:0.625;stroke-linejoin:round;stroke:#000000;stroke-opacity:1;fill:#000000;fill-opacity:1"
         d="M 8.7185878,4.0337352 L -2.2072895,0.016013256 L 8.7185884,-4.0017078 C 6.9730900,-1.6296469 6.9831476,1.6157441 8.7185878,4.0337352 z "
         transform="scale(1.1) rotate(180) translate(1,0)" /></marker><marker
       inkscape:stockid="Arrow2Lstart"
       orient="auto"
       refY="0.0"
       refX="0.0"
       id="marker3207"
       style="overflow:visible"
       inkscape:isstock="true"><path
         id="path3205"
         style="fill-rule:evenodd;stroke-width:0.625;stroke-linejoin:round;stroke:#000000;stroke-opacity:1;fill:#000000;fill-opacity:1"
         d="M 8.7185878,4.0337352 L -2.2072895,0.016013256 L 8.7185884,-4.0017078 C 6.9730900,-1.6296469 6.9831476,1.6157441 8.7185878,4.0337352 z "
         transform="scale(1.1) translate(1,0)" /></marker><marker
       inkscape:isstock="true"
       style="overflow:visible"
       id="marker1799"
       refX="0"
       refY="0"
       orient="auto"
       inkscape:stockid="Arrow2Lend"
       inkscape:collect="always"><path
         transform="matrix(-1.1,0,0,-1.1,-1.1,0)"
         d="M 8.7185878,4.0337352 -2.2072895,0.01601326 8.7185884,-4.0017078 c -1.7454984,2.3720609 -1.7354408,5.6174519 -6e-7,8.035443 z"
         style="fill:#000000;fill-opacity:1;fill-rule:evenodd;stroke:#000000;stroke-width:0.625;stroke-linejoin:round;stroke-opacity:1"
         id="path1797" /></marker><marker
       inkscape:isstock="true"
       style="overflow:visible"
       id="marker1771"
       refX="0"
       refY="0"
       orient="auto"
       inkscape:stockid="Arrow2Lstart"
       inkscape:collect="always"><path
         transform="matrix(1.1,0,0,1.1,1.1,0)"
         d="M 8.7185878,4.0337352 -2.2072895,0.01601326 8.7185884,-4.0017078 c -1.7454984,2.3720609 -1.7354408,5.6174519 -6e-7,8.035443 z"
         style="fill:#000000;fill-opacity:1;fill-rule:evenodd;stroke:#000000;stroke-width:0.625;stroke-linejoin:round;stroke-opacity:1"
         id="path1769" /></marker><inkscape:path-effect
       effect="bspline"
       id="path-effect2132"
       is_visible="true"
       weight="33.333333"
       steps="2"
       helper_size="0"
       apply_no_weight="true"
       apply_with_weight="true"
       only_selected="false" /><clipPath
       clipPathUnits="userSpaceOnUse"
       id="clipPath918"><path
         d="m 482.188,7363 h 159.016 v 165.383 H 482.188 Z"
         id="path916"
         inkscape:connector-curvature="0" /></clipPath><clipPath
       clipPathUnits="userSpaceOnUse"
       id="clipPath1186"><path
         d="m 1045.05,4466.73 h 159.012 v 197.336 H 1045.05 Z"
         id="path1184"
         inkscape:connector-curvature="0" /></clipPath><clipPath
       clipPathUnits="userSpaceOnUse"
       id="clipPath1282"><path
         d="m 1045.05,3669.93 h 159.012 v 197.336 H 1045.05 Z"
         id="path1280"
         inkscape:connector-curvature="0" /></clipPath><linearGradient
       inkscape:collect="always"
       xlink:href="#linearGradient2730"
       id="linearGradient2732"
       x1="-0.000375"
       y1="3.62475"
       x2="39.94825"
       y2="3.62475"
       gradientUnits="userSpaceOnUse" /><linearGradient
       inkscape:collect="always"
       xlink:href="#linearGradient2810"
       id="linearGradient2812"
       x1="-0.000375"
       y1="3.62475"
       x2="44.90225"
       y2="3.62475"
       gradientUnits="userSpaceOnUse" /><linearGradient
       inkscape:collect="always"
       xlink:href="#linearGradient2730"
       id="linearGradient5046"
       gradientUnits="userSpaceOnUse"
       x1="-0.000375"
       y1="3.62475"
       x2="39.94825"
       y2="3.62475" /><linearGradient
       inkscape:collect="always"
       xlink:href="#linearGradient2730"
       id="linearGradient5048"
       gradientUnits="userSpaceOnUse"
       x1="-0.000375"
       y1="3.62475"
       x2="39.94825"
       y2="3.62475" /><linearGradient
       inkscape:collect="always"
       xlink:href="#linearGradient2730"
       id="linearGradient5050"
       gradientUnits="userSpaceOnUse"
       x1="-0.000375"
       y1="3.62475"
       x2="39.94825"
       y2="3.62475" /><linearGradient
       inkscape:collect="always"
       xlink:href="#linearGradient2730"
       id="linearGradient5052"
       gradientUnits="userSpaceOnUse"
       x1="-0.000375"
       y1="3.62475"
       x2="39.94825"
       y2="3.62475" /><linearGradient
       inkscape:collect="always"
       xlink:href="#linearGradient2730"
       id="linearGradient5054"
       gradientUnits="userSpaceOnUse"
       x1="-0.000375"
       y1="3.62475"
       x2="39.94825"
       y2="3.62475" /><linearGradient
       inkscape:collect="always"
       xlink:href="#linearGradient2730"
       id="linearGradient5056"
       gradientUnits="userSpaceOnUse"
       x1="-0.000375"
       y1="3.62475"
       x2="39.94825"
       y2="3.62475" /><linearGradient
       inkscape:collect="always"
       xlink:href="#linearGradient2730"
       id="linearGradient5058"
       gradientUnits="userSpaceOnUse"
       x1="-0.000375"
       y1="3.62475"
       x2="39.94825"
       y2="3.62475" /><linearGradient
       inkscape:collect="always"
       xlink:href="#linearGradient2730"
       id="linearGradient5060"
       gradientUnits="userSpaceOnUse"
       x1="-0.000375"
       y1="3.62475"
       x2="39.94825"
       y2="3.62475" /><linearGradient
       inkscape:collect="always"
       xlink:href="#linearGradient2730"
       id="linearGradient5062"
       gradientUnits="userSpaceOnUse"
       x1="-0.000375"
       y1="3.62475"
       x2="39.94825"
       y2="3.62475" /><linearGradient
       inkscape:collect="always"
       xlink:href="#linearGradient2730"
       id="linearGradient5064"
       gradientUnits="userSpaceOnUse"
       x1="-0.000375"
       y1="3.62475"
       x2="39.94825"
       y2="3.62475" /><linearGradient
       inkscape:collect="always"
       xlink:href="#linearGradient2730"
       id="linearGradient5066"
       gradientUnits="userSpaceOnUse"
       x1="-0.000375"
       y1="3.62475"
       x2="39.94825"
       y2="3.62475" /><linearGradient
       inkscape:collect="always"
       xlink:href="#linearGradient2730"
       id="linearGradient5068"
       gradientUnits="userSpaceOnUse"
       x1="-0.000375"
       y1="3.62475"
       x2="39.94825"
       y2="3.62475" /><linearGradient
       inkscape:collect="always"
       xlink:href="#linearGradient2730"
       id="linearGradient5070"
       gradientUnits="userSpaceOnUse"
       x1="-0.000375"
       y1="3.62475"
       x2="39.94825"
       y2="3.62475" /><linearGradient
       inkscape:collect="always"
       xlink:href="#linearGradient2730"
       id="linearGradient5072"
       gradientUnits="userSpaceOnUse"
       x1="-0.000375"
       y1="3.62475"
       x2="39.94825"
       y2="3.62475" /><linearGradient
       inkscape:collect="always"
       xlink:href="#linearGradient2730"
       id="linearGradient5074"
       gradientUnits="userSpaceOnUse"
       x1="-0.000375"
       y1="3.62475"
       x2="39.94825"
       y2="3.62475" /><linearGradient
       inkscape:collect="always"
       xlink:href="#linearGradient2730"
       id="linearGradient5076"
       gradientUnits="userSpaceOnUse"
       x1="-0.000375"
       y1="3.62475"
       x2="39.94825"
       y2="3.62475" /><linearGradient
       inkscape:collect="always"
       xlink:href="#linearGradient2730"
       id="linearGradient5078"
       gradientUnits="userSpaceOnUse"
       x1="-0.000375"
       y1="3.62475"
       x2="39.94825"
       y2="3.62475" /><linearGradient
       inkscape:collect="always"
       xlink:href="#linearGradient2730"
       id="linearGradient5080"
       gradientUnits="userSpaceOnUse"
       x1="-0.000375"
       y1="3.62475"
       x2="39.94825"
       y2="3.62475" /><linearGradient
       inkscape:collect="always"
       xlink:href="#linearGradient2730"
       id="linearGradient5082"
       gradientUnits="userSpaceOnUse"
       x1="-0.000375"
       y1="3.62475"
       x2="39.94825"
       y2="3.62475" /><linearGradient
       inkscape:collect="always"
       xlink:href="#linearGradient2810"
       id="linearGradient5228"
       gradientUnits="userSpaceOnUse"
       x1="-0.000375"
       y1="3.62475"
       x2="44.90225"
       y2="3.62475" /><linearGradient
       inkscape:collect="always"
       xlink:href="#linearGradient2810"
       id="linearGradient5230"
       gradientUnits="userSpaceOnUse"
       x1="-0.000375"
       y1="3.62475"
       x2="44.90225"
       y2="3.62475" /><linearGradient
       inkscape:collect="always"
       xlink:href="#linearGradient2810"
       id="linearGradient5232"
       gradientUnits="userSpaceOnUse"
       x1="-0.000375"
       y1="3.62475"
       x2="44.90225"
       y2="3.62475" /><linearGradient
       inkscape:collect="always"
       xlink:href="#linearGradient2810"
       id="linearGradient5234"
       gradientUnits="userSpaceOnUse"
       x1="-0.000375"
       y1="3.62475"
       x2="44.90225"
       y2="3.62475" /><linearGradient
       inkscape:collect="always"
       xlink:href="#linearGradient2810"
       id="linearGradient5236"
       gradientUnits="userSpaceOnUse"
       x1="-0.000375"
       y1="3.62475"
       x2="44.90225"
       y2="3.62475" /><linearGradient
       inkscape:collect="always"
       xlink:href="#linearGradient2810"
       id="linearGradient5238"
       gradientUnits="userSpaceOnUse"
       x1="-0.000375"
       y1="3.62475"
       x2="44.90225"
       y2="3.62475" /><linearGradient
       inkscape:collect="always"
       xlink:href="#linearGradient2810"
       id="linearGradient5240"
       gradientUnits="userSpaceOnUse"
       x1="-0.000375"
       y1="3.62475"
       x2="44.90225"
       y2="3.62475" /><linearGradient
       inkscape:collect="always"
       xlink:href="#linearGradient2810"
       id="linearGradient5242"
       gradientUnits="userSpaceOnUse"
       x1="-0.000375"
       y1="3.62475"
       x2="44.90225"
       y2="3.62475" /><linearGradient
       inkscape:collect="always"
       xlink:href="#linearGradient2810"
       id="linearGradient5244"
       gradientUnits="userSpaceOnUse"
       x1="-0.000375"
       y1="3.62475"
       x2="44.90225"
       y2="3.62475" /><linearGradient
       inkscape:collect="always"
       xlink:href="#linearGradient2810"
       id="linearGradient5246"
       gradientUnits="userSpaceOnUse"
       x1="-0.000375"
       y1="3.62475"
       x2="44.90225"
       y2="3.62475" /><linearGradient
       inkscape:collect="always"
       xlink:href="#linearGradient2810"
       id="linearGradient5248"
       gradientUnits="userSpaceOnUse"
       x1="-0.000375"
       y1="3.62475"
       x2="44.90225"
       y2="3.62475" /><linearGradient
       inkscape:collect="always"
       xlink:href="#linearGradient2810"
       id="linearGradient5250"
       gradientUnits="userSpaceOnUse"
       x1="-0.000375"
       y1="3.62475"
       x2="44.90225"
       y2="3.62475" /><linearGradient
       inkscape:collect="always"
       xlink:href="#linearGradient2810"
       id="linearGradient5252"
       gradientUnits="userSpaceOnUse"
       x1="-0.000375"
       y1="3.62475"
       x2="44.90225"
       y2="3.62475" /><linearGradient
       inkscape:collect="always"
       xlink:href="#linearGradient2810"
       id="linearGradient5254"
       gradientUnits="userSpaceOnUse"
       x1="-0.000375"
       y1="3.62475"
       x2="44.90225"
       y2="3.62475" /><linearGradient
       inkscape:collect="always"
       xlink:href="#linearGradient2810"
       id="linearGradient5256"
       gradientUnits="userSpaceOnUse"
       x1="-0.000375"
       y1="3.62475"
       x2="44.90225"
       y2="3.62475" /><linearGradient
       inkscape:collect="always"
       xlink:href="#linearGradient2810"
       id="linearGradient5258"
       gradientUnits="userSpaceOnUse"
       x1="-0.000375"
       y1="3.62475"
       x2="44.90225"
       y2="3.62475" /><linearGradient
       inkscape:collect="always"
       xlink:href="#linearGradient2810"
       id="linearGradient5260"
       gradientUnits="userSpaceOnUse"
       x1="-0.000375"
       y1="3.62475"
       x2="44.90225"
       y2="3.62475" /><linearGradient
       inkscape:collect="always"
       xlink:href="#linearGradient2810"
       id="linearGradient5262"
       gradientUnits="userSpaceOnUse"
       x1="-0.000375"
       y1="3.62475"
       x2="44.90225"
       y2="3.62475" /><linearGradient
       inkscape:collect="always"
       xlink:href="#linearGradient2810"
       id="linearGradient5264"
       gradientUnits="userSpaceOnUse"
       x1="-0.000375"
       y1="3.62475"
       x2="44.90225"
       y2="3.62475" /><linearGradient
       inkscape:collect="always"
       xlink:href="#linearGradient2810"
       id="linearGradient5266"
       gradientUnits="userSpaceOnUse"
       x1="-0.000375"
       y1="3.62475"
       x2="44.90225"
       y2="3.62475" /><linearGradient
       inkscape:collect="always"
       xlink:href="#linearGradient2810"
       id="linearGradient5268"
       gradientUnits="userSpaceOnUse"
       x1="-0.000375"
       y1="3.62475"
       x2="44.90225"
       y2="3.62475" /><linearGradient
       inkscape:collect="always"
       xlink:href="#linearGradient2810"
       id="linearGradient5270"
       gradientUnits="userSpaceOnUse"
       x1="-0.000375"
       y1="3.62475"
       x2="44.90225"
       y2="3.62475" /><linearGradient
       inkscape:collect="always"
       xlink:href="#linearGradient1751"
       id="linearGradient1753"
       x1="349.02881"
       y1="389.25466"
       x2="404.0995"
       y2="389.25466"
       gradientUnits="userSpaceOnUse" /><marker
       inkscape:isstock="true"
       style="overflow:visible"
       id="marker1771-3"
       refX="0"
       refY="0"
       orient="auto"
       inkscape:stockid="Arrow2Lstart"
       inkscape:collect="always"><path
         transform="matrix(1.1,0,0,1.1,1.1,0)"
         d="M 8.7185878,4.0337352 -2.2072895,0.01601326 8.7185884,-4.0017078 c -1.7454984,2.3720609 -1.7354408,5.6174519 -6e-7,8.035443 z"
         style="fill:#000000;fill-opacity:1;fill-rule:evenodd;stroke:#000000;stroke-width:0.625;stroke-linejoin:round;stroke-opacity:1"
         id="path1769-5" /></marker><marker
       inkscape:isstock="true"
       style="overflow:visible"
       id="marker1799-6"
       refX="0"
       refY="0"
       orient="auto"
       inkscape:stockid="Arrow2Lend"
       inkscape:collect="always"><path
         transform="matrix(-1.1,0,0,-1.1,-1.1,0)"
         d="M 8.7185878,4.0337352 -2.2072895,0.01601326 8.7185884,-4.0017078 c -1.7454984,2.3720609 -1.7354408,5.6174519 -6e-7,8.035443 z"
         style="fill:#000000;fill-opacity:1;fill-rule:evenodd;stroke:#000000;stroke-width:0.625;stroke-linejoin:round;stroke-opacity:1"
         id="path1797-2" /></marker></defs><sodipodi:namedview
     pagecolor="#ffffff"
     bordercolor="#666666"
     borderopacity="1"
     objecttolerance="10"
     gridtolerance="10"
     guidetolerance="10"
     inkscape:pageopacity="0"
     inkscape:pageshadow="2"
     inkscape:window-width="3440"
     inkscape:window-height="1364"
     id="namedview836"
     showgrid="false"
     showborder="false"
     inkscape:zoom="2.850356"
     inkscape:cx="527.8288"
     inkscape:cy="574.84048"
     inkscape:window-x="0"
     inkscape:window-y="0"
     inkscape:window-maximized="1"
     inkscape:current-layer="g842"
     inkscape:snap-global="false"
     inkscape:showpageshadow="0"
     inkscape:pagecheckerboard="0"
     inkscape:deskcolor="#d1d1d1" /><g
     id="g842"
     inkscape:groupmode="layer"
     inkscape:label="rigaut_meca1"
     transform="matrix(1.33333 0 0 -1.33333 0 1122.67)"><path
       style="fill:#ff0000;fill-opacity:0.71269667;fill-rule:evenodd;stroke:#17194a;stroke-width:0;stroke-dasharray:none;stroke-opacity:1"
       d="m 466.60838,610.29829 c 0,-31.58259 0.0348,-33.49139 0.61396,-33.66507 1.14161,-0.34236 60.78999,-11.70443 68.23709,-12.99808 l 1.31563,-0.22854 v 33.65606 33.65607 l -1.66646,0.24717 c -2.34522,0.34784 -24.0719,4.44211 -47.59983,8.96991 -10.98443,2.11388 -20.18065,3.84342 -20.43604,3.84342 -0.382,0 -0.46435,-5.93768 -0.46435,-33.48094 z"
       id="path2160"
       transform="matrix(0.75000188,0,0,-0.75000188,0,842.00461)" /><path
       style="fill:#0000ff;fill-opacity:0.75184935;fill-rule:evenodd;stroke:#17194a;stroke-width:0;stroke-dasharray:none;stroke-opacity:1"
       d="m 445.50512,566.14027 c -11.06581,-5.18714 -20.23808,-9.5432 -20.38282,-9.68014 -0.24308,-0.22998 30.8405,-6.31398 57.55344,-11.26496 l 11.3311,-2.10011 20.35973,9.54881 c 14.46627,6.78475 20.17386,9.6192 19.71764,9.79199 -0.35314,0.13375 -9.16732,1.84225 -19.58707,3.79666 -10.41975,1.95442 -25.67866,4.85521 -33.90869,6.44621 l -14.96368,2.89271 z"
       id="path3473"
       transform="matrix(0.75000188,0,0,-0.75000188,0,842.00461)" /><flowRoot
       xml:space="preserve"
       id="flowRoot2067"
       style="font-style:normal;font-variant:normal;font-weight:normal;font-stretch:normal;font-size:18.6667px;line-height:1.25;font-family:cmmi10;-inkscape-font-specification:'cmmi10, Normal';font-variant-ligatures:normal;font-variant-caps:normal;font-variant-numeric:normal;font-feature-settings:normal;text-align:start;letter-spacing:0px;word-spacing:0px;writing-mode:lr-tb;text-anchor:start;fill:#000000;fill-opacity:1;stroke:none"
       transform="matrix(0.75000002,0,0,-0.75000002,0,842.00005)"><flowRegion
         id="flowRegion2069"
         style="font-style:normal;font-variant:normal;font-weight:normal;font-stretch:normal;font-size:18.6667px;font-family:cmmi10;-inkscape-font-specification:'cmmi10, Normal';font-variant-ligatures:normal;font-variant-caps:normal;font-variant-numeric:normal;font-feature-settings:normal;text-align:start;writing-mode:lr-tb;text-anchor:start"><rect
           id="rect2071"
           width="81.369141"
           height="61.771084"
           x="213.59399"
           y="732.69025"
           style="font-style:normal;font-variant:normal;font-weight:normal;font-stretch:normal;font-size:18.66666603px;font-family:cmmi10;-inkscape-font-specification:'cmmi10, Normal';font-variant-ligatures:normal;font-variant-caps:normal;font-variant-numeric:normal;font-feature-settings:normal;text-align:start;writing-mode:lr-tb;text-anchor:start" /></flowRegion><flowPara
         id="flowPara2073" /></flowRoot><path
       inkscape:connector-curvature="0"
       id="path1512"
       style="opacity:0.8;fill:#008000;fill-opacity:1;fill-rule:nonzero;stroke:none;stroke-width:0.1"
       d="m 316.13,399.76102 v 25.378 c 0,0.062 0.064,0.103 0.121,0.077 l 33.137,-15.555 c 0.029,-0.014 0.049,-0.044 0.049,-0.077 v -50.836 c 0,-0.062 -0.065,-0.103 -0.122,-0.077 l -33.136,15.555 c -0.03,0.014 -0.049,0.044 -0.049,0.077" /><path
       inkscape:connector-curvature="0"
       id="path1528"
       style="fill:none;stroke:#17194a;stroke-width:0.79701102;stroke-linecap:butt;stroke-linejoin:miter;stroke-miterlimit:10;stroke-dasharray:none;stroke-opacity:1"
       d="m 316.13,425.27302 33.307,-15.635" /><path
       inkscape:connector-curvature="0"
       id="path1528-5"
       style="fill:none;stroke:#17194a;stroke-width:0.797011;stroke-linecap:butt;stroke-linejoin:miter;stroke-miterlimit:10;stroke-dasharray:none;stroke-opacity:1"
       d="m 370.5073,435.26612 33.307,-15.635" /><path
       inkscape:connector-curvature="0"
       id="path1536"
       style="fill:none;stroke:#17194a;stroke-width:0.79701102;stroke-linecap:butt;stroke-linejoin:miter;stroke-miterlimit:10;stroke-dasharray:none;stroke-opacity:1"
       d="m 316.13,374.24902 33.307,-15.635" /><path
       inkscape:connector-curvature="0"
       id="path1540"
       style="fill:none;stroke:#17194a;stroke-width:0.79701102;stroke-linecap:butt;stroke-linejoin:miter;stroke-miterlimit:10;stroke-dasharray:none;stroke-opacity:1"
       d="m 316.13,374.24902 v 51.024" /><g
       id="g2158"
       transform="translate(0.24314589,0.11351202)"><path
         inkscape:connector-curvature="0"
         id="path1546"
         style="fill:none;stroke:#17194a;stroke-width:0.797011;stroke-linecap:butt;stroke-linejoin:miter;stroke-miterlimit:10;stroke-dasharray:2.90195, 2.90195;stroke-dashoffset:0;stroke-opacity:1"
         d="M 369.34021,384.66012 402.9451,368.86158" /><path
         inkscape:connector-curvature="0"
         id="path1548"
         style="fill:none;stroke:#17194a;stroke-width:0.797011;stroke-linecap:butt;stroke-linejoin:miter;stroke-miterlimit:10;stroke-dasharray:3.11782, 3.11782;stroke-dashoffset:0;stroke-opacity:1"
         d="m 316.12272,374.21776 1.20711,0.19467 v 0 l 1.20393,0.19626 v 0 l 1.20074,0.19705 v 0 l 1.19648,0.19783 v 7.1e-4 l 1.1933,0.19943 v 0 l 1.18905,0.201 h 10e-4 l 1.1848,0.20179 v 0 l 1.18162,0.20338 v 0 l 1.17841,0.20417 v 0 l 1.17418,0.20576 v 0 l 1.16992,0.20654 v 0 l 1.16674,0.20813 v 0 l 1.16248,0.20892 v 0 l 1.15823,0.2105 h 10e-4 l 1.15398,0.21208 v 0 l 1.1508,0.21209 v 0 l 1.14548,0.21366 h 10e-4 l 1.14123,0.21525 h 10e-4 l 1.13698,0.21604 h 10e-4 l 1.13273,0.21683 h 0.001 l 1.12954,0.21842 v 0 l 1.12529,0.21921 v 0 l 1.12105,0.22078 v 0 l 1.11679,0.22158 v 0 l 1.11254,0.22237 h 10e-4 l 1.10723,0.22395 h 10e-4 l 1.10299,0.22475 v 0 l 1.09979,0.22633 v 0 l 1.09447,0.22633 v 0 l 1.0913,0.2287 v 0 l 1.08597,0.2287 v 0 l 1.08067,0.23029 h 10e-4 l 1.07641,0.23107 v 0 l 1.07217,0.23187 v 7.1e-4 l 1.06684,0.23265 v 0 l 1.06261,0.23425 h 10e-4 l 1.05834,0.23582 v 0 l 1.05304,0.23583 v 0 l 1.04879,0.2374 v 0 l 1.04348,0.23821 v 0 l 1.03921,0.23977 v 0 l 1.03391,0.23979 v 0 l 1.02966,0.24136 v 0 l 1.02435,0.24215 v 0 l 1.01904,0.24295 v 0 l 1.01478,0.24453 v 0 l 1.00947,0.24453 v 7.1e-4 l 1.00415,0.24532 v 0 l 0.99991,0.24691" /><path
         inkscape:connector-curvature="0"
         id="path1550"
         style="fill:none;stroke:#17194a;stroke-width:0.797011;stroke-linecap:butt;stroke-linejoin:miter;stroke-miterlimit:10;stroke-dasharray:3.00142, 3.00142;stroke-dashoffset:0;stroke-opacity:1"
         d="m 369.85069,384.24404 v 50.70054" /></g><g
       transform="matrix(1.6551766,0,0,-1.6551766,385.11915,443.58165)"
       ns6:version="1.8.2"
       ns6:texconverter="pdflatex"
       ns6:pdfconverter="inkscape"
       ns6:text="$S=r\\mathrm{d}r\\mathrm{d}\\theta$"
       ns6:preamble="/home/eb/.config/inkscape/extensions/textext/default_packages.tex"
       ns6:scale="2.5"
       ns6:alignment="middle center"
       ns6:stroke-to-path="0"
       ns6:inkscapeversion="0.92.5"
       ns6:jacobian_sqrt="8.33331"
       id="g610"
       style="fill:#0000ff;fill-opacity:1;stroke-width:5.03469"><defs
   id="id-12f7092f-f963-451b-8a5f-afac779108e3">
    <g
   id="id-92bbee6d-dee4-4c41-9bb9-70feccc4024f">
      <symbol
   overflow="visible"
   id="id-2983f558-d818-49c4-9163-e798e50b5363">
        <path
   style="stroke:none"
   d=""
   id="id-0f12291b-b0fe-4d7d-ab15-6aa06b9a61fc" />
      </symbol>
      <symbol
   overflow="visible"
   id="id-d85b18f7-70a9-464d-981a-c6de68e7681c">
        <path
   style="stroke:none"
   d="m 6.4375,-6.921875 c 0,-0.03125 -0.03125,-0.109375 -0.125,-0.109375 -0.046875,0 -0.046875,0.015625 -0.171875,0.15625 L 5.65625,-6.3125 c -0.25,-0.46875 -0.765625,-0.71875 -1.421875,-0.71875 -1.265625,0 -2.453125,1.15625 -2.453125,2.359375 0,0.796875 0.515625,1.265625 1.03125,1.40625 l 1.0625,0.28125 c 0.375,0.09375 0.921875,0.25 0.921875,1.0625 0,0.890625 -0.8125,1.828125 -1.796875,1.828125 -0.640625,0 -1.75,-0.21875 -1.75,-1.453125 0,-0.234375 0.0625,-0.484375 0.0625,-0.53125 0.015625,-0.046875 0.015625,-0.0625 0.015625,-0.078125 0,-0.09375 -0.0625,-0.109375 -0.109375,-0.109375 -0.046875,0 -0.078125,0.015625 -0.109375,0.046875 -0.03125,0.03125 -0.59375,2.3125 -0.59375,2.34375 0,0.046875 0.046875,0.09375 0.109375,0.09375 0.046875,0 0.0625,-0.015625 0.1875,-0.15625 L 1.296875,-0.5 c 0.421875,0.578125 1.109375,0.71875 1.6875,0.71875 1.359375,0 2.53125,-1.328125 2.53125,-2.5625 0,-0.6875 -0.34375,-1.03125 -0.484375,-1.171875 C 4.796875,-3.734375 4.640625,-3.78125 3.765625,-4 3.53125,-4.0625 3.1875,-4.171875 3.09375,-4.1875 2.828125,-4.28125 2.484375,-4.5625 2.484375,-5.09375 c 0,-0.8125 0.796875,-1.65625 1.75,-1.65625 0.8125,0 1.421875,0.4375 1.421875,1.546875 0,0.3125 -0.03125,0.5 -0.03125,0.5625 0,0 0,0.09375 0.109375,0.09375 0.109375,0 0.125,-0.03125 0.15625,-0.203125 z m 0,0"
   id="id-6103fb42-d791-493d-ac31-f309e22c52ec" />
      </symbol>
      <symbol
   overflow="visible"
   id="id-248cbf3f-4338-4694-ad5e-04ff86917d77">
        <path
   style="stroke:none"
   d="m 0.875,-0.59375 c -0.03125,0.15625 -0.09375,0.390625 -0.09375,0.4375 0,0.171875 0.140625,0.265625 0.296875,0.265625 0.125,0 0.296875,-0.078125 0.375,-0.28125 C 1.46875,-0.203125 1.796875,-1.5625 1.84375,-1.75 c 0.078125,-0.328125 0.265625,-1.015625 0.3125,-1.296875 0.046875,-0.125 0.328125,-0.59375 0.5625,-0.8125 0.078125,-0.0625 0.375,-0.328125 0.796875,-0.328125 0.265625,0 0.40625,0.125 0.421875,0.125 -0.296875,0.046875 -0.515625,0.28125 -0.515625,0.546875 0,0.15625 0.109375,0.34375 0.375,0.34375 0.265625,0 0.546875,-0.234375 0.546875,-0.59375 0,-0.34375 -0.3125,-0.640625 -0.828125,-0.640625 C 2.875,-4.40625 2.4375,-3.921875 2.25,-3.640625 2.15625,-4.09375 1.796875,-4.40625 1.328125,-4.40625 0.875,-4.40625 0.6875,-4.015625 0.59375,-3.84375 0.421875,-3.5 0.296875,-2.90625 0.296875,-2.875 c 0,0.109375 0.09375,0.109375 0.109375,0.109375 0.109375,0 0.109375,-0.015625 0.171875,-0.234375 0.171875,-0.703125 0.375,-1.1875 0.734375,-1.1875 0.15625,0 0.296875,0.078125 0.296875,0.453125 0,0.21875 -0.03125,0.328125 -0.15625,0.84375 z m 0,0"
   id="id-076fc09f-4a9d-4c19-aeaa-62eaee164f35" />
      </symbol>
      <symbol
   overflow="visible"
   id="id-c5a8efcd-bb27-4463-9b8d-6288be8c7ae7">
        <path
   style="stroke:none"
   d="m 4.53125,-4.984375 c 0,-0.65625 -0.171875,-2.046875 -1.1875,-2.046875 -1.390625,0 -2.921875,2.8125 -2.921875,5.09375 0,0.9375 0.28125,2.046875 1.1875,2.046875 1.40625,0 2.921875,-2.859375 2.921875,-5.09375 z M 1.46875,-3.625 C 1.640625,-4.25 1.84375,-5.046875 2.25,-5.765625 2.515625,-6.25 2.875,-6.8125 3.328125,-6.8125 c 0.484375,0 0.546875,0.640625 0.546875,1.203125 0,0.5 -0.078125,1 -0.3125,1.984375 z m 2,0.328125 C 3.359375,-2.84375 3.15625,-2 2.765625,-1.28125 c -0.34375,0.6875 -0.71875,1.171875 -1.15625,1.171875 -0.328125,0 -0.53125,-0.296875 -0.53125,-1.21875 0,-0.421875 0.0625,-1 0.3125,-1.96875 z m 0,0"
   id="id-37647161-bc59-4ffa-af83-c5225bec00c9" />
      </symbol>
      <symbol
   overflow="visible"
   id="id-1006aa76-fcb5-49fe-9951-0342c5a3ba89">
        <path
   style="stroke:none"
   d=""
   id="id-f0f08ae0-24f9-4ba2-a5e0-ee4b74fe2018" />
      </symbol>
      <symbol
   overflow="visible"
   id="id-0b2271d0-36e6-4552-ba75-486f18e2e613">
        <path
   style="stroke:none"
   d="m 6.84375,-3.265625 c 0.15625,0 0.34375,0 0.34375,-0.1875 C 7.1875,-3.65625 7,-3.65625 6.859375,-3.65625 h -5.96875 c -0.140625,0 -0.328125,0 -0.328125,0.203125 0,0.1875 0.1875,0.1875 0.328125,0.1875 z m 0.015625,1.9375 c 0.140625,0 0.328125,0 0.328125,-0.203125 0,-0.1875 -0.1875,-0.1875 -0.34375,-0.1875 H 0.890625 c -0.140625,0 -0.328125,0 -0.328125,0.1875 0,0.203125 0.1875,0.203125 0.328125,0.203125 z m 0,0"
   id="id-f02b97a2-3f0c-4bf6-9a4d-d7dbb68c14bd" />
      </symbol>
      <symbol
   overflow="visible"
   id="id-f7cb1b6b-edab-4f6d-ba10-98fc4167248f">
        <path
   style="stroke:none"
   d="m 3.78125,-0.546875 v 0.65625 L 5.25,0 v -0.3125 c -0.6875,0 -0.78125,-0.0625 -0.78125,-0.5625 V -6.921875 L 3.046875,-6.8125 V -6.5 c 0.6875,0 0.765625,0.0625 0.765625,0.5625 v 2.15625 c -0.28125,-0.359375 -0.71875,-0.625 -1.25,-0.625 -1.171875,0 -2.21875,0.984375 -2.21875,2.265625 0,1.265625 0.96875,2.25 2.109375,2.25 0.640625,0 1.078125,-0.34375 1.328125,-0.65625 z m 0,-2.671875 v 2.046875 c 0,0.171875 0,0.1875 -0.109375,0.359375 C 3.375,-0.328125 2.9375,-0.109375 2.5,-0.109375 2.046875,-0.109375 1.6875,-0.375 1.453125,-0.75 1.203125,-1.15625 1.171875,-1.71875 1.171875,-2.140625 1.171875,-2.5 1.1875,-3.09375 1.46875,-3.546875 1.6875,-3.859375 2.0625,-4.1875 2.609375,-4.1875 c 0.34375,0 0.765625,0.15625 1.0625,0.59375 0.109375,0.171875 0.109375,0.1875 0.109375,0.375 z m 0,0"
   id="id-6dd3e0cc-2f75-4857-9cc3-ee43ae9dff7b" />
      </symbol>
    </g>
  </defs>
  <g
   id="id-425b95ec-cd6a-404c-880e-0de6e2014d79"
   transform="translate(-149.228,-127.734)"
   style="fill:#0000ff;fill-opacity:1;stroke-width:5.03469">
    <g
   style="fill:#0000ff;fill-opacity:1;stroke-width:5.03469"
   id="id-d6a746f5-e8ad-400f-bfa5-83b7ecb50fe7">
      <g
   transform="translate(148.712,134.765)"
   id="g981"
   style="fill:#0000ff;fill-opacity:1;stroke-width:5.03469"><path
   style="fill:#0000ff;fill-opacity:1;stroke:none;stroke-width:5.03469"
   d="m 6.4375,-6.921875 c 0,-0.03125 -0.03125,-0.109375 -0.125,-0.109375 -0.046875,0 -0.046875,0.015625 -0.171875,0.15625 L 5.65625,-6.3125 c -0.25,-0.46875 -0.765625,-0.71875 -1.421875,-0.71875 -1.265625,0 -2.453125,1.15625 -2.453125,2.359375 0,0.796875 0.515625,1.265625 1.03125,1.40625 l 1.0625,0.28125 c 0.375,0.09375 0.921875,0.25 0.921875,1.0625 0,0.890625 -0.8125,1.828125 -1.796875,1.828125 -0.640625,0 -1.75,-0.21875 -1.75,-1.453125 0,-0.234375 0.0625,-0.484375 0.0625,-0.53125 0.015625,-0.046875 0.015625,-0.0625 0.015625,-0.078125 0,-0.09375 -0.0625,-0.109375 -0.109375,-0.109375 -0.046875,0 -0.078125,0.015625 -0.109375,0.046875 -0.03125,0.03125 -0.59375,2.3125 -0.59375,2.34375 0,0.046875 0.046875,0.09375 0.109375,0.09375 0.046875,0 0.0625,-0.015625 0.1875,-0.15625 L 1.296875,-0.5 c 0.421875,0.578125 1.109375,0.71875 1.6875,0.71875 1.359375,0 2.53125,-1.328125 2.53125,-2.5625 0,-0.6875 -0.34375,-1.03125 -0.484375,-1.171875 C 4.796875,-3.734375 4.640625,-3.78125 3.765625,-4 3.53125,-4.0625 3.1875,-4.171875 3.09375,-4.1875 2.828125,-4.28125 2.484375,-4.5625 2.484375,-5.09375 c 0,-0.8125 0.796875,-1.65625 1.75,-1.65625 0.8125,0 1.421875,0.4375 1.421875,1.546875 0,0.3125 -0.03125,0.5 -0.03125,0.5625 0,0 0,0.09375 0.109375,0.09375 0.109375,0 0.125,-0.03125 0.15625,-0.203125 z m 0,0"
   id="id-8e962e41-a24e-468b-b361-fbc6e43a75de" />
      </g></g>
    <g
   style="fill:#0000ff;fill-opacity:1;stroke-width:5.03469"
   id="id-de275ad5-3b77-453b-b4de-925ffd7c7b98">
      <g
   transform="translate(158.163,134.765)"
   id="g985"
   style="fill:#0000ff;fill-opacity:1;stroke-width:5.03469"><path
   style="fill:#0000ff;fill-opacity:1;stroke:none;stroke-width:5.03469"
   d="m 6.84375,-3.265625 c 0.15625,0 0.34375,0 0.34375,-0.1875 C 7.1875,-3.65625 7,-3.65625 6.859375,-3.65625 h -5.96875 c -0.140625,0 -0.328125,0 -0.328125,0.203125 0,0.1875 0.1875,0.1875 0.328125,0.1875 z m 0.015625,1.9375 c 0.140625,0 0.328125,0 0.328125,-0.203125 0,-0.1875 -0.1875,-0.1875 -0.34375,-0.1875 H 0.890625 c -0.140625,0 -0.328125,0 -0.328125,0.1875 0,0.203125 0.1875,0.203125 0.328125,0.203125 z m 0,0"
   id="id-9fb3aaeb-35ac-4461-9748-f362bfd76f4f" />
      </g></g>
    <g
   style="fill:#0000ff;fill-opacity:1;stroke-width:5.03469"
   id="id-c4e7163f-8172-4235-89f2-b273d01d36a6">
      <g
   transform="translate(168.679,134.765)"
   id="g989"
   style="fill:#0000ff;fill-opacity:1;stroke-width:5.03469"><path
   style="fill:#0000ff;fill-opacity:1;stroke:none;stroke-width:5.03469"
   d="m 0.875,-0.59375 c -0.03125,0.15625 -0.09375,0.390625 -0.09375,0.4375 0,0.171875 0.140625,0.265625 0.296875,0.265625 0.125,0 0.296875,-0.078125 0.375,-0.28125 C 1.46875,-0.203125 1.796875,-1.5625 1.84375,-1.75 c 0.078125,-0.328125 0.265625,-1.015625 0.3125,-1.296875 0.046875,-0.125 0.328125,-0.59375 0.5625,-0.8125 0.078125,-0.0625 0.375,-0.328125 0.796875,-0.328125 0.265625,0 0.40625,0.125 0.421875,0.125 -0.296875,0.046875 -0.515625,0.28125 -0.515625,0.546875 0,0.15625 0.109375,0.34375 0.375,0.34375 0.265625,0 0.546875,-0.234375 0.546875,-0.59375 0,-0.34375 -0.3125,-0.640625 -0.828125,-0.640625 C 2.875,-4.40625 2.4375,-3.921875 2.25,-3.640625 2.15625,-4.09375 1.796875,-4.40625 1.328125,-4.40625 0.875,-4.40625 0.6875,-4.015625 0.59375,-3.84375 0.421875,-3.5 0.296875,-2.90625 0.296875,-2.875 c 0,0.109375 0.09375,0.109375 0.109375,0.109375 0.109375,0 0.109375,-0.015625 0.171875,-0.234375 0.171875,-0.703125 0.375,-1.1875 0.734375,-1.1875 0.15625,0 0.296875,0.078125 0.296875,0.453125 0,0.21875 -0.03125,0.328125 -0.15625,0.84375 z m 0,0"
   id="id-e155cd21-73f6-4624-b4b5-f56a30cce22e" />
      </g></g>
    <g
   style="fill:#0000ff;fill-opacity:1;stroke-width:5.03469"
   id="id-f9148445-45f5-4b74-b0d2-ea71874132f4">
      <g
   transform="translate(173.45,134.765)"
   id="g993"
   style="fill:#0000ff;fill-opacity:1;stroke-width:5.03469"><path
   style="fill:#0000ff;fill-opacity:1;stroke:none;stroke-width:5.03469"
   d="m 3.78125,-0.546875 v 0.65625 L 5.25,0 v -0.3125 c -0.6875,0 -0.78125,-0.0625 -0.78125,-0.5625 V -6.921875 L 3.046875,-6.8125 V -6.5 c 0.6875,0 0.765625,0.0625 0.765625,0.5625 v 2.15625 c -0.28125,-0.359375 -0.71875,-0.625 -1.25,-0.625 -1.171875,0 -2.21875,0.984375 -2.21875,2.265625 0,1.265625 0.96875,2.25 2.109375,2.25 0.640625,0 1.078125,-0.34375 1.328125,-0.65625 z m 0,-2.671875 v 2.046875 c 0,0.171875 0,0.1875 -0.109375,0.359375 C 3.375,-0.328125 2.9375,-0.109375 2.5,-0.109375 2.046875,-0.109375 1.6875,-0.375 1.453125,-0.75 1.203125,-1.15625 1.171875,-1.71875 1.171875,-2.140625 1.171875,-2.5 1.1875,-3.09375 1.46875,-3.546875 1.6875,-3.859375 2.0625,-4.1875 2.609375,-4.1875 c 0.34375,0 0.765625,0.15625 1.0625,0.59375 0.109375,0.171875 0.109375,0.1875 0.109375,0.375 z m 0,0"
   id="id-4d2dfd15-8ae6-45da-8fd0-3ffdbf6ca0ac" />
      </g></g>
    <g
   style="fill:#0000ff;fill-opacity:1;stroke-width:5.03469"
   id="id-2eb0fdf4-013a-4c5e-845c-1ec668c6edc0">
      <g
   transform="translate(178.985,134.765)"
   id="g997"
   style="fill:#0000ff;fill-opacity:1;stroke-width:5.03469"><path
   style="fill:#0000ff;fill-opacity:1;stroke:none;stroke-width:5.03469"
   d="m 0.875,-0.59375 c -0.03125,0.15625 -0.09375,0.390625 -0.09375,0.4375 0,0.171875 0.140625,0.265625 0.296875,0.265625 0.125,0 0.296875,-0.078125 0.375,-0.28125 C 1.46875,-0.203125 1.796875,-1.5625 1.84375,-1.75 c 0.078125,-0.328125 0.265625,-1.015625 0.3125,-1.296875 0.046875,-0.125 0.328125,-0.59375 0.5625,-0.8125 0.078125,-0.0625 0.375,-0.328125 0.796875,-0.328125 0.265625,0 0.40625,0.125 0.421875,0.125 -0.296875,0.046875 -0.515625,0.28125 -0.515625,0.546875 0,0.15625 0.109375,0.34375 0.375,0.34375 0.265625,0 0.546875,-0.234375 0.546875,-0.59375 0,-0.34375 -0.3125,-0.640625 -0.828125,-0.640625 C 2.875,-4.40625 2.4375,-3.921875 2.25,-3.640625 2.15625,-4.09375 1.796875,-4.40625 1.328125,-4.40625 0.875,-4.40625 0.6875,-4.015625 0.59375,-3.84375 0.421875,-3.5 0.296875,-2.90625 0.296875,-2.875 c 0,0.109375 0.09375,0.109375 0.109375,0.109375 0.109375,0 0.109375,-0.015625 0.171875,-0.234375 0.171875,-0.703125 0.375,-1.1875 0.734375,-1.1875 0.15625,0 0.296875,0.078125 0.296875,0.453125 0,0.21875 -0.03125,0.328125 -0.15625,0.84375 z m 0,0"
   id="id-d73c5330-094a-4427-976c-abea1ed07460" />
      </g></g>
    <g
   style="fill:#0000ff;fill-opacity:1;stroke-width:5.03469"
   id="id-1614ddc9-8e1c-4f56-a675-c6849fd2ba5a">
      <g
   transform="translate(183.757,134.765)"
   id="g1001"
   style="fill:#0000ff;fill-opacity:1;stroke-width:5.03469"><path
   style="fill:#0000ff;fill-opacity:1;stroke:none;stroke-width:5.03469"
   d="m 3.78125,-0.546875 v 0.65625 L 5.25,0 v -0.3125 c -0.6875,0 -0.78125,-0.0625 -0.78125,-0.5625 V -6.921875 L 3.046875,-6.8125 V -6.5 c 0.6875,0 0.765625,0.0625 0.765625,0.5625 v 2.15625 c -0.28125,-0.359375 -0.71875,-0.625 -1.25,-0.625 -1.171875,0 -2.21875,0.984375 -2.21875,2.265625 0,1.265625 0.96875,2.25 2.109375,2.25 0.640625,0 1.078125,-0.34375 1.328125,-0.65625 z m 0,-2.671875 v 2.046875 c 0,0.171875 0,0.1875 -0.109375,0.359375 C 3.375,-0.328125 2.9375,-0.109375 2.5,-0.109375 2.046875,-0.109375 1.6875,-0.375 1.453125,-0.75 1.203125,-1.15625 1.171875,-1.71875 1.171875,-2.140625 1.171875,-2.5 1.1875,-3.09375 1.46875,-3.546875 1.6875,-3.859375 2.0625,-4.1875 2.609375,-4.1875 c 0.34375,0 0.765625,0.15625 1.0625,0.59375 0.109375,0.171875 0.109375,0.1875 0.109375,0.375 z m 0,0"
   id="id-9b51ec0a-aac6-4cfa-8bdd-ffedf2d74119" />
      </g></g>
    <g
   style="fill:#0000ff;fill-opacity:1;stroke-width:5.03469"
   id="id-2a0fde13-a6de-49dd-9e9c-9e9ab262d062">
      <g
   transform="translate(189.292,134.765)"
   id="g1005"
   style="fill:#0000ff;fill-opacity:1;stroke-width:5.03469"><path
   style="fill:#0000ff;fill-opacity:1;stroke:none;stroke-width:5.03469"
   d="m 4.53125,-4.984375 c 0,-0.65625 -0.171875,-2.046875 -1.1875,-2.046875 -1.390625,0 -2.921875,2.8125 -2.921875,5.09375 0,0.9375 0.28125,2.046875 1.1875,2.046875 1.40625,0 2.921875,-2.859375 2.921875,-5.09375 z M 1.46875,-3.625 C 1.640625,-4.25 1.84375,-5.046875 2.25,-5.765625 2.515625,-6.25 2.875,-6.8125 3.328125,-6.8125 c 0.484375,0 0.546875,0.640625 0.546875,1.203125 0,0.5 -0.078125,1 -0.3125,1.984375 z m 2,0.328125 C 3.359375,-2.84375 3.15625,-2 2.765625,-1.28125 c -0.34375,0.6875 -0.71875,1.171875 -1.15625,1.171875 -0.328125,0 -0.53125,-0.296875 -0.53125,-1.21875 0,-0.421875 0.0625,-1 0.3125,-1.96875 z m 0,0"
   id="id-f6dc4c4e-2c78-4d7d-bb6e-e1337d2b12fe" />
      </g></g>
  </g>
</g><g
       transform="matrix(1.6551766,0,0,-1.6551766,404.8384,391.27314)"
       ns6:version="1.8.2"
       ns6:texconverter="pdflatex"
       ns6:pdfconverter="inkscape"
       ns6:text="$S=r\\mathrm{d}\\theta\\mathrm{d}z$"
       ns6:preamble="/home/eb/.config/inkscape/extensions/textext/default_packages.tex"
       ns6:scale="2.5"
       ns6:alignment="middle center"
       ns6:stroke-to-path="0"
       ns6:inkscapeversion="0.92.5"
       ns6:jacobian_sqrt="8.33333"
       id="g1388"
       style="fill:url(#linearGradient2812);fill-opacity:1;stroke-width:5.0347"><defs
   id="id-718939db-e368-40dc-b333-b704f2f9bb48"
   style="fill:url(#linearGradient2812);fill-opacity:1">
    <g
   id="id-2fe04234-904c-4179-93d7-554dec4958e2"
   style="fill:url(#linearGradient2812);fill-opacity:1">
      <symbol
   overflow="visible"
   id="id-efa1b73f-f2f5-42e7-bb06-e9154fd0bd91"
   style="fill:url(#linearGradient2812);fill-opacity:1">
        <path
   style="fill:url(#linearGradient2812);fill-opacity:1;stroke:none;stroke-width:0"
   d=""
   id="id-f14f6038-2939-48e0-8dc2-3f7a53270937" />
      </symbol>
      <symbol
   overflow="visible"
   id="id-d39823f5-32eb-47be-a564-3e4fa14c379b"
   style="fill:url(#linearGradient2812);fill-opacity:1">
        <path
   style="fill:url(#linearGradient2812);fill-opacity:1;stroke:none;stroke-width:0"
   d="m 6.4375,-6.921875 c 0,-0.03125 -0.03125,-0.109375 -0.125,-0.109375 -0.046875,0 -0.046875,0.015625 -0.171875,0.15625 L 5.65625,-6.3125 c -0.25,-0.46875 -0.765625,-0.71875 -1.421875,-0.71875 -1.265625,0 -2.453125,1.15625 -2.453125,2.359375 0,0.796875 0.515625,1.265625 1.03125,1.40625 l 1.0625,0.28125 c 0.375,0.09375 0.921875,0.25 0.921875,1.0625 0,0.890625 -0.8125,1.828125 -1.796875,1.828125 -0.640625,0 -1.75,-0.21875 -1.75,-1.453125 0,-0.234375 0.0625,-0.484375 0.0625,-0.53125 0.015625,-0.046875 0.015625,-0.0625 0.015625,-0.078125 0,-0.09375 -0.0625,-0.109375 -0.109375,-0.109375 -0.046875,0 -0.078125,0.015625 -0.109375,0.046875 -0.03125,0.03125 -0.59375,2.3125 -0.59375,2.34375 0,0.046875 0.046875,0.09375 0.109375,0.09375 0.046875,0 0.0625,-0.015625 0.1875,-0.15625 L 1.296875,-0.5 c 0.421875,0.578125 1.109375,0.71875 1.6875,0.71875 1.359375,0 2.53125,-1.328125 2.53125,-2.5625 0,-0.6875 -0.34375,-1.03125 -0.484375,-1.171875 C 4.796875,-3.734375 4.640625,-3.78125 3.765625,-4 3.53125,-4.0625 3.1875,-4.171875 3.09375,-4.1875 2.828125,-4.28125 2.484375,-4.5625 2.484375,-5.09375 c 0,-0.8125 0.796875,-1.65625 1.75,-1.65625 0.8125,0 1.421875,0.4375 1.421875,1.546875 0,0.3125 -0.03125,0.5 -0.03125,0.5625 0,0 0,0.09375 0.109375,0.09375 0.109375,0 0.125,-0.03125 0.15625,-0.203125 z m 0,0"
   id="id-92445391-3886-4669-8869-bb3bdc3cdffc" />
      </symbol>
      <symbol
   overflow="visible"
   id="id-78a35a2e-0557-49d8-8d80-00d77713e868"
   style="fill:url(#linearGradient2812);fill-opacity:1">
        <path
   style="fill:url(#linearGradient2812);fill-opacity:1;stroke:none;stroke-width:0"
   d="m 0.875,-0.59375 c -0.03125,0.15625 -0.09375,0.390625 -0.09375,0.4375 0,0.171875 0.140625,0.265625 0.296875,0.265625 0.125,0 0.296875,-0.078125 0.375,-0.28125 C 1.46875,-0.203125 1.796875,-1.5625 1.84375,-1.75 c 0.078125,-0.328125 0.265625,-1.015625 0.3125,-1.296875 0.046875,-0.125 0.328125,-0.59375 0.5625,-0.8125 0.078125,-0.0625 0.375,-0.328125 0.796875,-0.328125 0.265625,0 0.40625,0.125 0.421875,0.125 -0.296875,0.046875 -0.515625,0.28125 -0.515625,0.546875 0,0.15625 0.109375,0.34375 0.375,0.34375 0.265625,0 0.546875,-0.234375 0.546875,-0.59375 0,-0.34375 -0.3125,-0.640625 -0.828125,-0.640625 C 2.875,-4.40625 2.4375,-3.921875 2.25,-3.640625 2.15625,-4.09375 1.796875,-4.40625 1.328125,-4.40625 0.875,-4.40625 0.6875,-4.015625 0.59375,-3.84375 0.421875,-3.5 0.296875,-2.90625 0.296875,-2.875 c 0,0.109375 0.09375,0.109375 0.109375,0.109375 0.109375,0 0.109375,-0.015625 0.171875,-0.234375 0.171875,-0.703125 0.375,-1.1875 0.734375,-1.1875 0.15625,0 0.296875,0.078125 0.296875,0.453125 0,0.21875 -0.03125,0.328125 -0.15625,0.84375 z m 0,0"
   id="id-790aa769-de9c-4d96-aee3-e5b5e4b26dd6" />
      </symbol>
      <symbol
   overflow="visible"
   id="id-fbe8cb57-8f5b-4731-a56b-6116f05ce48d"
   style="fill:url(#linearGradient2812);fill-opacity:1">
        <path
   style="fill:url(#linearGradient2812);fill-opacity:1;stroke:none;stroke-width:0"
   d="m 4.53125,-4.984375 c 0,-0.65625 -0.171875,-2.046875 -1.1875,-2.046875 -1.390625,0 -2.921875,2.8125 -2.921875,5.09375 0,0.9375 0.28125,2.046875 1.1875,2.046875 1.40625,0 2.921875,-2.859375 2.921875,-5.09375 z M 1.46875,-3.625 C 1.640625,-4.25 1.84375,-5.046875 2.25,-5.765625 2.515625,-6.25 2.875,-6.8125 3.328125,-6.8125 c 0.484375,0 0.546875,0.640625 0.546875,1.203125 0,0.5 -0.078125,1 -0.3125,1.984375 z m 2,0.328125 C 3.359375,-2.84375 3.15625,-2 2.765625,-1.28125 c -0.34375,0.6875 -0.71875,1.171875 -1.15625,1.171875 -0.328125,0 -0.53125,-0.296875 -0.53125,-1.21875 0,-0.421875 0.0625,-1 0.3125,-1.96875 z m 0,0"
   id="id-e9311c38-7eb2-492d-a49e-1644d586a4b9" />
      </symbol>
      <symbol
   overflow="visible"
   id="id-a2999baa-becb-4041-b893-8af9c7ab60f8"
   style="fill:url(#linearGradient2812);fill-opacity:1">
        <path
   style="fill:url(#linearGradient2812);fill-opacity:1;stroke:none;stroke-width:0"
   d="m 1.328125,-0.828125 c 0.53125,-0.578125 0.828125,-0.828125 1.1875,-1.140625 0,0 0.609375,-0.53125 0.96875,-0.890625 C 4.4375,-3.78125 4.65625,-4.265625 4.65625,-4.3125 c 0,-0.09375 -0.09375,-0.09375 -0.109375,-0.09375 -0.078125,0 -0.09375,0.015625 -0.15625,0.109375 -0.296875,0.484375 -0.5,0.640625 -0.734375,0.640625 -0.25,0 -0.359375,-0.15625 -0.515625,-0.328125 -0.1875,-0.21875 -0.359375,-0.421875 -0.6875,-0.421875 -0.75,0 -1.203125,0.921875 -1.203125,1.140625 0,0.046875 0.03125,0.109375 0.109375,0.109375 0.09375,0 0.109375,-0.046875 0.140625,-0.109375 0.1875,-0.46875 0.765625,-0.46875 0.84375,-0.46875 0.203125,0 0.390625,0.0625 0.625,0.140625 0.40625,0.15625 0.515625,0.15625 0.765625,0.15625 -0.359375,0.421875 -1.1875,1.140625 -1.375,1.296875 l -0.90625,0.84375 C 0.78125,-0.625 0.421875,-0.0625 0.421875,0.015625 c 0,0.09375 0.109375,0.09375 0.125,0.09375 0.078125,0 0.09375,-0.015625 0.15625,-0.125 0.234375,-0.359375 0.53125,-0.625 0.859375,-0.625 0.21875,0 0.328125,0.09375 0.578125,0.375 0.15625,0.21875 0.34375,0.375 0.625,0.375 1,0 1.578125,-1.265625 1.578125,-1.53125 0,-0.046875 -0.046875,-0.109375 -0.125,-0.109375 -0.09375,0 -0.109375,0.0625 -0.140625,0.140625 C 3.84375,-0.75 3.203125,-0.5625 2.875,-0.5625 c -0.1875,0 -0.375,-0.0625 -0.578125,-0.125 -0.34375,-0.125 -0.5,-0.171875 -0.703125,-0.171875 -0.015625,0 -0.171875,0 -0.265625,0.03125 z m 0,0"
   id="id-caafc7ea-310b-472f-813b-2a221681bdc7" />
      </symbol>
      <symbol
   overflow="visible"
   id="id-01ece210-12fe-4938-89fa-f377abd63ab1"
   style="fill:url(#linearGradient2812);fill-opacity:1">
        <path
   style="fill:url(#linearGradient2812);fill-opacity:1;stroke:none;stroke-width:0"
   d=""
   id="id-a7f33d07-5ef8-4945-a4bc-32977653b4f9" />
      </symbol>
      <symbol
   overflow="visible"
   id="id-7214bcc8-33dc-4203-9caa-fa7f15a36b07"
   style="fill:url(#linearGradient2812);fill-opacity:1">
        <path
   style="fill:url(#linearGradient2812);fill-opacity:1;stroke:none;stroke-width:0"
   d="m 6.84375,-3.265625 c 0.15625,0 0.34375,0 0.34375,-0.1875 C 7.1875,-3.65625 7,-3.65625 6.859375,-3.65625 h -5.96875 c -0.140625,0 -0.328125,0 -0.328125,0.203125 0,0.1875 0.1875,0.1875 0.328125,0.1875 z m 0.015625,1.9375 c 0.140625,0 0.328125,0 0.328125,-0.203125 0,-0.1875 -0.1875,-0.1875 -0.34375,-0.1875 H 0.890625 c -0.140625,0 -0.328125,0 -0.328125,0.1875 0,0.203125 0.1875,0.203125 0.328125,0.203125 z m 0,0"
   id="id-6aa0ad6d-dba0-4001-8b00-50e7ebccf15e" />
      </symbol>
      <symbol
   overflow="visible"
   id="id-8605cdbd-c2a8-438b-80a6-cf7fb58a0de3"
   style="fill:url(#linearGradient2812);fill-opacity:1">
        <path
   style="fill:url(#linearGradient2812);fill-opacity:1;stroke:none;stroke-width:0"
   d="m 3.78125,-0.546875 v 0.65625 L 5.25,0 v -0.3125 c -0.6875,0 -0.78125,-0.0625 -0.78125,-0.5625 V -6.921875 L 3.046875,-6.8125 V -6.5 c 0.6875,0 0.765625,0.0625 0.765625,0.5625 v 2.15625 c -0.28125,-0.359375 -0.71875,-0.625 -1.25,-0.625 -1.171875,0 -2.21875,0.984375 -2.21875,2.265625 0,1.265625 0.96875,2.25 2.109375,2.25 0.640625,0 1.078125,-0.34375 1.328125,-0.65625 z m 0,-2.671875 v 2.046875 c 0,0.171875 0,0.1875 -0.109375,0.359375 C 3.375,-0.328125 2.9375,-0.109375 2.5,-0.109375 2.046875,-0.109375 1.6875,-0.375 1.453125,-0.75 1.203125,-1.15625 1.171875,-1.71875 1.171875,-2.140625 1.171875,-2.5 1.1875,-3.09375 1.46875,-3.546875 1.6875,-3.859375 2.0625,-4.1875 2.609375,-4.1875 c 0.34375,0 0.765625,0.15625 1.0625,0.59375 0.109375,0.171875 0.109375,0.1875 0.109375,0.375 z m 0,0"
   id="id-cef1191a-8edd-40f7-9e39-c72b3ab92ff5" />
      </symbol>
    </g>
  </defs>
  <g
   id="id-b5657771-9083-44ab-8b44-9e89e575bff3"
   transform="translate(-149.228,-127.734)"
   style="fill:url(#linearGradient5270);fill-opacity:1;stroke-width:6.75954">
    <g
   style="fill:url(#linearGradient5232);fill-opacity:1;stroke-width:5.0347"
   id="id-984d8645-05cd-4843-a4c1-44196d1de39c">
      <g
   transform="translate(148.712,134.765)"
   id="g1360"
   style="fill:url(#linearGradient5230);fill-opacity:1;stroke-width:5.0347"><path
   style="fill:url(#linearGradient5228);fill-opacity:1;stroke:none;stroke-width:0"
   d="m 6.4375,-6.921875 c 0,-0.03125 -0.03125,-0.109375 -0.125,-0.109375 -0.046875,0 -0.046875,0.015625 -0.171875,0.15625 L 5.65625,-6.3125 c -0.25,-0.46875 -0.765625,-0.71875 -1.421875,-0.71875 -1.265625,0 -2.453125,1.15625 -2.453125,2.359375 0,0.796875 0.515625,1.265625 1.03125,1.40625 l 1.0625,0.28125 c 0.375,0.09375 0.921875,0.25 0.921875,1.0625 0,0.890625 -0.8125,1.828125 -1.796875,1.828125 -0.640625,0 -1.75,-0.21875 -1.75,-1.453125 0,-0.234375 0.0625,-0.484375 0.0625,-0.53125 0.015625,-0.046875 0.015625,-0.0625 0.015625,-0.078125 0,-0.09375 -0.0625,-0.109375 -0.109375,-0.109375 -0.046875,0 -0.078125,0.015625 -0.109375,0.046875 -0.03125,0.03125 -0.59375,2.3125 -0.59375,2.34375 0,0.046875 0.046875,0.09375 0.109375,0.09375 0.046875,0 0.0625,-0.015625 0.1875,-0.15625 L 1.296875,-0.5 c 0.421875,0.578125 1.109375,0.71875 1.6875,0.71875 1.359375,0 2.53125,-1.328125 2.53125,-2.5625 0,-0.6875 -0.34375,-1.03125 -0.484375,-1.171875 C 4.796875,-3.734375 4.640625,-3.78125 3.765625,-4 3.53125,-4.0625 3.1875,-4.171875 3.09375,-4.1875 2.828125,-4.28125 2.484375,-4.5625 2.484375,-5.09375 c 0,-0.8125 0.796875,-1.65625 1.75,-1.65625 0.8125,0 1.421875,0.4375 1.421875,1.546875 0,0.3125 -0.03125,0.5 -0.03125,0.5625 0,0 0,0.09375 0.109375,0.09375 0.109375,0 0.125,-0.03125 0.15625,-0.203125 z m 0,0"
   id="id-2f55ba46-4f08-46da-88c8-5bfa8970491c" />
      </g></g>
    <g
   style="fill:url(#linearGradient5238);fill-opacity:1;stroke-width:5.0347"
   id="id-c7119c1f-92ab-47ac-b190-8febc61d8229">
      <g
   transform="translate(158.163,134.765)"
   id="g1364"
   style="fill:url(#linearGradient5236);fill-opacity:1;stroke-width:5.0347"><path
   style="fill:url(#linearGradient5234);fill-opacity:1;stroke:none;stroke-width:0"
   d="m 6.84375,-3.265625 c 0.15625,0 0.34375,0 0.34375,-0.1875 C 7.1875,-3.65625 7,-3.65625 6.859375,-3.65625 h -5.96875 c -0.140625,0 -0.328125,0 -0.328125,0.203125 0,0.1875 0.1875,0.1875 0.328125,0.1875 z m 0.015625,1.9375 c 0.140625,0 0.328125,0 0.328125,-0.203125 0,-0.1875 -0.1875,-0.1875 -0.34375,-0.1875 H 0.890625 c -0.140625,0 -0.328125,0 -0.328125,0.1875 0,0.203125 0.1875,0.203125 0.328125,0.203125 z m 0,0"
   id="id-017510aa-bdc0-473f-a330-a950c2b4c453" />
      </g></g>
    <g
   style="fill:url(#linearGradient5244);fill-opacity:1;stroke-width:5.0347"
   id="id-b93f800c-dd19-45bb-ba2e-d1a86cb2158e">
      <g
   transform="translate(168.679,134.765)"
   id="g1368"
   style="fill:url(#linearGradient5242);fill-opacity:1;stroke-width:5.0347"><path
   style="fill:url(#linearGradient5240);fill-opacity:1;stroke:none;stroke-width:0"
   d="m 0.875,-0.59375 c -0.03125,0.15625 -0.09375,0.390625 -0.09375,0.4375 0,0.171875 0.140625,0.265625 0.296875,0.265625 0.125,0 0.296875,-0.078125 0.375,-0.28125 C 1.46875,-0.203125 1.796875,-1.5625 1.84375,-1.75 c 0.078125,-0.328125 0.265625,-1.015625 0.3125,-1.296875 0.046875,-0.125 0.328125,-0.59375 0.5625,-0.8125 0.078125,-0.0625 0.375,-0.328125 0.796875,-0.328125 0.265625,0 0.40625,0.125 0.421875,0.125 -0.296875,0.046875 -0.515625,0.28125 -0.515625,0.546875 0,0.15625 0.109375,0.34375 0.375,0.34375 0.265625,0 0.546875,-0.234375 0.546875,-0.59375 0,-0.34375 -0.3125,-0.640625 -0.828125,-0.640625 C 2.875,-4.40625 2.4375,-3.921875 2.25,-3.640625 2.15625,-4.09375 1.796875,-4.40625 1.328125,-4.40625 0.875,-4.40625 0.6875,-4.015625 0.59375,-3.84375 0.421875,-3.5 0.296875,-2.90625 0.296875,-2.875 c 0,0.109375 0.09375,0.109375 0.109375,0.109375 0.109375,0 0.109375,-0.015625 0.171875,-0.234375 0.171875,-0.703125 0.375,-1.1875 0.734375,-1.1875 0.15625,0 0.296875,0.078125 0.296875,0.453125 0,0.21875 -0.03125,0.328125 -0.15625,0.84375 z m 0,0"
   id="id-7617b545-ed3c-4488-8521-29fa5e9d8e4f" />
      </g></g>
    <g
   style="fill:url(#linearGradient5250);fill-opacity:1;stroke-width:5.0347"
   id="id-ab3510e3-9921-436c-9ea4-df5cc3f84e82">
      <g
   transform="translate(173.45,134.765)"
   id="g1372"
   style="fill:url(#linearGradient5248);fill-opacity:1;stroke-width:5.0347"><path
   style="fill:url(#linearGradient5246);fill-opacity:1;stroke:none;stroke-width:0"
   d="m 3.78125,-0.546875 v 0.65625 L 5.25,0 v -0.3125 c -0.6875,0 -0.78125,-0.0625 -0.78125,-0.5625 V -6.921875 L 3.046875,-6.8125 V -6.5 c 0.6875,0 0.765625,0.0625 0.765625,0.5625 v 2.15625 c -0.28125,-0.359375 -0.71875,-0.625 -1.25,-0.625 -1.171875,0 -2.21875,0.984375 -2.21875,2.265625 0,1.265625 0.96875,2.25 2.109375,2.25 0.640625,0 1.078125,-0.34375 1.328125,-0.65625 z m 0,-2.671875 v 2.046875 c 0,0.171875 0,0.1875 -0.109375,0.359375 C 3.375,-0.328125 2.9375,-0.109375 2.5,-0.109375 2.046875,-0.109375 1.6875,-0.375 1.453125,-0.75 1.203125,-1.15625 1.171875,-1.71875 1.171875,-2.140625 1.171875,-2.5 1.1875,-3.09375 1.46875,-3.546875 1.6875,-3.859375 2.0625,-4.1875 2.609375,-4.1875 c 0.34375,0 0.765625,0.15625 1.0625,0.59375 0.109375,0.171875 0.109375,0.1875 0.109375,0.375 z m 0,0"
   id="id-4db1414f-34ba-43d6-b497-7f9f113d2820" />
      </g></g>
    <g
   style="fill:url(#linearGradient5256);fill-opacity:1;stroke-width:5.0347"
   id="id-fdcc0d5e-80b4-4d17-807c-9905312f909a">
      <g
   transform="translate(178.985,134.765)"
   id="g1376"
   style="fill:url(#linearGradient5254);fill-opacity:1;stroke-width:5.0347"><path
   style="fill:url(#linearGradient5252);fill-opacity:1;stroke:none;stroke-width:0"
   d="m 4.53125,-4.984375 c 0,-0.65625 -0.171875,-2.046875 -1.1875,-2.046875 -1.390625,0 -2.921875,2.8125 -2.921875,5.09375 0,0.9375 0.28125,2.046875 1.1875,2.046875 1.40625,0 2.921875,-2.859375 2.921875,-5.09375 z M 1.46875,-3.625 C 1.640625,-4.25 1.84375,-5.046875 2.25,-5.765625 2.515625,-6.25 2.875,-6.8125 3.328125,-6.8125 c 0.484375,0 0.546875,0.640625 0.546875,1.203125 0,0.5 -0.078125,1 -0.3125,1.984375 z m 2,0.328125 C 3.359375,-2.84375 3.15625,-2 2.765625,-1.28125 c -0.34375,0.6875 -0.71875,1.171875 -1.15625,1.171875 -0.328125,0 -0.53125,-0.296875 -0.53125,-1.21875 0,-0.421875 0.0625,-1 0.3125,-1.96875 z m 0,0"
   id="id-a79e844b-4328-4ff7-b899-0d62a7d148cc" />
      </g></g>
    <g
   style="fill:url(#linearGradient5262);fill-opacity:1;stroke-width:5.0347"
   id="id-7c49244a-4342-4880-adb2-d2bf0b68d6bd">
      <g
   transform="translate(183.939,134.765)"
   id="g1380"
   style="fill:url(#linearGradient5260);fill-opacity:1;stroke-width:5.0347"><path
   style="fill:url(#linearGradient5258);fill-opacity:1;stroke:none;stroke-width:0"
   d="m 3.78125,-0.546875 v 0.65625 L 5.25,0 v -0.3125 c -0.6875,0 -0.78125,-0.0625 -0.78125,-0.5625 V -6.921875 L 3.046875,-6.8125 V -6.5 c 0.6875,0 0.765625,0.0625 0.765625,0.5625 v 2.15625 c -0.28125,-0.359375 -0.71875,-0.625 -1.25,-0.625 -1.171875,0 -2.21875,0.984375 -2.21875,2.265625 0,1.265625 0.96875,2.25 2.109375,2.25 0.640625,0 1.078125,-0.34375 1.328125,-0.65625 z m 0,-2.671875 v 2.046875 c 0,0.171875 0,0.1875 -0.109375,0.359375 C 3.375,-0.328125 2.9375,-0.109375 2.5,-0.109375 2.046875,-0.109375 1.6875,-0.375 1.453125,-0.75 1.203125,-1.15625 1.171875,-1.71875 1.171875,-2.140625 1.171875,-2.5 1.1875,-3.09375 1.46875,-3.546875 1.6875,-3.859375 2.0625,-4.1875 2.609375,-4.1875 c 0.34375,0 0.765625,0.15625 1.0625,0.59375 0.109375,0.171875 0.109375,0.1875 0.109375,0.375 z m 0,0"
   id="id-9744c2a5-5899-4ffb-b292-51eebb329186" />
      </g></g>
    <g
   style="fill:url(#linearGradient5268);fill-opacity:1;stroke-width:5.0347"
   id="id-291fbe02-e6ad-431b-a359-c107335c1462">
      <g
   transform="translate(189.474,134.765)"
   id="g1384"
   style="fill:url(#linearGradient5266);fill-opacity:1;stroke-width:5.0347"><path
   style="fill:url(#linearGradient5264);fill-opacity:1;stroke:none;stroke-width:0"
   d="m 1.328125,-0.828125 c 0.53125,-0.578125 0.828125,-0.828125 1.1875,-1.140625 0,0 0.609375,-0.53125 0.96875,-0.890625 C 4.4375,-3.78125 4.65625,-4.265625 4.65625,-4.3125 c 0,-0.09375 -0.09375,-0.09375 -0.109375,-0.09375 -0.078125,0 -0.09375,0.015625 -0.15625,0.109375 -0.296875,0.484375 -0.5,0.640625 -0.734375,0.640625 -0.25,0 -0.359375,-0.15625 -0.515625,-0.328125 -0.1875,-0.21875 -0.359375,-0.421875 -0.6875,-0.421875 -0.75,0 -1.203125,0.921875 -1.203125,1.140625 0,0.046875 0.03125,0.109375 0.109375,0.109375 0.09375,0 0.109375,-0.046875 0.140625,-0.109375 0.1875,-0.46875 0.765625,-0.46875 0.84375,-0.46875 0.203125,0 0.390625,0.0625 0.625,0.140625 0.40625,0.15625 0.515625,0.15625 0.765625,0.15625 -0.359375,0.421875 -1.1875,1.140625 -1.375,1.296875 l -0.90625,0.84375 C 0.78125,-0.625 0.421875,-0.0625 0.421875,0.015625 c 0,0.09375 0.109375,0.09375 0.125,0.09375 0.078125,0 0.09375,-0.015625 0.15625,-0.125 0.234375,-0.359375 0.53125,-0.625 0.859375,-0.625 0.21875,0 0.328125,0.09375 0.578125,0.375 0.15625,0.21875 0.34375,0.375 0.625,0.375 1,0 1.578125,-1.265625 1.578125,-1.53125 0,-0.046875 -0.046875,-0.109375 -0.125,-0.109375 -0.09375,0 -0.109375,0.0625 -0.140625,0.140625 C 3.84375,-0.75 3.203125,-0.5625 2.875,-0.5625 c -0.1875,0 -0.375,-0.0625 -0.578125,-0.125 -0.34375,-0.125 -0.5,-0.171875 -0.703125,-0.171875 -0.015625,0 -0.171875,0 -0.265625,0.03125 z m 0,0"
   id="id-1faffc96-ba91-476c-8fa6-349b419ef620" />
      </g></g>
  </g>
</g><g
       transform="matrix(1.6551766,0,0,-1.6551766,232.79247,428.62788)"
       ns6:version="1.8.2"
       ns6:texconverter="pdflatex"
       ns6:pdfconverter="inkscape"
       ns6:text="$S=\\mathrm{d}r\\mathrm{d}z$"
       ns6:preamble="/home/eb/.config/inkscape/extensions/textext/default_packages.tex"
       ns6:scale="2.5"
       ns6:alignment="middle center"
       ns6:stroke-to-path="0"
       ns6:inkscapeversion="0.92.5"
       ns6:jacobian_sqrt="8.33333"
       id="g1846"
       style="fill:url(#linearGradient2732);fill-opacity:1;stroke-width:5.03467;stroke-dasharray:none"><defs
   id="id-5e2493d1-d7de-4125-8b57-e36d88823881"
   style="fill:url(#linearGradient2732);fill-opacity:1">
    <g
   id="id-84e9da02-9268-4955-9165-39f95bfb064d"
   style="fill:url(#linearGradient2732);fill-opacity:1">
      <symbol
   overflow="visible"
   id="id-b9dd9cef-cad9-405a-b3dc-c18cdac8a459"
   style="fill:url(#linearGradient2732);fill-opacity:1">
        <path
   style="fill:url(#linearGradient2732);fill-opacity:1;stroke:none;stroke-width:0"
   d=""
   id="id-858e9ab5-ec43-4a41-a28d-5a267c43013c" />
      </symbol>
      <symbol
   overflow="visible"
   id="id-9b07ee19-6876-4516-a5c6-65c113f7b264"
   style="fill:url(#linearGradient2732);fill-opacity:1">
        <path
   style="fill:url(#linearGradient2732);fill-opacity:1;stroke:none;stroke-width:0"
   d="m 6.4375,-6.921875 c 0,-0.03125 -0.03125,-0.109375 -0.125,-0.109375 -0.046875,0 -0.046875,0.015625 -0.171875,0.15625 L 5.65625,-6.3125 c -0.25,-0.46875 -0.765625,-0.71875 -1.421875,-0.71875 -1.265625,0 -2.453125,1.15625 -2.453125,2.359375 0,0.796875 0.515625,1.265625 1.03125,1.40625 l 1.0625,0.28125 c 0.375,0.09375 0.921875,0.25 0.921875,1.0625 0,0.890625 -0.8125,1.828125 -1.796875,1.828125 -0.640625,0 -1.75,-0.21875 -1.75,-1.453125 0,-0.234375 0.0625,-0.484375 0.0625,-0.53125 0.015625,-0.046875 0.015625,-0.0625 0.015625,-0.078125 0,-0.09375 -0.0625,-0.109375 -0.109375,-0.109375 -0.046875,0 -0.078125,0.015625 -0.109375,0.046875 -0.03125,0.03125 -0.59375,2.3125 -0.59375,2.34375 0,0.046875 0.046875,0.09375 0.109375,0.09375 0.046875,0 0.0625,-0.015625 0.1875,-0.15625 L 1.296875,-0.5 c 0.421875,0.578125 1.109375,0.71875 1.6875,0.71875 1.359375,0 2.53125,-1.328125 2.53125,-2.5625 0,-0.6875 -0.34375,-1.03125 -0.484375,-1.171875 C 4.796875,-3.734375 4.640625,-3.78125 3.765625,-4 3.53125,-4.0625 3.1875,-4.171875 3.09375,-4.1875 2.828125,-4.28125 2.484375,-4.5625 2.484375,-5.09375 c 0,-0.8125 0.796875,-1.65625 1.75,-1.65625 0.8125,0 1.421875,0.4375 1.421875,1.546875 0,0.3125 -0.03125,0.5 -0.03125,0.5625 0,0 0,0.09375 0.109375,0.09375 0.109375,0 0.125,-0.03125 0.15625,-0.203125 z m 0,0"
   id="id-d33390d6-47d4-4603-b0a7-4205bec24429" />
      </symbol>
      <symbol
   overflow="visible"
   id="id-2e83cfc7-7a3a-4f61-a06e-69f3fa6550ab"
   style="fill:url(#linearGradient2732);fill-opacity:1">
        <path
   style="fill:url(#linearGradient2732);fill-opacity:1;stroke:none;stroke-width:0"
   d="m 0.875,-0.59375 c -0.03125,0.15625 -0.09375,0.390625 -0.09375,0.4375 0,0.171875 0.140625,0.265625 0.296875,0.265625 0.125,0 0.296875,-0.078125 0.375,-0.28125 C 1.46875,-0.203125 1.796875,-1.5625 1.84375,-1.75 c 0.078125,-0.328125 0.265625,-1.015625 0.3125,-1.296875 0.046875,-0.125 0.328125,-0.59375 0.5625,-0.8125 0.078125,-0.0625 0.375,-0.328125 0.796875,-0.328125 0.265625,0 0.40625,0.125 0.421875,0.125 -0.296875,0.046875 -0.515625,0.28125 -0.515625,0.546875 0,0.15625 0.109375,0.34375 0.375,0.34375 0.265625,0 0.546875,-0.234375 0.546875,-0.59375 0,-0.34375 -0.3125,-0.640625 -0.828125,-0.640625 C 2.875,-4.40625 2.4375,-3.921875 2.25,-3.640625 2.15625,-4.09375 1.796875,-4.40625 1.328125,-4.40625 0.875,-4.40625 0.6875,-4.015625 0.59375,-3.84375 0.421875,-3.5 0.296875,-2.90625 0.296875,-2.875 c 0,0.109375 0.09375,0.109375 0.109375,0.109375 0.109375,0 0.109375,-0.015625 0.171875,-0.234375 0.171875,-0.703125 0.375,-1.1875 0.734375,-1.1875 0.15625,0 0.296875,0.078125 0.296875,0.453125 0,0.21875 -0.03125,0.328125 -0.15625,0.84375 z m 0,0"
   id="id-8e54f518-18ef-42a7-ad10-d1b67763675b" />
      </symbol>
      <symbol
   overflow="visible"
   id="id-a089c308-c950-4191-b7c7-fb5a7f42ae22"
   style="fill:url(#linearGradient2732);fill-opacity:1">
        <path
   style="fill:url(#linearGradient2732);fill-opacity:1;stroke:none;stroke-width:0"
   d="m 1.328125,-0.828125 c 0.53125,-0.578125 0.828125,-0.828125 1.1875,-1.140625 0,0 0.609375,-0.53125 0.96875,-0.890625 C 4.4375,-3.78125 4.65625,-4.265625 4.65625,-4.3125 c 0,-0.09375 -0.09375,-0.09375 -0.109375,-0.09375 -0.078125,0 -0.09375,0.015625 -0.15625,0.109375 -0.296875,0.484375 -0.5,0.640625 -0.734375,0.640625 -0.25,0 -0.359375,-0.15625 -0.515625,-0.328125 -0.1875,-0.21875 -0.359375,-0.421875 -0.6875,-0.421875 -0.75,0 -1.203125,0.921875 -1.203125,1.140625 0,0.046875 0.03125,0.109375 0.109375,0.109375 0.09375,0 0.109375,-0.046875 0.140625,-0.109375 0.1875,-0.46875 0.765625,-0.46875 0.84375,-0.46875 0.203125,0 0.390625,0.0625 0.625,0.140625 0.40625,0.15625 0.515625,0.15625 0.765625,0.15625 -0.359375,0.421875 -1.1875,1.140625 -1.375,1.296875 l -0.90625,0.84375 C 0.78125,-0.625 0.421875,-0.0625 0.421875,0.015625 c 0,0.09375 0.109375,0.09375 0.125,0.09375 0.078125,0 0.09375,-0.015625 0.15625,-0.125 0.234375,-0.359375 0.53125,-0.625 0.859375,-0.625 0.21875,0 0.328125,0.09375 0.578125,0.375 0.15625,0.21875 0.34375,0.375 0.625,0.375 1,0 1.578125,-1.265625 1.578125,-1.53125 0,-0.046875 -0.046875,-0.109375 -0.125,-0.109375 -0.09375,0 -0.109375,0.0625 -0.140625,0.140625 C 3.84375,-0.75 3.203125,-0.5625 2.875,-0.5625 c -0.1875,0 -0.375,-0.0625 -0.578125,-0.125 -0.34375,-0.125 -0.5,-0.171875 -0.703125,-0.171875 -0.015625,0 -0.171875,0 -0.265625,0.03125 z m 0,0"
   id="id-4aac843e-5f50-4f81-8e2d-7485cfd2a175" />
      </symbol>
      <symbol
   overflow="visible"
   id="id-305fa4f1-7c47-44f3-a9af-3741fea469f4"
   style="fill:url(#linearGradient2732);fill-opacity:1">
        <path
   style="fill:url(#linearGradient2732);fill-opacity:1;stroke:none;stroke-width:0"
   d=""
   id="id-e032f042-81ef-4e1c-a666-db7fb12d662f" />
      </symbol>
      <symbol
   overflow="visible"
   id="id-aeebb475-1b3f-4170-aa1b-1f8be64ecec1"
   style="fill:url(#linearGradient2732);fill-opacity:1">
        <path
   style="fill:url(#linearGradient2732);fill-opacity:1;stroke:none;stroke-width:0"
   d="m 6.84375,-3.265625 c 0.15625,0 0.34375,0 0.34375,-0.1875 C 7.1875,-3.65625 7,-3.65625 6.859375,-3.65625 h -5.96875 c -0.140625,0 -0.328125,0 -0.328125,0.203125 0,0.1875 0.1875,0.1875 0.328125,0.1875 z m 0.015625,1.9375 c 0.140625,0 0.328125,0 0.328125,-0.203125 0,-0.1875 -0.1875,-0.1875 -0.34375,-0.1875 H 0.890625 c -0.140625,0 -0.328125,0 -0.328125,0.1875 0,0.203125 0.1875,0.203125 0.328125,0.203125 z m 0,0"
   id="id-173c6ccd-449a-4f30-9302-669bebf3ce10" />
      </symbol>
      <symbol
   overflow="visible"
   id="id-37aed085-f677-4bfa-baf7-8042ce6ed060"
   style="fill:url(#linearGradient2732);fill-opacity:1">
        <path
   style="fill:url(#linearGradient2732);fill-opacity:1;stroke:none;stroke-width:0"
   d="m 3.78125,-0.546875 v 0.65625 L 5.25,0 v -0.3125 c -0.6875,0 -0.78125,-0.0625 -0.78125,-0.5625 V -6.921875 L 3.046875,-6.8125 V -6.5 c 0.6875,0 0.765625,0.0625 0.765625,0.5625 v 2.15625 c -0.28125,-0.359375 -0.71875,-0.625 -1.25,-0.625 -1.171875,0 -2.21875,0.984375 -2.21875,2.265625 0,1.265625 0.96875,2.25 2.109375,2.25 0.640625,0 1.078125,-0.34375 1.328125,-0.65625 z m 0,-2.671875 v 2.046875 c 0,0.171875 0,0.1875 -0.109375,0.359375 C 3.375,-0.328125 2.9375,-0.109375 2.5,-0.109375 2.046875,-0.109375 1.6875,-0.375 1.453125,-0.75 1.203125,-1.15625 1.171875,-1.71875 1.171875,-2.140625 1.171875,-2.5 1.1875,-3.09375 1.46875,-3.546875 1.6875,-3.859375 2.0625,-4.1875 2.609375,-4.1875 c 0.34375,0 0.765625,0.15625 1.0625,0.59375 0.109375,0.171875 0.109375,0.1875 0.109375,0.375 z m 0,0"
   id="id-1b6b6890-b589-4964-8c54-e4909fc7e2dc" />
      </symbol>
    </g>
  </defs>
  <g
   id="id-21d287fe-e334-47e7-bce7-6581bab6a63e"
   transform="translate(-149.228,-127.734)"
   style="fill:url(#linearGradient5082);fill-opacity:1;stroke-width:5.03467;stroke-dasharray:none">
    <g
   style="fill:url(#linearGradient5050);fill-opacity:1;stroke-width:5.03467;stroke-dasharray:none"
   id="id-f99e4bac-568d-4255-b256-d33125c31f53">
      <g
   transform="translate(148.712,134.765)"
   id="g1822"
   style="fill:url(#linearGradient5048);fill-opacity:1;stroke-width:5.03467;stroke-dasharray:none"><path
   style="fill:url(#linearGradient5046);fill-opacity:1;stroke:none;stroke-width:5.03467;stroke-dasharray:none"
   d="m 6.4375,-6.921875 c 0,-0.03125 -0.03125,-0.109375 -0.125,-0.109375 -0.046875,0 -0.046875,0.015625 -0.171875,0.15625 L 5.65625,-6.3125 c -0.25,-0.46875 -0.765625,-0.71875 -1.421875,-0.71875 -1.265625,0 -2.453125,1.15625 -2.453125,2.359375 0,0.796875 0.515625,1.265625 1.03125,1.40625 l 1.0625,0.28125 c 0.375,0.09375 0.921875,0.25 0.921875,1.0625 0,0.890625 -0.8125,1.828125 -1.796875,1.828125 -0.640625,0 -1.75,-0.21875 -1.75,-1.453125 0,-0.234375 0.0625,-0.484375 0.0625,-0.53125 0.015625,-0.046875 0.015625,-0.0625 0.015625,-0.078125 0,-0.09375 -0.0625,-0.109375 -0.109375,-0.109375 -0.046875,0 -0.078125,0.015625 -0.109375,0.046875 -0.03125,0.03125 -0.59375,2.3125 -0.59375,2.34375 0,0.046875 0.046875,0.09375 0.109375,0.09375 0.046875,0 0.0625,-0.015625 0.1875,-0.15625 L 1.296875,-0.5 c 0.421875,0.578125 1.109375,0.71875 1.6875,0.71875 1.359375,0 2.53125,-1.328125 2.53125,-2.5625 0,-0.6875 -0.34375,-1.03125 -0.484375,-1.171875 C 4.796875,-3.734375 4.640625,-3.78125 3.765625,-4 3.53125,-4.0625 3.1875,-4.171875 3.09375,-4.1875 2.828125,-4.28125 2.484375,-4.5625 2.484375,-5.09375 c 0,-0.8125 0.796875,-1.65625 1.75,-1.65625 0.8125,0 1.421875,0.4375 1.421875,1.546875 0,0.3125 -0.03125,0.5 -0.03125,0.5625 0,0 0,0.09375 0.109375,0.09375 0.109375,0 0.125,-0.03125 0.15625,-0.203125 z m 0,0"
   id="id-ff7dc32d-acaf-49c4-91b1-a11870d4dbd7" />
      </g></g>
    <g
   style="fill:url(#linearGradient5056);fill-opacity:1;stroke-width:5.03467;stroke-dasharray:none"
   id="id-72918edc-5b65-4a16-b3be-1a1734946c10">
      <g
   transform="translate(158.163,134.765)"
   id="g1826"
   style="fill:url(#linearGradient5054);fill-opacity:1;stroke-width:5.03467;stroke-dasharray:none"><path
   style="fill:url(#linearGradient5052);fill-opacity:1;stroke:none;stroke-width:5.03467;stroke-dasharray:none"
   d="m 6.84375,-3.265625 c 0.15625,0 0.34375,0 0.34375,-0.1875 C 7.1875,-3.65625 7,-3.65625 6.859375,-3.65625 h -5.96875 c -0.140625,0 -0.328125,0 -0.328125,0.203125 0,0.1875 0.1875,0.1875 0.328125,0.1875 z m 0.015625,1.9375 c 0.140625,0 0.328125,0 0.328125,-0.203125 0,-0.1875 -0.1875,-0.1875 -0.34375,-0.1875 H 0.890625 c -0.140625,0 -0.328125,0 -0.328125,0.1875 0,0.203125 0.1875,0.203125 0.328125,0.203125 z m 0,0"
   id="id-f59af5f2-216e-4f51-99d4-f59ee79c9574" />
      </g></g>
    <g
   style="fill:url(#linearGradient5062);fill-opacity:1;stroke-width:5.03467;stroke-dasharray:none"
   id="id-3dfc5e1f-3443-4e42-a485-c3a2d24d7f6d">
      <g
   transform="translate(168.682,134.765)"
   id="g1830"
   style="fill:url(#linearGradient5060);fill-opacity:1;stroke-width:5.03467;stroke-dasharray:none"><path
   style="fill:url(#linearGradient5058);fill-opacity:1;stroke:none;stroke-width:5.03467;stroke-dasharray:none"
   d="m 3.78125,-0.546875 v 0.65625 L 5.25,0 v -0.3125 c -0.6875,0 -0.78125,-0.0625 -0.78125,-0.5625 V -6.921875 L 3.046875,-6.8125 V -6.5 c 0.6875,0 0.765625,0.0625 0.765625,0.5625 v 2.15625 c -0.28125,-0.359375 -0.71875,-0.625 -1.25,-0.625 -1.171875,0 -2.21875,0.984375 -2.21875,2.265625 0,1.265625 0.96875,2.25 2.109375,2.25 0.640625,0 1.078125,-0.34375 1.328125,-0.65625 z m 0,-2.671875 v 2.046875 c 0,0.171875 0,0.1875 -0.109375,0.359375 C 3.375,-0.328125 2.9375,-0.109375 2.5,-0.109375 2.046875,-0.109375 1.6875,-0.375 1.453125,-0.75 1.203125,-1.15625 1.171875,-1.71875 1.171875,-2.140625 1.171875,-2.5 1.1875,-3.09375 1.46875,-3.546875 1.6875,-3.859375 2.0625,-4.1875 2.609375,-4.1875 c 0.34375,0 0.765625,0.15625 1.0625,0.59375 0.109375,0.171875 0.109375,0.1875 0.109375,0.375 z m 0,0"
   id="id-b22b0a5b-2c61-4833-8f31-0e2ac89eb5b4" />
      </g></g>
    <g
   style="fill:url(#linearGradient5068);fill-opacity:1;stroke-width:5.03467;stroke-dasharray:none"
   id="id-6480d7d8-3309-46a4-9f2f-dbd27abd9884">
      <g
   transform="translate(174.214,134.765)"
   id="g1834"
   style="fill:url(#linearGradient5066);fill-opacity:1;stroke-width:5.03467;stroke-dasharray:none"><path
   style="fill:url(#linearGradient5064);fill-opacity:1;stroke:none;stroke-width:5.03467;stroke-dasharray:none"
   d="m 0.875,-0.59375 c -0.03125,0.15625 -0.09375,0.390625 -0.09375,0.4375 0,0.171875 0.140625,0.265625 0.296875,0.265625 0.125,0 0.296875,-0.078125 0.375,-0.28125 C 1.46875,-0.203125 1.796875,-1.5625 1.84375,-1.75 c 0.078125,-0.328125 0.265625,-1.015625 0.3125,-1.296875 0.046875,-0.125 0.328125,-0.59375 0.5625,-0.8125 0.078125,-0.0625 0.375,-0.328125 0.796875,-0.328125 0.265625,0 0.40625,0.125 0.421875,0.125 -0.296875,0.046875 -0.515625,0.28125 -0.515625,0.546875 0,0.15625 0.109375,0.34375 0.375,0.34375 0.265625,0 0.546875,-0.234375 0.546875,-0.59375 0,-0.34375 -0.3125,-0.640625 -0.828125,-0.640625 C 2.875,-4.40625 2.4375,-3.921875 2.25,-3.640625 2.15625,-4.09375 1.796875,-4.40625 1.328125,-4.40625 0.875,-4.40625 0.6875,-4.015625 0.59375,-3.84375 0.421875,-3.5 0.296875,-2.90625 0.296875,-2.875 c 0,0.109375 0.09375,0.109375 0.109375,0.109375 0.109375,0 0.109375,-0.015625 0.171875,-0.234375 0.171875,-0.703125 0.375,-1.1875 0.734375,-1.1875 0.15625,0 0.296875,0.078125 0.296875,0.453125 0,0.21875 -0.03125,0.328125 -0.15625,0.84375 z m 0,0"
   id="id-9a154adf-e953-4d2e-b802-969f9cbd8c55" />
      </g></g>
    <g
   style="fill:url(#linearGradient5074);fill-opacity:1;stroke-width:5.03467;stroke-dasharray:none"
   id="id-28efd5b1-eeda-4098-8c15-1dd996d6e51f">
      <g
   transform="translate(178.985,134.765)"
   id="g1838"
   style="fill:url(#linearGradient5072);fill-opacity:1;stroke-width:5.03467;stroke-dasharray:none"><path
   style="fill:url(#linearGradient5070);fill-opacity:1;stroke:none;stroke-width:5.03467;stroke-dasharray:none"
   d="m 3.78125,-0.546875 v 0.65625 L 5.25,0 v -0.3125 c -0.6875,0 -0.78125,-0.0625 -0.78125,-0.5625 V -6.921875 L 3.046875,-6.8125 V -6.5 c 0.6875,0 0.765625,0.0625 0.765625,0.5625 v 2.15625 c -0.28125,-0.359375 -0.71875,-0.625 -1.25,-0.625 -1.171875,0 -2.21875,0.984375 -2.21875,2.265625 0,1.265625 0.96875,2.25 2.109375,2.25 0.640625,0 1.078125,-0.34375 1.328125,-0.65625 z m 0,-2.671875 v 2.046875 c 0,0.171875 0,0.1875 -0.109375,0.359375 C 3.375,-0.328125 2.9375,-0.109375 2.5,-0.109375 2.046875,-0.109375 1.6875,-0.375 1.453125,-0.75 1.203125,-1.15625 1.171875,-1.71875 1.171875,-2.140625 1.171875,-2.5 1.1875,-3.09375 1.46875,-3.546875 1.6875,-3.859375 2.0625,-4.1875 2.609375,-4.1875 c 0.34375,0 0.765625,0.15625 1.0625,0.59375 0.109375,0.171875 0.109375,0.1875 0.109375,0.375 z m 0,0"
   id="id-5a049440-43d6-4a9d-bd3a-a2d30255028c" />
      </g></g>
    <g
   style="fill:url(#linearGradient5080);fill-opacity:1;stroke-width:5.03467;stroke-dasharray:none"
   id="id-bd22d655-b7bc-4cb3-94e6-138ecc7197aa">
      <g
   transform="translate(184.52,134.765)"
   id="g1842"
   style="fill:url(#linearGradient5078);fill-opacity:1;stroke-width:5.03467;stroke-dasharray:none"><path
   style="fill:url(#linearGradient5076);fill-opacity:1;stroke:none;stroke-width:5.03467;stroke-dasharray:none"
   d="m 1.328125,-0.828125 c 0.53125,-0.578125 0.828125,-0.828125 1.1875,-1.140625 0,0 0.609375,-0.53125 0.96875,-0.890625 C 4.4375,-3.78125 4.65625,-4.265625 4.65625,-4.3125 c 0,-0.09375 -0.09375,-0.09375 -0.109375,-0.09375 -0.078125,0 -0.09375,0.015625 -0.15625,0.109375 -0.296875,0.484375 -0.5,0.640625 -0.734375,0.640625 -0.25,0 -0.359375,-0.15625 -0.515625,-0.328125 -0.1875,-0.21875 -0.359375,-0.421875 -0.6875,-0.421875 -0.75,0 -1.203125,0.921875 -1.203125,1.140625 0,0.046875 0.03125,0.109375 0.109375,0.109375 0.09375,0 0.109375,-0.046875 0.140625,-0.109375 0.1875,-0.46875 0.765625,-0.46875 0.84375,-0.46875 0.203125,0 0.390625,0.0625 0.625,0.140625 0.40625,0.15625 0.515625,0.15625 0.765625,0.15625 -0.359375,0.421875 -1.1875,1.140625 -1.375,1.296875 l -0.90625,0.84375 C 0.78125,-0.625 0.421875,-0.0625 0.421875,0.015625 c 0,0.09375 0.109375,0.09375 0.125,0.09375 0.078125,0 0.09375,-0.015625 0.15625,-0.125 0.234375,-0.359375 0.53125,-0.625 0.859375,-0.625 0.21875,0 0.328125,0.09375 0.578125,0.375 0.15625,0.21875 0.34375,0.375 0.625,0.375 1,0 1.578125,-1.265625 1.578125,-1.53125 0,-0.046875 -0.046875,-0.109375 -0.125,-0.109375 -0.09375,0 -0.109375,0.0625 -0.140625,0.140625 C 3.84375,-0.75 3.203125,-0.5625 2.875,-0.5625 c -0.1875,0 -0.375,-0.0625 -0.578125,-0.125 -0.34375,-0.125 -0.5,-0.171875 -0.703125,-0.171875 -0.015625,0 -0.171875,0 -0.265625,0.03125 z m 0,0"
   id="id-4f69d3d4-015c-4bc4-9361-7521ab129e5c" />
      </g></g>
  </g>
</g><path
       inkscape:connector-curvature="0"
       id="path1767"
       d="m 310.6039,370.07872 34.53305,-16.24427"
       style="fill:none;stroke:#000000;stroke-width:0.44999999;stroke-linecap:butt;stroke-linejoin:miter;stroke-miterlimit:4;stroke-dasharray:none;stroke-opacity:1;marker-start:url(#marker1771);marker-end:url(#marker1799)" /><path
       inkscape:connector-curvature="0"
       id="path1767-9"
       d="m 351.42048,355.76832 54.44605,9.72592"
       style="fill:none;stroke:#000000;stroke-width:0.45;stroke-linecap:butt;stroke-linejoin:miter;stroke-miterlimit:4;stroke-dasharray:none;stroke-opacity:1;marker-start:url(#marker1771-3);marker-end:url(#marker1799-6)" /><path
       style="fill:none;stroke:#000000;stroke-width:0.44999996;stroke-linecap:butt;stroke-linejoin:miter;stroke-miterlimit:4;stroke-dasharray:none;stroke-opacity:1;marker-start:url(#marker3207);marker-end:url(#marker3247)"
       d="m 312.07533,423.89253 0.42691,-46.94906"
       id="path3203"
       inkscape:connector-curvature="0" /><g
       id="g5096"
       transform="matrix(0.263727,0,0,-0.26372699,210.22978,499.92535)"
       style="stroke-width:3.7918"><g
         word-spacing="normal"
         letter-spacing="normal"
         font-size-adjust="none"
         font-stretch="normal"
         font-weight="normal"
         font-variant="normal"
         font-style="normal"
         stroke-miterlimit="10.433"
         xml:space="preserve"
         transform="matrix(1.1333333,0,0,-1.1333333,-198.33333,842.00003)"
         id="g5094"
         style="font-style:normal;font-variant:normal;font-weight:normal;font-stretch:normal;letter-spacing:normal;word-spacing:normal;text-anchor:start;fill:none;fill-opacity:1;fill-rule:evenodd;stroke:#000000;stroke-width:3.7918;stroke-linecap:butt;stroke-linejoin:miter;stroke-miterlimit:10.433;stroke-dasharray:none;stroke-dashoffset:0;stroke-opacity:1"><path
           id="path5090"
           d="m 474.46,408.93 v -3.28 l 7.31,0.55 v 1.55 c -3.48,0 -3.88,0.34 -3.88,2.78 v 30.25 l -7.17,-0.55 v -1.55 c 3.49,0 3.88,-0.34 3.88,-2.79 v -10.75 c -1.44,1.78 -3.58,3.07 -6.28,3.07 l 0.2,-1.09 c 1.75,0 3.84,-0.75 5.39,-2.98 0.55,-0.85 0.55,-0.96 0.55,-1.85 v 0 -10.22 c 0,-0.89 0,-1 -0.55,-1.84 -1.5,-2.39 -3.75,-3.48 -5.89,-3.48 -2.23,0 -4.03,1.29 -5.22,3.18 -1.3,2.05 -1.45,4.89 -1.45,6.93 0,1.84 0.09,4.84 1.54,7.07 1.05,1.55 2.94,3.19 5.63,3.19 l -0.2,1.09 c -5.88,0 -11.11,-4.87 -11.11,-11.29 0,-6.33 4.89,-11.27 10.56,-11.27 3.19,0 5.44,1.69 6.69,3.28 z"
           inkscape:connector-curvature="0"
           style="fill:#000000;stroke-width:0" /><path
           id="path5092"
           d="m 489.86,410.34 0.25,0.27 0.24,0.25 0.24,0.25 0.23,0.24 0.22,0.23 0.22,0.22 0.21,0.22 0.2,0.21 0.2,0.2 0.2,0.19 0.19,0.19 0.19,0.19 0.18,0.17 0.18,0.18 0.36,0.33 0.34,0.32 0.33,0.3 0.33,0.29 0.32,0.29 0.65,0.56 0.33,0.29 0.33,0.28 c 0,0.05 3.08,2.69 4.88,4.49 4.73,4.64 5.82,7.03 5.82,7.21 0,0.5 -0.45,0.5 -0.54,0.5 -0.35,0 -0.5,-0.09 -0.75,-0.54 -1.49,-2.39 -2.53,-3.19 -3.74,-3.19 -1.2,0 -1.79,0.75 -2.54,1.59 -0.94,1.16 -1.79,2.14 -3.44,2.14 -3.74,0 -6.02,-4.62 -6.02,-5.67 0,-0.25 0.14,-0.54 0.6,-0.54 0.45,0 0.54,0.25 0.64,0.54 0.95,2.3 3.84,2.35 4.23,2.35 1.05,0 2,-0.36 3.14,-0.75 2,-0.75 2.55,-0.75 3.85,-0.75 -1.8,-2.14 -5.99,-5.74 -6.93,-6.53 l -4.48,-4.18 c -3.39,-3.34 -5.14,-6.18 -5.14,-6.53 0,-0.5 0.5,-0.5 0.59,-0.5 0.41,0 0.5,0.1 0.8,0.64 1.16,1.75 2.64,3.1 4.23,3.1 1.16,0 1.66,-0.46 2.89,-1.89 0.86,-1.05 1.75,-1.85 3.19,-1.85 4.94,0 7.83,6.33 7.83,7.67 0,0.25 -0.2,0.5 -0.59,0.5 -0.46,0 -0.55,-0.29 -0.71,-0.65 -1.14,-3.24 -4.32,-4.17 -5.98,-4.17 -0.99,0 -1.89,0.29 -2.94,0.64 -1.69,0.64 -2.44,0.84 -3.48,0.84 -0.1,0 -0.89,0 -1.35,-0.14 z"
           inkscape:connector-curvature="0"
           style="fill:#000000;stroke-width:0" /></g></g><path
       style="fill:none;stroke:#000000;stroke-width:0.750002px;stroke-linecap:butt;stroke-linejoin:miter;stroke-opacity:1"
       d="m 316.75431,424.98062 c 54.26267,10.51147 54.24472,10.24647 54.24472,10.24647"
       id="path1549" /><g
       id="g1643"
       style="stroke:#17194a;fill-opacity:1;fill:url(#linearGradient1753);stroke-opacity:1"><path
         inkscape:connector-curvature="0"
         id="path1540-7"
         style="fill:url(#linearGradient1753);stroke:#17194a;stroke-width:0.797011;stroke-linecap:butt;stroke-linejoin:miter;stroke-miterlimit:10;stroke-dasharray:none;stroke-opacity:1;fill-opacity:1"
         d="m 403.15175,368.61216 v 51.024" /><path
         inkscape:connector-curvature="0"
         id="path1542"
         style="fill:url(#linearGradient1753);stroke:#17194a;stroke-width:0.79701102;stroke-linecap:butt;stroke-linejoin:miter;stroke-miterlimit:10;stroke-dasharray:none;stroke-opacity:1;fill-opacity:1"
         d="m 349.437,358.61402 v 51.024" /><path
         style="fill:url(#linearGradient1753);stroke:#17194a;stroke-width:0.750002px;stroke-linecap:butt;stroke-linejoin:miter;stroke-opacity:1;fill-opacity:1"
         d="m 349.48782,409.88431 c 54.26267,10.51147 54.24472,10.24647 54.24472,10.24647"
         id="path1549-3" /><path
         style="fill:url(#linearGradient1753);stroke:#17194a;stroke-width:0.750002px;stroke-linecap:butt;stroke-linejoin:miter;stroke-opacity:1;fill-opacity:1"
         d="m 349.10013,358.37062 c 54.26267,10.51147 54.24472,10.24647 54.24472,10.24647"
         id="path1549-3-6" /></g><g
       transform="matrix(1.4933371,0,0,-1.4933371,375.52605,358.71732)"
       ns6:version="1.8.2"
       ns6:texconverter="pdflatex"
       ns6:pdfconverter="inkscape"
       ns6:text="$\\mathrm{d}x$"
       ns6:preamble="/home/eb/.config/inkscape/extensions/textext/default_packages.tex"
       ns6:scale="2.5"
       ns6:alignment="middle center"
       ns6:stroke-to-path="0"
       ns6:inkscapeversion="1.2.2"
       ns6:jacobian_sqrt="2.5"
       id="g3934"
       style="stroke-width:1.67411"><defs
   id="id-2bfde878-365a-4f5d-ac57-a651a452b3ed">
    <g
   id="id-7190abf3-7e4e-4aa6-86cb-d6834569540f">
      <symbol
   overflow="visible"
   id="id-85dadbac-902a-42c3-a7ba-b271dc4536de">
        <path
   style="stroke:none;stroke-width:0"
   d=""
   id="id-52079555-a79c-4e5f-b6cc-ca1d98154a76" />
      </symbol>
      <symbol
   overflow="visible"
   id="id-dc2d9e66-0614-4e27-94a0-41b5bf5a8294">
        <path
   style="stroke:none;stroke-width:0"
   d="m 3.78125,-0.546875 v 0.65625 L 5.25,0 v -0.3125 c -0.6875,0 -0.78125,-0.0625 -0.78125,-0.5625 V -6.921875 L 3.046875,-6.8125 V -6.5 c 0.6875,0 0.765625,0.0625 0.765625,0.5625 v 2.15625 c -0.28125,-0.359375 -0.71875,-0.625 -1.25,-0.625 -1.171875,0 -2.21875,0.984375 -2.21875,2.265625 0,1.265625 0.96875,2.25 2.109375,2.25 0.640625,0 1.078125,-0.34375 1.328125,-0.65625 z m 0,-2.671875 v 2.046875 c 0,0.171875 0,0.1875 -0.109375,0.359375 C 3.375,-0.328125 2.9375,-0.109375 2.5,-0.109375 2.046875,-0.109375 1.6875,-0.375 1.453125,-0.75 1.203125,-1.15625 1.171875,-1.71875 1.171875,-2.140625 1.171875,-2.5 1.1875,-3.09375 1.46875,-3.546875 1.6875,-3.859375 2.0625,-4.1875 2.609375,-4.1875 c 0.34375,0 0.765625,0.15625 1.0625,0.59375 0.109375,0.171875 0.109375,0.1875 0.109375,0.375 z m 0,0"
   id="id-7070c27c-bf19-419b-8647-3b64620d65e1" />
      </symbol>
      <symbol
   overflow="visible"
   id="id-004cca29-90b7-4d1f-b5d5-243fbbb1a82d">
        <path
   style="stroke:none;stroke-width:0"
   d=""
   id="id-32e8b54a-256d-4207-bd31-b2c25aab9a6c" />
      </symbol>
      <symbol
   overflow="visible"
   id="id-42b6d9dc-2487-481e-9dd4-f77188cdff06">
        <path
   style="stroke:none;stroke-width:0"
   d="M 3.328125,-3.015625 C 3.390625,-3.265625 3.625,-4.1875 4.3125,-4.1875 c 0.046875,0 0.296875,0 0.5,0.125 C 4.53125,-4 4.34375,-3.765625 4.34375,-3.515625 c 0,0.15625 0.109375,0.34375 0.375,0.34375 0.21875,0 0.53125,-0.171875 0.53125,-0.578125 0,-0.515625 -0.578125,-0.65625 -0.921875,-0.65625 -0.578125,0 -0.921875,0.53125 -1.046875,0.75 -0.25,-0.65625 -0.78125,-0.75 -1.078125,-0.75 -1.03125,0 -1.609375,1.28125 -1.609375,1.53125 0,0.109375 0.109375,0.109375 0.125,0.109375 0.078125,0 0.109375,-0.03125 0.125,-0.109375 0.34375,-1.0625 1,-1.3125 1.34375,-1.3125 0.1875,0 0.53125,0.09375 0.53125,0.671875 0,0.3125 -0.171875,0.96875 -0.53125,2.375 -0.15625,0.609375 -0.515625,1.03125 -0.953125,1.03125 -0.0625,0 -0.28125,0 -0.5,-0.125 0.25,-0.0625 0.46875,-0.265625 0.46875,-0.546875 0,-0.265625 -0.21875,-0.34375 -0.359375,-0.34375 -0.3125,0 -0.546875,0.25 -0.546875,0.578125 0,0.453125 0.484375,0.65625 0.921875,0.65625 0.671875,0 1.03125,-0.703125 1.046875,-0.75 0.125,0.359375 0.484375,0.75 1.078125,0.75 1.03125,0 1.59375,-1.28125 1.59375,-1.53125 0,-0.109375 -0.078125,-0.109375 -0.109375,-0.109375 -0.09375,0 -0.109375,0.046875 -0.140625,0.109375 -0.328125,1.078125 -1,1.3125 -1.3125,1.3125 -0.390625,0 -0.546875,-0.3125 -0.546875,-0.65625 0,-0.21875 0.046875,-0.4375 0.15625,-0.875 z m 0,0"
   id="id-f1a2d861-1c59-4189-8cb9-e9ff2509e4d8" />
      </symbol>
    </g>
  </defs>
  <g
   id="id-b6c8c6aa-bc3f-49d8-ab09-0d4e8eba5d18"
   transform="translate(-149.056,-127.843)"
   style="stroke-width:1.67411">
    <g
   style="fill:#000000;fill-opacity:1;stroke-width:1.67411"
   id="id-c8ea541a-78a9-4e7a-8026-1766b90ca853">
      <g
   transform="translate(148.712,134.765)"
   id="g3926"
   style="stroke-width:1.67411"><path
   style="stroke:none;stroke-width:0"
   d="m 3.78125,-0.546875 v 0.65625 L 5.25,0 v -0.3125 c -0.6875,0 -0.78125,-0.0625 -0.78125,-0.5625 V -6.921875 L 3.046875,-6.8125 V -6.5 c 0.6875,0 0.765625,0.0625 0.765625,0.5625 v 2.15625 c -0.28125,-0.359375 -0.71875,-0.625 -1.25,-0.625 -1.171875,0 -2.21875,0.984375 -2.21875,2.265625 0,1.265625 0.96875,2.25 2.109375,2.25 0.640625,0 1.078125,-0.34375 1.328125,-0.65625 z m 0,-2.671875 v 2.046875 c 0,0.171875 0,0.1875 -0.109375,0.359375 C 3.375,-0.328125 2.9375,-0.109375 2.5,-0.109375 2.046875,-0.109375 1.6875,-0.375 1.453125,-0.75 1.203125,-1.15625 1.171875,-1.71875 1.171875,-2.140625 1.171875,-2.5 1.1875,-3.09375 1.46875,-3.546875 1.6875,-3.859375 2.0625,-4.1875 2.609375,-4.1875 c 0.34375,0 0.765625,0.15625 1.0625,0.59375 0.109375,0.171875 0.109375,0.1875 0.109375,0.375 z m 0,0"
   id="id-8b8bd1f2-935b-4a99-ab16-581d189e9add" />
      </g></g>
    <g
   style="fill:#000000;fill-opacity:1;stroke-width:1.67411"
   id="id-c3e35980-41db-4e7d-b6dc-5fee0954b7dd">
      <g
   transform="translate(154.247,134.765)"
   id="g3930"
   style="stroke-width:1.67411"><path
   style="stroke:none;stroke-width:0"
   d="M 3.328125,-3.015625 C 3.390625,-3.265625 3.625,-4.1875 4.3125,-4.1875 c 0.046875,0 0.296875,0 0.5,0.125 C 4.53125,-4 4.34375,-3.765625 4.34375,-3.515625 c 0,0.15625 0.109375,0.34375 0.375,0.34375 0.21875,0 0.53125,-0.171875 0.53125,-0.578125 0,-0.515625 -0.578125,-0.65625 -0.921875,-0.65625 -0.578125,0 -0.921875,0.53125 -1.046875,0.75 -0.25,-0.65625 -0.78125,-0.75 -1.078125,-0.75 -1.03125,0 -1.609375,1.28125 -1.609375,1.53125 0,0.109375 0.109375,0.109375 0.125,0.109375 0.078125,0 0.109375,-0.03125 0.125,-0.109375 0.34375,-1.0625 1,-1.3125 1.34375,-1.3125 0.1875,0 0.53125,0.09375 0.53125,0.671875 0,0.3125 -0.171875,0.96875 -0.53125,2.375 -0.15625,0.609375 -0.515625,1.03125 -0.953125,1.03125 -0.0625,0 -0.28125,0 -0.5,-0.125 0.25,-0.0625 0.46875,-0.265625 0.46875,-0.546875 0,-0.265625 -0.21875,-0.34375 -0.359375,-0.34375 -0.3125,0 -0.546875,0.25 -0.546875,0.578125 0,0.453125 0.484375,0.65625 0.921875,0.65625 0.671875,0 1.03125,-0.703125 1.046875,-0.75 0.125,0.359375 0.484375,0.75 1.078125,0.75 1.03125,0 1.59375,-1.28125 1.59375,-1.53125 0,-0.109375 -0.078125,-0.109375 -0.109375,-0.109375 -0.09375,0 -0.109375,0.046875 -0.140625,0.109375 -0.328125,1.078125 -1,1.3125 -1.3125,1.3125 -0.390625,0 -0.546875,-0.3125 -0.546875,-0.65625 0,-0.21875 0.046875,-0.4375 0.15625,-0.875 z m 0,0"
   id="id-18c3febc-f18e-408d-b766-2a9acc71dac8" />
      </g></g>
  </g>
</g><g
       transform="matrix(1.4216063,0,0,-1.4216063,314.39082,359.99849)"
       ns6:version="1.8.2"
       ns6:texconverter="pdflatex"
       ns6:pdfconverter="inkscape"
       ns6:text="$\\mathrm{d}y$"
       ns6:preamble="/home/eb/.config/inkscape/extensions/textext/default_packages.tex"
       ns6:scale="2.5"
       ns6:alignment="middle center"
       ns6:stroke-to-path="0"
       ns6:inkscapeversion="1.2.2"
       ns6:jacobian_sqrt="2.5"
       id="g4499"
       style="stroke-width:1.75858"><defs
   id="id-cad2467b-14f9-49b0-9660-288d149e1d8c">
    <g
   id="id-b75230c1-413a-4a1c-8aa7-f409ec7ed031">
      <symbol
   overflow="visible"
   id="id-14047e16-d8c3-401f-a103-616cfa68efa1">
        <path
   style="stroke:none;stroke-width:0"
   d=""
   id="id-42c9206d-e13b-44f6-80d9-4fb87cdb66b1" />
      </symbol>
      <symbol
   overflow="visible"
   id="id-0182678f-ded1-4baf-b732-7698b7a55637">
        <path
   style="stroke:none;stroke-width:0"
   d="m 3.78125,-0.546875 v 0.65625 L 5.25,0 v -0.3125 c -0.6875,0 -0.78125,-0.0625 -0.78125,-0.5625 V -6.921875 L 3.046875,-6.8125 V -6.5 c 0.6875,0 0.765625,0.0625 0.765625,0.5625 v 2.15625 c -0.28125,-0.359375 -0.71875,-0.625 -1.25,-0.625 -1.171875,0 -2.21875,0.984375 -2.21875,2.265625 0,1.265625 0.96875,2.25 2.109375,2.25 0.640625,0 1.078125,-0.34375 1.328125,-0.65625 z m 0,-2.671875 v 2.046875 c 0,0.171875 0,0.1875 -0.109375,0.359375 C 3.375,-0.328125 2.9375,-0.109375 2.5,-0.109375 2.046875,-0.109375 1.6875,-0.375 1.453125,-0.75 1.203125,-1.15625 1.171875,-1.71875 1.171875,-2.140625 1.171875,-2.5 1.1875,-3.09375 1.46875,-3.546875 1.6875,-3.859375 2.0625,-4.1875 2.609375,-4.1875 c 0.34375,0 0.765625,0.15625 1.0625,0.59375 0.109375,0.171875 0.109375,0.1875 0.109375,0.375 z m 0,0"
   id="id-3af53015-079e-47bc-a1fd-4255b80de407" />
      </symbol>
      <symbol
   overflow="visible"
   id="id-44405fcc-f3c2-4ca5-962b-f706dceb71b3">
        <path
   style="stroke:none;stroke-width:0"
   d=""
   id="id-f90ee1a0-00bc-4bec-a411-26300fb69bc1" />
      </symbol>
      <symbol
   overflow="visible"
   id="id-a47d2cbd-4380-4285-aad7-bcc9a3473440">
        <path
   style="stroke:none;stroke-width:0"
   d="m 4.84375,-3.796875 c 0.046875,-0.140625 0.046875,-0.15625 0.046875,-0.234375 0,-0.171875 -0.140625,-0.265625 -0.296875,-0.265625 -0.09375,0 -0.25,0.0625 -0.34375,0.203125 -0.015625,0.0625 -0.109375,0.359375 -0.140625,0.546875 -0.078125,0.25 -0.140625,0.53125 -0.203125,0.796875 l -0.453125,1.796875 c -0.03125,0.140625 -0.46875,0.84375 -1.125,0.84375 -0.5,0 -0.609375,-0.4375 -0.609375,-0.8125 C 1.71875,-1.375 1.890625,-2 2.21875,-2.875 2.375,-3.28125 2.421875,-3.390625 2.421875,-3.59375 c 0,-0.4375 -0.3125,-0.8125 -0.8125,-0.8125 -0.953125,0 -1.3125,1.453125 -1.3125,1.53125 0,0.109375 0.09375,0.109375 0.109375,0.109375 0.109375,0 0.109375,-0.03125 0.15625,-0.1875 0.28125,-0.9375 0.671875,-1.234375 1.015625,-1.234375 0.078125,0 0.25,0 0.25,0.3125 0,0.25 -0.109375,0.515625 -0.171875,0.703125 -0.40625,1.0625 -0.578125,1.625 -0.578125,2.09375 0,0.890625 0.625,1.1875 1.21875,1.1875 0.390625,0 0.71875,-0.171875 1,-0.453125 -0.125,0.515625 -0.25,1.015625 -0.640625,1.546875 -0.265625,0.328125 -0.640625,0.625 -1.09375,0.625 -0.140625,0 -0.59375,-0.03125 -0.765625,-0.421875 0.15625,0 0.296875,0 0.421875,-0.125 C 1.328125,1.203125 1.421875,1.0625 1.421875,0.875 1.421875,0.5625 1.15625,0.53125 1.0625,0.53125 0.828125,0.53125 0.5,0.6875 0.5,1.171875 c 0,0.5 0.4375,0.875 1.0625,0.875 1.015625,0 2.046875,-0.90625 2.328125,-2.03125 z m 0,0"
   id="id-36ddfefd-8705-4c4f-8151-f4c277def8ea" />
      </symbol>
    </g>
  </defs>
  <g
   id="id-5927be5a-3241-44b6-967f-15a10f7e6739"
   transform="translate(-149.056,-127.843)"
   style="stroke-width:1.75858">
    <g
   style="fill:#000000;fill-opacity:1;stroke-width:1.75858"
   id="id-26736158-69b2-489a-bac5-ef04a6d075aa">
      <g
   transform="translate(148.712,134.765)"
   id="g4491"
   style="stroke-width:1.75858"><path
   style="stroke:none;stroke-width:0"
   d="m 3.78125,-0.546875 v 0.65625 L 5.25,0 v -0.3125 c -0.6875,0 -0.78125,-0.0625 -0.78125,-0.5625 V -6.921875 L 3.046875,-6.8125 V -6.5 c 0.6875,0 0.765625,0.0625 0.765625,0.5625 v 2.15625 c -0.28125,-0.359375 -0.71875,-0.625 -1.25,-0.625 -1.171875,0 -2.21875,0.984375 -2.21875,2.265625 0,1.265625 0.96875,2.25 2.109375,2.25 0.640625,0 1.078125,-0.34375 1.328125,-0.65625 z m 0,-2.671875 v 2.046875 c 0,0.171875 0,0.1875 -0.109375,0.359375 C 3.375,-0.328125 2.9375,-0.109375 2.5,-0.109375 2.046875,-0.109375 1.6875,-0.375 1.453125,-0.75 1.203125,-1.15625 1.171875,-1.71875 1.171875,-2.140625 1.171875,-2.5 1.1875,-3.09375 1.46875,-3.546875 1.6875,-3.859375 2.0625,-4.1875 2.609375,-4.1875 c 0.34375,0 0.765625,0.15625 1.0625,0.59375 0.109375,0.171875 0.109375,0.1875 0.109375,0.375 z m 0,0"
   id="id-8f536816-9747-4bd5-a1ce-bbb5861d3587" />
      </g></g>
    <g
   style="fill:#000000;fill-opacity:1;stroke-width:1.75858"
   id="id-efe9ab64-2206-4420-b22a-42810b1c3dd2">
      <g
   transform="translate(154.247,134.765)"
   id="g4495"
   style="stroke-width:1.75858"><path
   style="stroke:none;stroke-width:0"
   d="m 4.84375,-3.796875 c 0.046875,-0.140625 0.046875,-0.15625 0.046875,-0.234375 0,-0.171875 -0.140625,-0.265625 -0.296875,-0.265625 -0.09375,0 -0.25,0.0625 -0.34375,0.203125 -0.015625,0.0625 -0.109375,0.359375 -0.140625,0.546875 -0.078125,0.25 -0.140625,0.53125 -0.203125,0.796875 l -0.453125,1.796875 c -0.03125,0.140625 -0.46875,0.84375 -1.125,0.84375 -0.5,0 -0.609375,-0.4375 -0.609375,-0.8125 C 1.71875,-1.375 1.890625,-2 2.21875,-2.875 2.375,-3.28125 2.421875,-3.390625 2.421875,-3.59375 c 0,-0.4375 -0.3125,-0.8125 -0.8125,-0.8125 -0.953125,0 -1.3125,1.453125 -1.3125,1.53125 0,0.109375 0.09375,0.109375 0.109375,0.109375 0.109375,0 0.109375,-0.03125 0.15625,-0.1875 0.28125,-0.9375 0.671875,-1.234375 1.015625,-1.234375 0.078125,0 0.25,0 0.25,0.3125 0,0.25 -0.109375,0.515625 -0.171875,0.703125 -0.40625,1.0625 -0.578125,1.625 -0.578125,2.09375 0,0.890625 0.625,1.1875 1.21875,1.1875 0.390625,0 0.71875,-0.171875 1,-0.453125 -0.125,0.515625 -0.25,1.015625 -0.640625,1.546875 -0.265625,0.328125 -0.640625,0.625 -1.09375,0.625 -0.140625,0 -0.59375,-0.03125 -0.765625,-0.421875 0.15625,0 0.296875,0 0.421875,-0.125 C 1.328125,1.203125 1.421875,1.0625 1.421875,0.875 1.421875,0.5625 1.15625,0.53125 1.0625,0.53125 0.828125,0.53125 0.5,0.6875 0.5,1.171875 c 0,0.5 0.4375,0.875 1.0625,0.875 1.015625,0 2.046875,-0.90625 2.328125,-2.03125 z m 0,0"
   id="id-65514b76-17d6-4e99-86e2-2910a9a19beb" />
      </g></g>
  </g>
</g></g></svg>
