<?xml version="1.0" encoding="UTF-8" standalone="no"?>
<!-- Created with Inkscape (http://www.inkscape.org/) -->

<svg
   xmlns:dc="http://purl.org/dc/elements/1.1/"
   xmlns:cc="http://creativecommons.org/ns#"
   xmlns:rdf="http://www.w3.org/1999/02/22-rdf-syntax-ns#"
   xmlns:svg="http://www.w3.org/2000/svg"
   xmlns="http://www.w3.org/2000/svg"
   xmlns:sodipodi="http://sodipodi.sourceforge.net/DTD/sodipodi-0.dtd"
   xmlns:inkscape="http://www.inkscape.org/namespaces/inkscape"
   version="1.0"
   width="400"
   height="260"
   id="svg2"
   sodipodi:docname="circuit_exo6p45sanz.svg"
   inkscape:version="0.92.5 (2060ec1f9f, 2020-04-08)">
  <metadata
     id="metadata71">
    <rdf:RDF>
      <cc:Work
         rdf:about="">
        <dc:format>image/svg+xml</dc:format>
        <dc:type
           rdf:resource="http://purl.org/dc/dcmitype/StillImage" />
        <dc:title />
      </cc:Work>
    </rdf:RDF>
  </metadata>
  <sodipodi:namedview
     pagecolor="#ffffff"
     bordercolor="#666666"
     borderopacity="1"
     objecttolerance="10"
     gridtolerance="10"
     guidetolerance="10"
     inkscape:pageopacity="0"
     inkscape:pageshadow="2"
     inkscape:window-width="1920"
     inkscape:window-height="1043"
     id="namedview69"
     showgrid="false"
     inkscape:snap-global="true"
     inkscape:zoom="2"
     inkscape:cx="20.593739"
     inkscape:cy="117.92808"
     inkscape:window-x="1920"
     inkscape:window-y="0"
     inkscape:window-maximized="1"
     inkscape:current-layer="svg2" />
  <defs
     id="defs4">
    <marker
       inkscape:isstock="true"
       style="overflow:visible;"
       id="marker9648"
       refX="0.0"
       refY="0.0"
       orient="auto"
       inkscape:stockid="Arrow2Lend">
      <path
         transform="scale(1.1) rotate(180) translate(1,0)"
         d="M 8.7185878,4.0337352 L -2.2072895,0.016013256 L 8.7185884,-4.0017078 C 6.9730900,-1.6296469 6.9831476,1.6157441 8.7185878,4.0337352 z "
         style="fill-rule:evenodd;stroke-width:0.625;stroke-linejoin:round;stroke:#ff0000;stroke-opacity:1;fill:#ff0000;fill-opacity:1"
         id="path9646" />
    </marker>
    <marker
       inkscape:stockid="Arrow2Lend"
       orient="auto"
       refY="0.0"
       refX="0.0"
       id="marker8361"
       style="overflow:visible;"
       inkscape:isstock="true"
       inkscape:collect="always">
      <path
         id="path8359"
         style="fill-rule:evenodd;stroke-width:0.625;stroke-linejoin:round;stroke:#000000;stroke-opacity:1;fill:#000000;fill-opacity:1"
         d="M 8.7185878,4.0337352 L -2.2072895,0.016013256 L 8.7185884,-4.0017078 C 6.9730900,-1.6296469 6.9831476,1.6157441 8.7185878,4.0337352 z "
         transform="scale(1.1) rotate(180) translate(1,0)" />
    </marker>
    <marker
       inkscape:isstock="true"
       style="overflow:visible;"
       id="marker8355"
       refX="0.0"
       refY="0.0"
       orient="auto"
       inkscape:stockid="Arrow2Lend"
       inkscape:collect="always">
      <path
         transform="scale(1.1) rotate(180) translate(1,0)"
         d="M 8.7185878,4.0337352 L -2.2072895,0.016013256 L 8.7185884,-4.0017078 C 6.9730900,-1.6296469 6.9831476,1.6157441 8.7185878,4.0337352 z "
         style="fill-rule:evenodd;stroke-width:0.625;stroke-linejoin:round;stroke:#000000;stroke-opacity:1;fill:#000000;fill-opacity:1"
         id="path8353" />
    </marker>
    <marker
       inkscape:stockid="Arrow2Lend"
       orient="auto"
       refY="0.0"
       refX="0.0"
       id="Arrow2Lend"
       style="overflow:visible;"
       inkscape:isstock="true"
       inkscape:collect="always">
      <path
         id="path7448"
         style="fill-rule:evenodd;stroke-width:0.625;stroke-linejoin:round;stroke:#000000;stroke-opacity:1;fill:#000000;fill-opacity:1"
         d="M 8.7185878,4.0337352 L -2.2072895,0.016013256 L 8.7185884,-4.0017078 C 6.9730900,-1.6296469 6.9831476,1.6157441 8.7185878,4.0337352 z "
         transform="scale(1.1) rotate(180) translate(1,0)" />
    </marker>
    <marker
       inkscape:isstock="true"
       style="overflow:visible;"
       id="marker7695"
       refX="0.0"
       refY="0.0"
       orient="auto"
       inkscape:stockid="Arrow2Lend">
      <path
         transform="scale(1.1) rotate(180) translate(1,0)"
         d="M 8.7185878,4.0337352 L -2.2072895,0.016013256 L 8.7185884,-4.0017078 C 6.9730900,-1.6296469 6.9831476,1.6157441 8.7185878,4.0337352 z "
         style="fill-rule:evenodd;stroke-width:0.625;stroke-linejoin:round;stroke:#000000;stroke-opacity:1;fill:#000000;fill-opacity:1"
         id="path7693" />
    </marker>
  </defs>
  <g
     id="g6861"
     transform="translate(-1.031633,-22.41385)">
    <path
       inkscape:connector-curvature="0"
       id="path942"
       d="m 48.780879,147.54035 v -15"
       style="fill:none;stroke:#000000;stroke-width:2;stroke-linecap:butt;stroke-linejoin:miter;stroke-miterlimit:4;stroke-dasharray:none;stroke-opacity:1" />
    <path
       style="fill:none;stroke:#000000;stroke-width:2;stroke-linecap:butt;stroke-linejoin:miter;stroke-miterlimit:4;stroke-dasharray:none;stroke-opacity:1"
       d="M 48.653747,113.71291 V 98.712912"
       id="path944"
       inkscape:connector-curvature="0" />
    <rect
       transform="rotate(-90)"
       y="44.995346"
       x="-132.11354"
       height="7.3082814"
       width="17.67767"
       id="rect965"
       style="opacity:1;fill:none;fill-opacity:1;fill-rule:evenodd;stroke:#000000;stroke-width:1.5;stroke-linecap:butt;stroke-linejoin:miter;stroke-miterlimit:4;stroke-dasharray:none;stroke-dashoffset:0;stroke-opacity:0.97254902" />
  </g>
  <path
     style="fill:none;stroke:#000000;stroke-width:2;stroke-linecap:butt;stroke-linejoin:miter;stroke-miterlimit:4;stroke-dasharray:none;stroke-opacity:1"
     d="M 47.749246,194.37392 H 83.825837"
     id="path6923"
     inkscape:connector-curvature="0" />
  <g
     id="g7753"
     transform="translate(32.030263,-37.69537)">
    <circle
       r="8"
       cy="231.71573"
       cx="59.927299"
       id="path7735"
       style="fill:none;fill-rule:evenodd;stroke:#000000" />
    <path
       inkscape:connector-curvature="0"
       id="path7737"
       d="M 51.795574,232.06929 H 67.882253"
       style="fill:none;stroke:#000000;stroke-width:1px;stroke-linecap:butt;stroke-linejoin:miter;stroke-opacity:1" />
  </g>
  <g
     id="g7757"
     transform="rotate(90,145.0523,170.28918)">
    <circle
       style="fill:none;fill-rule:evenodd;stroke:#000000"
       id="circle7739"
       cx="87.927299"
       cy="231.71573"
       r="8" />
    <path
       style="fill:none;stroke:#000000;stroke-width:1px;stroke-linecap:butt;stroke-linejoin:miter;stroke-opacity:1"
       d="m 87.838914,224.02595 v 16.08668"
       id="path7741"
       inkscape:connector-curvature="0" />
  </g>
  <path
     inkscape:connector-curvature="0"
     id="path7743"
     d="M 47.749246,194.37392 V 122.5199"
     style="fill:none;stroke:#000000;stroke-width:2;stroke-linecap:butt;stroke-linejoin:miter;stroke-miterlimit:4;stroke-dasharray:none;stroke-opacity:1" />
  <path
     inkscape:connector-curvature="0"
     id="path7745"
     d="m 165.49666,141.37649 v 52.99742"
     style="fill:none;stroke:#000000;stroke-width:1.99999988;stroke-linecap:butt;stroke-linejoin:miter;stroke-miterlimit:4;stroke-dasharray:none;stroke-opacity:1" />
  <path
     inkscape:connector-curvature="0"
     id="path7747"
     d="M 47.749246,76.6265 H 165.49667"
     style="fill:none;stroke:#000000;stroke-width:2;stroke-linecap:butt;stroke-linejoin:miter;stroke-miterlimit:4;stroke-dasharray:none;stroke-opacity:1" />
  <path
     style="fill:none;stroke:#000000;stroke-width:1.99999988;stroke-linecap:butt;stroke-linejoin:miter;stroke-miterlimit:4;stroke-dasharray:none;stroke-opacity:1"
     d="M 47.749245,156.88312 H 116.27127"
     id="path7749"
     inkscape:connector-curvature="0" />
  <g
     transform="rotate(-90,130.55556,112.59924)"
     id="g7765">
    <path
       style="fill:none;stroke:#000000;stroke-width:2;stroke-linecap:butt;stroke-linejoin:miter;stroke-miterlimit:4;stroke-dasharray:none;stroke-opacity:1"
       d="m 48.780879,147.54035 v -15"
       id="path7759"
       inkscape:connector-curvature="0" />
    <path
       inkscape:connector-curvature="0"
       id="path7761"
       d="M 48.653747,113.71291 V 98.712912"
       style="fill:none;stroke:#000000;stroke-width:2;stroke-linecap:butt;stroke-linejoin:miter;stroke-miterlimit:4;stroke-dasharray:none;stroke-opacity:1" />
    <rect
       style="opacity:1;fill:none;fill-opacity:1;fill-rule:evenodd;stroke:#000000;stroke-width:1.5;stroke-linecap:butt;stroke-linejoin:miter;stroke-miterlimit:4;stroke-dasharray:none;stroke-dashoffset:0;stroke-opacity:0.97254902"
       id="rect7763"
       width="17.67767"
       height="7.3082814"
       x="-132.11354"
       y="44.995346"
       transform="rotate(-90)" />
  </g>
  <path
     inkscape:connector-curvature="0"
     id="path7767"
     d="m 100.09264,194.50105 h 16.57659"
     style="fill:none;stroke:#000000;stroke-width:1.99999988;stroke-linecap:butt;stroke-linejoin:miter;stroke-miterlimit:4;stroke-dasharray:none;stroke-opacity:1" />
  <path
     style="fill:none;stroke:#000000;stroke-width:1.99999988;stroke-linecap:butt;stroke-linejoin:miter;stroke-miterlimit:4;stroke-dasharray:none;stroke-opacity:1"
     d="M 83.749246,157.87392 V 121.61394"
     id="path7769"
     inkscape:connector-curvature="0" />
  <path
     inkscape:connector-curvature="0"
     id="path7771"
     d="M 83.624245,104.74892 V 76.36394"
     style="fill:none;stroke:#000000;stroke-width:1.99999988;stroke-linecap:butt;stroke-linejoin:miter;stroke-miterlimit:4;stroke-dasharray:none;stroke-opacity:1" />
  <g
     transform="rotate(-90,111.34973,94.227522)"
     id="g7779">
    <path
       style="fill:none;stroke:#000000;stroke-width:2;stroke-linecap:butt;stroke-linejoin:miter;stroke-miterlimit:4;stroke-dasharray:none;stroke-opacity:1"
       d="m 48.780879,147.54035 v -15"
       id="path7773"
       inkscape:connector-curvature="0" />
    <path
       inkscape:connector-curvature="0"
       id="path7775"
       d="M 48.653747,113.71291 V 98.712912"
       style="fill:none;stroke:#000000;stroke-width:2;stroke-linecap:butt;stroke-linejoin:miter;stroke-miterlimit:4;stroke-dasharray:none;stroke-opacity:1" />
    <rect
       style="opacity:1;fill:none;fill-opacity:1;fill-rule:evenodd;stroke:#000000;stroke-width:1.5;stroke-linecap:butt;stroke-linejoin:miter;stroke-miterlimit:4;stroke-dasharray:none;stroke-dashoffset:0;stroke-opacity:0.97254902"
       id="rect7777"
       width="17.67767"
       height="7.3082814"
       x="-132.11354"
       y="44.995346"
       transform="rotate(-90)" />
  </g>
  <g
     id="g7822"
     transform="translate(-49.768151,-19.05843)">
    <g
       id="g7785"
       transform="rotate(-90,97.858642,114.53598)">
      <circle
         r="8"
         cy="231.71573"
         cx="59.927299"
         id="circle7781"
         style="fill:none;fill-rule:evenodd;stroke:#000000" />
      <path
         inkscape:connector-curvature="0"
         id="path7783"
         d="M 51.795574,232.06929 H 67.882253"
         style="fill:none;stroke:#000000;stroke-width:1px;stroke-linecap:butt;stroke-linejoin:miter;stroke-opacity:1" />
    </g>
    <g
       transform="rotate(-180,132.02285,121.61264)"
       id="g7793">
      <path
         style="fill:none;stroke:#000000;stroke-width:2;stroke-linecap:butt;stroke-linejoin:miter;stroke-miterlimit:4;stroke-dasharray:none;stroke-opacity:1"
         d="m 48.780879,147.54035 v -15"
         id="path7787"
         inkscape:connector-curvature="0" />
      <path
         inkscape:connector-curvature="0"
         id="path7789"
         d="M 48.653747,113.71291 V 98.712912"
         style="fill:none;stroke:#000000;stroke-width:2;stroke-linecap:butt;stroke-linejoin:miter;stroke-miterlimit:4;stroke-dasharray:none;stroke-opacity:1" />
      <rect
         style="opacity:1;fill:none;fill-opacity:1;fill-rule:evenodd;stroke:#000000;stroke-width:1.5;stroke-linecap:butt;stroke-linejoin:miter;stroke-miterlimit:4;stroke-dasharray:none;stroke-dashoffset:0;stroke-opacity:0.97254902"
         id="rect7791"
         width="17.67767"
         height="7.3082814"
         x="-132.11354"
         y="44.995346"
         transform="rotate(-90)" />
    </g>
  </g>
  <g
     id="g7868"
     transform="matrix(0.7,0,0,0.7,100.2191,-0.23079528)"
     style="stroke-width:1.42857146">
    <g
       word-spacing="normal"
       letter-spacing="normal"
       font-size-adjust="none"
       font-stretch="normal"
       font-weight="normal"
       font-variant="normal"
       font-style="normal"
       stroke-miterlimit="10.433"
       xml:space="preserve"
       transform="matrix(0.37142857,0,0,-0.37142857,-65,300)"
       id="content"
       style="font-style:normal;font-variant:normal;font-weight:normal;font-stretch:normal;letter-spacing:normal;word-spacing:normal;text-anchor:start;fill:none;fill-opacity:1;fill-rule:evenodd;stroke:#000000;stroke-width:1.42857146;stroke-linecap:butt;stroke-linejoin:miter;stroke-miterlimit:10.43299961;stroke-dasharray:none;stroke-dashoffset:0;stroke-opacity:1"><path
         id="path7863"
         d="m 481.38,423.14 0.47,0.11 0.48,0.12 0.48,0.14 0.48,0.15 0.49,0.16 0.48,0.18 0.48,0.19 0.47,0.2 0.47,0.22 0.47,0.23 0.46,0.24 0.45,0.25 0.43,0.27 0.43,0.28 0.42,0.29 0.4,0.3 0.39,0.31 0.37,0.32 0.36,0.34 0.33,0.35 0.32,0.35 0.29,0.37 0.28,0.38 0.25,0.39 0.22,0.4 0.2,0.41 0.17,0.42 0.15,0.43 0.11,0.44 0.08,0.45 0.05,0.46 0.02,0.47 c 0,4.28 -4.48,7.47 -11,7.47 h -14.2 c -1,0 -1.45,0 -1.45,-1 0,-0.55 0.45,-0.55 1.4,-0.55 0.1,0 1.05,0 1.89,-0.09 0.89,-0.11 1.35,-0.16 1.35,-0.8 0,-0.2 -0.05,-0.36 -0.21,-0.95 l -6.67,-26.75 c -0.5,-1.95 -0.59,-2.34 -4.53,-2.34 -0.91,0 -1.34,0 -1.34,-1 0,-0.55 0.59,-0.55 0.68,-0.55 1.41,0 4.89,0.16 6.29,0.16 1.39,0 4.93,-0.16 6.32,-0.16 0.41,0 1,0 1,1 0,0.55 -0.45,0.55 -1.39,0.55 -1.84,0 -3.25,0 -3.25,0.89 0,0.29 0.11,0.54 0.16,0.84 l 3.28,13.2 h 5.94 l -0.05,1.11 h -5.59 l 3.25,13 c 0.29,1.19 0.43,1.69 1.39,1.85 0.45,0.04 2.04,0.04 3.03,0.04 3.55,0 9.08,0 9.08,-4.93 0,-1.69 -0.8,-5.13 -2.75,-7.07 -1.28,-1.29 -3.92,-2.89 -8.41,-2.89 l 0.05,-1.11 c 4.53,0 5.42,-2.78 5.42,-4.53 0,-0.75 -0.39,-2.28 -0.69,-3.44 -0.36,-1.39 -0.79,-3.23 -0.79,-4.23 0,-5.37 5.96,-5.37 6.62,-5.37 4.23,0 5.97,5.03 5.97,5.73 0,0.59 -0.55,0.59 -0.59,0.59 -0.46,0 -0.55,-0.36 -0.65,-0.7 -1.25,-3.69 -3.39,-4.53 -4.54,-4.53 -1.64,0 -1.99,1.09 -1.99,3.05 0,1.53 0.3,4.07 0.5,5.67 0.1,0.7 0.21,1.64 0.21,2.34 0,3.83 -3.35,5.38 -4.69,5.88 z"
         inkscape:connector-curvature="0"
         style="fill:#000000;stroke-width:0" /><path
         id="path7865"
         d="m 510.91,405.11 h -1.18 c -0.1,-0.77 -0.46,-2.83 -0.91,-3.18 -0.27,-0.2 -2.95,-0.2 -3.44,-0.2 h -6.42 c 3.66,3.23 4.88,4.2 6.97,5.84 2.58,2.07 4.98,4.22 4.98,7.54 0,4.21 -3.68,6.79 -8.15,6.79 -4.31,0 -7.25,-3.03 -7.25,-6.23 0,-1.78 1.5,-1.96 1.86,-1.96 0.83,0 1.84,0.6 1.84,1.85 0,0.62 -0.25,1.84 -2.06,1.84 1.08,2.47 3.45,3.24 5.09,3.24 3.49,0 5.3,-2.71 5.3,-5.53 0,-3.04 -2.16,-5.44 -3.28,-6.69 l -8.39,-8.3 c -0.36,-0.31 -0.36,-0.39 -0.36,-1.36 h 14.36 z"
         inkscape:connector-curvature="0"
         style="fill:#000000;stroke-width:0" /></g>  </g>
  <g
     id="g7924"
     transform="matrix(0.7,0,0,0.7,-47.544486,-1.9595623)"
     style="stroke-width:1.42857146">
    <g
       word-spacing="normal"
       letter-spacing="normal"
       font-size-adjust="none"
       font-stretch="normal"
       font-weight="normal"
       font-variant="normal"
       font-style="normal"
       stroke-miterlimit="10.433"
       xml:space="preserve"
       transform="matrix(0.37142857,0,0,-0.37142857,-65,300)"
       id="g7922"
       style="font-style:normal;font-variant:normal;font-weight:normal;font-stretch:normal;letter-spacing:normal;word-spacing:normal;text-anchor:start;fill:none;fill-opacity:1;fill-rule:evenodd;stroke:#000000;stroke-width:1.42857146;stroke-linecap:butt;stroke-linejoin:miter;stroke-miterlimit:10.43299961;stroke-dasharray:none;stroke-dashoffset:0;stroke-opacity:1"><path
         id="path7918"
         d="m 481.38,423.14 0.47,0.11 0.48,0.12 0.48,0.14 0.48,0.15 0.49,0.16 0.48,0.18 0.48,0.19 0.47,0.2 0.47,0.22 0.47,0.23 0.46,0.24 0.45,0.25 0.43,0.27 0.43,0.28 0.42,0.29 0.4,0.3 0.39,0.31 0.37,0.32 0.36,0.34 0.33,0.35 0.32,0.35 0.29,0.37 0.28,0.38 0.25,0.39 0.22,0.4 0.2,0.41 0.17,0.42 0.15,0.43 0.11,0.44 0.08,0.45 0.05,0.46 0.02,0.47 c 0,4.28 -4.48,7.47 -11,7.47 h -14.2 c -1,0 -1.45,0 -1.45,-1 0,-0.55 0.45,-0.55 1.4,-0.55 0.1,0 1.05,0 1.89,-0.09 0.89,-0.11 1.35,-0.16 1.35,-0.8 0,-0.2 -0.05,-0.36 -0.21,-0.95 l -6.67,-26.75 c -0.5,-1.95 -0.59,-2.34 -4.53,-2.34 -0.91,0 -1.34,0 -1.34,-1 0,-0.55 0.59,-0.55 0.68,-0.55 1.41,0 4.89,0.16 6.29,0.16 1.39,0 4.93,-0.16 6.32,-0.16 0.41,0 1,0 1,1 0,0.55 -0.45,0.55 -1.39,0.55 -1.84,0 -3.25,0 -3.25,0.89 0,0.29 0.11,0.54 0.16,0.84 l 3.28,13.2 h 5.94 l -0.05,1.11 h -5.59 l 3.25,13 c 0.29,1.19 0.43,1.69 1.39,1.85 0.45,0.04 2.04,0.04 3.03,0.04 3.55,0 9.08,0 9.08,-4.93 0,-1.69 -0.8,-5.13 -2.75,-7.07 -1.28,-1.29 -3.92,-2.89 -8.41,-2.89 l 0.05,-1.11 c 4.53,0 5.42,-2.78 5.42,-4.53 0,-0.75 -0.39,-2.28 -0.69,-3.44 -0.36,-1.39 -0.79,-3.23 -0.79,-4.23 0,-5.37 5.96,-5.37 6.62,-5.37 4.23,0 5.97,5.03 5.97,5.73 0,0.59 -0.55,0.59 -0.59,0.59 -0.46,0 -0.55,-0.36 -0.65,-0.7 -1.25,-3.69 -3.39,-4.53 -4.54,-4.53 -1.64,0 -1.99,1.09 -1.99,3.05 0,1.53 0.3,4.07 0.5,5.67 0.1,0.7 0.21,1.64 0.21,2.34 0,3.83 -3.35,5.38 -4.69,5.88 z"
         inkscape:connector-curvature="0"
         style="fill:#000000;stroke-width:0" /><path
         id="path7920"
         d="m 511.3,409.87 v 0.71 l -0.02,0.68 -0.03,0.66 -0.04,0.64 -0.06,0.62 -0.07,0.6 -0.09,0.57 -0.11,0.56 -0.13,0.55 -0.15,0.53 -0.17,0.51 -0.19,0.5 -0.21,0.49 -0.24,0.48 -0.26,0.47 -0.14,0.23 -0.15,0.23 c -1.08,1.61 -3.23,3 -6.03,3 v -0.98 c 1.89,0 3.7,-1.14 4.33,-3.17 0.56,-1.88 0.59,-4.39 0.59,-7.43 0,-2.57 0,-5.15 -0.45,-7.34 -0.7,-3.17 -3.06,-3.94 -4.47,-3.94 v 0 c -1.59,0 -3.72,0.94 -4.42,3.8 -0.49,2.05 -0.49,4.91 -0.49,7.48 0,2.55 0,5.21 0.52,7.11 0.73,2.75 2.97,3.49 4.39,3.49 v 0.98 c -8.08,0 -8.08,-9.51 -8.08,-12.03 0,-2.5 0,-11.81 8.08,-11.81 8.09,0 8.09,9.31 8.09,11.81 z"
         inkscape:connector-curvature="0"
         style="fill:#000000;stroke-width:0" /></g>  </g>
  <g
     id="g7984"
     transform="matrix(0.7,0,0,0.7,61.973489,105.83522)"
     style="stroke-width:1.42857146">
    <g
       word-spacing="normal"
       letter-spacing="normal"
       font-size-adjust="none"
       font-stretch="normal"
       font-weight="normal"
       font-variant="normal"
       font-style="normal"
       stroke-miterlimit="10.433"
       xml:space="preserve"
       transform="matrix(0.37142857,0,0,-0.37142857,-65,300)"
       id="g7982"
       style="font-style:normal;font-variant:normal;font-weight:normal;font-stretch:normal;letter-spacing:normal;word-spacing:normal;text-anchor:start;fill:none;fill-opacity:1;fill-rule:evenodd;stroke:#000000;stroke-width:1.42857146;stroke-linecap:butt;stroke-linejoin:miter;stroke-miterlimit:10.43299961;stroke-dasharray:none;stroke-dashoffset:0;stroke-opacity:1"><path
         id="path7978"
         d="m 481.38,423.14 0.47,0.11 0.48,0.12 0.48,0.14 0.48,0.15 0.49,0.16 0.48,0.18 0.48,0.19 0.47,0.2 0.47,0.22 0.47,0.23 0.46,0.24 0.45,0.25 0.43,0.27 0.43,0.28 0.42,0.29 0.4,0.3 0.39,0.31 0.37,0.32 0.36,0.34 0.33,0.35 0.32,0.35 0.29,0.37 0.28,0.38 0.25,0.39 0.22,0.4 0.2,0.41 0.17,0.42 0.15,0.43 0.11,0.44 0.08,0.45 0.05,0.46 0.02,0.47 c 0,4.28 -4.48,7.47 -11,7.47 h -14.2 c -1,0 -1.45,0 -1.45,-1 0,-0.55 0.45,-0.55 1.4,-0.55 0.1,0 1.05,0 1.89,-0.09 0.89,-0.11 1.35,-0.16 1.35,-0.8 0,-0.2 -0.05,-0.36 -0.21,-0.95 l -6.67,-26.75 c -0.5,-1.95 -0.59,-2.34 -4.53,-2.34 -0.91,0 -1.34,0 -1.34,-1 0,-0.55 0.59,-0.55 0.68,-0.55 1.41,0 4.89,0.16 6.29,0.16 1.39,0 4.93,-0.16 6.32,-0.16 0.41,0 1,0 1,1 0,0.55 -0.45,0.55 -1.39,0.55 -1.84,0 -3.25,0 -3.25,0.89 0,0.29 0.11,0.54 0.16,0.84 l 3.28,13.2 h 5.94 l -0.05,1.11 h -5.59 l 3.25,13 c 0.29,1.19 0.43,1.69 1.39,1.85 0.45,0.04 2.04,0.04 3.03,0.04 3.55,0 9.08,0 9.08,-4.93 0,-1.69 -0.8,-5.13 -2.75,-7.07 -1.28,-1.29 -3.92,-2.89 -8.41,-2.89 l 0.05,-1.11 c 4.53,0 5.42,-2.78 5.42,-4.53 0,-0.75 -0.39,-2.28 -0.69,-3.44 -0.36,-1.39 -0.79,-3.23 -0.79,-4.23 0,-5.37 5.96,-5.37 6.62,-5.37 4.23,0 5.97,5.03 5.97,5.73 0,0.59 -0.55,0.59 -0.59,0.59 -0.46,0 -0.55,-0.36 -0.65,-0.7 -1.25,-3.69 -3.39,-4.53 -4.54,-4.53 -1.64,0 -1.99,1.09 -1.99,3.05 0,1.53 0.3,4.07 0.5,5.67 0.1,0.7 0.21,1.64 0.21,2.34 0,3.83 -3.35,5.38 -4.69,5.88 z"
         inkscape:connector-curvature="0"
         style="fill:#000000;stroke-width:0" /><path
         id="path7980"
         d="m 504.99,420.92 v 0.04 0.04 0.05 0.04 0.03 0.04 0.04 0.03 0.04 l -0.01,0.03 v 0.03 0.03 0.03 l -0.01,0.03 v 0.03 0.02 l -0.01,0.03 v 0.02 l -0.01,0.03 v 0.02 l -0.01,0.04 -0.02,0.04 -0.02,0.03 -0.02,0.03 -0.02,0.03 -0.02,0.03 -0.03,0.02 -0.03,0.02 -0.03,0.02 -0.04,0.01 -0.04,0.01 -0.05,0.02 h -0.02 -0.02 l -0.03,0.01 h -0.03 l -0.02,0.01 h -0.03 -0.03 -0.03 -0.03 l -0.04,0.01 h -0.03 -0.04 -0.03 -0.04 -0.04 -0.04 -0.04 -0.05 -0.04 -0.04 c -2.24,-2.2 -5.4,-2.23 -6.83,-2.23 v -1.25 c 0.84,0 3.14,0 5.04,0.97 v -17.77 c 0,-1.16 0,-1.61 -3.48,-1.61 h -1.31 v -1.25 c 0.62,0.03 4.9,0.14 6.2,0.14 1.08,0 5.47,-0.11 6.23,-0.14 v 1.25 h -1.32 c -3.49,0 -3.49,0.45 -3.49,1.61 z"
         inkscape:connector-curvature="0"
         style="fill:#000000;stroke-width:0" /></g>  </g>
  <g
     id="g8048"
     transform="matrix(0.7,0,0,0.7,15.563377,109.68689)"
     style="stroke-width:1.42857146">
    <g
       word-spacing="normal"
       letter-spacing="normal"
       font-size-adjust="none"
       font-stretch="normal"
       font-weight="normal"
       font-variant="normal"
       font-style="normal"
       stroke-miterlimit="10.433"
       xml:space="preserve"
       transform="matrix(0.37142857,0,0,-0.37142857,-65,300)"
       id="g8046"
       style="font-style:normal;font-variant:normal;font-weight:normal;font-stretch:normal;letter-spacing:normal;word-spacing:normal;text-anchor:start;fill:none;fill-opacity:1;fill-rule:evenodd;stroke:#000000;stroke-width:1.42857146;stroke-linecap:butt;stroke-linejoin:miter;stroke-miterlimit:10.43299961;stroke-dasharray:none;stroke-dashoffset:0;stroke-opacity:1"><path
         id="path8042"
         d="m 464.83,417.71 0.14,0.01 h 0.16 0.17 0.17 l 0.19,0.01 h 0.2 l 0.21,0.01 0.22,0.01 0.22,0.01 0.23,0.01 0.24,0.01 0.25,0.02 0.25,0.02 0.25,0.02 0.53,0.05 0.53,0.07 0.55,0.07 0.54,0.1 0.54,0.11 0.54,0.12 0.26,0.07 0.26,0.08 0.25,0.08 0.25,0.08 0.24,0.09 0.24,0.1 c 3.48,1.5 3.73,4.43 3.73,5.12 0,2.2 -1.89,4.23 -5.33,4.23 v -1.09 c 2.35,0 3.69,-1.44 3.69,-3.14 0,-5.17 -7.97,-5.17 -10.01,-5.17 h -2.05 c 1.95,7.56 7.08,8.31 8.37,8.31 v 1.09 c -5.53,0 -13.04,-4.82 -13.04,-13.54 0,-5.08 2.93,-9.02 7.81,-9.02 7.12,0 11.31,5.28 11.31,5.88 0,0.29 -0.3,0.65 -0.59,0.65 -0.25,0 -0.35,-0.11 -0.66,-0.5 -3.94,-4.93 -9.36,-4.93 -9.95,-4.93 -3.89,0 -4.35,4.18 -4.35,5.78 0,0.59 0.05,2.14 0.8,5.18 z"
         inkscape:connector-curvature="0"
         style="fill:#000000;stroke-width:0" /><path
         id="path8044"
         d="m 490.35,420.92 v 0.04 0.04 0.05 0.04 0.03 0.04 0.04 0.03 0.04 l -0.01,0.03 v 0.03 0.03 0.03 l -0.01,0.03 v 0.03 0.02 l -0.01,0.03 v 0.02 l -0.01,0.03 v 0.02 l -0.02,0.04 -0.01,0.04 -0.02,0.03 -0.02,0.03 -0.02,0.03 -0.02,0.03 -0.03,0.02 -0.03,0.02 -0.03,0.02 -0.04,0.01 -0.04,0.01 -0.05,0.02 h -0.02 -0.02 l -0.03,0.01 h -0.03 l -0.02,0.01 h -0.03 -0.03 -0.03 -0.03 l -0.04,0.01 h -0.03 -0.04 -0.03 -0.04 -0.04 -0.04 -0.04 -0.05 -0.04 -0.05 c -2.23,-2.2 -5.39,-2.23 -6.82,-2.23 v -1.25 c 0.84,0 3.14,0 5.04,0.97 v -17.77 c 0,-1.16 0,-1.61 -3.48,-1.61 h -1.31 v -1.25 c 0.62,0.03 4.9,0.14 6.2,0.14 1.08,0 5.47,-0.11 6.23,-0.14 v 1.25 h -1.32 c -3.49,0 -3.49,0.45 -3.49,1.61 z"
         inkscape:connector-curvature="0"
         style="fill:#000000;stroke-width:0" /></g>  </g>
  <g
     id="g8116"
     transform="matrix(0.7,0,0,0.7,108.60975,31.198035)"
     style="stroke-width:1.42857146">
    <g
       word-spacing="normal"
       letter-spacing="normal"
       font-size-adjust="none"
       font-stretch="normal"
       font-weight="normal"
       font-variant="normal"
       font-style="normal"
       stroke-miterlimit="10.433"
       xml:space="preserve"
       transform="matrix(0.37142857,0,0,-0.37142857,-65,300)"
       id="g8114"
       style="font-style:normal;font-variant:normal;font-weight:normal;font-stretch:normal;letter-spacing:normal;word-spacing:normal;text-anchor:start;fill:none;fill-opacity:1;fill-rule:evenodd;stroke:#000000;stroke-width:1.42857146;stroke-linecap:butt;stroke-linejoin:miter;stroke-miterlimit:10.43299961;stroke-dasharray:none;stroke-dashoffset:0;stroke-opacity:1"><path
         id="path8110"
         d="m 464.83,417.71 0.14,0.01 h 0.16 0.17 0.17 l 0.19,0.01 h 0.2 l 0.21,0.01 0.22,0.01 0.22,0.01 0.23,0.01 0.24,0.01 0.25,0.02 0.25,0.02 0.25,0.02 0.53,0.05 0.53,0.07 0.55,0.07 0.54,0.1 0.54,0.11 0.54,0.12 0.26,0.07 0.26,0.08 0.25,0.08 0.25,0.08 0.24,0.09 0.24,0.1 c 3.48,1.5 3.73,4.43 3.73,5.12 0,2.2 -1.89,4.23 -5.33,4.23 v -1.09 c 2.35,0 3.69,-1.44 3.69,-3.14 0,-5.17 -7.97,-5.17 -10.01,-5.17 h -2.05 c 1.95,7.56 7.08,8.31 8.37,8.31 v 1.09 c -5.53,0 -13.04,-4.82 -13.04,-13.54 0,-5.08 2.93,-9.02 7.81,-9.02 7.12,0 11.31,5.28 11.31,5.88 0,0.29 -0.3,0.65 -0.59,0.65 -0.25,0 -0.35,-0.11 -0.66,-0.5 -3.94,-4.93 -9.36,-4.93 -9.95,-4.93 -3.89,0 -4.35,4.18 -4.35,5.78 0,0.59 0.05,2.14 0.8,5.18 z"
         inkscape:connector-curvature="0"
         style="fill:#000000;stroke-width:0" /><path
         id="path8112"
         d="m 496.27,405.11 h -1.18 c -0.1,-0.77 -0.46,-2.83 -0.91,-3.18 -0.27,-0.2 -2.95,-0.2 -3.44,-0.2 h -6.42 c 3.66,3.23 4.88,4.2 6.97,5.84 2.58,2.07 4.98,4.22 4.98,7.54 0,4.21 -3.68,6.79 -8.15,6.79 -4.32,0 -7.25,-3.03 -7.25,-6.23 0,-1.78 1.5,-1.96 1.86,-1.96 0.82,0 1.84,0.6 1.84,1.85 0,0.62 -0.25,1.84 -2.06,1.84 1.08,2.47 3.45,3.24 5.09,3.24 3.49,0 5.3,-2.71 5.3,-5.53 0,-3.04 -2.16,-5.44 -3.28,-6.69 l -8.39,-8.3 c -0.36,-0.31 -0.36,-0.39 -0.36,-1.36 h 14.36 z"
         inkscape:connector-curvature="0"
         style="fill:#000000;stroke-width:0" /></g>  </g>
  <g
     id="g8188"
     transform="matrix(0.7,0,0,0.7,25.438913,12.88968)"
     style="stroke-width:1.42857146">
    <g
       word-spacing="normal"
       letter-spacing="normal"
       font-size-adjust="none"
       font-stretch="normal"
       font-weight="normal"
       font-variant="normal"
       font-style="normal"
       stroke-miterlimit="10.433"
       xml:space="preserve"
       transform="matrix(0.37142857,0,0,-0.37142857,-65,300)"
       id="g8186"
       style="font-style:normal;font-variant:normal;font-weight:normal;font-stretch:normal;letter-spacing:normal;word-spacing:normal;text-anchor:start;fill:none;fill-opacity:1;fill-rule:evenodd;stroke:#000000;stroke-width:1.42857146;stroke-linecap:butt;stroke-linejoin:miter;stroke-miterlimit:10.43299961;stroke-dasharray:none;stroke-dashoffset:0;stroke-opacity:1"><path
         id="path8182"
         d="m 474.16,436.39 0.04,0.16 0.04,0.16 0.04,0.15 0.04,0.14 0.04,0.14 0.04,0.13 0.05,0.12 0.05,0.11 0.05,0.11 0.06,0.11 0.07,0.09 0.07,0.09 0.08,0.09 0.08,0.08 0.1,0.07 0.1,0.07 0.12,0.06 0.12,0.06 0.14,0.05 0.15,0.05 0.17,0.04 0.08,0.02 0.09,0.02 0.1,0.02 0.1,0.02 0.1,0.01 0.1,0.02 0.11,0.01 0.12,0.01 0.12,0.02 0.12,0.01 0.13,0.01 h 0.13 l 0.13,0.01 0.14,0.01 0.15,0.01 h 0.15 0.16 l 0.16,0.01 h 0.16 0.17 0.18 0.18 c 1.19,0 1.6,0 1.6,0.96 0,0.59 -0.55,0.59 -0.75,0.59 -1.46,0 -5.15,-0.16 -6.58,-0.16 -1.5,0 -5.13,0.16 -6.63,0.16 -0.34,0 -1,0 -1,-1 0,-0.55 0.46,-0.55 1.39,-0.55 2.1,0 3.44,0 3.44,-0.95 0,-0.25 0,-0.34 -0.09,-0.8 l -6.72,-26.84 c -0.46,-1.84 -0.61,-2.34 -4.55,-2.34 -1.14,0 -1.59,0 -1.59,-1 0,-0.55 0.61,-0.55 0.75,-0.55 1.45,0 5.08,0.16 6.53,0.16 1.5,0 5.19,-0.16 6.67,-0.16 0.41,0 1,0 1,0.95 0,0.6 -0.41,0.6 -1.5,0.6 -0.89,0 -1.14,0 -2.14,0.09 -1.05,0.11 -1.23,0.3 -1.23,0.84 0,0.41 0.09,0.8 0.18,1.16 z"
         inkscape:connector-curvature="0"
         style="fill:#000000;stroke-width:0" /><path
         id="path8184"
         d="m 495.34,409.87 v 0.71 l -0.02,0.68 -0.03,0.66 -0.04,0.64 -0.06,0.62 -0.07,0.6 -0.1,0.57 -0.1,0.56 -0.13,0.55 -0.15,0.53 -0.17,0.51 -0.19,0.5 -0.21,0.49 -0.24,0.48 -0.26,0.47 -0.14,0.23 -0.15,0.23 c -1.08,1.61 -3.23,3 -6.03,3 v -0.98 c 1.89,0 3.7,-1.14 4.33,-3.17 0.56,-1.88 0.59,-4.39 0.59,-7.43 0,-2.57 0,-5.15 -0.45,-7.34 -0.7,-3.17 -3.06,-3.94 -4.47,-3.94 v 0 c -1.59,0 -3.72,0.94 -4.42,3.8 -0.49,2.05 -0.49,4.91 -0.49,7.48 0,2.55 0,5.21 0.52,7.11 0.73,2.75 2.97,3.49 4.39,3.49 v 0.98 c -8.08,0 -8.08,-9.51 -8.08,-12.03 0,-2.5 0,-11.81 8.08,-11.81 8.09,0 8.09,9.31 8.09,11.81 z"
         inkscape:connector-curvature="0"
         style="fill:#000000;stroke-width:0" /></g>  </g>
  <g
     id="g8262"
     transform="matrix(0.7,0,0,0.7,60.337628,44.670252)"
     style="stroke-width:1.42857146">
    <g
       word-spacing="normal"
       letter-spacing="normal"
       font-size-adjust="none"
       font-stretch="normal"
       font-weight="normal"
       font-variant="normal"
       font-style="normal"
       stroke-miterlimit="10.433"
       xml:space="preserve"
       transform="matrix(0.37142857,0,0,-0.37142857,-65,300)"
       id="g8260"
       style="font-style:normal;font-variant:normal;font-weight:normal;font-stretch:normal;letter-spacing:normal;word-spacing:normal;text-anchor:start;fill:none;fill-opacity:1;fill-rule:evenodd;stroke:#000000;stroke-width:1.42857146;stroke-linecap:butt;stroke-linejoin:miter;stroke-miterlimit:10.43299961;stroke-dasharray:none;stroke-dashoffset:0;stroke-opacity:1"><path
         id="path8258"
         d="m 481.38,423.14 0.47,0.11 0.48,0.12 0.48,0.14 0.48,0.15 0.49,0.16 0.48,0.18 0.48,0.19 0.47,0.2 0.47,0.22 0.47,0.23 0.46,0.24 0.45,0.25 0.43,0.27 0.43,0.28 0.42,0.29 0.4,0.3 0.39,0.31 0.37,0.32 0.36,0.34 0.33,0.35 0.32,0.35 0.29,0.37 0.28,0.38 0.25,0.39 0.22,0.4 0.2,0.41 0.17,0.42 0.15,0.43 0.11,0.44 0.08,0.45 0.05,0.46 0.02,0.47 c 0,4.28 -4.48,7.47 -11,7.47 h -14.2 c -1,0 -1.45,0 -1.45,-1 0,-0.55 0.45,-0.55 1.4,-0.55 0.1,0 1.05,0 1.89,-0.09 0.89,-0.11 1.35,-0.16 1.35,-0.8 0,-0.2 -0.05,-0.36 -0.21,-0.95 l -6.67,-26.75 c -0.5,-1.95 -0.59,-2.34 -4.53,-2.34 -0.91,0 -1.34,0 -1.34,-1 0,-0.55 0.59,-0.55 0.68,-0.55 1.41,0 4.89,0.16 6.29,0.16 1.39,0 4.93,-0.16 6.32,-0.16 0.41,0 1,0 1,1 0,0.55 -0.45,0.55 -1.39,0.55 -1.84,0 -3.25,0 -3.25,0.89 0,0.29 0.11,0.54 0.16,0.84 l 3.28,13.2 h 5.94 l -0.05,1.11 h -5.59 l 3.25,13 c 0.29,1.19 0.43,1.69 1.39,1.85 0.45,0.04 2.04,0.04 3.03,0.04 3.55,0 9.08,0 9.08,-4.93 0,-1.69 -0.8,-5.13 -2.75,-7.07 -1.28,-1.29 -3.92,-2.89 -8.41,-2.89 l 0.05,-1.11 c 4.53,0 5.42,-2.78 5.42,-4.53 0,-0.75 -0.39,-2.28 -0.69,-3.44 -0.36,-1.39 -0.79,-3.23 -0.79,-4.23 0,-5.37 5.96,-5.37 6.62,-5.37 4.23,0 5.97,5.03 5.97,5.73 0,0.59 -0.55,0.59 -0.59,0.59 -0.46,0 -0.55,-0.36 -0.65,-0.7 -1.25,-3.69 -3.39,-4.53 -4.54,-4.53 -1.64,0 -1.99,1.09 -1.99,3.05 0,1.53 0.3,4.07 0.5,5.67 0.1,0.7 0.21,1.64 0.21,2.34 0,3.83 -3.35,5.38 -4.69,5.88 z"
         inkscape:connector-curvature="0"
         style="fill:#000000;stroke-width:0" /></g>  </g>
  <g
     id="g8340"
     transform="matrix(0.7,0,0,0.7,35.863347,65.737322)"
     style="fill:#ff0000;stroke-width:1.42857146">
    <g
       word-spacing="normal"
       letter-spacing="normal"
       font-size-adjust="none"
       font-stretch="normal"
       font-weight="normal"
       font-variant="normal"
       font-style="normal"
       stroke-miterlimit="10.433"
       xml:space="preserve"
       transform="matrix(0.37142857,0,0,-0.37142857,-65,300)"
       id="g8338"
       style="font-style:normal;font-variant:normal;font-weight:normal;font-stretch:normal;letter-spacing:normal;word-spacing:normal;text-anchor:start;fill:#ff0000;fill-opacity:1;fill-rule:evenodd;stroke:#000000;stroke-width:1.42857146;stroke-linecap:butt;stroke-linejoin:miter;stroke-miterlimit:10.43299961;stroke-dasharray:none;stroke-dashoffset:0;stroke-opacity:1"><path
         id="path8334"
         d="m 469.68,437.34 -0.01,0.09 v 0.09 l -0.01,0.1 -0.02,0.08 -0.01,0.09 -0.03,0.09 -0.02,0.08 -0.03,0.08 -0.03,0.08 -0.04,0.08 -0.04,0.08 -0.05,0.07 -0.04,0.07 -0.06,0.07 -0.05,0.06 -0.06,0.06 -0.06,0.06 -0.06,0.06 -0.07,0.05 -0.07,0.05 -0.08,0.05 -0.07,0.04 -0.09,0.04 -0.08,0.04 -0.08,0.03 -0.09,0.03 -0.1,0.02 -0.09,0.02 -0.1,0.02 -0.1,0.01 h -0.1 l -0.11,0.01 c -1.36,0 -2.7,-1.3 -2.7,-2.64 0,-0.96 0.7,-1.8 1.91,-1.8 1.14,0 2.64,1.14 2.64,2.64 z"
         inkscape:connector-curvature="0"
         style="fill:#ff0000;stroke-width:0" /><path
         id="path8336"
         d="m 465.88,418.61 0.05,0.13 0.05,0.12 0.05,0.12 0.05,0.11 0.04,0.1 0.04,0.1 0.03,0.09 0.04,0.09 0.03,0.09 0.04,0.08 0.03,0.08 0.02,0.08 0.03,0.07 0.03,0.07 0.05,0.15 0.05,0.14 0.05,0.14 0.03,0.07 0.03,0.08 0.03,0.08 0.02,0.08 0.04,0.08 0.03,0.09 0.03,0.1 0.04,0.09 0.03,0.11 0.04,0.11 0.05,0.11 0.04,0.13 c 0.41,1 0.66,1.68 0.66,2.64 0,2.23 -1.59,4.07 -4.09,4.07 -4.68,0 -6.58,-7.21 -6.58,-7.67 0,-0.5 0.5,-0.5 0.61,-0.5 0.5,0 0.54,0.11 0.79,0.91 1.35,4.69 3.33,6.17 5.03,6.17 0.4,0 1.25,0 1.25,-1.59 0,-1.05 -0.35,-2.1 -0.56,-2.6 -0.39,-1.29 -2.64,-7.06 -3.44,-9.22 -0.48,-1.28 -1.14,-2.93 -1.14,-3.98 0,-2.33 1.69,-4.08 4.1,-4.08 4.67,0 6.51,7.22 6.51,7.67 0,0.5 -0.43,0.5 -0.59,0.5 -0.5,0 -0.5,-0.15 -0.75,-0.9 -0.89,-3.13 -2.53,-6.17 -5.08,-6.17 -0.84,0 -1.2,0.5 -1.2,1.64 0,1.25 0.31,1.95 1.45,4.98 z"
         inkscape:connector-curvature="0"
         style="fill:#ff0000;stroke-width:0" /></g>  </g>
  <path
     style="fill:none;stroke:#000000;stroke-width:0.69999999;stroke-linecap:butt;stroke-linejoin:miter;stroke-miterlimit:4;stroke-dasharray:none;stroke-opacity:1;marker-end:url(#Arrow2Lend)"
     d="M 101.39854,205.5469 H 80.610173"
     id="path8347"
     inkscape:connector-curvature="0" />
  <path
     inkscape:connector-curvature="0"
     id="path8351"
     d="M 95.600548,123.66364 V 102.87527"
     style="fill:none;stroke:#000000;stroke-width:0.69999999;stroke-linecap:butt;stroke-linejoin:miter;stroke-miterlimit:4;stroke-dasharray:none;stroke-opacity:1;marker-end:url(#marker8355)" />
  <path
     style="fill:none;stroke:#000000;stroke-width:0.69999999;stroke-linecap:butt;stroke-linejoin:miter;stroke-miterlimit:4;stroke-dasharray:none;stroke-opacity:1;marker-end:url(#marker8361)"
     d="m 177.62493,123.27184 v 20.78837"
     id="path8357"
     inkscape:connector-curvature="0" />
  <path
     style="fill:none;stroke:#ff0000;stroke-width:0.5;stroke-linecap:butt;stroke-linejoin:miter;stroke-miterlimit:4;stroke-dasharray:none;stroke-opacity:1;marker-end:url(#marker9648)"
     d="m 110.13188,157.11596 h 3.88909"
     id="path9614"
     inkscape:connector-curvature="0"
     sodipodi:nodetypes="cc" />
</svg>
