<?xml version="1.0" encoding="UTF-8" standalone="no"?>
<svg
   xmlns:dc="http://purl.org/dc/elements/1.1/"
   xmlns:cc="http://creativecommons.org/ns#"
   xmlns:rdf="http://www.w3.org/1999/02/22-rdf-syntax-ns#"
   xmlns:svg="http://www.w3.org/2000/svg"
   xmlns="http://www.w3.org/2000/svg"
   xmlns:sodipodi="http://sodipodi.sourceforge.net/DTD/sodipodi-0.dtd"
   xmlns:inkscape="http://www.inkscape.org/namespaces/inkscape"
   width="198.026154pt"
   height="83.598183pt"
   viewBox="0 0 198.026154 83.598183"
   version="1.2"
   id="svg138"
   sodipodi:docname="condo.svg"
   inkscape:version="0.92.5 (2060ec1f9f, 2020-04-08)">
  <metadata
     id="metadata142">
    <rdf:RDF>
      <cc:Work
         rdf:about="">
        <dc:format>image/svg+xml</dc:format>
        <dc:type
           rdf:resource="http://purl.org/dc/dcmitype/StillImage" />
        <dc:title></dc:title>
      </cc:Work>
    </rdf:RDF>
  </metadata>
  <sodipodi:namedview
     pagecolor="#ffffff"
     bordercolor="#666666"
     borderopacity="1"
     objecttolerance="10"
     gridtolerance="10"
     guidetolerance="10"
     inkscape:pageopacity="0"
     inkscape:pageshadow="2"
     inkscape:window-width="826"
     inkscape:window-height="486"
     id="namedview140"
     showgrid="false"
     inkscape:zoom="1.9770116"
     inkscape:cx="57.409881"
     inkscape:cy="55.732122"
     inkscape:window-x="72"
     inkscape:window-y="27"
     inkscape:window-maximized="0"
     inkscape:current-layer="svg138" />
  <defs
     id="defs11">
    <clipPath
       id="clip1">
      <path
         d="M 161 9 L 162 9 L 162 83.597656 L 161 83.597656 Z M 161 9 "
         id="path2" />
    </clipPath>
    <clipPath
       id="clip2">
      <path
         d="M 122 17 L 198.027344 17 L 198.027344 32 L 122 32 Z M 122 17 "
         id="path5" />
    </clipPath>
    <clipPath
       id="clip3">
      <path
         d="M 122 57 L 198.027344 57 L 198.027344 73 L 122 73 Z M 122 57 "
         id="path8" />
    </clipPath>
  </defs>
  <g
     id="surface924">
    <g
       clip-path="url(#clip1)"
       clip-rule="nonzero"
       id="g15">
      <path
         style="fill:none;stroke-width:0.374173;stroke-linecap:butt;stroke-linejoin:miter;stroke:rgb(0%,0%,0%);stroke-opacity:1;stroke-dasharray:1.496693,1.496693;stroke-miterlimit:4;"
         d="M 161.8125 83.597656 L 161.8125 9.21875 "
         id="path13" />
    </g>
    <path
       style="fill-rule:evenodd;fill:rgb(0%,0%,0%);fill-opacity:1;stroke-width:0.257244;stroke-linecap:butt;stroke-linejoin:round;stroke:rgb(0%,0%,0%);stroke-opacity:1;stroke-miterlimit:4;"
       d="M 13.21875 -160.148438 L 8.722656 -161.804688 L 13.21875 -163.457031 C 12.503906 -162.480469 12.507812 -161.144531 13.21875 -160.148438 Z M 13.21875 -160.148438 "
       transform="matrix(0,1,-1,0,0,0)"
       id="path17" />
    <g
       clip-path="url(#clip2)"
       clip-rule="nonzero"
       id="g21">
      <path
         style="fill:none;stroke-width:0.375;stroke-linecap:butt;stroke-linejoin:miter;stroke:rgb(0%,0%,0%);stroke-opacity:1;stroke-miterlimit:4;"
         d="M 197.839844 24.398438 C 197.839844 27.234375 181.398438 29.53125 161.121094 29.53125 C 140.84375 29.53125 124.402344 27.234375 124.402344 24.398438 C 124.402344 21.5625 140.84375 19.265625 161.121094 19.265625 C 181.398438 19.265625 197.839844 21.5625 197.839844 24.398438 Z M 197.839844 24.398438 "
         id="path19" />
    </g>
    <g
       clip-path="url(#clip3)"
       clip-rule="nonzero"
       id="g25">
      <path
         style="fill:none;stroke-width:0.375;stroke-linecap:butt;stroke-linejoin:miter;stroke:rgb(0%,0%,0%);stroke-opacity:1;stroke-miterlimit:4;"
         d="M 197.554688 64.8125 C 197.554688 67.851562 181.113281 70.316406 160.835938 70.316406 C 140.558594 70.316406 124.121094 67.851562 124.121094 64.8125 C 124.121094 61.773438 140.558594 59.308594 160.835938 59.308594 C 181.113281 59.308594 197.554688 61.773438 197.554688 64.8125 Z M 197.554688 64.8125 "
         id="path23" />
    </g>
    <path
       style=" stroke:none;fill-rule:evenodd;fill:rgb(0%,0%,0%);fill-opacity:1;"
       d="M 174.882812 24.414062 L 174.976562 24.414062 L 174.992188 24.410156 L 175.027344 24.410156 L 175.0625 24.398438 L 175.074219 24.398438 L 175.097656 24.390625 L 175.105469 24.386719 L 175.113281 24.378906 L 175.125 24.375 L 175.148438 24.351562 L 175.152344 24.34375 L 175.160156 24.335938 L 175.160156 24.328125 L 175.167969 24.320312 L 175.171875 24.3125 L 175.171875 24.300781 L 175.175781 24.296875 L 175.175781 24.28125 L 175.179688 24.273438 L 175.179688 24.246094 C 175.179688 24.078125 175.027344 24.078125 174.882812 24.078125 L 170.320312 24.078125 C 170.175781 24.078125 170.027344 24.078125 170.027344 24.246094 C 170.027344 24.414062 170.175781 24.414062 170.320312 24.414062 Z M 174.882812 24.414062 "
       id="path27" />
    <path
       style=" stroke:none;fill-rule:evenodd;fill:rgb(0%,0%,0%);fill-opacity:1;"
       d="M 179.582031 26.304688 L 179.707031 26.253906 L 179.828125 26.199219 L 179.949219 26.140625 L 180.070312 26.070312 L 180.1875 26 L 180.304688 25.925781 L 180.421875 25.84375 L 180.535156 25.757812 L 180.753906 25.570312 L 180.964844 25.367188 L 181.066406 25.257812 L 181.164062 25.148438 L 181.257812 25.03125 L 181.347656 24.914062 L 181.4375 24.792969 L 181.519531 24.667969 L 181.597656 24.539062 L 181.671875 24.410156 L 181.742188 24.273438 L 181.804688 24.140625 L 181.863281 24 L 181.917969 23.859375 L 181.964844 23.71875 L 182.007812 23.574219 L 182.046875 23.425781 L 182.101562 23.128906 L 182.117188 22.980469 L 182.128906 22.828125 L 182.132812 22.675781 C 182.132812 21.316406 181.238281 20.40625 179.976562 20.40625 L 179.929688 20.617188 C 180.773438 20.617188 181.386719 21.273438 181.386719 22.40625 C 181.386719 23.25 180.957031 25.226562 179.542969 26.015625 C 179.5 25.722656 179.414062 25.105469 178.796875 25.105469 C 178.351562 25.105469 177.9375 25.53125 177.9375 25.964844 L 178.125 25.964844 C 178.125 25.628906 178.445312 25.289062 178.796875 25.289062 C 179.152344 25.289062 179.3125 25.496094 179.3125 26.007812 C 179.3125 26.132812 179.304688 26.144531 179.21875 26.175781 C 179.003906 26.269531 178.75 26.328125 178.511719 26.328125 C 178.394531 26.328125 178.125 26.328125 178.125 25.964844 L 177.9375 25.964844 C 177.9375 26.132812 177.988281 26.226562 177.988281 26.234375 C 177.328125 25.976562 177.042969 25.316406 177.042969 24.558594 C 177.042969 23.976562 177.261719 22.777344 177.902344 21.867188 C 178.519531 21.003906 179.3125 20.617188 179.929688 20.617188 L 179.976562 20.40625 C 178.15625 20.40625 176.300781 22.324219 176.300781 24.289062 C 176.300781 25.6875 177.246094 26.539062 178.460938 26.539062 C 178.671875 26.539062 178.960938 26.503906 179.285156 26.410156 C 179.253906 26.9375 179.253906 26.953125 179.253906 27.0625 C 179.253906 27.332031 179.253906 27.992188 179.953125 27.992188 C 180.957031 27.992188 181.363281 26.449219 181.363281 26.355469 C 181.363281 26.296875 181.304688 26.269531 181.269531 26.269531 C 181.203125 26.269531 181.183594 26.3125 181.171875 26.363281 C 180.96875 26.960938 180.480469 27.171875 180.183594 27.171875 C 179.792969 27.171875 179.667969 26.945312 179.582031 26.304688 Z M 179.582031 26.304688 "
       id="path29" />
    <path
       style=" stroke:none;fill-rule:evenodd;fill:rgb(0%,0%,0%);fill-opacity:1;"
       d="M 173.945312 65.398438 L 176.300781 65.398438 C 176.417969 65.398438 176.578125 65.398438 176.578125 65.226562 C 176.578125 65.058594 176.417969 65.058594 176.300781 65.058594 L 173.945312 65.058594 L 173.945312 62.695312 C 173.945312 62.578125 173.945312 62.417969 173.777344 62.417969 C 173.613281 62.417969 173.613281 62.578125 173.613281 62.695312 L 173.613281 65.058594 L 171.25 65.058594 C 171.128906 65.058594 170.972656 65.058594 170.972656 65.226562 C 170.972656 65.398438 171.128906 65.398438 171.25 65.398438 L 173.613281 65.398438 L 173.613281 67.757812 C 173.613281 67.875 173.613281 68.035156 173.777344 68.035156 C 173.945312 68.035156 173.945312 67.875 173.945312 67.757812 Z M 173.945312 65.398438 "
       id="path31" />
    <path
       style=" stroke:none;fill-rule:evenodd;fill:rgb(0%,0%,0%);fill-opacity:1;"
       d="M 180.757812 67.285156 L 180.878906 67.234375 L 181 67.179688 L 181.121094 67.121094 L 181.242188 67.054688 L 181.476562 66.90625 L 181.59375 66.824219 L 181.707031 66.738281 L 181.816406 66.644531 L 181.929688 66.550781 L 182.03125 66.453125 L 182.136719 66.347656 L 182.238281 66.238281 L 182.335938 66.128906 L 182.429688 66.011719 L 182.519531 65.894531 L 182.609375 65.773438 L 182.691406 65.648438 L 182.769531 65.519531 L 182.84375 65.390625 L 182.914062 65.257812 L 182.976562 65.121094 L 183.039062 64.980469 L 183.140625 64.699219 L 183.179688 64.554688 L 183.21875 64.40625 L 183.25 64.261719 L 183.273438 64.113281 L 183.292969 63.960938 L 183.300781 63.808594 L 183.304688 63.65625 C 183.304688 62.296875 182.410156 61.386719 181.152344 61.386719 L 181.101562 61.601562 C 181.945312 61.601562 182.5625 62.253906 182.5625 63.386719 C 182.5625 64.230469 182.132812 66.207031 180.714844 66.996094 C 180.671875 66.703125 180.585938 66.085938 179.96875 66.085938 C 179.523438 66.085938 179.113281 66.511719 179.113281 66.945312 L 179.296875 66.945312 C 179.296875 66.609375 179.617188 66.273438 179.96875 66.273438 C 180.324219 66.273438 180.488281 66.476562 180.488281 66.988281 C 180.488281 67.117188 180.476562 67.125 180.390625 67.15625 C 180.175781 67.25 179.921875 67.308594 179.6875 67.308594 C 179.566406 67.308594 179.296875 67.308594 179.296875 66.945312 L 179.113281 66.945312 C 179.113281 67.117188 179.160156 67.207031 179.160156 67.21875 C 178.503906 66.957031 178.21875 66.300781 178.21875 65.539062 C 178.21875 64.957031 178.4375 63.757812 179.074219 62.847656 C 179.691406 61.984375 180.488281 61.601562 181.101562 61.601562 L 181.152344 61.386719 C 179.332031 61.386719 177.472656 63.304688 177.472656 65.269531 C 177.472656 66.667969 178.417969 67.519531 179.636719 67.519531 C 179.84375 67.519531 180.132812 67.488281 180.460938 67.394531 C 180.425781 67.917969 180.425781 67.933594 180.425781 68.046875 C 180.425781 68.316406 180.425781 68.972656 181.125 68.972656 C 182.132812 68.972656 182.535156 67.429688 182.535156 67.335938 C 182.535156 67.277344 182.476562 67.25 182.441406 67.25 C 182.375 67.25 182.359375 67.292969 182.34375 67.34375 C 182.140625 67.945312 181.652344 68.152344 181.355469 68.152344 C 180.964844 68.152344 180.839844 67.925781 180.757812 67.285156 Z M 180.757812 67.285156 "
       id="path33" />
    <path
       style="fill:none;stroke-width:0.467717;stroke-linecap:butt;stroke-linejoin:miter;stroke:rgb(0%,0%,0%);stroke-opacity:1;stroke-dasharray:0.467717,0.935433;stroke-miterlimit:4;"
       d="M 161.800781 44.875 L 176.6875 47.53125 "
       id="path35" />
    <path
       style="fill:none;stroke-width:0.340157;stroke-linecap:butt;stroke-linejoin:miter;stroke:rgb(0%,0%,0%);stroke-opacity:1;stroke-miterlimit:4;"
       d="M 176.757812 47.703125 L 187.136719 49.300781 "
       id="path37" />
    <path
       style="fill-rule:evenodd;fill:rgb(0%,0%,0%);fill-opacity:1;stroke-width:0.231138;stroke-linecap:butt;stroke-linejoin:round;stroke:rgb(0%,0%,0%);stroke-opacity:1;stroke-miterlimit:4;"
       d="M -186.625887 -18.538528 L -190.667269 -20.026071 L -186.626238 -21.51113 C -187.272579 -20.634336 -187.267272 -19.432028 -186.625887 -18.538528 Z M -186.625887 -18.538528 "
       transform="matrix(-1,-0.153866,0.153866,-1,0,0)"
       id="path39" />
    <path
       style="fill:none;stroke-width:0.340157;stroke-linecap:butt;stroke-linejoin:miter;stroke:rgb(0%,0%,0%);stroke-opacity:1;stroke-miterlimit:4;"
       d="M 176.6875 47.53125 L 186.90625 43.375 "
       id="path41" />
    <path
       style="fill-rule:evenodd;fill:rgb(0%,0%,0%);fill-opacity:1;stroke-width:0.216602;stroke-linecap:butt;stroke-linejoin:round;stroke:rgb(0%,0%,0%);stroke-opacity:1;stroke-miterlimit:4;"
       d="M -141.829974 -101.077987 L -145.614871 -102.47015 L -141.82924 -103.862845 C -142.4342 -103.038774 -142.431611 -101.91272 -141.829974 -101.077987 Z M -141.829974 -101.077987 "
       transform="matrix(-1,0.407039,-0.407039,-1,0,0)"
       id="path43" />
    <path
       style=" stroke:none;fill-rule:evenodd;fill:rgb(0%,0%,0%);fill-opacity:1;"
       d="M 179.46875 40.261719 L 179.492188 40.179688 L 179.496094 40.15625 L 179.503906 40.132812 L 179.511719 40.113281 L 179.519531 40.089844 L 179.527344 40.074219 L 179.542969 40.035156 L 179.578125 39.988281 L 179.640625 39.941406 L 179.664062 39.929688 L 179.683594 39.921875 L 179.707031 39.914062 L 179.734375 39.90625 L 179.75 39.902344 L 179.761719 39.898438 L 179.777344 39.898438 L 179.792969 39.894531 L 179.8125 39.890625 L 179.828125 39.886719 L 179.84375 39.886719 L 179.863281 39.882812 L 179.882812 39.882812 L 179.902344 39.878906 L 179.945312 39.878906 L 179.964844 39.875 L 179.988281 39.875 L 180.011719 39.871094 L 180.199219 39.871094 C 180.394531 39.871094 180.472656 39.871094 180.472656 39.699219 C 180.472656 39.605469 180.386719 39.605469 180.242188 39.605469 L 179.121094 39.605469 C 178.902344 39.605469 178.890625 39.605469 178.792969 39.769531 L 175.6875 44.609375 L 175.027344 39.804688 C 175 39.605469 174.984375 39.605469 174.761719 39.605469 L 173.597656 39.605469 C 173.4375 39.605469 173.34375 39.605469 173.34375 39.769531 C 173.34375 39.871094 173.417969 39.871094 173.589844 39.871094 C 173.699219 39.871094 173.851562 39.878906 173.957031 39.886719 C 174.089844 39.90625 174.140625 39.929688 174.140625 40.023438 C 174.140625 40.058594 174.132812 40.085938 174.109375 40.183594 L 173.027344 44.507812 C 172.945312 44.851562 172.800781 45.121094 172.109375 45.144531 C 172.066406 45.144531 171.957031 45.152344 171.957031 45.308594 C 171.957031 45.382812 172.007812 45.410156 172.078125 45.410156 C 172.351562 45.410156 172.644531 45.382812 172.925781 45.382812 C 173.21875 45.382812 173.523438 45.410156 173.804688 45.410156 C 173.847656 45.410156 173.957031 45.410156 173.957031 45.238281 C 173.957031 45.144531 173.863281 45.144531 173.804688 45.144531 C 173.316406 45.140625 173.226562 44.96875 173.226562 44.773438 C 173.226562 44.714844 173.230469 44.671875 173.257812 44.578125 L 174.414062 39.949219 L 174.425781 39.949219 L 175.152344 45.214844 C 175.167969 45.316406 175.179688 45.410156 175.28125 45.410156 C 175.375 45.410156 175.425781 45.316406 175.46875 45.257812 L 178.902344 39.878906 L 178.90625 39.878906 L 177.691406 44.746094 C 177.609375 45.078125 177.589844 45.144531 176.921875 45.144531 C 176.777344 45.144531 176.683594 45.144531 176.683594 45.308594 C 176.683594 45.410156 176.785156 45.410156 176.8125 45.410156 C 177.046875 45.410156 177.625 45.382812 177.863281 45.382812 C 178.214844 45.382812 178.578125 45.410156 178.925781 45.410156 C 178.976562 45.410156 179.085938 45.410156 179.085938 45.238281 C 179.085938 45.144531 179.007812 45.144531 178.847656 45.144531 C 178.535156 45.144531 178.296875 45.144531 178.296875 44.992188 C 178.296875 44.960938 178.296875 44.945312 178.339844 44.789062 Z M 179.46875 40.261719 "
       id="path45" />
    <path
       style=" stroke:none;fill-rule:evenodd;fill:rgb(0%,0%,0%);fill-opacity:1;"
       d="M 191.972656 47.636719 L 191.960938 47.644531 L 191.9375 47.667969 L 191.921875 47.679688 L 191.863281 47.738281 L 191.84375 47.753906 L 191.761719 47.835938 L 191.730469 47.871094 L 191.714844 47.886719 L 191.699219 47.90625 L 191.683594 47.921875 L 191.667969 47.941406 L 191.65625 47.957031 L 191.640625 47.972656 L 191.628906 47.992188 L 191.621094 48.007812 L 191.609375 48.027344 L 191.585938 48.074219 L 191.582031 48.089844 L 191.578125 48.109375 L 191.574219 48.121094 L 191.574219 48.136719 C 191.574219 48.222656 191.660156 48.308594 191.746094 48.308594 C 191.820312 48.308594 191.863281 48.246094 191.90625 48.195312 C 192.007812 48.066406 192.203125 47.828125 192.578125 47.644531 C 192.636719 47.609375 192.722656 47.566406 192.722656 47.464844 C 192.722656 47.378906 192.664062 47.335938 192.601562 47.292969 C 192.417969 47.167969 192.324219 47.015625 192.253906 46.8125 C 192.238281 46.734375 192.203125 46.621094 192.085938 46.621094 C 191.964844 46.621094 191.914062 46.734375 191.914062 46.800781 C 191.914062 46.84375 191.980469 47.113281 192.117188 47.292969 L 189.253906 47.292969 C 189.113281 47.292969 188.957031 47.292969 188.957031 47.464844 C 188.957031 47.636719 189.113281 47.636719 189.253906 47.636719 Z M 191.972656 47.636719 "
       id="path47" />
    <path
       style=" stroke:none;fill-rule:evenodd;fill:rgb(0%,0%,0%);fill-opacity:1;"
       d="M 189.328125 50.726562 L 189.4375 50.726562 L 189.46875 50.722656 L 189.539062 50.722656 L 189.574219 50.71875 L 189.613281 50.71875 L 189.652344 50.714844 L 189.691406 50.714844 L 189.820312 50.703125 L 189.910156 50.695312 L 190 50.683594 L 190.09375 50.671875 L 190.1875 50.65625 L 190.28125 50.636719 L 190.371094 50.617188 L 190.414062 50.605469 L 190.457031 50.589844 L 190.503906 50.578125 L 190.542969 50.5625 L 190.585938 50.546875 L 190.625 50.53125 C 191.222656 50.273438 191.261719 49.773438 191.261719 49.65625 C 191.261719 49.28125 190.941406 48.9375 190.355469 48.9375 L 190.355469 49.121094 C 190.753906 49.121094 190.984375 49.367188 190.984375 49.65625 C 190.984375 50.539062 189.625 50.539062 189.273438 50.539062 L 188.925781 50.539062 C 189.261719 49.25 190.132812 49.121094 190.355469 49.121094 L 190.355469 48.9375 C 189.410156 48.9375 188.128906 49.757812 188.128906 51.246094 C 188.128906 52.113281 188.628906 52.785156 189.460938 52.785156 C 190.675781 52.785156 191.390625 51.882812 191.390625 51.78125 C 191.390625 51.730469 191.339844 51.667969 191.289062 51.667969 C 191.246094 51.667969 191.230469 51.6875 191.179688 51.753906 C 190.507812 52.597656 189.582031 52.597656 189.480469 52.597656 C 188.816406 52.597656 188.738281 51.882812 188.738281 51.609375 C 188.738281 51.507812 188.75 51.246094 188.875 50.726562 Z M 189.328125 50.726562 "
       id="path49" />
    <path
       style=" stroke:none;fill-rule:evenodd;fill:rgb(0%,0%,0%);fill-opacity:1;"
       d="M 193.085938 52.757812 L 193.085938 52.746094 L 193.089844 52.742188 L 193.089844 52.722656 L 193.09375 52.71875 L 193.09375 52.707031 L 193.097656 52.703125 L 193.101562 52.691406 L 193.101562 52.683594 L 193.105469 52.675781 L 193.109375 52.652344 L 193.113281 52.632812 L 193.121094 52.609375 L 193.125 52.582031 L 193.140625 52.535156 L 193.144531 52.507812 L 193.160156 52.453125 L 193.171875 52.402344 L 193.179688 52.375 L 193.195312 52.328125 L 193.199219 52.300781 L 193.207031 52.277344 L 193.214844 52.238281 L 193.21875 52.230469 L 193.222656 52.21875 L 193.222656 52.210938 L 193.226562 52.203125 L 193.226562 52.195312 L 193.230469 52.191406 L 193.230469 52.183594 L 193.234375 52.179688 L 193.234375 52.167969 L 193.238281 52.164062 L 193.238281 52.15625 C 193.25 52.109375 193.421875 51.8125 193.613281 51.667969 C 193.679688 51.625 193.839844 51.503906 194.09375 51.503906 C 194.152344 51.503906 194.300781 51.507812 194.421875 51.585938 C 194.230469 51.640625 194.160156 51.808594 194.160156 51.914062 C 194.160156 52.046875 194.261719 52.132812 194.398438 52.132812 C 194.535156 52.132812 194.730469 52.019531 194.730469 51.769531 C 194.730469 51.460938 194.402344 51.339844 194.097656 51.339844 C 193.789062 51.339844 193.523438 51.460938 193.261719 51.761719 C 193.15625 51.398438 192.792969 51.339844 192.648438 51.339844 C 192.433594 51.339844 192.28125 51.476562 192.1875 51.640625 C 192.050781 51.871094 191.96875 52.21875 191.96875 52.246094 C 191.96875 52.324219 192.050781 52.324219 192.070312 52.324219 C 192.152344 52.324219 192.15625 52.304688 192.199219 52.144531 C 192.289062 51.785156 192.402344 51.503906 192.632812 51.503906 C 192.789062 51.503906 192.828125 51.632812 192.828125 51.792969 C 192.828125 51.910156 192.773438 52.125 192.730469 52.285156 C 192.691406 52.449219 192.632812 52.691406 192.601562 52.824219 L 192.414062 53.585938 C 192.390625 53.660156 192.355469 53.808594 192.355469 53.828125 C 192.355469 53.957031 192.460938 54.015625 192.554688 54.015625 C 192.644531 54.015625 192.765625 53.964844 192.808594 53.84375 C 192.824219 53.808594 192.886719 53.546875 192.925781 53.398438 Z M 193.085938 52.757812 "
       id="path51" />
    <path
       style=" stroke:none;fill-rule:evenodd;fill:rgb(0%,0%,0%);fill-opacity:1;"
       d="M 191.800781 38.585938 L 191.765625 38.621094 L 191.75 38.632812 L 191.738281 38.648438 L 191.722656 38.660156 L 191.691406 38.691406 L 191.671875 38.707031 L 191.625 38.753906 L 191.589844 38.785156 L 191.558594 38.824219 L 191.527344 38.855469 L 191.496094 38.894531 L 191.484375 38.910156 L 191.46875 38.925781 L 191.457031 38.945312 L 191.449219 38.960938 L 191.4375 38.976562 L 191.429688 38.996094 L 191.414062 39.027344 L 191.402344 39.074219 L 191.402344 39.089844 C 191.402344 39.175781 191.488281 39.257812 191.574219 39.257812 C 191.648438 39.257812 191.691406 39.199219 191.734375 39.148438 C 191.835938 39.019531 192.03125 38.78125 192.40625 38.597656 C 192.464844 38.558594 192.550781 38.519531 192.550781 38.417969 C 192.550781 38.332031 192.492188 38.289062 192.429688 38.246094 C 192.246094 38.117188 192.152344 37.96875 192.082031 37.765625 C 192.066406 37.6875 192.03125 37.574219 191.914062 37.574219 C 191.792969 37.574219 191.742188 37.6875 191.742188 37.753906 C 191.742188 37.796875 191.808594 38.066406 191.945312 38.246094 L 189.082031 38.246094 C 188.941406 38.246094 188.785156 38.246094 188.785156 38.417969 C 188.785156 38.585938 188.941406 38.585938 189.082031 38.585938 Z M 191.800781 38.585938 "
       id="path53" />
    <path
       style=" stroke:none;fill-rule:evenodd;fill:rgb(0%,0%,0%);fill-opacity:1;"
       d="M 189.15625 41.679688 L 189.179688 41.675781 L 189.367188 41.675781 L 189.402344 41.671875 L 189.441406 41.671875 L 189.480469 41.667969 L 189.519531 41.667969 L 189.648438 41.65625 L 189.738281 41.648438 L 189.828125 41.636719 L 189.921875 41.625 L 190.015625 41.609375 L 190.109375 41.589844 L 190.199219 41.570312 L 190.242188 41.554688 L 190.285156 41.542969 L 190.332031 41.527344 L 190.371094 41.515625 L 190.414062 41.5 L 190.453125 41.484375 C 191.050781 41.226562 191.09375 40.726562 191.09375 40.609375 C 191.09375 40.234375 190.769531 39.890625 190.183594 39.890625 L 190.183594 40.074219 C 190.582031 40.074219 190.8125 40.320312 190.8125 40.609375 C 190.8125 41.492188 189.453125 41.492188 189.105469 41.492188 L 188.753906 41.492188 C 189.089844 40.203125 189.960938 40.074219 190.183594 40.074219 L 190.183594 39.890625 C 189.238281 39.890625 187.957031 40.710938 187.957031 42.199219 C 187.957031 43.0625 188.457031 43.734375 189.289062 43.734375 C 190.503906 43.734375 191.21875 42.835938 191.21875 42.734375 C 191.21875 42.683594 191.167969 42.621094 191.117188 42.621094 C 191.074219 42.621094 191.058594 42.640625 191.007812 42.707031 C 190.335938 43.546875 189.410156 43.546875 189.308594 43.546875 C 188.644531 43.546875 188.566406 42.835938 188.566406 42.5625 C 188.566406 42.460938 188.578125 42.199219 188.703125 41.679688 Z M 189.15625 41.679688 "
       id="path55" />
    <path
       style=" stroke:none;fill-rule:evenodd;fill:rgb(0%,0%,0%);fill-opacity:1;"
       d="M 194.554688 42.015625 L 194.554688 41.957031 L 194.546875 41.839844 L 194.542969 41.785156 L 194.535156 41.722656 L 194.527344 41.664062 L 194.519531 41.609375 L 194.507812 41.554688 L 194.496094 41.496094 L 194.464844 41.386719 L 194.449219 41.335938 L 194.429688 41.285156 L 194.382812 41.183594 L 194.359375 41.136719 L 194.335938 41.09375 L 194.308594 41.050781 L 194.277344 41.007812 L 194.25 40.972656 L 194.214844 40.933594 L 194.183594 40.898438 L 194.144531 40.871094 L 194.105469 40.839844 L 194.066406 40.816406 L 194.023438 40.792969 L 193.980469 40.773438 L 193.933594 40.757812 L 193.839844 40.734375 L 193.785156 40.730469 L 193.734375 40.726562 L 193.726562 40.894531 C 194.105469 40.894531 194.105469 41.554688 194.105469 41.664062 C 194.105469 41.898438 194.058594 42.242188 193.9375 42.742188 L 192.558594 42.742188 C 192.867188 41.457031 193.375 40.894531 193.726562 40.894531 L 193.734375 40.726562 C 192.839844 40.726562 191.890625 42.320312 191.890625 43.679688 C 191.890625 44.390625 192.164062 44.96875 192.710938 44.96875 L 192.714844 44.804688 C 192.390625 44.804688 192.335938 44.351562 192.335938 44.03125 C 192.335938 43.640625 192.449219 43.175781 192.507812 42.953125 L 193.882812 42.953125 C 193.714844 43.601562 193.578125 43.925781 193.402344 44.214844 C 193.214844 44.523438 192.980469 44.804688 192.714844 44.804688 L 192.710938 44.96875 C 193.613281 44.96875 194.554688 43.347656 194.554688 42.015625 Z M 194.554688 42.015625 "
       id="path57" />
    <path
       style=" stroke:none;fill-rule:evenodd;fill:rgb(0%,0%,0%);fill-opacity:1;"
       d="M 162.300781 1.011719 L 162.277344 1.035156 L 162.261719 1.046875 L 162.234375 1.074219 L 162.21875 1.085938 L 162.1875 1.117188 L 162.171875 1.128906 L 162.15625 1.148438 L 162.085938 1.210938 L 162.054688 1.25 L 162.023438 1.28125 L 162.007812 1.300781 L 161.996094 1.316406 L 161.980469 1.335938 L 161.96875 1.351562 L 161.957031 1.371094 L 161.945312 1.386719 L 161.9375 1.402344 L 161.925781 1.421875 L 161.917969 1.4375 L 161.914062 1.453125 L 161.90625 1.46875 L 161.898438 1.5 L 161.898438 1.515625 C 161.898438 1.597656 161.984375 1.683594 162.070312 1.683594 C 162.148438 1.683594 162.191406 1.625 162.234375 1.570312 C 162.332031 1.445312 162.53125 1.207031 162.90625 1.019531 C 162.960938 0.984375 163.046875 0.941406 163.046875 0.84375 C 163.046875 0.757812 162.988281 0.714844 162.929688 0.671875 C 162.742188 0.542969 162.648438 0.390625 162.578125 0.1875 C 162.5625 0.113281 162.53125 0 162.410156 0 C 162.289062 0 162.242188 0.113281 162.242188 0.179688 C 162.242188 0.222656 162.308594 0.492188 162.445312 0.671875 L 159.582031 0.671875 C 159.4375 0.671875 159.28125 0.671875 159.28125 0.84375 C 159.28125 1.011719 159.4375 1.011719 159.582031 1.011719 Z M 162.300781 1.011719 "
       id="path59" />
    <path
       style=" stroke:none;fill-rule:evenodd;fill:rgb(0%,0%,0%);fill-opacity:1;"
       d="M 159.652344 4.105469 L 159.675781 4.101562 L 159.828125 4.101562 L 159.863281 4.097656 L 159.9375 4.097656 L 159.976562 4.09375 L 160.019531 4.09375 L 160.058594 4.089844 L 160.101562 4.085938 L 160.148438 4.082031 L 160.234375 4.074219 L 160.421875 4.050781 L 160.515625 4.03125 L 160.605469 4.015625 L 160.695312 3.992188 L 160.742188 3.980469 L 160.785156 3.96875 L 160.828125 3.953125 L 160.871094 3.941406 L 160.914062 3.925781 L 160.953125 3.910156 C 161.546875 3.652344 161.589844 3.152344 161.589844 3.035156 C 161.589844 2.660156 161.269531 2.3125 160.679688 2.3125 L 160.679688 2.5 C 161.078125 2.5 161.308594 2.746094 161.308594 3.035156 C 161.308594 3.917969 159.949219 3.917969 159.601562 3.917969 L 159.253906 3.917969 C 159.585938 2.628906 160.460938 2.5 160.679688 2.5 L 160.679688 2.3125 C 159.738281 2.3125 158.457031 3.136719 158.457031 4.621094 C 158.457031 5.488281 158.957031 6.160156 159.789062 6.160156 C 161.003906 6.160156 161.71875 5.261719 161.71875 5.160156 C 161.71875 5.109375 161.667969 5.046875 161.617188 5.046875 C 161.574219 5.046875 161.558594 5.066406 161.503906 5.132812 C 160.832031 5.972656 159.910156 5.972656 159.804688 5.972656 C 159.144531 5.972656 159.066406 5.261719 159.066406 4.988281 C 159.066406 4.886719 159.074219 4.621094 159.203125 4.105469 Z M 159.652344 4.105469 "
       id="path61" />
    <path
       style=" stroke:none;fill-rule:evenodd;fill:rgb(0%,0%,0%);fill-opacity:1;"
       d="M 163.015625 6.8125 L 163.128906 6.699219 L 163.160156 6.671875 L 163.175781 6.65625 L 163.191406 6.636719 L 163.207031 6.625 L 163.226562 6.605469 L 163.246094 6.589844 L 163.285156 6.550781 L 163.355469 6.492188 L 163.4375 6.421875 L 163.5 6.367188 L 163.570312 6.3125 L 163.605469 6.28125 L 163.644531 6.25 L 163.730469 6.179688 L 163.777344 6.140625 C 163.902344 6.039062 164.347656 5.683594 164.519531 5.519531 C 164.882812 5.160156 165.109375 4.859375 165.109375 4.785156 C 165.109375 4.714844 165.03125 4.714844 165.007812 4.714844 C 164.957031 4.714844 164.9375 4.726562 164.910156 4.773438 C 164.722656 5.046875 164.601562 5.136719 164.457031 5.136719 C 164.386719 5.136719 164.292969 5.132812 164.117188 4.957031 C 163.917969 4.757812 163.785156 4.714844 163.648438 4.714844 C 163.175781 4.714844 162.851562 5.234375 162.851562 5.410156 C 162.851562 5.464844 162.914062 5.480469 162.953125 5.480469 C 163.023438 5.480469 163.039062 5.464844 163.058594 5.398438 C 163.148438 5.191406 163.484375 5.175781 163.578125 5.175781 C 163.714844 5.175781 163.867188 5.214844 163.953125 5.234375 C 164.277344 5.304688 164.320312 5.304688 164.46875 5.304688 C 164.3125 5.464844 164.207031 5.570312 163.644531 6.023438 C 163.179688 6.390625 163.019531 6.539062 162.90625 6.660156 C 162.550781 7.007812 162.375 7.269531 162.375 7.324219 C 162.375 7.394531 162.453125 7.394531 162.476562 7.394531 C 162.535156 7.394531 162.550781 7.382812 162.578125 7.335938 C 162.738281 7.109375 162.921875 6.972656 163.125 6.972656 C 163.199219 6.972656 163.285156 6.976562 163.445312 7.128906 C 163.632812 7.308594 163.75 7.394531 163.941406 7.394531 C 164.574219 7.394531 164.976562 6.675781 164.976562 6.476562 C 164.976562 6.402344 164.910156 6.398438 164.875 6.398438 C 164.800781 6.398438 164.789062 6.425781 164.765625 6.492188 C 164.652344 6.789062 164.304688 6.929688 164.007812 6.929688 C 163.875 6.929688 163.726562 6.902344 163.578125 6.867188 C 163.304688 6.808594 163.257812 6.808594 163.148438 6.808594 C 163.136719 6.808594 163.046875 6.808594 163.015625 6.8125 Z M 163.015625 6.8125 "
       id="path63" />
    <path
       style=" stroke:none;fill-rule:evenodd;fill:rgb(0%,0%,0%);fill-opacity:1;"
       d="M 146.320312 21.066406 L 146.304688 21.035156 L 146.242188 20.925781 L 146.203125 20.871094 L 146.1875 20.847656 L 146.148438 20.800781 L 146.125 20.777344 L 146.105469 20.753906 L 146.082031 20.734375 L 146.0625 20.714844 L 146.039062 20.695312 L 146.011719 20.675781 L 145.988281 20.65625 L 145.964844 20.640625 L 145.9375 20.625 L 145.914062 20.609375 L 145.886719 20.597656 L 145.855469 20.582031 L 145.828125 20.574219 L 145.796875 20.5625 L 145.769531 20.554688 L 145.738281 20.542969 L 145.707031 20.539062 L 145.675781 20.53125 L 145.640625 20.527344 L 145.609375 20.523438 L 145.539062 20.523438 L 145.546875 20.707031 C 146.097656 20.707031 146.214844 21.402344 146.214844 21.453125 C 146.214844 21.507812 146.203125 21.558594 146.191406 21.601562 L 145.765625 23.265625 C 145.722656 23.417969 145.722656 23.433594 145.597656 23.578125 C 145.222656 24.046875 144.875 24.183594 144.636719 24.183594 C 144.210938 24.183594 144.09375 23.714844 144.09375 23.382812 C 144.09375 22.960938 144.363281 21.914062 144.5625 21.523438 C 144.824219 21.023438 145.207031 20.707031 145.546875 20.707031 L 145.539062 20.523438 C 144.542969 20.523438 143.492188 21.769531 143.492188 23.011719 C 143.492188 23.808594 143.957031 24.371094 144.621094 24.371094 C 144.789062 24.371094 145.214844 24.332031 145.722656 23.730469 C 145.792969 24.089844 146.089844 24.371094 146.496094 24.371094 C 146.792969 24.371094 146.992188 24.175781 147.125 23.902344 C 147.269531 23.597656 147.382812 23.078125 147.382812 23.0625 C 147.382812 22.976562 147.304688 22.976562 147.28125 22.976562 C 147.195312 22.976562 147.1875 23.011719 147.160156 23.128906 C 147.015625 23.683594 146.863281 24.183594 146.515625 24.183594 C 146.285156 24.183594 146.257812 23.960938 146.257812 23.792969 C 146.257812 23.605469 146.277344 23.539062 146.367188 23.160156 C 146.464844 22.804688 146.480469 22.71875 146.558594 22.398438 L 146.863281 21.210938 C 146.921875 20.972656 146.921875 20.953125 146.921875 20.921875 C 146.921875 20.773438 146.820312 20.6875 146.675781 20.6875 C 146.472656 20.6875 146.34375 20.878906 146.320312 21.066406 Z M 146.320312 21.066406 "
       id="path65" />
    <path
       style=" stroke:none;fill-rule:evenodd;fill:rgb(0%,0%,0%);fill-opacity:1;"
       d="M 118.25 40.058594 L 118.25 40.054688 L 118.246094 40.050781 L 118.246094 40.03125 L 118.242188 40.027344 L 118.238281 40.019531 L 118.238281 40.011719 L 118.226562 40 L 118.226562 39.996094 L 118.21875 39.988281 L 118.214844 39.988281 L 118.207031 39.980469 L 118.203125 39.980469 L 118.203125 39.976562 L 118.191406 39.976562 L 118.1875 39.972656 L 118.183594 39.972656 L 118.179688 39.96875 L 118.167969 39.96875 L 118.160156 39.964844 L 118.140625 39.964844 C 117.941406 39.964844 117.324219 40.035156 117.101562 40.050781 C 117.03125 40.058594 116.9375 40.066406 116.9375 40.21875 C 116.9375 40.324219 117.015625 40.324219 117.144531 40.324219 C 117.554688 40.324219 117.566406 40.378906 117.566406 40.464844 L 117.542969 40.636719 L 116.3125 45.53125 C 116.277344 45.648438 116.277344 45.667969 116.277344 45.71875 C 116.277344 45.914062 116.445312 45.953125 116.523438 45.953125 C 116.660156 45.953125 116.796875 45.851562 116.839844 45.734375 L 117 45.089844 L 117.1875 44.324219 C 117.238281 44.136719 117.289062 43.953125 117.332031 43.753906 C 117.347656 43.703125 117.417969 43.421875 117.425781 43.375 C 117.449219 43.292969 117.714844 42.820312 118.003906 42.589844 C 118.1875 42.453125 118.453125 42.292969 118.816406 42.292969 C 119.183594 42.292969 119.277344 42.582031 119.277344 42.886719 C 119.277344 43.347656 118.953125 44.273438 118.75 44.789062 C 118.683594 44.988281 118.640625 45.089844 118.640625 45.257812 C 118.640625 45.65625 118.9375 45.953125 119.335938 45.953125 C 120.132812 45.953125 120.449219 44.714844 120.449219 44.648438 C 120.449219 44.5625 120.371094 44.5625 120.347656 44.5625 C 120.261719 44.5625 120.261719 44.585938 120.21875 44.714844 C 120.09375 45.164062 119.820312 45.765625 119.355469 45.765625 C 119.207031 45.765625 119.148438 45.683594 119.148438 45.488281 C 119.148438 45.273438 119.226562 45.070312 119.300781 44.882812 C 119.4375 44.519531 119.820312 43.507812 119.820312 43.015625 C 119.820312 42.464844 119.480469 42.109375 118.84375 42.109375 C 118.304688 42.109375 117.898438 42.367188 117.585938 42.757812 Z M 118.25 40.058594 "
       id="path67" />
    <path
       style="fill:none;stroke-width:0.283465;stroke-linecap:butt;stroke-linejoin:miter;stroke:rgb(0%,0%,0%);stroke-opacity:1;stroke-miterlimit:4;"
       d="M 161.277344 25.203125 L 125.082031 24.234375 "
       id="path69" />
    <path
       style="fill-rule:evenodd;fill:rgb(0%,0%,0%);fill-opacity:1;stroke-width:0.194812;stroke-linecap:butt;stroke-linejoin:round;stroke:rgb(0%,0%,0%);stroke-opacity:1;stroke-miterlimit:4;"
       d="M -158.805352 -19.621495 L -162.209909 -20.874307 L -158.805826 -22.125389 C -159.348636 -21.388234 -159.345053 -20.376611 -158.805352 -19.621495 Z M -158.805352 -19.621495 "
       transform="matrix(-1,-0.0267106,0.0267106,-1,0,0)"
       id="path71" />
    <path
       style="fill-rule:evenodd;fill:rgb(0%,0%,0%);fill-opacity:1;stroke-width:0.194812;stroke-linecap:butt;stroke-linejoin:round;stroke:rgb(0%,0%,0%);stroke-opacity:1;stroke-miterlimit:4;"
       d="M 128.669428 22.137381 L 125.260967 20.884673 L 128.668953 19.633488 C 128.12224 20.370747 128.125823 21.38237 128.669428 22.137381 Z M 128.669428 22.137381 "
       transform="matrix(1,0.0267106,-0.0267106,1,0,0)"
       id="path73" />
    <path
       style="fill:none;stroke-width:0.283465;stroke-linecap:butt;stroke-linejoin:miter;stroke:rgb(0%,0%,0%);stroke-opacity:1;stroke-miterlimit:4;"
       d="M 121.542969 64.546875 L 121.972656 24.742188 "
       id="path75" />
    <path
       style="fill-rule:evenodd;fill:rgb(0%,0%,0%);fill-opacity:1;stroke-width:0.194871;stroke-linecap:butt;stroke-linejoin:round;stroke:rgb(0%,0%,0%);stroke-opacity:1;stroke-miterlimit:4;"
       d="M -60.206462 123.481869 L -63.614431 122.229369 L -60.206024 120.974051 C -60.75277 121.714292 -60.749728 122.725978 -60.206462 123.481869 Z M -60.206462 123.481869 "
       transform="matrix(0.0107286,-1,1,0.0107286,0,0)"
       id="path77" />
    <path
       style="fill-rule:evenodd;fill:rgb(0%,0%,0%);fill-opacity:1;stroke-width:0.194871;stroke-linecap:butt;stroke-linejoin:round;stroke:rgb(0%,0%,0%);stroke-opacity:1;stroke-miterlimit:4;"
       d="M 26.463949 -120.963609 L 23.055938 -122.220014 L 26.464387 -123.471426 C 25.917641 -122.731185 25.920683 -121.719499 26.463949 -120.963609 Z M 26.463949 -120.963609 "
       transform="matrix(-0.0107286,1,-1,-0.0107286,0,0)"
       id="path79" />
    <path
       style=" stroke:none;fill-rule:evenodd;fill:rgb(0%,0%,0%);fill-opacity:1;"
       d="M 160 44.128906 L 160 44 L 159.992188 43.875 L 159.980469 43.753906 L 159.960938 43.636719 L 159.9375 43.519531 L 159.910156 43.40625 L 159.878906 43.296875 L 159.839844 43.191406 L 159.800781 43.089844 L 159.753906 42.988281 L 159.703125 42.894531 L 159.648438 42.800781 L 159.59375 42.714844 L 159.527344 42.628906 L 159.464844 42.546875 L 159.390625 42.472656 L 159.320312 42.398438 L 159.242188 42.328125 L 159.160156 42.261719 L 159.078125 42.203125 L 158.988281 42.148438 L 158.898438 42.097656 L 158.804688 42.046875 L 158.707031 42.003906 L 158.503906 41.933594 L 158.398438 41.90625 L 158.289062 41.882812 L 158.179688 41.867188 L 158.066406 41.851562 L 157.953125 41.84375 L 157.832031 41.84375 L 157.78125 42.054688 C 158.480469 42.054688 159.246094 42.527344 159.246094 43.792969 C 159.246094 44.40625 159.015625 45.730469 158.175781 46.777344 C 157.765625 47.296875 157.066406 47.796875 156.355469 47.796875 C 155.515625 47.796875 154.921875 47.109375 154.921875 45.988281 C 154.921875 45.613281 155.039062 44.371094 155.695312 43.378906 C 156.28125 42.496094 157.109375 42.054688 157.78125 42.054688 L 157.832031 41.84375 C 156 41.84375 154.128906 43.769531 154.128906 45.75 C 154.128906 47.160156 155.082031 48.015625 156.304688 48.015625 C 158.105469 48.015625 160 46.15625 160 44.128906 Z M 160 44.128906 "
       id="path81" />
    <path
       style="fill:none;stroke-width:0.799297;stroke-linecap:butt;stroke-linejoin:miter;stroke:rgb(0%,0%,0%);stroke-opacity:1;stroke-miterlimit:10;"
       d="M -44.489701 3.609375 L -44.489701 19.210938 M -39.287974 3.609375 L -39.287974 19.210938 "
       transform="matrix(0,-0.994261,1,0,0,0)"
       id="path83" />
    <path
       style="fill:none;stroke-width:0.400837;stroke-linecap:butt;stroke-linejoin:miter;stroke:rgb(0%,0%,0%);stroke-opacity:1;stroke-miterlimit:4;"
       d="M -15.671973 10.992188 L -39.590491 10.992188 "
       transform="matrix(0,-0.994261,1,0,0,0)"
       id="path85" />
    <path
       style="fill:none;stroke-width:0.400837;stroke-linecap:butt;stroke-linejoin:miter;stroke:rgb(0%,0%,0%);stroke-opacity:1;stroke-miterlimit:4;"
       d="M -44.749002 10.992188 L -70.517984 10.992188 "
       transform="matrix(0,-0.994261,1,0,0,0)"
       id="path87" />
    <path
       style="fill:none;stroke-width:0.797201;stroke-linecap:butt;stroke-linejoin:miter;stroke:rgb(0%,0%,0%);stroke-opacity:1;stroke-miterlimit:10;"
       d="M 28.09375 11.798927 L 48.910156 11.798927 L 48.910156 19.607558 L 28.09375 19.607558 Z M 28.09375 11.798927 "
       transform="matrix(1,0,0,0.999495,0,0)"
       id="path89" />
    <path
       style="fill:none;stroke-width:0.399786;stroke-linecap:butt;stroke-linejoin:miter;stroke:rgb(0%,0%,0%);stroke-opacity:1;stroke-miterlimit:4;"
       d="M 28.054688 15.589904 L 10.992188 15.589904 "
       transform="matrix(1,0,0,0.999495,0,0)"
       id="path91" />
    <path
       style="fill:none;stroke-width:0.399786;stroke-linecap:butt;stroke-linejoin:miter;stroke:rgb(0%,0%,0%);stroke-opacity:1;stroke-miterlimit:4;"
       d="M 65.523438 15.589904 L 48.707031 15.589904 "
       transform="matrix(1,0,0,0.999495,0,0)"
       id="path93" />
    <path
       style="fill:none;stroke-width:0.39825;stroke-linecap:butt;stroke-linejoin:miter;stroke:rgb(0%,0%,0%);stroke-opacity:1;stroke-miterlimit:10;"
       d="M 70.113281 -65.523438 L 15.582031 -65.523438 "
       transform="matrix(0,1,-1,0,0,0)"
       id="path95" />
    <path
       style="fill:none;stroke-width:0.39825;stroke-linecap:butt;stroke-linejoin:miter;stroke:rgb(0%,0%,0%);stroke-opacity:1;stroke-miterlimit:4;"
       d="M -59.664062 -44.039062 C -59.664062 -40.773438 -62.335938 -38.125 -65.628906 -38.125 C -68.925781 -38.125 -71.597656 -40.773438 -71.597656 -44.039062 C -71.597656 -47.304688 -68.925781 -49.953125 -65.628906 -49.953125 C -62.335938 -49.953125 -59.664062 -47.304688 -59.664062 -44.039062 Z M -59.664062 -44.039062 "
       transform="matrix(-1,0,0,-1,0,0)"
       id="path97" />
    <path
       style="fill:none;stroke-width:0.3985;stroke-linecap:butt;stroke-linejoin:miter;stroke:rgb(0%,0%,0%);stroke-opacity:1;stroke-miterlimit:10;"
       d="M 21.355469 15.558594 L 17.691406 15.558594 "
       id="path99" />
    <path
       style="fill-rule:evenodd;fill:rgb(0%,0%,0%);fill-opacity:1;stroke-width:0.273969;stroke-linecap:butt;stroke-linejoin:round;stroke:rgb(0%,0%,0%);stroke-opacity:1;stroke-miterlimit:4;"
       d="M -17.09375 -13.792969 L -21.882812 -15.554688 L -17.09375 -17.3125 C -17.859375 -16.273438 -17.855469 -14.851562 -17.09375 -13.792969 Z M -17.09375 -13.792969 "
       transform="matrix(-1,0,0,-1,0,0)"
       id="path101" />
    <path
       style=" stroke:none;fill-rule:evenodd;fill:rgb(0%,0%,0%);fill-opacity:1;"
       d="M 14.980469 4.972656 L 14.980469 4.945312 L 14.972656 4.914062 L 14.972656 4.902344 L 14.96875 4.886719 L 14.960938 4.863281 L 14.953125 4.847656 L 14.949219 4.835938 L 14.933594 4.8125 L 14.929688 4.800781 L 14.910156 4.78125 L 14.902344 4.769531 L 14.890625 4.761719 L 14.882812 4.75 L 14.847656 4.726562 L 14.835938 4.722656 L 14.820312 4.714844 L 14.808594 4.707031 L 14.796875 4.703125 L 14.734375 4.6875 L 14.683594 4.6875 C 14.46875 4.6875 14.253906 4.894531 14.253906 5.109375 C 14.253906 5.261719 14.367188 5.394531 14.558594 5.394531 C 14.742188 5.394531 14.980469 5.214844 14.980469 4.972656 Z M 14.980469 4.972656 "
       id="path103" />
    <path
       style=" stroke:none;fill-rule:evenodd;fill:rgb(0%,0%,0%);fill-opacity:1;"
       d="M 14.375 7.964844 L 14.398438 7.90625 L 14.40625 7.890625 L 14.410156 7.871094 L 14.417969 7.855469 L 14.421875 7.84375 L 14.429688 7.828125 L 14.433594 7.8125 L 14.441406 7.800781 L 14.445312 7.789062 L 14.449219 7.773438 L 14.453125 7.765625 L 14.480469 7.683594 L 14.488281 7.671875 L 14.496094 7.648438 L 14.5 7.632812 L 14.507812 7.621094 L 14.511719 7.609375 L 14.515625 7.589844 L 14.523438 7.578125 L 14.527344 7.558594 L 14.535156 7.542969 L 14.542969 7.523438 L 14.546875 7.503906 C 14.613281 7.34375 14.652344 7.234375 14.652344 7.082031 C 14.652344 6.726562 14.398438 6.433594 14 6.433594 C 13.253906 6.433594 12.949219 7.582031 12.949219 7.65625 C 12.949219 7.738281 13.027344 7.738281 13.046875 7.738281 C 13.125 7.738281 13.132812 7.71875 13.171875 7.589844 C 13.386719 6.84375 13.703125 6.605469 13.976562 6.605469 C 14.039062 6.605469 14.175781 6.605469 14.175781 6.859375 C 14.175781 7.027344 14.121094 7.195312 14.085938 7.273438 C 14.023438 7.480469 13.664062 8.402344 13.535156 8.75 C 13.460938 8.953125 13.355469 9.214844 13.355469 9.382812 C 13.355469 9.757812 13.625 10.035156 14.007812 10.035156 C 14.753906 10.035156 15.050781 8.882812 15.050781 8.808594 C 15.050781 8.730469 14.980469 8.730469 14.953125 8.730469 C 14.875 8.730469 14.875 8.753906 14.835938 8.875 C 14.691406 9.375 14.429688 9.859375 14.023438 9.859375 C 13.890625 9.859375 13.832031 9.78125 13.832031 9.597656 C 13.832031 9.398438 13.882812 9.285156 14.0625 8.800781 Z M 14.375 7.964844 "
       id="path105" />
    <path
       style=" stroke:none;fill-rule:evenodd;fill:rgb(0%,0%,0%);fill-opacity:1;"
       d="M 18.09375 11.855469 L 18.09375 11.847656 L 18.089844 11.84375 L 18.089844 11.835938 L 18.085938 11.835938 L 18.085938 11.828125 L 18.082031 11.824219 L 18.082031 11.820312 L 18.070312 11.808594 L 18.066406 11.800781 L 18.058594 11.792969 L 18.058594 11.789062 L 18.050781 11.78125 L 18.050781 11.777344 L 18.039062 11.765625 L 18.035156 11.765625 L 18.03125 11.757812 L 18.027344 11.757812 L 18.023438 11.75 L 18.011719 11.738281 L 18.007812 11.730469 L 18 11.726562 L 17.992188 11.71875 L 17.988281 11.710938 L 17.980469 11.707031 L 17.976562 11.699219 L 17.96875 11.695312 L 17.957031 11.683594 C 16.964844 10.679688 16.707031 9.175781 16.707031 7.960938 C 16.707031 6.574219 17.011719 5.1875 17.988281 4.195312 C 18.09375 4.097656 18.09375 4.082031 18.09375 4.058594 C 18.09375 4.003906 18.0625 3.980469 18.015625 3.980469 C 17.9375 3.980469 17.21875 4.519531 16.75 5.53125 C 16.34375 6.40625 16.246094 7.289062 16.246094 7.960938 C 16.246094 8.582031 16.335938 9.539062 16.769531 10.441406 C 17.25 11.421875 17.9375 11.9375 18.015625 11.9375 C 18.0625 11.9375 18.09375 11.914062 18.09375 11.855469 Z M 18.09375 11.855469 "
       id="path107" />
    <path
       style=" stroke:none;fill-rule:evenodd;fill:rgb(0%,0%,0%);fill-opacity:1;"
       d="M 20.183594 6.765625 L 20.933594 6.765625 C 21.089844 6.765625 21.171875 6.765625 21.171875 6.605469 C 21.171875 6.519531 21.089844 6.519531 20.949219 6.519531 L 20.246094 6.519531 C 20.535156 5.386719 20.574219 5.226562 20.574219 5.179688 C 20.574219 5.046875 20.480469 4.964844 20.34375 4.964844 C 20.320312 4.964844 20.097656 4.972656 20.023438 5.253906 L 19.714844 6.519531 L 18.964844 6.519531 C 18.804688 6.519531 18.726562 6.519531 18.726562 6.667969 C 18.726562 6.765625 18.792969 6.765625 18.953125 6.765625 L 19.648438 6.765625 C 19.078125 9.023438 19.046875 9.160156 19.046875 9.304688 C 19.046875 9.734375 19.347656 10.035156 19.777344 10.035156 C 20.589844 10.035156 21.042969 8.875 21.042969 8.808594 C 21.042969 8.730469 20.980469 8.730469 20.949219 8.730469 C 20.875 8.730469 20.867188 8.753906 20.828125 8.84375 C 20.488281 9.667969 20.066406 9.859375 19.796875 9.859375 C 19.628906 9.859375 19.546875 9.757812 19.546875 9.492188 C 19.546875 9.304688 19.5625 9.246094 19.59375 9.113281 Z M 20.183594 6.765625 "
       id="path109" />
    <path
       style=" stroke:none;fill-rule:evenodd;fill:rgb(0%,0%,0%);fill-opacity:1;"
       d="M 23.71875 7.960938 L 23.71875 7.835938 L 23.714844 7.773438 L 23.714844 7.710938 L 23.707031 7.574219 L 23.699219 7.433594 L 23.683594 7.289062 L 23.667969 7.136719 L 23.644531 6.980469 L 23.621094 6.820312 L 23.589844 6.65625 L 23.550781 6.492188 L 23.507812 6.324219 L 23.460938 6.15625 L 23.40625 5.984375 L 23.34375 5.8125 L 23.308594 5.730469 L 23.273438 5.644531 L 23.234375 5.558594 L 23.195312 5.476562 C 22.71875 4.496094 22.035156 3.980469 21.953125 3.980469 C 21.90625 3.980469 21.875 4.011719 21.875 4.058594 C 21.875 4.082031 21.875 4.097656 22.023438 4.242188 C 22.804688 5.027344 23.257812 6.292969 23.257812 7.960938 C 23.257812 9.320312 22.964844 10.71875 21.976562 11.722656 C 21.875 11.816406 21.875 11.835938 21.875 11.855469 C 21.875 11.90625 21.90625 11.9375 21.953125 11.9375 C 22.035156 11.9375 22.746094 11.394531 23.21875 10.386719 C 23.625 9.511719 23.71875 8.628906 23.71875 7.960938 Z M 23.71875 7.960938 "
       id="path111" />
    <path
       style=" stroke:none;fill-rule:evenodd;fill:rgb(0%,0%,0%);fill-opacity:1;"
       d="M 39.316406 6.125 L 39.390625 6.105469 L 39.546875 6.066406 L 39.621094 6.039062 L 39.699219 6.015625 L 39.777344 5.984375 L 39.855469 5.957031 L 39.929688 5.925781 L 40.003906 5.890625 L 40.152344 5.8125 L 40.222656 5.773438 L 40.363281 5.6875 L 40.429688 5.640625 L 40.492188 5.589844 L 40.554688 5.542969 L 40.613281 5.492188 L 40.671875 5.4375 L 40.722656 5.378906 L 40.777344 5.324219 L 40.820312 5.265625 L 40.867188 5.203125 L 40.90625 5.144531 L 40.941406 5.078125 L 40.972656 5.011719 L 41 4.945312 L 41.023438 4.878906 L 41.042969 4.808594 L 41.054688 4.734375 L 41.0625 4.660156 L 41.066406 4.585938 C 41.066406 3.902344 40.351562 3.394531 39.308594 3.394531 L 37.042969 3.394531 C 36.882812 3.394531 36.808594 3.394531 36.808594 3.554688 C 36.808594 3.640625 36.882812 3.640625 37.03125 3.640625 C 37.050781 3.640625 37.199219 3.640625 37.335938 3.65625 C 37.476562 3.671875 37.550781 3.679688 37.550781 3.785156 C 37.550781 3.816406 37.542969 3.839844 37.515625 3.933594 L 36.453125 8.207031 C 36.371094 8.519531 36.355469 8.582031 35.726562 8.582031 C 35.582031 8.582031 35.515625 8.582031 35.515625 8.742188 C 35.515625 8.828125 35.609375 8.828125 35.621094 8.828125 C 35.847656 8.828125 36.402344 8.804688 36.628906 8.804688 C 36.847656 8.804688 37.414062 8.828125 37.636719 8.828125 C 37.703125 8.828125 37.796875 8.828125 37.796875 8.667969 C 37.796875 8.582031 37.726562 8.582031 37.574219 8.582031 C 37.28125 8.582031 37.054688 8.582031 37.054688 8.441406 C 37.054688 8.394531 37.074219 8.351562 37.082031 8.304688 L 37.605469 6.195312 L 38.554688 6.195312 L 38.546875 6.019531 L 37.652344 6.019531 L 38.171875 3.941406 C 38.21875 3.753906 38.242188 3.671875 38.394531 3.648438 C 38.464844 3.640625 38.71875 3.640625 38.878906 3.640625 C 39.445312 3.640625 40.328125 3.640625 40.328125 4.429688 C 40.328125 4.699219 40.199219 5.25 39.890625 5.558594 C 39.683594 5.765625 39.261719 6.019531 38.546875 6.019531 L 38.554688 6.195312 C 39.277344 6.195312 39.417969 6.640625 39.417969 6.921875 C 39.417969 7.039062 39.355469 7.285156 39.308594 7.46875 C 39.25 7.691406 39.183594 7.984375 39.183594 8.144531 C 39.183594 9.003906 40.136719 9.003906 40.242188 9.003906 C 40.917969 9.003906 41.195312 8.199219 41.195312 8.089844 C 41.195312 7.992188 41.105469 7.992188 41.101562 7.992188 C 41.027344 7.992188 41.011719 8.050781 40.996094 8.105469 C 40.796875 8.695312 40.453125 8.828125 40.269531 8.828125 C 40.007812 8.828125 39.953125 8.65625 39.953125 8.34375 C 39.953125 8.097656 40 7.691406 40.03125 7.4375 C 40.050781 7.324219 40.066406 7.175781 40.066406 7.0625 C 40.066406 6.449219 39.53125 6.203125 39.316406 6.125 Z M 39.316406 6.125 "
       id="path113" />
    <path
       style=" stroke:none;fill-rule:evenodd;fill:rgb(0%,0%,0%);fill-opacity:1;"
       d="M 79.308594 47.214844 L 79.316406 47.246094 L 79.328125 47.273438 L 79.339844 47.304688 L 79.363281 47.359375 L 79.378906 47.386719 L 79.394531 47.410156 L 79.410156 47.4375 L 79.425781 47.460938 L 79.445312 47.484375 L 79.460938 47.507812 L 79.484375 47.527344 L 79.523438 47.566406 L 79.570312 47.605469 L 79.640625 47.652344 L 79.667969 47.667969 L 79.722656 47.691406 L 79.746094 47.703125 L 79.777344 47.710938 L 79.804688 47.722656 L 79.835938 47.726562 L 79.863281 47.734375 L 79.894531 47.738281 L 79.921875 47.742188 L 79.957031 47.746094 L 79.988281 47.746094 L 80.019531 47.75 C 80.296875 47.75 80.480469 47.566406 80.609375 47.3125 C 80.742188 47.027344 80.84375 46.539062 80.84375 46.523438 C 80.84375 46.445312 80.773438 46.445312 80.75 46.445312 C 80.667969 46.445312 80.664062 46.476562 80.636719 46.589844 C 80.527344 47.03125 80.375 47.574219 80.042969 47.574219 C 79.875 47.574219 79.796875 47.46875 79.796875 47.207031 C 79.796875 47.03125 79.890625 46.660156 79.953125 46.382812 L 80.179688 45.519531 C 80.203125 45.398438 80.28125 45.097656 80.3125 44.976562 C 80.351562 44.796875 80.433594 44.496094 80.433594 44.449219 C 80.433594 44.300781 80.320312 44.230469 80.203125 44.230469 C 80.160156 44.230469 79.953125 44.238281 79.890625 44.511719 C 79.738281 45.089844 79.390625 46.484375 79.292969 46.90625 C 79.285156 46.9375 78.96875 47.574219 78.386719 47.574219 C 77.972656 47.574219 77.890625 47.214844 77.890625 46.921875 C 77.890625 46.476562 78.117188 45.847656 78.324219 45.296875 C 78.417969 45.058594 78.457031 44.949219 78.457031 44.796875 C 78.457031 44.441406 78.203125 44.144531 77.804688 44.144531 C 77.046875 44.144531 76.753906 45.296875 76.753906 45.371094 C 76.753906 45.449219 76.835938 45.449219 76.851562 45.449219 C 76.933594 45.449219 76.9375 45.433594 76.976562 45.304688 C 77.175781 44.613281 77.480469 44.320312 77.78125 44.320312 C 77.851562 44.320312 77.980469 44.328125 77.980469 44.582031 C 77.980469 44.773438 77.890625 45.003906 77.84375 45.125 C 77.550781 45.914062 77.382812 46.40625 77.382812 46.792969 C 77.382812 47.550781 77.933594 47.75 78.363281 47.75 C 78.886719 47.75 79.175781 47.390625 79.308594 47.214844 Z M 79.308594 47.214844 "
       id="path115" />
    <path
       style=" stroke:none;fill-rule:evenodd;fill:rgb(0%,0%,0%);fill-opacity:1;"
       d="M 83.71875 49.570312 L 83.71875 49.554688 L 83.714844 49.550781 L 83.714844 49.546875 L 83.710938 49.542969 L 83.710938 49.539062 L 83.707031 49.535156 L 83.707031 49.53125 L 83.703125 49.527344 L 83.699219 49.519531 L 83.691406 49.511719 L 83.6875 49.503906 L 83.683594 49.5 L 83.679688 49.5 L 83.679688 49.496094 L 83.667969 49.484375 L 83.667969 49.480469 L 83.648438 49.460938 L 83.640625 49.457031 L 83.640625 49.449219 L 83.632812 49.445312 L 83.585938 49.398438 C 82.589844 48.394531 82.335938 46.890625 82.335938 45.671875 C 82.335938 44.289062 82.640625 42.902344 83.617188 41.910156 C 83.71875 41.8125 83.71875 41.796875 83.71875 41.773438 C 83.71875 41.714844 83.691406 41.695312 83.640625 41.695312 C 83.5625 41.695312 82.84375 42.234375 82.378906 43.242188 C 81.96875 44.121094 81.875 45.003906 81.875 45.671875 C 81.875 46.292969 81.960938 47.253906 82.398438 48.15625 C 82.875 49.132812 83.5625 49.652344 83.640625 49.652344 C 83.691406 49.652344 83.71875 49.628906 83.71875 49.570312 Z M 83.71875 49.570312 "
       id="path117" />
    <path
       style=" stroke:none;fill-rule:evenodd;fill:rgb(0%,0%,0%);fill-opacity:1;"
       d="M 85.8125 44.480469 L 86.5625 44.480469 C 86.71875 44.480469 86.796875 44.480469 86.796875 44.320312 C 86.796875 44.230469 86.71875 44.230469 86.574219 44.230469 L 85.875 44.230469 C 86.160156 43.101562 86.203125 42.941406 86.203125 42.894531 C 86.203125 42.757812 86.105469 42.679688 85.972656 42.679688 C 85.945312 42.679688 85.722656 42.6875 85.652344 42.96875 L 85.34375 44.230469 L 84.59375 44.230469 C 84.433594 44.230469 84.355469 44.230469 84.355469 44.382812 C 84.355469 44.480469 84.417969 44.480469 84.578125 44.480469 L 85.277344 44.480469 C 84.707031 46.738281 84.675781 46.871094 84.675781 47.019531 C 84.675781 47.449219 84.976562 47.75 85.40625 47.75 C 86.214844 47.75 86.667969 46.589844 86.667969 46.523438 C 86.667969 46.445312 86.609375 46.445312 86.574219 46.445312 C 86.503906 46.445312 86.496094 46.46875 86.457031 46.554688 C 86.113281 47.382812 85.691406 47.574219 85.421875 47.574219 C 85.253906 47.574219 85.175781 47.46875 85.175781 47.207031 C 85.175781 47.019531 85.191406 46.960938 85.222656 46.828125 Z M 85.8125 44.480469 "
       id="path119" />
    <path
       style=" stroke:none;fill-rule:evenodd;fill:rgb(0%,0%,0%);fill-opacity:1;"
       d="M 89.34375 45.671875 L 89.34375 45.421875 L 89.335938 45.289062 L 89.324219 45.148438 L 89.3125 45.003906 L 89.296875 44.851562 L 89.273438 44.695312 L 89.246094 44.535156 L 89.214844 44.371094 L 89.179688 44.207031 L 89.136719 44.039062 L 89.089844 43.871094 L 89.03125 43.699219 L 88.9375 43.441406 L 88.898438 43.359375 L 88.820312 43.1875 C 88.34375 42.210938 87.660156 41.695312 87.582031 41.695312 C 87.535156 41.695312 87.5 41.722656 87.5 41.773438 C 87.5 41.796875 87.5 41.8125 87.652344 41.957031 C 88.433594 42.742188 88.886719 44.007812 88.886719 45.671875 C 88.886719 47.03125 88.59375 48.433594 87.605469 49.4375 C 87.5 49.53125 87.5 49.546875 87.5 49.570312 C 87.5 49.617188 87.535156 49.652344 87.582031 49.652344 C 87.660156 49.652344 88.375 49.109375 88.847656 48.097656 C 89.25 47.226562 89.34375 46.34375 89.34375 45.671875 Z M 89.34375 45.671875 "
       id="path121" />
    <path
       style="fill:none;stroke-width:0.39825;stroke-linecap:butt;stroke-linejoin:miter;stroke:rgb(0%,0%,0%);stroke-opacity:1;stroke-miterlimit:10;"
       d="M 74.148438 35.792969 L 74.148438 52.140625 "
       id="path123" />
    <path
       style="fill-rule:evenodd;fill:rgb(0%,0%,0%);fill-opacity:1;stroke-width:0.273797;stroke-linecap:butt;stroke-linejoin:round;stroke:rgb(0%,0%,0%);stroke-opacity:1;stroke-miterlimit:4;"
       d="M 40.050781 -72.378906 L 35.261719 -74.140625 L 40.050781 -75.898438 C 39.285156 -74.859375 39.289062 -73.4375 40.050781 -72.378906 Z M 40.050781 -72.378906 "
       transform="matrix(0,1,-1,0,0,0)"
       id="path125" />
    <path
       style=" stroke:none;fill-rule:evenodd;fill:rgb(0%,0%,0%);fill-opacity:1;"
       d="M 2.140625 49.125 L 3.835938 49.125 C 3.921875 49.125 4.039062 49.125 4.039062 49.003906 C 4.039062 48.878906 3.921875 48.878906 3.835938 48.878906 L 2.140625 48.878906 L 2.140625 47.179688 C 2.140625 47.097656 2.140625 46.980469 2.019531 46.980469 C 1.902344 46.980469 1.902344 47.097656 1.902344 47.179688 L 1.902344 48.878906 L 0.199219 48.878906 C 0.113281 48.878906 0 48.878906 0 49.003906 C 0 49.125 0.113281 49.125 0.199219 49.125 L 1.902344 49.125 L 1.902344 50.824219 C 1.902344 50.910156 1.902344 51.023438 2.019531 51.023438 C 2.140625 51.023438 2.140625 50.910156 2.140625 50.824219 Z M 2.140625 49.125 "
       id="path127" />
    <path
       style=" stroke:none;fill-rule:evenodd;fill:rgb(0%,0%,0%);fill-opacity:1;"
       d="M 7.042969 50.484375 L 7.132812 50.449219 L 7.21875 50.40625 L 7.308594 50.367188 L 7.480469 50.265625 L 7.5625 50.210938 L 7.644531 50.152344 L 7.726562 50.089844 L 7.808594 50.023438 L 7.886719 49.957031 L 7.964844 49.882812 L 8.039062 49.808594 L 8.179688 49.652344 L 8.25 49.566406 L 8.3125 49.484375 L 8.378906 49.394531 L 8.4375 49.304688 L 8.492188 49.214844 L 8.546875 49.121094 L 8.597656 49.023438 L 8.644531 48.925781 L 8.6875 48.824219 L 8.726562 48.722656 L 8.789062 48.519531 L 8.816406 48.414062 L 8.839844 48.304688 L 8.855469 48.199219 L 8.867188 48.089844 L 8.875 47.980469 L 8.878906 47.871094 C 8.878906 46.894531 8.234375 46.238281 7.328125 46.238281 L 7.292969 46.390625 C 7.898438 46.390625 8.34375 46.863281 8.34375 47.679688 C 8.34375 48.285156 8.035156 49.707031 7.011719 50.277344 C 6.984375 50.066406 6.921875 49.621094 6.476562 49.621094 C 6.15625 49.621094 5.859375 49.925781 5.859375 50.238281 L 5.992188 50.238281 C 5.992188 50 6.222656 49.753906 6.476562 49.753906 C 6.734375 49.753906 6.851562 49.902344 6.851562 50.269531 C 6.851562 50.363281 6.84375 50.367188 6.78125 50.390625 C 6.625 50.460938 6.441406 50.5 6.273438 50.5 C 6.1875 50.5 5.992188 50.5 5.992188 50.238281 L 5.859375 50.238281 C 5.859375 50.363281 5.894531 50.429688 5.894531 50.433594 C 5.421875 50.25 5.214844 49.773438 5.214844 49.226562 C 5.214844 48.808594 5.375 47.945312 5.835938 47.289062 C 6.277344 46.667969 6.851562 46.390625 7.292969 46.390625 L 7.328125 46.238281 C 6.015625 46.238281 4.679688 47.617188 4.679688 49.03125 C 4.679688 50.039062 5.359375 50.652344 6.238281 50.652344 C 6.386719 50.652344 6.59375 50.628906 6.832031 50.5625 C 6.804688 50.941406 6.804688 50.949219 6.804688 51.03125 C 6.804688 51.226562 6.804688 51.699219 7.3125 51.699219 C 8.035156 51.699219 8.324219 50.585938 8.324219 50.519531 C 8.324219 50.480469 8.28125 50.460938 8.257812 50.460938 C 8.210938 50.460938 8.195312 50.488281 8.1875 50.527344 C 8.039062 50.957031 7.6875 51.109375 7.476562 51.109375 C 7.195312 51.109375 7.105469 50.945312 7.042969 50.484375 Z M 7.042969 50.484375 "
       id="path129" />
    <path
       style=" stroke:none;fill-rule:evenodd;fill:rgb(0%,0%,0%);fill-opacity:1;"
       d="M 3.773438 34.839844 L 3.839844 34.839844 L 3.847656 34.835938 L 3.875 34.835938 L 3.882812 34.832031 L 3.890625 34.832031 L 3.902344 34.828125 L 3.910156 34.828125 L 3.925781 34.820312 L 3.929688 34.816406 L 3.9375 34.816406 L 3.949219 34.804688 L 3.957031 34.800781 L 3.960938 34.796875 L 3.964844 34.789062 L 3.96875 34.785156 L 3.96875 34.78125 L 3.972656 34.777344 L 3.972656 34.773438 L 3.976562 34.769531 L 3.976562 34.765625 L 3.980469 34.761719 L 3.980469 34.75 L 3.984375 34.742188 L 3.984375 34.71875 C 3.984375 34.597656 3.875 34.597656 3.773438 34.597656 L 0.484375 34.597656 C 0.382812 34.597656 0.273438 34.597656 0.273438 34.71875 C 0.273438 34.839844 0.382812 34.839844 0.484375 34.839844 Z M 3.773438 34.839844 "
       id="path131" />
    <path
       style=" stroke:none;fill-rule:evenodd;fill:rgb(0%,0%,0%);fill-opacity:1;"
       d="M 7.15625 36.199219 L 7.242188 36.164062 L 7.332031 36.125 L 7.417969 36.082031 L 7.589844 35.980469 L 7.675781 35.925781 L 7.757812 35.867188 L 7.839844 35.804688 L 7.917969 35.738281 L 8 35.671875 L 8.148438 35.523438 L 8.222656 35.445312 L 8.292969 35.367188 L 8.359375 35.285156 L 8.425781 35.199219 L 8.488281 35.109375 L 8.546875 35.023438 L 8.605469 34.929688 L 8.65625 34.835938 L 8.707031 34.738281 L 8.753906 34.640625 L 8.796875 34.542969 L 8.835938 34.441406 L 8.871094 34.335938 L 8.902344 34.234375 L 8.949219 34.023438 L 8.980469 33.804688 L 8.988281 33.699219 L 8.988281 33.589844 C 8.988281 32.609375 8.347656 31.953125 7.4375 31.953125 L 7.402344 32.105469 C 8.011719 32.105469 8.453125 32.578125 8.453125 33.394531 C 8.453125 34 8.144531 35.421875 7.125 35.992188 C 7.09375 35.78125 7.03125 35.335938 6.589844 35.335938 C 6.265625 35.335938 5.972656 35.640625 5.972656 35.957031 L 6.105469 35.957031 C 6.105469 35.714844 6.335938 35.46875 6.589844 35.46875 C 6.84375 35.46875 6.960938 35.617188 6.960938 35.984375 C 6.960938 36.078125 6.953125 36.082031 6.894531 36.109375 C 6.738281 36.175781 6.554688 36.214844 6.382812 36.214844 C 6.296875 36.214844 6.105469 36.214844 6.105469 35.957031 L 5.972656 35.957031 C 5.972656 36.078125 6.007812 36.144531 6.007812 36.152344 C 5.53125 35.964844 5.328125 35.488281 5.328125 34.941406 C 5.328125 34.523438 5.484375 33.660156 5.945312 33.003906 C 6.390625 32.386719 6.960938 32.105469 7.402344 32.105469 L 7.4375 31.953125 C 6.128906 31.953125 4.789062 33.332031 4.789062 34.75 C 4.789062 35.753906 5.472656 36.367188 6.347656 36.367188 C 6.496094 36.367188 6.707031 36.34375 6.941406 36.277344 C 6.917969 36.65625 6.917969 36.667969 6.917969 36.746094 C 6.917969 36.941406 6.917969 37.414062 7.421875 37.414062 C 8.144531 37.414062 8.433594 36.304688 8.433594 36.234375 C 8.433594 36.195312 8.394531 36.175781 8.367188 36.175781 C 8.320312 36.175781 8.308594 36.207031 8.296875 36.242188 C 8.152344 36.671875 7.800781 36.824219 7.585938 36.824219 C 7.304688 36.824219 7.214844 36.660156 7.15625 36.199219 Z M 7.15625 36.199219 "
       id="path133" />
    <path
       style="fill:none;stroke-width:0.39825;stroke-linecap:butt;stroke-linejoin:miter;stroke:rgb(0%,0%,0%);stroke-opacity:1;stroke-miterlimit:10;"
       d="M 65.523438 70.113281 L 10.992188 70.113281 "
       id="path135" />
  </g>
</svg>
