<?xml version="1.0" encoding="UTF-8" standalone="no"?>
<svg
   width="133.458pt"
   height="165.5pt"
   viewBox="0 0 133.458 165.5"
   version="1.1"
   id="svg498"
   sodipodi:docname="flux_induction_cylindre.svg"
   inkscape:export-filename="flux_induction_cylindre.pdf"
   inkscape:export-xdpi="96"
   inkscape:export-ydpi="96"
   inkscape:version="1.2.2 (1:1.2.2+202305151915+b0a8486541)"
   xmlns:inkscape="http://www.inkscape.org/namespaces/inkscape"
   xmlns:sodipodi="http://sodipodi.sourceforge.net/DTD/sodipodi-0.dtd"
   xmlns="http://www.w3.org/2000/svg"
   xmlns:svg="http://www.w3.org/2000/svg"
   xmlns:ns5="http://www.iki.fi/pav/software/textext/">
  <sodipodi:namedview
     id="namedview500"
     pagecolor="#505050"
     bordercolor="#eeeeee"
     borderopacity="1"
     inkscape:showpageshadow="0"
     inkscape:pageopacity="0"
     inkscape:pagecheckerboard="0"
     inkscape:deskcolor="#505050"
     inkscape:document-units="pt"
     showgrid="false"
     inkscape:zoom="5.478852"
     inkscape:cx="60.687896"
     inkscape:cy="81.495175"
     inkscape:window-width="3440"
     inkscape:window-height="1364"
     inkscape:window-x="0"
     inkscape:window-y="0"
     inkscape:window-maximized="1"
     inkscape:current-layer="svg498" />
  <defs
     id="defs341">
    <marker
       style="overflow:visible"
       id="marker2700"
       refX="0"
       refY="0"
       orient="auto-start-reverse"
       inkscape:stockid="Arrow2"
       markerWidth="16.700001"
       markerHeight="12.145454"
       viewBox="0 0 7.7 5.6"
       inkscape:isstock="true"
       inkscape:collect="always"
       preserveAspectRatio="xMidYMid">
      <path
         transform="scale(0.7)"
         d="M -2,-4 9,0 -2,4 c 2,-2.33 2,-5.66 0,-8 z"
         style="fill:context-stroke;fill-rule:evenodd;stroke:none"
         id="path2698" />
    </marker>
    <marker
       style="overflow:visible"
       id="Arrow2"
       refX="0"
       refY="0"
       orient="auto-start-reverse"
       inkscape:stockid="Arrow2"
       markerWidth="15.7"
       markerHeight="11.418181"
       viewBox="0 0 7.7 5.6"
       inkscape:isstock="true"
       inkscape:collect="always"
       preserveAspectRatio="xMidYMid">
      <path
         transform="scale(0.7)"
         d="M -2,-4 9,0 -2,4 c 2,-2.33 2,-5.66 0,-8 z"
         style="fill:context-stroke;fill-rule:evenodd;stroke:none"
         id="arrow2L" />
    </marker>
    <g
       id="g74">
      <symbol
         overflow="visible"
         id="glyph0-0">
        <path
           style="stroke:none;"
           d=""
           id="path2" />
      </symbol>
      <symbol
         overflow="visible"
         id="glyph0-1">
        <path
           style="stroke:none;"
           d="M 3.25 -3.53125 C 3.0625 -3.46875 2.890625 -3.359375 2.890625 -3.109375 C 2.890625 -2.890625 3.046875 -2.703125 3.3125 -2.703125 C 3.546875 -2.703125 3.734375 -2.875 3.734375 -3.140625 C 3.734375 -3.78125 2.96875 -4 2.421875 -4.015625 L 2.328125 -4.015625 C 1.296875 -4.015625 0.3125 -3.171875 0.3125 -1.953125 C 0.3125 -0.859375 1.171875 0.09375 2.3125 0.09375 C 2.9375 0.09375 3.515625 -0.234375 3.765625 -0.875 C 3.78125 -0.9375 3.828125 -1.015625 3.828125 -1.078125 C 3.828125 -1.140625 3.765625 -1.1875 3.703125 -1.1875 C 3.546875 -1.1875 3.546875 -0.953125 3.46875 -0.828125 C 3.25 -0.421875 2.859375 -0.15625 2.375 -0.15625 C 1.390625 -0.15625 1.078125 -1.28125 1.078125 -1.96875 C 1.078125 -2.703125 1.34375 -3.765625 2.34375 -3.765625 C 2.59375 -3.765625 2.859375 -3.734375 3.078125 -3.625 C 3.140625 -3.609375 3.1875 -3.5625 3.25 -3.53125 Z M 3.25 -3.53125 "
           id="path5" />
      </symbol>
      <symbol
         overflow="visible"
         id="glyph0-2">
        <path
           style="stroke:none;"
           d="M 2.171875 -4.015625 C 1.125 -3.90625 0.265625 -3.0625 0.265625 -1.921875 C 0.265625 -1 0.953125 0.09375 2.3125 0.09375 C 3.359375 0.09375 4.34375 -0.75 4.34375 -1.90625 C 4.34375 -2.984375 3.5 -4.03125 2.296875 -4.03125 C 2.25 -4.03125 2.21875 -4.015625 2.171875 -4.015625 Z M 1.046875 -1.71875 L 1.046875 -2.09375 C 1.046875 -2.8125 1.265625 -3.796875 2.3125 -3.796875 C 3.015625 -3.796875 3.46875 -3.234375 3.546875 -2.515625 C 3.5625 -2.328125 3.5625 -2.140625 3.5625 -1.953125 C 3.5625 -1.484375 3.53125 -0.953125 3.203125 -0.578125 C 2.984375 -0.3125 2.640625 -0.15625 2.296875 -0.15625 C 1.640625 -0.15625 1.1875 -0.65625 1.0625 -1.375 C 1.0625 -1.484375 1.0625 -1.59375 1.046875 -1.71875 Z M 1.046875 -1.71875 "
           id="path8" />
      </symbol>
      <symbol
         overflow="visible"
         id="glyph0-3">
        <path
           style="stroke:none;"
           d="M 0.3125 -3.859375 L 0.3125 -3.59375 L 0.453125 -3.59375 C 0.71875 -3.59375 1 -3.5625 1 -3.140625 L 1 -0.65625 C 1 -0.296875 0.765625 -0.28125 0.3125 -0.28125 L 0.3125 -0.015625 L 0.953125 -0.03125 L 2.359375 -0.03125 L 2.359375 -0.28125 L 2.15625 -0.28125 C 1.890625 -0.28125 1.671875 -0.328125 1.671875 -0.65625 L 1.671875 -2.265625 C 1.671875 -2.953125 2.078125 -3.734375 2.921875 -3.734375 C 3.40625 -3.734375 3.546875 -3.296875 3.546875 -2.734375 L 3.546875 -0.625 C 3.546875 -0.3125 3.296875 -0.28125 3 -0.28125 L 2.859375 -0.28125 L 2.859375 -0.015625 L 3.5 -0.03125 L 4.90625 -0.03125 L 4.90625 -0.28125 L 4.734375 -0.28125 C 4.46875 -0.28125 4.21875 -0.3125 4.21875 -0.640625 L 4.21875 -2.65625 C 4.21875 -2.9375 4.203125 -3.1875 4.078125 -3.4375 C 3.84375 -3.859375 3.375 -3.96875 2.9375 -3.96875 C 2.390625 -3.96875 1.828125 -3.59375 1.625 -3.078125 L 1.609375 -3.96875 Z M 0.3125 -3.859375 "
           id="path11" />
      </symbol>
      <symbol
         overflow="visible"
         id="glyph0-4">
        <path
           style="stroke:none;"
           d="M 2.828125 -6.140625 L 2.828125 -5.859375 L 2.921875 -5.859375 C 3.28125 -5.859375 3.515625 -5.84375 3.515625 -5.3125 L 3.515625 -3.4375 C 3.21875 -3.78125 2.796875 -3.96875 2.34375 -3.96875 C 1.234375 -3.96875 0.3125 -3.03125 0.3125 -1.921875 C 0.3125 -0.90625 1.140625 0.09375 2.265625 0.09375 C 2.6875 0.09375 3.25 -0.109375 3.484375 -0.484375 L 3.484375 0.09375 L 4.84375 -0.015625 L 4.84375 -0.28125 L 4.703125 -0.28125 C 4.40625 -0.28125 4.15625 -0.3125 4.15625 -0.734375 L 4.15625 -6.234375 Z M 1.078125 -1.734375 L 1.078125 -1.859375 C 1.078125 -2.578125 1.265625 -3.734375 2.390625 -3.734375 C 2.859375 -3.734375 3.5 -3.390625 3.5 -2.828125 C 3.5 -2.71875 3.484375 -2.609375 3.484375 -2.5 L 3.484375 -1.015625 C 3.484375 -0.90625 3.4375 -0.828125 3.375 -0.734375 C 3.140625 -0.390625 2.734375 -0.140625 2.3125 -0.140625 C 1.96875 -0.140625 1.640625 -0.3125 1.421875 -0.59375 C 1.171875 -0.921875 1.125 -1.328125 1.078125 -1.734375 Z M 1.078125 -1.734375 "
           id="path14" />
      </symbol>
      <symbol
         overflow="visible"
         id="glyph0-5">
        <path
           style="stroke:none;"
           d="M 0.3125 -3.859375 L 0.3125 -3.59375 L 0.390625 -3.59375 C 0.640625 -3.59375 0.984375 -3.5625 0.984375 -3.3125 C 1 -3.203125 1 -3.125 1 -3.015625 L 1 -1.234375 C 1 -0.953125 1.015625 -0.703125 1.140625 -0.453125 C 1.40625 -0.015625 1.953125 0.09375 2.421875 0.09375 C 2.921875 0.09375 3.40625 -0.203125 3.5625 -0.671875 L 3.578125 0.09375 L 4.90625 -0.015625 L 4.90625 -0.28125 L 4.75 -0.28125 C 4.484375 -0.28125 4.21875 -0.3125 4.21875 -0.71875 L 4.21875 -3.96875 L 2.859375 -3.859375 L 2.859375 -3.59375 L 2.984375 -3.59375 C 3.265625 -3.59375 3.546875 -3.5625 3.546875 -3.140625 L 3.546875 -1.375 C 3.5 -0.796875 3.140625 -0.140625 2.453125 -0.140625 C 2.09375 -0.140625 1.765625 -0.21875 1.6875 -0.6875 C 1.671875 -0.859375 1.671875 -1.015625 1.671875 -1.1875 L 1.671875 -3.96875 Z M 0.3125 -3.859375 "
           id="path17" />
      </symbol>
      <symbol
         overflow="visible"
         id="glyph0-6">
        <path
           style="stroke:none;"
           d="M 1.359375 -5.53125 C 1.359375 -4.875 1.0625 -3.8125 0.171875 -3.8125 L 0.171875 -3.59375 L 0.953125 -3.59375 L 0.953125 -1.21875 C 0.953125 -0.9375 0.96875 -0.671875 1.109375 -0.4375 C 1.328125 -0.046875 1.78125 0.09375 2.1875 0.09375 L 2.265625 0.09375 C 2.953125 -0.03125 3.0625 -0.765625 3.0625 -1.296875 L 3.0625 -1.625 L 2.8125 -1.625 C 2.8125 -1.5 2.828125 -1.375 2.828125 -1.234375 C 2.828125 -0.84375 2.734375 -0.15625 2.203125 -0.15625 C 1.71875 -0.15625 1.609375 -0.71875 1.609375 -1.171875 L 1.609375 -3.59375 L 2.921875 -3.59375 L 2.921875 -3.859375 L 1.609375 -3.859375 L 1.609375 -5.53125 Z M 1.359375 -5.53125 "
           id="path20" />
      </symbol>
      <symbol
         overflow="visible"
         id="glyph0-7">
        <path
           style="stroke:none;"
           d="M 1.03125 -2.0625 L 3.6875 -2.0625 C 3.796875 -2.0625 3.84375 -2.109375 3.84375 -2.21875 C 3.84375 -3.34375 3.140625 -4.015625 2.203125 -4.015625 C 1.109375 -4.015625 0.25 -3.0625 0.25 -1.96875 C 0.25 -0.875 1.125 0.09375 2.34375 0.09375 C 2.984375 0.09375 3.625 -0.359375 3.8125 -0.984375 C 3.828125 -1 3.828125 -1.046875 3.828125 -1.078125 C 3.828125 -1.140625 3.78125 -1.1875 3.71875 -1.1875 C 3.546875 -1.1875 3.546875 -0.921875 3.453125 -0.796875 C 3.234375 -0.421875 2.796875 -0.15625 2.359375 -0.15625 L 2.296875 -0.15625 C 1.828125 -0.171875 1.421875 -0.5 1.21875 -0.921875 C 1.046875 -1.28125 1.03125 -1.671875 1.03125 -2.0625 Z M 1.046875 -2.28125 C 1.046875 -2.875 1.296875 -3.5625 1.953125 -3.765625 C 2.015625 -3.78125 2.09375 -3.796875 2.15625 -3.796875 C 2.9375 -3.796875 3.21875 -3 3.21875 -2.28125 Z M 1.046875 -2.28125 "
           id="path23" />
      </symbol>
      <symbol
         overflow="visible"
         id="glyph0-8">
        <path
           style="stroke:none;"
           d="M 0.265625 -3.859375 L 0.265625 -3.59375 L 0.40625 -3.59375 C 0.6875 -3.59375 0.953125 -3.5625 0.953125 -3.140625 L 0.953125 -0.65625 C 0.953125 -0.296875 0.71875 -0.28125 0.265625 -0.28125 L 0.265625 -0.015625 L 0.890625 -0.03125 L 2.453125 -0.03125 L 2.453125 -0.28125 L 2.15625 -0.28125 C 1.84375 -0.28125 1.59375 -0.328125 1.59375 -0.65625 L 1.59375 -2.171875 C 1.65625 -2.796875 1.828125 -3.734375 2.734375 -3.734375 C 2.609375 -3.671875 2.5625 -3.53125 2.5625 -3.40625 C 2.5625 -3.15625 2.75 -3 2.953125 -3 C 3.1875 -3 3.34375 -3.1875 3.34375 -3.40625 C 3.34375 -3.78125 2.984375 -3.96875 2.65625 -3.96875 C 2.109375 -3.96875 1.671875 -3.5 1.546875 -3 L 1.546875 -3.96875 Z M 0.265625 -3.859375 "
           id="path26" />
      </symbol>
      <symbol
         overflow="visible"
         id="glyph0-9">
        <path
           style="stroke:none;"
           d="M 1.09375 -3.484375 C 1.34375 -3.703125 1.703125 -3.796875 2.03125 -3.796875 C 2.34375 -3.796875 2.625 -3.625 2.8125 -3.359375 C 2.984375 -3.109375 2.984375 -2.828125 2.984375 -2.53125 L 2.984375 -2.375 C 2.25 -2.296875 1.515625 -2.296875 0.890625 -1.828125 C 0.59375 -1.609375 0.375 -1.25 0.375 -0.890625 C 0.375 -0.15625 1.25 0.09375 1.84375 0.09375 C 2.390625 0.09375 2.8125 -0.1875 3.0625 -0.65625 C 3.140625 -0.28125 3.359375 0.046875 3.765625 0.046875 C 4.3125 0.046875 4.546875 -0.40625 4.546875 -0.90625 L 4.546875 -1.3125 L 4.296875 -1.3125 L 4.296875 -0.859375 C 4.296875 -0.609375 4.25 -0.265625 3.96875 -0.265625 C 3.671875 -0.265625 3.65625 -0.65625 3.65625 -0.859375 L 3.65625 -2.609375 C 3.65625 -3.546875 2.84375 -4.015625 2.046875 -4.015625 C 1.484375 -4.015625 0.65625 -3.78125 0.65625 -3.078125 C 0.65625 -2.828125 0.796875 -2.640625 1.125 -2.640625 C 1.34375 -2.65625 1.484375 -2.859375 1.484375 -3.0625 C 1.484375 -3.3125 1.296875 -3.4375 1.09375 -3.484375 Z M 2.984375 -2.15625 L 2.984375 -1.28125 C 2.984375 -0.65625 2.546875 -0.140625 1.921875 -0.140625 L 1.859375 -0.140625 C 1.4375 -0.171875 1.109375 -0.5 1.109375 -0.890625 C 1.109375 -1.75 2.140625 -2.15625 2.984375 -2.15625 Z M 2.984375 -2.15625 "
           id="path29" />
      </symbol>
      <symbol
         overflow="visible"
         id="glyph0-10">
        <path
           style="stroke:none;"
           d="M 0.1875 -3.859375 L 0.1875 -3.59375 L 0.3125 -3.59375 C 0.640625 -3.59375 0.8125 -3.5 0.9375 -3.1875 L 1.125 -2.734375 C 1.375 -2.140625 1.625 -1.5625 1.890625 -0.953125 L 2.171875 -0.265625 C 2.203125 -0.1875 2.28125 -0.09375 2.28125 -0.015625 C 2.28125 0.109375 2.15625 0.296875 2.109375 0.40625 L 2 0.65625 C 1.828125 1.0625 1.546875 1.59375 1.046875 1.609375 C 0.890625 1.609375 0.75 1.5625 0.625 1.46875 C 0.828125 1.421875 0.9375 1.28125 0.9375 1.09375 C 0.9375 0.875 0.796875 0.703125 0.53125 0.703125 C 0.28125 0.703125 0.171875 0.921875 0.171875 1.109375 C 0.171875 1.546875 0.609375 1.828125 1.015625 1.828125 C 1.9375 1.828125 2.3125 0.59375 2.578125 -0.0625 C 2.96875 -0.984375 3.359375 -1.890625 3.765625 -2.8125 C 3.921875 -3.1875 4.109375 -3.59375 4.65625 -3.59375 L 4.65625 -3.859375 L 3.203125 -3.859375 L 3.203125 -3.59375 C 3.40625 -3.578125 3.59375 -3.453125 3.609375 -3.234375 C 3.609375 -2.984375 3.40625 -2.640625 3.296875 -2.375 C 3.078125 -1.859375 2.84375 -1.34375 2.640625 -0.828125 C 2.28125 -1.59375 1.984375 -2.375 1.640625 -3.140625 C 1.625 -3.203125 1.578125 -3.28125 1.578125 -3.34375 C 1.578125 -3.578125 1.875 -3.59375 2.0625 -3.59375 L 2.0625 -3.859375 Z M 0.1875 -3.859375 "
           id="path32" />
      </symbol>
      <symbol
         overflow="visible"
         id="glyph1-0">
        <path
           style="stroke:none;"
           d=""
           id="path35" />
      </symbol>
      <symbol
         overflow="visible"
         id="glyph1-1">
        <path
           style="stroke:none;"
           d="M 3.421875 -3.40625 C 3.25 -3.734375 2.984375 -3.96875 2.578125 -3.96875 C 1.53125 -3.96875 0.375 -2.71875 0.375 -1.359375 C 0.375 -0.375 1 0.09375 1.609375 0.09375 C 2.1875 0.09375 2.65625 -0.390625 2.8125 -0.5625 C 2.90625 -0.0625 3.359375 0.09375 3.640625 0.09375 C 3.90625 0.09375 4.125 -0.015625 4.328125 -0.390625 C 4.484375 -0.6875 4.609375 -1.25 4.609375 -1.28125 C 4.609375 -1.328125 4.578125 -1.390625 4.5 -1.390625 C 4.390625 -1.390625 4.375 -1.34375 4.34375 -1.171875 C 4.140625 -0.390625 3.953125 -0.125 3.671875 -0.125 C 3.4375 -0.125 3.390625 -0.34375 3.390625 -0.53125 C 3.390625 -0.703125 3.4375 -0.890625 3.515625 -1.203125 L 3.734375 -2.125 C 3.796875 -2.34375 3.96875 -3.015625 4 -3.15625 C 4.03125 -3.28125 4.09375 -3.5 4.09375 -3.53125 C 4.09375 -3.671875 3.96875 -3.78125 3.8125 -3.78125 C 3.6875 -3.78125 3.46875 -3.71875 3.421875 -3.40625 Z M 2.84375 -1.09375 C 2.796875 -0.921875 2.796875 -0.921875 2.65625 -0.75 C 2.328125 -0.359375 1.96875 -0.125 1.625 -0.125 C 1.1875 -0.125 1.046875 -0.578125 1.046875 -0.96875 C 1.046875 -1.40625 1.296875 -2.4375 1.515625 -2.875 C 1.796875 -3.40625 2.21875 -3.734375 2.578125 -3.734375 C 3.171875 -3.734375 3.3125 -3.015625 3.3125 -2.953125 C 3.3125 -2.921875 3.296875 -2.859375 3.28125 -2.828125 Z M 2.84375 -1.09375 "
           id="path38" />
      </symbol>
      <symbol
         overflow="visible"
         id="glyph1-2">
        <path
           style="stroke:none;"
           d="M 1.46875 -0.6875 C 1.375 -0.359375 1.359375 -0.28125 0.6875 -0.28125 C 0.515625 -0.28125 0.421875 -0.28125 0.421875 -0.109375 C 0.421875 0 0.515625 0 0.671875 0 L 3.9375 0 C 5.390625 0 6.453125 -1.0625 6.453125 -1.921875 C 6.453125 -2.5625 5.921875 -3.109375 5.046875 -3.203125 C 6.0625 -3.40625 6.9375 -4.078125 6.9375 -4.875 C 6.9375 -5.578125 6.28125 -6.125 5.21875 -6.125 L 2.15625 -6.125 C 1.984375 -6.125 1.890625 -6.125 1.890625 -5.96875 C 1.890625 -5.84375 1.96875 -5.84375 2.15625 -5.84375 C 2.1875 -5.84375 2.34375 -5.84375 2.5 -5.828125 C 2.640625 -5.8125 2.703125 -5.796875 2.703125 -5.6875 C 2.703125 -5.65625 2.703125 -5.609375 2.671875 -5.515625 Z M 2.859375 -3.296875 L 3.40625 -5.5 C 3.484375 -5.828125 3.5 -5.84375 3.890625 -5.84375 L 5.09375 -5.84375 C 6.03125 -5.84375 6.109375 -5.140625 6.109375 -4.921875 C 6.109375 -4.109375 5.28125 -3.296875 4.265625 -3.296875 Z M 2.4375 -0.28125 C 2.3125 -0.28125 2.28125 -0.28125 2.25 -0.28125 C 2.15625 -0.296875 2.140625 -0.3125 2.140625 -0.375 C 2.140625 -0.390625 2.140625 -0.40625 2.171875 -0.578125 L 2.796875 -3.078125 L 4.484375 -3.078125 C 5.046875 -3.078125 5.609375 -2.828125 5.609375 -2.015625 C 5.609375 -1.125 4.796875 -0.28125 3.71875 -0.28125 Z M 2.4375 -0.28125 "
           id="path41" />
      </symbol>
      <symbol
         overflow="visible"
         id="glyph1-3">
        <path
           style="stroke:none;"
           d="M 1.90625 -3.59375 L 2.765625 -3.59375 C 2.921875 -3.59375 3.03125 -3.59375 3.03125 -3.75 C 3.03125 -3.859375 2.9375 -3.859375 2.78125 -3.859375 L 1.984375 -3.859375 L 2.34375 -5.359375 C 2.34375 -5.5 2.234375 -5.609375 2.078125 -5.609375 C 1.78125 -5.609375 1.71875 -5.359375 1.6875 -5.265625 L 1.34375 -3.859375 L 0.5 -3.859375 C 0.328125 -3.859375 0.21875 -3.859375 0.21875 -3.703125 C 0.21875 -3.59375 0.3125 -3.59375 0.46875 -3.59375 L 1.28125 -3.59375 L 0.65625 -1.140625 C 0.59375 -0.875 0.59375 -0.859375 0.59375 -0.734375 C 0.59375 -0.203125 1 0.09375 1.46875 0.09375 C 2.390625 0.09375 2.921875 -1.1875 2.921875 -1.28125 C 2.921875 -1.328125 2.890625 -1.390625 2.8125 -1.390625 C 2.71875 -1.390625 2.703125 -1.359375 2.640625 -1.203125 C 2.375 -0.5625 1.921875 -0.125 1.484375 -0.125 C 1.296875 -0.125 1.1875 -0.234375 1.1875 -0.53125 C 1.1875 -0.734375 1.21875 -0.84375 1.25 -0.984375 Z M 1.90625 -3.59375 "
           id="path44" />
      </symbol>
      <symbol
         overflow="visible"
         id="glyph1-4">
        <path
           style="stroke:none;"
           d="M 2.8125 -3.03125 L 3.734375 -3.03125 C 4.375 -3.03125 4.5 -2.921875 4.5 -2.625 C 4.5 -2.5625 4.46875 -2.375 4.4375 -2.21875 C 4.421875 -2.171875 4.40625 -2.125 4.40625 -2.09375 C 4.40625 -2.09375 4.40625 -1.984375 4.53125 -1.984375 C 4.640625 -1.984375 4.640625 -2.046875 4.6875 -2.171875 L 5.15625 -4.0625 C 5.1875 -4.1875 5.1875 -4.203125 5.1875 -4.25 C 5.1875 -4.3125 5.140625 -4.359375 5.0625 -4.359375 C 4.96875 -4.359375 4.953125 -4.3125 4.921875 -4.140625 C 4.734375 -3.421875 4.453125 -3.3125 3.734375 -3.3125 L 2.890625 -3.3125 C 3.015625 -3.859375 3.4375 -5.5625 3.484375 -5.671875 C 3.546875 -5.796875 3.609375 -5.828125 3.90625 -5.828125 L 5.21875 -5.828125 C 6.34375 -5.828125 6.59375 -5.546875 6.59375 -4.828125 C 6.59375 -4.546875 6.546875 -4.28125 6.546875 -4.21875 C 6.546875 -4.140625 6.59375 -4.078125 6.671875 -4.078125 C 6.78125 -4.078125 6.796875 -4.140625 6.8125 -4.3125 L 7 -5.96875 C 7 -6.09375 6.90625 -6.09375 6.734375 -6.09375 L 2.109375 -6.09375 C 1.953125 -6.09375 1.84375 -6.09375 1.84375 -5.9375 C 1.84375 -5.828125 1.9375 -5.828125 2.125 -5.828125 C 2.15625 -5.828125 2.328125 -5.828125 2.46875 -5.796875 C 2.65625 -5.78125 2.671875 -5.734375 2.671875 -5.65625 C 2.671875 -5.625 2.671875 -5.609375 2.625 -5.453125 L 1.4375 -0.6875 C 1.359375 -0.359375 1.34375 -0.28125 0.65625 -0.28125 C 0.5 -0.28125 0.390625 -0.28125 0.390625 -0.109375 C 0.390625 0 0.484375 0 0.640625 0 L 5.375 0 C 5.546875 0 5.5625 0 5.59375 -0.03125 C 5.609375 -0.046875 5.625 -0.046875 5.671875 -0.171875 C 5.78125 -0.40625 6.546875 -2.109375 6.546875 -2.203125 C 6.546875 -2.265625 6.5 -2.3125 6.421875 -2.3125 C 6.34375 -2.3125 6.34375 -2.3125 6.25 -2.09375 C 5.6875 -0.84375 5.3125 -0.28125 3.828125 -0.28125 L 2.453125 -0.28125 C 2.328125 -0.28125 2.3125 -0.28125 2.28125 -0.28125 C 2.1875 -0.296875 2.15625 -0.3125 2.15625 -0.375 C 2.15625 -0.390625 2.15625 -0.40625 2.203125 -0.578125 Z M 2.8125 -3.03125 "
           id="path47" />
      </symbol>
      <symbol
         overflow="visible"
         id="glyph1-5">
        <path
           style="stroke:none;"
           d="M 3.625 -3.625 C 3.328125 -3.578125 3.171875 -3.328125 3.171875 -3.140625 C 3.171875 -2.96875 3.296875 -2.8125 3.53125 -2.8125 C 3.765625 -2.8125 4.015625 -3.015625 4.015625 -3.359375 C 4.015625 -3.703125 3.6875 -3.96875 3.25 -3.96875 C 2.578125 -3.96875 2.203125 -3.46875 2.078125 -3.296875 C 1.96875 -3.78125 1.5625 -3.96875 1.234375 -3.96875 C 0.90625 -3.96875 0.703125 -3.765625 0.546875 -3.453125 C 0.375 -3.125 0.265625 -2.625 0.265625 -2.578125 C 0.265625 -2.5 0.328125 -2.46875 0.390625 -2.46875 C 0.484375 -2.46875 0.5 -2.515625 0.546875 -2.703125 C 0.71875 -3.40625 0.90625 -3.734375 1.203125 -3.734375 C 1.484375 -3.734375 1.484375 -3.453125 1.484375 -3.3125 C 1.484375 -3.125 1.40625 -2.859375 1.359375 -2.625 C 1.296875 -2.390625 1.203125 -2 1.171875 -1.890625 L 0.8125 -0.421875 C 0.75 -0.203125 0.75 -0.1875 0.75 -0.15625 C 0.75 -0.046875 0.828125 0.09375 1.015625 0.09375 C 1.3125 0.09375 1.375 -0.140625 1.4375 -0.40625 C 1.546875 -0.796875 1.546875 -0.8125 1.625 -1.171875 C 1.96875 -2.515625 2.015625 -2.734375 2.03125 -2.78125 C 2.09375 -2.890625 2.5 -3.734375 3.25 -3.734375 C 3.453125 -3.734375 3.578125 -3.671875 3.625 -3.625 Z M 3.625 -3.625 "
           id="path50" />
      </symbol>
      <symbol
         overflow="visible"
         id="glyph1-6">
        <path
           style="stroke:none;"
           d="M 1.625 -0.140625 C 1.625 0.15625 1.625 0.890625 0.96875 1.53125 C 0.921875 1.578125 0.921875 1.59375 0.921875 1.625 C 0.921875 1.6875 0.984375 1.734375 1.03125 1.734375 C 1.125 1.734375 1.859375 1.03125 1.859375 -0.015625 C 1.859375 -0.578125 1.65625 -0.96875 1.28125 -0.96875 C 0.96875 -0.96875 0.796875 -0.734375 0.796875 -0.484375 C 0.796875 -0.234375 0.96875 0 1.28125 0 C 1.40625 0 1.546875 -0.046875 1.625 -0.140625 Z M 1.625 -0.140625 "
           id="path53" />
      </symbol>
      <symbol
         overflow="visible"
         id="glyph2-0">
        <path
           style="stroke:none;"
           d=""
           id="path56" />
      </symbol>
      <symbol
         overflow="visible"
         id="glyph2-1">
        <path
           style="stroke:none;"
           d="M 6.046875 -2.046875 C 6.21875 -2.046875 6.390625 -2.046875 6.390625 -2.25 C 6.390625 -2.4375 6.203125 -2.4375 6.046875 -2.4375 L 1.109375 -2.4375 C 0.953125 -2.4375 0.765625 -2.4375 0.765625 -2.25 C 0.765625 -2.046875 0.9375 -2.046875 1.109375 -2.046875 Z M 6.046875 -2.046875 "
           id="path59" />
      </symbol>
      <symbol
         overflow="visible"
         id="glyph2-2">
        <path
           style="stroke:none;"
           d="M 7.625 -2.046875 C 6.5625 -1.296875 6.34375 -0.109375 6.34375 -0.015625 C 6.34375 0.109375 6.46875 0.109375 6.53125 0.109375 C 6.640625 0.109375 6.703125 0.109375 6.734375 -0.015625 C 6.984375 -1.0625 7.59375 -1.765625 8.578125 -2.125 C 8.625 -2.140625 8.703125 -2.171875 8.703125 -2.25 C 8.703125 -2.328125 8.640625 -2.34375 8.578125 -2.375 C 7.453125 -2.796875 6.9375 -3.59375 6.734375 -4.46875 C 6.703125 -4.59375 6.671875 -4.59375 6.53125 -4.59375 C 6.453125 -4.59375 6.34375 -4.59375 6.34375 -4.46875 C 6.34375 -4.375 6.5625 -3.1875 7.625 -2.4375 L 0.84375 -2.4375 C 0.6875 -2.4375 0.515625 -2.4375 0.515625 -2.25 C 0.515625 -2.046875 0.6875 -2.046875 0.84375 -2.046875 Z M 7.625 -2.046875 "
           id="path62" />
      </symbol>
      <symbol
         overflow="visible"
         id="glyph3-0">
        <path
           style="stroke:none;"
           d=""
           id="path65" />
      </symbol>
      <symbol
         overflow="visible"
         id="glyph3-1">
        <path
           style="stroke:none;"
           d="M 3.0625 2.140625 C 3.0625 2.09375 3.03125 2.0625 2.984375 2 C 1.828125 0.9375 1.46875 -0.671875 1.46875 -2.25 C 1.46875 -3.625 1.734375 -5.3125 3 -6.515625 C 3.046875 -6.5625 3.0625 -6.578125 3.0625 -6.625 C 3.0625 -6.6875 3.015625 -6.734375 2.953125 -6.734375 C 2.84375 -6.734375 2.03125 -6.078125 1.546875 -5.109375 C 1.125 -4.25 0.90625 -3.3125 0.90625 -2.25 C 0.90625 -1.609375 0.984375 -0.578125 1.484375 0.46875 C 2.015625 1.578125 2.84375 2.234375 2.953125 2.234375 C 3.015625 2.234375 3.0625 2.203125 3.0625 2.140625 Z M 3.0625 2.140625 "
           id="path68" />
      </symbol>
      <symbol
         overflow="visible"
         id="glyph3-2">
        <path
           style="stroke:none;"
           d="M 2.671875 -2.25 C 2.671875 -2.984375 2.5625 -3.96875 2.09375 -4.96875 C 1.5625 -6.078125 0.734375 -6.734375 0.625 -6.734375 C 0.53125 -6.734375 0.515625 -6.65625 0.515625 -6.625 C 0.515625 -6.578125 0.53125 -6.5625 0.59375 -6.5 C 1.125 -6.03125 2.109375 -4.8125 2.109375 -2.25 C 2.109375 -0.96875 1.875 0.8125 0.578125 2.03125 C 0.5625 2.046875 0.515625 2.09375 0.515625 2.140625 C 0.515625 2.15625 0.53125 2.234375 0.625 2.234375 C 0.734375 2.234375 1.546875 1.59375 2.03125 0.609375 C 2.453125 -0.25 2.671875 -1.171875 2.671875 -2.25 Z M 2.671875 -2.25 "
           id="path71" />
      </symbol>
    </g>
    <clipPath
       id="clip1">
      <path
         d="M 61 38 L 119 38 L 119 161 L 61 161 Z M 61 38 "
         id="path76" />
    </clipPath>
    <clipPath
       id="clip2">
      <path
         d="M 61.820312 152.015625 L 61.820312 38.628906 L 118.511719 38.628906 L 118.511719 152.015625 C 118.511719 156.710938 105.820312 160.519531 90.164062 160.519531 C 74.511719 160.519531 61.820312 156.710938 61.820312 152.015625 "
         id="path79" />
    </clipPath>
    <linearGradient
       id="linear0"
       gradientUnits="userSpaceOnUse"
       x1="0"
       y1="25.002822"
       x2="0"
       y2="74.997178"
       gradientTransform="matrix(0,-2.43813,-1.134,0,146.866,221.48054)">
      <stop
         offset="0"
         style="stop-color:rgb(75.001526%,75.001526%,75.001526%);stop-opacity:1;"
         id="stop82" />
      <stop
         offset="0.0078125"
         style="stop-color:rgb(75.196838%,75.196838%,75.196838%);stop-opacity:1;"
         id="stop84" />
      <stop
         offset="0.015625"
         style="stop-color:rgb(75.587463%,75.587463%,75.587463%);stop-opacity:1;"
         id="stop86" />
      <stop
         offset="0.0234375"
         style="stop-color:rgb(75.978088%,75.978088%,75.978088%);stop-opacity:1;"
         id="stop88" />
      <stop
         offset="0.03125"
         style="stop-color:rgb(76.368713%,76.368713%,76.368713%);stop-opacity:1;"
         id="stop90" />
      <stop
         offset="0.0390625"
         style="stop-color:rgb(76.759338%,76.759338%,76.759338%);stop-opacity:1;"
         id="stop92" />
      <stop
         offset="0.046875"
         style="stop-color:rgb(77.149963%,77.149963%,77.149963%);stop-opacity:1;"
         id="stop94" />
      <stop
         offset="0.0546875"
         style="stop-color:rgb(77.540588%,77.540588%,77.540588%);stop-opacity:1;"
         id="stop96" />
      <stop
         offset="0.0625"
         style="stop-color:rgb(77.931213%,77.931213%,77.931213%);stop-opacity:1;"
         id="stop98" />
      <stop
         offset="0.0703125"
         style="stop-color:rgb(78.321838%,78.321838%,78.321838%);stop-opacity:1;"
         id="stop100" />
      <stop
         offset="0.078125"
         style="stop-color:rgb(78.712463%,78.712463%,78.712463%);stop-opacity:1;"
         id="stop102" />
      <stop
         offset="0.0859375"
         style="stop-color:rgb(79.103088%,79.103088%,79.103088%);stop-opacity:1;"
         id="stop104" />
      <stop
         offset="0.09375"
         style="stop-color:rgb(79.493713%,79.493713%,79.493713%);stop-opacity:1;"
         id="stop106" />
      <stop
         offset="0.101562"
         style="stop-color:rgb(79.884338%,79.884338%,79.884338%);stop-opacity:1;"
         id="stop108" />
      <stop
         offset="0.109375"
         style="stop-color:rgb(80.274963%,80.274963%,80.274963%);stop-opacity:1;"
         id="stop110" />
      <stop
         offset="0.117188"
         style="stop-color:rgb(80.665588%,80.665588%,80.665588%);stop-opacity:1;"
         id="stop112" />
      <stop
         offset="0.125"
         style="stop-color:rgb(81.056213%,81.056213%,81.056213%);stop-opacity:1;"
         id="stop114" />
      <stop
         offset="0.132812"
         style="stop-color:rgb(81.446838%,81.446838%,81.446838%);stop-opacity:1;"
         id="stop116" />
      <stop
         offset="0.140625"
         style="stop-color:rgb(81.837463%,81.837463%,81.837463%);stop-opacity:1;"
         id="stop118" />
      <stop
         offset="0.148438"
         style="stop-color:rgb(82.228088%,82.228088%,82.228088%);stop-opacity:1;"
         id="stop120" />
      <stop
         offset="0.15625"
         style="stop-color:rgb(82.617188%,82.617188%,82.617188%);stop-opacity:1;"
         id="stop122" />
      <stop
         offset="0.164063"
         style="stop-color:rgb(83.007812%,83.007812%,83.007812%);stop-opacity:1;"
         id="stop124" />
      <stop
         offset="0.171875"
         style="stop-color:rgb(83.398438%,83.398438%,83.398438%);stop-opacity:1;"
         id="stop126" />
      <stop
         offset="0.179688"
         style="stop-color:rgb(83.789062%,83.789062%,83.789062%);stop-opacity:1;"
         id="stop128" />
      <stop
         offset="0.1875"
         style="stop-color:rgb(84.179688%,84.179688%,84.179688%);stop-opacity:1;"
         id="stop130" />
      <stop
         offset="0.195312"
         style="stop-color:rgb(84.570312%,84.570312%,84.570312%);stop-opacity:1;"
         id="stop132" />
      <stop
         offset="0.203125"
         style="stop-color:rgb(84.960938%,84.960938%,84.960938%);stop-opacity:1;"
         id="stop134" />
      <stop
         offset="0.210938"
         style="stop-color:rgb(85.351562%,85.351562%,85.351562%);stop-opacity:1;"
         id="stop136" />
      <stop
         offset="0.21875"
         style="stop-color:rgb(85.742188%,85.742188%,85.742188%);stop-opacity:1;"
         id="stop138" />
      <stop
         offset="0.226562"
         style="stop-color:rgb(86.132812%,86.132812%,86.132812%);stop-opacity:1;"
         id="stop140" />
      <stop
         offset="0.234375"
         style="stop-color:rgb(86.523438%,86.523438%,86.523438%);stop-opacity:1;"
         id="stop142" />
      <stop
         offset="0.242188"
         style="stop-color:rgb(86.914062%,86.914062%,86.914062%);stop-opacity:1;"
         id="stop144" />
      <stop
         offset="0.25"
         style="stop-color:rgb(87.304688%,87.304688%,87.304688%);stop-opacity:1;"
         id="stop146" />
      <stop
         offset="0.257813"
         style="stop-color:rgb(87.695312%,87.695312%,87.695312%);stop-opacity:1;"
         id="stop148" />
      <stop
         offset="0.265625"
         style="stop-color:rgb(88.085938%,88.085938%,88.085938%);stop-opacity:1;"
         id="stop150" />
      <stop
         offset="0.273438"
         style="stop-color:rgb(88.476562%,88.476562%,88.476562%);stop-opacity:1;"
         id="stop152" />
      <stop
         offset="0.28125"
         style="stop-color:rgb(88.867188%,88.867188%,88.867188%);stop-opacity:1;"
         id="stop154" />
      <stop
         offset="0.289062"
         style="stop-color:rgb(89.257812%,89.257812%,89.257812%);stop-opacity:1;"
         id="stop156" />
      <stop
         offset="0.296875"
         style="stop-color:rgb(89.648438%,89.648438%,89.648438%);stop-opacity:1;"
         id="stop158" />
      <stop
         offset="0.304688"
         style="stop-color:rgb(90.039062%,90.039062%,90.039062%);stop-opacity:1;"
         id="stop160" />
      <stop
         offset="0.3125"
         style="stop-color:rgb(90.429688%,90.429688%,90.429688%);stop-opacity:1;"
         id="stop162" />
      <stop
         offset="0.320312"
         style="stop-color:rgb(90.820312%,90.820312%,90.820312%);stop-opacity:1;"
         id="stop164" />
      <stop
         offset="0.328125"
         style="stop-color:rgb(91.210938%,91.210938%,91.210938%);stop-opacity:1;"
         id="stop166" />
      <stop
         offset="0.335938"
         style="stop-color:rgb(91.601562%,91.601562%,91.601562%);stop-opacity:1;"
         id="stop168" />
      <stop
         offset="0.34375"
         style="stop-color:rgb(91.992188%,91.992188%,91.992188%);stop-opacity:1;"
         id="stop170" />
      <stop
         offset="0.351563"
         style="stop-color:rgb(92.382812%,92.382812%,92.382812%);stop-opacity:1;"
         id="stop172" />
      <stop
         offset="0.359375"
         style="stop-color:rgb(92.773438%,92.773438%,92.773438%);stop-opacity:1;"
         id="stop174" />
      <stop
         offset="0.367188"
         style="stop-color:rgb(93.164062%,93.164062%,93.164062%);stop-opacity:1;"
         id="stop176" />
      <stop
         offset="0.375"
         style="stop-color:rgb(93.554688%,93.554688%,93.554688%);stop-opacity:1;"
         id="stop178" />
      <stop
         offset="0.382812"
         style="stop-color:rgb(93.945312%,93.945312%,93.945312%);stop-opacity:1;"
         id="stop180" />
      <stop
         offset="0.390625"
         style="stop-color:rgb(94.335938%,94.335938%,94.335938%);stop-opacity:1;"
         id="stop182" />
      <stop
         offset="0.398438"
         style="stop-color:rgb(94.725037%,94.725037%,94.725037%);stop-opacity:1;"
         id="stop184" />
      <stop
         offset="0.40625"
         style="stop-color:rgb(95.115662%,95.115662%,95.115662%);stop-opacity:1;"
         id="stop186" />
      <stop
         offset="0.414062"
         style="stop-color:rgb(95.506287%,95.506287%,95.506287%);stop-opacity:1;"
         id="stop188" />
      <stop
         offset="0.421875"
         style="stop-color:rgb(95.896912%,95.896912%,95.896912%);stop-opacity:1;"
         id="stop190" />
      <stop
         offset="0.429688"
         style="stop-color:rgb(96.287537%,96.287537%,96.287537%);stop-opacity:1;"
         id="stop192" />
      <stop
         offset="0.4375"
         style="stop-color:rgb(96.678162%,96.678162%,96.678162%);stop-opacity:1;"
         id="stop194" />
      <stop
         offset="0.445312"
         style="stop-color:rgb(97.068787%,97.068787%,97.068787%);stop-opacity:1;"
         id="stop196" />
      <stop
         offset="0.453125"
         style="stop-color:rgb(97.459412%,97.459412%,97.459412%);stop-opacity:1;"
         id="stop198" />
      <stop
         offset="0.460938"
         style="stop-color:rgb(97.850037%,97.850037%,97.850037%);stop-opacity:1;"
         id="stop200" />
      <stop
         offset="0.46875"
         style="stop-color:rgb(98.240662%,98.240662%,98.240662%);stop-opacity:1;"
         id="stop202" />
      <stop
         offset="0.476562"
         style="stop-color:rgb(98.631287%,98.631287%,98.631287%);stop-opacity:1;"
         id="stop204" />
      <stop
         offset="0.484375"
         style="stop-color:rgb(99.021912%,99.021912%,99.021912%);stop-opacity:1;"
         id="stop206" />
      <stop
         offset="0.492188"
         style="stop-color:rgb(99.412537%,99.412537%,99.412537%);stop-opacity:1;"
         id="stop208" />
      <stop
         offset="0.5"
         style="stop-color:rgb(99.803162%,99.803162%,99.803162%);stop-opacity:1;"
         id="stop210" />
      <stop
         offset="0.507812"
         style="stop-color:rgb(99.803162%,99.803162%,99.803162%);stop-opacity:1;"
         id="stop212" />
      <stop
         offset="0.515625"
         style="stop-color:rgb(99.414062%,99.414062%,99.414062%);stop-opacity:1;"
         id="stop214" />
      <stop
         offset="0.523438"
         style="stop-color:rgb(99.023438%,99.023438%,99.023438%);stop-opacity:1;"
         id="stop216" />
      <stop
         offset="0.53125"
         style="stop-color:rgb(98.632812%,98.632812%,98.632812%);stop-opacity:1;"
         id="stop218" />
      <stop
         offset="0.539062"
         style="stop-color:rgb(98.242188%,98.242188%,98.242188%);stop-opacity:1;"
         id="stop220" />
      <stop
         offset="0.546875"
         style="stop-color:rgb(97.851562%,97.851562%,97.851562%);stop-opacity:1;"
         id="stop222" />
      <stop
         offset="0.554688"
         style="stop-color:rgb(97.460938%,97.460938%,97.460938%);stop-opacity:1;"
         id="stop224" />
      <stop
         offset="0.5625"
         style="stop-color:rgb(97.070312%,97.070312%,97.070312%);stop-opacity:1;"
         id="stop226" />
      <stop
         offset="0.570312"
         style="stop-color:rgb(96.679688%,96.679688%,96.679688%);stop-opacity:1;"
         id="stop228" />
      <stop
         offset="0.578125"
         style="stop-color:rgb(96.289062%,96.289062%,96.289062%);stop-opacity:1;"
         id="stop230" />
      <stop
         offset="0.585938"
         style="stop-color:rgb(95.898438%,95.898438%,95.898438%);stop-opacity:1;"
         id="stop232" />
      <stop
         offset="0.59375"
         style="stop-color:rgb(95.507812%,95.507812%,95.507812%);stop-opacity:1;"
         id="stop234" />
      <stop
         offset="0.601562"
         style="stop-color:rgb(95.117188%,95.117188%,95.117188%);stop-opacity:1;"
         id="stop236" />
      <stop
         offset="0.609375"
         style="stop-color:rgb(94.726562%,94.726562%,94.726562%);stop-opacity:1;"
         id="stop238" />
      <stop
         offset="0.617187"
         style="stop-color:rgb(94.335938%,94.335938%,94.335938%);stop-opacity:1;"
         id="stop240" />
      <stop
         offset="0.625"
         style="stop-color:rgb(93.945312%,93.945312%,93.945312%);stop-opacity:1;"
         id="stop242" />
      <stop
         offset="0.632813"
         style="stop-color:rgb(93.554688%,93.554688%,93.554688%);stop-opacity:1;"
         id="stop244" />
      <stop
         offset="0.640625"
         style="stop-color:rgb(93.164062%,93.164062%,93.164062%);stop-opacity:1;"
         id="stop246" />
      <stop
         offset="0.648438"
         style="stop-color:rgb(92.773438%,92.773438%,92.773438%);stop-opacity:1;"
         id="stop248" />
      <stop
         offset="0.65625"
         style="stop-color:rgb(92.384338%,92.384338%,92.384338%);stop-opacity:1;"
         id="stop250" />
      <stop
         offset="0.664062"
         style="stop-color:rgb(91.993713%,91.993713%,91.993713%);stop-opacity:1;"
         id="stop252" />
      <stop
         offset="0.671875"
         style="stop-color:rgb(91.603088%,91.603088%,91.603088%);stop-opacity:1;"
         id="stop254" />
      <stop
         offset="0.679688"
         style="stop-color:rgb(91.212463%,91.212463%,91.212463%);stop-opacity:1;"
         id="stop256" />
      <stop
         offset="0.6875"
         style="stop-color:rgb(90.821838%,90.821838%,90.821838%);stop-opacity:1;"
         id="stop258" />
      <stop
         offset="0.695312"
         style="stop-color:rgb(90.431213%,90.431213%,90.431213%);stop-opacity:1;"
         id="stop260" />
      <stop
         offset="0.703125"
         style="stop-color:rgb(90.040588%,90.040588%,90.040588%);stop-opacity:1;"
         id="stop262" />
      <stop
         offset="0.710938"
         style="stop-color:rgb(89.649963%,89.649963%,89.649963%);stop-opacity:1;"
         id="stop264" />
      <stop
         offset="0.71875"
         style="stop-color:rgb(89.259338%,89.259338%,89.259338%);stop-opacity:1;"
         id="stop266" />
      <stop
         offset="0.726562"
         style="stop-color:rgb(88.868713%,88.868713%,88.868713%);stop-opacity:1;"
         id="stop268" />
      <stop
         offset="0.734375"
         style="stop-color:rgb(88.478088%,88.478088%,88.478088%);stop-opacity:1;"
         id="stop270" />
      <stop
         offset="0.742188"
         style="stop-color:rgb(88.087463%,88.087463%,88.087463%);stop-opacity:1;"
         id="stop272" />
      <stop
         offset="0.75"
         style="stop-color:rgb(87.696838%,87.696838%,87.696838%);stop-opacity:1;"
         id="stop274" />
      <stop
         offset="0.757812"
         style="stop-color:rgb(87.306213%,87.306213%,87.306213%);stop-opacity:1;"
         id="stop276" />
      <stop
         offset="0.765625"
         style="stop-color:rgb(86.915588%,86.915588%,86.915588%);stop-opacity:1;"
         id="stop278" />
      <stop
         offset="0.773438"
         style="stop-color:rgb(86.524963%,86.524963%,86.524963%);stop-opacity:1;"
         id="stop280" />
      <stop
         offset="0.78125"
         style="stop-color:rgb(86.134338%,86.134338%,86.134338%);stop-opacity:1;"
         id="stop282" />
      <stop
         offset="0.789062"
         style="stop-color:rgb(85.743713%,85.743713%,85.743713%);stop-opacity:1;"
         id="stop284" />
      <stop
         offset="0.796875"
         style="stop-color:rgb(85.353088%,85.353088%,85.353088%);stop-opacity:1;"
         id="stop286" />
      <stop
         offset="0.804687"
         style="stop-color:rgb(84.962463%,84.962463%,84.962463%);stop-opacity:1;"
         id="stop288" />
      <stop
         offset="0.8125"
         style="stop-color:rgb(84.571838%,84.571838%,84.571838%);stop-opacity:1;"
         id="stop290" />
      <stop
         offset="0.820313"
         style="stop-color:rgb(84.181213%,84.181213%,84.181213%);stop-opacity:1;"
         id="stop292" />
      <stop
         offset="0.828125"
         style="stop-color:rgb(83.790588%,83.790588%,83.790588%);stop-opacity:1;"
         id="stop294" />
      <stop
         offset="0.835938"
         style="stop-color:rgb(83.399963%,83.399963%,83.399963%);stop-opacity:1;"
         id="stop296" />
      <stop
         offset="0.84375"
         style="stop-color:rgb(83.009338%,83.009338%,83.009338%);stop-opacity:1;"
         id="stop298" />
      <stop
         offset="0.851562"
         style="stop-color:rgb(82.618713%,82.618713%,82.618713%);stop-opacity:1;"
         id="stop300" />
      <stop
         offset="0.859375"
         style="stop-color:rgb(82.228088%,82.228088%,82.228088%);stop-opacity:1;"
         id="stop302" />
      <stop
         offset="0.867188"
         style="stop-color:rgb(81.837463%,81.837463%,81.837463%);stop-opacity:1;"
         id="stop304" />
      <stop
         offset="0.875"
         style="stop-color:rgb(81.446838%,81.446838%,81.446838%);stop-opacity:1;"
         id="stop306" />
      <stop
         offset="0.882812"
         style="stop-color:rgb(81.056213%,81.056213%,81.056213%);stop-opacity:1;"
         id="stop308" />
      <stop
         offset="0.890625"
         style="stop-color:rgb(80.665588%,80.665588%,80.665588%);stop-opacity:1;"
         id="stop310" />
      <stop
         offset="0.898438"
         style="stop-color:rgb(80.276489%,80.276489%,80.276489%);stop-opacity:1;"
         id="stop312" />
      <stop
         offset="0.90625"
         style="stop-color:rgb(79.885864%,79.885864%,79.885864%);stop-opacity:1;"
         id="stop314" />
      <stop
         offset="0.914062"
         style="stop-color:rgb(79.495239%,79.495239%,79.495239%);stop-opacity:1;"
         id="stop316" />
      <stop
         offset="0.921875"
         style="stop-color:rgb(79.104614%,79.104614%,79.104614%);stop-opacity:1;"
         id="stop318" />
      <stop
         offset="0.929688"
         style="stop-color:rgb(78.713989%,78.713989%,78.713989%);stop-opacity:1;"
         id="stop320" />
      <stop
         offset="0.9375"
         style="stop-color:rgb(78.323364%,78.323364%,78.323364%);stop-opacity:1;"
         id="stop322" />
      <stop
         offset="0.945312"
         style="stop-color:rgb(77.932739%,77.932739%,77.932739%);stop-opacity:1;"
         id="stop324" />
      <stop
         offset="0.953125"
         style="stop-color:rgb(77.542114%,77.542114%,77.542114%);stop-opacity:1;"
         id="stop326" />
      <stop
         offset="0.960938"
         style="stop-color:rgb(77.151489%,77.151489%,77.151489%);stop-opacity:1;"
         id="stop328" />
      <stop
         offset="0.96875"
         style="stop-color:rgb(76.760864%,76.760864%,76.760864%);stop-opacity:1;"
         id="stop330" />
      <stop
         offset="0.976562"
         style="stop-color:rgb(76.370239%,76.370239%,76.370239%);stop-opacity:1;"
         id="stop332" />
      <stop
         offset="0.984375"
         style="stop-color:rgb(75.979614%,75.979614%,75.979614%);stop-opacity:1;"
         id="stop334" />
      <stop
         offset="0.992187"
         style="stop-color:rgb(75.588989%,75.588989%,75.588989%);stop-opacity:1;"
         id="stop336" />
      <stop
         offset="1"
         style="stop-color:rgb(75.198364%,75.198364%,75.198364%);stop-opacity:1;"
         id="stop338" />
    </linearGradient>
    <marker
       style="overflow:visible"
       id="marker1968"
       refX="0"
       refY="0"
       orient="auto-start-reverse"
       inkscape:stockid="Arrow2"
       markerWidth="12.7"
       markerHeight="9.2363634"
       viewBox="0 0 7.7 5.6"
       inkscape:isstock="true"
       inkscape:collect="always"
       preserveAspectRatio="xMidYMid">
      <path
         transform="scale(0.7)"
         d="M -2,-4 9,0 -2,4 c 2,-2.33 2,-5.66 0,-8 z"
         style="fill:context-stroke;fill-rule:evenodd;stroke:none"
         id="path1966" />
    </marker>
    <g
       id="id-79352061-977e-4f72-847a-c3d9a6485b2f">
      <symbol
         overflow="visible"
         id="id-75ce1e0d-9e0a-4e8c-b73f-557ed468a308">
        <path
           style="stroke:none;stroke-width:0"
           d=""
           id="id-5a642547-875b-47f9-b2d2-b8b1a5f4760b" />
      </symbol>
      <symbol
         overflow="visible"
         id="id-e91d65cd-6df0-4f5a-8ea3-3d4691f325ca">
        <path
           style="stroke:none;stroke-width:0"
           d="m 1.328125,-0.828125 c 0.53125,-0.578125 0.828125,-0.828125 1.1875,-1.140625 0,0 0.609375,-0.53125 0.96875,-0.890625 C 4.4375,-3.78125 4.65625,-4.265625 4.65625,-4.3125 c 0,-0.09375 -0.09375,-0.09375 -0.109375,-0.09375 -0.078125,0 -0.09375,0.015625 -0.15625,0.109375 -0.296875,0.484375 -0.5,0.640625 -0.734375,0.640625 -0.25,0 -0.359375,-0.15625 -0.515625,-0.328125 -0.1875,-0.21875 -0.359375,-0.421875 -0.6875,-0.421875 -0.75,0 -1.203125,0.921875 -1.203125,1.140625 0,0.046875 0.03125,0.109375 0.109375,0.109375 0.09375,0 0.109375,-0.046875 0.140625,-0.109375 0.1875,-0.46875 0.765625,-0.46875 0.84375,-0.46875 0.203125,0 0.390625,0.0625 0.625,0.140625 0.40625,0.15625 0.515625,0.15625 0.765625,0.15625 -0.359375,0.421875 -1.1875,1.140625 -1.375,1.296875 l -0.90625,0.84375 C 0.78125,-0.625 0.421875,-0.0625 0.421875,0.015625 c 0,0.09375 0.109375,0.09375 0.125,0.09375 0.078125,0 0.09375,-0.015625 0.15625,-0.125 0.234375,-0.359375 0.53125,-0.625 0.859375,-0.625 0.21875,0 0.328125,0.09375 0.578125,0.375 0.15625,0.21875 0.34375,0.375 0.625,0.375 1,0 1.578125,-1.265625 1.578125,-1.53125 0,-0.046875 -0.046875,-0.109375 -0.125,-0.109375 -0.09375,0 -0.109375,0.0625 -0.140625,0.140625 C 3.84375,-0.75 3.203125,-0.5625 2.875,-0.5625 c -0.1875,0 -0.375,-0.0625 -0.578125,-0.125 -0.34375,-0.125 -0.5,-0.171875 -0.703125,-0.171875 -0.015625,0 -0.171875,0 -0.265625,0.03125 z m 0,0"
           id="id-17e4b81d-0621-41bb-b47d-4c1b8b6cc884" />
      </symbol>
    </g>
  </defs>
  <g
     clip-path="url(#clip1)"
     clip-rule="nonzero"
     id="g347"
     transform="matrix(1,0,0,0.68475345,0,12.177629)"
     style="stroke-width:1.20846">
    <g
       clip-path="url(#clip2)"
       clip-rule="nonzero"
       id="g345"
       style="stroke-width:1.46038">
      <path
         style="fill:url(#linear0);fill-rule:nonzero;stroke:none;stroke-width:1.20846"
         d="M 118.51172,160.51953 H 61.820312 V 38.628906 h 56.691408 z m 0,0"
         id="path343" />
    </g>
  </g>
  <path
     style="fill:none;stroke:#ffffff;stroke-width:0.3985;stroke-linecap:butt;stroke-linejoin:miter;stroke-miterlimit:10;stroke-dasharray:2.98883, 2.98883;stroke-opacity:1"
     d="m 118.51172,115.84046 c 0,-4.69531 -12.69141,-8.5039 -28.347658,-8.5039 -15.652343,0 -28.343749,3.80859 -28.343749,8.5039"
     id="path349" />
  <path
     style="fill:#8c8c8c;fill-opacity:1;fill-rule:nonzero;stroke:#ffffff;stroke-width:0.398;stroke-linecap:butt;stroke-linejoin:miter;stroke-miterlimit:10;stroke-opacity:1;stroke-dasharray:none"
     d="m 118.51172,38.628906 c 0,-4.699219 -12.69141,-8.503906 -28.347658,-8.503906 -15.652343,0 -28.343749,3.804687 -28.343749,8.503906 0,4.695313 12.691406,8.503906 28.343749,8.503906 15.656248,0 28.347658,-3.808593 28.347658,-8.503906 z m 0,0"
     id="path361" />
  <g
     id="g862"
     transform="translate(-50.737377,-12.157392)">
    <g
       id="g866"
       transform="rotate(15.913934,161.5005,351.10684)">
      <path
         style="fill:none;stroke:#000000;stroke-width:0.79701;stroke-linecap:butt;stroke-linejoin:miter;stroke-miterlimit:10;stroke-opacity:1"
         d="m 100.1875,108.28906 11.93359,-3.19531"
         id="path461" />
      <path
         style="fill:#000000;fill-opacity:1;fill-rule:nonzero;stroke:none"
         d="m 114.62109,104.42188 -4.53906,-0.92969 2.03906,1.60156 -0.96484,2.40234"
         id="path463" />
    </g>
  </g>
  <g
     style="fill:#000000;fill-opacity:1"
     id="g483"
     transform="translate(33.7296, -5.17722)">
    <g
       ns5:version="1.8.2"
       ns5:texconverter="pdflatex"
       ns5:pdfconverter="inkscape"
       ns5:text="$\\vec{E}(M)$"
       ns5:preamble="/home/eb/.config/inkscape/extensions/textext/default_packages.tex"
       ns5:scale="0.3469756447895017"
       ns5:alignment="middle center"
       ns5:stroke-to-path="0"
       transform="matrix(0.92307821,0,0,0.92307821,101.35169,88.134207)"
       ns5:jacobian_sqrt="0.346976"
       id="g1347"
       style="stroke-width:0.37589">
      <defs
         id="id-d18435f4-f36d-4781-a72b-4237fb4b709b">
        <g
           id="id-427491e4-6ae1-4900-9462-2945f6dc026b">
          <symbol
             overflow="visible"
             id="id-118cb17f-0e05-43f2-ba8d-08aaeb6f9cbf">
            <path
               style="stroke:none;stroke-width:0"
               d=""
               id="id-812802c7-0012-44d6-a003-abc361b317f7" />
          </symbol>
          <symbol
             overflow="visible"
             id="id-b1f52719-6de2-429a-bf03-34fbfae3bbab">
            <path
               style="stroke:none;stroke-width:0"
               d="m 5.359375,-5.9375 c -0.140625,0.140625 -0.46875,0.421875 -0.46875,0.59375 0,0.09375 0.09375,0.203125 0.1875,0.203125 0.09375,0 0.140625,-0.078125 0.203125,-0.140625 C 5.390625,-5.421875 5.625,-5.703125 6.0625,-5.921875 6.125,-5.96875 6.234375,-6.015625 6.234375,-6.125 6.234375,-6.234375 6.15625,-6.28125 6.09375,-6.328125 5.875,-6.484375 5.765625,-6.65625 5.6875,-6.890625 5.65625,-6.984375 5.625,-7.125 5.484375,-7.125 c -0.140625,0 -0.203125,0.140625 -0.203125,0.21875 0,0.046875 0.078125,0.359375 0.234375,0.578125 H 2.15625 c -0.15625,0 -0.34375,0 -0.34375,0.203125 0,0.1875 0.1875,0.1875 0.34375,0.1875 z m 0,0"
               id="id-bcd831b7-3e05-4405-8f55-2ca76f8fc2dd" />
          </symbol>
          <symbol
             overflow="visible"
             id="id-84c74b71-0667-49f1-836a-19e636009c38">
            <path
               style="stroke:none;stroke-width:0"
               d="M 7.0625,-2.328125 C 7.078125,-2.375 7.109375,-2.4375 7.109375,-2.46875 c 0,0 0,-0.109375 -0.125,-0.109375 -0.09375,0 -0.109375,0.0625 -0.125,0.125 C 6.203125,-0.984375 5.84375,-0.3125 4.140625,-0.3125 H 2.6875 c -0.140625,0 -0.171875,0 -0.21875,0 -0.109375,-0.015625 -0.140625,-0.03125 -0.140625,-0.109375 0,-0.03125 0,-0.046875 0.046875,-0.21875 L 3.0625,-3.375 h 0.984375 c 0.84375,0 0.84375,0.21875 0.84375,0.46875 0,0.0625 0,0.1875 -0.0625,0.484375 C 4.8125,-2.375 4.796875,-2.34375 4.796875,-2.3125 c 0,0.046875 0.03125,0.109375 0.125,0.109375 C 5,-2.203125 5.03125,-2.25 5.078125,-2.40625 l 0.5625,-2.328125 c 0,-0.0625 -0.046875,-0.109375 -0.125,-0.109375 -0.078125,0 -0.109375,0.0625 -0.125,0.171875 -0.21875,0.765625 -0.390625,1 -1.3125,1 h -0.9375 l 0.59375,-2.40625 C 3.828125,-6.4375 3.84375,-6.46875 4.28125,-6.46875 H 5.6875 c 1.203125,0 1.515625,0.28125 1.515625,1.109375 0,0.234375 0,0.25 -0.046875,0.53125 0,0.046875 -0.015625,0.125 -0.015625,0.171875 0,0.046875 0.03125,0.125 0.125,0.125 0.109375,0 0.125,-0.0625 0.140625,-0.25 L 7.609375,-6.515625 C 7.640625,-6.78125 7.59375,-6.78125 7.34375,-6.78125 H 2.296875 c -0.1875,0 -0.296875,0 -0.296875,0.203125 0,0.109375 0.09375,0.109375 0.28125,0.109375 0.375,0 0.65625,0 0.65625,0.171875 0,0.046875 0,0.0625 -0.0625,0.25 L 1.5625,-0.78125 c -0.09375,0.390625 -0.109375,0.46875 -0.90625,0.46875 -0.171875,0 -0.28125,0 -0.28125,0.1875 C 0.375,0 0.46875,0 0.65625,0 h 5.171875 c 0.234375,0 0.25,-0.015625 0.3125,-0.171875 z m 0,0"
               id="id-aa6e0447-5944-4a62-ae24-8f6c2bc5304e" />
          </symbol>
          <symbol
             overflow="visible"
             id="id-30b0d4a0-9a2d-4c38-8838-06038957e9bc">
            <path
               style="stroke:none;stroke-width:0"
               d="M 9.234375,-6.046875 C 9.328125,-6.40625 9.34375,-6.5 10.09375,-6.5 c 0.21875,0 0.3125,0 0.3125,-0.203125 0,-0.109375 -0.09375,-0.109375 -0.265625,-0.109375 h -1.3125 c -0.265625,0 -0.28125,0 -0.390625,0.1875 L 4.796875,-0.9375 4.015625,-6.578125 C 3.984375,-6.8125 3.96875,-6.8125 3.703125,-6.8125 H 2.34375 c -0.1875,0 -0.296875,0 -0.296875,0.1875 0,0.125 0.09375,0.125 0.28125,0.125 0.140625,0 0.3125,0.015625 0.4375,0.015625 0.15625,0.03125 0.21875,0.046875 0.21875,0.171875 0,0.03125 -0.015625,0.0625 -0.046875,0.1875 l -1.265625,5.0625 c -0.09375,0.40625 -0.265625,0.71875 -1.078125,0.75 -0.046875,0 -0.171875,0.015625 -0.171875,0.1875 0,0.09375 0.0625,0.125 0.140625,0.125 0.3125,0 0.65625,-0.03125 1,-0.03125 C 1.890625,-0.03125 2.25,0 2.578125,0 c 0.046875,0 0.1875,0 0.1875,-0.203125 0,-0.109375 -0.109375,-0.109375 -0.1875,-0.109375 -0.5625,0 -0.671875,-0.203125 -0.671875,-0.4375 0,-0.0625 0,-0.125 0.03125,-0.234375 L 3.296875,-6.40625 H 3.3125 l 0.859375,6.171875 C 4.1875,-0.109375 4.203125,0 4.3125,0 4.421875,0 4.484375,-0.109375 4.53125,-0.171875 l 4.03125,-6.3125 h 0.015625 l -1.4375,5.703125 c -0.09375,0.390625 -0.109375,0.46875 -0.90625,0.46875 -0.15625,0 -0.265625,0 -0.265625,0.1875 C 5.96875,0 6.078125,0 6.109375,0 6.390625,0 7.0625,-0.03125 7.34375,-0.03125 7.75,-0.03125 8.1875,0 8.59375,0 8.65625,0 8.78125,0 8.78125,-0.203125 8.78125,-0.3125 8.6875,-0.3125 8.5,-0.3125 c -0.359375,0 -0.640625,0 -0.640625,-0.171875 0,-0.046875 0,-0.0625 0.046875,-0.25 z m 0,0"
               id="id-de199b42-df0e-49c1-95d0-35b9695fa2ec" />
          </symbol>
          <symbol
             overflow="visible"
             id="id-48e247ea-27a3-458f-bbcd-11bb546d08eb">
            <path
               style="stroke:none;stroke-width:0"
               d=""
               id="id-2063c239-58df-443c-83ee-a245711a097b" />
          </symbol>
          <symbol
             overflow="visible"
             id="id-f008cd90-f9c4-4c14-9c7b-1beb97da22ee">
            <path
               style="stroke:none;stroke-width:0"
               d="m 3.296875,2.390625 c 0,-0.03125 0,-0.046875 -0.171875,-0.21875 C 1.890625,0.921875 1.5625,-0.96875 1.5625,-2.5 c 0,-1.734375 0.375,-3.46875 1.609375,-4.703125 0.125,-0.125 0.125,-0.140625 0.125,-0.171875 0,-0.078125 -0.03125,-0.109375 -0.09375,-0.109375 -0.109375,0 -1,0.6875 -1.59375,1.953125 -0.5,1.09375 -0.625,2.203125 -0.625,3.03125 0,0.78125 0.109375,1.984375 0.65625,3.125 C 2.25,1.84375 3.09375,2.5 3.203125,2.5 c 0.0625,0 0.09375,-0.03125 0.09375,-0.109375 z m 0,0"
               id="id-60328d78-8dc8-4c12-9a65-7ecef974401d" />
          </symbol>
          <symbol
             overflow="visible"
             id="id-d931415e-686a-45fa-aa4c-c54a713e6f4c">
            <path
               style="stroke:none;stroke-width:0"
               d="m 2.875,-2.5 c 0,-0.765625 -0.109375,-1.96875 -0.65625,-3.109375 -0.59375,-1.21875 -1.453125,-1.875 -1.546875,-1.875 -0.0625,0 -0.109375,0.046875 -0.109375,0.109375 0,0.03125 0,0.046875 0.1875,0.234375 0.984375,0.984375 1.546875,2.5625 1.546875,4.640625 0,1.71875 -0.359375,3.46875 -1.59375,4.71875 C 0.5625,2.34375 0.5625,2.359375 0.5625,2.390625 0.5625,2.453125 0.609375,2.5 0.671875,2.5 0.765625,2.5 1.671875,1.8125 2.25,0.546875 2.765625,-0.546875 2.875,-1.65625 2.875,-2.5 Z m 0,0"
               id="id-9083c465-c25b-4ecf-9074-10cc09740c51" />
          </symbol>
        </g>
      </defs>
      <g
         id="id-9d4592f6-8a26-4878-8d8b-6e48e2c6ad60"
         transform="translate(-149.087,-125.121)"
         style="stroke-width:0.37589">
        <g
           style="fill:#000000;fill-opacity:1;stroke-width:0.37589"
           id="id-8b092f10-59c7-40b1-ae0f-de95b78960ce">
          <g
             transform="translate(150.25,132.246)"
             id="g1327"
             style="stroke-width:0.37589">
            <path
               style="stroke:none;stroke-width:0"
               d="m 5.359375,-5.9375 c -0.140625,0.140625 -0.46875,0.421875 -0.46875,0.59375 0,0.09375 0.09375,0.203125 0.1875,0.203125 0.09375,0 0.140625,-0.078125 0.203125,-0.140625 C 5.390625,-5.421875 5.625,-5.703125 6.0625,-5.921875 6.125,-5.96875 6.234375,-6.015625 6.234375,-6.125 6.234375,-6.234375 6.15625,-6.28125 6.09375,-6.328125 5.875,-6.484375 5.765625,-6.65625 5.6875,-6.890625 5.65625,-6.984375 5.625,-7.125 5.484375,-7.125 c -0.140625,0 -0.203125,0.140625 -0.203125,0.21875 0,0.046875 0.078125,0.359375 0.234375,0.578125 H 2.15625 c -0.15625,0 -0.34375,0 -0.34375,0.203125 0,0.1875 0.1875,0.1875 0.34375,0.1875 z m 0,0"
               id="id-1cf64966-da0c-4dac-b3f8-599efc4bf456" />
          </g>
        </g>
        <g
           style="fill:#000000;fill-opacity:1;stroke-width:0.37589"
           id="id-06c70c6f-0a20-4f17-9233-cdb996f009d0">
          <g
             transform="translate(148.712,134.765)"
             id="g1331"
             style="stroke-width:0.37589">
            <path
               style="stroke:none;stroke-width:0"
               d="M 7.0625,-2.328125 C 7.078125,-2.375 7.109375,-2.4375 7.109375,-2.46875 c 0,0 0,-0.109375 -0.125,-0.109375 -0.09375,0 -0.109375,0.0625 -0.125,0.125 C 6.203125,-0.984375 5.84375,-0.3125 4.140625,-0.3125 H 2.6875 c -0.140625,0 -0.171875,0 -0.21875,0 -0.109375,-0.015625 -0.140625,-0.03125 -0.140625,-0.109375 0,-0.03125 0,-0.046875 0.046875,-0.21875 L 3.0625,-3.375 h 0.984375 c 0.84375,0 0.84375,0.21875 0.84375,0.46875 0,0.0625 0,0.1875 -0.0625,0.484375 C 4.8125,-2.375 4.796875,-2.34375 4.796875,-2.3125 c 0,0.046875 0.03125,0.109375 0.125,0.109375 C 5,-2.203125 5.03125,-2.25 5.078125,-2.40625 l 0.5625,-2.328125 c 0,-0.0625 -0.046875,-0.109375 -0.125,-0.109375 -0.078125,0 -0.109375,0.0625 -0.125,0.171875 -0.21875,0.765625 -0.390625,1 -1.3125,1 h -0.9375 l 0.59375,-2.40625 C 3.828125,-6.4375 3.84375,-6.46875 4.28125,-6.46875 H 5.6875 c 1.203125,0 1.515625,0.28125 1.515625,1.109375 0,0.234375 0,0.25 -0.046875,0.53125 0,0.046875 -0.015625,0.125 -0.015625,0.171875 0,0.046875 0.03125,0.125 0.125,0.125 0.109375,0 0.125,-0.0625 0.140625,-0.25 L 7.609375,-6.515625 C 7.640625,-6.78125 7.59375,-6.78125 7.34375,-6.78125 H 2.296875 c -0.1875,0 -0.296875,0 -0.296875,0.203125 0,0.109375 0.09375,0.109375 0.28125,0.109375 0.375,0 0.65625,0 0.65625,0.171875 0,0.046875 0,0.0625 -0.0625,0.25 L 1.5625,-0.78125 c -0.09375,0.390625 -0.109375,0.46875 -0.90625,0.46875 -0.171875,0 -0.28125,0 -0.28125,0.1875 C 0.375,0 0.46875,0 0.65625,0 h 5.171875 c 0.234375,0 0.25,-0.015625 0.3125,-0.171875 z m 0,0"
               id="id-4ee2477d-d0e4-4064-b427-19b01b415e1b" />
          </g>
        </g>
        <g
           style="fill:#000000;fill-opacity:1;stroke-width:0.37589"
           id="id-70ba6783-c06d-4f1a-8840-b1c100911da3">
          <g
             transform="translate(156.641,134.765)"
             id="g1335"
             style="stroke-width:0.37589">
            <path
               style="stroke:none;stroke-width:0"
               d="m 3.296875,2.390625 c 0,-0.03125 0,-0.046875 -0.171875,-0.21875 C 1.890625,0.921875 1.5625,-0.96875 1.5625,-2.5 c 0,-1.734375 0.375,-3.46875 1.609375,-4.703125 0.125,-0.125 0.125,-0.140625 0.125,-0.171875 0,-0.078125 -0.03125,-0.109375 -0.09375,-0.109375 -0.109375,0 -1,0.6875 -1.59375,1.953125 -0.5,1.09375 -0.625,2.203125 -0.625,3.03125 0,0.78125 0.109375,1.984375 0.65625,3.125 C 2.25,1.84375 3.09375,2.5 3.203125,2.5 c 0.0625,0 0.09375,-0.03125 0.09375,-0.109375 z m 0,0"
               id="id-2682b7c9-f712-4639-9fde-2a673204a622" />
          </g>
        </g>
        <g
           style="fill:#000000;fill-opacity:1;stroke-width:0.37589"
           id="id-f799bceb-ee41-4f34-9d4e-c3f1931dead2">
          <g
             transform="translate(160.515,134.765)"
             id="g1339"
             style="stroke-width:0.37589">
            <path
               style="stroke:none;stroke-width:0"
               d="M 9.234375,-6.046875 C 9.328125,-6.40625 9.34375,-6.5 10.09375,-6.5 c 0.21875,0 0.3125,0 0.3125,-0.203125 0,-0.109375 -0.09375,-0.109375 -0.265625,-0.109375 h -1.3125 c -0.265625,0 -0.28125,0 -0.390625,0.1875 L 4.796875,-0.9375 4.015625,-6.578125 C 3.984375,-6.8125 3.96875,-6.8125 3.703125,-6.8125 H 2.34375 c -0.1875,0 -0.296875,0 -0.296875,0.1875 0,0.125 0.09375,0.125 0.28125,0.125 0.140625,0 0.3125,0.015625 0.4375,0.015625 0.15625,0.03125 0.21875,0.046875 0.21875,0.171875 0,0.03125 -0.015625,0.0625 -0.046875,0.1875 l -1.265625,5.0625 c -0.09375,0.40625 -0.265625,0.71875 -1.078125,0.75 -0.046875,0 -0.171875,0.015625 -0.171875,0.1875 0,0.09375 0.0625,0.125 0.140625,0.125 0.3125,0 0.65625,-0.03125 1,-0.03125 C 1.890625,-0.03125 2.25,0 2.578125,0 c 0.046875,0 0.1875,0 0.1875,-0.203125 0,-0.109375 -0.109375,-0.109375 -0.1875,-0.109375 -0.5625,0 -0.671875,-0.203125 -0.671875,-0.4375 0,-0.0625 0,-0.125 0.03125,-0.234375 L 3.296875,-6.40625 H 3.3125 l 0.859375,6.171875 C 4.1875,-0.109375 4.203125,0 4.3125,0 4.421875,0 4.484375,-0.109375 4.53125,-0.171875 l 4.03125,-6.3125 h 0.015625 l -1.4375,5.703125 c -0.09375,0.390625 -0.109375,0.46875 -0.90625,0.46875 -0.15625,0 -0.265625,0 -0.265625,0.1875 C 5.96875,0 6.078125,0 6.109375,0 6.390625,0 7.0625,-0.03125 7.34375,-0.03125 7.75,-0.03125 8.1875,0 8.59375,0 8.65625,0 8.78125,0 8.78125,-0.203125 8.78125,-0.3125 8.6875,-0.3125 8.5,-0.3125 c -0.359375,0 -0.640625,0 -0.640625,-0.171875 0,-0.046875 0,-0.0625 0.046875,-0.25 z m 0,0"
               id="id-91d02347-d5c2-4ab9-b940-6079a00b4653" />
          </g>
        </g>
        <g
           style="fill:#000000;fill-opacity:1;stroke-width:0.37589"
           id="id-ce2e5df6-0e56-47b9-ae5d-0b1d1281720b">
          <g
             transform="translate(171.267,134.765)"
             id="g1343"
             style="stroke-width:0.37589">
            <path
               style="stroke:none;stroke-width:0"
               d="m 2.875,-2.5 c 0,-0.765625 -0.109375,-1.96875 -0.65625,-3.109375 -0.59375,-1.21875 -1.453125,-1.875 -1.546875,-1.875 -0.0625,0 -0.109375,0.046875 -0.109375,0.109375 0,0.03125 0,0.046875 0.1875,0.234375 0.984375,0.984375 1.546875,2.5625 1.546875,4.640625 0,1.71875 -0.359375,3.46875 -1.59375,4.71875 C 0.5625,2.34375 0.5625,2.359375 0.5625,2.390625 0.5625,2.453125 0.609375,2.5 0.671875,2.5 0.765625,2.5 1.671875,1.8125 2.25,0.546875 2.765625,-0.546875 2.875,-1.65625 2.875,-2.5 Z m 0,0"
               id="id-f1b1b801-11b5-40b1-9446-28b3e74e85f9" />
          </g>
        </g>
      </g>
    </g>
  </g>
  <path
     style="fill:none;stroke:#e30000;stroke-width:0.35;stroke-linecap:butt;stroke-linejoin:miter;stroke-opacity:1;stroke-dasharray:none"
     d="m 89.589218,91.33242 -27.657174,7.9647 -0.04727,0.04477 v 0 0"
     id="path1439" />
  <g
     ns5:version="1.8.2"
     ns5:texconverter="pdflatex"
     ns5:pdfconverter="inkscape"
     ns5:text="\\color{red}$R$"
     ns5:preamble="/home/eb/.config/inkscape/extensions/textext/default_packages.tex"
     ns5:scale="0.3469756447895017"
     ns5:alignment="middle center"
     ns5:stroke-to-path="0"
     transform="matrix(0.84265108,0,0,0.84265108,71.975392,87.785564)"
     ns5:jacobian_sqrt="0.346976"
     id="g2465"
     style="stroke-width:0.411767">
    <defs
       id="id-e1ad3f2f-a71c-44a8-93a5-e208753682aa">
      <g
         id="id-662a3bbb-3869-4bf1-9083-d345b8d676ac">
        <symbol
           overflow="visible"
           id="id-c8d60203-6cb1-4812-a931-ed677abd1577">
          <path
             style="stroke:none;stroke-width:0"
             d=""
             id="id-064fb15f-da7e-41ea-afa7-b9c07e435853" />
        </symbol>
        <symbol
           overflow="visible"
           id="id-3938b466-eed2-4c0a-8fc4-ef25c2031ecb">
          <path
             style="stroke:none;stroke-width:0"
             d="m 3.734375,-6.125 c 0.0625,-0.234375 0.09375,-0.328125 0.28125,-0.359375 C 4.109375,-6.5 4.421875,-6.5 4.625,-6.5 c 0.703125,0 1.8125,0 1.8125,0.984375 0,0.34375 -0.15625,1.03125 -0.546875,1.421875 -0.265625,0.25 -0.78125,0.578125 -1.6875,0.578125 H 3.09375 Z m 1.4375,2.734375 c 1.015625,-0.21875 2.1875,-0.921875 2.1875,-1.921875 0,-0.859375 -0.890625,-1.5 -2.203125,-1.5 H 2.328125 c -0.203125,0 -0.296875,0 -0.296875,0.203125 C 2.03125,-6.5 2.125,-6.5 2.3125,-6.5 c 0.015625,0 0.203125,0 0.375,0.015625 0.1875,0.03125 0.265625,0.03125 0.265625,0.171875 0,0.03125 0,0.0625 -0.03125,0.1875 l -1.34375,5.34375 C 1.484375,-0.390625 1.46875,-0.3125 0.671875,-0.3125 0.5,-0.3125 0.40625,-0.3125 0.40625,-0.109375 0.40625,0 0.53125,0 0.546875,0 c 0.28125,0 0.984375,-0.03125 1.25,-0.03125 0.28125,0 1,0.03125 1.28125,0.03125 0.078125,0 0.1875,0 0.1875,-0.203125 0,-0.109375 -0.078125,-0.109375 -0.28125,-0.109375 -0.359375,0 -0.640625,0 -0.640625,-0.171875 0,-0.0625 0.015625,-0.109375 0.03125,-0.171875 l 0.65625,-2.640625 h 1.1875 c 0.90625,0 1.078125,0.5625 1.078125,0.90625 0,0.140625 -0.078125,0.453125 -0.140625,0.6875 C 5.09375,-1.421875 5,-1.0625 5,-0.859375 5,0.21875 6.203125,0.21875 6.328125,0.21875 c 0.84375,0 1.203125,-1 1.203125,-1.140625 0,-0.125 -0.109375,-0.125 -0.125,-0.125 -0.09375,0 -0.109375,0.0625 -0.125,0.140625 C 7.03125,-0.171875 6.59375,0 6.375,0 6.046875,0 5.96875,-0.21875 5.96875,-0.609375 c 0,-0.3125 0.0625,-0.8125 0.109375,-1.140625 0.015625,-0.140625 0.03125,-0.328125 0.03125,-0.46875 0,-0.765625 -0.671875,-1.078125 -0.9375,-1.171875 z m 0,0"
             id="id-f90a6371-d127-4f5d-adb6-f0f2e810a2f4" />
        </symbol>
      </g>
    </defs>
    <g
       id="id-45d13d21-0a6b-475a-b682-fa9d35510fe6"
       transform="translate(-149.118,-127.953)"
       style="stroke-width:0.411767">
      <g
         style="fill:#ff0000;fill-opacity:1;stroke-width:0.411767"
         id="id-468954ee-7bca-40f2-bab1-abd069c9747a">
        <g
           transform="translate(148.712,134.765)"
           id="g2461"
           style="stroke-width:0.411767">
          <path
             style="stroke:none;stroke-width:0"
             d="m 3.734375,-6.125 c 0.0625,-0.234375 0.09375,-0.328125 0.28125,-0.359375 C 4.109375,-6.5 4.421875,-6.5 4.625,-6.5 c 0.703125,0 1.8125,0 1.8125,0.984375 0,0.34375 -0.15625,1.03125 -0.546875,1.421875 -0.265625,0.25 -0.78125,0.578125 -1.6875,0.578125 H 3.09375 Z m 1.4375,2.734375 c 1.015625,-0.21875 2.1875,-0.921875 2.1875,-1.921875 0,-0.859375 -0.890625,-1.5 -2.203125,-1.5 H 2.328125 c -0.203125,0 -0.296875,0 -0.296875,0.203125 C 2.03125,-6.5 2.125,-6.5 2.3125,-6.5 c 0.015625,0 0.203125,0 0.375,0.015625 0.1875,0.03125 0.265625,0.03125 0.265625,0.171875 0,0.03125 0,0.0625 -0.03125,0.1875 l -1.34375,5.34375 C 1.484375,-0.390625 1.46875,-0.3125 0.671875,-0.3125 0.5,-0.3125 0.40625,-0.3125 0.40625,-0.109375 0.40625,0 0.53125,0 0.546875,0 c 0.28125,0 0.984375,-0.03125 1.25,-0.03125 0.28125,0 1,0.03125 1.28125,0.03125 0.078125,0 0.1875,0 0.1875,-0.203125 0,-0.109375 -0.078125,-0.109375 -0.28125,-0.109375 -0.359375,0 -0.640625,0 -0.640625,-0.171875 0,-0.0625 0.015625,-0.109375 0.03125,-0.171875 l 0.65625,-2.640625 h 1.1875 c 0.90625,0 1.078125,0.5625 1.078125,0.90625 0,0.140625 -0.078125,0.453125 -0.140625,0.6875 C 5.09375,-1.421875 5,-1.0625 5,-0.859375 5,0.21875 6.203125,0.21875 6.328125,0.21875 c 0.84375,0 1.203125,-1 1.203125,-1.140625 0,-0.125 -0.109375,-0.125 -0.125,-0.125 -0.09375,0 -0.109375,0.0625 -0.125,0.140625 C 7.03125,-0.171875 6.59375,0 6.375,0 6.046875,0 5.96875,-0.21875 5.96875,-0.609375 c 0,-0.3125 0.0625,-0.8125 0.109375,-1.140625 0.015625,-0.140625 0.03125,-0.328125 0.03125,-0.46875 0,-0.765625 -0.671875,-1.078125 -0.9375,-1.171875 z m 0,0"
             id="id-70d800c0-ac43-4d13-8090-498975898b0c" />
        </g>
      </g>
    </g>
  </g>
  <path
     style="fill:none;stroke:#000000;stroke-width:0.25;stroke-linecap:butt;stroke-linejoin:miter;stroke-dasharray:none;stroke-opacity:1;marker-start:url(#Arrow2);marker-end:url(#marker2700)"
     d="M 58.989471,41.277646 C 59.0953,113.15314 59.0953,113.15314 59.0953,113.15314"
     id="path2479" />
  <g
     ns5:version="1.8.2"
     ns5:texconverter="pdflatex"
     ns5:pdfconverter="inkscape"
     ns5:text="$h$"
     ns5:preamble="/home/eb/.config/inkscape/extensions/textext/default_packages.tex"
     ns5:scale="0.3469756447895017"
     ns5:alignment="middle center"
     ns5:stroke-to-path="0"
     transform="matrix(0.81217145,0,0,0.81217145,52.766816,76.253947)"
     ns5:jacobian_sqrt="0.346976"
     id="g3632"
     style="stroke-width:0.42722">
    <defs
       id="id-3f7eb544-9b6c-45a1-a867-36f23a42e7a3">
      <g
         id="id-bff20626-9725-44f5-a77e-aed386c1987f">
        <symbol
           overflow="visible"
           id="id-0754e138-0635-4d6d-9de0-0f6c95e03a56">
          <path
             style="stroke:none;stroke-width:0"
             d=""
             id="id-b0ff5b24-1d43-4d39-a113-60dcbb66745d" />
        </symbol>
        <symbol
           overflow="visible"
           id="id-6d2363bf-32b1-4a3f-98e1-b599a7d2e80d">
          <path
             style="stroke:none;stroke-width:0"
             d="m 2.859375,-6.8125 c 0,0 0,-0.109375 -0.125,-0.109375 -0.234375,0 -0.953125,0.078125 -1.21875,0.109375 -0.078125,0 -0.1875,0.015625 -0.1875,0.1875 0,0.125 0.09375,0.125 0.234375,0.125 0.484375,0 0.5,0.0625 0.5,0.171875 L 2.03125,-6.125 0.59375,-0.390625 c -0.046875,0.140625 -0.046875,0.15625 -0.046875,0.21875 0,0.234375 0.203125,0.28125 0.296875,0.28125 0.15625,0 0.3125,-0.125 0.359375,-0.265625 l 0.1875,-0.75 0.21875,-0.890625 C 1.671875,-2.03125 1.734375,-2.25 1.78125,-2.46875 1.796875,-2.53125 1.890625,-2.859375 1.890625,-2.921875 1.921875,-3.015625 2.234375,-3.5625 2.578125,-3.84375 2.796875,-4 3.09375,-4.1875 3.53125,-4.1875 c 0.421875,0 0.53125,0.34375 0.53125,0.703125 0,0.53125 -0.375,1.625 -0.609375,2.234375 C 3.375,-1.03125 3.3125,-0.90625 3.3125,-0.703125 c 0,0.46875 0.359375,0.8125 0.828125,0.8125 0.9375,0 1.296875,-1.453125 1.296875,-1.53125 0,-0.109375 -0.078125,-0.109375 -0.109375,-0.109375 -0.109375,0 -0.109375,0.03125 -0.15625,0.1875 -0.140625,0.53125 -0.46875,1.234375 -1.015625,1.234375 -0.171875,0 -0.234375,-0.09375 -0.234375,-0.328125 0,-0.25 0.078125,-0.484375 0.171875,-0.703125 0.15625,-0.4375 0.609375,-1.625 0.609375,-2.203125 0,-0.640625 -0.390625,-1.0625 -1.140625,-1.0625 -0.625,0 -1.109375,0.3125 -1.484375,0.765625 z m 0,0"
             id="id-c80e81fb-a6ad-405e-9a1e-2fd1a4800a63" />
        </symbol>
      </g>
    </defs>
    <g
       id="id-e9a3b9da-b477-4e65-b789-bbe1d35a8536"
       transform="translate(-149.259,-127.843)"
       style="stroke-width:0.42722">
      <g
         style="fill:#000000;fill-opacity:1;stroke-width:0.42722"
         id="id-dd7f0e60-2b0f-467a-8dc2-36267b1d162b">
        <g
           transform="translate(148.712,134.765)"
           id="g3628"
           style="stroke-width:0.42722">
          <path
             style="stroke:none;stroke-width:0"
             d="m 2.859375,-6.8125 c 0,0 0,-0.109375 -0.125,-0.109375 -0.234375,0 -0.953125,0.078125 -1.21875,0.109375 -0.078125,0 -0.1875,0.015625 -0.1875,0.1875 0,0.125 0.09375,0.125 0.234375,0.125 0.484375,0 0.5,0.0625 0.5,0.171875 L 2.03125,-6.125 0.59375,-0.390625 c -0.046875,0.140625 -0.046875,0.15625 -0.046875,0.21875 0,0.234375 0.203125,0.28125 0.296875,0.28125 0.15625,0 0.3125,-0.125 0.359375,-0.265625 l 0.1875,-0.75 0.21875,-0.890625 C 1.671875,-2.03125 1.734375,-2.25 1.78125,-2.46875 1.796875,-2.53125 1.890625,-2.859375 1.890625,-2.921875 1.921875,-3.015625 2.234375,-3.5625 2.578125,-3.84375 2.796875,-4 3.09375,-4.1875 3.53125,-4.1875 c 0.421875,0 0.53125,0.34375 0.53125,0.703125 0,0.53125 -0.375,1.625 -0.609375,2.234375 C 3.375,-1.03125 3.3125,-0.90625 3.3125,-0.703125 c 0,0.46875 0.359375,0.8125 0.828125,0.8125 0.9375,0 1.296875,-1.453125 1.296875,-1.53125 0,-0.109375 -0.078125,-0.109375 -0.109375,-0.109375 -0.109375,0 -0.109375,0.03125 -0.15625,0.1875 -0.140625,0.53125 -0.46875,1.234375 -1.015625,1.234375 -0.171875,0 -0.234375,-0.09375 -0.234375,-0.328125 0,-0.25 0.078125,-0.484375 0.171875,-0.703125 0.15625,-0.4375 0.609375,-1.625 0.609375,-2.203125 0,-0.640625 -0.390625,-1.0625 -1.140625,-1.0625 -0.625,0 -1.109375,0.3125 -1.484375,0.765625 z m 0,0"
             id="id-59997dfa-9c74-49c7-9dae-fa69e917608e" />
        </g>
      </g>
    </g>
  </g>
  <g
     id="g1222"
     transform="translate(-0.02862898,2.3991034)">
    <path
       style="fill:none;stroke:#000000;stroke-width:0.25;stroke-linecap:butt;stroke-linejoin:miter;stroke-dasharray:1, 2;stroke-dashoffset:0;stroke-opacity:1;marker-start:url(#marker1968)"
       d="m 90.060376,18.197567 -0.13044,109.734603 v 0.0707"
       id="path981" />
    <g
       ns5:version="1.8.2"
       ns5:texconverter="pdflatex"
       ns5:pdfconverter="inkscape"
       ns5:text="$z$"
       ns5:preamble="/home/eb/.config/inkscape/extensions/textext/default_packages.tex"
       ns5:scale="0.3469756447895017"
       ns5:alignment="middle center"
       ns5:stroke-to-path="0"
       ns5:inkscapeversion="1.2.2"
       transform="matrix(0.98225702,0,0,0.98225702,88.163694,10.753098)"
       ns5:jacobian_sqrt="0.346976"
       id="g2750"
       style="stroke-width:0.353244">
      <defs
         id="id-38e02de4-d731-4b10-b1d2-2264589de495">
        <g
           id="g2852">
          <symbol
             overflow="visible"
             id="symbol2846">
            <path
               style="stroke:none;stroke-width:0"
               d=""
               id="path2844" />
          </symbol>
          <symbol
             overflow="visible"
             id="symbol2850">
            <path
               style="stroke:none;stroke-width:0"
               d="m 1.328125,-0.828125 c 0.53125,-0.578125 0.828125,-0.828125 1.1875,-1.140625 0,0 0.609375,-0.53125 0.96875,-0.890625 C 4.4375,-3.78125 4.65625,-4.265625 4.65625,-4.3125 c 0,-0.09375 -0.09375,-0.09375 -0.109375,-0.09375 -0.078125,0 -0.09375,0.015625 -0.15625,0.109375 -0.296875,0.484375 -0.5,0.640625 -0.734375,0.640625 -0.25,0 -0.359375,-0.15625 -0.515625,-0.328125 -0.1875,-0.21875 -0.359375,-0.421875 -0.6875,-0.421875 -0.75,0 -1.203125,0.921875 -1.203125,1.140625 0,0.046875 0.03125,0.109375 0.109375,0.109375 0.09375,0 0.109375,-0.046875 0.140625,-0.109375 0.1875,-0.46875 0.765625,-0.46875 0.84375,-0.46875 0.203125,0 0.390625,0.0625 0.625,0.140625 0.40625,0.15625 0.515625,0.15625 0.765625,0.15625 -0.359375,0.421875 -1.1875,1.140625 -1.375,1.296875 l -0.90625,0.84375 C 0.78125,-0.625 0.421875,-0.0625 0.421875,0.015625 c 0,0.09375 0.109375,0.09375 0.125,0.09375 0.078125,0 0.09375,-0.015625 0.15625,-0.125 0.234375,-0.359375 0.53125,-0.625 0.859375,-0.625 0.21875,0 0.328125,0.09375 0.578125,0.375 0.15625,0.21875 0.34375,0.375 0.625,0.375 1,0 1.578125,-1.265625 1.578125,-1.53125 0,-0.046875 -0.046875,-0.109375 -0.125,-0.109375 -0.09375,0 -0.109375,0.0625 -0.140625,0.140625 C 3.84375,-0.75 3.203125,-0.5625 2.875,-0.5625 c -0.1875,0 -0.375,-0.0625 -0.578125,-0.125 -0.34375,-0.125 -0.5,-0.171875 -0.703125,-0.171875 -0.015625,0 -0.171875,0 -0.265625,0.03125 z m 0,0"
               id="path2848" />
          </symbol>
        </g>
      </defs>
      <g
         id="id-fff01986-4c76-4ada-ab61-339e27958505"
         transform="translate(-149.134,-130.359)"
         style="stroke-width:0.353244">
        <g
           style="fill:#000000;fill-opacity:1;stroke-width:0.353244"
           id="id-78f188c2-ddb7-4231-b4a3-d4388c17a07c">
          <g
             transform="translate(148.712,134.765)"
             id="g2746"
             style="stroke-width:0.353244">
            <path
               style="stroke:none;stroke-width:0"
               d="m 1.328125,-0.828125 c 0.53125,-0.578125 0.828125,-0.828125 1.1875,-1.140625 0,0 0.609375,-0.53125 0.96875,-0.890625 C 4.4375,-3.78125 4.65625,-4.265625 4.65625,-4.3125 c 0,-0.09375 -0.09375,-0.09375 -0.109375,-0.09375 -0.078125,0 -0.09375,0.015625 -0.15625,0.109375 -0.296875,0.484375 -0.5,0.640625 -0.734375,0.640625 -0.25,0 -0.359375,-0.15625 -0.515625,-0.328125 -0.1875,-0.21875 -0.359375,-0.421875 -0.6875,-0.421875 -0.75,0 -1.203125,0.921875 -1.203125,1.140625 0,0.046875 0.03125,0.109375 0.109375,0.109375 0.09375,0 0.109375,-0.046875 0.140625,-0.109375 0.1875,-0.46875 0.765625,-0.46875 0.84375,-0.46875 0.203125,0 0.390625,0.0625 0.625,0.140625 0.40625,0.15625 0.515625,0.15625 0.765625,0.15625 -0.359375,0.421875 -1.1875,1.140625 -1.375,1.296875 l -0.90625,0.84375 C 0.78125,-0.625 0.421875,-0.0625 0.421875,0.015625 c 0,0.09375 0.109375,0.09375 0.125,0.09375 0.078125,0 0.09375,-0.015625 0.15625,-0.125 0.234375,-0.359375 0.53125,-0.625 0.859375,-0.625 0.21875,0 0.328125,0.09375 0.578125,0.375 0.15625,0.21875 0.34375,0.375 0.625,0.375 1,0 1.578125,-1.265625 1.578125,-1.53125 0,-0.046875 -0.046875,-0.109375 -0.125,-0.109375 -0.09375,0 -0.109375,0.0625 -0.140625,0.140625 C 3.84375,-0.75 3.203125,-0.5625 2.875,-0.5625 c -0.1875,0 -0.375,-0.0625 -0.578125,-0.125 -0.34375,-0.125 -0.5,-0.171875 -0.703125,-0.171875 -0.015625,0 -0.171875,0 -0.265625,0.03125 z m 0,0"
               id="id-a9162bad-1607-4453-9ac5-fae48a2a392d" />
          </g>
        </g>
      </g>
    </g>
  </g>
</svg>
