<?xml version="1.0" encoding="UTF-8" standalone="no"?>
<!-- Created with Inkscape (http://www.inkscape.org/) -->

<svg
   width="210mm"
   height="297mm"
   viewBox="0 0 210 297"
   version="1.1"
   id="svg8"
   inkscape:version="1.3.2 (1:1.3.2+202311252150+091e20ef0f)"
   sodipodi:docname="spire2.svg"
   xmlns:inkscape="http://www.inkscape.org/namespaces/inkscape"
   xmlns:sodipodi="http://sodipodi.sourceforge.net/DTD/sodipodi-0.dtd"
   xmlns="http://www.w3.org/2000/svg"
   xmlns:svg="http://www.w3.org/2000/svg"
   xmlns:rdf="http://www.w3.org/1999/02/22-rdf-syntax-ns#"
   xmlns:cc="http://creativecommons.org/ns#"
   xmlns:dc="http://purl.org/dc/elements/1.1/">
  <sodipodi:namedview
     id="base"
     pagecolor="#ffffff"
     bordercolor="#666666"
     borderopacity="1.0"
     inkscape:pageopacity="0.0"
     inkscape:pageshadow="2"
     inkscape:zoom="1.4"
     inkscape:cx="102.5"
     inkscape:cy="594.64286"
     inkscape:document-units="mm"
     inkscape:current-layer="layer1"
     showgrid="false"
     inkscape:window-width="3440"
     inkscape:window-height="1364"
     inkscape:window-x="0"
     inkscape:window-y="0"
     inkscape:window-maximized="1"
     inkscape:showpageshadow="0"
     inkscape:pagecheckerboard="0"
     inkscape:deskcolor="#d1d1d1" />
  <defs
     id="defs2">
    <marker
       inkscape:stockid="Arrow2Lend"
       orient="auto"
       refY="0.0"
       refX="0.0"
       id="marker3361"
       style="overflow:visible;"
       inkscape:isstock="true">
      <path
         id="path3359"
         style="fill-rule:evenodd;stroke-width:0.625;stroke-linejoin:round;stroke:#008000;stroke-opacity:1;fill:#008000;fill-opacity:1"
         d="M 8.7185878,4.0337352 L -2.2072895,0.016013256 L 8.7185884,-4.0017078 C 6.9730900,-1.6296469 6.9831476,1.6157441 8.7185878,4.0337352 z "
         transform="scale(1.1) rotate(180) translate(1,0)" />
    </marker>
    <marker
       inkscape:isstock="true"
       style="overflow:visible"
       id="marker3315"
       refX="0.0"
       refY="0.0"
       orient="auto"
       inkscape:stockid="Arrow2Lstart">
      <path
         transform="scale(1.1) translate(1,0)"
         d="M 8.7185878,4.0337352 L -2.2072895,0.016013256 L 8.7185884,-4.0017078 C 6.9730900,-1.6296469 6.9831476,1.6157441 8.7185878,4.0337352 z "
         style="fill-rule:evenodd;stroke-width:0.625;stroke-linejoin:round;stroke:#000000;stroke-opacity:1;fill:#000000;fill-opacity:1"
         id="path3313" />
    </marker>
    <marker
       inkscape:stockid="Arrow2Lstart"
       orient="auto"
       refY="0.0"
       refX="0.0"
       id="Arrow2Lstart"
       style="overflow:visible"
       inkscape:isstock="true"
       inkscape:collect="always">
      <path
         id="path837"
         style="fill-rule:evenodd;stroke-width:0.625;stroke-linejoin:round;stroke:#000000;stroke-opacity:1;fill:#000000;fill-opacity:1"
         d="M 8.7185878,4.0337352 L -2.2072895,0.016013256 L 8.7185884,-4.0017078 C 6.9730900,-1.6296469 6.9831476,1.6157441 8.7185878,4.0337352 z "
         transform="scale(1.1) translate(1,0)" />
    </marker>
    <marker
       inkscape:isstock="true"
       style="overflow:visible;"
       id="marker2305"
       refX="0.0"
       refY="0.0"
       orient="auto"
       inkscape:stockid="Arrow2Lend"
       inkscape:collect="always">
      <path
         transform="scale(1.1) rotate(180) translate(1,0)"
         d="M 8.7185878,4.0337352 L -2.2072895,0.016013256 L 8.7185884,-4.0017078 C 6.9730900,-1.6296469 6.9831476,1.6157441 8.7185878,4.0337352 z "
         style="fill-rule:evenodd;stroke-width:0.625;stroke-linejoin:round;stroke:#000000;stroke-opacity:1;fill:#000000;fill-opacity:1"
         id="path2303" />
    </marker>
    <marker
       inkscape:stockid="Arrow2Lend"
       orient="auto"
       refY="0.0"
       refX="0.0"
       id="marker1417"
       style="overflow:visible;"
       inkscape:isstock="true">
      <path
         id="path1415"
         style="fill-rule:evenodd;stroke-width:0.625;stroke-linejoin:round;stroke:#ff0000;stroke-opacity:1;fill:#ff0000;fill-opacity:1"
         d="M 8.7185878,4.0337352 L -2.2072895,0.016013256 L 8.7185884,-4.0017078 C 6.9730900,-1.6296469 6.9831476,1.6157441 8.7185878,4.0337352 z "
         transform="scale(1.1) rotate(180) translate(1,0)" />
    </marker>
    <marker
       inkscape:isstock="true"
       style="overflow:visible;"
       id="marker1117"
       refX="0.0"
       refY="0.0"
       orient="auto"
       inkscape:stockid="Arrow2Lend"
       inkscape:collect="always">
      <path
         transform="scale(1.1) rotate(180) translate(1,0)"
         d="M 8.7185878,4.0337352 L -2.2072895,0.016013256 L 8.7185884,-4.0017078 C 6.9730900,-1.6296469 6.9831476,1.6157441 8.7185878,4.0337352 z "
         style="fill-rule:evenodd;stroke-width:0.625;stroke-linejoin:round;stroke:#ff0000;stroke-opacity:1;fill:#ff0000;fill-opacity:1"
         id="path1115" />
    </marker>
    <marker
       inkscape:stockid="Arrow2Lend"
       orient="auto"
       refY="0.0"
       refX="0.0"
       id="Arrow2Lend"
       style="overflow:visible;"
       inkscape:isstock="true"
       inkscape:collect="always">
      <path
         id="path840"
         style="fill-rule:evenodd;stroke-width:0.625;stroke-linejoin:round;stroke:#000000;stroke-opacity:1;fill:#000000;fill-opacity:1"
         d="M 8.7185878,4.0337352 L -2.2072895,0.016013256 L 8.7185884,-4.0017078 C 6.9730900,-1.6296469 6.9831476,1.6157441 8.7185878,4.0337352 z "
         transform="scale(1.1) rotate(180) translate(1,0)" />
    </marker>
  </defs>
  <metadata
     id="metadata5">
    <rdf:RDF>
      <cc:Work
         rdf:about="">
        <dc:format>image/svg+xml</dc:format>
        <dc:type
           rdf:resource="http://purl.org/dc/dcmitype/StillImage" />
        <dc:title />
      </cc:Work>
    </rdf:RDF>
  </metadata>
  <g
     inkscape:label="Calque 1"
     inkscape:groupmode="layer"
     id="layer1">
    <path
       style="fill:none;stroke:#000000;stroke-width:0.500001;stroke-linecap:butt;stroke-linejoin:miter;stroke-miterlimit:4;stroke-dasharray:1, 0.500001;stroke-dashoffset:0;stroke-opacity:1"
       d="M -7.7692288,144.07038 H 33.635506"
       id="path817-5"
       inkscape:connector-curvature="0"
       inkscape:export-filename="spire2.pdf"
       inkscape:export-xdpi="96"
       inkscape:export-ydpi="96" />
    <ellipse
       style="fill:none;fill-opacity:1;fill-rule:evenodd;stroke:#ffffff;stroke-width:1;stroke-miterlimit:4;stroke-dasharray:none;stroke-opacity:1;paint-order:stroke fill markers"
       id="path815-2"
       cx="34.809731"
       cy="143.11839"
       rx="14.165285"
       ry="37.417732" />
    <ellipse
       style="fill:none;fill-rule:evenodd;stroke-width:0.4;stroke:#ff0000;stroke-miterlimit:4;stroke-dasharray:none;paint-order:stroke fill markers;fill-opacity:1"
       id="path815"
       cx="35.01231"
       cy="143.05275"
       rx="14.165285"
       ry="37.417732" />
    <path
       style="fill:none;stroke:#ff0000;stroke-width:0.5;stroke-linecap:butt;stroke-linejoin:miter;stroke-miterlimit:4;stroke-dasharray:none;stroke-opacity:1;marker-end:url(#marker1117)"
       d="m 21.985764,158.57928 0.732174,3.12253"
       id="path1107"
       inkscape:connector-curvature="0" />
    <path
       inkscape:connector-curvature="0"
       id="path1413"
       d="m 47.958819,126.99482 -0.73217,-3.12253"
       style="fill:none;stroke:#ff0000;stroke-width:0.5;stroke-linecap:butt;stroke-linejoin:miter;stroke-miterlimit:4;stroke-dasharray:none;stroke-opacity:1;marker-end:url(#marker1417)" />
    <g
       id="g2034"
       transform="matrix(0.69568224,0,0,0.69568224,-34.132884,61.670633)"
       style="stroke-width:1.43744">
      <g
         word-spacing="normal"
         letter-spacing="normal"
         font-size-adjust="none"
         font-stretch="normal"
         font-weight="normal"
         font-variant="normal"
         font-style="normal"
         stroke-miterlimit="10.433"
         xml:space="preserve"
         transform="matrix(0.3,0,0,-0.3,-52.5,222.75)"
         id="g2032"
         style="font-style:normal;font-variant:normal;font-weight:normal;font-stretch:normal;letter-spacing:normal;word-spacing:normal;text-anchor:start;fill:none;fill-opacity:1;fill-rule:evenodd;stroke:#000000;stroke-width:1.85716;stroke-linecap:butt;stroke-linejoin:miter;stroke-miterlimit:10.433;stroke-dasharray:none;stroke-dashoffset:0;stroke-opacity:1"><path
           id="path2030"
           d="m 481.38,423.14 0.47,0.11 0.48,0.12 0.48,0.14 0.48,0.15 0.49,0.16 0.48,0.18 0.48,0.19 0.47,0.2 0.47,0.22 0.47,0.23 0.46,0.24 0.45,0.25 0.43,0.27 0.43,0.28 0.42,0.29 0.4,0.3 0.39,0.31 0.37,0.32 0.36,0.34 0.33,0.35 0.32,0.35 0.29,0.37 0.28,0.38 0.25,0.39 0.22,0.4 0.2,0.41 0.17,0.42 0.15,0.43 0.11,0.44 0.08,0.45 0.05,0.46 0.02,0.47 c 0,4.28 -4.48,7.47 -11,7.47 h -14.2 c -1,0 -1.45,0 -1.45,-1 0,-0.55 0.45,-0.55 1.4,-0.55 0.1,0 1.05,0 1.89,-0.09 0.89,-0.11 1.35,-0.16 1.35,-0.8 0,-0.2 -0.05,-0.36 -0.21,-0.95 l -6.67,-26.75 c -0.5,-1.95 -0.59,-2.34 -4.53,-2.34 -0.91,0 -1.34,0 -1.34,-1 0,-0.55 0.59,-0.55 0.68,-0.55 1.41,0 4.89,0.16 6.29,0.16 1.39,0 4.93,-0.16 6.32,-0.16 0.41,0 1,0 1,1 0,0.55 -0.45,0.55 -1.39,0.55 -1.84,0 -3.25,0 -3.25,0.89 0,0.29 0.11,0.54 0.16,0.84 l 3.28,13.2 h 5.94 l -0.05,1.11 h -5.59 l 3.25,13 c 0.29,1.19 0.43,1.69 1.39,1.85 0.45,0.04 2.04,0.04 3.03,0.04 3.55,0 9.08,0 9.08,-4.93 0,-1.69 -0.8,-5.13 -2.75,-7.07 -1.28,-1.29 -3.92,-2.89 -8.41,-2.89 l 0.05,-1.11 c 4.53,0 5.42,-2.78 5.42,-4.53 0,-0.75 -0.39,-2.28 -0.69,-3.44 -0.36,-1.39 -0.79,-3.23 -0.79,-4.23 0,-5.37 5.96,-5.37 6.62,-5.37 4.23,0 5.97,5.03 5.97,5.73 0,0.59 -0.55,0.59 -0.59,0.59 -0.46,0 -0.55,-0.36 -0.65,-0.7 -1.25,-3.69 -3.39,-4.53 -4.54,-4.53 -1.64,0 -1.99,1.09 -1.99,3.05 0,1.53 0.3,4.07 0.5,5.67 0.1,0.7 0.21,1.64 0.21,2.34 0,3.83 -3.35,5.38 -4.69,5.88 z"
           inkscape:connector-curvature="0"
           style="fill:#000000;stroke-width:0" /></g>
    </g>
    <g
       id="g2066"
       transform="matrix(0.7469416,0,0,0.7469416,92.227646,71.037915)"
       style="stroke-width:1.33879">
      <g
         word-spacing="normal"
         letter-spacing="normal"
         font-size-adjust="none"
         font-stretch="normal"
         font-weight="normal"
         font-variant="normal"
         font-style="normal"
         stroke-miterlimit="10.433"
         xml:space="preserve"
         transform="matrix(0.3,0,0,-0.3,-52.5,222.75)"
         id="g2064"
         style="font-style:normal;font-variant:normal;font-weight:normal;font-stretch:normal;letter-spacing:normal;word-spacing:normal;text-anchor:start;fill:none;fill-opacity:1;fill-rule:evenodd;stroke:#000000;stroke-width:1.33879;stroke-linecap:butt;stroke-linejoin:miter;stroke-miterlimit:10.433;stroke-dasharray:none;stroke-dashoffset:0;stroke-opacity:1"><path
           id="path2062"
           d="m 472.16,421.25 0.03,0.13 0.04,0.15 0.04,0.16 0.04,0.18 0.06,0.19 0.06,0.21 0.06,0.22 0.07,0.22 0.08,0.23 0.09,0.24 0.1,0.25 0.1,0.24 0.11,0.25 0.12,0.25 0.13,0.25 0.14,0.25 0.15,0.24 0.15,0.24 0.17,0.23 0.18,0.22 0.18,0.22 0.2,0.2 0.21,0.19 0.22,0.18 0.23,0.16 0.25,0.14 0.12,0.07 0.13,0.06 0.14,0.05 0.13,0.05 0.14,0.05 0.14,0.04 0.15,0.03 0.15,0.03 0.15,0.02 0.16,0.02 0.16,0.01 h 0.16 c 0.25,0 1.44,0 2.48,-0.64 -1.39,-0.25 -2.39,-1.5 -2.39,-2.69 0,-0.79 0.55,-1.75 1.89,-1.75 1.1,0 2.69,0.89 2.69,2.89 0,2.6 -2.94,3.28 -4.63,3.28 -2.89,0 -4.64,-2.64 -5.23,-3.78 -1.25,3.28 -3.94,3.78 -5.37,3.78 -5.19,0 -8.04,-6.42 -8.04,-7.67 0,-0.5 0.5,-0.5 0.61,-0.5 0.39,0 0.55,0.11 0.64,0.55 1.69,5.28 4.99,6.53 6.68,6.53 0.95,0 2.68,-0.44 2.68,-3.33 0,-1.54 -0.84,-4.89 -2.68,-11.86 -0.8,-3.09 -2.54,-5.18 -4.74,-5.18 -0.3,0 -1.44,0 -2.48,0.65 1.25,0.24 2.34,1.28 2.34,2.69 0,1.34 -1.09,1.73 -1.84,1.73 -1.5,0 -2.75,-1.29 -2.75,-2.89 0,-2.28 2.5,-3.28 4.68,-3.28 3.3,0 5.08,3.49 5.24,3.78 0.59,-1.84 2.39,-3.78 5.37,-3.78 5.14,0 7.99,6.42 7.99,7.67 0,0.5 -0.45,0.5 -0.61,0.5 -0.44,0 -0.55,-0.2 -0.64,-0.54 -1.64,-5.33 -5.03,-6.53 -6.63,-6.53 -1.95,0 -2.75,1.59 -2.75,3.29 0,1.1 0.3,2.19 0.86,4.38 z"
           inkscape:connector-curvature="0"
           style="fill:#000000;stroke-width:0" /></g>
    </g>
    <g
       id="g2147"
       transform="matrix(0.75152947,0,0,0.75152947,-51.1275,86.031349)"
       style="fill:#ff0000;stroke-width:1.33062">
      <g
         word-spacing="normal"
         letter-spacing="normal"
         font-size-adjust="none"
         font-stretch="normal"
         font-weight="normal"
         font-variant="normal"
         font-style="normal"
         stroke-miterlimit="10.433"
         xml:space="preserve"
         transform="matrix(0.3,0,0,-0.3,-52.5,222.75)"
         id="g2145"
         style="font-style:normal;font-variant:normal;font-weight:normal;font-stretch:normal;letter-spacing:normal;word-spacing:normal;text-anchor:start;fill:#ff0000;fill-opacity:1;fill-rule:evenodd;stroke:#000000;stroke-width:1.77055;stroke-linecap:butt;stroke-linejoin:miter;stroke-miterlimit:10.433;stroke-dasharray:none;stroke-dashoffset:0;stroke-opacity:1"><path
           id="path2143"
           d="m 474.16,436.39 0.04,0.16 0.04,0.16 0.04,0.15 0.04,0.14 0.04,0.14 0.04,0.13 0.05,0.12 0.05,0.11 0.05,0.11 0.06,0.11 0.07,0.09 0.07,0.09 0.08,0.09 0.08,0.08 0.1,0.07 0.1,0.07 0.12,0.06 0.12,0.06 0.14,0.05 0.15,0.05 0.17,0.04 0.08,0.02 0.09,0.02 0.1,0.02 0.1,0.02 0.1,0.01 0.1,0.02 0.11,0.01 0.12,0.01 0.12,0.02 0.12,0.01 0.13,0.01 h 0.13 l 0.13,0.01 0.14,0.01 0.15,0.01 h 0.15 0.16 l 0.16,0.01 h 0.16 0.17 0.18 0.18 c 1.19,0 1.6,0 1.6,0.96 0,0.59 -0.55,0.59 -0.75,0.59 -1.46,0 -5.15,-0.16 -6.58,-0.16 -1.5,0 -5.13,0.16 -6.63,0.16 -0.34,0 -1,0 -1,-1 0,-0.55 0.46,-0.55 1.39,-0.55 2.1,0 3.44,0 3.44,-0.95 0,-0.25 0,-0.34 -0.09,-0.8 l -6.72,-26.84 c -0.46,-1.84 -0.61,-2.34 -4.55,-2.34 -1.14,0 -1.59,0 -1.59,-1 0,-0.55 0.61,-0.55 0.75,-0.55 1.45,0 5.08,0.16 6.53,0.16 1.5,0 5.19,-0.16 6.67,-0.16 0.41,0 1,0 1,0.95 0,0.6 -0.41,0.6 -1.5,0.6 -0.89,0 -1.14,0 -2.14,0.09 -1.05,0.11 -1.23,0.3 -1.23,0.84 0,0.41 0.09,0.8 0.18,1.16 z"
           inkscape:connector-curvature="0"
           style="fill:#ff0000;stroke-width:0" /></g>
    </g>
    <path
       inkscape:connector-curvature="0"
       id="path2301"
       d="M 35.51344,141.57017 V 106.96914"
       style="fill:none;stroke:#000000;stroke-width:0.5;stroke-linecap:butt;stroke-linejoin:miter;stroke-miterlimit:4;stroke-dasharray:none;stroke-opacity:1;marker-start:url(#Arrow2Lstart);marker-end:url(#marker2305)" />
    <path
       style="fill:none;stroke:#008000;stroke-width:0.49999997;stroke-linecap:butt;stroke-linejoin:miter;stroke-miterlimit:4;stroke-dasharray:none;stroke-opacity:1;marker-end:url(#marker3361)"
       d="m 122.88446,144.18836 9.48036,24.27985"
       id="path3311"
       inkscape:connector-curvature="0" />
    <g
       inkscape:label=""
       transform="matrix(1.8263733,0,0,1.8263733,118.50523,133.62989)"
       id="g1"
       style="stroke-width:0.547534">
      <g
         id="surface1"
         transform="matrix(0.352778,0,0,0.352778,-1.02279,-0.701454)"
         style="stroke-width:0.547534">
        <g
           style="fill:#000000;fill-opacity:1;stroke-width:0.547534"
           id="g3">
          <g
             id="use2"
             transform="translate(1.993,13.754)"
             style="stroke-width:0.547534">
            <path
               style="stroke:none;stroke-width:0.547534"
               d="M 3.59375,-11.484375 C 3.5,-11.75 3.484375,-11.765625 3.109375,-11.765625 H 0.90625 v 0.453125 c 1.1875,0 1.390625,0 1.390625,0.78125 v 8.84375 c 0,0.4375 0,1.234375 -1.390625,1.234375 V 0 c 0.40625,-0.03125 1.125,-0.03125 1.5625,-0.03125 0.421875,0 1.140625,0 1.546875,0.03125 v -0.453125 c -1.375,0 -1.375,-0.796875 -1.375,-1.234375 V -11.25 H 2.65625 L 6.703125,-0.28125 C 6.765625,-0.109375 6.796875,0 6.9375,0 c 0.140625,0 0.171875,-0.109375 0.25,-0.28125 l 4.078125,-11.046875 h 0.01563 V -1.21875 c 0,0.765625 -0.1875,0.765625 -1.375,0.765625 V 0 c 0.453125,-0.03125 1.390625,-0.03125 1.890625,-0.03125 0.5,0 1.4375,0 1.90625,0.03125 v -0.453125 c -1.1875,0 -1.375,0 -1.375,-0.765625 v -9.3125 c 0,-0.78125 0.1875,-0.78125 1.375,-0.78125 v -0.453125 h -2.1875 c -0.359375,0 -0.375,0.01563 -0.484375,0.28125 L 7.3125,-1.390625 Z m 0,0"
               id="path3" />
          </g>
        </g>
      </g>
    </g>
    <g
       inkscape:label=""
       transform="matrix(2.0637452,0,0,2.0637452,31.323377,146.30147)"
       id="g6"
       style="stroke-width:0.484556">
      <g
         id="g5"
         transform="matrix(0.352778,0,0,0.352778,-0.984206,-0.607748)"
         style="stroke-width:0.484556">
        <g
           style="fill:#000000;fill-opacity:1;stroke-width:0.484556"
           id="g4">
          <g
             id="g2"
             transform="translate(1.993,13.754)"
             style="stroke-width:0.484556">
            <path
               style="stroke:none;stroke-width:0.484556"
               d="m 11.59375,-5.859375 c 0,-3.53125 -2.53125,-6.171875 -5.390625,-6.171875 -2.9375,0 -5.40625,2.6875 -5.40625,6.171875 0,3.5 2.515625,6.140625 5.390625,6.140625 2.9375,0 5.40625,-2.6875 5.40625,-6.140625 z M 6.203125,-0.03125 C 4.234375,-0.03125 2.09375,-2 2.09375,-6.078125 c 0,-4.0625 2.34375,-5.640625 4.09375,-5.640625 1.8125,0 4.09375,1.625 4.09375,5.640625 0,4.15625 -2.1875,6.046875 -4.078125,6.046875 z m 0,0"
               id="path1" />
          </g>
        </g>
      </g>
    </g>
    <g
       inkscape:label=""
       transform="matrix(1.7883968,0,0,1.7883968,132.56198,171.19596)"
       id="g10"
       style="stroke-width:0.55916;fill:#008000;fill-opacity:1">
      <g
         id="g9"
         transform="matrix(0.352778,0,0,0.352778,-0.871886,-0.699117)"
         style="stroke-width:0.55916;fill:#008000;fill-opacity:1">
        <g
           style="fill:#008000;fill-opacity:1;stroke-width:0.55916"
           id="g7">
          <g
             id="use3"
             transform="translate(1.994,14.263)"
             style="stroke-width:0.55916;fill:#008000;fill-opacity:1">
            <path
               style="stroke:none;stroke-width:0.55916;fill:#008000;fill-opacity:1"
               d="M 9.21875,-10.28125 C 9,-10.09375 8.375,-9.484375 8.375,-9.25 c 0,0.171875 0.140625,0.328125 0.328125,0.328125 0.140625,0 0.21875,-0.09375 0.34375,-0.265625 0.40625,-0.53125 0.875,-0.84375 1.265625,-1.078125 0.171875,-0.09375 0.296875,-0.15625 0.296875,-0.34375 0,-0.15625 -0.140625,-0.234375 -0.25,-0.328125 -0.46875,-0.328125 -0.59375,-0.78125 -0.640625,-1 -0.0625,-0.140625 -0.109375,-0.34375 -0.359375,-0.34375 -0.09375,0 -0.296875,0.07813 -0.296875,0.328125 0,0.15625 0.09375,0.578125 0.421875,1.03125 h -5.78125 c -0.296875,0 -0.59375,0 -0.59375,0.328125 0,0.3125 0.3125,0.3125 0.59375,0.3125 z m 0,0"
               id="path5" />
          </g>
        </g>
        <g
           style="fill:#008000;fill-opacity:1;stroke-width:0.55916"
           id="g8">
          <g
             id="use4"
             transform="translate(1.987114,14.263)"
             style="stroke-width:0.55916;fill:#008000;fill-opacity:1">
            <path
               style="stroke:none;stroke-width:0.55916;fill:#008000;fill-opacity:1"
               d="m 2.484375,-0.375 c 0.421875,0.390625 1.0625,0.546875 1.640625,0.546875 1.109375,0 1.859375,-0.734375 2.265625,-1.28125 0.171875,0.921875 0.890625,1.28125 1.5,1.28125 0.515625,0 0.921875,-0.3125 1.234375,-0.921875 0.28125,-0.59375 0.515625,-1.640625 0.515625,-1.71875 0,-0.078125 -0.0625,-0.15625 -0.171875,-0.15625 -0.15625,0 -0.171875,0.09375 -0.234375,0.359375 -0.265625,1.015625 -0.59375,2.09375 -1.296875,2.09375 -0.5,0 -0.53125,-0.453125 -0.53125,-0.796875 0,-0.390625 0.15625,-1.015625 0.265625,-1.53125 L 8.15625,-4.359375 C 8.234375,-4.6875 8.421875,-5.453125 8.5,-5.765625 c 0.109375,-0.421875 0.296875,-1.15625 0.296875,-1.21875 0,-0.265625 -0.203125,-0.4375 -0.46875,-0.4375 -0.15625,0 -0.515625,0.0625 -0.65625,0.59375 l -1.203125,4.78125 c -0.078125,0.34375 -0.078125,0.375 -0.296875,0.65625 -0.21875,0.28125 -0.890625,1.21875 -1.96875,1.21875 -0.96875,0 -1.28125,-0.703125 -1.28125,-1.515625 0,-0.5 0.15625,-1.109375 0.234375,-1.390625 L 3.921875,-6.1875 c 0.09375,-0.328125 0.234375,-0.875 0.234375,-0.96875 0,-0.28125 -0.234375,-0.4375 -0.453125,-0.4375 -0.15625,0 -0.53125,0.046875 -0.671875,0.609375 l -2.5,9.96875 c -0.015625,0.078125 -0.046875,0.1875 -0.046875,0.28125 0,0.265625 0.203125,0.4375 0.46875,0.4375 0.5,0 0.59375,-0.390625 0.71875,-0.875 z m 0,0"
               id="path6" />
          </g>
        </g>
      </g>
    </g>
    <circle
       style="fill:#000000;fill-opacity:1;fill-rule:evenodd;stroke:#ffffff;stroke-width:1.1;stroke-linecap:round;stroke-linejoin:bevel;stroke-dasharray:0.794996, 0.794996;paint-order:stroke fill markers"
       id="path10"
       cx="123.13545"
       cy="144.14922"
       r="1.2620815" />
    <path
       style="fill:none;stroke:#000000;stroke-width:0.5;stroke-linecap:butt;stroke-linejoin:miter;stroke-opacity:1;marker-end:url(#Arrow2Lend);stroke-miterlimit:4;stroke-dasharray:none"
       d="M 35.279578,144.12183 H 151.00728"
       id="path817"
       inkscape:connector-curvature="0" />
    <circle
       style="fill:#000000;fill-opacity:1;fill-rule:evenodd;stroke:#ffffff;stroke-width:1.1;stroke-linecap:round;stroke-linejoin:bevel;stroke-dasharray:0.794996, 0.794996;paint-order:stroke fill markers"
       id="path10-6"
       cx="35.378605"
       cy="143.84152"
       r="1.2620815" />
  </g>
</svg>
