<?xml version="1.0" encoding="UTF-8" standalone="no"?>
<svg
   viewBox="0 0 455079.53 222410.81"
   version="1.1"
   id="svg1"
   sodipodi:docname="usb-brands-solid_dark.svg"
   inkscape:version="1.3.2 (1:1.3.2+202311252150+091e20ef0f)"
   width="455079.53"
   height="222410.81"
   xmlns:inkscape="http://www.inkscape.org/namespaces/inkscape"
   xmlns:sodipodi="http://sodipodi.sourceforge.net/DTD/sodipodi-0.dtd"
   xmlns="http://www.w3.org/2000/svg"
   xmlns:svg="http://www.w3.org/2000/svg">
  <defs
     id="defs1" />
  <sodipodi:namedview
     id="namedview1"
     pagecolor="#505050"
     bordercolor="#eeeeee"
     borderopacity="1"
     inkscape:showpageshadow="0"
     inkscape:pageopacity="0"
     inkscape:pagecheckerboard="0"
     inkscape:deskcolor="#d1d1d1"
     inkscape:zoom="1.6089441"
     inkscape:cx="172.47336"
     inkscape:cy="276.26814"
     inkscape:window-width="3440"
     inkscape:window-height="1364"
     inkscape:window-x="0"
     inkscape:window-y="0"
     inkscape:window-maximized="1"
     inkscape:current-layer="svg1" />
  <!--!Font Awesome Free 6.6.0 by @fontawesome - https://fontawesome.com License - https://fontawesome.com/license/free Copyright 2024 Fonticons, Inc.-->
  <path
     fill="#cfcfcf"
     d="m -167.01472,-20017.275 c 0,3.436 -1.88434,6.761 -4.98796,8.313 l -98.76166,59.301 c -1.55181,0.887 -3.10362,1.552 -4.98796,1.552 -1.55181,0 -3.43616,-0.332 -4.98797,-1.219 -3.10362,-1.885 -4.98796,-4.988 -4.98796,-8.646 v -39.46 h -264.5837 c 28.04344,43.894 44.89167,118.492 77.14716,118.492 h 29.59524 v -29.707 c 0,-5.542 4.3229,-9.865 9.86508,-9.865 h 98.76166 c 5.54218,0 9.86508,4.323 9.86508,9.865 v 98.762 c 0,5.542 -4.3229,9.865 -9.86508,9.865 h -98.76166 c -5.54218,0 -9.86508,-4.323 -9.86508,-9.865 v -29.595 h -29.59524 c -83.57608,0 -89.89417,-157.952 -138.22198,-157.952 H -722.5629 c -8.97833,33.918 -39.79285,59.301 -76.48209,59.301 -43.56154,-0.111 -79.03149,-35.581 -79.03149,-79.142 0,-43.562 35.46995,-79.032 79.03149,-79.032 36.68924,0 67.61461,25.273 76.48209,59.302 43.33986,0 48.66035,10.53 82.68934,-66.95 44.44829,-98.762 64.40014,-91.003 120.70869,-91.003 8.31327,-23.166 29.92777,-39.46 55.86518,-39.46 32.69886,0 59.30133,26.492 59.30133,59.301 0,32.81 -26.49162,59.302 -59.30133,59.302 -25.93741,0 -47.55191,-16.405 -55.86518,-39.461 h -33.0314 c -32.25549,0 -49.10372,74.709 -77.14715,118.492 h 343.72604 v -39.46 c 0,-3.658 1.88434,-6.762 4.98796,-8.646 3.10362,-1.884 7.09399,-1.552 9.86508,0.333 l 98.76166,59.301 c 3.10362,1.219 4.98796,4.545 4.98796,7.981 z"
     id="path1"
     style="stroke-width:1"
     inkscape:export-filename="path1.svg"
     inkscape:export-xdpi="96"
     inkscape:export-ydpi="96" />
</svg>
