<?xml version="1.0" encoding="UTF-8" standalone="no"?>
<svg
   height="12"
   width="7.5"
   viewBox="0 0 320 512"
   version="1.1"
   id="svg1"
   sodipodi:docname="question-solid_dark.svg"
   inkscape:version="1.3.2 (1:1.3.2+202311252150+091e20ef0f)"
   xmlns:inkscape="http://www.inkscape.org/namespaces/inkscape"
   xmlns:sodipodi="http://sodipodi.sourceforge.net/DTD/sodipodi-0.dtd"
   xmlns="http://www.w3.org/2000/svg"
   xmlns:svg="http://www.w3.org/2000/svg">
  <defs
     id="defs1" />
  <sodipodi:namedview
     id="namedview1"
     pagecolor="#505050"
     bordercolor="#eeeeee"
     borderopacity="1"
     inkscape:showpageshadow="0"
     inkscape:pageopacity="0"
     inkscape:pagecheckerboard="0"
     inkscape:deskcolor="#d1d1d1"
     inkscape:zoom="97.083333"
     inkscape:cx="3.7545065"
     inkscape:cy="6"
     inkscape:window-width="3440"
     inkscape:window-height="1364"
     inkscape:window-x="0"
     inkscape:window-y="0"
     inkscape:window-maximized="1"
     inkscape:current-layer="svg1" />
  <!--!Font Awesome Free 6.7.1 by @fontawesome - https://fontawesome.com License - https://fontawesome.com/license/free Copyright 2024 Fonticons, Inc.-->
  <path
     fill="#bfbfbf"
     d="m 106.16653,179.91152 c 0,-24.29622 19.75359,-44.04979 44.0498,-44.04979 h 22.02489 c 24.29622,0 44.0498,19.75357 44.0498,44.04979 v 2.47781 c 0,15.00446 -7.63989,28.9765 -20.23537,37.02935 l -29.04534,18.65234 c -17.3446,11.15011 -27.80643,30.35306 -27.80643,50.93257 v 0.96359 c 0,12.18253 9.84238,22.0249 22.0249,22.0249 12.18252,0 22.02489,-9.84237 22.02489,-22.0249 v -0.96359 c 0,-5.64388 2.89077,-10.87479 7.57106,-13.90321 l 29.04533,-18.65234 c 25.19098,-16.24336 40.47075,-44.11862 40.47075,-74.12754 v -2.4778 c 0,-48.66126 -39.43833,-88.09959 -88.09959,-88.09959 h -22.02489 c -48.66126,0.0688 -88.099591,39.50715 -88.099591,88.16841 0,12.18253 9.842376,22.0249 22.024897,22.0249 12.182521,0 22.024894,-9.84237 22.024894,-22.0249 z m 55.06225,220.24897 a 27.531121,27.531121 0 1 0 0,-55.06224 27.531121,27.531121 0 1 0 0,55.06224 z"
     id="path1"
     style="stroke-width:0.999997" />
</svg>
