<?xml version="1.0" encoding="UTF-8" standalone="no"?>
<svg
   height="14"
   width="10.5"
   viewBox="0 0 384 512"
   version="1.1"
   id="svg1"
   sodipodi:docname="receipt-solid_dark_small.svg"
   inkscape:version="1.3.2 (1:1.3.2+202311252150+091e20ef0f)"
   xmlns:inkscape="http://www.inkscape.org/namespaces/inkscape"
   xmlns:sodipodi="http://sodipodi.sourceforge.net/DTD/sodipodi-0.dtd"
   xmlns="http://www.w3.org/2000/svg"
   xmlns:svg="http://www.w3.org/2000/svg">
  <defs
     id="defs1" />
  <sodipodi:namedview
     id="namedview1"
     pagecolor="#505050"
     bordercolor="#eeeeee"
     borderopacity="1"
     inkscape:showpageshadow="0"
     inkscape:pageopacity="0"
     inkscape:pagecheckerboard="0"
     inkscape:deskcolor="#d1d1d1"
     inkscape:zoom="83.214286"
     inkscape:cx="5.2454935"
     inkscape:cy="7"
     inkscape:window-width="3440"
     inkscape:window-height="1364"
     inkscape:window-x="0"
     inkscape:window-y="0"
     inkscape:window-maximized="1"
     inkscape:current-layer="svg1" />
  <!--!Font Awesome Free 6.7.1 by @fontawesome - https://fontawesome.com License - https://fontawesome.com/license/free Copyright 2024 Fonticons, Inc.-->
  <path
     fill="#c7c7c7"
     d="m 63.902157,67.069245 c 6.071827,-2.785897 13.215152,-1.785831 18.286914,2.571597 l 28.859039,24.715907 28.85902,-24.715907 c 6.429,-5.500361 15.92962,-5.500361 22.28718,0 l 28.85903,24.715907 28.85904,-24.715907 c 6.42899,-5.500361 15.92961,-5.500361 22.28717,0 l 28.85904,24.715907 28.85904,-24.715907 c 5.07176,-4.357428 12.21508,-5.357494 18.28691,-2.571597 6.07182,2.785896 10.00066,8.857723 10.00066,15.572449 V 414.092 c 0,6.71472 -3.92884,12.78655 -10.00066,15.57245 -6.07183,2.78589 -13.21515,1.78583 -18.28691,-2.5716 l -28.85904,-24.71591 -28.85904,24.71591 c -6.42899,5.50036 -15.92961,5.50036 -22.28717,0 l -28.85904,-24.71591 -28.85903,24.71591 c -6.42899,5.50036 -15.92962,5.50036 -22.28718,0 l -28.85902,-24.71591 -28.859039,24.71591 c -5.071762,4.35743 -12.215087,5.35749 -18.286914,2.5716 C 57.83033,426.87855 53.901501,420.80672 53.901501,414.092 V 82.641694 c 0,-6.714726 3.928829,-12.786553 10.000656,-15.572449 z M 122.47742,168.36159 c -6.28612,0 -11.42931,5.1432 -11.42931,11.42933 0,6.28612 5.14319,11.42932 11.42931,11.42932 h 137.15185 c 6.28613,0 11.42932,-5.1432 11.42932,-11.42932 0,-6.28613 -5.14319,-11.42933 -11.42932,-11.42933 z m -11.42931,148.58118 c 0,6.28613 5.14319,11.42932 11.42931,11.42932 h 137.15185 c 6.28613,0 11.42932,-5.14319 11.42932,-11.42932 0,-6.28613 -5.14319,-11.42932 -11.42932,-11.42932 H 122.47742 c -6.28612,0 -11.42931,5.14319 -11.42931,11.42932 z m 11.42931,-80.00525 c -6.28612,0 -11.42931,5.14319 -11.42931,11.42933 0,6.28612 5.14319,11.42931 11.42931,11.42931 h 137.15185 c 6.28613,0 11.42932,-5.14319 11.42932,-11.42931 0,-6.28614 -5.14319,-11.42933 -11.42932,-11.42933 z"
     id="path1"
     style="stroke-width:1" />
</svg>
