<?xml version="1.0" encoding="UTF-8" standalone="no"?>
<!-- Created with Inkscape (http://www.inkscape.org/) -->

<svg
   width="210mm"
   height="297mm"
   viewBox="0 0 210 297"
   version="1.1"
   id="svg1"
   inkscape:version="1.3.2 (1:1.3.2+202311252150+091e20ef0f)"
   sodipodi:docname="usb-brands-solid_dark.svg"
   xmlns:inkscape="http://www.inkscape.org/namespaces/inkscape"
   xmlns:sodipodi="http://sodipodi.sourceforge.net/DTD/sodipodi-0.dtd"
   xmlns="http://www.w3.org/2000/svg"
   xmlns:svg="http://www.w3.org/2000/svg">
  <sodipodi:namedview
     id="namedview1"
     pagecolor="#505050"
     bordercolor="#eeeeee"
     borderopacity="1"
     inkscape:showpageshadow="0"
     inkscape:pageopacity="0"
     inkscape:pagecheckerboard="0"
     inkscape:deskcolor="#d1d1d1"
     inkscape:document-units="mm"
     inkscape:zoom="1.0378437"
     inkscape:cx="396.49516"
     inkscape:cy="561.25985"
     inkscape:window-width="3440"
     inkscape:window-height="1364"
     inkscape:window-x="0"
     inkscape:window-y="0"
     inkscape:window-maximized="1"
     inkscape:current-layer="layer1" />
  <defs
     id="defs1" />
  <g
     inkscape:label="Layer 1"
     inkscape:groupmode="layer"
     id="layer1">
    <path
       fill="#cfcfcf"
       d="m 205.30816,147.88018 c 0,0.97201 -0.53302,1.91264 -1.41096,2.35162 l -27.93716,16.77482 c -0.43896,0.25084 -0.87793,0.43898 -1.41097,0.43898 -0.43896,0 -0.97199,-0.0941 -1.41096,-0.3449 -0.87794,-0.53305 -1.41096,-1.41099 -1.41096,-2.44569 V 153.49269 H 96.883167 c 7.932773,12.41651 12.698713,33.51832 21.822973,33.51832 h 8.37172 v -8.4031 c 0,-1.56775 1.22284,-2.79059 2.79059,-2.79059 h 27.93715 c 1.56775,0 2.79058,1.22284 2.79058,2.79059 v 27.93716 c 0,1.56774 -1.22283,2.79057 -2.79058,2.79057 h -27.93715 c -1.56775,0 -2.79059,-1.22283 -2.79059,-2.79057 v -8.37175 h -8.37172 c -23.641553,0 -25.428781,-44.68063 -39.099486,-44.68063 H 48.157758 c -2.53974,9.59458 -11.256381,16.77484 -21.63483,16.77484 -12.322447,-0.0313 -22.3559931,-10.06491 -22.3559931,-22.38735 0,-12.32245 10.0335461,-22.356 22.3559931,-22.356 10.378449,0 19.126447,7.1489 21.63483,16.77483 12.259741,0 13.764772,2.97872 23.390705,-18.93831 12.573288,-27.937152 18.217157,-25.742316 34.145417,-25.742316 2.35161,-6.553159 8.46579,-11.162317 15.80283,-11.162317 9.24967,0 16.77482,7.493803 16.77482,16.774833 0,9.28103 -7.49379,16.77483 -16.77482,16.77483 -7.33704,0 -13.45122,-4.64051 -15.80283,-11.16231 h -9.343753 c -9.12425,0 -13.890185,21.13316 -21.822956,33.51831 H 171.7585 V 131.1994 c 0,-1.0347 0.53303,-1.91264 1.41097,-2.44566 0.87793,-0.53304 2.00671,-0.43897 2.79057,0.0941 l 27.93716,16.77484 c 0.87794,0.34491 1.41096,1.28555 1.41096,2.25756 z"
       id="path1"
       style="stroke-width:0.264583"
       inkscape:export-filename="path1.svg"
       inkscape:export-xdpi="96"
       inkscape:export-ydpi="96" />
  </g>
</svg>
