<?xml version="1.0" encoding="UTF-8" standalone="no"?>
<svg
   height="14"
   width="10.5"
   viewBox="0 0 384 512"
   version="1.1"
   id="svg1"
   sodipodi:docname="usb-brands-solid_dark.svg"
   inkscape:version="1.3.2 (1:1.3.2+202311252150+091e20ef0f)"
   xmlns:inkscape="http://www.inkscape.org/namespaces/inkscape"
   xmlns:sodipodi="http://sodipodi.sourceforge.net/DTD/sodipodi-0.dtd"
   xmlns="http://www.w3.org/2000/svg"
   xmlns:svg="http://www.w3.org/2000/svg">
  <defs
     id="defs1" />
  <sodipodi:namedview
     id="namedview1"
     pagecolor="#505050"
     bordercolor="#eeeeee"
     borderopacity="1"
     inkscape:showpageshadow="0"
     inkscape:pageopacity="0"
     inkscape:pagecheckerboard="0"
     inkscape:deskcolor="#d1d1d1"
     inkscape:zoom="41.607143"
     inkscape:cx="3.3527897"
     inkscape:cy="9.3133047"
     inkscape:window-width="3440"
     inkscape:window-height="1364"
     inkscape:window-x="0"
     inkscape:window-y="0"
     inkscape:window-maximized="1"
     inkscape:current-layer="svg1" />
  <!--!Font Awesome Free 6.7.1 by @fontawesome - https://fontawesome.com License - https://fontawesome.com/license/free Copyright 2024 Fonticons, Inc.-->
  <path
     fill="#cfcfcf"
     d="m 196.54894,13.792812 c 2.21928,0 4.36702,1.216999 5.36931,3.221557 l 38.3008,63.787066 c 0.57273,1.002212 1.00227,2.004509 1.00227,3.221507 0,1.002282 -0.21478,2.219296 -0.78749,3.221567 -1.21707,2.004585 -3.22158,3.221578 -5.58402,3.221578 H 209.36362 V 261.35233 c 28.34974,-18.11235 76.53008,-28.9941 76.53008,-49.8269 v -19.11461 h -19.1862 c -3.57951,0 -6.37157,-2.79206 -6.37157,-6.37158 v -63.78699 c 0,-3.57954 2.79206,-6.37159 6.37157,-6.37159 h 63.7871 c 3.57944,0 6.3715,2.79205 6.3715,6.37159 v 63.78699 c 0,3.57952 -2.79206,6.37158 -6.3715,6.37158 h -19.11471 v 19.11461 c 0,53.97917 -102.01627,58.0598 -102.01627,89.27326 v 71.80512 c 21.90665,5.79884 38.30086,25.70093 38.30086,49.39736 -0.0715,28.13501 -22.98051,51.04396 -51.11554,51.04396 -28.13501,0 -51.04398,-22.90895 -51.04398,-51.04396 0,-23.69643 16.32266,-43.67016 38.30089,-49.39736 0,-27.99185 6.80112,-31.42818 -43.24059,-53.40642 C 76.778209,290.48962 81.789559,277.60337 81.789559,241.23542 66.827149,235.86618 56.303354,221.9061 56.303354,205.15391 c 0,-21.11917 17.110116,-38.30086 38.300876,-38.30086 21.19075,0 38.30087,17.11011 38.30087,38.30086 0,16.75219 -10.59538,30.71227 -25.48621,36.08151 v 21.33397 c 0,20.83281 48.25194,31.71457 76.53011,49.82689 V 90.394514 h -25.4862 c -2.36244,0 -4.36701,-1.217069 -5.58395,-3.221568 -1.21709,-2.004575 -1.00231,-4.581825 0.21478,-6.371511 L 191.3945,17.014369 c 0.78756,-2.004558 2.93522,-3.221557 5.15459,-3.221557 z"
     id="path1-5"
     style="stroke-width:36.5714"
     inkscape:export-filename="path1.svg"
     inkscape:export-xdpi="96"
     inkscape:export-ydpi="96" />
</svg>
