<?xml version="1.0" encoding="UTF-8" standalone="no"?>
<svg
   viewBox="0 0 640 512"
   version="1.1"
   id="svg1"
   sodipodi:docname="usb-brands-solid_dark_small.svg"
   inkscape:version="1.3.2 (1:1.3.2+202311252150+091e20ef0f)"
   xmlns:inkscape="http://www.inkscape.org/namespaces/inkscape"
   xmlns:sodipodi="http://sodipodi.sourceforge.net/DTD/sodipodi-0.dtd"
   xmlns="http://www.w3.org/2000/svg"
   xmlns:svg="http://www.w3.org/2000/svg">
  <defs
     id="defs1" />
  <sodipodi:namedview
     id="namedview1"
     pagecolor="#505050"
     bordercolor="#eeeeee"
     borderopacity="1"
     inkscape:showpageshadow="0"
     inkscape:pageopacity="0"
     inkscape:pagecheckerboard="0"
     inkscape:deskcolor="#d1d1d1"
     inkscape:zoom="2.2753906"
     inkscape:cx="320.16481"
     inkscape:cy="256"
     inkscape:window-width="3440"
     inkscape:window-height="1364"
     inkscape:window-x="0"
     inkscape:window-y="0"
     inkscape:window-maximized="1"
     inkscape:current-layer="svg1" />
  <!--!Font Awesome Free 6.6.0 by @fontawesome - https://fontawesome.com License - https://fontawesome.com/license/free Copyright 2024 Fonticons, Inc.-->
  <path
     fill="#cfcfcf"
     d="m 638.58621,257.1176 c 0,3.07807 -1.68797,6.05685 -4.46816,7.44694 l -88.46959,53.12147 c -1.3901,0.79434 -2.78019,1.3901 -4.46816,1.3901 -1.3901,0 -3.07807,-0.29788 -4.46816,-1.09222 -2.78019,-1.68797 -4.46816,-4.46816 -4.46816,-7.74481 V 274.89096 H 295.23284 c 25.121,39.31982 40.21345,106.14365 69.10756,106.14365 h 26.51109 v -26.61038 c 0,-4.96463 3.87241,-8.83703 8.83703,-8.83703 h 88.4696 c 4.96462,0 8.83703,3.8724 8.83703,8.83703 v 88.46959 c 0,4.96462 -3.87241,8.83703 -8.83703,8.83703 h -88.4696 c -4.96462,0 -8.83703,-3.87241 -8.83703,-8.83703 V 416.38273 H 364.3404 c -74.86652,0 -80.52619,-141.49177 -123.81771,-141.49177 h -99.59035 c -8.04269,30.38349 -35.646,53.12147 -68.511807,53.12147 C 33.398591,327.91314 1.625,296.13955 1.625,257.1176 c 0,-39.02194 31.773591,-70.79553 70.795533,-70.79553 32.865807,0 60.568407,22.63868 68.511807,53.12147 38.82336,0 43.5894,9.43279 74.07218,-59.97265 39.81629,-88.469595 57.68893,-81.519122 108.12951,-81.519122 7.44693,-20.752127 26.80897,-35.34812 50.0434,-35.34812 29.29128,0 53.12148,23.730901 53.12148,53.121472 0,29.39057 -23.7309,53.12148 -53.12148,53.12148 -23.23443,0 -42.59647,-14.69529 -50.0434,-35.34812 h -29.58916 c -28.89411,0 -43.98656,66.92312 -69.10756,106.14365 h 307.90596 v -35.34812 c 0,-3.27665 1.68797,-6.05684 4.46816,-7.74481 2.78019,-1.68798 6.35472,-1.3901 8.83703,0.29787 l 88.46959,53.12148 c 2.78019,1.09221 4.46816,4.07099 4.46816,7.14905 z"
     id="path1"
     style="stroke-width:1"
     inkscape:export-filename="usb-brands-solid_dark_small.svg"
     inkscape:export-xdpi="96"
     inkscape:export-ydpi="96" />
</svg>
