<?xml version="1.0" encoding="UTF-8" standalone="no"?>
<!-- Created with Inkscape (http://www.inkscape.org/) -->

<svg
   version="1.1"
   id="svg2"
   width="306.64267"
   height="202.53999"
   viewBox="0 0 306.64267 202.53999"
   sodipodi:docname="finite_trap.svg"
   inkscape:version="1.2.2 (1:1.2.2+202212051550+b0a8486541)"
   inkscape:export-filename="finite_trap.pdf"
   inkscape:export-xdpi="96"
   inkscape:export-ydpi="96"
   xmlns:inkscape="http://www.inkscape.org/namespaces/inkscape"
   xmlns:sodipodi="http://sodipodi.sourceforge.net/DTD/sodipodi-0.dtd"
   xmlns="http://www.w3.org/2000/svg"
   xmlns:svg="http://www.w3.org/2000/svg"
   xmlns:ns4="http://www.iki.fi/pav/software/textext/">
  <defs
     id="defs6" />
  <sodipodi:namedview
     id="namedview4"
     pagecolor="#505050"
     bordercolor="#eeeeee"
     borderopacity="1"
     inkscape:showpageshadow="0"
     inkscape:pageopacity="0"
     inkscape:pagecheckerboard="0"
     inkscape:deskcolor="#505050"
     showgrid="false"
     inkscape:zoom="3.2318077"
     inkscape:cx="61.420733"
     inkscape:cy="32.644269"
     inkscape:window-width="3440"
     inkscape:window-height="1364"
     inkscape:window-x="0"
     inkscape:window-y="0"
     inkscape:window-maximized="1"
     inkscape:current-layer="g14">
    <inkscape:page
       x="0"
       y="0"
       id="page8"
       width="306.64267"
       height="202.53999" />
  </sodipodi:namedview>
  <g
     id="g10"
     inkscape:groupmode="layer"
     inkscape:label="Page 1"
     transform="matrix(1.33333 0 0 -1.33333 0 202.54)">
    <g
       id="g12"
       transform="translate(106.698, 18.824)">
      <g
         id="g14">
        <g
           id="g16">
          <g
             id="g18">
            <path
               d="M -106.3005,0 H 107.96252"
               style="fill:none;stroke:#000000;stroke-width:0.79701;stroke-linecap:butt;stroke-linejoin:miter;stroke-miterlimit:10;stroke-dasharray:none;stroke-opacity:1"
               id="path20" />
            <g
               id="g22"
               transform="translate(107.96252)">
              <g
                 id="g24">
                <path
                   d="M 2.59026,0 -1.55415,2.0722 0,0 -1.55415,-2.0722"
                   style="fill:#000000;fill-opacity:1;fill-rule:nonzero;stroke:none"
                   id="path26" />
              </g>
            </g>
            <g
               id="g28">
              <g
                 id="g30"
                 transform="translate(114.27,-2.145)">
                <g
                   id="g32">
                  <g
                     id="g34"
                     transform="translate(-220.968,-16.679)">
                    <text
                       xml:space="preserve"
                       transform="matrix(1,0,0,-1,220.968,16.679)"
                       style="font-variant:normal;font-weight:normal;font-size:9.9626px;font-family:CMMI10;-inkscape-font-specification:CMMI10;writing-mode:lr-tb;fill:#000000;fill-opacity:1;fill-rule:nonzero;stroke:none"
                       id="text38"><tspan
                         x="0"
                         y="0"
                         id="tspan36">x</tspan></text>
                    <g
                       id="g40"
                       transform="translate(220.968,16.679)" />
                  </g>
                </g>
                <g
                   id="g42"
                   transform="translate(-114.27,2.145)" />
              </g>
            </g>
          </g>
          <g
             id="g44">
            <path
               d="M 0,-18.42545 V 113.48994"
               style="fill:none;stroke:#000000;stroke-width:0.79701;stroke-linecap:butt;stroke-linejoin:miter;stroke-miterlimit:10;stroke-dasharray:none;stroke-opacity:1"
               id="path46" />
            <g
               id="g48"
               transform="rotate(90,-56.74497,56.74497)">
              <g
                 id="g50">
                <path
                   d="M 2.59026,0 -1.55415,2.0722 0,0 -1.55415,-2.0722"
                   style="fill:#000000;fill-opacity:1;fill-rule:nonzero;stroke:none"
                   id="path52" />
              </g>
            </g>
            <g
               id="g54">
              <g
                 id="g56"
                 transform="translate(-10.734,122.288)">
                <g
                   id="g58">
                  <g
                     id="g60"
                     transform="translate(-95.964,-141.112)">
                    <text
                       xml:space="preserve"
                       transform="matrix(1,0,0,-1,95.964,141.112)"
                       style="font-variant:normal;font-weight:normal;font-size:9.9626px;font-family:CMMI10;-inkscape-font-specification:CMMI10;writing-mode:lr-tb;fill:#000000;fill-opacity:1;fill-rule:nonzero;stroke:none"
                       id="text64"><tspan
                         x="0"
                         y="0"
                         id="tspan62">V</tspan></text>
                    <text
                       xml:space="preserve"
                       transform="matrix(1,0,0,-1,103.989,141.112)"
                       style="font-variant:normal;font-weight:normal;font-size:9.9626px;font-family:CMR10;-inkscape-font-specification:CMR10;writing-mode:lr-tb;fill:#000000;fill-opacity:1;fill-rule:nonzero;stroke:none"
                       id="text68"><tspan
                         x="0"
                         y="0"
                         id="tspan66">(</tspan></text>
                    <text
                       xml:space="preserve"
                       transform="matrix(1,0,0,-1,107.863,141.112)"
                       style="font-variant:normal;font-weight:normal;font-size:9.9626px;font-family:CMMI10;-inkscape-font-specification:CMMI10;writing-mode:lr-tb;fill:#000000;fill-opacity:1;fill-rule:nonzero;stroke:none"
                       id="text72"><tspan
                         x="0"
                         y="0"
                         id="tspan70">x</tspan></text>
                    <text
                       xml:space="preserve"
                       transform="matrix(1,0,0,-1,113.557,141.112)"
                       style="font-variant:normal;font-weight:normal;font-size:9.9626px;font-family:CMR10;-inkscape-font-specification:CMR10;writing-mode:lr-tb;fill:#000000;fill-opacity:1;fill-rule:nonzero;stroke:none"
                       id="text76"><tspan
                         x="0"
                         y="0"
                         id="tspan74">)</tspan></text>
                    <g
                       id="g78"
                       transform="translate(95.964,141.112)" />
                  </g>
                </g>
                <g
                   id="g80"
                   transform="translate(10.734,-122.288)" />
              </g>
            </g>
          </g>
          <g
             id="g82">
            <path
               d="M -42.5202,0 V 73.70186"
               style="fill:none;stroke:#e06377;stroke-width:0.79701;stroke-linecap:butt;stroke-linejoin:miter;stroke-miterlimit:10;stroke-dasharray:none;stroke-opacity:1"
               id="path84" />
          </g>
          <g
             id="g86">
            <path
               d="M 42.5202,0 V 73.70186"
               style="fill:none;stroke:#e06377;stroke-width:0.79701;stroke-linecap:butt;stroke-linejoin:miter;stroke-miterlimit:10;stroke-dasharray:none;stroke-opacity:1"
               id="path88" />
          </g>
          <g
             id="g90">
            <path
               d="M 106.3005,73.70186 H 42.5202"
               style="fill:none;stroke:#e06377;stroke-width:0.79701;stroke-linecap:butt;stroke-linejoin:miter;stroke-miterlimit:10;stroke-dasharray:none;stroke-opacity:1"
               id="path92" />
          </g>
          <g
             id="g94">
            <path
               d="m -106.3005,73.70186 h 63.7803"
               style="fill:none;stroke:#e06377;stroke-width:0.79701;stroke-linecap:butt;stroke-linejoin:miter;stroke-miterlimit:10;stroke-dasharray:none;stroke-opacity:1"
               id="path96" />
          </g>
          <g
             id="g98">
            <path
               d="M -42.5202,0 H 42.5202"
               style="fill:none;stroke:#e06377;stroke-width:0.79701;stroke-linecap:butt;stroke-linejoin:miter;stroke-miterlimit:10;stroke-dasharray:none;stroke-opacity:1"
               id="path100" />
          </g>
          <g
             id="g102">
            <g
               id="g104"
               transform="translate(-54.766,-11.092)">
              <g
                 id="g106">
                <g
                   id="g108"
                   transform="translate(-51.932,-7.732)">
                  <path
                     id="text116"
                     style="font-variant:normal;font-weight:normal;font-size:9.9626px;font-family:CMMI10;-inkscape-font-specification:CMMI10;writing-mode:lr-tb;fill:#000000;fill-opacity:1;fill-rule:nonzero;stroke:none"
                     transform="matrix(1,0,0,-1,59.681,7.732)"
                     d="m 0.9781812,-0.03969941 v 0.0395507792 h 0.140625 C 1.0705953,-0.01378563 1.0278544,-0.02544832 0.9781812,-0.03969941 Z" />
                  <g
                     id="g122"
                     transform="translate(51.932,7.732)" />
                </g>
              </g>
              <g
                 id="g124"
                 transform="translate(54.766,11.092)" />
            </g>
          </g>
          <g
             id="g126">
            <g
               id="g128"
               transform="translate(34.148,-11.092)">
              <g
                 id="g130">
                <g
                   id="g132"
                   transform="translate(-140.846,-7.732)">
                  <g
                     id="g142"
                     transform="translate(140.846,7.732)" />
                </g>
              </g>
              <g
                 id="g144"
                 transform="translate(-34.148,11.092)" />
            </g>
          </g>
          <g
             id="g146">
            <g
               id="g148"
               transform="translate(-13.901,71.044)">
              <g
                 id="g150">
                <g
                   id="g152"
                   transform="translate(-92.797,-89.868)">
                  <text
                     xml:space="preserve"
                     transform="matrix(1,0,0,-1,92.797,89.868)"
                     style="font-variant:normal;font-weight:normal;font-size:9.9626px;font-family:CMMI10;-inkscape-font-specification:CMMI10;writing-mode:lr-tb;fill:#000000;fill-opacity:1;fill-rule:nonzero;stroke:none"
                     id="text156"><tspan
                       x="0"
                       y="0"
                       id="tspan154">V</tspan></text>
                  <text
                     xml:space="preserve"
                     transform="matrix(1,0,0,-1,98.609,88.374)"
                     style="font-variant:normal;font-weight:normal;font-size:6.9738px;font-family:CMR7;-inkscape-font-specification:CMR7;writing-mode:lr-tb;fill:#000000;fill-opacity:1;fill-rule:nonzero;stroke:none"
                     id="text160"><tspan
                       x="0"
                       y="0"
                       id="tspan158">0</tspan></text>
                  <g
                     id="g162"
                     transform="translate(92.797,89.868)" />
                </g>
              </g>
              <g
                 id="g164"
                 transform="translate(13.901,-71.044)" />
            </g>
          </g>
          <path
             d="M -2.9767,73.70186 H 2.9767"
             style="fill:none;stroke:#000000;stroke-width:0.59776;stroke-linecap:butt;stroke-linejoin:miter;stroke-miterlimit:10;stroke-dasharray:none;stroke-opacity:1"
             id="path166" />
          <g
             id="g168">
            <g
               id="g170">
              <g
                 id="g172"
                 transform="translate(-65.579,33.446)">
                <g
                   id="g174">
                  <g
                     id="g176"
                     transform="translate(-41.119,-52.27)">
                    <text
                       xml:space="preserve"
                       transform="matrix(1,0,0,-1,41.119,52.27)"
                       style="font-variant:normal;font-weight:normal;font-size:9.9626px;font-family:CMR10;-inkscape-font-specification:CMR10;writing-mode:lr-tb;fill:#00cca3;fill-opacity:1;fill-rule:nonzero;stroke:none"
                       id="text180"><tspan
                         x="0"
                         y="0"
                         id="tspan178">I</tspan></text>
                    <g
                       id="g182"
                       transform="translate(41.119,52.27)" />
                  </g>
                </g>
                <g
                   id="g184"
                   transform="translate(65.579,-33.446)" />
              </g>
            </g>
          </g>
          <g
             id="g186">
            <g
               id="g188">
              <g
                 id="g190"
                 transform="translate(-7.989,33.446)">
                <g
                   id="g192">
                  <g
                     id="g194"
                     transform="translate(-98.709,-52.27)">
                    <text
                       xml:space="preserve"
                       transform="matrix(1,0,0,-1,98.709,52.27)"
                       style="font-variant:normal;font-weight:normal;font-size:9.9626px;font-family:CMR10;-inkscape-font-specification:CMR10;writing-mode:lr-tb;fill:#00cca3;fill-opacity:1;fill-rule:nonzero;stroke:none"
                       id="text198"><tspan
                         x="0 3.8764477"
                         y="0"
                         sodipodi:role="line"
                         id="tspan196">II</tspan></text>
                    <g
                       id="g200"
                       transform="translate(98.709,52.27)" />
                  </g>
                </g>
                <g
                   id="g202"
                   transform="translate(7.989,-33.446)" />
              </g>
            </g>
          </g>
          <g
             id="g204">
            <g
               id="g206">
              <g
                 id="g208"
                 transform="translate(58.106,33.446)">
                <g
                   id="g210">
                  <g
                     id="g212"
                     transform="translate(-164.804,-52.27)">
                    <text
                       xml:space="preserve"
                       transform="matrix(1,0,0,-1,164.804,52.27)"
                       style="font-variant:normal;font-weight:normal;font-size:9.9626px;font-family:CMR10;-inkscape-font-specification:CMR10;writing-mode:lr-tb;fill:#00cca3;fill-opacity:1;fill-rule:nonzero;stroke:none"
                       id="text216"><tspan
                         x="0 3.8764477 7.7528954"
                         y="0"
                         sodipodi:role="line"
                         id="tspan214">III</tspan></text>
                    <g
                       id="g218"
                       transform="translate(164.804,52.27)" />
                  </g>
                </g>
                <g
                   id="g220"
                   transform="translate(-58.106,-33.446)" />
              </g>
            </g>
          </g>
        </g>
        <g
           transform="matrix(0.999998,0,0,-0.999998,-54.367184,-1.0768475)"
           ns4:version="1.8.2"
           ns4:texconverter="pdflatex"
           ns4:pdfconverter="inkscape"
           ns4:text="$-a/2$"
           ns4:preamble="/home/eb/.config/inkscape/extensions/textext/default_packages.tex"
           ns4:scale="1.0"
           ns4:alignment="middle center"
           ns4:stroke-to-path="0"
           ns4:jacobian_sqrt="0.999998"
           id="g850">
          <defs
             id="id-2f8eae9d-bdee-43fb-a6cd-953356537f68">
            <g
               id="id-93da3331-eb7e-495a-a24a-644cad4a75c4">
              <symbol
                 overflow="visible"
                 id="id-bc4f17e0-ad3f-4306-9311-89d00cc97ed4">
                <path
                   style="stroke:none;stroke-width:0"
                   d=""
                   id="id-e07a1381-a1a2-4b89-8088-11e9c89f311b" />
              </symbol>
              <symbol
                 overflow="visible"
                 id="id-d6f0b147-7b6e-4ab1-b192-094071122fe8">
                <path
                   style="stroke:none;stroke-width:0"
                   d="m 6.5625,-2.296875 c 0.171875,0 0.359375,0 0.359375,-0.203125 0,-0.1875 -0.1875,-0.1875 -0.359375,-0.1875 H 1.171875 c -0.171875,0 -0.34375,0 -0.34375,0.1875 0,0.203125 0.171875,0.203125 0.34375,0.203125 z m 0,0"
                   id="id-7e15ca6d-7c12-4083-881f-1a75f6826ba1" />
              </symbol>
              <symbol
                 overflow="visible"
                 id="id-1142abbb-35a7-4ce9-a3fc-d4fc63545ec8">
                <path
                   style="stroke:none;stroke-width:0"
                   d=""
                   id="id-e91b9971-55ac-485d-bba0-50c5da78379b" />
              </symbol>
              <symbol
                 overflow="visible"
                 id="id-c0c8d79a-ee7f-434f-b179-afdb316c251e">
                <path
                   style="stroke:none;stroke-width:0"
                   d="M 3.71875,-3.765625 C 3.53125,-4.140625 3.25,-4.40625 2.796875,-4.40625 c -1.15625,0 -2.390625,1.46875 -2.390625,2.921875 0,0.9375 0.546875,1.59375 1.3125,1.59375 0.203125,0 0.703125,-0.046875 1.296875,-0.75 0.078125,0.421875 0.4375,0.75 0.90625,0.75 0.359375,0 0.578125,-0.234375 0.75,-0.546875 0.15625,-0.359375 0.296875,-0.96875 0.296875,-0.984375 0,-0.109375 -0.09375,-0.109375 -0.125,-0.109375 -0.09375,0 -0.109375,0.046875 -0.140625,0.1875 -0.171875,0.640625 -0.34375,1.234375 -0.75,1.234375 -0.28125,0 -0.296875,-0.265625 -0.296875,-0.453125 0,-0.21875 0.015625,-0.3125 0.125,-0.75 C 3.890625,-1.71875 3.90625,-1.828125 4,-2.203125 L 4.359375,-3.59375 c 0.0625,-0.28125 0.0625,-0.296875 0.0625,-0.34375 0,-0.171875 -0.109375,-0.265625 -0.28125,-0.265625 -0.25,0 -0.390625,0.21875 -0.421875,0.4375 z M 3.078125,-1.1875 C 3.015625,-1 3.015625,-0.984375 2.875,-0.8125 2.4375,-0.265625 2.03125,-0.109375 1.75,-0.109375 c -0.5,0 -0.640625,-0.546875 -0.640625,-0.9375 0,-0.5 0.3125,-1.71875 0.546875,-2.1875 0.3125,-0.578125 0.75,-0.953125 1.15625,-0.953125 0.640625,0 0.78125,0.8125 0.78125,0.875 0,0.0625 -0.015625,0.125 -0.03125,0.171875 z m 0,0"
                   id="id-7590d1a5-2865-4328-8ed5-725d33a85192" />
              </symbol>
              <symbol
                 overflow="visible"
                 id="id-10a796db-e3d3-4dd9-acbc-24f0002db464">
                <path
                   style="stroke:none;stroke-width:0"
                   d="m 4.375,-7.09375 c 0.046875,-0.140625 0.046875,-0.171875 0.046875,-0.1875 0,-0.109375 -0.078125,-0.203125 -0.1875,-0.203125 -0.078125,0 -0.140625,0.03125 -0.171875,0.09375 l -3.46875,9.5 C 0.546875,2.25 0.546875,2.28125 0.546875,2.296875 0.546875,2.40625 0.640625,2.5 0.75,2.5 0.875,2.5 0.90625,2.421875 0.96875,2.25 Z m 0,0"
                   id="id-3e7eaa70-fadb-4558-978f-e229296e07fb" />
              </symbol>
              <symbol
                 overflow="visible"
                 id="id-84bc0c80-0986-4088-99da-135246e4d5a1">
                <path
                   style="stroke:none;stroke-width:0"
                   d=""
                   id="id-1cbfadf2-4ebb-4eda-9dd9-398ab4ad8eb3" />
              </symbol>
              <symbol
                 overflow="visible"
                 id="id-5ae8500b-3e3a-4561-8c95-68dc9deb64c2">
                <path
                   style="stroke:none;stroke-width:0"
                   d="m 1.265625,-0.765625 1.0625,-1.03125 c 1.546875,-1.375 2.140625,-1.90625 2.140625,-2.90625 0,-1.140625 -0.890625,-1.9375 -2.109375,-1.9375 -1.125,0 -1.859375,0.921875 -1.859375,1.8125 0,0.546875 0.5,0.546875 0.53125,0.546875 0.171875,0 0.515625,-0.109375 0.515625,-0.53125 0,-0.25 -0.1875,-0.515625 -0.53125,-0.515625 -0.078125,0 -0.09375,0 -0.125,0.015625 0.21875,-0.65625 0.765625,-1.015625 1.34375,-1.015625 0.90625,0 1.328125,0.8125 1.328125,1.625 C 3.5625,-3.90625 3.078125,-3.125 2.515625,-2.5 l -1.90625,2.125 C 0.5,-0.265625 0.5,-0.234375 0.5,0 H 4.203125 L 4.46875,-1.734375 H 4.234375 C 4.171875,-1.4375 4.109375,-1 4,-0.84375 3.9375,-0.765625 3.28125,-0.765625 3.0625,-0.765625 Z m 0,0"
                   id="id-41d247e1-2ed3-4719-91f6-1d33eb0df3de" />
              </symbol>
            </g>
          </defs>
          <g
             id="id-012ad3cc-3e4b-4f96-8b47-e77d7e03733a"
             transform="translate(-149.54,-127.281)">
            <g
               style="fill:#000000;fill-opacity:1"
               id="id-a69fd48b-662f-47cf-bc97-e8a2f09ab9b0">
              <g
                 transform="translate(148.712,134.765)"
                 id="g835">
                <path
                   style="stroke:none;stroke-width:0"
                   d="m 6.5625,-2.296875 c 0.171875,0 0.359375,0 0.359375,-0.203125 0,-0.1875 -0.1875,-0.1875 -0.359375,-0.1875 H 1.171875 c -0.171875,0 -0.34375,0 -0.34375,0.1875 0,0.203125 0.171875,0.203125 0.34375,0.203125 z m 0,0"
                   id="id-25c5d23a-f5f1-40ef-a55a-601f1bfd737f" />
              </g>
            </g>
            <g
               style="fill:#000000;fill-opacity:1"
               id="id-a9645ec0-4f78-427a-bf46-f0c19a434d00">
              <g
                 transform="translate(156.461,134.765)"
                 id="g839">
                <path
                   style="stroke:none;stroke-width:0"
                   d="M 3.71875,-3.765625 C 3.53125,-4.140625 3.25,-4.40625 2.796875,-4.40625 c -1.15625,0 -2.390625,1.46875 -2.390625,2.921875 0,0.9375 0.546875,1.59375 1.3125,1.59375 0.203125,0 0.703125,-0.046875 1.296875,-0.75 0.078125,0.421875 0.4375,0.75 0.90625,0.75 0.359375,0 0.578125,-0.234375 0.75,-0.546875 0.15625,-0.359375 0.296875,-0.96875 0.296875,-0.984375 0,-0.109375 -0.09375,-0.109375 -0.125,-0.109375 -0.09375,0 -0.109375,0.046875 -0.140625,0.1875 -0.171875,0.640625 -0.34375,1.234375 -0.75,1.234375 -0.28125,0 -0.296875,-0.265625 -0.296875,-0.453125 0,-0.21875 0.015625,-0.3125 0.125,-0.75 C 3.890625,-1.71875 3.90625,-1.828125 4,-2.203125 L 4.359375,-3.59375 c 0.0625,-0.28125 0.0625,-0.296875 0.0625,-0.34375 0,-0.171875 -0.109375,-0.265625 -0.28125,-0.265625 -0.25,0 -0.390625,0.21875 -0.421875,0.4375 z M 3.078125,-1.1875 C 3.015625,-1 3.015625,-0.984375 2.875,-0.8125 2.4375,-0.265625 2.03125,-0.109375 1.75,-0.109375 c -0.5,0 -0.640625,-0.546875 -0.640625,-0.9375 0,-0.5 0.3125,-1.71875 0.546875,-2.1875 0.3125,-0.578125 0.75,-0.953125 1.15625,-0.953125 0.640625,0 0.78125,0.8125 0.78125,0.875 0,0.0625 -0.015625,0.125 -0.03125,0.171875 z m 0,0"
                   id="id-9b462b6b-219a-4943-b6d4-eec776718ba4" />
              </g>
              <g
                 transform="translate(161.727,134.765)"
                 id="g842">
                <path
                   style="stroke:none;stroke-width:0"
                   d="m 4.375,-7.09375 c 0.046875,-0.140625 0.046875,-0.171875 0.046875,-0.1875 0,-0.109375 -0.078125,-0.203125 -0.1875,-0.203125 -0.078125,0 -0.140625,0.03125 -0.171875,0.09375 l -3.46875,9.5 C 0.546875,2.25 0.546875,2.28125 0.546875,2.296875 0.546875,2.40625 0.640625,2.5 0.75,2.5 0.875,2.5 0.90625,2.421875 0.96875,2.25 Z m 0,0"
                   id="id-c70170f0-bcec-4632-a823-3ea1069cd2a4" />
              </g>
            </g>
            <g
               style="fill:#000000;fill-opacity:1"
               id="id-503009a1-b43e-4818-b7cd-94c470c0be22">
              <g
                 transform="translate(166.709,134.765)"
                 id="g846">
                <path
                   style="stroke:none;stroke-width:0"
                   d="m 1.265625,-0.765625 1.0625,-1.03125 c 1.546875,-1.375 2.140625,-1.90625 2.140625,-2.90625 0,-1.140625 -0.890625,-1.9375 -2.109375,-1.9375 -1.125,0 -1.859375,0.921875 -1.859375,1.8125 0,0.546875 0.5,0.546875 0.53125,0.546875 0.171875,0 0.515625,-0.109375 0.515625,-0.53125 0,-0.25 -0.1875,-0.515625 -0.53125,-0.515625 -0.078125,0 -0.09375,0 -0.125,0.015625 0.21875,-0.65625 0.765625,-1.015625 1.34375,-1.015625 0.90625,0 1.328125,0.8125 1.328125,1.625 C 3.5625,-3.90625 3.078125,-3.125 2.515625,-2.5 l -1.90625,2.125 C 0.5,-0.265625 0.5,-0.234375 0.5,0 H 4.203125 L 4.46875,-1.734375 H 4.234375 C 4.171875,-1.4375 4.109375,-1 4,-0.84375 3.9375,-0.765625 3.28125,-0.765625 3.0625,-0.765625 Z m 0,0"
                   id="id-a545e549-f388-4ff3-a2d4-f27a36a8147b" />
              </g>
            </g>
          </g>
        </g>
        <g
           transform="matrix(1,0,0,-1,31.522636,-3.2504806)"
           ns4:version="1.8.2"
           ns4:texconverter="pdflatex"
           ns4:pdfconverter="inkscape"
           ns4:text="$+a/2$"
           ns4:preamble="/home/eb/.config/inkscape/extensions/textext/default_packages.tex"
           ns4:scale="1.0"
           ns4:alignment="middle center"
           ns4:stroke-to-path="0"
           ns4:jacobian_sqrt="1.0"
           id="g1269">
          <defs
             id="id-f9362dff-163e-4660-bd49-272a88a729bf">
            <g
               id="id-6abf89a9-d259-4071-baa4-b8bf25656434">
              <symbol
                 overflow="visible"
                 id="id-3e566c81-bf66-4980-a1eb-3850eefe2b39">
                <path
                   style="stroke:none;stroke-width:0"
                   d=""
                   id="id-ef870eb7-f5bb-489c-9f35-51528cde572f" />
              </symbol>
              <symbol
                 overflow="visible"
                 id="id-dd1036d7-5609-4911-90f1-70da8cc1687c">
                <path
                   style="stroke:none;stroke-width:0"
                   d="m 4.078125,-2.296875 h 2.78125 C 7,-2.296875 7.1875,-2.296875 7.1875,-2.5 7.1875,-2.6875 7,-2.6875 6.859375,-2.6875 h -2.78125 v -2.796875 c 0,-0.140625 0,-0.328125 -0.203125,-0.328125 -0.203125,0 -0.203125,0.1875 -0.203125,0.328125 V -2.6875 h -2.78125 c -0.140625,0 -0.328125,0 -0.328125,0.1875 0,0.203125 0.1875,0.203125 0.328125,0.203125 h 2.78125 V 0.5 c 0,0.140625 0,0.328125 0.203125,0.328125 0.203125,0 0.203125,-0.1875 0.203125,-0.328125 z m 0,0"
                   id="id-4d33b48b-4dbc-42ab-bd18-266b1005454a" />
              </symbol>
              <symbol
                 overflow="visible"
                 id="id-3a8dd62e-af71-44a4-9c85-33b285fc84c6">
                <path
                   style="stroke:none;stroke-width:0"
                   d="m 1.265625,-0.765625 1.0625,-1.03125 c 1.546875,-1.375 2.140625,-1.90625 2.140625,-2.90625 0,-1.140625 -0.890625,-1.9375 -2.109375,-1.9375 -1.125,0 -1.859375,0.921875 -1.859375,1.8125 0,0.546875 0.5,0.546875 0.53125,0.546875 0.171875,0 0.515625,-0.109375 0.515625,-0.53125 0,-0.25 -0.1875,-0.515625 -0.53125,-0.515625 -0.078125,0 -0.09375,0 -0.125,0.015625 0.21875,-0.65625 0.765625,-1.015625 1.34375,-1.015625 0.90625,0 1.328125,0.8125 1.328125,1.625 C 3.5625,-3.90625 3.078125,-3.125 2.515625,-2.5 l -1.90625,2.125 C 0.5,-0.265625 0.5,-0.234375 0.5,0 H 4.203125 L 4.46875,-1.734375 H 4.234375 C 4.171875,-1.4375 4.109375,-1 4,-0.84375 3.9375,-0.765625 3.28125,-0.765625 3.0625,-0.765625 Z m 0,0"
                   id="id-8ef61cb7-ff68-42a4-82b6-f92067722b0c" />
              </symbol>
              <symbol
                 overflow="visible"
                 id="id-bee2b43e-e18a-465a-8977-8a6c713698fa">
                <path
                   style="stroke:none;stroke-width:0"
                   d=""
                   id="id-ef9368a2-2afe-46bf-b24e-68443d2430de" />
              </symbol>
              <symbol
                 overflow="visible"
                 id="id-50ce4bad-e83c-4fef-b16b-26b0bc63a9d6">
                <path
                   style="stroke:none;stroke-width:0"
                   d="M 3.71875,-3.765625 C 3.53125,-4.140625 3.25,-4.40625 2.796875,-4.40625 c -1.15625,0 -2.390625,1.46875 -2.390625,2.921875 0,0.9375 0.546875,1.59375 1.3125,1.59375 0.203125,0 0.703125,-0.046875 1.296875,-0.75 0.078125,0.421875 0.4375,0.75 0.90625,0.75 0.359375,0 0.578125,-0.234375 0.75,-0.546875 0.15625,-0.359375 0.296875,-0.96875 0.296875,-0.984375 0,-0.109375 -0.09375,-0.109375 -0.125,-0.109375 -0.09375,0 -0.109375,0.046875 -0.140625,0.1875 -0.171875,0.640625 -0.34375,1.234375 -0.75,1.234375 -0.28125,0 -0.296875,-0.265625 -0.296875,-0.453125 0,-0.21875 0.015625,-0.3125 0.125,-0.75 C 3.890625,-1.71875 3.90625,-1.828125 4,-2.203125 L 4.359375,-3.59375 c 0.0625,-0.28125 0.0625,-0.296875 0.0625,-0.34375 0,-0.171875 -0.109375,-0.265625 -0.28125,-0.265625 -0.25,0 -0.390625,0.21875 -0.421875,0.4375 z M 3.078125,-1.1875 C 3.015625,-1 3.015625,-0.984375 2.875,-0.8125 2.4375,-0.265625 2.03125,-0.109375 1.75,-0.109375 c -0.5,0 -0.640625,-0.546875 -0.640625,-0.9375 0,-0.5 0.3125,-1.71875 0.546875,-2.1875 0.3125,-0.578125 0.75,-0.953125 1.15625,-0.953125 0.640625,0 0.78125,0.8125 0.78125,0.875 0,0.0625 -0.015625,0.125 -0.03125,0.171875 z m 0,0"
                   id="id-feb696b6-cd76-4834-8999-2328e2002a09" />
              </symbol>
              <symbol
                 overflow="visible"
                 id="id-db3885f7-2ce0-44c3-942f-13c39cf49b27">
                <path
                   style="stroke:none;stroke-width:0"
                   d="m 4.375,-7.09375 c 0.046875,-0.140625 0.046875,-0.171875 0.046875,-0.1875 0,-0.109375 -0.078125,-0.203125 -0.1875,-0.203125 -0.078125,0 -0.140625,0.03125 -0.171875,0.09375 l -3.46875,9.5 C 0.546875,2.25 0.546875,2.28125 0.546875,2.296875 0.546875,2.40625 0.640625,2.5 0.75,2.5 0.875,2.5 0.90625,2.421875 0.96875,2.25 Z m 0,0"
                   id="id-727e3dce-6ae1-49a9-8a16-c5cddfa8bdd2" />
              </symbol>
            </g>
          </defs>
          <g
             id="id-5545eef3-28e3-4551-b8e8-2902cb3fbe8a"
             transform="translate(-149.275,-127.281)">
            <g
               style="fill:#000000;fill-opacity:1"
               id="id-e0507628-035d-4877-a1fc-89c3a01f1962">
              <g
                 transform="translate(148.712,134.765)"
                 id="g1254">
                <path
                   style="stroke:none;stroke-width:0"
                   d="m 4.078125,-2.296875 h 2.78125 C 7,-2.296875 7.1875,-2.296875 7.1875,-2.5 7.1875,-2.6875 7,-2.6875 6.859375,-2.6875 h -2.78125 v -2.796875 c 0,-0.140625 0,-0.328125 -0.203125,-0.328125 -0.203125,0 -0.203125,0.1875 -0.203125,0.328125 V -2.6875 h -2.78125 c -0.140625,0 -0.328125,0 -0.328125,0.1875 0,0.203125 0.1875,0.203125 0.328125,0.203125 h 2.78125 V 0.5 c 0,0.140625 0,0.328125 0.203125,0.328125 0.203125,0 0.203125,-0.1875 0.203125,-0.328125 z m 0,0"
                   id="id-f6c40231-e88b-48f7-8f3f-452525b77213" />
              </g>
            </g>
            <g
               style="fill:#000000;fill-opacity:1"
               id="id-ce58ec6b-fe22-4466-9c81-e327446af82b">
              <g
                 transform="translate(156.461,134.765)"
                 id="g1258">
                <path
                   style="stroke:none;stroke-width:0"
                   d="M 3.71875,-3.765625 C 3.53125,-4.140625 3.25,-4.40625 2.796875,-4.40625 c -1.15625,0 -2.390625,1.46875 -2.390625,2.921875 0,0.9375 0.546875,1.59375 1.3125,1.59375 0.203125,0 0.703125,-0.046875 1.296875,-0.75 0.078125,0.421875 0.4375,0.75 0.90625,0.75 0.359375,0 0.578125,-0.234375 0.75,-0.546875 0.15625,-0.359375 0.296875,-0.96875 0.296875,-0.984375 0,-0.109375 -0.09375,-0.109375 -0.125,-0.109375 -0.09375,0 -0.109375,0.046875 -0.140625,0.1875 -0.171875,0.640625 -0.34375,1.234375 -0.75,1.234375 -0.28125,0 -0.296875,-0.265625 -0.296875,-0.453125 0,-0.21875 0.015625,-0.3125 0.125,-0.75 C 3.890625,-1.71875 3.90625,-1.828125 4,-2.203125 L 4.359375,-3.59375 c 0.0625,-0.28125 0.0625,-0.296875 0.0625,-0.34375 0,-0.171875 -0.109375,-0.265625 -0.28125,-0.265625 -0.25,0 -0.390625,0.21875 -0.421875,0.4375 z M 3.078125,-1.1875 C 3.015625,-1 3.015625,-0.984375 2.875,-0.8125 2.4375,-0.265625 2.03125,-0.109375 1.75,-0.109375 c -0.5,0 -0.640625,-0.546875 -0.640625,-0.9375 0,-0.5 0.3125,-1.71875 0.546875,-2.1875 0.3125,-0.578125 0.75,-0.953125 1.15625,-0.953125 0.640625,0 0.78125,0.8125 0.78125,0.875 0,0.0625 -0.015625,0.125 -0.03125,0.171875 z m 0,0"
                   id="id-f232bb34-0674-469b-bf66-f2c0afc81bb1" />
              </g>
              <g
                 transform="translate(161.727,134.765)"
                 id="g1261">
                <path
                   style="stroke:none;stroke-width:0"
                   d="m 4.375,-7.09375 c 0.046875,-0.140625 0.046875,-0.171875 0.046875,-0.1875 0,-0.109375 -0.078125,-0.203125 -0.1875,-0.203125 -0.078125,0 -0.140625,0.03125 -0.171875,0.09375 l -3.46875,9.5 C 0.546875,2.25 0.546875,2.28125 0.546875,2.296875 0.546875,2.40625 0.640625,2.5 0.75,2.5 0.875,2.5 0.90625,2.421875 0.96875,2.25 Z m 0,0"
                   id="id-05ab7bb4-9c6e-4c9b-ad47-0630fb2489bb" />
              </g>
            </g>
            <g
               style="fill:#000000;fill-opacity:1"
               id="id-6c7d964b-caf4-4f0b-8891-00f36b5d3c6d">
              <g
                 transform="translate(166.709,134.765)"
                 id="g1265">
                <path
                   style="stroke:none;stroke-width:0"
                   d="m 1.265625,-0.765625 1.0625,-1.03125 c 1.546875,-1.375 2.140625,-1.90625 2.140625,-2.90625 0,-1.140625 -0.890625,-1.9375 -2.109375,-1.9375 -1.125,0 -1.859375,0.921875 -1.859375,1.8125 0,0.546875 0.5,0.546875 0.53125,0.546875 0.171875,0 0.515625,-0.109375 0.515625,-0.53125 0,-0.25 -0.1875,-0.515625 -0.53125,-0.515625 -0.078125,0 -0.09375,0 -0.125,0.015625 0.21875,-0.65625 0.765625,-1.015625 1.34375,-1.015625 0.90625,0 1.328125,0.8125 1.328125,1.625 C 3.5625,-3.90625 3.078125,-3.125 2.515625,-2.5 l -1.90625,2.125 C 0.5,-0.265625 0.5,-0.234375 0.5,0 H 4.203125 L 4.46875,-1.734375 H 4.234375 C 4.171875,-1.4375 4.109375,-1 4,-0.84375 3.9375,-0.765625 3.28125,-0.765625 3.0625,-0.765625 Z m 0,0"
                   id="id-9d501934-101f-4d3d-b8ae-c6806038fe9a" />
              </g>
            </g>
          </g>
        </g>
      </g>
    </g>
  </g>
</svg>
