<?xml version="1.0" encoding="UTF-8" standalone="no"?>
<!-- Created with Inkscape (http://www.inkscape.org/) -->

<svg
   version="1.1"
   id="svg2"
   width="306.64267"
   height="202.53999"
   viewBox="0 0 306.64267 202.53999"
   sodipodi:docname="infinite_trap.svg"
   inkscape:export-filename="infinite_trap.pdf"
   inkscape:export-xdpi="300"
   inkscape:export-ydpi="300"
   inkscape:version="1.2.2 (1:1.2.2+202212051550+b0a8486541)"
   xmlns:inkscape="http://www.inkscape.org/namespaces/inkscape"
   xmlns:sodipodi="http://sodipodi.sourceforge.net/DTD/sodipodi-0.dtd"
   xmlns="http://www.w3.org/2000/svg"
   xmlns:svg="http://www.w3.org/2000/svg">
  <defs
     id="defs6">
    <defs
       id="id-6bb8f575-cc14-4e37-99b5-c0daabb84f2a">
      <g
         id="id-8ecae9ac-1d6f-4144-9bf8-86f18577e691">
        <symbol
           overflow="visible"
           id="id-08f26d23-bdcd-4b5f-91aa-5dfdf7313a1d">
          <path
             style="stroke:none;stroke-width:0"
             d=""
             id="id-72675e75-86bb-4104-8cb3-09e1d4dbd6fd" />
        </symbol>
        <symbol
           overflow="visible"
           id="id-b92cdf1e-c502-4103-864c-ff8c9d74f4d9">
          <path
             style="stroke:none;stroke-width:0"
             d="M 3.71875,-3.765625 C 3.53125,-4.140625 3.25,-4.40625 2.796875,-4.40625 c -1.15625,0 -2.390625,1.46875 -2.390625,2.921875 0,0.9375 0.546875,1.59375 1.3125,1.59375 0.203125,0 0.703125,-0.046875 1.296875,-0.75 0.078125,0.421875 0.4375,0.75 0.90625,0.75 0.359375,0 0.578125,-0.234375 0.75,-0.546875 0.15625,-0.359375 0.296875,-0.96875 0.296875,-0.984375 0,-0.109375 -0.09375,-0.109375 -0.125,-0.109375 -0.09375,0 -0.109375,0.046875 -0.140625,0.1875 -0.171875,0.640625 -0.34375,1.234375 -0.75,1.234375 -0.28125,0 -0.296875,-0.265625 -0.296875,-0.453125 0,-0.21875 0.015625,-0.3125 0.125,-0.75 C 3.890625,-1.71875 3.90625,-1.828125 4,-2.203125 L 4.359375,-3.59375 c 0.0625,-0.28125 0.0625,-0.296875 0.0625,-0.34375 0,-0.171875 -0.109375,-0.265625 -0.28125,-0.265625 -0.25,0 -0.390625,0.21875 -0.421875,0.4375 z M 3.078125,-1.1875 C 3.015625,-1 3.015625,-0.984375 2.875,-0.8125 2.4375,-0.265625 2.03125,-0.109375 1.75,-0.109375 c -0.5,0 -0.640625,-0.546875 -0.640625,-0.9375 0,-0.5 0.3125,-1.71875 0.546875,-2.1875 0.3125,-0.578125 0.75,-0.953125 1.15625,-0.953125 0.640625,0 0.78125,0.8125 0.78125,0.875 0,0.0625 -0.015625,0.125 -0.03125,0.171875 z m 0,0"
             id="id-25a7739d-356e-408e-9959-1bb6cd32ffd6" />
        </symbol>
      </g>
    </defs>
  </defs>
  <sodipodi:namedview
     id="namedview4"
     pagecolor="#505050"
     bordercolor="#eeeeee"
     borderopacity="1"
     inkscape:showpageshadow="0"
     inkscape:pageopacity="0"
     inkscape:pagecheckerboard="0"
     inkscape:deskcolor="#505050"
     showgrid="false"
     inkscape:zoom="2.7714646"
     inkscape:cx="133.1426"
     inkscape:cy="136.93121"
     inkscape:window-width="1920"
     inkscape:window-height="1003"
     inkscape:window-x="0"
     inkscape:window-y="0"
     inkscape:window-maximized="1"
     inkscape:current-layer="g10">
    <inkscape:page
       x="0"
       y="0"
       id="page8"
       width="306.64267"
       height="202.53999" />
  </sodipodi:namedview>
  <g
     id="g10"
     inkscape:groupmode="layer"
     inkscape:label="Page 1"
     transform="matrix(1.33333 0 0 -1.33333 0 202.54)">
    <g
       id="g16"
       transform="translate(64.178,18.824)">
      <g
         id="g18">
        <path
           d="M -63.7803,0 V 110.55281 H 0 V 0 Z"
           style="fill:#f9e0e4;fill-opacity:1;fill-rule:nonzero;stroke:none"
           id="path20" />
      </g>
      <g
         id="g22">
        <path
           d="m 85.04042,0 v 110.55281 h 63.78032 V 0 Z"
           style="fill:#f9e0e4;fill-opacity:1;fill-rule:nonzero;stroke:none"
           id="path24" />
      </g>
      <g
         id="g26">
        <path
           d="M -63.7803,0 H 150.48273"
           style="fill:none;stroke:#000000;stroke-width:0.79701;stroke-linecap:butt;stroke-linejoin:miter;stroke-miterlimit:10;stroke-dasharray:none;stroke-opacity:1"
           id="path28" />
        <g
           id="g30"
           transform="translate(150.48273)">
          <g
             id="g32">
            <path
               d="M 2.59026,0 -1.55415,2.0722 0,0 -1.55415,-2.0722"
               style="fill:#000000;fill-opacity:1;fill-rule:nonzero;stroke:none"
               id="path34" />
          </g>
        </g>
        <g
           id="g36">
          <g
             id="g38"
             transform="translate(156.79,-2.145)">
            <g
               id="g40">
              <g
                 id="g42"
                 transform="translate(-220.968,-16.679)">
                <text
                   xml:space="preserve"
                   transform="matrix(1,0,0,-1,220.968,16.679)"
                   style="font-variant:normal;font-weight:normal;font-size:9.9626px;font-family:CMMI10;-inkscape-font-specification:CMMI10;writing-mode:lr-tb;fill:#000000;fill-opacity:1;fill-rule:nonzero;stroke:none"
                   id="text46"><tspan
                     x="0"
                     y="0"
                     id="tspan44">x</tspan></text>
                <g
                   id="g48"
                   transform="translate(220.968,16.679)" />
              </g>
            </g>
            <g
               id="g50"
               transform="translate(-156.79,2.145)" />
          </g>
        </g>
      </g>
      <g
         id="g52">
        <path
           d="M 0,-18.42545 V 113.48994"
           style="fill:none;stroke:#000000;stroke-width:0.79701;stroke-linecap:butt;stroke-linejoin:miter;stroke-miterlimit:10;stroke-dasharray:none;stroke-opacity:1"
           id="path54" />
        <g
           id="g56"
           transform="rotate(90,-56.74497,56.74497)">
          <g
             id="g58">
            <path
               d="M 2.59026,0 -1.55415,2.0722 0,0 -1.55415,-2.0722"
               style="fill:#000000;fill-opacity:1;fill-rule:nonzero;stroke:none"
               id="path60" />
          </g>
        </g>
        <g
           id="g62">
          <g
             id="g64"
             transform="translate(-10.734,122.288)">
            <g
               id="g66">
              <g
                 id="g68"
                 transform="translate(-53.444,-141.112)">
                <text
                   xml:space="preserve"
                   transform="matrix(1,0,0,-1,53.444,141.112)"
                   style="font-variant:normal;font-weight:normal;font-size:9.9626px;font-family:CMMI10;-inkscape-font-specification:CMMI10;writing-mode:lr-tb;fill:#000000;fill-opacity:1;fill-rule:nonzero;stroke:none"
                   id="text72"><tspan
                     x="0"
                     y="0"
                     id="tspan70">V</tspan></text>
                <text
                   xml:space="preserve"
                   transform="matrix(1,0,0,-1,61.469,141.112)"
                   style="font-variant:normal;font-weight:normal;font-size:9.9626px;font-family:CMR10;-inkscape-font-specification:CMR10;writing-mode:lr-tb;fill:#000000;fill-opacity:1;fill-rule:nonzero;stroke:none"
                   id="text76"><tspan
                     x="0"
                     y="0"
                     id="tspan74">(</tspan></text>
                <text
                   xml:space="preserve"
                   transform="matrix(1,0,0,-1,65.344,141.112)"
                   style="font-variant:normal;font-weight:normal;font-size:9.9626px;font-family:CMMI10;-inkscape-font-specification:CMMI10;writing-mode:lr-tb;fill:#000000;fill-opacity:1;fill-rule:nonzero;stroke:none"
                   id="text80"><tspan
                     x="0"
                     y="0"
                     id="tspan78">x</tspan></text>
                <text
                   xml:space="preserve"
                   transform="matrix(1,0,0,-1,71.038,141.112)"
                   style="font-variant:normal;font-weight:normal;font-size:9.9626px;font-family:CMR10;-inkscape-font-specification:CMR10;writing-mode:lr-tb;fill:#000000;fill-opacity:1;fill-rule:nonzero;stroke:none"
                   id="text84"><tspan
                     x="0"
                     y="0"
                     id="tspan82">)</tspan></text>
                <g
                   id="g86"
                   transform="translate(53.444,141.112)" />
              </g>
            </g>
            <g
               id="g88"
               transform="translate(10.734,-122.288)" />
          </g>
        </g>
      </g>
      <g
         id="g90">
        <path
           d="M 0,0 V 110.55281"
           style="fill:none;stroke:#e06377;stroke-width:0.79701;stroke-linecap:butt;stroke-linejoin:miter;stroke-miterlimit:10;stroke-dasharray:none;stroke-opacity:1"
           id="path92" />
      </g>
      <g
         id="g94">
        <path
           d="M 85.04042,0 V 110.55281"
           style="fill:none;stroke:#e06377;stroke-width:0.79701;stroke-linecap:butt;stroke-linejoin:miter;stroke-miterlimit:10;stroke-dasharray:none;stroke-opacity:1"
           id="path96" />
      </g>
      <g
         id="g98">
        <path
           d="M 0,0 H 85.04042"
           style="fill:none;stroke:#e06377;stroke-width:0.79701;stroke-linecap:butt;stroke-linejoin:miter;stroke-miterlimit:10;stroke-dasharray:none;stroke-opacity:1"
           id="path100" />
      </g>
      <g
         id="g102">
        <g
           id="g104"
           transform="translate(-8.601,-10.04)">
          <g
             id="g106">
            <g
               id="g108"
               transform="translate(-55.577,-8.784)">
              <text
                 xml:space="preserve"
                 transform="matrix(1,0,0,-1,55.577,8.784)"
                 style="font-variant:normal;font-weight:normal;font-size:9.9626px;font-family:CMR10;-inkscape-font-specification:CMR10;writing-mode:lr-tb;fill:#000000;fill-opacity:1;fill-rule:nonzero;stroke:none"
                 id="text112"><tspan
                   x="0"
                   y="0"
                   id="tspan110">0</tspan></text>
              <g
                 id="g114"
                 transform="translate(55.577,8.784)" />
            </g>
          </g>
          <g
             id="g116"
             transform="translate(8.601,10.04)" />
        </g>
      </g>
      <g
         id="g118">
        <g
           id="g120"
           transform="translate(81.649,-10.427)">
          <g
             id="g122">
            <g
               id="g124"
               transform="translate(-145.827,-8.397)">
              <path
                 id="text128"
                 style="font-variant:normal;font-weight:normal;font-size:9.9626px;font-family:CMMI10;-inkscape-font-specification:CMMI10;writing-mode:lr-tb;fill:#000000;fill-opacity:1;fill-rule:nonzero;stroke:none"
                 transform="matrix(1,0,0,-1,145.827,8.397)"
                 d="m 4.8105836,-0.82638243 c -0.036992,0.0788906 -0.075365,0.15830103 -0.1186526,0.24169982 0.011635,0.008821 0.023005,0.0177036 0.033691,0.0278321 0.1076369,0.10201885 0.1986847,0.21880244 0.2871101,0.33837975 0.070381,-0.0150468 0.1407552,-0.0290958 0.210938,-0.0454103 0.024938,-0.12366768 0.058272,-0.27069744 0.1201175,-0.47754025 0.003,0.0693269 0.070211,0.21000189 0.153809,0.36181731 v -0.44677846 z" />
              <g
                 id="g130"
                 transform="translate(145.827,8.397)" />
            </g>
          </g>
          <g
             id="g132"
             transform="translate(-81.649,10.427)" />
        </g>
      </g>
    </g>
    <g
       style="fill:#000000;fill-opacity:1"
       id="id-2753d370-fab7-4601-bd65-f378cfed007b"
       transform="matrix(1.4356841,0,0,-1.4356841,-66.200291,202.16601)">
      <g
         transform="translate(148.712,134.765)"
         id="g490">
        <path
           style="stroke:none;stroke-width:0"
           d="M 3.71875,-3.765625 C 3.53125,-4.140625 3.25,-4.40625 2.796875,-4.40625 c -1.15625,0 -2.390625,1.46875 -2.390625,2.921875 0,0.9375 0.546875,1.59375 1.3125,1.59375 0.203125,0 0.703125,-0.046875 1.296875,-0.75 0.078125,0.421875 0.4375,0.75 0.90625,0.75 0.359375,0 0.578125,-0.234375 0.75,-0.546875 0.15625,-0.359375 0.296875,-0.96875 0.296875,-0.984375 0,-0.109375 -0.09375,-0.109375 -0.125,-0.109375 -0.09375,0 -0.109375,0.046875 -0.140625,0.1875 -0.171875,0.640625 -0.34375,1.234375 -0.75,1.234375 -0.28125,0 -0.296875,-0.265625 -0.296875,-0.453125 0,-0.21875 0.015625,-0.3125 0.125,-0.75 C 3.890625,-1.71875 3.90625,-1.828125 4,-2.203125 L 4.359375,-3.59375 c 0.0625,-0.28125 0.0625,-0.296875 0.0625,-0.34375 0,-0.171875 -0.109375,-0.265625 -0.28125,-0.265625 -0.25,0 -0.390625,0.21875 -0.421875,0.4375 z M 3.078125,-1.1875 C 3.015625,-1 3.015625,-0.984375 2.875,-0.8125 2.4375,-0.265625 2.03125,-0.109375 1.75,-0.109375 c -0.5,0 -0.640625,-0.546875 -0.640625,-0.9375 0,-0.5 0.3125,-1.71875 0.546875,-2.1875 0.3125,-0.578125 0.75,-0.953125 1.15625,-0.953125 0.640625,0 0.78125,0.8125 0.78125,0.875 0,0.0625 -0.015625,0.125 -0.03125,0.171875 z m 0,0"
           id="id-08c91d56-6810-40b1-a43a-6f4ca682d2b9" />
      </g>
    </g>
  </g>
</svg>
