<?xml version="1.0" encoding="UTF-8" standalone="no"?>
<!-- Created with Inkscape (http://www.inkscape.org/) -->

<svg
   width="210mm"
   height="297mm"
   viewBox="0 0 210 297"
   version="1.1"
   id="svg504"
   sodipodi:docname="multiplieur_modul.svg"
   inkscape:version="1.2.2 (1:1.2.2+202305151915+b0a8486541)"
   inkscape:export-filename="multiplieur_modul.pdf"
   inkscape:export-xdpi="96"
   inkscape:export-ydpi="96"
   xmlns:inkscape="http://www.inkscape.org/namespaces/inkscape"
   xmlns:sodipodi="http://sodipodi.sourceforge.net/DTD/sodipodi-0.dtd"
   xmlns="http://www.w3.org/2000/svg"
   xmlns:svg="http://www.w3.org/2000/svg"
   xmlns:ns1="http://www.iki.fi/pav/software/textext/">
  <sodipodi:namedview
     id="namedview506"
     pagecolor="#505050"
     bordercolor="#eeeeee"
     borderopacity="1"
     inkscape:showpageshadow="0"
     inkscape:pageopacity="0"
     inkscape:pagecheckerboard="0"
     inkscape:deskcolor="#505050"
     inkscape:document-units="mm"
     showgrid="false"
     inkscape:zoom="3.0463327"
     inkscape:cx="419.68496"
     inkscape:cy="509.62917"
     inkscape:window-width="3440"
     inkscape:window-height="1364"
     inkscape:window-x="0"
     inkscape:window-y="0"
     inkscape:window-maximized="1"
     inkscape:current-layer="layer1" />
  <defs
     id="defs501">
    <g
       id="id-a4a46084-2bc0-450d-87f4-5eb793f03f80">
      <symbol
         overflow="visible"
         id="id-d493f773-e969-4932-9fd5-0dff278a925b">
        <path
           style="stroke:none;stroke-width:0"
           d=""
           id="id-5d972fee-ec42-436f-8c2b-532a74be3c49" />
      </symbol>
      <symbol
         overflow="visible"
         id="id-2f0cdaf8-c020-4e43-ac41-66396b401870">
        <path
           style="stroke:none;stroke-width:0"
           d="m 4,-3.84375 1.375,-2.015625 c 0.21875,-0.3125 0.5625,-0.625 1.4375,-0.640625 v -0.3125 c -0.375,0.015625 -0.84375,0.03125 -1.09375,0.03125 -0.40625,0 -0.890625,0 -1.28125,-0.03125 V -6.5 c 0.390625,0.015625 0.609375,0.234375 0.609375,0.453125 0,0.109375 -0.015625,0.125 -0.078125,0.234375 L 3.828125,-4.125 2.546875,-6.046875 C 2.515625,-6.078125 2.46875,-6.15625 2.46875,-6.203125 2.46875,-6.3125 2.6875,-6.484375 3.125,-6.5 v -0.3125 c -0.359375,0.03125 -1.078125,0.03125 -1.453125,0.03125 -0.3125,0 -0.9375,0 -1.296875,-0.03125 V -6.5 h 0.1875 c 0.546875,0 0.734375,0.0625 0.921875,0.34375 L 3.3125,-3.375 1.6875,-0.96875 C 1.546875,-0.765625 1.25,-0.3125 0.234375,-0.3125 V 0 c 0.359375,-0.015625 0.78125,-0.03125 1.109375,-0.03125 0.375,0 0.921875,0 1.28125,0.03125 V -0.3125 C 2.15625,-0.3125 2,-0.59375 2,-0.765625 2,-0.859375 2.03125,-0.890625 2.09375,-1 l 1.421875,-2.09375 1.5625,2.375 c 0.03125,0.046875 0.0625,0.078125 0.0625,0.109375 0,0.125 -0.21875,0.296875 -0.65625,0.296875 V 0 C 4.828125,-0.03125 5.5625,-0.03125 5.9375,-0.03125 c 0.421875,0 0.875,0.015625 1.296875,0.03125 v -0.3125 h -0.1875 c -0.515625,0 -0.734375,-0.046875 -0.9375,-0.359375 z m 0,0"
           id="id-1d60d8a6-2598-42d0-89b0-f065dc3642b5" />
      </symbol>
    </g>
    <marker
       inkscape:stockid="Arrow2Lstart"
       orient="auto"
       refY="0"
       refX="0"
       id="marker16763"
       style="overflow:visible"
       inkscape:isstock="true">
      <path
         id="path16761"
         style="fill:#000000;fill-opacity:1;fill-rule:evenodd;stroke:#000000;stroke-width:0.625;stroke-linejoin:round;stroke-opacity:1"
         d="M 8.7185878,4.0337352 -2.2072895,0.01601326 8.7185884,-4.0017078 c -1.7454984,2.3720609 -1.7354408,5.6174519 -6e-7,8.035443 z"
         transform="matrix(1.1,0,0,1.1,1.1,0)"
         inkscape:connector-curvature="0" />
    </marker>
    <marker
       inkscape:stockid="Arrow2Lstart"
       orient="auto"
       refY="0"
       refX="0"
       id="marker16763-2"
       style="overflow:visible"
       inkscape:isstock="true">
      <path
         id="path16761-8"
         style="fill:#000000;fill-opacity:1;fill-rule:evenodd;stroke:#000000;stroke-width:0.625;stroke-linejoin:round;stroke-opacity:1"
         d="M 8.7185878,4.0337352 -2.2072895,0.01601326 8.7185884,-4.0017078 c -1.7454984,2.3720609 -1.7354408,5.6174519 -6e-7,8.035443 z"
         transform="matrix(1.1,0,0,1.1,1.1,0)"
         inkscape:connector-curvature="0" />
    </marker>
    <marker
       inkscape:stockid="Arrow2Lstart"
       orient="auto"
       refY="0"
       refX="0"
       id="marker16763-7"
       style="overflow:visible"
       inkscape:isstock="true">
      <path
         id="path16761-3"
         style="fill:#000000;fill-opacity:1;fill-rule:evenodd;stroke:#000000;stroke-width:0.625;stroke-linejoin:round;stroke-opacity:1"
         d="M 8.7185878,4.0337352 -2.2072895,0.01601326 8.7185884,-4.0017078 c -1.7454984,2.3720609 -1.7354408,5.6174519 -6e-7,8.035443 z"
         transform="matrix(1.1,0,0,1.1,1.1,0)"
         inkscape:connector-curvature="0" />
    </marker>
  </defs>
  <g
     inkscape:label="Layer 1"
     inkscape:groupmode="layer"
     id="layer1">
    <g
       id="g5560"
       transform="translate(74.482375,-13.554352)">
      <path
         inkscape:connector-curvature="0"
         style="fill:none;stroke:#000000;stroke-width:0.140582;stroke-linecap:butt;stroke-linejoin:miter;stroke-miterlimit:10;stroke-opacity:1"
         d="m 38.648263,127.61784 h 4.90031"
         id="path4132-3" />
      <path
         inkscape:connector-curvature="0"
         style="fill:none;stroke:#000000;stroke-width:0.140582;stroke-linecap:butt;stroke-linejoin:miter;stroke-miterlimit:10;stroke-opacity:1"
         d="M 32.143757,120.61876 H 43.548573"
         id="path4138-3" />
      <path
         inkscape:connector-curvature="0"
         style="fill:none;stroke:#000000;stroke-width:0.140582;stroke-linecap:butt;stroke-linejoin:miter;stroke-miterlimit:10;stroke-opacity:1"
         d="m 54.749263,124.11762 h 4.89893"
         id="path4144-9" />
      <path
         inkscape:connector-curvature="0"
         style="fill:none;stroke:#000000;stroke-width:0.140582;stroke-linecap:butt;stroke-linejoin:miter;stroke-miterlimit:10;stroke-opacity:1"
         d="m 43.548573,129.71796 v -11.19931 h 11.20069 v 11.19931 z m 0,0"
         id="path4146-1" />
      <g
         transform="matrix(0.491696,0,0,0.491696,47.554403,122.40084)"
         ns1:version="1.8.2"
         ns1:texconverter="pdflatex"
         ns1:pdfconverter="inkscape"
         ns1:text="X"
         ns1:preamble="/home/eb/.config/inkscape/extensions/textext/default_packages.tex"
         ns1:scale="2.5"
         ns1:alignment="middle center"
         ns1:stroke-to-path="0"
         ns1:inkscapeversion="1.2.2"
         ns1:jacobian_sqrt="0.881945"
         id="g2933"
         style="stroke-width:1.79368">
        <defs
           id="id-ce469a42-8d3d-4c76-bef7-99ed6bceff94">
          <g
             id="g7044">
            <symbol
               overflow="visible"
               id="symbol7038">
              <path
                 style="stroke:none;stroke-width:0"
                 d=""
                 id="path7036" />
            </symbol>
            <symbol
               overflow="visible"
               id="symbol7042">
              <path
                 style="stroke:none;stroke-width:0"
                 d="m 4,-3.84375 1.375,-2.015625 c 0.21875,-0.3125 0.5625,-0.625 1.4375,-0.640625 v -0.3125 c -0.375,0.015625 -0.84375,0.03125 -1.09375,0.03125 -0.40625,0 -0.890625,0 -1.28125,-0.03125 V -6.5 c 0.390625,0.015625 0.609375,0.234375 0.609375,0.453125 0,0.109375 -0.015625,0.125 -0.078125,0.234375 L 3.828125,-4.125 2.546875,-6.046875 C 2.515625,-6.078125 2.46875,-6.15625 2.46875,-6.203125 2.46875,-6.3125 2.6875,-6.484375 3.125,-6.5 v -0.3125 c -0.359375,0.03125 -1.078125,0.03125 -1.453125,0.03125 -0.3125,0 -0.9375,0 -1.296875,-0.03125 V -6.5 h 0.1875 c 0.546875,0 0.734375,0.0625 0.921875,0.34375 L 3.3125,-3.375 1.6875,-0.96875 C 1.546875,-0.765625 1.25,-0.3125 0.234375,-0.3125 V 0 c 0.359375,-0.015625 0.78125,-0.03125 1.109375,-0.03125 0.375,0 0.921875,0 1.28125,0.03125 V -0.3125 C 2.15625,-0.3125 2,-0.59375 2,-0.765625 2,-0.859375 2.03125,-0.890625 2.09375,-1 l 1.421875,-2.09375 1.5625,2.375 c 0.03125,0.046875 0.0625,0.078125 0.0625,0.109375 0,0.125 -0.21875,0.296875 -0.65625,0.296875 V 0 C 4.828125,-0.03125 5.5625,-0.03125 5.9375,-0.03125 c 0.421875,0 0.875,0.015625 1.296875,0.03125 v -0.3125 h -0.1875 c -0.515625,0 -0.734375,-0.046875 -0.9375,-0.359375 z m 0,0"
                 id="path7040" />
            </symbol>
          </g>
        </defs>
        <g
           id="id-b81bce4c-7a65-4c49-bec5-4a43b99e465b"
           transform="translate(-148.946,-127.953)"
           style="stroke-width:1.79368">
          <g
             style="fill:#000000;fill-opacity:1;stroke-width:1.79368"
             id="id-b9ebeb21-14c7-401f-9f3e-ab40f6558f05">
            <g
               transform="translate(148.712,134.765)"
               id="g2929"
               style="stroke-width:1.79368">
              <path
                 style="stroke:none;stroke-width:0"
                 d="m 4,-3.84375 1.375,-2.015625 c 0.21875,-0.3125 0.5625,-0.625 1.4375,-0.640625 v -0.3125 c -0.375,0.015625 -0.84375,0.03125 -1.09375,0.03125 -0.40625,0 -0.890625,0 -1.28125,-0.03125 V -6.5 c 0.390625,0.015625 0.609375,0.234375 0.609375,0.453125 0,0.109375 -0.015625,0.125 -0.078125,0.234375 L 3.828125,-4.125 2.546875,-6.046875 C 2.515625,-6.078125 2.46875,-6.15625 2.46875,-6.203125 2.46875,-6.3125 2.6875,-6.484375 3.125,-6.5 v -0.3125 c -0.359375,0.03125 -1.078125,0.03125 -1.453125,0.03125 -0.3125,0 -0.9375,0 -1.296875,-0.03125 V -6.5 h 0.1875 c 0.546875,0 0.734375,0.0625 0.921875,0.34375 L 3.3125,-3.375 1.6875,-0.96875 C 1.546875,-0.765625 1.25,-0.3125 0.234375,-0.3125 V 0 c 0.359375,-0.015625 0.78125,-0.03125 1.109375,-0.03125 0.375,0 0.921875,0 1.28125,0.03125 V -0.3125 C 2.15625,-0.3125 2,-0.59375 2,-0.765625 2,-0.859375 2.03125,-0.890625 2.09375,-1 l 1.421875,-2.09375 1.5625,2.375 c 0.03125,0.046875 0.0625,0.078125 0.0625,0.109375 0,0.125 -0.21875,0.296875 -0.65625,0.296875 V 0 C 4.828125,-0.03125 5.5625,-0.03125 5.9375,-0.03125 c 0.421875,0 0.875,0.015625 1.296875,0.03125 v -0.3125 h -0.1875 c -0.515625,0 -0.734375,-0.046875 -0.9375,-0.359375 z m 0,0"
                 id="id-d00d8253-f660-44ea-9007-ba5cab9aeaf6" />
            </g>
          </g>
        </g>
      </g>
    </g>
    <path
       inkscape:connector-curvature="0"
       style="fill:none;stroke:#000000;stroke-width:0.140494;stroke-linecap:butt;stroke-linejoin:miter;stroke-miterlimit:10;stroke-dasharray:none;stroke-opacity:1;marker-start:url(#marker16763)"
       d="m 107.14315,108.27227 v 15.09399"
       id="path16759" />
    <path
       inkscape:connector-curvature="0"
       style="fill:none;stroke:#000000;stroke-width:0.140494;stroke-linecap:butt;stroke-linejoin:miter;stroke-miterlimit:10;stroke-dasharray:none;stroke-opacity:1;marker-start:url(#marker16763-2)"
       d="m 113.56917,114.80494 v 8.67169"
       id="path16759-9" />
    <path
       inkscape:connector-curvature="0"
       style="fill:none;stroke:#000000;stroke-width:0.140494;stroke-linecap:butt;stroke-linejoin:miter;stroke-miterlimit:10;stroke-dasharray:none;stroke-opacity:1;marker-start:url(#marker16763-7)"
       d="m 132.98903,111.54737 v 11.80797"
       id="path16759-6" />
    <g
       transform="matrix(0.30046948,0,0,0.30046948,102.90017,103.50486)"
       ns1:version="1.8.2"
       ns1:texconverter="pdflatex"
       ns1:pdfconverter="inkscape"
       ns1:text="$s_i(t)$"
       ns1:preamble="/home/eb/.config/inkscape/extensions/textext/default_packages.tex"
       ns1:scale="2.5"
       ns1:alignment="middle center"
       ns1:stroke-to-path="0"
       ns1:jacobian_sqrt="0.881945"
       id="g8070"
       style="stroke-width:2.93522">
      <defs
         id="id-e52a7c93-c049-446b-be2a-038215e3e2d2">
        <g
           id="id-42e958ef-701a-4a71-9f4f-50d9e60b2411">
          <symbol
             overflow="visible"
             id="id-609bd481-71dd-46a3-bbbe-af4e9ec47311">
            <path
               style="stroke:none;stroke-width:0"
               d=""
               id="id-788eed38-eb22-4e63-b49e-4f0866e65872" />
          </symbol>
          <symbol
             overflow="visible"
             id="id-0db12fa6-9861-4adf-b617-92eb35a88eab">
            <path
               style="stroke:none;stroke-width:0"
               d="M 3.890625,-3.734375 C 3.625,-3.71875 3.421875,-3.5 3.421875,-3.28125 c 0,0.140625 0.09375,0.296875 0.3125,0.296875 0.21875,0 0.453125,-0.171875 0.453125,-0.5625 C 4.1875,-4 3.765625,-4.40625 3,-4.40625 c -1.3125,0 -1.6875,1.015625 -1.6875,1.453125 0,0.78125 0.734375,0.921875 1.03125,0.984375 0.515625,0.109375 1.03125,0.21875 1.03125,0.765625 0,0.25 -0.21875,1.09375 -1.421875,1.09375 -0.140625,0 -0.90625,0 -1.140625,-0.53125 0.390625,0.046875 0.640625,-0.25 0.640625,-0.53125 0,-0.21875 -0.171875,-0.34375 -0.375,-0.34375 -0.265625,0 -0.5625,0.203125 -0.5625,0.65625 0,0.5625 0.578125,0.96875 1.421875,0.96875 1.625,0 2.015625,-1.203125 2.015625,-1.65625 0,-0.359375 -0.1875,-0.609375 -0.3125,-0.71875 -0.265625,-0.28125 -0.5625,-0.34375 -1,-0.421875 -0.359375,-0.078125 -0.75,-0.15625 -0.75,-0.609375 C 1.890625,-3.578125 2.125,-4.1875 3,-4.1875 c 0.25,0 0.75,0.078125 0.890625,0.453125 z m 0,0"
               id="id-ac0ac2e3-4e84-4e9e-9fda-2bbd3e41c8eb" />
          </symbol>
          <symbol
             overflow="visible"
             id="id-eb4567bb-66a5-4172-9436-f6bc4e01f260">
            <path
               style="stroke:none;stroke-width:0"
               d="m 2.046875,-3.984375 h 0.9375 c 0.203125,0 0.3125,0 0.3125,-0.203125 0,-0.109375 -0.109375,-0.109375 -0.28125,-0.109375 h -0.875 C 2.5,-5.71875 2.546875,-5.90625 2.546875,-5.96875 c 0,-0.171875 -0.125,-0.265625 -0.296875,-0.265625 -0.03125,0 -0.3125,0 -0.390625,0.359375 L 1.46875,-4.296875 h -0.9375 c -0.203125,0 -0.296875,0 -0.296875,0.1875 0,0.125 0.078125,0.125 0.28125,0.125 h 0.875 C 0.671875,-1.15625 0.625,-0.984375 0.625,-0.8125 0.625,-0.265625 1,0.109375 1.546875,0.109375 2.5625,0.109375 3.125,-1.34375 3.125,-1.421875 3.125,-1.53125 3.046875,-1.53125 3.015625,-1.53125 2.921875,-1.53125 2.90625,-1.5 2.859375,-1.390625 2.4375,-0.34375 1.90625,-0.109375 1.5625,-0.109375 c -0.203125,0 -0.3125,-0.125 -0.3125,-0.453125 0,-0.25 0.03125,-0.3125 0.0625,-0.484375 z m 0,0"
               id="id-3adedc46-7040-402d-afcf-8e8c4c82d7d2" />
          </symbol>
          <symbol
             overflow="visible"
             id="id-bf43fc0d-5dd9-4f2f-8b58-ec22373b7b90">
            <path
               style="stroke:none;stroke-width:0"
               d=""
               id="id-b7cf9934-f23d-49ca-97a2-a0dbf71569ea" />
          </symbol>
          <symbol
             overflow="visible"
             id="id-1ce4bae7-6c99-4670-8ff4-10bc514ad57a">
            <path
               style="stroke:none;stroke-width:0"
               d="m 2.265625,-4.359375 c 0,-0.109375 -0.09375,-0.265625 -0.28125,-0.265625 -0.1875,0 -0.390625,0.1875 -0.390625,0.390625 0,0.109375 0.078125,0.265625 0.28125,0.265625 0.1875,0 0.390625,-0.203125 0.390625,-0.390625 z M 0.84375,-0.8125 c -0.03125,0.09375 -0.0625,0.171875 -0.0625,0.296875 0,0.328125 0.265625,0.578125 0.65625,0.578125 0.6875,0 1,-0.953125 1,-1.0625 0,-0.09375 -0.09375,-0.09375 -0.109375,-0.09375 -0.09375,0 -0.109375,0.046875 -0.140625,0.125 -0.15625,0.5625 -0.453125,0.84375 -0.734375,0.84375 -0.140625,0 -0.171875,-0.09375 -0.171875,-0.25 0,-0.15625 0.046875,-0.28125 0.109375,-0.4375 C 1.46875,-1 1.546875,-1.1875 1.609375,-1.375 1.671875,-1.546875 1.9375,-2.171875 1.953125,-2.265625 1.984375,-2.328125 2,-2.40625 2,-2.484375 2,-2.8125 1.71875,-3.078125 1.34375,-3.078125 0.640625,-3.078125 0.328125,-2.125 0.328125,-2 c 0,0.078125 0.09375,0.078125 0.125,0.078125 0.09375,0 0.09375,-0.03125 0.125,-0.109375 C 0.75,-2.625 1.0625,-2.875 1.3125,-2.875 c 0.109375,0 0.171875,0.046875 0.171875,0.234375 0,0.171875 -0.03125,0.265625 -0.203125,0.703125 z m 0,0"
               id="id-c6e123ee-0f85-4ad8-a5b3-d1af342968bb" />
          </symbol>
          <symbol
             overflow="visible"
             id="id-fe26d14b-be77-44b5-a9a7-a36899601f6a">
            <path
               style="stroke:none;stroke-width:0"
               d=""
               id="id-dd93a54b-3563-4461-a6af-a2e6ccc3680a" />
          </symbol>
          <symbol
             overflow="visible"
             id="id-f98e033a-ea8b-4ae7-9107-f993ff907873">
            <path
               style="stroke:none;stroke-width:0"
               d="m 3.296875,2.390625 c 0,-0.03125 0,-0.046875 -0.171875,-0.21875 C 1.890625,0.921875 1.5625,-0.96875 1.5625,-2.5 c 0,-1.734375 0.375,-3.46875 1.609375,-4.703125 0.125,-0.125 0.125,-0.140625 0.125,-0.171875 0,-0.078125 -0.03125,-0.109375 -0.09375,-0.109375 -0.109375,0 -1,0.6875 -1.59375,1.953125 -0.5,1.09375 -0.625,2.203125 -0.625,3.03125 0,0.78125 0.109375,1.984375 0.65625,3.125 C 2.25,1.84375 3.09375,2.5 3.203125,2.5 c 0.0625,0 0.09375,-0.03125 0.09375,-0.109375 z m 0,0"
               id="id-f5c3eec2-be59-449e-b694-d84810e349e3" />
          </symbol>
          <symbol
             overflow="visible"
             id="id-b5ba24b6-2d31-43ce-b113-c33c4b710b47">
            <path
               style="stroke:none;stroke-width:0"
               d="m 2.875,-2.5 c 0,-0.765625 -0.109375,-1.96875 -0.65625,-3.109375 -0.59375,-1.21875 -1.453125,-1.875 -1.546875,-1.875 -0.0625,0 -0.109375,0.046875 -0.109375,0.109375 0,0.03125 0,0.046875 0.1875,0.234375 0.984375,0.984375 1.546875,2.5625 1.546875,4.640625 0,1.71875 -0.359375,3.46875 -1.59375,4.71875 C 0.5625,2.34375 0.5625,2.359375 0.5625,2.390625 0.5625,2.453125 0.609375,2.5 0.671875,2.5 0.765625,2.5 1.671875,1.8125 2.25,0.546875 2.765625,-0.546875 2.875,-1.65625 2.875,-2.5 Z m 0,0"
               id="id-170567bf-34e5-4980-8999-51e94a13fde2" />
          </symbol>
        </g>
      </defs>
      <g
         id="id-20bab178-0ae5-4dcc-85d8-e9f68ee90654"
         transform="translate(-149.228,-127.281)"
         style="stroke-width:2.93522">
        <g
           style="fill:#000000;fill-opacity:1;stroke-width:2.93522"
           id="id-8e30efb3-a955-4b41-9c1a-1a63deb8172c">
          <g
             transform="translate(148.712,134.765)"
             id="g8050"
             style="stroke-width:2.93522">
            <path
               style="stroke:none;stroke-width:0"
               d="M 3.890625,-3.734375 C 3.625,-3.71875 3.421875,-3.5 3.421875,-3.28125 c 0,0.140625 0.09375,0.296875 0.3125,0.296875 0.21875,0 0.453125,-0.171875 0.453125,-0.5625 C 4.1875,-4 3.765625,-4.40625 3,-4.40625 c -1.3125,0 -1.6875,1.015625 -1.6875,1.453125 0,0.78125 0.734375,0.921875 1.03125,0.984375 0.515625,0.109375 1.03125,0.21875 1.03125,0.765625 0,0.25 -0.21875,1.09375 -1.421875,1.09375 -0.140625,0 -0.90625,0 -1.140625,-0.53125 0.390625,0.046875 0.640625,-0.25 0.640625,-0.53125 0,-0.21875 -0.171875,-0.34375 -0.375,-0.34375 -0.265625,0 -0.5625,0.203125 -0.5625,0.65625 0,0.5625 0.578125,0.96875 1.421875,0.96875 1.625,0 2.015625,-1.203125 2.015625,-1.65625 0,-0.359375 -0.1875,-0.609375 -0.3125,-0.71875 -0.265625,-0.28125 -0.5625,-0.34375 -1,-0.421875 -0.359375,-0.078125 -0.75,-0.15625 -0.75,-0.609375 C 1.890625,-3.578125 2.125,-4.1875 3,-4.1875 c 0.25,0 0.75,0.078125 0.890625,0.453125 z m 0,0"
               id="id-dd1425a9-f779-450a-933d-de303a7a8a6d" />
          </g>
        </g>
        <g
           style="fill:#000000;fill-opacity:1;stroke-width:2.93522"
           id="id-41c0e5e3-e8c8-45a9-9275-d3e5252d2857">
          <g
             transform="translate(153.382,136.259)"
             id="g8054"
             style="stroke-width:2.93522">
            <path
               style="stroke:none;stroke-width:0"
               d="m 2.265625,-4.359375 c 0,-0.109375 -0.09375,-0.265625 -0.28125,-0.265625 -0.1875,0 -0.390625,0.1875 -0.390625,0.390625 0,0.109375 0.078125,0.265625 0.28125,0.265625 0.1875,0 0.390625,-0.203125 0.390625,-0.390625 z M 0.84375,-0.8125 c -0.03125,0.09375 -0.0625,0.171875 -0.0625,0.296875 0,0.328125 0.265625,0.578125 0.65625,0.578125 0.6875,0 1,-0.953125 1,-1.0625 0,-0.09375 -0.09375,-0.09375 -0.109375,-0.09375 -0.09375,0 -0.109375,0.046875 -0.140625,0.125 -0.15625,0.5625 -0.453125,0.84375 -0.734375,0.84375 -0.140625,0 -0.171875,-0.09375 -0.171875,-0.25 0,-0.15625 0.046875,-0.28125 0.109375,-0.4375 C 1.46875,-1 1.546875,-1.1875 1.609375,-1.375 1.671875,-1.546875 1.9375,-2.171875 1.953125,-2.265625 1.984375,-2.328125 2,-2.40625 2,-2.484375 2,-2.8125 1.71875,-3.078125 1.34375,-3.078125 0.640625,-3.078125 0.328125,-2.125 0.328125,-2 c 0,0.078125 0.09375,0.078125 0.125,0.078125 0.09375,0 0.09375,-0.03125 0.125,-0.109375 C 0.75,-2.625 1.0625,-2.875 1.3125,-2.875 c 0.109375,0 0.171875,0.046875 0.171875,0.234375 0,0.171875 -0.03125,0.265625 -0.203125,0.703125 z m 0,0"
               id="id-4dc76686-3965-4d30-8136-13de79b532ef" />
          </g>
        </g>
        <g
           style="fill:#000000;fill-opacity:1;stroke-width:2.93522"
           id="id-fea16a37-970f-4039-86b3-df4f2be9c73c">
          <g
             transform="translate(156.699,134.765)"
             id="g8058"
             style="stroke-width:2.93522">
            <path
               style="stroke:none;stroke-width:0"
               d="m 3.296875,2.390625 c 0,-0.03125 0,-0.046875 -0.171875,-0.21875 C 1.890625,0.921875 1.5625,-0.96875 1.5625,-2.5 c 0,-1.734375 0.375,-3.46875 1.609375,-4.703125 0.125,-0.125 0.125,-0.140625 0.125,-0.171875 0,-0.078125 -0.03125,-0.109375 -0.09375,-0.109375 -0.109375,0 -1,0.6875 -1.59375,1.953125 -0.5,1.09375 -0.625,2.203125 -0.625,3.03125 0,0.78125 0.109375,1.984375 0.65625,3.125 C 2.25,1.84375 3.09375,2.5 3.203125,2.5 c 0.0625,0 0.09375,-0.03125 0.09375,-0.109375 z m 0,0"
               id="id-30974ade-5842-41e8-acd9-cd6c3f33492a" />
          </g>
        </g>
        <g
           style="fill:#000000;fill-opacity:1;stroke-width:2.93522"
           id="id-f3fa40f8-dc1b-40f0-8abe-101d98f5119e">
          <g
             transform="translate(160.573,134.765)"
             id="g8062"
             style="stroke-width:2.93522">
            <path
               style="stroke:none;stroke-width:0"
               d="m 2.046875,-3.984375 h 0.9375 c 0.203125,0 0.3125,0 0.3125,-0.203125 0,-0.109375 -0.109375,-0.109375 -0.28125,-0.109375 h -0.875 C 2.5,-5.71875 2.546875,-5.90625 2.546875,-5.96875 c 0,-0.171875 -0.125,-0.265625 -0.296875,-0.265625 -0.03125,0 -0.3125,0 -0.390625,0.359375 L 1.46875,-4.296875 h -0.9375 c -0.203125,0 -0.296875,0 -0.296875,0.1875 0,0.125 0.078125,0.125 0.28125,0.125 h 0.875 C 0.671875,-1.15625 0.625,-0.984375 0.625,-0.8125 0.625,-0.265625 1,0.109375 1.546875,0.109375 2.5625,0.109375 3.125,-1.34375 3.125,-1.421875 3.125,-1.53125 3.046875,-1.53125 3.015625,-1.53125 2.921875,-1.53125 2.90625,-1.5 2.859375,-1.390625 2.4375,-0.34375 1.90625,-0.109375 1.5625,-0.109375 c -0.203125,0 -0.3125,-0.125 -0.3125,-0.453125 0,-0.25 0.03125,-0.3125 0.0625,-0.484375 z m 0,0"
               id="id-564fc1f5-cdee-457f-b6c9-a9cea259ce25" />
          </g>
        </g>
        <g
           style="fill:#000000;fill-opacity:1;stroke-width:2.93522"
           id="id-e8ed4421-0a95-4f05-acce-048cec6cd013">
          <g
             transform="translate(164.171,134.765)"
             id="g8066"
             style="stroke-width:2.93522">
            <path
               style="stroke:none;stroke-width:0"
               d="m 2.875,-2.5 c 0,-0.765625 -0.109375,-1.96875 -0.65625,-3.109375 -0.59375,-1.21875 -1.453125,-1.875 -1.546875,-1.875 -0.0625,0 -0.109375,0.046875 -0.109375,0.109375 0,0.03125 0,0.046875 0.1875,0.234375 0.984375,0.984375 1.546875,2.5625 1.546875,4.640625 0,1.71875 -0.359375,3.46875 -1.59375,4.71875 C 0.5625,2.34375 0.5625,2.359375 0.5625,2.390625 0.5625,2.453125 0.609375,2.5 0.671875,2.5 0.765625,2.5 1.671875,1.8125 2.25,0.546875 2.765625,-0.546875 2.875,-1.65625 2.875,-2.5 Z m 0,0"
               id="id-a64adfed-a62f-4d32-9268-0b7e44faf15a" />
          </g>
        </g>
      </g>
    </g>
    <g
       transform="matrix(0.33856497,0,0,0.33856497,114.27636,117.70499)"
       ns1:version="1.8.2"
       ns1:texconverter="pdflatex"
       ns1:pdfconverter="inkscape"
       ns1:text="$s_p(t)$"
       ns1:preamble="/home/eb/.config/inkscape/extensions/textext/default_packages.tex"
       ns1:scale="2.5"
       ns1:alignment="middle center"
       ns1:stroke-to-path="0"
       ns1:jacobian_sqrt="0.881945"
       id="g8407"
       style="stroke-width:2.60495">
      <defs
         id="id-8ce900b7-37c6-498c-99d3-bee9f62f55bb">
        <g
           id="id-471ef6fa-38c0-485c-b1cf-e49d9cf0da85">
          <symbol
             overflow="visible"
             id="id-1b49ce69-fc1d-44df-b670-74bc110c5449">
            <path
               style="stroke:none;stroke-width:0"
               d=""
               id="id-4e78f6e3-f382-469f-9599-7331b270fb3a" />
          </symbol>
          <symbol
             overflow="visible"
             id="id-b7fbfd7f-9642-48bd-8649-d3069196810f">
            <path
               style="stroke:none;stroke-width:0"
               d="M 3.890625,-3.734375 C 3.625,-3.71875 3.421875,-3.5 3.421875,-3.28125 c 0,0.140625 0.09375,0.296875 0.3125,0.296875 0.21875,0 0.453125,-0.171875 0.453125,-0.5625 C 4.1875,-4 3.765625,-4.40625 3,-4.40625 c -1.3125,0 -1.6875,1.015625 -1.6875,1.453125 0,0.78125 0.734375,0.921875 1.03125,0.984375 0.515625,0.109375 1.03125,0.21875 1.03125,0.765625 0,0.25 -0.21875,1.09375 -1.421875,1.09375 -0.140625,0 -0.90625,0 -1.140625,-0.53125 0.390625,0.046875 0.640625,-0.25 0.640625,-0.53125 0,-0.21875 -0.171875,-0.34375 -0.375,-0.34375 -0.265625,0 -0.5625,0.203125 -0.5625,0.65625 0,0.5625 0.578125,0.96875 1.421875,0.96875 1.625,0 2.015625,-1.203125 2.015625,-1.65625 0,-0.359375 -0.1875,-0.609375 -0.3125,-0.71875 -0.265625,-0.28125 -0.5625,-0.34375 -1,-0.421875 -0.359375,-0.078125 -0.75,-0.15625 -0.75,-0.609375 C 1.890625,-3.578125 2.125,-4.1875 3,-4.1875 c 0.25,0 0.75,0.078125 0.890625,0.453125 z m 0,0"
               id="id-923ab702-ca86-40d5-8b1d-4a580f734b9d" />
          </symbol>
          <symbol
             overflow="visible"
             id="id-a06de276-cb20-4423-a835-49994a545a69">
            <path
               style="stroke:none;stroke-width:0"
               d="m 2.046875,-3.984375 h 0.9375 c 0.203125,0 0.3125,0 0.3125,-0.203125 0,-0.109375 -0.109375,-0.109375 -0.28125,-0.109375 h -0.875 C 2.5,-5.71875 2.546875,-5.90625 2.546875,-5.96875 c 0,-0.171875 -0.125,-0.265625 -0.296875,-0.265625 -0.03125,0 -0.3125,0 -0.390625,0.359375 L 1.46875,-4.296875 h -0.9375 c -0.203125,0 -0.296875,0 -0.296875,0.1875 0,0.125 0.078125,0.125 0.28125,0.125 h 0.875 C 0.671875,-1.15625 0.625,-0.984375 0.625,-0.8125 0.625,-0.265625 1,0.109375 1.546875,0.109375 2.5625,0.109375 3.125,-1.34375 3.125,-1.421875 3.125,-1.53125 3.046875,-1.53125 3.015625,-1.53125 2.921875,-1.53125 2.90625,-1.5 2.859375,-1.390625 2.4375,-0.34375 1.90625,-0.109375 1.5625,-0.109375 c -0.203125,0 -0.3125,-0.125 -0.3125,-0.453125 0,-0.25 0.03125,-0.3125 0.0625,-0.484375 z m 0,0"
               id="id-97cd5e3b-f44e-450b-b2a8-171902362f59" />
          </symbol>
          <symbol
             overflow="visible"
             id="id-4a6f2a5f-3395-4dc2-97f5-4aac05b16ad6">
            <path
               style="stroke:none;stroke-width:0"
               d=""
               id="id-e48f1de8-da76-4311-b64c-68077b89355b" />
          </symbol>
          <symbol
             overflow="visible"
             id="id-54bf1912-54a3-43f5-8a34-1be8434ee8ab">
            <path
               style="stroke:none;stroke-width:0"
               d="m 0.515625,0.84375 c -0.046875,0.203125 -0.0625,0.25 -0.328125,0.25 -0.09375,0 -0.1875,0 -0.1875,0.15625 0,0.078125 0.0625,0.109375 0.09375,0.109375 0.171875,0 0.40625,-0.03125 0.59375,-0.03125 0.234375,0 0.5,0.03125 0.734375,0.03125 0.0625,0 0.140625,-0.03125 0.140625,-0.15625 0,-0.109375 -0.09375,-0.109375 -0.1875,-0.109375 -0.15625,0 -0.34375,0 -0.34375,-0.078125 0,-0.03125 0.0625,-0.21875 0.078125,-0.3125 0.09375,-0.375 0.1875,-0.75 0.265625,-1.046875 0.078125,0.140625 0.296875,0.40625 0.71875,0.40625 0.84375,0 1.78125,-0.9375 1.78125,-1.96875 0,-0.8125 -0.5625,-1.171875 -1.03125,-1.171875 -0.4375,0 -0.8125,0.296875 -1,0.5 -0.109375,-0.40625 -0.5,-0.5 -0.71875,-0.5 -0.265625,0 -0.4375,0.1875 -0.546875,0.375 -0.140625,0.234375 -0.25,0.65625 -0.25,0.703125 0,0.078125 0.09375,0.078125 0.125,0.078125 0.09375,0 0.09375,-0.015625 0.140625,-0.203125 0.109375,-0.40625 0.25,-0.75 0.515625,-0.75 0.1875,0 0.234375,0.15625 0.234375,0.34375 0,0.078125 -0.015625,0.15625 -0.03125,0.203125 z M 1.84375,-2.234375 C 2.25,-2.78125 2.59375,-2.875 2.8125,-2.875 c 0.28125,0 0.515625,0.203125 0.515625,0.671875 0,0.28125 -0.15625,1 -0.359375,1.40625 -0.1875,0.34375 -0.515625,0.671875 -0.875,0.671875 -0.5,0 -0.625,-0.53125 -0.625,-0.609375 0,-0.03125 0.015625,-0.078125 0.015625,-0.109375 z m 0,0"
               id="id-25610bb0-a983-45e9-afa7-dd79066f4ff8" />
          </symbol>
          <symbol
             overflow="visible"
             id="id-66a21f6c-7454-403b-988c-c95198037c8e">
            <path
               style="stroke:none;stroke-width:0"
               d=""
               id="id-26e3b040-7515-4240-8cb0-f30a4b2a78a9" />
          </symbol>
          <symbol
             overflow="visible"
             id="id-c98810a9-037a-4449-9a61-30286656daae">
            <path
               style="stroke:none;stroke-width:0"
               d="m 3.296875,2.390625 c 0,-0.03125 0,-0.046875 -0.171875,-0.21875 C 1.890625,0.921875 1.5625,-0.96875 1.5625,-2.5 c 0,-1.734375 0.375,-3.46875 1.609375,-4.703125 0.125,-0.125 0.125,-0.140625 0.125,-0.171875 0,-0.078125 -0.03125,-0.109375 -0.09375,-0.109375 -0.109375,0 -1,0.6875 -1.59375,1.953125 -0.5,1.09375 -0.625,2.203125 -0.625,3.03125 0,0.78125 0.109375,1.984375 0.65625,3.125 C 2.25,1.84375 3.09375,2.5 3.203125,2.5 c 0.0625,0 0.09375,-0.03125 0.09375,-0.109375 z m 0,0"
               id="id-01f7cada-eced-4460-9dca-5d52a32031d4" />
          </symbol>
          <symbol
             overflow="visible"
             id="id-81829460-4049-4ecc-a192-49cd66f0dfb9">
            <path
               style="stroke:none;stroke-width:0"
               d="m 2.875,-2.5 c 0,-0.765625 -0.109375,-1.96875 -0.65625,-3.109375 -0.59375,-1.21875 -1.453125,-1.875 -1.546875,-1.875 -0.0625,0 -0.109375,0.046875 -0.109375,0.109375 0,0.03125 0,0.046875 0.1875,0.234375 0.984375,0.984375 1.546875,2.5625 1.546875,4.640625 0,1.71875 -0.359375,3.46875 -1.59375,4.71875 C 0.5625,2.34375 0.5625,2.359375 0.5625,2.390625 0.5625,2.453125 0.609375,2.5 0.671875,2.5 0.765625,2.5 1.671875,1.8125 2.25,0.546875 2.765625,-0.546875 2.875,-1.65625 2.875,-2.5 Z m 0,0"
               id="id-60d6cedf-540a-4af1-8f86-e760c99ae5f8" />
          </symbol>
        </g>
      </defs>
      <g
         id="id-02731bc4-fcff-40e8-a16f-118a306b5f4d"
         transform="translate(-149.228,-127.281)"
         style="stroke-width:2.60495">
        <g
           style="fill:#000000;fill-opacity:1;stroke-width:2.60495"
           id="id-b02be3ce-d36c-4bde-b3bf-acbb87eaf01e">
          <g
             transform="translate(148.712,134.765)"
             id="g8387"
             style="stroke-width:2.60495">
            <path
               style="stroke:none;stroke-width:0"
               d="M 3.890625,-3.734375 C 3.625,-3.71875 3.421875,-3.5 3.421875,-3.28125 c 0,0.140625 0.09375,0.296875 0.3125,0.296875 0.21875,0 0.453125,-0.171875 0.453125,-0.5625 C 4.1875,-4 3.765625,-4.40625 3,-4.40625 c -1.3125,0 -1.6875,1.015625 -1.6875,1.453125 0,0.78125 0.734375,0.921875 1.03125,0.984375 0.515625,0.109375 1.03125,0.21875 1.03125,0.765625 0,0.25 -0.21875,1.09375 -1.421875,1.09375 -0.140625,0 -0.90625,0 -1.140625,-0.53125 0.390625,0.046875 0.640625,-0.25 0.640625,-0.53125 0,-0.21875 -0.171875,-0.34375 -0.375,-0.34375 -0.265625,0 -0.5625,0.203125 -0.5625,0.65625 0,0.5625 0.578125,0.96875 1.421875,0.96875 1.625,0 2.015625,-1.203125 2.015625,-1.65625 0,-0.359375 -0.1875,-0.609375 -0.3125,-0.71875 -0.265625,-0.28125 -0.5625,-0.34375 -1,-0.421875 -0.359375,-0.078125 -0.75,-0.15625 -0.75,-0.609375 C 1.890625,-3.578125 2.125,-4.1875 3,-4.1875 c 0.25,0 0.75,0.078125 0.890625,0.453125 z m 0,0"
               id="id-77314a35-e9bc-4184-98bc-c99f5da64297" />
          </g>
        </g>
        <g
           style="fill:#000000;fill-opacity:1;stroke-width:2.60495"
           id="id-7276304c-a6da-4da1-9a2d-654fa587ee36">
          <g
             transform="translate(153.382,136.259)"
             id="g8391"
             style="stroke-width:2.60495">
            <path
               style="stroke:none;stroke-width:0"
               d="m 0.515625,0.84375 c -0.046875,0.203125 -0.0625,0.25 -0.328125,0.25 -0.09375,0 -0.1875,0 -0.1875,0.15625 0,0.078125 0.0625,0.109375 0.09375,0.109375 0.171875,0 0.40625,-0.03125 0.59375,-0.03125 0.234375,0 0.5,0.03125 0.734375,0.03125 0.0625,0 0.140625,-0.03125 0.140625,-0.15625 0,-0.109375 -0.09375,-0.109375 -0.1875,-0.109375 -0.15625,0 -0.34375,0 -0.34375,-0.078125 0,-0.03125 0.0625,-0.21875 0.078125,-0.3125 0.09375,-0.375 0.1875,-0.75 0.265625,-1.046875 0.078125,0.140625 0.296875,0.40625 0.71875,0.40625 0.84375,0 1.78125,-0.9375 1.78125,-1.96875 0,-0.8125 -0.5625,-1.171875 -1.03125,-1.171875 -0.4375,0 -0.8125,0.296875 -1,0.5 -0.109375,-0.40625 -0.5,-0.5 -0.71875,-0.5 -0.265625,0 -0.4375,0.1875 -0.546875,0.375 -0.140625,0.234375 -0.25,0.65625 -0.25,0.703125 0,0.078125 0.09375,0.078125 0.125,0.078125 0.09375,0 0.09375,-0.015625 0.140625,-0.203125 0.109375,-0.40625 0.25,-0.75 0.515625,-0.75 0.1875,0 0.234375,0.15625 0.234375,0.34375 0,0.078125 -0.015625,0.15625 -0.03125,0.203125 z M 1.84375,-2.234375 C 2.25,-2.78125 2.59375,-2.875 2.8125,-2.875 c 0.28125,0 0.515625,0.203125 0.515625,0.671875 0,0.28125 -0.15625,1 -0.359375,1.40625 -0.1875,0.34375 -0.515625,0.671875 -0.875,0.671875 -0.5,0 -0.625,-0.53125 -0.625,-0.609375 0,-0.03125 0.015625,-0.078125 0.015625,-0.109375 z m 0,0"
               id="id-26443c39-6550-43b4-8a04-d686d1ff4235" />
          </g>
        </g>
        <g
           style="fill:#000000;fill-opacity:1;stroke-width:2.60495"
           id="id-d77a60a7-e3f6-4ef8-b1e4-896b6a544ad2">
          <g
             transform="translate(157.987,134.765)"
             id="g8395"
             style="stroke-width:2.60495">
            <path
               style="stroke:none;stroke-width:0"
               d="m 3.296875,2.390625 c 0,-0.03125 0,-0.046875 -0.171875,-0.21875 C 1.890625,0.921875 1.5625,-0.96875 1.5625,-2.5 c 0,-1.734375 0.375,-3.46875 1.609375,-4.703125 0.125,-0.125 0.125,-0.140625 0.125,-0.171875 0,-0.078125 -0.03125,-0.109375 -0.09375,-0.109375 -0.109375,0 -1,0.6875 -1.59375,1.953125 -0.5,1.09375 -0.625,2.203125 -0.625,3.03125 0,0.78125 0.109375,1.984375 0.65625,3.125 C 2.25,1.84375 3.09375,2.5 3.203125,2.5 c 0.0625,0 0.09375,-0.03125 0.09375,-0.109375 z m 0,0"
               id="id-04a19403-a271-4c04-a8bf-668cec8ffb85" />
          </g>
        </g>
        <g
           style="fill:#000000;fill-opacity:1;stroke-width:2.60495"
           id="id-e7959b89-d00c-4656-84f0-9e8559e4c1f8">
          <g
             transform="translate(161.862,134.765)"
             id="g8399"
             style="stroke-width:2.60495">
            <path
               style="stroke:none;stroke-width:0"
               d="m 2.046875,-3.984375 h 0.9375 c 0.203125,0 0.3125,0 0.3125,-0.203125 0,-0.109375 -0.109375,-0.109375 -0.28125,-0.109375 h -0.875 C 2.5,-5.71875 2.546875,-5.90625 2.546875,-5.96875 c 0,-0.171875 -0.125,-0.265625 -0.296875,-0.265625 -0.03125,0 -0.3125,0 -0.390625,0.359375 L 1.46875,-4.296875 h -0.9375 c -0.203125,0 -0.296875,0 -0.296875,0.1875 0,0.125 0.078125,0.125 0.28125,0.125 h 0.875 C 0.671875,-1.15625 0.625,-0.984375 0.625,-0.8125 0.625,-0.265625 1,0.109375 1.546875,0.109375 2.5625,0.109375 3.125,-1.34375 3.125,-1.421875 3.125,-1.53125 3.046875,-1.53125 3.015625,-1.53125 2.921875,-1.53125 2.90625,-1.5 2.859375,-1.390625 2.4375,-0.34375 1.90625,-0.109375 1.5625,-0.109375 c -0.203125,0 -0.3125,-0.125 -0.3125,-0.453125 0,-0.25 0.03125,-0.3125 0.0625,-0.484375 z m 0,0"
               id="id-94d73411-a02d-40be-bf66-2df81a2a44bb" />
          </g>
        </g>
        <g
           style="fill:#000000;fill-opacity:1;stroke-width:2.60495"
           id="id-d5579dfa-3231-43e4-bf3d-3264ebdd5d88">
          <g
             transform="translate(165.459,134.765)"
             id="g8403"
             style="stroke-width:2.60495">
            <path
               style="stroke:none;stroke-width:0"
               d="m 2.875,-2.5 c 0,-0.765625 -0.109375,-1.96875 -0.65625,-3.109375 -0.59375,-1.21875 -1.453125,-1.875 -1.546875,-1.875 -0.0625,0 -0.109375,0.046875 -0.109375,0.109375 0,0.03125 0,0.046875 0.1875,0.234375 0.984375,0.984375 1.546875,2.5625 1.546875,4.640625 0,1.71875 -0.359375,3.46875 -1.59375,4.71875 C 0.5625,2.34375 0.5625,2.359375 0.5625,2.390625 0.5625,2.453125 0.609375,2.5 0.671875,2.5 0.765625,2.5 1.671875,1.8125 2.25,0.546875 2.765625,-0.546875 2.875,-1.65625 2.875,-2.5 Z m 0,0"
               id="id-725b18ff-0602-4202-b70c-db21fca5467e" />
          </g>
        </g>
      </g>
    </g>
    <g
       transform="matrix(0.30046948,0,0,0.30046948,134.56592,111.32741)"
       ns1:version="1.8.2"
       ns1:texconverter="pdflatex"
       ns1:pdfconverter="inkscape"
       ns1:text="$s(t)$"
       ns1:preamble="/home/eb/.config/inkscape/extensions/textext/default_packages.tex"
       ns1:scale="2.5"
       ns1:alignment="middle center"
       ns1:stroke-to-path="0"
       ns1:jacobian_sqrt="0.881945"
       id="g9521"
       style="stroke-width:2.93522">
      <defs
         id="id-0f31f8ae-2f25-418f-9e29-3f877227c999">
        <g
           id="id-83a86f55-7b0b-47c9-9f18-5b9557496535">
          <symbol
             overflow="visible"
             id="id-4b9a64f0-1113-4eee-8904-512b7c136e32">
            <path
               style="stroke:none;stroke-width:0"
               d=""
               id="id-60c85d8f-c90e-4aef-99bc-915c1d5c2835" />
          </symbol>
          <symbol
             overflow="visible"
             id="id-633cb3c8-525c-4b63-982f-b6f4a0547973">
            <path
               style="stroke:none;stroke-width:0"
               d="M 3.890625,-3.734375 C 3.625,-3.71875 3.421875,-3.5 3.421875,-3.28125 c 0,0.140625 0.09375,0.296875 0.3125,0.296875 0.21875,0 0.453125,-0.171875 0.453125,-0.5625 C 4.1875,-4 3.765625,-4.40625 3,-4.40625 c -1.3125,0 -1.6875,1.015625 -1.6875,1.453125 0,0.78125 0.734375,0.921875 1.03125,0.984375 0.515625,0.109375 1.03125,0.21875 1.03125,0.765625 0,0.25 -0.21875,1.09375 -1.421875,1.09375 -0.140625,0 -0.90625,0 -1.140625,-0.53125 0.390625,0.046875 0.640625,-0.25 0.640625,-0.53125 0,-0.21875 -0.171875,-0.34375 -0.375,-0.34375 -0.265625,0 -0.5625,0.203125 -0.5625,0.65625 0,0.5625 0.578125,0.96875 1.421875,0.96875 1.625,0 2.015625,-1.203125 2.015625,-1.65625 0,-0.359375 -0.1875,-0.609375 -0.3125,-0.71875 -0.265625,-0.28125 -0.5625,-0.34375 -1,-0.421875 -0.359375,-0.078125 -0.75,-0.15625 -0.75,-0.609375 C 1.890625,-3.578125 2.125,-4.1875 3,-4.1875 c 0.25,0 0.75,0.078125 0.890625,0.453125 z m 0,0"
               id="id-e77ad9b8-4f64-4d7a-b2f1-5eab0c1a0fee" />
          </symbol>
          <symbol
             overflow="visible"
             id="id-ad0095cf-5397-44c5-b48b-d51f6bfc134c">
            <path
               style="stroke:none;stroke-width:0"
               d="m 2.046875,-3.984375 h 0.9375 c 0.203125,0 0.3125,0 0.3125,-0.203125 0,-0.109375 -0.109375,-0.109375 -0.28125,-0.109375 h -0.875 C 2.5,-5.71875 2.546875,-5.90625 2.546875,-5.96875 c 0,-0.171875 -0.125,-0.265625 -0.296875,-0.265625 -0.03125,0 -0.3125,0 -0.390625,0.359375 L 1.46875,-4.296875 h -0.9375 c -0.203125,0 -0.296875,0 -0.296875,0.1875 0,0.125 0.078125,0.125 0.28125,0.125 h 0.875 C 0.671875,-1.15625 0.625,-0.984375 0.625,-0.8125 0.625,-0.265625 1,0.109375 1.546875,0.109375 2.5625,0.109375 3.125,-1.34375 3.125,-1.421875 3.125,-1.53125 3.046875,-1.53125 3.015625,-1.53125 2.921875,-1.53125 2.90625,-1.5 2.859375,-1.390625 2.4375,-0.34375 1.90625,-0.109375 1.5625,-0.109375 c -0.203125,0 -0.3125,-0.125 -0.3125,-0.453125 0,-0.25 0.03125,-0.3125 0.0625,-0.484375 z m 0,0"
               id="id-f0a22d9f-51ea-41f8-8d55-1669a35212db" />
          </symbol>
          <symbol
             overflow="visible"
             id="id-75b4c8f4-f915-4787-aff4-4f6fc2a6a229">
            <path
               style="stroke:none;stroke-width:0"
               d=""
               id="id-7ab8e8af-275f-44e1-8b6d-620c9042201e" />
          </symbol>
          <symbol
             overflow="visible"
             id="id-c87d7433-cac6-483c-a37a-2cfefa5352be">
            <path
               style="stroke:none;stroke-width:0"
               d="m 3.296875,2.390625 c 0,-0.03125 0,-0.046875 -0.171875,-0.21875 C 1.890625,0.921875 1.5625,-0.96875 1.5625,-2.5 c 0,-1.734375 0.375,-3.46875 1.609375,-4.703125 0.125,-0.125 0.125,-0.140625 0.125,-0.171875 0,-0.078125 -0.03125,-0.109375 -0.09375,-0.109375 -0.109375,0 -1,0.6875 -1.59375,1.953125 -0.5,1.09375 -0.625,2.203125 -0.625,3.03125 0,0.78125 0.109375,1.984375 0.65625,3.125 C 2.25,1.84375 3.09375,2.5 3.203125,2.5 c 0.0625,0 0.09375,-0.03125 0.09375,-0.109375 z m 0,0"
               id="id-19e572a3-af78-494f-b565-76fb255e0870" />
          </symbol>
          <symbol
             overflow="visible"
             id="id-12c95cec-e15c-4e39-81c1-1ecdc2b71462">
            <path
               style="stroke:none;stroke-width:0"
               d="m 2.875,-2.5 c 0,-0.765625 -0.109375,-1.96875 -0.65625,-3.109375 -0.59375,-1.21875 -1.453125,-1.875 -1.546875,-1.875 -0.0625,0 -0.109375,0.046875 -0.109375,0.109375 0,0.03125 0,0.046875 0.1875,0.234375 0.984375,0.984375 1.546875,2.5625 1.546875,4.640625 0,1.71875 -0.359375,3.46875 -1.59375,4.71875 C 0.5625,2.34375 0.5625,2.359375 0.5625,2.390625 0.5625,2.453125 0.609375,2.5 0.671875,2.5 0.765625,2.5 1.671875,1.8125 2.25,0.546875 2.765625,-0.546875 2.875,-1.65625 2.875,-2.5 Z m 0,0"
               id="id-f878f703-d245-49ae-bd78-e0eb29882b05" />
          </symbol>
        </g>
      </defs>
      <g
         id="id-157d15be-44ce-4351-aa19-e89c9cc880e9"
         transform="translate(-149.228,-127.281)"
         style="stroke-width:2.93522">
        <g
           style="fill:#000000;fill-opacity:1;stroke-width:2.93522"
           id="id-729075fa-3ecb-468f-afed-c1d2de97d8b3">
          <g
             transform="translate(148.712,134.765)"
             id="g9505"
             style="stroke-width:2.93522">
            <path
               style="stroke:none;stroke-width:0"
               d="M 3.890625,-3.734375 C 3.625,-3.71875 3.421875,-3.5 3.421875,-3.28125 c 0,0.140625 0.09375,0.296875 0.3125,0.296875 0.21875,0 0.453125,-0.171875 0.453125,-0.5625 C 4.1875,-4 3.765625,-4.40625 3,-4.40625 c -1.3125,0 -1.6875,1.015625 -1.6875,1.453125 0,0.78125 0.734375,0.921875 1.03125,0.984375 0.515625,0.109375 1.03125,0.21875 1.03125,0.765625 0,0.25 -0.21875,1.09375 -1.421875,1.09375 -0.140625,0 -0.90625,0 -1.140625,-0.53125 0.390625,0.046875 0.640625,-0.25 0.640625,-0.53125 0,-0.21875 -0.171875,-0.34375 -0.375,-0.34375 -0.265625,0 -0.5625,0.203125 -0.5625,0.65625 0,0.5625 0.578125,0.96875 1.421875,0.96875 1.625,0 2.015625,-1.203125 2.015625,-1.65625 0,-0.359375 -0.1875,-0.609375 -0.3125,-0.71875 -0.265625,-0.28125 -0.5625,-0.34375 -1,-0.421875 -0.359375,-0.078125 -0.75,-0.15625 -0.75,-0.609375 C 1.890625,-3.578125 2.125,-4.1875 3,-4.1875 c 0.25,0 0.75,0.078125 0.890625,0.453125 z m 0,0"
               id="id-524dc34a-cc7c-4809-8b2f-481ab8532516" />
          </g>
        </g>
        <g
           style="fill:#000000;fill-opacity:1;stroke-width:2.93522"
           id="id-85e4e51c-ef87-4ae6-9815-3175a8ec99a5">
          <g
             transform="translate(153.382,134.765)"
             id="g9509"
             style="stroke-width:2.93522">
            <path
               style="stroke:none;stroke-width:0"
               d="m 3.296875,2.390625 c 0,-0.03125 0,-0.046875 -0.171875,-0.21875 C 1.890625,0.921875 1.5625,-0.96875 1.5625,-2.5 c 0,-1.734375 0.375,-3.46875 1.609375,-4.703125 0.125,-0.125 0.125,-0.140625 0.125,-0.171875 0,-0.078125 -0.03125,-0.109375 -0.09375,-0.109375 -0.109375,0 -1,0.6875 -1.59375,1.953125 -0.5,1.09375 -0.625,2.203125 -0.625,3.03125 0,0.78125 0.109375,1.984375 0.65625,3.125 C 2.25,1.84375 3.09375,2.5 3.203125,2.5 c 0.0625,0 0.09375,-0.03125 0.09375,-0.109375 z m 0,0"
               id="id-01daf486-3c3b-4d6e-9eaf-4f6ac96369f5" />
          </g>
        </g>
        <g
           style="fill:#000000;fill-opacity:1;stroke-width:2.93522"
           id="id-c9c45a82-4950-4b8f-ae7c-091c42078422">
          <g
             transform="translate(157.257,134.765)"
             id="g9513"
             style="stroke-width:2.93522">
            <path
               style="stroke:none;stroke-width:0"
               d="m 2.046875,-3.984375 h 0.9375 c 0.203125,0 0.3125,0 0.3125,-0.203125 0,-0.109375 -0.109375,-0.109375 -0.28125,-0.109375 h -0.875 C 2.5,-5.71875 2.546875,-5.90625 2.546875,-5.96875 c 0,-0.171875 -0.125,-0.265625 -0.296875,-0.265625 -0.03125,0 -0.3125,0 -0.390625,0.359375 L 1.46875,-4.296875 h -0.9375 c -0.203125,0 -0.296875,0 -0.296875,0.1875 0,0.125 0.078125,0.125 0.28125,0.125 h 0.875 C 0.671875,-1.15625 0.625,-0.984375 0.625,-0.8125 0.625,-0.265625 1,0.109375 1.546875,0.109375 2.5625,0.109375 3.125,-1.34375 3.125,-1.421875 3.125,-1.53125 3.046875,-1.53125 3.015625,-1.53125 2.921875,-1.53125 2.90625,-1.5 2.859375,-1.390625 2.4375,-0.34375 1.90625,-0.109375 1.5625,-0.109375 c -0.203125,0 -0.3125,-0.125 -0.3125,-0.453125 0,-0.25 0.03125,-0.3125 0.0625,-0.484375 z m 0,0"
               id="id-82458710-7a8a-4b79-a1cb-7598a3b8d9f4" />
          </g>
        </g>
        <g
           style="fill:#000000;fill-opacity:1;stroke-width:2.93522"
           id="id-d2fcad87-5982-4ef6-90a3-9451eae82eb8">
          <g
             transform="translate(160.854,134.765)"
             id="g9517"
             style="stroke-width:2.93522">
            <path
               style="stroke:none;stroke-width:0"
               d="m 2.875,-2.5 c 0,-0.765625 -0.109375,-1.96875 -0.65625,-3.109375 -0.59375,-1.21875 -1.453125,-1.875 -1.546875,-1.875 -0.0625,0 -0.109375,0.046875 -0.109375,0.109375 0,0.03125 0,0.046875 0.1875,0.234375 0.984375,0.984375 1.546875,2.5625 1.546875,4.640625 0,1.71875 -0.359375,3.46875 -1.59375,4.71875 C 0.5625,2.34375 0.5625,2.359375 0.5625,2.390625 0.5625,2.453125 0.609375,2.5 0.671875,2.5 0.765625,2.5 1.671875,1.8125 2.25,0.546875 2.765625,-0.546875 2.875,-1.65625 2.875,-2.5 Z m 0,0"
               id="id-befeebab-1cf0-47d1-849d-84d33872ff7a" />
          </g>
        </g>
      </g>
    </g>
  </g>
</svg>
