<?xml version="1.0" encoding="UTF-8" standalone="no"?>
<!-- Created with Inkscape (http://www.inkscape.org/) -->

<svg
   version="1.0"
   width="400"
   height="260"
   id="svg2"
   sodipodi:docname="RC_thermique.svg"
   inkscape:version="1.3.2 (1:1.3.2+202311252150+091e20ef0f)"
   xmlns:inkscape="http://www.inkscape.org/namespaces/inkscape"
   xmlns:sodipodi="http://sodipodi.sourceforge.net/DTD/sodipodi-0.dtd"
   xmlns="http://www.w3.org/2000/svg"
   xmlns:svg="http://www.w3.org/2000/svg"
   xmlns:rdf="http://www.w3.org/1999/02/22-rdf-syntax-ns#"
   xmlns:cc="http://creativecommons.org/ns#"
   xmlns:dc="http://purl.org/dc/elements/1.1/">
  <sodipodi:namedview
     pagecolor="#ffffff"
     bordercolor="#666666"
     borderopacity="1"
     objecttolerance="10"
     gridtolerance="10"
     guidetolerance="10"
     inkscape:pageopacity="0"
     inkscape:pageshadow="2"
     inkscape:window-width="1920"
     inkscape:window-height="1003"
     id="namedview69"
     showgrid="false"
     inkscape:snap-global="true"
     inkscape:zoom="2.8284271"
     inkscape:cx="56.922096"
     inkscape:cy="110.30866"
     inkscape:window-x="0"
     inkscape:window-y="0"
     inkscape:window-maximized="1"
     inkscape:current-layer="svg2"
     inkscape:showpageshadow="0"
     inkscape:pagecheckerboard="0"
     inkscape:deskcolor="#d1d1d1" />
  <metadata
     id="metadata71">
    <rdf:RDF>
      <cc:Work
         rdf:about="">
        <dc:format>image/svg+xml</dc:format>
        <dc:type
           rdf:resource="http://purl.org/dc/dcmitype/StillImage" />
        <dc:title />
      </cc:Work>
    </rdf:RDF>
  </metadata>
  <defs
     id="defs4">
    <marker
       inkscape:stockid="Arrow2Lend"
       orient="auto"
       refY="0.0"
       refX="0.0"
       id="marker1954"
       style="overflow:visible;"
       inkscape:isstock="true"
       markerUnits="userSpaceOnUse">
      <path
         id="path1952"
         style="fill-rule:evenodd;stroke-width:0.625;stroke-linejoin:round;stroke:#000000;stroke-opacity:1;fill:#000000;fill-opacity:1"
         d="M 8.7185878,4.0337352 L -2.2072895,0.016013256 L 8.7185884,-4.0017078 C 6.9730900,-1.6296469 6.9831476,1.6157441 8.7185878,4.0337352 z "
         transform="scale(1.1) rotate(180) translate(1,0)" />
    </marker>
    <marker
       inkscape:stockid="Arrow2Lend"
       orient="auto"
       refY="0.0"
       refX="0.0"
       id="Arrow2Lend"
       style="overflow:visible;"
       inkscape:isstock="true"
       viewBox="0 0 12.70584107 9.5264135"
       markerWidth="12.70584107"
       markerHeight="9.5264135"
       preserveAspectRatio="xMidYMid"
       markerUnits="userSpaceOnUse">
      <path
         id="path7448"
         style="fill-rule:evenodd;stroke-width:0.625;stroke-linejoin:round;stroke:#ff0000;stroke-opacity:1;fill:#ff0000;fill-opacity:1"
         d="M 8.7185878,4.0337352 L -2.2072895,0.016013256 L 8.7185884,-4.0017078 C 6.9730900,-1.6296469 6.9831476,1.6157441 8.7185878,4.0337352 z "
         transform="scale(1.1) rotate(180) translate(1,0)" />
    </marker>
    <marker
       inkscape:stockid="Arrow2Lend"
       orient="auto"
       refY="0.0"
       refX="0.0"
       id="marker8361"
       style="overflow:visible;"
       inkscape:isstock="true">
      <path
         id="path8359"
         style="fill-rule:evenodd;stroke-width:0.625;stroke-linejoin:round;stroke:#000000;stroke-opacity:1;fill:#000000;fill-opacity:1"
         d="M 8.7185878,4.0337352 L -2.2072895,0.016013256 L 8.7185884,-4.0017078 C 6.9730900,-1.6296469 6.9831476,1.6157441 8.7185878,4.0337352 z "
         transform="scale(1.1) rotate(180) translate(1,0)" />
    </marker>
    <marker
       inkscape:isstock="true"
       style="overflow:visible;"
       id="marker7695"
       refX="0.0"
       refY="0.0"
       orient="auto"
       inkscape:stockid="Arrow2Lend">
      <path
         transform="scale(1.1) rotate(180) translate(1,0)"
         d="M 8.7185878,4.0337352 L -2.2072895,0.016013256 L 8.7185884,-4.0017078 C 6.9730900,-1.6296469 6.9831476,1.6157441 8.7185878,4.0337352 z "
         style="fill-rule:evenodd;stroke-width:0.625;stroke-linejoin:round;stroke:#000000;stroke-opacity:1;fill:#000000;fill-opacity:1"
         id="path7693" />
    </marker>
    <marker
       inkscape:stockid="Arrow2Lend"
       orient="auto"
       refY="0"
       refX="0"
       id="Arrow2Lend-5"
       style="overflow:visible"
       inkscape:isstock="true"
       viewBox="0 0 12.705841 9.5264135"
       markerWidth="12.705841"
       markerHeight="9.5264139"
       preserveAspectRatio="xMidYMid"
       markerUnits="userSpaceOnUse">
      <path
         id="path7448-3"
         style="fill:#ff0000;fill-opacity:1;fill-rule:evenodd;stroke:#ff0000;stroke-width:0.625;stroke-linejoin:round;stroke-opacity:1"
         d="M 8.7185878,4.0337352 -2.2072895,0.01601326 8.7185884,-4.0017078 c -1.7454984,2.3720609 -1.7354408,5.6174519 -6e-7,8.035443 z"
         transform="matrix(-1.1,0,0,-1.1,-1.1,0)" />
    </marker>
  </defs>
  <g
     id="g4710"
     transform="matrix(0,1.2565621,-1.2001364,0,190.68151,-167.11588)"
     inkscape:export-filename="RC_thermique.pdf"
     inkscape:export-xdpi="300"
     inkscape:export-ydpi="300">
    <path
       id="path8776"
       d="m 214.75,65.49242 h 24.19971 v 9.072907 H 214.75 Z m 0,0"
       style="fill:none;stroke:#000000;stroke-width:1.06267;stroke-linecap:butt;stroke-linejoin:miter;stroke-miterlimit:10;stroke-opacity:1"
       inkscape:connector-curvature="0" />
    <g
       id="g4704">
      <path
         inkscape:connector-curvature="0"
         id="path21214"
         d="M 214.70534,69.89419 H 194.86653"
         style="fill:none;stroke:#000000;stroke-width:0.532912;stroke-linecap:butt;stroke-linejoin:miter;stroke-miterlimit:4;stroke-dasharray:none;stroke-opacity:1" />
      <path
         style="fill:none;stroke:#000000;stroke-width:0.532912;stroke-linecap:butt;stroke-linejoin:miter;stroke-miterlimit:4;stroke-dasharray:none;stroke-opacity:1"
         d="M 258.26653,69.894209 H 238.71761"
         id="path1853"
         inkscape:connector-curvature="0" />
    </g>
  </g>
  <path
     inkscape:connector-curvature="0"
     id="path7745"
     d="m 165.49666,141.37649 v 16.36045"
     style="fill:none;stroke:#000000;stroke-width:2;stroke-linecap:butt;stroke-linejoin:miter;stroke-miterlimit:4;stroke-dasharray:none;stroke-opacity:1" />
  <path
     inkscape:connector-curvature="0"
     id="path7747"
     d="M 47.749244,76.626497 H 166.42474"
     style="fill:none;stroke:#000000;stroke-width:1.99999988;stroke-linecap:butt;stroke-linejoin:miter;stroke-miterlimit:4;stroke-dasharray:none;stroke-opacity:1" />
  <path
     style="fill:none;stroke:#000000;stroke-width:1.99999988;stroke-linecap:butt;stroke-linejoin:miter;stroke-miterlimit:4;stroke-dasharray:none;stroke-opacity:1"
     d="M 47.74925,156.88314 H 108.4931"
     id="path7749"
     inkscape:connector-curvature="0" />
  <g
     id="g7757"
     transform="rotate(90,124.9709,154.93555)">
    <circle
       style="fill:none;fill-rule:evenodd;stroke:#000000"
       id="circle7739"
       cx="87.927299"
       cy="231.71573"
       r="8" />
    <path
       style="fill:none;stroke:#000000;stroke-width:1px;stroke-linecap:butt;stroke-linejoin:miter;stroke-opacity:1"
       d="m 87.838914,224.02595 v 16.08668"
       id="path7741"
       inkscape:connector-curvature="0" />
  </g>
  <path
     style="fill:none;stroke:#000000;stroke-width:1.99999988;stroke-linecap:butt;stroke-linejoin:miter;stroke-miterlimit:4;stroke-dasharray:none;stroke-opacity:1"
     d="M 48.490991,141.43266 V 125.63459"
     id="path7769"
     inkscape:connector-curvature="0" />
  <path
     inkscape:connector-curvature="0"
     id="path7771"
     d="M 48.277604,109.47669 V 91.344759"
     style="fill:none;stroke:#000000;stroke-width:1.99999988;stroke-linecap:butt;stroke-linejoin:miter;stroke-miterlimit:4;stroke-dasharray:none;stroke-opacity:1" />
  <path
     inkscape:connector-curvature="0"
     id="path8499"
     d="M 48.461713,157.892 V 139.66109"
     style="fill:none;stroke:#000000;stroke-width:2;stroke-linecap:butt;stroke-linejoin:miter;stroke-miterlimit:4;stroke-dasharray:none;stroke-opacity:1" />
  <path
     style="fill:none;stroke:#000000;stroke-width:2;stroke-linecap:butt;stroke-linejoin:miter;stroke-miterlimit:4;stroke-dasharray:none;stroke-opacity:1"
     d="M 48.32913,93.892 V 75.66109"
     id="path8501"
     inkscape:connector-curvature="0" />
  <path
     inkscape:connector-curvature="0"
     id="path8526"
     d="m 105.4399,156.88313 h 60.84256"
     style="fill:none;stroke:#000000;stroke-width:2;stroke-linecap:butt;stroke-linejoin:miter;stroke-miterlimit:4;stroke-dasharray:none;stroke-opacity:1" />
  <g
     id="g1529"
     transform="matrix(0,1.1714531,-1,0,363.95417,-40.771855)">
    <path
       d="m 116.97105,198.45751 h 15.52222 v -9.4368 18.69722"
       style="fill:none;fill-rule:evenodd;stroke:#000000;stroke-width:2;stroke-linecap:butt;stroke-linejoin:miter;stroke-opacity:1"
       id="path3197"
       inkscape:connector-curvature="0" />
    <path
       d="m 156.09331,198.45751 h -15.52222 v -9.4368 18.69722"
       style="fill:none;fill-rule:evenodd;stroke:#000000;stroke-width:2;stroke-linecap:butt;stroke-linejoin:miter;stroke-opacity:1"
       id="path4168"
       inkscape:connector-curvature="0" />
  </g>
  <path
     style="fill:none;stroke:#000000;stroke-width:2;stroke-linecap:butt;stroke-linejoin:miter;stroke-miterlimit:4;stroke-dasharray:none;stroke-opacity:1"
     d="M 165.41773,104.28737 V 75.596753"
     id="path1531"
     inkscape:connector-curvature="0" />
  <g
     inkscape:label=""
     transform="translate(31.652068,87.416935)"
     id="g1"
     style="fill:#de0000;fill-opacity:1">
    <g
       id="surface1"
       transform="matrix(1.33333,0,0,1.33333,-2.92817,-2.65)"
       style="fill:#de0000;fill-opacity:1">
      <g
         style="fill:#de0000;fill-opacity:1"
         id="g3">
        <g
           id="use2"
           transform="translate(1.993,8.8000002)"
           style="fill:#de0000;fill-opacity:1">
          <path
             style="fill:#de0000;fill-opacity:1;stroke:none"
             d="m 3.46875,-6.8125 c -1.40625,0 -2.46875,0.6875 -2.875,1.15625 -0.359375,0.390625 -0.390625,0.6875 -0.390625,0.703125 0,0.0625 0.046875,0.078125 0.109375,0.078125 0.15625,0 0.390625,-0.140625 0.46875,-0.1875 0.203125,-0.140625 0.234375,-0.203125 0.296875,-0.390625 0.140625,-0.40625 0.421875,-0.75 1.671875,-0.8125 -0.171875,2.25 -0.78125,4.4375 -1.609375,6.515625 -0.0625,0.15625 -0.0625,0.171875 -0.0625,0.171875 0,0.03125 0.03125,0.078125 0.09375,0.078125 0.15625,0 0.640625,-0.21875 0.75,-0.484375 0.515625,-1.21875 1.34375,-3.5 1.640625,-6.28125 h 0.515625 c 1.21875,0 2.375,0.46875 2.375,1.46875 0,0.75 -0.71875,2.140625 -2.640625,2.203125 -0.21875,0.015625 -0.328125,0.015625 -0.609375,0.1875 -0.171875,0.125 -0.25,0.234375 -0.25,0.296875 0,0.0625 0.0625,0.0625 0.1875,0.0625 1.8125,0 4.171875,-1.53125 4.171875,-3.171875 0,-1.140625 -1.34375,-1.59375 -2.5,-1.59375 z m 0,0"
             id="path3" />
        </g>
      </g>
    </g>
  </g>
  <g
     inkscape:label=""
     transform="translate(114.23965,114.20966)"
     id="g4">
    <g
       id="g2"
       transform="matrix(1.33333,0,0,1.33333,-3.199,-2.65)">
      <g
         style="fill:#000000;fill-opacity:1"
         id="g7">
        <g
           id="use6"
           transform="translate(1.993,8.8000002)">
          <path
             style="stroke:none"
             d="m 3.734375,-6.125 c 0.0625,-0.234375 0.09375,-0.328125 0.28125,-0.359375 C 4.109375,-6.5 4.421875,-6.5 4.625,-6.5 c 0.703125,0 1.8125,0 1.8125,0.984375 0,0.34375 -0.15625,1.03125 -0.546875,1.421875 -0.265625,0.25 -0.78125,0.578125 -1.6875,0.578125 H 3.09375 Z m 1.4375,2.734375 c 1.015625,-0.21875 2.1875,-0.921875 2.1875,-1.921875 0,-0.859375 -0.890625,-1.5 -2.203125,-1.5 H 2.328125 c -0.203125,0 -0.296875,0 -0.296875,0.203125 C 2.03125,-6.5 2.125,-6.5 2.3125,-6.5 c 0.015625,0 0.203125,0 0.375,0.015625 0.1875,0.03125 0.265625,0.03125 0.265625,0.171875 0,0.03125 0,0.0625 -0.03125,0.1875 l -1.34375,5.34375 C 1.484375,-0.390625 1.46875,-0.3125 0.671875,-0.3125 0.5,-0.3125 0.40625,-0.3125 0.40625,-0.109375 0.40625,0 0.53125,0 0.546875,0 c 0.28125,0 0.984375,-0.03125 1.25,-0.03125 0.28125,0 1,0.03125 1.28125,0.03125 0.078125,0 0.1875,0 0.1875,-0.203125 0,-0.109375 -0.078125,-0.109375 -0.28125,-0.109375 -0.359375,0 -0.640625,0 -0.640625,-0.171875 0,-0.0625 0.015625,-0.109375 0.03125,-0.171875 l 0.65625,-2.640625 h 1.1875 c 0.90625,0 1.078125,0.5625 1.078125,0.90625 0,0.140625 -0.078125,0.453125 -0.140625,0.6875 C 5.09375,-1.421875 5,-1.0625 5,-0.859375 5,0.21875 6.203125,0.21875 6.328125,0.21875 c 0.84375,0 1.203125,-1 1.203125,-1.140625 0,-0.125 -0.109375,-0.125 -0.125,-0.125 -0.09375,0 -0.109375,0.0625 -0.125,0.140625 C 7.03125,-0.171875 6.59375,0 6.375,0 6.046875,0 5.96875,-0.21875 5.96875,-0.609375 c 0,-0.3125 0.0625,-0.8125 0.109375,-1.140625 0.015625,-0.140625 0.03125,-0.328125 0.03125,-0.46875 0,-0.765625 -0.671875,-1.078125 -0.9375,-1.171875 z m 0,0"
             id="path9" />
        </g>
      </g>
      <g
         style="fill:#000000;fill-opacity:1"
         id="g8">
        <g
           id="use7"
           transform="translate(9.5570002,10.294)">
          <path
             style="stroke:none"
             d="M 1.40625,-2.75 H 2.484375 V -3 H 1.40625 v -1.28125 h -0.25 c 0,0.625 -0.28125,1.3125 -0.953125,1.328125 V -2.75 H 0.84375 v 1.875 c 0,0.78125 0.59375,0.9375 0.984375,0.9375 0.46875,0 0.78125,-0.390625 0.78125,-0.9375 V -1.265625 H 2.375 v 0.375 c 0,0.484375 -0.21875,0.734375 -0.5,0.734375 -0.46875,0 -0.46875,-0.578125 -0.46875,-0.703125 z m 0,0"
             id="path10" />
        </g>
      </g>
      <g
         style="fill:#000000;fill-opacity:1"
         id="g9">
        <g
           id="use8"
           transform="translate(12.67,10.294)">
          <path
             style="stroke:none"
             d="m 2.1875,-4.625 c 0,-0.015625 0.015625,-0.109375 0.015625,-0.109375 0,-0.046875 -0.015625,-0.109375 -0.109375,-0.109375 -0.140625,0 -0.71875,0.0625 -0.890625,0.078125 -0.046875,0 -0.15625,0.015625 -0.15625,0.15625 0,0.09375 0.109375,0.09375 0.1875,0.09375 0.328125,0 0.328125,0.0625 0.328125,0.109375 0,0.046875 -0.015625,0.09375 -0.015625,0.15625 L 0.5625,-0.3125 c -0.046875,0.125 -0.046875,0.140625 -0.046875,0.15625 0,0.109375 0.09375,0.21875 0.25,0.21875 0.078125,0 0.203125,-0.03125 0.28125,-0.171875 C 1.0625,-0.15625 1.125,-0.40625 1.15625,-0.546875 l 0.171875,-0.625 C 1.34375,-1.28125 1.421875,-1.546875 1.4375,-1.640625 1.5,-1.90625 1.5,-1.921875 1.640625,-2.140625 1.875,-2.484375 2.21875,-2.875 2.765625,-2.875 c 0.390625,0 0.40625,0.3125 0.40625,0.484375 0,0.421875 -0.296875,1.1875 -0.40625,1.484375 -0.078125,0.203125 -0.109375,0.265625 -0.109375,0.375 0,0.375 0.3125,0.59375 0.65625,0.59375 0.703125,0 1.015625,-0.953125 1.015625,-1.0625 0,-0.09375 -0.09375,-0.09375 -0.125,-0.09375 -0.09375,0 -0.09375,0.046875 -0.125,0.125 -0.15625,0.5625 -0.46875,0.84375 -0.734375,0.84375 -0.15625,0 -0.1875,-0.09375 -0.1875,-0.25 0,-0.15625 0.046875,-0.25 0.171875,-0.5625 C 3.40625,-1.15625 3.6875,-1.890625 3.6875,-2.28125 c 0,-0.109375 0,-0.40625 -0.25,-0.609375 -0.125,-0.078125 -0.328125,-0.1875 -0.65625,-0.1875 -0.5,0 -0.875,0.28125 -1.125,0.578125 z m 0,0"
             id="path11" />
        </g>
      </g>
    </g>
  </g>
  <g
     inkscape:label=""
     transform="translate(180.03917,112.91363)"
     id="g15">
    <g
       id="g14"
       transform="matrix(1.33333,0,0,1.33333,-3.324,-2.35833)">
      <g
         style="fill:#000000;fill-opacity:1"
         id="g6">
        <g
           id="g5"
           transform="translate(1.993,8.8000002)">
          <path
             style="stroke:none"
             d="m 7.578125,-6.921875 c 0,-0.03125 -0.015625,-0.109375 -0.109375,-0.109375 -0.03125,0 -0.046875,0.015625 -0.15625,0.125 L 6.625,-6.140625 C 6.53125,-6.28125 6.078125,-7.03125 4.96875,-7.03125 2.734375,-7.03125 0.5,-4.828125 0.5,-2.515625 0.5,-0.875 1.671875,0.21875 3.203125,0.21875 c 0.859375,0 1.625,-0.390625 2.15625,-0.859375 0.921875,-0.8125 1.09375,-1.71875 1.09375,-1.75 C 6.453125,-2.5 6.34375,-2.5 6.328125,-2.5 c -0.0625,0 -0.109375,0.03125 -0.125,0.109375 -0.09375,0.28125 -0.328125,1 -1.015625,1.578125 -0.6875,0.546875 -1.3125,0.71875 -1.828125,0.71875 -0.890625,0 -1.953125,-0.515625 -1.953125,-2.0625 0,-0.578125 0.203125,-2.1875 1.203125,-3.359375 0.609375,-0.703125 1.546875,-1.203125 2.4375,-1.203125 1.015625,0 1.609375,0.765625 1.609375,1.921875 0,0.40625 -0.03125,0.40625 -0.03125,0.515625 0,0.09375 0.109375,0.09375 0.140625,0.09375 0.125,0 0.125,-0.015625 0.1875,-0.203125 z m 0,0"
             id="path4" />
        </g>
      </g>
      <g
         style="fill:#000000;fill-opacity:1"
         id="g11">
        <g
           id="g10"
           transform="translate(9.1129999,10.294)">
          <path
             style="stroke:none"
             d="M 1.40625,-2.75 H 2.484375 V -3 H 1.40625 v -1.28125 h -0.25 c 0,0.625 -0.28125,1.3125 -0.953125,1.328125 V -2.75 H 0.84375 v 1.875 c 0,0.78125 0.59375,0.9375 0.984375,0.9375 0.46875,0 0.78125,-0.390625 0.78125,-0.9375 V -1.265625 H 2.375 v 0.375 c 0,0.484375 -0.21875,0.734375 -0.5,0.734375 -0.46875,0 -0.46875,-0.578125 -0.46875,-0.703125 z m 0,0"
             id="path6" />
        </g>
      </g>
      <g
         style="fill:#000000;fill-opacity:1"
         id="g13">
        <g
           id="g12"
           transform="translate(12.226,10.294)">
          <path
             style="stroke:none"
             d="m 2.1875,-4.625 c 0,-0.015625 0.015625,-0.109375 0.015625,-0.109375 0,-0.046875 -0.015625,-0.109375 -0.109375,-0.109375 -0.140625,0 -0.71875,0.0625 -0.890625,0.078125 -0.046875,0 -0.15625,0.015625 -0.15625,0.15625 0,0.09375 0.109375,0.09375 0.1875,0.09375 0.328125,0 0.328125,0.0625 0.328125,0.109375 0,0.046875 -0.015625,0.09375 -0.015625,0.15625 L 0.5625,-0.3125 c -0.046875,0.125 -0.046875,0.140625 -0.046875,0.15625 0,0.109375 0.09375,0.21875 0.25,0.21875 0.078125,0 0.203125,-0.03125 0.28125,-0.171875 C 1.0625,-0.15625 1.125,-0.40625 1.15625,-0.546875 l 0.171875,-0.625 C 1.34375,-1.28125 1.421875,-1.546875 1.4375,-1.640625 1.5,-1.90625 1.5,-1.921875 1.640625,-2.140625 1.875,-2.484375 2.21875,-2.875 2.765625,-2.875 c 0.390625,0 0.40625,0.3125 0.40625,0.484375 0,0.421875 -0.296875,1.1875 -0.40625,1.484375 -0.078125,0.203125 -0.109375,0.265625 -0.109375,0.375 0,0.375 0.3125,0.59375 0.65625,0.59375 0.703125,0 1.015625,-0.953125 1.015625,-1.0625 0,-0.09375 -0.09375,-0.09375 -0.125,-0.09375 -0.09375,0 -0.09375,0.046875 -0.125,0.125 -0.15625,0.5625 -0.46875,0.84375 -0.734375,0.84375 -0.15625,0 -0.1875,-0.09375 -0.1875,-0.25 0,-0.15625 0.046875,-0.25 0.171875,-0.5625 C 3.40625,-1.15625 3.6875,-1.890625 3.6875,-2.28125 c 0,-0.109375 0,-0.40625 -0.25,-0.609375 -0.125,-0.078125 -0.328125,-0.1875 -0.65625,-0.1875 -0.5,0 -0.875,0.28125 -1.125,0.578125 z m 0,0"
             id="path12" />
        </g>
      </g>
    </g>
  </g>
  <path
     inkscape:connector-curvature="0"
     id="path8351"
     d="M 48.55866,89.591658 V 89.000883"
     style="fill:#740000;fill-opacity:1;stroke:#920000;stroke-width:0.118;stroke-linecap:butt;stroke-linejoin:miter;stroke-miterlimit:4;stroke-dasharray:none;stroke-opacity:1;marker-end:url(#Arrow2Lend)" />
  <path
     inkscape:connector-curvature="0"
     id="path8351-6"
     d="M 106.66275,96.840247 V 97.09901"
     style="fill:#740000;fill-opacity:1;stroke:#920000;stroke-width:0.0780952;stroke-linecap:butt;stroke-linejoin:miter;stroke-miterlimit:4;stroke-dasharray:none;stroke-opacity:1;marker-end:url(#Arrow2Lend-5)" />
  <circle
     style="fill:#009e0a;fill-opacity:1;stroke:none;stroke-width:0.808328;stroke-linejoin:bevel;stroke-dasharray:none;stroke-opacity:1;paint-order:stroke fill markers"
     id="path25"
     cx="106.44725"
     cy="76.352959"
     r="3.8148551" />
  <circle
     style="fill:#009e0a;fill-opacity:1;stroke:none;stroke-width:0.808328;stroke-linejoin:bevel;stroke-dasharray:none;stroke-opacity:1;paint-order:stroke fill markers"
     id="path25-6"
     cx="106.44725"
     cy="157.1983"
     r="3.8148551" />
  <g
     inkscape:label=""
     transform="translate(97.395396,57.488521)"
     id="g44"
     style="fill:#009e0a;fill-opacity:1">
    <g
       id="g43"
       transform="matrix(1.33333,0,0,1.33333,-2.96983,-2.64083)"
       style="fill:#009e0a;fill-opacity:1">
      <g
         style="fill:#009e0a;fill-opacity:1"
         id="g36">
        <g
           id="g35"
           transform="translate(1.993,9.4650002)"
           style="fill:#009e0a;fill-opacity:1">
          <path
             style="stroke:none;fill:#009e0a;fill-opacity:1"
             d="m 4.25,-6.046875 c 0.078125,-0.28125 0.109375,-0.34375 0.234375,-0.375 0.09375,-0.015625 0.421875,-0.015625 0.625,-0.015625 1.015625,0 1.453125,0.03125 1.453125,0.8125 0,0.15625 -0.03125,0.546875 -0.078125,0.796875 0,0.046875 -0.03125,0.15625 -0.03125,0.1875 0,0.0625 0.03125,0.140625 0.125,0.140625 0.109375,0 0.125,-0.078125 0.15625,-0.234375 L 7,-6.46875 C 7.015625,-6.515625 7.015625,-6.609375 7.015625,-6.640625 7.015625,-6.75 6.921875,-6.75 6.75,-6.75 H 1.21875 c -0.234375,0 -0.25,0.015625 -0.328125,0.203125 l -0.59375,1.75 c 0,0.015625 -0.0625,0.15625 -0.0625,0.1875 0,0.046875 0.0625,0.109375 0.125,0.109375 0.09375,0 0.109375,-0.0625 0.171875,-0.21875 C 1.0625,-6.265625 1.328125,-6.4375 2.796875,-6.4375 H 3.1875 c 0.28125,0 0.28125,0.03125 0.28125,0.125 0,0.046875 -0.03125,0.171875 -0.046875,0.203125 L 2.09375,-0.78125 C 2,-0.421875 1.96875,-0.3125 0.90625,-0.3125 c -0.359375,0 -0.421875,0 -0.421875,0.1875 C 0.484375,0 0.59375,0 0.65625,0 c 0.265625,0 0.546875,-0.015625 0.8125,-0.015625 0.28125,0 0.578125,-0.015625 0.859375,-0.015625 0.28125,0 0.546875,0.015625 0.828125,0.015625 C 3.4375,-0.015625 3.734375,0 4.015625,0 c 0.09375,0 0.21875,0 0.21875,-0.203125 0,-0.109375 -0.078125,-0.109375 -0.34375,-0.109375 -0.234375,0 -0.375,0 -0.625,-0.015625 -0.296875,-0.03125 -0.375,-0.0625 -0.375,-0.21875 0,-0.015625 0,-0.0625 0.046875,-0.203125 z m 0,0"
             id="path34" />
        </g>
      </g>
      <g
         style="fill:#009e0a;fill-opacity:1"
         id="g38">
        <g
           id="g37"
           transform="translate(9.198,9.4650002)"
           style="fill:#009e0a;fill-opacity:1">
          <path
             style="stroke:none;fill:#009e0a;fill-opacity:1"
             d="m 3.296875,2.390625 c 0,-0.03125 0,-0.046875 -0.171875,-0.21875 C 1.890625,0.921875 1.5625,-0.96875 1.5625,-2.5 c 0,-1.734375 0.375,-3.46875 1.609375,-4.703125 0.125,-0.125 0.125,-0.140625 0.125,-0.171875 0,-0.078125 -0.03125,-0.109375 -0.09375,-0.109375 -0.109375,0 -1,0.6875 -1.59375,1.953125 -0.5,1.09375 -0.625,2.203125 -0.625,3.03125 0,0.78125 0.109375,1.984375 0.65625,3.125 C 2.25,1.84375 3.09375,2.5 3.203125,2.5 c 0.0625,0 0.09375,-0.03125 0.09375,-0.109375 z m 0,0"
             id="path36" />
        </g>
      </g>
      <g
         style="fill:#009e0a;fill-opacity:1"
         id="g40">
        <g
           id="g39"
           transform="translate(13.073,9.4650002)"
           style="fill:#009e0a;fill-opacity:1">
          <path
             style="stroke:none;fill:#009e0a;fill-opacity:1"
             d="m 2.046875,-3.984375 h 0.9375 c 0.203125,0 0.3125,0 0.3125,-0.203125 0,-0.109375 -0.109375,-0.109375 -0.28125,-0.109375 h -0.875 C 2.5,-5.71875 2.546875,-5.90625 2.546875,-5.96875 c 0,-0.171875 -0.125,-0.265625 -0.296875,-0.265625 -0.03125,0 -0.3125,0 -0.390625,0.359375 L 1.46875,-4.296875 h -0.9375 c -0.203125,0 -0.296875,0 -0.296875,0.1875 0,0.125 0.078125,0.125 0.28125,0.125 h 0.875 C 0.671875,-1.15625 0.625,-0.984375 0.625,-0.8125 0.625,-0.265625 1,0.109375 1.546875,0.109375 2.5625,0.109375 3.125,-1.34375 3.125,-1.421875 3.125,-1.53125 3.046875,-1.53125 3.015625,-1.53125 2.921875,-1.53125 2.90625,-1.5 2.859375,-1.390625 2.4375,-0.34375 1.90625,-0.109375 1.5625,-0.109375 c -0.203125,0 -0.3125,-0.125 -0.3125,-0.453125 0,-0.25 0.03125,-0.3125 0.0625,-0.484375 z m 0,0"
             id="path38" />
        </g>
      </g>
      <g
         style="fill:#009e0a;fill-opacity:1"
         id="g42">
        <g
           id="g41"
           transform="translate(16.67,9.4650002)"
           style="fill:#009e0a;fill-opacity:1">
          <path
             style="stroke:none;fill:#009e0a;fill-opacity:1"
             d="m 2.875,-2.5 c 0,-0.765625 -0.109375,-1.96875 -0.65625,-3.109375 -0.59375,-1.21875 -1.453125,-1.875 -1.546875,-1.875 -0.0625,0 -0.109375,0.046875 -0.109375,0.109375 0,0.03125 0,0.046875 0.1875,0.234375 0.984375,0.984375 1.546875,2.5625 1.546875,4.640625 0,1.71875 -0.359375,3.46875 -1.59375,4.71875 C 0.5625,2.34375 0.5625,2.359375 0.5625,2.390625 0.5625,2.453125 0.609375,2.5 0.671875,2.5 0.765625,2.5 1.671875,1.8125 2.25,0.546875 2.765625,-0.546875 2.875,-1.65625 2.875,-2.5 Z m 0,0"
             id="path40" />
        </g>
      </g>
    </g>
  </g>
  <g
     inkscape:label=""
     transform="translate(99.518573,164.24338)"
     id="g52"
     style="stroke:none;stroke-opacity:1;fill:#009e0a;fill-opacity:1">
    <g
       id="g51"
       transform="matrix(1.33333,0,0,1.33333,-2.96983,-2.73333)"
       style="stroke:none;stroke-opacity:1;fill:#009e0a;fill-opacity:1">
      <g
         style="fill:#009e0a;fill-opacity:1;stroke:none;stroke-opacity:1"
         id="g46">
        <g
           id="g45"
           transform="translate(1.993,8.8000002)"
           style="stroke:none;stroke-opacity:1;fill:#009e0a;fill-opacity:1">
          <path
             style="stroke:none;stroke-opacity:1;fill:#009e0a;fill-opacity:1"
             d="m 4.25,-6.046875 c 0.078125,-0.28125 0.109375,-0.34375 0.234375,-0.375 0.09375,-0.015625 0.421875,-0.015625 0.625,-0.015625 1.015625,0 1.453125,0.03125 1.453125,0.8125 0,0.15625 -0.03125,0.546875 -0.078125,0.796875 0,0.046875 -0.03125,0.15625 -0.03125,0.1875 0,0.0625 0.03125,0.140625 0.125,0.140625 0.109375,0 0.125,-0.078125 0.15625,-0.234375 L 7,-6.46875 C 7.015625,-6.515625 7.015625,-6.609375 7.015625,-6.640625 7.015625,-6.75 6.921875,-6.75 6.75,-6.75 H 1.21875 c -0.234375,0 -0.25,0.015625 -0.328125,0.203125 l -0.59375,1.75 c 0,0.015625 -0.0625,0.15625 -0.0625,0.1875 0,0.046875 0.0625,0.109375 0.125,0.109375 0.09375,0 0.109375,-0.0625 0.171875,-0.21875 C 1.0625,-6.265625 1.328125,-6.4375 2.796875,-6.4375 H 3.1875 c 0.28125,0 0.28125,0.03125 0.28125,0.125 0,0.046875 -0.03125,0.171875 -0.046875,0.203125 L 2.09375,-0.78125 C 2,-0.421875 1.96875,-0.3125 0.90625,-0.3125 c -0.359375,0 -0.421875,0 -0.421875,0.1875 C 0.484375,0 0.59375,0 0.65625,0 c 0.265625,0 0.546875,-0.015625 0.8125,-0.015625 0.28125,0 0.578125,-0.015625 0.859375,-0.015625 0.28125,0 0.546875,0.015625 0.828125,0.015625 C 3.4375,-0.015625 3.734375,0 4.015625,0 c 0.09375,0 0.21875,0 0.21875,-0.203125 0,-0.109375 -0.078125,-0.109375 -0.34375,-0.109375 -0.234375,0 -0.375,0 -0.625,-0.015625 -0.296875,-0.03125 -0.375,-0.0625 -0.375,-0.21875 0,-0.015625 0,-0.0625 0.046875,-0.203125 z m 0,0"
             id="path44" />
        </g>
      </g>
      <g
         style="fill:#009e0a;fill-opacity:1;stroke:none;stroke-opacity:1"
         id="g48">
        <g
           id="g47"
           transform="translate(7.8140001,10.294)"
           style="stroke:none;stroke-opacity:1;fill:#009e0a;fill-opacity:1">
          <path
             style="stroke:none;stroke-opacity:1;fill:#009e0a;fill-opacity:1"
             d="m 3.0625,-1.59375 c 0.15625,0 0.203125,0 0.203125,-0.140625 0,-0.625 -0.34375,-1.375 -1.390625,-1.375 -0.90625,0 -1.609375,0.71875 -1.609375,1.578125 0,0.890625 0.78125,1.59375 1.703125,1.59375 0.9375,0 1.296875,-0.75 1.296875,-0.90625 0,-0.015625 -0.015625,-0.09375 -0.125,-0.09375 -0.09375,0 -0.109375,0.046875 -0.125,0.109375 -0.21875,0.5625 -0.75,0.671875 -1,0.671875 C 1.6875,-0.15625 1.375,-0.296875 1.171875,-0.5625 0.90625,-0.890625 0.90625,-1.3125 0.90625,-1.59375 Z M 0.90625,-1.765625 C 0.984375,-2.75 1.609375,-2.90625 1.875,-2.90625 c 0.859375,0 0.890625,0.96875 0.90625,1.140625 z m 0,0"
             id="path46" />
        </g>
      </g>
      <g
         style="fill:#009e0a;fill-opacity:1;stroke:none;stroke-opacity:1"
         id="g50">
        <g
           id="g49"
           transform="translate(11.357,10.294)"
           style="stroke:none;stroke-opacity:1;fill:#009e0a;fill-opacity:1">
          <path
             style="stroke:none;stroke-opacity:1;fill:#009e0a;fill-opacity:1"
             d="M 1.734375,-0.734375 C 1.671875,-0.5 1.4375,-0.125 1.078125,-0.125 c -0.015625,0 -0.234375,0 -0.375,-0.09375 0.28125,-0.09375 0.3125,-0.34375 0.3125,-0.390625 0,-0.15625 -0.125,-0.25 -0.28125,-0.25 -0.203125,0 -0.40625,0.15625 -0.40625,0.421875 0,0.34375 0.390625,0.5 0.734375,0.5 0.328125,0 0.609375,-0.1875 0.78125,-0.484375 C 2.015625,-0.0625 2.390625,0.0625 2.671875,0.0625 c 0.8125,0 1.234375,-0.859375 1.234375,-1.0625 0,-0.09375 -0.09375,-0.09375 -0.109375,-0.09375 -0.109375,0 -0.109375,0.046875 -0.140625,0.125 -0.140625,0.484375 -0.5625,0.84375 -0.953125,0.84375 -0.28125,0 -0.421875,-0.1875 -0.421875,-0.453125 0,-0.1875 0.171875,-0.8125 0.359375,-1.59375 C 2.78125,-2.703125 3.09375,-2.875 3.328125,-2.875 c 0.015625,0 0.21875,0 0.375,0.09375 -0.21875,0.0625 -0.3125,0.265625 -0.3125,0.390625 0,0.140625 0.125,0.25 0.28125,0.25 0.15625,0 0.390625,-0.125 0.390625,-0.421875 0,-0.390625 -0.453125,-0.515625 -0.71875,-0.515625 -0.359375,0 -0.640625,0.234375 -0.78125,0.5 -0.125,-0.28125 -0.453125,-0.5 -0.84375,-0.5 C 0.9375,-3.078125 0.5,-2.21875 0.5,-2 c 0,0.078125 0.09375,0.078125 0.109375,0.078125 0.09375,0 0.09375,-0.015625 0.140625,-0.109375 C 0.921875,-2.578125 1.359375,-2.875 1.703125,-2.875 1.9375,-2.875 2.125,-2.75 2.125,-2.421875 2.125,-2.28125 2.03125,-1.9375 1.96875,-1.6875 Z m 0,0"
             id="path48" />
        </g>
        <g
           id="use10"
           transform="translate(15.874628,10.294)"
           style="stroke:none;stroke-opacity:1;fill:#009e0a;fill-opacity:1">
          <path
             style="stroke:none;stroke-opacity:1;fill:#009e0a;fill-opacity:1"
             d="m 1.71875,-2.75 h 0.703125 c 0.140625,0 0.21875,0 0.21875,-0.15625 C 2.640625,-3 2.5625,-3 2.4375,-3 H 1.78125 l 0.25,-1.03125 C 2.046875,-4.0625 2.0625,-4.109375 2.0625,-4.125 c 0,-0.140625 -0.109375,-0.234375 -0.25,-0.234375 -0.171875,0 -0.265625,0.125 -0.328125,0.296875 C 1.4375,-3.875 1.53125,-4.21875 1.21875,-3 H 0.515625 c -0.125,0 -0.21875,0 -0.21875,0.15625 C 0.296875,-2.75 0.375,-2.75 0.5,-2.75 H 1.15625 L 0.75,-1.109375 C 0.703125,-0.9375 0.640625,-0.6875 0.640625,-0.59375 c 0,0.40625 0.359375,0.65625 0.75,0.65625 0.78125,0 1.21875,-0.96875 1.21875,-1.0625 0,-0.09375 -0.09375,-0.09375 -0.109375,-0.09375 -0.09375,0 -0.09375,0.015625 -0.15625,0.140625 -0.1875,0.4375 -0.546875,0.828125 -0.921875,0.828125 -0.15625,0 -0.25,-0.09375 -0.25,-0.34375 0,-0.0625 0.03125,-0.21875 0.046875,-0.28125 z m 0,0"
             id="path49" />
        </g>
      </g>
    </g>
  </g>
  <g
     inkscape:label=""
     transform="translate(113.78831,86.682941)"
     id="g60"
     style="fill:#ec0000;fill-opacity:1">
    <g
       id="g59"
       transform="matrix(1.33333,0,0,1.33333,-3.40733,-2.65)"
       style="fill:#ec0000;fill-opacity:1">
      <g
         style="fill:#ec0000;fill-opacity:1"
         id="g54">
        <g
           id="g53"
           transform="translate(1.993,8.8000002)"
           style="fill:#ec0000;fill-opacity:1">
          <path
             style="stroke:none;fill:#ec0000;fill-opacity:1"
             d="M 3.984375,-1.34375 C 5.515625,-1.46875 6.625,-2.390625 6.625,-3.40625 6.625,-4.4375 5.5,-5.34375 3.984375,-5.46875 v -0.546875 c 0,-0.34375 0,-0.484375 0.9375,-0.484375 H 5.25 v -0.3125 c -0.359375,0.03125 -1.265625,0.03125 -1.6875,0.03125 -0.40625,0 -1.328125,0 -1.6875,-0.03125 V -6.5 h 0.328125 c 0.953125,0 0.953125,0.125 0.953125,0.484375 V -5.46875 C 1.625,-5.3125 0.5625,-4.390625 0.5625,-3.40625 c 0,1.03125 1.109375,1.90625 2.59375,2.0625 v 0.5625 c 0,0.328125 0,0.46875 -0.953125,0.46875 H 1.875 V 0 c 0.359375,-0.03125 1.28125,-0.03125 1.6875,-0.03125 0.40625,0 1.328125,0 1.6875,0.03125 V -0.3125 H 4.921875 c -0.9375,0 -0.9375,-0.125 -0.9375,-0.46875 z M 3.15625,-1.578125 C 1.734375,-1.765625 1.5625,-2.78125 1.5625,-3.40625 c 0,-0.515625 0.09375,-1.625 1.59375,-1.828125 z M 3.984375,-5.25 c 1.375,0.171875 1.640625,1.078125 1.640625,1.84375 0,0.59375 -0.140625,1.65625 -1.640625,1.84375 z m 0,0"
             id="path52" />
        </g>
      </g>
      <g
         style="fill:#ec0000;fill-opacity:1"
         id="g56">
        <g
           id="g55"
           transform="translate(9.1879997,10.294)"
           style="fill:#ec0000;fill-opacity:1">
          <path
             style="stroke:none;fill:#ec0000;fill-opacity:1"
             d="M 1.40625,-2.75 H 2.484375 V -3 H 1.40625 v -1.28125 h -0.25 c 0,0.625 -0.28125,1.3125 -0.953125,1.328125 V -2.75 H 0.84375 v 1.875 c 0,0.78125 0.59375,0.9375 0.984375,0.9375 0.46875,0 0.78125,-0.390625 0.78125,-0.9375 V -1.265625 H 2.375 v 0.375 c 0,0.484375 -0.21875,0.734375 -0.5,0.734375 -0.46875,0 -0.46875,-0.578125 -0.46875,-0.703125 z m 0,0"
             id="path54" />
        </g>
      </g>
      <g
         style="fill:#ec0000;fill-opacity:1"
         id="g58">
        <g
           id="g57"
           transform="translate(12.301,10.294)"
           style="fill:#ec0000;fill-opacity:1">
          <path
             style="stroke:none;fill:#ec0000;fill-opacity:1"
             d="m 2.1875,-4.625 c 0,-0.015625 0.015625,-0.109375 0.015625,-0.109375 0,-0.046875 -0.015625,-0.109375 -0.109375,-0.109375 -0.140625,0 -0.71875,0.0625 -0.890625,0.078125 -0.046875,0 -0.15625,0.015625 -0.15625,0.15625 0,0.09375 0.109375,0.09375 0.1875,0.09375 0.328125,0 0.328125,0.0625 0.328125,0.109375 0,0.046875 -0.015625,0.09375 -0.015625,0.15625 L 0.5625,-0.3125 c -0.046875,0.125 -0.046875,0.140625 -0.046875,0.15625 0,0.109375 0.09375,0.21875 0.25,0.21875 0.078125,0 0.203125,-0.03125 0.28125,-0.171875 C 1.0625,-0.15625 1.125,-0.40625 1.15625,-0.546875 l 0.171875,-0.625 C 1.34375,-1.28125 1.421875,-1.546875 1.4375,-1.640625 1.5,-1.90625 1.5,-1.921875 1.640625,-2.140625 1.875,-2.484375 2.21875,-2.875 2.765625,-2.875 c 0.390625,0 0.40625,0.3125 0.40625,0.484375 0,0.421875 -0.296875,1.1875 -0.40625,1.484375 -0.078125,0.203125 -0.109375,0.265625 -0.109375,0.375 0,0.375 0.3125,0.59375 0.65625,0.59375 0.703125,0 1.015625,-0.953125 1.015625,-1.0625 0,-0.09375 -0.09375,-0.09375 -0.125,-0.09375 -0.09375,0 -0.09375,0.046875 -0.125,0.125 -0.15625,0.5625 -0.46875,0.84375 -0.734375,0.84375 -0.15625,0 -0.1875,-0.09375 -0.1875,-0.25 0,-0.15625 0.046875,-0.25 0.171875,-0.5625 C 3.40625,-1.15625 3.6875,-1.890625 3.6875,-2.28125 c 0,-0.109375 0,-0.40625 -0.25,-0.609375 -0.125,-0.078125 -0.328125,-0.1875 -0.65625,-0.1875 -0.5,0 -0.875,0.28125 -1.125,0.578125 z m 0,0"
             id="path56" />
        </g>
      </g>
    </g>
  </g>
</svg>
