<?xml version="1.0" encoding="UTF-8" standalone="no"?>
<!-- Created with Inkscape (http://www.inkscape.org/) -->

<svg
   width="210mm"
   height="297mm"
   viewBox="0 0 210 297"
   version="1.1"
   id="svg8"
   inkscape:version="1.3.2 (1:1.3.2+202311252150+091e20ef0f)"
   sodipodi:docname="sang_alvéole.svg"
   xmlns:inkscape="http://www.inkscape.org/namespaces/inkscape"
   xmlns:sodipodi="http://sodipodi.sourceforge.net/DTD/sodipodi-0.dtd"
   xmlns="http://www.w3.org/2000/svg"
   xmlns:svg="http://www.w3.org/2000/svg"
   xmlns:rdf="http://www.w3.org/1999/02/22-rdf-syntax-ns#"
   xmlns:cc="http://creativecommons.org/ns#"
   xmlns:dc="http://purl.org/dc/elements/1.1/">
  <sodipodi:namedview
     id="base"
     pagecolor="#ffffff"
     bordercolor="#666666"
     borderopacity="1.0"
     inkscape:pageopacity="0.0"
     inkscape:pageshadow="2"
     inkscape:zoom="1.1831875"
     inkscape:cx="456.39428"
     inkscape:cy="300.03698"
     inkscape:document-units="mm"
     inkscape:current-layer="layer1"
     showgrid="false"
     inkscape:window-width="1920"
     inkscape:window-height="1003"
     inkscape:window-x="0"
     inkscape:window-y="0"
     inkscape:window-maximized="1"
     inkscape:showpageshadow="0"
     inkscape:pagecheckerboard="0"
     inkscape:deskcolor="#d1d1d1" />
  <defs
     id="defs2">
    <marker
       style="overflow:visible"
       id="marker6"
       refX="0"
       refY="0"
       orient="auto-start-reverse"
       inkscape:stockid="Concave triangle arrow"
       markerWidth="1"
       markerHeight="1"
       viewBox="0 0 1 1"
       inkscape:isstock="true"
       inkscape:collect="always"
       preserveAspectRatio="xMidYMid">
      <path
         transform="scale(0.7)"
         d="M -2,-4 9,0 -2,4 c 2,-2.33 2,-5.66 0,-8 z"
         style="fill:context-stroke;fill-rule:evenodd;stroke:none"
         id="path6" />
    </marker>
    <marker
       style="overflow:visible"
       id="ConcaveTriangle"
       refX="0"
       refY="0"
       orient="auto-start-reverse"
       inkscape:stockid="Concave triangle arrow"
       markerWidth="1"
       markerHeight="1"
       viewBox="0 0 1 1"
       inkscape:isstock="true"
       inkscape:collect="always"
       preserveAspectRatio="xMidYMid">
      <path
         transform="scale(0.7)"
         d="M -2,-4 9,0 -2,4 c 2,-2.33 2,-5.66 0,-8 z"
         style="fill:context-stroke;fill-rule:evenodd;stroke:none"
         id="path7" />
    </marker>
    <marker
       inkscape:stockid="Arrow2Lend"
       orient="auto"
       refY="0.0"
       refX="0.0"
       id="marker2141"
       style="overflow:visible;"
       inkscape:isstock="true">
      <path
         id="path2139"
         style="fill-rule:evenodd;stroke-width:0.625;stroke-linejoin:round;stroke:#5599ff;stroke-opacity:1;fill:#5599ff;fill-opacity:1"
         d="M 8.7185878,4.0337352 L -2.2072895,0.016013256 L 8.7185884,-4.0017078 C 6.9730900,-1.6296469 6.9831476,1.6157441 8.7185878,4.0337352 z "
         transform="scale(1.1) rotate(180) translate(1,0)" />
    </marker>
    <marker
       inkscape:stockid="Arrow2Lend"
       orient="auto"
       refY="0.0"
       refX="0.0"
       id="marker1660"
       style="overflow:visible;"
       inkscape:isstock="true">
      <path
         id="path1658"
         style="fill-rule:evenodd;stroke-width:0.625;stroke-linejoin:round;stroke:#ffcc00;stroke-opacity:1;fill:#ffcc00;fill-opacity:1"
         d="M 8.7185878,4.0337352 L -2.2072895,0.016013256 L 8.7185884,-4.0017078 C 6.9730900,-1.6296469 6.9831476,1.6157441 8.7185878,4.0337352 z "
         transform="scale(1.1) rotate(180) translate(1,0)" />
    </marker>
    <marker
       inkscape:stockid="Arrow2Lend"
       orient="auto"
       refY="0.0"
       refX="0.0"
       id="marker1640"
       style="overflow:visible;"
       inkscape:isstock="true">
      <path
         id="path1638"
         style="fill-rule:evenodd;stroke-width:0.625;stroke-linejoin:round;stroke:#ff0000;stroke-opacity:1;fill:#ff0000;fill-opacity:1"
         d="M 8.7185878,4.0337352 L -2.2072895,0.016013256 L 8.7185884,-4.0017078 C 6.9730900,-1.6296469 6.9831476,1.6157441 8.7185878,4.0337352 z "
         transform="scale(1.1) rotate(180) translate(1,0)" />
    </marker>
    <marker
       inkscape:stockid="Arrow2Lend"
       orient="auto"
       refY="0"
       refX="0"
       id="marker1640-3"
       style="overflow:visible"
       inkscape:isstock="true"
       viewBox="0 0 12.70584107 9.5264135"
       markerWidth="12.70584107"
       markerHeight="9.5264135"
       preserveAspectRatio="xMidYMid">
      <path
         inkscape:connector-curvature="0"
         id="path1638-6"
         style="fill:#ff0000;fill-opacity:1;fill-rule:evenodd;stroke:#ff0000;stroke-width:0.625;stroke-linejoin:round;stroke-opacity:1"
         d="M 8.7185878,4.0337352 -2.2072895,0.01601326 8.7185884,-4.0017078 c -1.7454984,2.3720609 -1.7354408,5.6174519 -6e-7,8.035443 z"
         transform="matrix(-1.1,0,0,-1.1,-1.1,0)" />
    </marker>
    <marker
       inkscape:stockid="Arrow2Lend"
       orient="auto"
       refY="0"
       refX="0"
       id="marker1640-3-5"
       style="overflow:visible"
       inkscape:isstock="true"
       viewBox="0 0 12.705841 9.5264135"
       markerWidth="12.705841"
       markerHeight="9.5264139"
       preserveAspectRatio="xMidYMid">
      <path
         inkscape:connector-curvature="0"
         id="path1638-6-6"
         style="fill:#ff0000;fill-opacity:1;fill-rule:evenodd;stroke:#ff0000;stroke-width:0.625;stroke-linejoin:round;stroke-opacity:1"
         d="M 8.7185878,4.0337352 -2.2072895,0.01601326 8.7185884,-4.0017078 c -1.7454984,2.3720609 -1.7354408,5.6174519 -6e-7,8.035443 z"
         transform="matrix(-1.1,0,0,-1.1,-1.1,0)" />
    </marker>
    <marker
       style="overflow:visible"
       id="marker6-9"
       refX="0"
       refY="0"
       orient="auto-start-reverse"
       inkscape:stockid="Concave triangle arrow"
       markerWidth="1"
       markerHeight="1"
       viewBox="0 0 1 1"
       inkscape:isstock="true"
       inkscape:collect="always"
       preserveAspectRatio="xMidYMid">
      <path
         transform="scale(0.7)"
         d="M -2,-4 9,0 -2,4 c 2,-2.33 2,-5.66 0,-8 z"
         style="fill:context-stroke;fill-rule:evenodd;stroke:none"
         id="path6-1" />
    </marker>
    <marker
       style="overflow:visible"
       id="ConcaveTriangle-2"
       refX="0"
       refY="0"
       orient="auto-start-reverse"
       inkscape:stockid="Concave triangle arrow"
       markerWidth="1"
       markerHeight="1"
       viewBox="0 0 1 1"
       inkscape:isstock="true"
       inkscape:collect="always"
       preserveAspectRatio="xMidYMid">
      <path
         transform="scale(0.7)"
         d="M -2,-4 9,0 -2,4 c 2,-2.33 2,-5.66 0,-8 z"
         style="fill:context-stroke;fill-rule:evenodd;stroke:none"
         id="path7-7" />
    </marker>
  </defs>
  <metadata
     id="metadata5">
    <rdf:RDF>
      <cc:Work
         rdf:about="">
        <dc:format>image/svg+xml</dc:format>
        <dc:type
           rdf:resource="http://purl.org/dc/dcmitype/StillImage" />
        <dc:title />
      </cc:Work>
    </rdf:RDF>
  </metadata>
  <g
     inkscape:label="Calque 1"
     inkscape:groupmode="layer"
     id="layer1">
    <g
       id="g34"
       inkscape:export-filename="alveole.pdf"
       inkscape:export-xdpi="300"
       inkscape:export-ydpi="300">
      <path
         style="fill:#ffabab;fill-opacity:1;stroke:#000000;stroke-width:0.359304;stroke-linejoin:bevel;stroke-opacity:1;paint-order:stroke fill markers"
         id="path1"
         sodipodi:type="arc"
         sodipodi:cx="-69.749672"
         sodipodi:cy="69.09745"
         sodipodi:rx="25.028027"
         sodipodi:ry="25.028027"
         sodipodi:start="4.6904945"
         sodipodi:end="1.5971371"
         sodipodi:arc-type="arc"
         d="m -70.297604,44.075422 a 25.028027,25.028027 0 0 1 22.14969,12.382165 25.028027,25.028027 0 0 1 -0.05641,25.375649 25.028027,25.028027 0 0 1 -22.204526,12.283559"
         sodipodi:open="true"
         transform="rotate(-90)" />
      <rect
         style="fill:#ffa6a6;fill-opacity:1;stroke:none;stroke-width:0.37129;stroke-linejoin:bevel;stroke-opacity:1;paint-order:stroke fill markers"
         id="rect3"
         width="7.2173128"
         height="42.516308"
         x="-77.490356"
         y="11.859495"
         transform="rotate(-90)" />
      <rect
         style="fill:#ffa6a6;fill-opacity:1;stroke:none;stroke-width:0.37129;stroke-linejoin:bevel;stroke-opacity:1;paint-order:stroke fill markers"
         id="rect3-3"
         width="7.2173128"
         height="42.516308"
         x="-77.636719"
         y="83.600883"
         transform="rotate(-90)" />
      <path
         style="fill:none;stroke:#000000;stroke-width:0.264583px;stroke-linecap:butt;stroke-linejoin:miter;stroke-opacity:1"
         d="M 43.943178,70.427224 H 12.058287"
         id="path3" />
      <path
         style="fill:none;stroke:#000000;stroke-width:0.30108px;stroke-linecap:butt;stroke-linejoin:miter;stroke-opacity:1"
         d="M 53.114346,77.50094 H 11.826115"
         id="path3-7" />
      <path
         style="fill:none;stroke:#000000;stroke-width:0.300664px;stroke-linecap:butt;stroke-linejoin:miter;stroke-opacity:1"
         d="M 126.15567,77.779891 H 84.981523"
         id="path3-7-5" />
      <path
         style="fill:none;stroke:#000000;stroke-width:0.264583px;stroke-linecap:butt;stroke-linejoin:miter;stroke-opacity:1"
         d="M 126.01041,70.544444 H 94.12542"
         id="path3-6" />
      <circle
         style="fill:#ffffff;fill-opacity:1;stroke:#000000;stroke-width:1.059;stroke-linejoin:bevel;stroke-dasharray:none;stroke-opacity:1;paint-order:stroke fill markers"
         id="path2"
         cx="-70.153435"
         cy="68.933578"
         r="17.50502"
         transform="rotate(-90)" />
      <path
         style="fill:none;stroke:#ff2f2f;stroke-width:0.337518px;stroke-linecap:butt;stroke-linejoin:miter;stroke-opacity:1;marker-end:url(#marker1640-3)"
         d="M 118.50111,73.858877 H 106.0638"
         id="path4" />
      <path
         style="fill:none;stroke:#ff2f2f;stroke-width:0.337518px;stroke-linecap:butt;stroke-linejoin:miter;stroke-opacity:1;marker-end:url(#marker1640-3-5)"
         d="M 38.006518,73.872951 H 25.569208"
         id="path4-2" />
      <path
         style="fill:none;stroke:#000000;stroke-width:0.330893;stroke-linecap:butt;stroke-linejoin:miter;stroke-dasharray:none;stroke-opacity:1;marker-start:url(#marker6);marker-end:url(#ConcaveTriangle)"
         d="M 69.511046,85.434789 V 71.818723"
         id="path5" />
      <path
         style="fill:none;stroke:#000000;stroke-width:0.294655;stroke-linecap:butt;stroke-linejoin:miter;stroke-dasharray:none;stroke-opacity:1;marker-start:url(#marker6-9);marker-end:url(#ConcaveTriangle-2)"
         d="M 69.247547,50.247087 V 46.428911"
         id="path5-0" />
      <g
         inkscape:label=""
         transform="matrix(2.0554952,0,0,2.0554952,62.705187,75.05966)"
         id="g8">
        <g
           id="surface1"
           transform="matrix(0.352778,0,0,0.352778,-0.846402,-0.701146)">
          <g
             style="fill:#000000;fill-opacity:1"
             id="g3">
            <g
               id="use2"
               transform="translate(1.993,8.8000002)">
              <path
                 style="stroke:none"
                 d="m 3.734375,-6.125 c 0.0625,-0.234375 0.09375,-0.328125 0.28125,-0.359375 C 4.109375,-6.5 4.421875,-6.5 4.625,-6.5 c 0.703125,0 1.8125,0 1.8125,0.984375 0,0.34375 -0.15625,1.03125 -0.546875,1.421875 -0.265625,0.25 -0.78125,0.578125 -1.6875,0.578125 H 3.09375 Z m 1.4375,2.734375 c 1.015625,-0.21875 2.1875,-0.921875 2.1875,-1.921875 0,-0.859375 -0.890625,-1.5 -2.203125,-1.5 H 2.328125 c -0.203125,0 -0.296875,0 -0.296875,0.203125 C 2.03125,-6.5 2.125,-6.5 2.3125,-6.5 c 0.015625,0 0.203125,0 0.375,0.015625 0.1875,0.03125 0.265625,0.03125 0.265625,0.171875 0,0.03125 0,0.0625 -0.03125,0.1875 l -1.34375,5.34375 C 1.484375,-0.390625 1.46875,-0.3125 0.671875,-0.3125 0.5,-0.3125 0.40625,-0.3125 0.40625,-0.109375 0.40625,0 0.53125,0 0.546875,0 c 0.28125,0 0.984375,-0.03125 1.25,-0.03125 0.28125,0 1,0.03125 1.28125,0.03125 0.078125,0 0.1875,0 0.1875,-0.203125 0,-0.109375 -0.078125,-0.109375 -0.28125,-0.109375 -0.359375,0 -0.640625,0 -0.640625,-0.171875 0,-0.0625 0.015625,-0.109375 0.03125,-0.171875 l 0.65625,-2.640625 h 1.1875 c 0.90625,0 1.078125,0.5625 1.078125,0.90625 0,0.140625 -0.078125,0.453125 -0.140625,0.6875 C 5.09375,-1.421875 5,-1.0625 5,-0.859375 5,0.21875 6.203125,0.21875 6.328125,0.21875 c 0.84375,0 1.203125,-1 1.203125,-1.140625 0,-0.125 -0.109375,-0.125 -0.125,-0.125 -0.09375,0 -0.109375,0.0625 -0.125,0.140625 C 7.03125,-0.171875 6.59375,0 6.375,0 6.046875,0 5.96875,-0.21875 5.96875,-0.609375 c 0,-0.3125 0.0625,-0.8125 0.109375,-1.140625 0.015625,-0.140625 0.03125,-0.328125 0.03125,-0.46875 0,-0.765625 -0.671875,-1.078125 -0.9375,-1.171875 z m 0,0"
                 id="path8" />
            </g>
          </g>
        </g>
      </g>
      <g
         inkscape:label=""
         transform="translate(64.104282,46.655979)"
         id="g12">
        <g
           id="g11"
           transform="matrix(0.352778,0,0,0.352778,-0.901524,-0.627459)">
          <g
             style="fill:#000000;fill-opacity:1"
             id="g10">
            <g
               id="g9"
               transform="translate(1.993,10.888)">
              <path
                 style="stroke:none"
                 d="m 8.03125,-8.453125 c -0.640625,0.125 -0.96875,0.578125 -0.96875,1.03125 0,0.5 0.390625,0.671875 0.6875,0.671875 0.578125,0 1.046875,-0.5 1.046875,-1.125 0,-0.65625 -0.640625,-1.234375 -1.671875,-1.234375 -0.828125,0 -1.78125,0.375 -2.640625,1.625 -0.140625,-1.09375 -0.96875,-1.625 -1.796875,-1.625 -0.8125,0 -1.21875,0.625 -1.46875,1.078125 -0.34375,0.734375 -0.65625,1.984375 -0.65625,2.078125 0,0.09375 0.078125,0.1875 0.21875,0.1875 0.171875,0 0.1875,-0.015625 0.3125,-0.5 0.3125,-1.234375 0.703125,-2.4375 1.53125,-2.4375 0.5,0 0.640625,0.359375 0.640625,0.953125 0,0.453125 -0.203125,1.265625 -0.359375,1.90625 l -0.578125,2.234375 c -0.078125,0.390625 -0.296875,1.3125 -0.40625,1.6875 -0.140625,0.53125 -0.375,1.515625 -0.375,1.609375 0,0.296875 0.234375,0.515625 0.546875,0.515625 0.21875,0 0.609375,-0.140625 0.734375,-0.546875 C 2.890625,-0.515625 3.65625,-3.640625 3.78125,-4.109375 3.890625,-4.5625 4,-5 4.109375,-5.453125 4.1875,-5.75 4.28125,-6.078125 4.34375,-6.34375 4.40625,-6.53125 4.953125,-7.546875 5.46875,-8 c 0.25,-0.21875 0.796875,-0.703125 1.640625,-0.703125 0.328125,0 0.65625,0.0625 0.921875,0.25 z m 0,0"
                 id="path9" />
            </g>
          </g>
        </g>
      </g>
      <g
         inkscape:label=""
         transform="translate(58.745422,90.022099)"
         id="g18">
        <g
           id="g17"
           transform="matrix(0.352778,0,0,0.352778,-0.99523,-0.693561)">
          <g
             style="fill:#000000;fill-opacity:1"
             id="g13">
            <g
               id="use7"
               transform="translate(1.993,16.341)">
              <path
                 style="stroke:none"
                 d="m 7.4375,-5.34375 c 0,-1.375 0,-2.09375 -0.875,-2.890625 C 5.796875,-8.921875 4.921875,-9.125 4.21875,-9.125 c -1.640625,0 -2.8125,1.28125 -2.8125,2.640625 0,0.765625 0.625,0.796875 0.734375,0.796875 0.28125,0 0.75,-0.15625 0.75,-0.734375 0,-0.515625 -0.390625,-0.75 -0.75,-0.75 -0.078125,0 -0.171875,0.03125 -0.234375,0.046875 0.421875,-1.296875 1.546875,-1.671875 2.265625,-1.671875 1.03125,0 2.171875,0.90625 2.171875,2.640625 V -5.25 C 5.125,-5.203125 3.65625,-5.046875 2.5,-4.421875 c -1.296875,0.71875 -1.671875,1.75 -1.671875,2.546875 0,1.578125 1.859375,2.046875 2.953125,2.046875 1.140625,0 2.1875,-0.640625 2.640625,-1.828125 0.046875,0.90625 0.625,1.734375 1.53125,1.734375 0.4375,0 1.53125,-0.28125 1.53125,-1.921875 V -3 h -0.375 v 1.1875 c 0,1.25 -0.5625,1.421875 -0.828125,1.421875 C 7.4375,-0.390625 7.4375,-1.46875 7.4375,-2.375 Z M 6.34375,-2.875 c 0,1.796875 -1.28125,2.703125 -2.421875,2.703125 -1.03125,0 -1.828125,-0.75 -1.828125,-1.703125 0,-0.625 0.265625,-1.71875 1.453125,-2.375 1,-0.5625 2.140625,-0.640625 2.796875,-0.6875 z m 0,0"
                 id="path14" />
            </g>
            <g
               id="use8"
               transform="translate(11.468822,16.341)">
              <path
                 style="stroke:none"
                 d="m 3.15625,-14.328125 -2.453125,0.21875 v 0.53125 c 1.21875,0 1.40625,0.125 1.40625,1.125 v 11.03125 c 0,0.78125 -0.078125,0.890625 -1.40625,0.890625 V 0 c 0.5,-0.046875 1.40625,-0.046875 1.921875,-0.046875 0.53125,0 1.4375,0 1.9375,0.046875 v -0.53125 c -1.3125,0 -1.40625,-0.09375 -1.40625,-0.890625 z m 0,0"
                 id="path15" />
            </g>
            <g
               id="use9"
               transform="translate(16.626183,16.341)">
              <path
                 style="stroke:none"
                 d="m 8.078125,-7.015625 c 0.1875,-0.46875 0.515625,-1.28125 1.71875,-1.328125 V -8.875 c -0.390625,0.015625 -0.921875,0.03125 -1.3125,0.03125 -0.421875,0 -1.109375,0 -1.515625,-0.03125 v 0.53125 c 0.515625,0.046875 0.796875,0.28125 0.796875,0.828125 0,0.1875 0,0.21875 -0.125,0.515625 L 5.375,-1.265625 2.90625,-7.453125 c -0.125,-0.265625 -0.125,-0.3125 -0.125,-0.390625 0,-0.5 0.6875,-0.5 1,-0.5 V -8.875 c -0.5,0.03125 -1.40625,0.03125 -1.921875,0.03125 -0.5625,0 -1.203125,0 -1.65625,-0.03125 v 0.53125 c 0.78125,0 1.21875,0 1.46875,0.640625 l 3,7.515625 C 4.796875,0.125 4.8125,0.171875 5,0.171875 5.1875,0.171875 5.203125,0.125 5.328125,-0.1875 Z m 0,0"
                 id="path16" />
            </g>
          </g>
          <g
             style="fill:#000000;fill-opacity:1"
             id="g14">
            <g
               id="use10"
               transform="translate(26.104071,16.341)">
              <path
                 style="stroke:none"
                 d="m 7.171875,-13.328125 c 0.25,-0.21875 0.3125,-0.265625 0.3125,-0.484375 0,-0.3125 -0.28125,-0.5625 -0.5625,-0.5625 -0.25,0 -0.328125,0.09375 -0.546875,0.34375 l -2.328125,2.984375 c -0.140625,0.1875 -0.140625,0.203125 -0.140625,0.21875 0,0.03125 0.1875,0.203125 0.21875,0.25 z m 0,0"
                 id="path17" />
            </g>
          </g>
          <g
             style="fill:#000000;fill-opacity:1"
             id="g15">
            <g
               id="use11"
               transform="translate(26.633032,16.341)">
              <path
                 style="stroke:none"
                 d="m 7.875,-4.859375 c 0.078125,-0.078125 0.078125,-0.125 0.078125,-0.328125 0,-2.109375 -1.109375,-3.9375 -3.46875,-3.9375 -2.1875,0 -3.921875,2.078125 -3.921875,4.625 0,2.6875 1.953125,4.671875 4.140625,4.671875 2.3125,0 3.234375,-2.203125 3.234375,-2.625 0,-0.15625 -0.125,-0.15625 -0.171875,-0.15625 -0.140625,0 -0.171875,0.046875 -0.25,0.296875 -0.453125,1.40625 -1.59375,2.109375 -2.65625,2.109375 -0.890625,0 -1.78125,-0.5 -2.34375,-1.40625 C 1.875,-2.671875 1.875,-3.890625 1.875,-4.859375 Z m -5.96875,-0.3125 c 0.140625,-2.96875 1.734375,-3.625 2.5625,-3.625 1.390625,0 2.34375,1.3125 2.375,3.625 z m 0,0"
                 id="path18" />
            </g>
            <g
               id="use12"
               transform="translate(35.03027,16.341)">
              <path
                 style="stroke:none"
                 d="M 8.90625,-4.421875 C 8.90625,-7.0625 6.984375,-9.125 4.734375,-9.125 c -2.25,0 -4.171875,2.0625 -4.171875,4.703125 0,2.609375 1.921875,4.59375 4.171875,4.59375 2.25,0 4.171875,-1.984375 4.171875,-4.59375 z m -4.171875,4.21875 c -0.96875,0 -1.796875,-0.578125 -2.28125,-1.390625 C 1.9375,-2.515625 1.875,-3.671875 1.875,-4.578125 c 0,-0.875 0.046875,-1.953125 0.578125,-2.875 0.421875,-0.6875 1.21875,-1.34375 2.28125,-1.34375 0.921875,0 1.703125,0.515625 2.203125,1.234375 0.640625,0.96875 0.640625,2.34375 0.640625,2.984375 0,0.796875 -0.03125,2.03125 -0.59375,3.03125 -0.578125,0.953125 -1.46875,1.34375 -2.25,1.34375 z m 0,0"
                 id="path19" />
            </g>
            <g
               id="use13"
               transform="translate(44.506096,16.341)">
              <path
                 style="stroke:none"
                 d="m 3.15625,-14.328125 -2.453125,0.21875 v 0.53125 c 1.21875,0 1.40625,0.125 1.40625,1.125 v 11.03125 c 0,0.78125 -0.078125,0.890625 -1.40625,0.890625 V 0 c 0.5,-0.046875 1.40625,-0.046875 1.921875,-0.046875 0.53125,0 1.4375,0 1.9375,0.046875 v -0.53125 c -1.3125,0 -1.40625,-0.09375 -1.40625,-0.890625 z m 0,0"
                 id="path20" />
            </g>
          </g>
          <g
             style="fill:#000000;fill-opacity:1"
             id="g16">
            <g
               id="use14"
               transform="translate(49.684116,16.341)">
              <path
                 style="stroke:none"
                 d="m 7.875,-4.859375 c 0.078125,-0.078125 0.078125,-0.125 0.078125,-0.328125 0,-2.109375 -1.109375,-3.9375 -3.46875,-3.9375 -2.1875,0 -3.921875,2.078125 -3.921875,4.625 0,2.6875 1.953125,4.671875 4.140625,4.671875 2.3125,0 3.234375,-2.203125 3.234375,-2.625 0,-0.15625 -0.125,-0.15625 -0.171875,-0.15625 -0.140625,0 -0.171875,0.046875 -0.25,0.296875 -0.453125,1.40625 -1.59375,2.109375 -2.65625,2.109375 -0.890625,0 -1.78125,-0.5 -2.34375,-1.40625 C 1.875,-2.671875 1.875,-3.890625 1.875,-4.859375 Z m -5.96875,-0.3125 c 0.140625,-2.96875 1.734375,-3.625 2.5625,-3.625 1.390625,0 2.34375,1.3125 2.375,3.625 z m 0,0"
                 id="path21" />
            </g>
          </g>
        </g>
      </g>
      <g
         inkscape:label=""
         transform="translate(14.390017,62.12135)"
         id="g33">
        <g
           id="g32"
           transform="matrix(0.352778,0,0,0.352778,-0.945621,-0.710097)">
          <g
             style="fill:#000000;fill-opacity:1"
             id="g31">
            <g
               id="g22"
               transform="translate(1.993,16.341)">
              <path
                 style="stroke:none"
                 d="m 7.203125,-7.234375 c -0.390625,0 -0.96875,0 -0.96875,0.734375 0,0.578125 0.484375,0.734375 0.75,0.734375 0.140625,0 0.734375,-0.0625 0.734375,-0.78125 0,-1.46875 -1.390625,-2.578125 -2.984375,-2.578125 -2.1875,0 -4.046875,2.015625 -4.046875,4.65625 0,2.75 1.9375,4.640625 4.046875,4.640625 2.5625,0 3.203125,-2.375 3.203125,-2.609375 0,-0.078125 -0.03125,-0.140625 -0.171875,-0.140625 -0.140625,0 -0.171875,0.015625 -0.25,0.28125 -0.53125,1.671875 -1.71875,2.09375 -2.59375,2.09375 C 3.59375,-0.203125 2,-1.421875 2,-4.484375 2,-7.625 3.53125,-8.765625 4.75,-8.765625 c 0.8125,0 2,0.40625 2.453125,1.53125 z m 0,0"
                 id="path22" />
            </g>
            <g
               id="g23"
               transform="translate(10.39024,16.341)">
              <path
                 style="stroke:none"
                 d="m 7.4375,-5.34375 c 0,-1.375 0,-2.09375 -0.875,-2.890625 C 5.796875,-8.921875 4.921875,-9.125 4.21875,-9.125 c -1.640625,0 -2.8125,1.28125 -2.8125,2.640625 0,0.765625 0.625,0.796875 0.734375,0.796875 0.28125,0 0.75,-0.15625 0.75,-0.734375 0,-0.515625 -0.390625,-0.75 -0.75,-0.75 -0.078125,0 -0.171875,0.03125 -0.234375,0.046875 0.421875,-1.296875 1.546875,-1.671875 2.265625,-1.671875 1.03125,0 2.171875,0.90625 2.171875,2.640625 V -5.25 C 5.125,-5.203125 3.65625,-5.046875 2.5,-4.421875 c -1.296875,0.71875 -1.671875,1.75 -1.671875,2.546875 0,1.578125 1.859375,2.046875 2.953125,2.046875 1.140625,0 2.1875,-0.640625 2.640625,-1.828125 0.046875,0.90625 0.625,1.734375 1.53125,1.734375 0.4375,0 1.53125,-0.28125 1.53125,-1.921875 V -3 h -0.375 v 1.1875 c 0,1.25 -0.5625,1.421875 -0.828125,1.421875 C 7.4375,-0.390625 7.4375,-1.46875 7.4375,-2.375 Z M 6.34375,-2.875 c 0,1.796875 -1.28125,2.703125 -2.421875,2.703125 -1.03125,0 -1.828125,-0.75 -1.828125,-1.703125 0,-0.625 0.265625,-1.71875 1.453125,-2.375 1,-0.5625 2.140625,-0.640625 2.796875,-0.6875 z m 0,0"
                 id="path23" />
            </g>
            <g
               id="g24"
               transform="translate(19.866062,16.341)">
              <path
                 style="stroke:none"
                 d="m 4.546875,3.484375 c -1.328125,0 -1.40625,-0.078125 -1.40625,-0.875 v -3.875 c 0.59375,0.875 1.46875,1.4375 2.5625,1.4375 2.0625,0 4.15625,-1.828125 4.15625,-4.640625 0,-2.59375 -1.796875,-4.578125 -3.9375,-4.578125 -1.234375,0 -2.25,0.6875 -2.828125,1.5 v -1.5 L 0.640625,-8.8125 v 0.53125 c 1.21875,0 1.40625,0.125 1.40625,1.109375 v 9.78125 c 0,0.78125 -0.078125,0.875 -1.40625,0.875 V 4.03125 c 0.5,-0.046875 1.40625,-0.046875 1.9375,-0.046875 0.546875,0 1.46875,0 1.96875,0.046875 z m -1.40625,-9.96875 c 0,-0.296875 0,-0.71875 0.8125,-1.484375 C 4.046875,-8.0625 4.75,-8.671875 5.78125,-8.671875 c 1.515625,0 2.75,1.875 2.75,4.234375 0,2.34375 -1.328125,4.265625 -2.953125,4.265625 -0.75,0 -1.546875,-0.34375 -2.171875,-1.3125 C 3.140625,-1.9375 3.140625,-2.0625 3.140625,-2.390625 Z m 0,0"
                 id="path24" />
            </g>
            <g
               id="g25"
               transform="translate(30.422535,16.341)">
              <path
                 style="stroke:none"
                 d="m 3.203125,-12.71875 c 0,-0.453125 -0.375,-0.859375 -0.84375,-0.859375 -0.453125,0 -0.84375,0.375 -0.84375,0.859375 0,0.453125 0.359375,0.84375 0.84375,0.84375 0.453125,0 0.84375,-0.375 0.84375,-0.84375 z M 0.78125,-8.8125 v 0.53125 c 1.15625,0 1.328125,0.125 1.328125,1.109375 v 5.75 c 0,0.78125 -0.078125,0.890625 -1.40625,0.890625 V 0 c 0.5,-0.046875 1.390625,-0.046875 1.90625,-0.046875 0.484375,0 1.34375,0 1.8125,0.046875 v -0.53125 c -1.21875,0 -1.265625,-0.125 -1.265625,-0.875 v -7.640625 z m 0,0"
                 id="path25" />
            </g>
            <g
               id="g26"
               transform="translate(35.579895,16.341)">
              <path
                 style="stroke:none"
                 d="m 3.15625,-14.328125 -2.453125,0.21875 v 0.53125 c 1.21875,0 1.40625,0.125 1.40625,1.125 v 11.03125 c 0,0.78125 -0.078125,0.890625 -1.40625,0.890625 V 0 c 0.5,-0.046875 1.40625,-0.046875 1.921875,-0.046875 0.53125,0 1.4375,0 1.9375,0.046875 v -0.53125 c -1.3125,0 -1.40625,-0.09375 -1.40625,-0.890625 z m 0,0"
                 id="path26" />
            </g>
            <g
               id="g27"
               transform="translate(40.737255,16.341)">
              <path
                 style="stroke:none"
                 d="m 3.15625,-14.328125 -2.453125,0.21875 v 0.53125 c 1.21875,0 1.40625,0.125 1.40625,1.125 v 11.03125 c 0,0.78125 -0.078125,0.890625 -1.40625,0.890625 V 0 c 0.5,-0.046875 1.40625,-0.046875 1.921875,-0.046875 0.53125,0 1.4375,0 1.9375,0.046875 v -0.53125 c -1.3125,0 -1.40625,-0.09375 -1.40625,-0.890625 z m 0,0"
                 id="path27" />
            </g>
            <g
               id="g28"
               transform="translate(45.894615,16.341)">
              <path
                 style="stroke:none"
                 d="m 7.4375,-5.34375 c 0,-1.375 0,-2.09375 -0.875,-2.890625 C 5.796875,-8.921875 4.921875,-9.125 4.21875,-9.125 c -1.640625,0 -2.8125,1.28125 -2.8125,2.640625 0,0.765625 0.625,0.796875 0.734375,0.796875 0.28125,0 0.75,-0.15625 0.75,-0.734375 0,-0.515625 -0.390625,-0.75 -0.75,-0.75 -0.078125,0 -0.171875,0.03125 -0.234375,0.046875 0.421875,-1.296875 1.546875,-1.671875 2.265625,-1.671875 1.03125,0 2.171875,0.90625 2.171875,2.640625 V -5.25 C 5.125,-5.203125 3.65625,-5.046875 2.5,-4.421875 c -1.296875,0.71875 -1.671875,1.75 -1.671875,2.546875 0,1.578125 1.859375,2.046875 2.953125,2.046875 1.140625,0 2.1875,-0.640625 2.640625,-1.828125 0.046875,0.90625 0.625,1.734375 1.53125,1.734375 0.4375,0 1.53125,-0.28125 1.53125,-1.921875 V -3 h -0.375 v 1.1875 c 0,1.25 -0.5625,1.421875 -0.828125,1.421875 C 7.4375,-0.390625 7.4375,-1.46875 7.4375,-2.375 Z M 6.34375,-2.875 c 0,1.796875 -1.28125,2.703125 -2.421875,2.703125 -1.03125,0 -1.828125,-0.75 -1.828125,-1.703125 0,-0.625 0.265625,-1.71875 1.453125,-2.375 1,-0.5625 2.140625,-0.640625 2.796875,-0.6875 z m 0,0"
                 id="path28" />
            </g>
            <g
               id="use15"
               transform="translate(55.370438,16.341)">
              <path
                 style="stroke:none"
                 d="m 3.203125,-12.71875 c 0,-0.453125 -0.375,-0.859375 -0.84375,-0.859375 -0.453125,0 -0.84375,0.375 -0.84375,0.859375 0,0.453125 0.359375,0.84375 0.84375,0.84375 0.453125,0 0.84375,-0.375 0.84375,-0.84375 z M 0.78125,-8.8125 v 0.53125 c 1.15625,0 1.328125,0.125 1.328125,1.109375 v 5.75 c 0,0.78125 -0.078125,0.890625 -1.40625,0.890625 V 0 c 0.5,-0.046875 1.390625,-0.046875 1.90625,-0.046875 0.484375,0 1.34375,0 1.8125,0.046875 v -0.53125 c -1.21875,0 -1.265625,-0.125 -1.265625,-0.875 v -7.640625 z m 0,0"
                 id="path29" />
            </g>
            <g
               id="use16"
               transform="translate(60.527798,16.341)">
              <path
                 style="stroke:none"
                 d="m 3.09375,-4.875 c 0,-1.984375 0.859375,-3.84375 2.40625,-3.84375 0.140625,0 0.28125,0.015625 0.421875,0.078125 0,0 -0.453125,0.15625 -0.453125,0.6875 0,0.5 0.390625,0.703125 0.703125,0.703125 0.25,0 0.703125,-0.140625 0.703125,-0.71875 0,-0.671875 -0.65625,-1.078125 -1.359375,-1.078125 -1.5625,0 -2.25,1.53125 -2.453125,2.25 H 3.03125 v -2.25 L 0.640625,-8.8125 v 0.53125 c 1.21875,0 1.40625,0.125 1.40625,1.109375 v 5.75 c 0,0.78125 -0.078125,0.890625 -1.40625,0.890625 V 0 c 0.5,-0.046875 1.453125,-0.046875 1.984375,-0.046875 0.59375,0 1.65625,0 2.203125,0.046875 v -0.53125 c -1.484375,0 -1.734375,0 -1.734375,-0.9375 z m 0,0"
                 id="path30" />
            </g>
            <g
               id="use17"
               transform="translate(67.844383,16.341)">
              <path
                 style="stroke:none"
                 d="m 7.875,-4.859375 c 0.078125,-0.078125 0.078125,-0.125 0.078125,-0.328125 0,-2.109375 -1.109375,-3.9375 -3.46875,-3.9375 -2.1875,0 -3.921875,2.078125 -3.921875,4.625 0,2.6875 1.953125,4.671875 4.140625,4.671875 2.3125,0 3.234375,-2.203125 3.234375,-2.625 0,-0.15625 -0.125,-0.15625 -0.171875,-0.15625 -0.140625,0 -0.171875,0.046875 -0.25,0.296875 -0.453125,1.40625 -1.59375,2.109375 -2.65625,2.109375 -0.890625,0 -1.78125,-0.5 -2.34375,-1.40625 C 1.875,-2.671875 1.875,-3.890625 1.875,-4.859375 Z m -5.96875,-0.3125 c 0.140625,-2.96875 1.734375,-3.625 2.5625,-3.625 1.390625,0 2.34375,1.3125 2.375,3.625 z m 0,0"
                 id="path31" />
            </g>
          </g>
        </g>
      </g>
    </g>
  </g>
</svg>
