<?xml version="1.0" encoding="UTF-8" standalone="no"?>
<!-- Created with Inkscape (http://www.inkscape.org/) -->

<svg
   width="210mm"
   height="297mm"
   viewBox="0 0 210 297"
   version="1.1"
   id="svg8"
   inkscape:version="1.3.2 (1:1.3.2+202311252150+091e20ef0f)"
   sodipodi:docname="distrib_volumique.svg"
   inkscape:export-filename="distrib_volumique.pdf"
   inkscape:export-xdpi="300"
   inkscape:export-ydpi="300"
   xmlns:inkscape="http://www.inkscape.org/namespaces/inkscape"
   xmlns:sodipodi="http://sodipodi.sourceforge.net/DTD/sodipodi-0.dtd"
   xmlns="http://www.w3.org/2000/svg"
   xmlns:svg="http://www.w3.org/2000/svg"
   xmlns:rdf="http://www.w3.org/1999/02/22-rdf-syntax-ns#"
   xmlns:cc="http://creativecommons.org/ns#"
   xmlns:dc="http://purl.org/dc/elements/1.1/">
  <sodipodi:namedview
     id="base"
     pagecolor="#ffffff"
     bordercolor="#666666"
     borderopacity="1.0"
     inkscape:pageopacity="0.0"
     inkscape:pageshadow="2"
     inkscape:zoom="1.4"
     inkscape:cx="137.5"
     inkscape:cy="327.5"
     inkscape:document-units="mm"
     inkscape:current-layer="layer1"
     showgrid="false"
     inkscape:window-width="3440"
     inkscape:window-height="1364"
     inkscape:window-x="0"
     inkscape:window-y="0"
     inkscape:window-maximized="1"
     inkscape:showpageshadow="0"
     inkscape:pagecheckerboard="0"
     inkscape:deskcolor="#d1d1d1" />
  <defs
     id="defs2">
    <marker
       inkscape:isstock="true"
       style="overflow:visible"
       id="marker2108"
       refX="0.0"
       refY="0.0"
       orient="auto"
       inkscape:stockid="Arrow2Lstart">
      <path
         transform="scale(1.1) translate(1,0)"
         d="M 8.7185878,4.0337352 L -2.2072895,0.016013256 L 8.7185884,-4.0017078 C 6.9730900,-1.6296469 6.9831476,1.6157441 8.7185878,4.0337352 z "
         style="fill-rule:evenodd;stroke-width:0.625;stroke-linejoin:round;stroke:#000000;stroke-opacity:1;fill:#000000;fill-opacity:1"
         id="path2106" />
    </marker>
    <marker
       inkscape:stockid="Arrow2Lstart"
       orient="auto"
       refY="0.0"
       refX="0.0"
       id="Arrow2Lstart"
       style="overflow:visible"
       inkscape:isstock="true"
       inkscape:collect="always">
      <path
         id="path1007"
         style="fill-rule:evenodd;stroke-width:0.625;stroke-linejoin:round;stroke:#000000;stroke-opacity:1;fill:#000000;fill-opacity:1"
         d="M 8.7185878,4.0337352 L -2.2072895,0.016013256 L 8.7185884,-4.0017078 C 6.9730900,-1.6296469 6.9831476,1.6157441 8.7185878,4.0337352 z "
         transform="scale(1.1) translate(1,0)" />
    </marker>
    <marker
       inkscape:stockid="Arrow2Lend"
       orient="auto"
       refY="0.0"
       refX="0.0"
       id="marker2030"
       style="overflow:visible;"
       inkscape:isstock="true">
      <path
         id="path2028"
         style="fill-rule:evenodd;stroke-width:0.625;stroke-linejoin:round;stroke:#000000;stroke-opacity:1;fill:#000000;fill-opacity:1"
         d="M 8.7185878,4.0337352 L -2.2072895,0.016013256 L 8.7185884,-4.0017078 C 6.9730900,-1.6296469 6.9831476,1.6157441 8.7185878,4.0337352 z "
         transform="scale(1.1) rotate(180) translate(1,0)" />
    </marker>
    <inkscape:path-effect
       effect="spiro"
       id="path-effect2026"
       is_visible="true" />
    <inkscape:path-effect
       effect="spiro"
       id="path-effect2022"
       is_visible="true" />
    <inkscape:perspective
       sodipodi:type="inkscape:persp3d"
       inkscape:vp_x="99.433697 : 175.20236 : 1"
       inkscape:vp_y="0 : 247.85561 : 0"
       inkscape:vp_z="166.89566 : 175.20236 : 1"
       inkscape:persp3d-origin="133.16468 : 162.93351 : 1"
       id="perspective1902" />
    <inkscape:perspective
       sodipodi:type="inkscape:persp3d"
       inkscape:vp_x="147.41437 : 101.6521 : 1"
       inkscape:vp_y="0 : 1432.4213 : 0"
       inkscape:vp_z="546.3703 : 101.6521 : 1"
       inkscape:persp3d-origin="346.89232 : 30.747242 : 1"
       id="perspective1747" />
    <marker
       inkscape:stockid="Arrow2Lend"
       orient="auto"
       refY="0.0"
       refX="0.0"
       id="Arrow2Lend"
       style="overflow:visible;"
       inkscape:isstock="true">
      <path
         id="path1010"
         style="fill-rule:evenodd;stroke-width:0.625;stroke-linejoin:round;stroke:#ff0000;stroke-opacity:1;fill:#ff0000;fill-opacity:1"
         d="M 8.7185878,4.0337352 L -2.2072895,0.016013256 L 8.7185884,-4.0017078 C 6.9730900,-1.6296469 6.9831476,1.6157441 8.7185878,4.0337352 z "
         transform="scale(1.1) rotate(180) translate(1,0)" />
    </marker>
  </defs>
  <metadata
     id="metadata5">
    <rdf:RDF>
      <cc:Work
         rdf:about="">
        <dc:format>image/svg+xml</dc:format>
        <dc:type
           rdf:resource="http://purl.org/dc/dcmitype/StillImage" />
        <dc:title />
      </cc:Work>
    </rdf:RDF>
  </metadata>
  <g
     inkscape:label="Calque 1"
     inkscape:groupmode="layer"
     id="layer1">
    <g
       id="g10"
       inkscape:export-filename="./g10.png"
       inkscape:export-xdpi="300"
       inkscape:export-ydpi="300">
      <g
         sodipodi:type="inkscape:box3d"
         id="g1749"
         style="fill:#e6e6e6;fill-opacity:1;fill-rule:evenodd;stroke:#000000;stroke-width:0.6;stroke-linecap:butt;stroke-linejoin:round;stroke-miterlimit:4;stroke-dasharray:none;stroke-dashoffset:0;stroke-opacity:1"
         inkscape:perspectiveID="#perspective1747"
         inkscape:corner0="-4.1567644 : -0.13882085 : 0 : 1"
         inkscape:corner7="-4.7287957 : -0.22686254 : 0.25 : 1"
         inkscape:export-filename="distrib_volumique.pdf"
         inkscape:export-xdpi="300"
         inkscape:export-ydpi="300">
        <path
           sodipodi:type="inkscape:box3dside"
           id="path1755"
           style="fill:#e6e6e6;fill-rule:evenodd;stroke:#000000;stroke-width:0.989782;stroke-linejoin:round;stroke-miterlimit:4;stroke-dasharray:none"
           inkscape:box3dsidetype="3"
           d="m 84.223736,109.89496 9.694021,13.10927 V 89.182907 L 84.223736,69.944949 Z"
           points="93.917757,123.00423 93.917757,89.182907 84.223736,69.944949 84.223736,109.89496 " />
        <path
           sodipodi:type="inkscape:box3dside"
           id="path1751"
           style="fill:#e6e6e6;fill-rule:evenodd;stroke:#000000;stroke-width:0.989782;stroke-linejoin:round;stroke-miterlimit:4;stroke-dasharray:none"
           inkscape:box3dsidetype="6"
           d="M 84.223736,109.89496 V 69.944949 L 44.476227,59.159507 v 43.385973 z"
           points="84.223736,69.944949 44.476227,59.159507 44.476227,102.54548 84.223736,109.89496 " />
        <path
           sodipodi:type="inkscape:box3dside"
           id="path1753"
           style="fill:#e6e6e6;fill-rule:evenodd;stroke:#000000;stroke-width:0.989782;stroke-linejoin:round;stroke-miterlimit:4;stroke-dasharray:none"
           inkscape:box3dsidetype="5"
           d="m 84.223736,109.89496 9.694021,13.10927 -32.515028,-5.19891 -16.926502,-15.25984 z"
           points="93.917757,123.00423 61.402729,117.80532 44.476227,102.54548 84.223736,109.89496 " />
        <path
           sodipodi:type="inkscape:box3dside"
           id="path1761"
           style="fill:#e6e6e6;fill-rule:evenodd;stroke:#000000;stroke-width:0.989782;stroke-linejoin:round;stroke-miterlimit:4;stroke-dasharray:none"
           inkscape:box3dsidetype="11"
           d="m 44.476227,102.54548 16.926502,15.25984 V 81.553471 L 44.476227,59.159507 Z"
           points="61.402729,117.80532 61.402729,81.553471 44.476227,59.159507 44.476227,102.54548 " />
        <path
           sodipodi:type="inkscape:box3dside"
           id="path1757"
           style="fill:#e6e6e6;fill-rule:evenodd;stroke:#000000;stroke-width:0.989782;stroke-linejoin:round;stroke-miterlimit:4;stroke-dasharray:none"
           inkscape:box3dsidetype="14"
           d="M 93.917757,123.00423 V 89.182907 L 61.402729,81.553471 v 36.251849 z"
           points="93.917757,89.182907 61.402729,81.553471 61.402729,117.80532 93.917757,123.00423 " />
        <path
           sodipodi:type="inkscape:box3dside"
           id="path1759"
           style="fill:#e6e6e6;fill-rule:evenodd;stroke:#000000;stroke-width:0.989782;stroke-linejoin:round;stroke-miterlimit:4;stroke-dasharray:none"
           inkscape:box3dsidetype="13"
           d="M 84.223736,69.944949 93.917757,89.182907 61.402729,81.553471 44.476227,59.159507 Z"
           points="93.917757,89.182907 61.402729,81.553471 44.476227,59.159507 84.223736,69.944949 " />
      </g>
      <circle
         r="3.4092262"
         cy="92.839203"
         cx="141.0307"
         id="circle817"
         style="fill:#000000;fill-rule:evenodd;stroke:#000000;stroke-width:0.264583" />
      <path
         style="fill:none;stroke:#000000;stroke-width:0.565;stroke-linecap:butt;stroke-linejoin:miter;stroke-miterlimit:4;stroke-dasharray:2.26, 2.26;stroke-dashoffset:0;stroke-opacity:1"
         d="M 49.698737,113.18842 169.80101,86.263913"
         id="path819"
         inkscape:connector-curvature="0" />
      <g
         id="g909"
         transform="matrix(0.69999999,0,0,0.69999999,76.297277,16.96474)"
         style="stroke-width:1.42857">
        <g
           word-spacing="normal"
           letter-spacing="normal"
           font-size-adjust="none"
           font-stretch="normal"
           font-weight="normal"
           font-variant="normal"
           font-style="normal"
           stroke-miterlimit="10.433"
           xml:space="preserve"
           transform="matrix(0.3,0,0,-0.3,-52.5,222.75)"
           id="g907"
           style="font-style:normal;font-variant:normal;font-weight:normal;font-stretch:normal;letter-spacing:normal;word-spacing:normal;text-anchor:start;fill:none;fill-opacity:1;fill-rule:evenodd;stroke:#000000;stroke-width:1.42857;stroke-linecap:butt;stroke-linejoin:miter;stroke-miterlimit:10.433;stroke-dasharray:none;stroke-dashoffset:0;stroke-opacity:1"><path
             id="path905"
             d="m 501.66,436.39 0.04,0.16 0.04,0.16 0.04,0.15 0.04,0.14 0.04,0.14 0.04,0.13 0.04,0.12 0.05,0.11 0.05,0.11 0.05,0.11 0.07,0.09 0.06,0.09 0.08,0.09 0.08,0.08 0.09,0.07 0.09,0.07 0.11,0.06 0.12,0.06 0.13,0.05 0.14,0.05 0.15,0.04 0.09,0.02 0.08,0.02 0.09,0.02 0.09,0.02 0.1,0.01 0.1,0.02 0.1,0.01 0.11,0.01 0.11,0.02 0.12,0.01 0.12,0.01 h 0.12 l 0.13,0.01 0.13,0.01 0.14,0.01 h 0.14 0.15 l 0.15,0.01 h 0.16 0.16 0.17 0.17 c 1.14,0 1.6,0 1.6,1 0,0.55 -0.5,0.55 -1.35,0.55 h -6.58 c -1.29,0 -1.34,0 -1.93,-0.95 l -18.19,-28.39 -3.89,28.18 c -0.16,1.16 -0.25,1.16 -1.55,1.16 h -6.83 c -0.93,0 -1.48,0 -1.48,-0.95 0,-0.6 0.44,-0.6 1.44,-0.6 0.65,0 1.54,-0.04 2.14,-0.09 0.79,-0.11 1.09,-0.25 1.09,-0.8 0,-0.2 -0.05,-0.36 -0.19,-0.95 l -6.33,-25.36 c -0.5,-2 -1.34,-3.59 -5.39,-3.73 -0.25,0 -0.89,-0.05 -0.89,-0.96 0,-0.43 0.3,-0.59 0.71,-0.59 1.59,0 3.32,0.16 4.97,0.16 1.7,0 3.5,-0.16 5.14,-0.16 0.25,0 0.89,0 0.89,1 0,0.55 -0.55,0.55 -0.89,0.55 -2.85,0.04 -3.39,1.04 -3.39,2.18 0,0.35 0.04,0.6 0.2,1.14 l 6.76,27.16 h 0.07 l 4.28,-30.89 c 0.09,-0.59 0.14,-1.14 0.75,-1.14 0.54,0 0.84,0.55 1.09,0.89 l 20.13,31.55 h 0.04 l -7.12,-28.55 c -0.5,-1.95 -0.6,-2.34 -4.53,-2.34 -0.85,0 -1.39,0 -1.39,-0.96 0,-0.59 0.59,-0.59 0.75,-0.59 1.39,0 4.78,0.16 6.17,0.16 2.05,0 4.19,-0.16 6.23,-0.16 0.3,0 0.94,0 0.94,1 0,0.55 -0.45,0.55 -1.39,0.55 -1.84,0 -3.23,0 -3.23,0.89 0,0.2 0,0.29 0.25,1.2 z"
             inkscape:connector-curvature="0"
             style="fill:#000000;stroke-width:0" /></g>
      </g>
      <path
         inkscape:connector-curvature="0"
         id="path987"
         d="m 141.11571,92.64806 21.31015,-4.636593"
         style="fill:none;stroke:#ff0000;stroke-width:0.765;stroke-linecap:butt;stroke-linejoin:miter;stroke-miterlimit:4;stroke-dasharray:none;stroke-dashoffset:0;stroke-opacity:1;marker-end:url(#Arrow2Lend)" />
      <g
         id="g1795"
         transform="matrix(0.69999999,0,0,0.69999999,13.37095,34.635126)"
         style="stroke-width:1.42857">
        <g
           word-spacing="normal"
           letter-spacing="normal"
           font-size-adjust="none"
           font-stretch="normal"
           font-weight="normal"
           font-variant="normal"
           font-style="normal"
           stroke-miterlimit="10.433"
           xml:space="preserve"
           transform="matrix(0.3,0,0,-0.3,-52.5,222.75)"
           id="content"
           style="font-style:normal;font-variant:normal;font-weight:normal;font-stretch:normal;letter-spacing:normal;word-spacing:normal;text-anchor:start;fill:none;fill-opacity:1;fill-rule:evenodd;stroke:#000000;stroke-width:1.42857;stroke-linecap:butt;stroke-linejoin:miter;stroke-miterlimit:10.433;stroke-dasharray:none;stroke-dashoffset:0;stroke-opacity:1"><path
             id="path1792"
             d="m 470.61,421.95 0.21,1.28 3.39,13.56 c 0.43,1.74 0.54,1.89 2.68,1.89 h 4.79 c 4.14,0 6.78,-1.34 6.78,-4.78 0,-1.95 -1,-6.23 -2.94,-8.03 -2.5,-2.23 -5.48,-2.64 -7.69,-2.64 h -7.01 l -0.21,-1.28 h 8.47 c 7.08,0 14,5.17 14,10.75 0,3.84 -3.28,7.53 -9.81,7.53 h -16.14 c -0.95,0 -1.5,0 -1.5,-0.95 0,-0.6 0.45,-0.6 1.45,-0.6 0.64,0 1.55,-0.04 2.14,-0.09 0.8,-0.11 1.1,-0.25 1.1,-0.8 0,-0.2 -0.05,-0.36 -0.21,-0.95 l -6.67,-26.75 c -0.5,-1.95 -0.59,-2.34 -4.53,-2.34 -0.84,0 -1.39,0 -1.39,-0.96 0,-0.59 0.59,-0.59 0.73,-0.59 1.41,0 4.94,0.16 6.33,0.16 1.05,0 2.14,-0.07 3.19,-0.07 1.11,0 2.2,-0.09 3.25,-0.09 0.34,0 0.98,0 0.98,1 0,0.55 -0.43,0.55 -1.39,0.55 -1.84,0 -3.23,0 -3.23,0.89 0,0.29 0.09,0.54 0.14,0.84 z"
             inkscape:connector-curvature="0"
             style="fill:#000000;stroke-width:0" /></g>
      </g>
      <g
         id="g1881"
         transform="matrix(0.69999999,0,0,0.69999999,3.813293,6.1533457)"
         style="stroke-width:1.42857">
        <g
           word-spacing="normal"
           letter-spacing="normal"
           font-size-adjust="none"
           font-stretch="normal"
           font-weight="normal"
           font-variant="normal"
           font-style="normal"
           stroke-miterlimit="10.433"
           xml:space="preserve"
           transform="matrix(0.3,0,0,-0.3,-52.5,222.75)"
           id="g1879"
           style="font-style:normal;font-variant:normal;font-weight:normal;font-stretch:normal;letter-spacing:normal;word-spacing:normal;text-anchor:start;fill:none;fill-opacity:1;fill-rule:evenodd;stroke:#000000;stroke-width:2.04082;stroke-linecap:butt;stroke-linejoin:miter;stroke-miterlimit:10.433;stroke-dasharray:none;stroke-dashoffset:0;stroke-opacity:1"><path
             id="path1877"
             d="m 468.97,410.48 0.07,0.57 0.07,0.56 0.05,0.55 0.06,0.54 0.05,0.52 0.05,0.52 0.05,0.5 0.04,0.49 0.03,0.48 0.04,0.47 0.03,0.45 0.03,0.44 0.03,0.42 0.02,0.41 0.02,0.4 0.02,0.38 0.02,0.36 0.01,0.35 0.01,0.33 0.01,0.31 0.01,0.3 0.01,0.28 0.01,0.26 v 0.24 l 0.01,0.22 v 0.21 0.18 0.17 0.14 0.13 0.1 0.08 c 0,3.55 0,18.39 -9.08,18.39 -1.68,0 -3.43,-1.39 -3.43,-2.09 0,-0.35 0.25,-0.35 0.95,-0.41 7.28,-0.64 7.88,-12.05 7.88,-17.69 0,-5.03 -0.66,-11 -1.25,-14.34 -0.1,-0.59 -0.1,-0.7 -0.1,-0.89 0,-0.25 0,-0.85 0.35,-0.85 0.54,0 12.6,9.21 18.93,18.83 2.53,3.89 4.42,8.32 4.42,11.66 0,4.23 -2.78,5.78 -4.82,5.78 -1.44,0 -2.14,-3.14 -2.14,-3.8 0,-0.73 0.25,-0.73 0.84,-0.79 3.34,-0.39 3.94,-3.03 3.94,-4.24 0,-4.03 -8.67,-14.25 -17.24,-20.92 z"
             inkscape:connector-curvature="0"
             style="fill:#000000;stroke-width:0" /></g>
      </g>
      <g
         inkscape:corner7="-4.7287957 : -0.22686254 : 0.25 : 1"
         inkscape:corner0="-4.1567644 : -0.13882085 : 0 : 1"
         inkscape:perspectiveID="#perspective1902"
         style="opacity:0.8;fill:#0000ff;fill-opacity:1;fill-rule:evenodd;stroke:#000000;stroke-width:0.7;stroke-linecap:butt;stroke-linejoin:round;stroke-miterlimit:4;stroke-dasharray:none;stroke-dashoffset:0;stroke-opacity:1"
         id="g1900"
         sodipodi:type="inkscape:box3d">
        <path
           points="90.387619,109.27983 90.387619,103.42764 88.748396,100.09884 88.748396,107.0115 "
           d="m 88.748396,107.0115 1.639223,2.26833 v -5.85219 l -1.639223,-3.3288 z"
           inkscape:box3dsidetype="3"
           style="fill:#0000ff;fill-rule:evenodd;stroke:#000000;stroke-width:0.7;stroke-linejoin:round;stroke-miterlimit:4;stroke-dasharray:none"
           id="path1890"
           sodipodi:type="inkscape:box3dside" />
        <path
           points="88.748396,100.09884 82.02724,98.232611 82.02724,105.7398 88.748396,107.0115 "
           d="m 88.748396,107.0115 v -6.91266 L 82.02724,98.232611 v 7.507189 z"
           inkscape:box3dsidetype="6"
           style="fill:#0000ff;fill-rule:evenodd;stroke:#000000;stroke-width:0.7;stroke-linejoin:round;stroke-miterlimit:4;stroke-dasharray:none"
           id="path1888"
           sodipodi:type="inkscape:box3dside" />
        <path
           points="90.387619,109.27983 84.889449,108.38025 82.02724,105.7398 88.748396,107.0115 "
           d="m 88.748396,107.0115 1.639223,2.26833 -5.49817,-0.89958 -2.862209,-2.64045 z"
           inkscape:box3dsidetype="5"
           style="fill:#0000ff;fill-rule:evenodd;stroke:#000000;stroke-width:0.7;stroke-linejoin:round;stroke-miterlimit:4;stroke-dasharray:none"
           id="path1892"
           sodipodi:type="inkscape:box3dside" />
        <path
           points="84.889449,108.38025 84.889449,102.1075 82.02724,98.232611 82.02724,105.7398 "
           d="m 82.02724,105.7398 2.862209,2.64045 V 102.1075 L 82.02724,98.232611 Z"
           inkscape:box3dsidetype="11"
           style="fill:#0000ff;fill-rule:evenodd;stroke:#000000;stroke-width:0.7;stroke-linejoin:round;stroke-miterlimit:4;stroke-dasharray:none"
           id="path1894"
           sodipodi:type="inkscape:box3dside" />
        <path
           points="90.387619,103.42764 84.889449,102.1075 84.889449,108.38025 90.387619,109.27983 "
           d="m 90.387619,109.27983 v -5.85219 l -5.49817,-1.32014 v 6.27275 z"
           inkscape:box3dsidetype="14"
           style="fill:#0000ff;fill-rule:evenodd;stroke:#000000;stroke-width:0.7;stroke-linejoin:round;stroke-miterlimit:4;stroke-dasharray:none"
           id="path1898"
           sodipodi:type="inkscape:box3dside" />
        <path
           points="90.387619,103.42764 84.889449,102.1075 82.02724,98.232611 88.748396,100.09884 "
           d="m 88.748396,100.09884 1.639223,3.3288 -5.49817,-1.32014 -2.862209,-3.874889 z"
           inkscape:box3dsidetype="13"
           style="fill:#0000ff;fill-rule:evenodd;stroke:#000000;stroke-width:0.7;stroke-linejoin:round;stroke-miterlimit:4;stroke-dasharray:none"
           id="path1896"
           sodipodi:type="inkscape:box3dside" />
      </g>
      <g
         id="g1949"
         transform="matrix(0.69999999,0,0,0.69999999,24.695982,64.903894)"
         style="stroke-width:1.42857">
        <g
           word-spacing="normal"
           letter-spacing="normal"
           font-size-adjust="none"
           font-stretch="normal"
           font-weight="normal"
           font-variant="normal"
           font-style="normal"
           stroke-miterlimit="10.433"
           xml:space="preserve"
           transform="matrix(0.3,0,0,-0.3,-52.5,222.75)"
           id="g1947"
           style="font-style:normal;font-variant:normal;font-weight:normal;font-stretch:normal;letter-spacing:normal;word-spacing:normal;text-anchor:start;fill:none;fill-opacity:1;fill-rule:evenodd;stroke:#000000;stroke-width:2.04082;stroke-linecap:butt;stroke-linejoin:miter;stroke-miterlimit:10.433;stroke-dasharray:none;stroke-dashoffset:0;stroke-opacity:1"><path
             id="path1943"
             d="m 474.46,408.93 v -3.28 l 7.31,0.55 v 1.55 c -3.48,0 -3.88,0.34 -3.88,2.78 v 30.25 l -7.17,-0.55 v -1.55 c 3.49,0 3.88,-0.34 3.88,-2.79 v -10.75 c -1.44,1.78 -3.58,3.07 -6.28,3.07 l 0.2,-1.09 c 1.75,0 3.84,-0.75 5.39,-2.98 0.55,-0.85 0.55,-0.96 0.55,-1.85 v 0 -10.22 c 0,-0.89 0,-1 -0.55,-1.84 -1.5,-2.39 -3.75,-3.48 -5.89,-3.48 -2.23,0 -4.03,1.29 -5.22,3.18 -1.3,2.05 -1.45,4.89 -1.45,6.93 0,1.84 0.09,4.84 1.54,7.07 1.05,1.55 2.94,3.19 5.63,3.19 l -0.2,1.09 c -5.88,0 -11.11,-4.87 -11.11,-11.29 0,-6.33 4.89,-11.27 10.56,-11.27 3.19,0 5.44,1.69 6.69,3.28 z"
             inkscape:connector-curvature="0"
             style="fill:#000000;stroke-width:0" /><path
             id="path1945"
             d="m 496.69,410.48 0.07,0.57 0.06,0.56 0.06,0.55 0.06,0.54 0.05,0.52 0.05,0.52 0.04,0.5 0.04,0.49 0.04,0.48 0.04,0.47 0.03,0.45 0.03,0.44 0.02,0.42 0.03,0.41 0.02,0.4 0.02,0.38 0.01,0.36 0.02,0.35 0.01,0.33 0.01,0.31 0.01,0.3 0.01,0.28 v 0.26 l 0.01,0.24 v 0.22 l 0.01,0.21 v 0.18 0.17 0.14 0.13 0.1 0.08 c 0,3.55 0,18.39 -9.08,18.39 -1.68,0 -3.43,-1.39 -3.43,-2.09 0,-0.35 0.25,-0.35 0.95,-0.41 7.28,-0.64 7.87,-12.05 7.87,-17.69 0,-5.03 -0.65,-11 -1.25,-14.34 -0.09,-0.59 -0.09,-0.7 -0.09,-0.89 0,-0.25 0,-0.85 0.34,-0.85 0.55,0 12.61,9.21 18.94,18.83 2.53,3.89 4.42,8.32 4.42,11.66 0,4.23 -2.78,5.78 -4.82,5.78 -1.44,0 -2.15,-3.14 -2.15,-3.8 0,-0.73 0.25,-0.73 0.85,-0.79 3.34,-0.39 3.94,-3.03 3.94,-4.24 0,-4.03 -8.68,-14.25 -17.24,-20.92 z"
             inkscape:connector-curvature="0"
             style="fill:#000000;stroke-width:0" /></g>
      </g>
      <g
         id="g2010"
         transform="matrix(0.7,0,0,0.69999999,44.817894,57.923258)"
         style="stroke-width:1.42857">
        <g
           word-spacing="normal"
           letter-spacing="normal"
           font-size-adjust="none"
           font-stretch="normal"
           font-weight="normal"
           font-variant="normal"
           font-style="normal"
           stroke-miterlimit="10.433"
           xml:space="preserve"
           transform="matrix(0.3,0,0,-0.3,-52.5,222.75)"
           id="g2008"
           style="font-style:normal;font-variant:normal;font-weight:normal;font-stretch:normal;letter-spacing:normal;word-spacing:normal;text-anchor:start;fill:none;fill-opacity:1;fill-rule:evenodd;stroke:#000000;stroke-width:1.42857;stroke-linecap:butt;stroke-linejoin:miter;stroke-miterlimit:10.433;stroke-dasharray:none;stroke-dashoffset:0;stroke-opacity:1"><path
             id="path2000"
             d="m 457.16,397.57 -0.01,-0.02 v -0.03 l -0.01,-0.03 v -0.02 l -0.01,-0.03 -0.01,-0.02 v -0.02 l -0.01,-0.03 v -0.02 l -0.01,-0.02 v -0.02 -0.02 l -0.01,-0.02 v -0.02 l -0.01,-0.04 -0.01,-0.03 v -0.03 l -0.01,-0.03 -0.01,-0.03 v -0.03 l -0.01,-0.02 v -0.02 -0.03 l -0.01,-0.02 v -0.02 -0.01 -0.02 -0.01 l -0.01,-0.02 v -0.01 -0.02 -0.01 -0.01 -0.02 -0.02 -0.02 c 0,-0.74 0.55,-1.35 1.39,-1.35 1.05,0 1.64,0.91 1.75,1.05 0.23,0.45 1.84,7.13 3.19,12.52 0.98,-2 2.58,-3.35 4.92,-3.35 l -0.05,1.1 c -3.48,0 -4.28,3.98 -4.28,4.43 0,0.21 0.25,1.19 0.39,1.85 1.41,5.58 1.91,7.37 3,9.36 2.14,3.64 4.63,4.73 6.17,4.73 1.85,0 3.44,-1.44 3.44,-4.87 0,-2.75 -1.44,-8.33 -2.78,-10.77 -1.66,-3.14 -4.05,-4.73 -5.94,-4.73 v 0 l 0.05,-1.1 c 5.83,0 12.27,7.03 12.27,14.46 0,5.28 -3.3,8.1 -6.94,8.1 -4.83,0 -10.06,-4.98 -11.55,-11.06 z"
             inkscape:connector-curvature="0"
             style="fill:#000000;stroke-width:0" /><path
             id="path2002"
             d="m 497.8,394.25 v 0.02 0.03 0.01 0.02 l -0.01,0.01 v 0.02 l -0.01,0.01 v 0.02 l -0.01,0.02 -0.01,0.02 -0.02,0.02 -0.01,0.03 -0.02,0.02 -0.01,0.03 -0.03,0.03 -0.02,0.03 -0.03,0.03 -0.03,0.04 -0.01,0.02 -0.02,0.02 -0.01,0.02 -0.02,0.02 -0.02,0.02 -0.02,0.03 -0.02,0.02 -0.03,0.02 -0.02,0.03 -0.02,0.02 -0.03,0.03 -0.02,0.03 -0.03,0.03 -0.03,0.03 -0.02,0.03 -0.03,0.03 -0.04,0.03 -0.03,0.03 -0.03,0.04 -0.03,0.03 -0.04,0.04 -0.04,0.03 -0.03,0.04 -0.04,0.04 c -6.22,6.28 -7.82,15.69 -7.82,23.31 0,8.67 1.9,17.35 8.02,23.56 0.64,0.61 0.64,0.71 0.64,0.86 0,0.35 -0.19,0.49 -0.48,0.49 -0.5,0 -4.99,-3.38 -7.93,-9.7 -2.54,-5.49 -3.14,-11.02 -3.14,-15.21 0,-3.89 0.55,-9.9 3.29,-15.54 2.98,-6.13 7.28,-9.36 7.78,-9.36 0.29,0 0.48,0.14 0.48,0.5 z"
             inkscape:connector-curvature="0"
             style="fill:#000000;stroke-width:0" /><path
             id="path2004"
             d="m 515.73,421.95 0.2,1.28 3.39,13.56 c 0.44,1.74 0.55,1.89 2.69,1.89 h 4.78 c 4.14,0 6.78,-1.34 6.78,-4.78 0,-1.95 -1,-6.23 -2.94,-8.03 -2.5,-2.23 -5.48,-2.64 -7.68,-2.64 h -7.02 l -0.2,-1.28 h 8.47 c 7.07,0 14,5.17 14,10.75 0,3.84 -3.29,7.53 -9.82,7.53 h -16.14 c -0.95,0 -1.5,0 -1.5,-0.95 0,-0.6 0.46,-0.6 1.46,-0.6 0.64,0 1.54,-0.04 2.14,-0.09 0.79,-0.11 1.09,-0.25 1.09,-0.8 0,-0.2 -0.05,-0.36 -0.2,-0.95 l -6.68,-26.75 c -0.5,-1.95 -0.59,-2.34 -4.53,-2.34 -0.84,0 -1.39,0 -1.39,-0.96 0,-0.59 0.6,-0.59 0.74,-0.59 1.4,0 4.93,0.16 6.33,0.16 1.04,0 2.14,-0.07 3.18,-0.07 1.11,0 2.21,-0.09 3.25,-0.09 0.35,0 0.99,0 0.99,1 0,0.55 -0.44,0.55 -1.39,0.55 -1.85,0 -3.24,0 -3.24,0.89 0,0.29 0.1,0.54 0.14,0.84 z"
             inkscape:connector-curvature="0"
             style="fill:#000000;stroke-width:0" /><path
             id="path2006"
             d="m 554.02,418.65 v 0.37 0.39 l -0.01,0.39 -0.02,0.41 -0.04,0.84 -0.06,0.88 -0.08,0.92 -0.1,0.95 -0.14,0.97 -0.16,1.01 -0.2,1.02 -0.23,1.03 -0.27,1.05 -0.3,1.06 -0.35,1.07 -0.39,1.07 -0.22,0.53 -0.22,0.53 -0.24,0.53 -0.25,0.53 c -2.98,6.12 -7.26,9.36 -7.76,9.36 -0.3,0 -0.5,-0.19 -0.5,-0.49 0,-0.15 0,-0.25 0.93,-1.15 4.89,-4.92 7.74,-12.85 7.74,-23.27 0,-8.51 -1.85,-17.28 -8.03,-23.56 -0.64,-0.59 -0.64,-0.7 -0.64,-0.84 0,-0.3 0.2,-0.5 0.5,-0.5 0.5,0 4.97,3.39 7.92,9.71 2.53,5.47 3.12,11 3.12,15.19 z"
             inkscape:connector-curvature="0"
             style="fill:#000000;stroke-width:0" /></g>
      </g>
      <path
         style="fill:none;stroke:#000000;stroke-width:0.264583px;stroke-linecap:butt;stroke-linejoin:miter;stroke-opacity:1;marker-start:url(#marker2108)"
         d="m 45.424537,98.371691 c -0.843652,4.022199 0.281444,8.410099 2.956414,11.530089 1.482223,1.72881 3.410499,3.07193 5.545932,3.86294 2.135433,0.79102 4.473368,1.02821 6.724157,0.68219"
         id="path2020"
         inkscape:connector-curvature="0"
         inkscape:path-effect="#path-effect2022"
         inkscape:original-d="m 45.424537,98.371691 c 0.985737,3.843099 1.971209,7.686459 2.956414,11.530089 0.985208,3.84362 8.180324,3.02982 12.270089,4.54513"
         transform="translate(42.662402,12.230577)" />
      <path
         style="fill:none;stroke:#000000;stroke-width:0.438948px;stroke-linecap:butt;stroke-linejoin:miter;stroke-opacity:1;marker-start:url(#Arrow2Lstart)"
         d="m 41.565589,99.740441 c -2.324121,5.966909 -3.233924,12.479389 -2.634041,18.854789 0.4621,4.91108 1.813397,9.73714 3.96875,14.17411"
         id="path2024"
         inkscape:connector-curvature="0"
         inkscape:path-effect="#path-effect2026"
         inkscape:original-d="m 41.565589,99.740441 c -0.87775,6.284659 -1.755762,12.569599 -2.634041,18.854789 -0.878279,6.28519 2.646098,9.44914 3.96875,14.17411"
         transform="matrix(0.58871747,0,0,0.61715253,59.753347,48.339895)" />
      <g
         id="g9"
         style="fill:#f00000;fill-opacity:1;stroke:#000000;stroke-opacity:0"
         transform="translate(43.32386,8.6398035)">
        <g
           inkscape:label=""
           transform="matrix(3.1182398,0,0,3.1182398,113.34403,64.976243)"
           id="g2"
           style="fill:#f00000;fill-opacity:1;stroke:#000000;stroke-width:0.320694;stroke-opacity:0">
          <g
             id="surface1"
             transform="matrix(0.352778,0,0,0.352778,-0.835378,-0.700264)"
             style="fill:#f00000;fill-opacity:1;stroke:#000000;stroke-width:0.320694;stroke-opacity:0">
            <g
               style="fill:#f00000;fill-opacity:1;stroke:#000000;stroke-width:0.320694;stroke-opacity:0"
               id="g4">
              <g
                 id="use3"
                 transform="translate(3.53,9.1099997)"
                 style="fill:#f00000;fill-opacity:1;stroke:#000000;stroke-width:0.320694;stroke-opacity:0">
                <path
                   style="fill:#f00000;fill-opacity:1;stroke:#000000;stroke-width:0.320694;stroke-opacity:0"
                   d="m 5.359375,-5.9375 c -0.140625,0.140625 -0.46875,0.421875 -0.46875,0.59375 0,0.09375 0.09375,0.203125 0.1875,0.203125 0.09375,0 0.140625,-0.078125 0.203125,-0.140625 C 5.390625,-5.421875 5.625,-5.703125 6.0625,-5.921875 6.125,-5.96875 6.234375,-6.015625 6.234375,-6.125 6.234375,-6.234375 6.15625,-6.28125 6.09375,-6.328125 5.875,-6.484375 5.765625,-6.65625 5.6875,-6.890625 5.65625,-6.984375 5.625,-7.125 5.484375,-7.125 c -0.140625,0 -0.203125,0.140625 -0.203125,0.21875 0,0.046875 0.078125,0.359375 0.234375,0.578125 H 2.15625 c -0.15625,0 -0.34375,0 -0.34375,0.203125 0,0.1875 0.1875,0.1875 0.34375,0.1875 z m 0,0"
                   id="path5" />
              </g>
            </g>
            <g
               style="fill:#f00000;fill-opacity:1;stroke:#000000;stroke-width:0.320694;stroke-opacity:0"
               id="g5">
              <g
                 id="use4"
                 transform="translate(1.993,11.628)"
                 style="fill:#f00000;fill-opacity:1;stroke:#000000;stroke-width:0.320694;stroke-opacity:0">
                <path
                   style="fill:#f00000;fill-opacity:1;stroke:#000000;stroke-width:0.320694;stroke-opacity:0"
                   d="M 7.0625,-2.328125 C 7.078125,-2.375 7.109375,-2.4375 7.109375,-2.46875 c 0,0 0,-0.109375 -0.125,-0.109375 -0.09375,0 -0.109375,0.0625 -0.125,0.125 C 6.203125,-0.984375 5.84375,-0.3125 4.140625,-0.3125 H 2.6875 c -0.140625,0 -0.171875,0 -0.21875,0 -0.109375,-0.015625 -0.140625,-0.03125 -0.140625,-0.109375 0,-0.03125 0,-0.046875 0.046875,-0.21875 L 3.0625,-3.375 h 0.984375 c 0.84375,0 0.84375,0.21875 0.84375,0.46875 0,0.0625 0,0.1875 -0.0625,0.484375 C 4.8125,-2.375 4.796875,-2.34375 4.796875,-2.3125 c 0,0.046875 0.03125,0.109375 0.125,0.109375 C 5,-2.203125 5.03125,-2.25 5.078125,-2.40625 l 0.5625,-2.328125 c 0,-0.0625 -0.046875,-0.109375 -0.125,-0.109375 -0.078125,0 -0.109375,0.0625 -0.125,0.171875 -0.21875,0.765625 -0.390625,1 -1.3125,1 h -0.9375 l 0.59375,-2.40625 C 3.828125,-6.4375 3.84375,-6.46875 4.28125,-6.46875 H 5.6875 c 1.203125,0 1.515625,0.28125 1.515625,1.109375 0,0.234375 0,0.25 -0.046875,0.53125 0,0.046875 -0.015625,0.125 -0.015625,0.171875 0,0.046875 0.03125,0.125 0.125,0.125 0.109375,0 0.125,-0.0625 0.140625,-0.25 L 7.609375,-6.515625 C 7.640625,-6.78125 7.59375,-6.78125 7.34375,-6.78125 H 2.296875 c -0.1875,0 -0.296875,0 -0.296875,0.203125 0,0.109375 0.09375,0.109375 0.28125,0.109375 0.375,0 0.65625,0 0.65625,0.171875 0,0.046875 0,0.0625 -0.0625,0.25 L 1.5625,-0.78125 c -0.09375,0.390625 -0.109375,0.46875 -0.90625,0.46875 -0.171875,0 -0.28125,0 -0.28125,0.1875 C 0.375,0 0.46875,0 0.65625,0 h 5.171875 c 0.234375,0 0.25,-0.015625 0.3125,-0.171875 z m 0,0"
                   id="path6" />
              </g>
            </g>
          </g>
        </g>
        <path
           style="fill:#f00000;fill-opacity:1;fill-rule:evenodd;stroke:#000000;stroke-width:0.4;stroke-linecap:round;stroke-linejoin:bevel;stroke-opacity:0"
           d="m 430.35714,284.84224 c 0.98215,-0.17619 2.05418,-0.57767 2.3823,-0.89217 0.32813,-0.3145 1.97559,-6.05955 3.66102,-12.76679 l 3.06444,-12.19498 -1.87531,-0.68776 c -1.34763,-0.49423 1.30471,-0.70363 9.42609,-0.74415 l 11.3014,-0.0564 -0.49797,4.10714 c -0.60267,4.97075 -1.0334,5.72668 -1.0334,1.81365 0,-1.74225 -0.44098,-3.25471 -1.11114,-3.81089 -1.64148,-1.36231 -11.93861,-1.82931 -12.90974,-0.58549 -0.41894,0.53657 -1.98714,5.95773 -3.48489,12.04702 -1.49775,6.08928 -2.86987,11.63393 -3.04916,12.32143 -0.2915,1.1178 0.31438,1.25 5.72909,1.25 5.26114,0 6.39593,-0.23132 8.65474,-1.76419 2.62537,-1.78162 3.21478,-1.43409 1.86026,1.09686 -0.68785,1.28526 -1.54716,1.37483 -12.32143,1.28434 -6.37011,-0.0535 -10.77844,-0.24143 -9.7963,-0.41763 z"
           id="path3"
           transform="scale(0.26458333)" />
        <path
           style="fill:#f00000;fill-opacity:1;fill-rule:evenodd;stroke:#000000;stroke-width:0.4;stroke-linecap:round;stroke-linejoin:bevel;stroke-opacity:0"
           d="m 445.20252,248.40114 c 2.07566,-0.14474 5.28995,-0.14322 7.14285,0.003 1.85291,0.14661 0.15463,0.26503 -3.77394,0.26317 -3.92857,-0.002 -5.44458,-0.12181 -3.36891,-0.26655 z"
           id="path4"
           transform="scale(0.26458333)" />
      </g>
    </g>
    <path
       style="fill:#ff0000;fill-opacity:1;fill-rule:evenodd;stroke:#000000;stroke-width:0.4;stroke-linecap:round;stroke-linejoin:bevel"
       d=""
       id="path7"
       transform="scale(0.26458333)" />
    <path
       style="fill:#ff0000;fill-opacity:1;fill-rule:evenodd;stroke:#000000;stroke-width:0.4;stroke-linecap:round;stroke-linejoin:bevel"
       d=""
       id="path8"
       transform="scale(0.26458333)" />
    <path
       style="fill:#ff0000;fill-opacity:1;fill-rule:evenodd;stroke:#000000;stroke-width:0.4;stroke-linecap:round;stroke-linejoin:bevel"
       d=""
       id="path9"
       transform="scale(0.26458333)" />
  </g>
</svg>
