<?xml version="1.0" encoding="UTF-8" standalone="no"?>
<!-- Created with Inkscape (http://www.inkscape.org/) -->

<svg
   xmlns:dc="http://purl.org/dc/elements/1.1/"
   xmlns:cc="http://creativecommons.org/ns#"
   xmlns:rdf="http://www.w3.org/1999/02/22-rdf-syntax-ns#"
   xmlns:svg="http://www.w3.org/2000/svg"
   xmlns="http://www.w3.org/2000/svg"
   xmlns:sodipodi="http://sodipodi.sourceforge.net/DTD/sodipodi-0.dtd"
   xmlns:inkscape="http://www.inkscape.org/namespaces/inkscape"
   width="210mm"
   height="297mm"
   viewBox="0 0 210 297"
   version="1.1"
   id="svg8"
   inkscape:version="0.92.5 (2060ec1f9f, 2020-04-08)"
   sodipodi:docname="surface_th_Gauss.svg">
  <defs
     id="defs2">
    <inkscape:path-effect
       is_visible="true"
       id="path-effect1944"
       effect="spiro" />
    <inkscape:path-effect
       effect="spiro"
       id="path-effect1940"
       is_visible="true" />
    <inkscape:path-effect
       is_visible="true"
       id="path-effect882"
       effect="spiro" />
    <inkscape:path-effect
       effect="spiro"
       id="path-effect832"
       is_visible="true" />
  </defs>
  <sodipodi:namedview
     id="base"
     pagecolor="#ffffff"
     bordercolor="#666666"
     borderopacity="1.0"
     inkscape:pageopacity="0.0"
     inkscape:pageshadow="2"
     inkscape:zoom="1.979899"
     inkscape:cx="161.59123"
     inkscape:cy="809.67973"
     inkscape:document-units="mm"
     inkscape:current-layer="layer1"
     showgrid="false"
     inkscape:window-width="1848"
     inkscape:window-height="1016"
     inkscape:window-x="72"
     inkscape:window-y="27"
     inkscape:window-maximized="1" />
  <metadata
     id="metadata5">
    <rdf:RDF>
      <cc:Work
         rdf:about="">
        <dc:format>image/svg+xml</dc:format>
        <dc:type
           rdf:resource="http://purl.org/dc/dcmitype/StillImage" />
        <dc:title></dc:title>
      </cc:Work>
    </rdf:RDF>
  </metadata>
  <g
     inkscape:label="Calque 1"
     inkscape:groupmode="layer"
     id="layer1">
    <ellipse
       style="fill:none;fill-rule:evenodd;stroke:#0000ff;stroke-width:1;stroke-miterlimit:4;stroke-dasharray:2.99999999, 2.99999999;stroke-dashoffset:0"
       id="path826"
       cx="49.648457"
       cy="102.81669"
       rx="28.737875"
       ry="28.737837" />
    <path
       style="fill:none;stroke:#008000;stroke-width:1;stroke-linecap:butt;stroke-linejoin:miter;stroke-opacity:1;stroke-miterlimit:4;stroke-dasharray:none"
       d="m 29.860118,110.84673 c -0.480605,-2.64608 0.200564,-5.38889 1.335913,-7.82685 1.13535,-2.43797 2.709927,-4.639584 4.144743,-6.914227 1.557716,-2.469479 2.964577,-5.047508 4.790222,-7.326065 1.825646,-2.278557 4.13966,-4.278053 6.927038,-5.14715 1.92166,-0.599168 3.999367,-0.632972 5.969789,-0.221607 1.970421,0.411365 3.836178,1.257938 5.518665,2.362935 3.364975,2.209994 5.959678,5.395544 8.355296,8.630995 1.619935,2.187836 3.187709,4.44479 4.245422,6.953189 1.057713,2.5084 1.582913,5.30801 1.046245,7.97687 -0.517323,2.57265 -1.967757,4.84472 -3.371046,7.06214 -1.40329,2.21742 -2.816543,4.52279 -3.243538,7.11197 -0.366413,2.22183 0.03098,4.53034 0.909718,6.60364 0.878741,2.0733 2.222429,3.92469 3.754459,5.57504 3.06406,3.30069 6.871346,5.82451 10.076896,8.98798 2.669105,2.63407 4.9399,5.77266 6.022238,9.36306 0.541169,1.7952 0.777167,3.68958 0.613196,5.55739 -0.163972,1.86781 -0.733599,3.7078 -1.721743,5.30128 -1.799272,2.90151 -4.894422,4.83289 -8.172778,5.78604 -3.278356,0.95316 -6.74996,1.01318 -10.159069,0.82854 -12.066105,-0.65351 -23.768609,-4.26068 -35.151784,-8.31547 -4.656228,-1.65859 -9.416467,-3.47679 -13.026509,-6.85303 -1.805022,-1.68812 -3.285942,-3.75857 -4.092153,-6.09478 -0.806211,-2.3362 -0.908198,-4.94568 -0.07925,-7.27392 0.695893,-1.95454 2.010553,-3.64243 3.540357,-5.04393 1.529804,-1.40151 3.277731,-2.54033 5.024194,-3.66032 1.746463,-1.11999 3.507953,-2.23358 5.075295,-3.59297 1.567343,-1.3594 2.945955,-2.98687 3.74706,-4.9007 1.193885,-2.85217 1.006859,-6.14799 0,-9.07143 -0.675918,-1.96254 -1.707936,-3.81636 -2.078871,-5.85862 z"
       id="path830"
       inkscape:connector-curvature="0"
       inkscape:path-effect="#path-effect832"
       inkscape:original-d="m 29.860118,110.84673 c -0.693219,-1.95262 3.654036,-9.82765 5.480656,-14.741077 1.82662,-4.913426 7.811772,-8.31574 11.71726,-12.473215 3.905491,-4.157471 13.229431,7.181284 19.84375,10.772323 6.614319,3.591039 3.528044,9.953109 5.291667,14.930059 1.763625,4.97695 -4.409456,9.44914 -6.614584,14.17411 -2.205124,4.72496 9.827647,14.11084 14.741073,21.16666 4.913426,7.05582 3.276057,13.48089 4.913691,20.22173 1.63763,6.74084 -12.220967,4.40946 -18.331847,6.61458 C 60.790907,173.71703 43.467525,165.96799 31.75,163.19643 20.032473,160.42487 20.284987,149.71501 14.552083,142.9747 c -5.7329033,-6.74031 11.591534,-11.46554 17.386906,-17.19792 5.79537,-5.73237 2.64e-4,-6.04788 0,-9.07143 -2.65e-4,-3.02354 -1.38565,-3.90601 -2.078871,-5.85862 z" />
    <g
       id="g846"
       transform="matrix(0.69999999,0,0,0.69999999,21.62377,35.06902)"
       style="stroke-width:1.42857146;fill:#0000ff">
      <g
         word-spacing="normal"
         letter-spacing="normal"
         font-size-adjust="none"
         font-stretch="normal"
         font-weight="normal"
         font-variant="normal"
         font-style="normal"
         stroke-miterlimit="10.433"
         xml:space="preserve"
         transform="matrix(0.3,0,0,-0.3,-52.5,222.75)"
         id="content"
         style="font-style:normal;font-variant:normal;font-weight:normal;font-stretch:normal;letter-spacing:normal;word-spacing:normal;text-anchor:start;fill:#0000ff;fill-opacity:1;fill-rule:evenodd;stroke:#000000;stroke-width:2.04081631;stroke-linecap:butt;stroke-linejoin:miter;stroke-miterlimit:10.43299961;stroke-dasharray:none;stroke-dashoffset:0;stroke-opacity:1"><path
           id="path841"
           d="m 487.66,440.82 v 0.02 0.02 0.01 l -0.01,0.02 v 0.02 0.02 l -0.01,0.02 v 0.02 l -0.01,0.02 -0.01,0.02 -0.01,0.02 -0.01,0.02 -0.01,0.02 -0.01,0.02 -0.01,0.02 -0.02,0.02 -0.02,0.02 -0.01,0.02 -0.02,0.02 -0.02,0.02 -0.02,0.01 -0.03,0.02 -0.02,0.01 -0.03,0.02 -0.02,0.01 -0.03,0.01 -0.02,0.01 h -0.01 l -0.02,0.01 h -0.02 -0.01 l -0.02,0.01 h -0.02 -0.02 -0.02 -0.02 -0.02 -0.02 c -0.25,0 -0.31,-0.04 -0.9,-0.75 l -2.39,-2.84 c -1.3,2.34 -3.89,3.59 -7.13,3.59 -6.33,0 -12.3,-5.73 -12.3,-11.76 0,-4.03 2.65,-6.33 5.18,-7.06 l 5.32,-1.41 c 1.85,-0.44 4.6,-1.19 4.6,-5.28 0,-4.49 -4.1,-9.16 -8.97,-9.16 -3.19,0 -8.72,1.1 -8.72,7.27 0,1.2 0.25,2.39 0.3,2.69 0.04,0.2 0.09,0.25 0.09,0.35 0,0.5 -0.34,0.55 -0.59,0.55 -0.25,0 -0.35,-0.05 -0.5,-0.2 -0.21,-0.2 -2.99,-11.56 -2.99,-11.7 0,-0.3 0.25,-0.5 0.55,-0.5 0.25,0 0.3,0.04 0.89,0.75 l 2.45,2.82 c 2.14,-2.89 5.52,-3.57 8.41,-3.57 6.78,0 12.66,6.62 12.66,12.79 0,3.44 -1.69,5.14 -2.44,5.83 -1.14,1.16 -1.89,1.34 -6.33,2.5 -1.09,0.3 -2.89,0.8 -3.34,0.89 -1.35,0.45 -3.03,1.89 -3.03,4.53 0,4.05 3.98,8.28 8.71,8.28 4.15,0 7.18,-2.14 7.18,-7.73 0,-1.59 -0.21,-2.49 -0.21,-2.78 0,-0.05 0,-0.5 0.61,-0.5 0.5,0 0.55,0.15 0.74,1 z"
           inkscape:connector-curvature="0"
           style="fill:#0000ff;stroke-width:0" /><path
           id="path843"
           d="m 497.79,420.92 v 0.04 0.04 0.05 0.04 0.03 0.04 0.04 0.03 0.04 0.03 l -0.01,0.03 v 0.03 0.03 l -0.01,0.03 v 0.03 0.02 l -0.01,0.03 v 0.02 l -0.01,0.03 v 0.02 l -0.01,0.04 -0.02,0.04 -0.02,0.03 -0.02,0.03 -0.02,0.03 -0.02,0.03 -0.03,0.02 -0.03,0.02 -0.03,0.02 -0.04,0.01 -0.04,0.01 -0.05,0.02 h -0.02 -0.02 l -0.03,0.01 h -0.03 l -0.02,0.01 h -0.03 -0.03 -0.03 -0.03 l -0.04,0.01 h -0.03 -0.04 -0.03 -0.04 -0.04 -0.04 -0.04 -0.04 -0.05 -0.04 c -2.24,-2.2 -5.39,-2.23 -6.83,-2.23 v -1.25 c 0.84,0 3.14,0 5.04,0.97 v -17.77 c 0,-1.16 0,-1.61 -3.48,-1.61 h -1.31 v -1.25 c 0.62,0.03 4.9,0.14 6.2,0.14 1.08,0 5.47,-0.11 6.24,-0.14 v 1.25 h -1.33 c -3.49,0 -3.49,0.45 -3.49,1.61 z"
           inkscape:connector-curvature="0"
           style="fill:#0000ff;stroke-width:0" /></g>    </g>
    <g
       id="g872"
       transform="matrix(0.69999999,0,0,0.69999999,29.988746,86.095805)"
       style="stroke-width:1.42857146;fill:#008000">
      <g
         word-spacing="normal"
         letter-spacing="normal"
         font-size-adjust="none"
         font-stretch="normal"
         font-weight="normal"
         font-variant="normal"
         font-style="normal"
         stroke-miterlimit="10.433"
         xml:space="preserve"
         transform="matrix(0.3,0,0,-0.3,-52.5,222.75)"
         id="g870"
         style="font-style:normal;font-variant:normal;font-weight:normal;font-stretch:normal;letter-spacing:normal;word-spacing:normal;text-anchor:start;fill:#008000;fill-opacity:1;fill-rule:evenodd;stroke:#000000;stroke-width:1.42857146;stroke-linecap:butt;stroke-linejoin:miter;stroke-miterlimit:10.43299961;stroke-dasharray:none;stroke-dashoffset:0;stroke-opacity:1"><path
           id="path866"
           d="m 487.66,440.82 v 0.02 0.02 0.01 l -0.01,0.02 v 0.02 0.02 l -0.01,0.02 v 0.02 l -0.01,0.02 -0.01,0.02 -0.01,0.02 -0.01,0.02 -0.01,0.02 -0.01,0.02 -0.01,0.02 -0.02,0.02 -0.02,0.02 -0.01,0.02 -0.02,0.02 -0.02,0.02 -0.02,0.01 -0.03,0.02 -0.02,0.01 -0.03,0.02 -0.02,0.01 -0.03,0.01 -0.02,0.01 h -0.01 l -0.02,0.01 h -0.02 -0.01 l -0.02,0.01 h -0.02 -0.02 -0.02 -0.02 -0.02 -0.02 c -0.25,0 -0.31,-0.04 -0.9,-0.75 l -2.39,-2.84 c -1.3,2.34 -3.89,3.59 -7.13,3.59 -6.33,0 -12.3,-5.73 -12.3,-11.76 0,-4.03 2.65,-6.33 5.18,-7.06 l 5.32,-1.41 c 1.85,-0.44 4.6,-1.19 4.6,-5.28 0,-4.49 -4.1,-9.16 -8.97,-9.16 -3.19,0 -8.72,1.1 -8.72,7.27 0,1.2 0.25,2.39 0.3,2.69 0.04,0.2 0.09,0.25 0.09,0.35 0,0.5 -0.34,0.55 -0.59,0.55 -0.25,0 -0.35,-0.05 -0.5,-0.2 -0.21,-0.2 -2.99,-11.56 -2.99,-11.7 0,-0.3 0.25,-0.5 0.55,-0.5 0.25,0 0.3,0.04 0.89,0.75 l 2.45,2.82 c 2.14,-2.89 5.52,-3.57 8.41,-3.57 6.78,0 12.66,6.62 12.66,12.79 0,3.44 -1.69,5.14 -2.44,5.83 -1.14,1.16 -1.89,1.34 -6.33,2.5 -1.09,0.3 -2.89,0.8 -3.34,0.89 -1.35,0.45 -3.03,1.89 -3.03,4.53 0,4.05 3.98,8.28 8.71,8.28 4.15,0 7.18,-2.14 7.18,-7.73 0,-1.59 -0.21,-2.49 -0.21,-2.78 0,-0.05 0,-0.5 0.61,-0.5 0.5,0 0.55,0.15 0.74,1 z"
           inkscape:connector-curvature="0"
           style="fill:#008000;stroke-width:0" /><path
           id="path868"
           d="m 503.71,405.11 h -1.18 c -0.1,-0.77 -0.46,-2.83 -0.91,-3.18 -0.26,-0.2 -2.95,-0.2 -3.44,-0.2 h -6.42 c 3.66,3.23 4.88,4.2 6.97,5.84 2.58,2.07 4.98,4.22 4.98,7.54 0,4.21 -3.68,6.79 -8.15,6.79 -4.31,0 -7.25,-3.03 -7.25,-6.23 0,-1.78 1.5,-1.96 1.86,-1.96 0.83,0 1.84,0.6 1.84,1.85 0,0.62 -0.25,1.84 -2.06,1.84 1.08,2.47 3.45,3.24 5.09,3.24 3.49,0 5.3,-2.71 5.3,-5.53 0,-3.04 -2.16,-5.44 -3.28,-6.69 l -8.39,-8.3 c -0.36,-0.31 -0.36,-0.39 -0.36,-1.36 h 14.36 z"
           inkscape:connector-curvature="0"
           style="fill:#008000;stroke-width:0" /></g>    </g>
    <path
       inkscape:original-d="m 29.860118,110.84673 c -0.693219,-1.95262 3.654036,-9.82765 5.480656,-14.741077 1.82662,-4.913426 7.811772,-8.31574 11.71726,-12.473215 3.905491,-4.157471 13.229431,7.181284 19.84375,10.772323 6.614319,3.591039 3.528044,9.953109 5.291667,14.930059 1.763625,4.97695 -4.409456,9.44914 -6.614584,14.17411 -2.205124,4.72496 9.827647,14.11084 14.741073,21.16666 4.913426,7.05582 3.276057,13.48089 4.913691,20.22173 1.63763,6.74084 -12.220967,4.40946 -18.331847,6.61458 C 60.790907,173.71703 43.467525,165.96799 31.75,163.19643 20.032473,160.42487 20.284987,149.71501 14.552083,142.9747 c -5.7329033,-6.74031 11.591534,-11.46554 17.386906,-17.19792 5.79537,-5.73237 2.64e-4,-6.04788 0,-9.07143 -2.65e-4,-3.02354 -1.38565,-3.90601 -2.078871,-5.85862 z"
       inkscape:path-effect="#path-effect882"
       inkscape:connector-curvature="0"
       id="path880"
       d="m 29.860118,110.84673 c -0.480605,-2.64608 0.200564,-5.38889 1.335913,-7.82685 1.13535,-2.43797 2.709927,-4.639584 4.144743,-6.914227 1.557716,-2.469479 2.964577,-5.047508 4.790222,-7.326065 1.825646,-2.278557 4.13966,-4.278053 6.927038,-5.14715 1.92166,-0.599168 3.999367,-0.632972 5.969789,-0.221607 1.970421,0.411365 3.836178,1.257938 5.518665,2.362935 3.364975,2.209994 5.959678,5.395544 8.355296,8.630995 1.619935,2.187836 3.187709,4.44479 4.245422,6.953189 1.057713,2.5084 1.582913,5.30801 1.046245,7.97687 -0.517323,2.57265 -1.967757,4.84472 -3.371046,7.06214 -1.40329,2.21742 -2.816543,4.52279 -3.243538,7.11197 -0.366413,2.22183 0.03098,4.53034 0.909718,6.60364 0.878741,2.0733 2.222429,3.92469 3.754459,5.57504 3.06406,3.30069 6.871346,5.82451 10.076896,8.98798 2.669105,2.63407 4.9399,5.77266 6.022238,9.36306 0.541169,1.7952 0.777167,3.68958 0.613196,5.55739 -0.163972,1.86781 -0.733599,3.7078 -1.721743,5.30128 -1.799272,2.90151 -4.894422,4.83289 -8.172778,5.78604 -3.278356,0.95316 -6.74996,1.01318 -10.159069,0.82854 -12.066105,-0.65351 -23.768609,-4.26068 -35.151784,-8.31547 -4.656228,-1.65859 -9.416467,-3.47679 -13.026509,-6.85303 -1.805022,-1.68812 -3.285942,-3.75857 -4.092153,-6.09478 -0.806211,-2.3362 -0.908198,-4.94568 -0.07925,-7.27392 0.695893,-1.95454 2.010553,-3.64243 3.540357,-5.04393 1.529804,-1.40151 3.277731,-2.54033 5.024194,-3.66032 1.746463,-1.11999 3.507953,-2.23358 5.075295,-3.59297 1.567343,-1.3594 2.945955,-2.98687 3.74706,-4.9007 1.193885,-2.85217 1.006859,-6.14799 0,-9.07143 -0.675918,-1.96254 -1.707936,-3.81636 -2.078871,-5.85862 z"
       style="fill:none;stroke:#ff0000;stroke-width:1.72524313;stroke-linecap:butt;stroke-linejoin:miter;stroke-miterlimit:4;stroke-dasharray:1.72524313,1.72524313;stroke-opacity:1;stroke-dashoffset:0"
       transform="matrix(-0.55634411,-0.16085928,0.1611349,-0.55729738,45.46412,154.17865)" />
    <g
       id="g907"
       transform="matrix(0.69999999,0,0,0.69999999,-8.8023547,-17.719266)"
       style="stroke-width:1.42857146;fill:#ff0000">
      <g
         word-spacing="normal"
         letter-spacing="normal"
         font-size-adjust="none"
         font-stretch="normal"
         font-weight="normal"
         font-variant="normal"
         font-style="normal"
         stroke-miterlimit="10.433"
         xml:space="preserve"
         transform="matrix(0.3,0,0,-0.3,-52.5,222.75)"
         id="g905"
         style="font-style:normal;font-variant:normal;font-weight:normal;font-stretch:normal;letter-spacing:normal;word-spacing:normal;text-anchor:start;fill:#ff0000;fill-opacity:1;fill-rule:evenodd;stroke:#000000;stroke-width:1.42857146;stroke-linecap:butt;stroke-linejoin:miter;stroke-miterlimit:10.43299961;stroke-dasharray:none;stroke-dashoffset:0;stroke-opacity:1"><path
           id="path901"
           d="m 487.66,440.82 v 0.02 0.02 0.01 l -0.01,0.02 v 0.02 0.02 l -0.01,0.02 v 0.02 l -0.01,0.02 -0.01,0.02 -0.01,0.02 -0.01,0.02 -0.01,0.02 -0.01,0.02 -0.01,0.02 -0.02,0.02 -0.02,0.02 -0.01,0.02 -0.02,0.02 -0.02,0.02 -0.02,0.01 -0.03,0.02 -0.02,0.01 -0.03,0.02 -0.02,0.01 -0.03,0.01 -0.02,0.01 h -0.01 l -0.02,0.01 h -0.02 -0.01 l -0.02,0.01 h -0.02 -0.02 -0.02 -0.02 -0.02 -0.02 c -0.25,0 -0.31,-0.04 -0.9,-0.75 l -2.39,-2.84 c -1.3,2.34 -3.89,3.59 -7.13,3.59 -6.33,0 -12.3,-5.73 -12.3,-11.76 0,-4.03 2.65,-6.33 5.18,-7.06 l 5.32,-1.41 c 1.85,-0.44 4.6,-1.19 4.6,-5.28 0,-4.49 -4.1,-9.16 -8.97,-9.16 -3.19,0 -8.72,1.1 -8.72,7.27 0,1.2 0.25,2.39 0.3,2.69 0.04,0.2 0.09,0.25 0.09,0.35 0,0.5 -0.34,0.55 -0.59,0.55 -0.25,0 -0.35,-0.05 -0.5,-0.2 -0.21,-0.2 -2.99,-11.56 -2.99,-11.7 0,-0.3 0.25,-0.5 0.55,-0.5 0.25,0 0.3,0.04 0.89,0.75 l 2.45,2.82 c 2.14,-2.89 5.52,-3.57 8.41,-3.57 6.78,0 12.66,6.62 12.66,12.79 0,3.44 -1.69,5.14 -2.44,5.83 -1.14,1.16 -1.89,1.34 -6.33,2.5 -1.09,0.3 -2.89,0.8 -3.34,0.89 -1.35,0.45 -3.03,1.89 -3.03,4.53 0,4.05 3.98,8.28 8.71,8.28 4.15,0 7.18,-2.14 7.18,-7.73 0,-1.59 -0.21,-2.49 -0.21,-2.78 0,-0.05 0,-0.5 0.61,-0.5 0.5,0 0.55,0.15 0.74,1 z"
           inkscape:connector-curvature="0"
           style="fill:#ff0000;stroke-width:0" /><path
           id="path903"
           d="m 495.64,410.4 h 0.25 l 0.25,-0.02 0.24,-0.03 0.24,-0.04 0.23,-0.05 0.23,-0.06 0.22,-0.07 0.21,-0.08 0.21,-0.1 0.2,-0.1 0.2,-0.12 0.19,-0.12 0.18,-0.14 0.18,-0.15 0.16,-0.16 0.16,-0.17 0.15,-0.18 0.15,-0.19 0.13,-0.2 0.13,-0.22 0.11,-0.22 0.11,-0.24 0.1,-0.24 0.09,-0.26 0.08,-0.27 0.07,-0.28 0.06,-0.29 0.05,-0.3 0.04,-0.31 0.03,-0.32 0.01,-0.33 0.01,-0.35 c 0,-4.33 -2.52,-5.61 -4.53,-5.61 -1.39,0 -4.47,0.38 -5.92,2.44 1.62,0.06 2.01,1.22 2.01,1.95 0,1.11 -0.84,1.91 -1.92,1.91 -0.97,0 -1.95,-0.59 -1.95,-2.02 0,-3.28 3.62,-5.4 7.84,-5.4 4.84,0 8.19,3.25 8.19,6.73 0,2.72 -2.22,5.44 -6.07,6.24 3.66,1.33 4.99,3.93 4.99,6.06 0,2.75 -3.17,4.81 -7.03,4.81 -3.88,0 -6.83,-1.89 -6.83,-4.67 0,-1.19 0.77,-1.84 1.81,-1.84 1.08,0 1.77,0.79 1.77,1.76 0,1.02 -0.69,1.75 -1.77,1.81 1.22,1.55 3.61,1.93 4.91,1.93 1.56,0 3.76,-0.77 3.76,-3.8 0,-1.47 -0.48,-3.06 -1.39,-4.14 -1.15,-1.33 -2.12,-1.41 -3.87,-1.5 -0.88,-0.08 -0.94,-0.08 -1.11,-0.11 -0.08,0 -0.36,-0.06 -0.36,-0.45 0,-0.49 0.31,-0.49 0.91,-0.49 z"
           inkscape:connector-curvature="0"
           style="fill:#ff0000;stroke-width:0" /></g>    </g>
    <g
       id="g1949"
       transform="translate(-8.7406994,-7.843006)">
      <circle
         r="5"
         cy="111.18987"
         cx="58.247799"
         id="path1936"
         style="fill:#ff0000;fill-rule:evenodd;stroke:#000000;stroke-width:0.86500001;stroke-miterlimit:4;stroke-dasharray:none" />
      <path
         transform="matrix(1,0,0,0.91406251,0,9.8019885)"
         inkscape:original-d="m 58.302826,108.0119 c 2.64e-4,2.01561 2.64e-4,4.03148 0,6.04762"
         inkscape:path-effect="#path-effect1940"
         inkscape:connector-curvature="0"
         id="path1938"
         d="m 58.302826,108.0119 v 6.04762"
         style="fill:none;stroke:#000000;stroke-width:1.74151123;stroke-linecap:butt;stroke-linejoin:miter;stroke-miterlimit:4;stroke-dasharray:none;stroke-opacity:1" />
      <path
         style="fill:none;stroke:#000000;stroke-width:1.74151123;stroke-linecap:butt;stroke-linejoin:miter;stroke-miterlimit:4;stroke-dasharray:none;stroke-opacity:1"
         d="m 58.302826,108.0119 v 6.04762"
         id="path1942"
         inkscape:connector-curvature="0"
         inkscape:path-effect="#path-effect1944"
         inkscape:original-d="m 58.302826,108.0119 c 2.64e-4,2.01561 2.64e-4,4.03148 0,6.04762"
         transform="matrix(0,1,-0.91406251,0,159.79641,52.992742)" />
    </g>
  </g>
</svg>
