<?xml version="1.0" encoding="UTF-8" standalone="no"?>
<!-- Created with Inkscape (http://www.inkscape.org/) -->

<svg
   version="1.1"
   id="svg2"
   width="3206.6667"
   height="2054.6667"
   viewBox="0 0 3206.6667 2054.6667"
   sodipodi:docname="coin_air_image.svg"
   inkscape:version="1.3.2 (1:1.3.2+202311252150+091e20ef0f)"
   inkscape:export-filename="coin_air_image.pdf"
   inkscape:export-xdpi="96"
   inkscape:export-ydpi="96"
   xmlns:inkscape="http://www.inkscape.org/namespaces/inkscape"
   xmlns:sodipodi="http://sodipodi.sourceforge.net/DTD/sodipodi-0.dtd"
   xmlns="http://www.w3.org/2000/svg"
   xmlns:svg="http://www.w3.org/2000/svg"
   xmlns:rdf="http://www.w3.org/1999/02/22-rdf-syntax-ns#"
   xmlns:cc="http://creativecommons.org/ns#"
   xmlns:dc="http://purl.org/dc/elements/1.1/"
   xmlns:ns2="http://www.iki.fi/pav/software/textext/">
  <sodipodi:namedview
     pagecolor="#ffffff"
     bordercolor="#666666"
     borderopacity="1"
     objecttolerance="10"
     gridtolerance="10"
     guidetolerance="10"
     inkscape:pageopacity="0"
     inkscape:pageshadow="2"
     inkscape:window-width="3440"
     inkscape:window-height="1364"
     id="namedview4"
     showgrid="false"
     inkscape:zoom="0.9188838"
     inkscape:cx="2060.1081"
     inkscape:cy="646.98061"
     inkscape:window-x="0"
     inkscape:window-y="0"
     inkscape:window-maximized="1"
     inkscape:current-layer="svg2"
     inkscape:snap-global="false"
     inkscape:showpageshadow="0"
     inkscape:pagecheckerboard="0"
     inkscape:deskcolor="#d1d1d1" />
  <metadata
     id="metadata8">
    <rdf:RDF>
      <cc:Work
         rdf:about="">
        <dc:format>image/svg+xml</dc:format>
        <dc:type
           rdf:resource="http://purl.org/dc/dcmitype/StillImage" />
        <dc:title />
      </cc:Work>
    </rdf:RDF>
  </metadata>
  <defs
     id="defs6">
    <marker
       inkscape:isstock="true"
       style="overflow:visible;"
       id="marker5571"
       refX="0.0"
       refY="0.0"
       orient="auto"
       inkscape:stockid="Arrow1Lend">
      <path
         transform="scale(0.8) rotate(180) translate(12.5,0)"
         style="fill-rule:evenodd;stroke:#000000;stroke-width:1pt;stroke-opacity:1;fill:#000000;fill-opacity:1"
         d="M 0.0,0.0 L 5.0,-5.0 L -12.5,0.0 L 5.0,5.0 L 0.0,0.0 z "
         id="path5569" />
    </marker>
    <marker
       inkscape:isstock="true"
       style="overflow:visible"
       id="marker5543"
       refX="0.0"
       refY="0.0"
       orient="auto"
       inkscape:stockid="Arrow1Lstart">
      <path
         transform="scale(0.8) translate(12.5,0)"
         style="fill-rule:evenodd;stroke:#000000;stroke-width:1pt;stroke-opacity:1;fill:#000000;fill-opacity:1"
         d="M 0.0,0.0 L 5.0,-5.0 L -12.5,0.0 L 5.0,5.0 L 0.0,0.0 z "
         id="path5541" />
    </marker>
    <marker
       inkscape:isstock="true"
       style="overflow:visible"
       id="Arrow2Sstart"
       refX="0.0"
       refY="0.0"
       orient="auto"
       inkscape:stockid="Arrow2Sstart">
      <path
         transform="scale(0.3) translate(-2.3,0)"
         d="M 8.7185878,4.0337352 L -2.2072895,0.016013256 L 8.7185884,-4.0017078 C 6.9730900,-1.6296469 6.9831476,1.6157441 8.7185878,4.0337352 z "
         style="fill-rule:evenodd;stroke-width:0.625;stroke-linejoin:round;stroke:#000000;stroke-opacity:1;fill:#000000;fill-opacity:1"
         id="path4028" />
    </marker>
    <marker
       inkscape:isstock="true"
       style="overflow:visible;"
       id="Arrow2Lend"
       refX="0.0"
       refY="0.0"
       orient="auto"
       inkscape:stockid="Arrow2Lend">
      <path
         transform="scale(1.1) rotate(180) translate(1,0)"
         d="M 8.7185878,4.0337352 L -2.2072895,0.016013256 L 8.7185884,-4.0017078 C 6.9730900,-1.6296469 6.9831476,1.6157441 8.7185878,4.0337352 z "
         style="fill-rule:evenodd;stroke-width:0.625;stroke-linejoin:round;stroke:#000000;stroke-opacity:1;fill:#000000;fill-opacity:1"
         id="path4019" />
    </marker>
    <marker
       inkscape:isstock="true"
       style="overflow:visible"
       id="Arrow2Lstart"
       refX="0.0"
       refY="0.0"
       orient="auto"
       inkscape:stockid="Arrow2Lstart">
      <path
         transform="scale(1.1) translate(1,0)"
         d="M 8.7185878,4.0337352 L -2.2072895,0.016013256 L 8.7185884,-4.0017078 C 6.9730900,-1.6296469 6.9831476,1.6157441 8.7185878,4.0337352 z "
         style="fill-rule:evenodd;stroke-width:0.625;stroke-linejoin:round;stroke:#000000;stroke-opacity:1;fill:#000000;fill-opacity:1"
         id="path4016" />
    </marker>
    <marker
       inkscape:isstock="true"
       style="overflow:visible;"
       id="Arrow1Lend"
       refX="0.0"
       refY="0.0"
       orient="auto"
       inkscape:stockid="Arrow1Lend">
      <path
         transform="scale(0.8) rotate(180) translate(12.5,0)"
         style="fill-rule:evenodd;stroke:#000000;stroke-width:1pt;stroke-opacity:1;fill:#000000;fill-opacity:1"
         d="M 0.0,0.0 L 5.0,-5.0 L -12.5,0.0 L 5.0,5.0 L 0.0,0.0 z "
         id="path4001" />
    </marker>
    <marker
       inkscape:isstock="true"
       style="overflow:visible"
       id="Arrow1Lstart"
       refX="0.0"
       refY="0.0"
       orient="auto"
       inkscape:stockid="Arrow1Lstart">
      <path
         transform="scale(0.8) translate(12.5,0)"
         style="fill-rule:evenodd;stroke:#000000;stroke-width:1pt;stroke-opacity:1;fill:#000000;fill-opacity:1"
         d="M 0.0,0.0 L 5.0,-5.0 L -12.5,0.0 L 5.0,5.0 L 0.0,0.0 z "
         id="path3998" />
    </marker>
    <g
       id="id-753d45cd-8af2-47c2-b163-38b001aa9c72-7">
      <symbol
         overflow="visible"
         id="id-880bf09e-9506-44ee-afcb-6686bd21790e-5">
        <path
           style="stroke:none;stroke-width:0"
           d=""
           id="id-694f35ac-ecf7-458b-bd3e-1179912a4614-3" />
      </symbol>
      <symbol
         overflow="visible"
         id="id-fb14223d-c975-4192-9c02-cbb6fd928b01-5">
        <path
           style="stroke:none;stroke-width:0"
           d="m 4.53125,-4.984375 c 0,-0.65625 -0.171875,-2.046875 -1.1875,-2.046875 -1.390625,0 -2.921875,2.8125 -2.921875,5.09375 0,0.9375 0.28125,2.046875 1.1875,2.046875 1.40625,0 2.921875,-2.859375 2.921875,-5.09375 z M 1.46875,-3.625 C 1.640625,-4.25 1.84375,-5.046875 2.25,-5.765625 2.515625,-6.25 2.875,-6.8125 3.328125,-6.8125 c 0.484375,0 0.546875,0.640625 0.546875,1.203125 0,0.5 -0.078125,1 -0.3125,1.984375 z m 2,0.328125 C 3.359375,-2.84375 3.15625,-2 2.765625,-1.28125 c -0.34375,0.6875 -0.71875,1.171875 -1.15625,1.171875 -0.328125,0 -0.53125,-0.296875 -0.53125,-1.21875 0,-0.421875 0.0625,-1 0.3125,-1.96875 z m 0,0"
           id="id-3e32b1a1-8a44-4b45-8678-7fad7e5ccb09-6" />
      </symbol>
    </g>
    <g
       id="g2-9">
      <symbol
         overflow="visible"
         id="symbol1-3">
        <path
           style="stroke:none;stroke-width:0"
           d=""
           id="path1-6" />
      </symbol>
      <symbol
         overflow="visible"
         id="symbol2-0">
        <path
           style="stroke:none;stroke-width:0"
           d="m 4.53125,-4.984375 c 0,-0.65625 -0.171875,-2.046875 -1.1875,-2.046875 -1.390625,0 -2.921875,2.8125 -2.921875,5.09375 0,0.9375 0.28125,2.046875 1.1875,2.046875 1.40625,0 2.921875,-2.859375 2.921875,-5.09375 z M 1.46875,-3.625 C 1.640625,-4.25 1.84375,-5.046875 2.25,-5.765625 2.515625,-6.25 2.875,-6.8125 3.328125,-6.8125 c 0.484375,0 0.546875,0.640625 0.546875,1.203125 0,0.5 -0.078125,1 -0.3125,1.984375 z m 2,0.328125 C 3.359375,-2.84375 3.15625,-2 2.765625,-1.28125 c -0.34375,0.6875 -0.71875,1.171875 -1.15625,1.171875 -0.328125,0 -0.53125,-0.296875 -0.53125,-1.21875 0,-0.421875 0.0625,-1 0.3125,-1.96875 z m 0,0"
           id="path2-6" />
      </symbol>
    </g>
    <g
       id="id-f9f2acd4-6e01-442f-90d6-bcd58a546e89">
      <symbol
         overflow="visible"
         id="id-b7df19f2-a464-4ee2-a68a-85718a768ea6">
        <path
           style="stroke:none;stroke-width:0"
           d=""
           id="id-1d59ec92-7c1d-4d9f-8b87-7dffd3473f1c" />
      </symbol>
      <symbol
         overflow="visible"
         id="id-7a7b2045-c098-477a-bf7c-838e4a701cb7">
        <path
           style="stroke:none;stroke-width:0"
           d="m 3.296875,2.390625 c 0,-0.03125 0,-0.046875 -0.171875,-0.21875 C 1.890625,0.921875 1.5625,-0.96875 1.5625,-2.5 c 0,-1.734375 0.375,-3.46875 1.609375,-4.703125 0.125,-0.125 0.125,-0.140625 0.125,-0.171875 0,-0.078125 -0.03125,-0.109375 -0.09375,-0.109375 -0.109375,0 -1,0.6875 -1.59375,1.953125 -0.5,1.09375 -0.625,2.203125 -0.625,3.03125 0,0.78125 0.109375,1.984375 0.65625,3.125 C 2.25,1.84375 3.09375,2.5 3.203125,2.5 c 0.0625,0 0.09375,-0.03125 0.09375,-0.109375 z m 0,0"
           id="id-642e2997-cc3b-4e22-b708-59b2f726767d" />
      </symbol>
      <symbol
         overflow="visible"
         id="id-7aff9780-d413-46b8-8a81-fe186d796fa3">
        <path
           style="stroke:none;stroke-width:0"
           d="m 2.875,-2.5 c 0,-0.765625 -0.109375,-1.96875 -0.65625,-3.109375 -0.59375,-1.21875 -1.453125,-1.875 -1.546875,-1.875 -0.0625,0 -0.109375,0.046875 -0.109375,0.109375 0,0.03125 0,0.046875 0.1875,0.234375 0.984375,0.984375 1.546875,2.5625 1.546875,4.640625 0,1.71875 -0.359375,3.46875 -1.59375,4.71875 C 0.5625,2.34375 0.5625,2.359375 0.5625,2.390625 0.5625,2.453125 0.609375,2.5 0.671875,2.5 0.765625,2.5 1.671875,1.8125 2.25,0.546875 2.765625,-0.546875 2.875,-1.65625 2.875,-2.5 Z m 0,0"
           id="id-54f57f0c-51a9-4351-92f9-d503448525f0" />
      </symbol>
      <symbol
         overflow="visible"
         id="id-1b1875cb-28c0-41e9-b639-c73814802866">
        <path
           style="stroke:none;stroke-width:0"
           d=""
           id="id-6605a1d7-3daa-45d1-9da1-fedeca7d7659" />
      </symbol>
      <symbol
         overflow="visible"
         id="id-8141be00-a9c1-4b12-b6ae-5da6f1ef0116">
        <path
           style="stroke:none;stroke-width:0"
           d="M 1.796875,-0.921875 C 2.328125,-1.765625 2.5,-2.40625 2.625,-2.9375 2.984375,-4.3125 3.359375,-5.5 3.984375,-6.1875 4.09375,-6.3125 4.171875,-6.40625 4.5,-6.40625 c 0.6875,0 0.703125,0.6875 0.703125,0.828125 0,0.171875 -0.046875,0.3125 -0.046875,0.359375 0,0.078125 0.0625,0.078125 0.0625,0.078125 0.171875,0 0.4375,-0.109375 0.6875,-0.296875 0.171875,-0.140625 0.265625,-0.234375 0.265625,-0.640625 0,-0.546875 -0.28125,-0.953125 -0.84375,-0.953125 -0.3125,0 -1.1875,0.078125 -2.171875,1.0625 -0.796875,0.828125 -1.265625,2.625 -1.453125,3.359375 -0.171875,0.703125 -0.25,1 -0.5625,1.609375 -0.0625,0.109375 -0.328125,0.546875 -0.46875,0.6875 C 0.40625,-0.0625 0.3125,0.109375 0.3125,0.15625 c 0,0.015625 0.015625,0.0625 0.09375,0.0625 0.03125,0 0.234375,-0.046875 0.5,-0.203125 0.171875,-0.109375 0.1875,-0.125 0.421875,-0.359375 0.5,0 0.84375,0.09375 1.46875,0.28125 0.515625,0.125 1.015625,0.28125 1.53125,0.28125 0.8125,0 1.625,-0.609375 1.9375,-1.046875 C 6.46875,-1.09375 6.53125,-1.34375 6.53125,-1.375 c 0,-0.078125 -0.0625,-0.078125 -0.078125,-0.078125 -0.15625,0 -0.390625,0.125 -0.5625,0.234375 C 5.625,-1.046875 5.609375,-0.984375 5.546875,-0.8125 5.5,-0.65625 5.4375,-0.578125 5.390625,-0.515625 5.3125,-0.40625 5.296875,-0.40625 5.15625,-0.40625 4.671875,-0.40625 4.171875,-0.546875 3.515625,-0.734375 3.234375,-0.8125 2.6875,-0.96875 2.1875,-0.96875 c -0.125,0 -0.265625,0.015625 -0.390625,0.046875 z m 0,0"
           id="id-c9bbf036-13b6-4bfb-8d03-0f6eede43d3a" />
      </symbol>
      <symbol
         overflow="visible"
         id="id-be44c28e-6704-4b43-bf59-929019a72186">
        <path
           style="stroke:none;stroke-width:0"
           d=""
           id="id-b4e63138-6d3c-4c83-9ab1-08cef51c5124" />
      </symbol>
      <symbol
         overflow="visible"
         id="id-b0a8758e-76c1-48b7-8163-8e431f851656">
        <path
           style="stroke:none;stroke-width:0"
           d="m 2.328125,-4.4375 c 0,-0.1875 0,-0.1875 -0.203125,-0.1875 -0.453125,0.4375 -1.078125,0.4375 -1.359375,0.4375 v 0.25 c 0.15625,0 0.625,0 1,-0.1875 v 3.546875 c 0,0.234375 0,0.328125 -0.6875,0.328125 H 0.8125 V 0 c 0.125,0 0.984375,-0.03125 1.234375,-0.03125 0.21875,0 1.09375,0.03125 1.25,0.03125 V -0.25 H 3.03125 c -0.703125,0 -0.703125,-0.09375 -0.703125,-0.328125 z m 0,0"
           id="id-6a791f78-ce9e-44e8-b918-ca155ff4b8c7" />
      </symbol>
    </g>
    <g
       id="id-7eca3433-f38a-4301-9a15-bd60ff807393">
      <symbol
         overflow="visible"
         id="id-92e849b7-7ec1-4420-a425-02d48989a70c">
        <path
           style="stroke:none;stroke-width:0"
           d=""
           id="id-d318980b-c24e-4753-9f6c-366e751d4da7" />
      </symbol>
      <symbol
         overflow="visible"
         id="id-74865154-ca15-48eb-8b9e-e916dafb4020">
        <path
           style="stroke:none;stroke-width:0"
           d="m 3.296875,2.390625 c 0,-0.03125 0,-0.046875 -0.171875,-0.21875 C 1.890625,0.921875 1.5625,-0.96875 1.5625,-2.5 c 0,-1.734375 0.375,-3.46875 1.609375,-4.703125 0.125,-0.125 0.125,-0.140625 0.125,-0.171875 0,-0.078125 -0.03125,-0.109375 -0.09375,-0.109375 -0.109375,0 -1,0.6875 -1.59375,1.953125 -0.5,1.09375 -0.625,2.203125 -0.625,3.03125 0,0.78125 0.109375,1.984375 0.65625,3.125 C 2.25,1.84375 3.09375,2.5 3.203125,2.5 c 0.0625,0 0.09375,-0.03125 0.09375,-0.109375 z m 0,0"
           id="id-b85c5e47-ee2a-4fea-8d10-04b0b7557693" />
      </symbol>
      <symbol
         overflow="visible"
         id="id-5bbe5d48-9e32-4515-ac1f-4b8ebd275833">
        <path
           style="stroke:none;stroke-width:0"
           d="m 2.875,-2.5 c 0,-0.765625 -0.109375,-1.96875 -0.65625,-3.109375 -0.59375,-1.21875 -1.453125,-1.875 -1.546875,-1.875 -0.0625,0 -0.109375,0.046875 -0.109375,0.109375 0,0.03125 0,0.046875 0.1875,0.234375 0.984375,0.984375 1.546875,2.5625 1.546875,4.640625 0,1.71875 -0.359375,3.46875 -1.59375,4.71875 C 0.5625,2.34375 0.5625,2.359375 0.5625,2.390625 0.5625,2.453125 0.609375,2.5 0.671875,2.5 0.765625,2.5 1.671875,1.8125 2.25,0.546875 2.765625,-0.546875 2.875,-1.65625 2.875,-2.5 Z m 0,0"
           id="id-b62f19a4-b51f-4339-9ef7-7b0c028b33b7" />
      </symbol>
      <symbol
         overflow="visible"
         id="id-cbc22260-7bae-4ffb-90a0-f24a733f424e">
        <path
           style="stroke:none;stroke-width:0"
           d=""
           id="id-90806b6a-53aa-4bca-a62b-10a50f4cbbff" />
      </symbol>
      <symbol
         overflow="visible"
         id="id-280cba7f-ef97-4d69-958f-bcfd6a91ed27">
        <path
           style="stroke:none;stroke-width:0"
           d="m 3.84375,-5.578125 c 0.265625,1.296875 0.703125,3.4375 1.265625,4.59375 0.21875,0.421875 0.328125,0.640625 0.4375,0.640625 0.03125,0 0.0625,0 0.234375,-0.171875 C 6.546875,-1.25 7.0625,-1.828125 7.75,-2.625 l 2.1875,-2.53125 c -0.140625,0.84375 -0.5,3.078125 -0.5,4.25 0,0.265625 0.015625,0.53125 0.046875,0.796875 0,0.109375 0.046875,0.40625 0.46875,0.40625 0.421875,0 1.171875,-0.453125 1.171875,-0.640625 0,-0.0625 -0.0625,-0.078125 -0.09375,-0.078125 -0.125,0 -0.328125,0.09375 -0.4375,0.15625 -0.234375,-0.03125 -0.25,-0.1875 -0.28125,-0.40625 -0.03125,-0.328125 -0.03125,-0.625 -0.03125,-0.65625 0,-1.109375 0.4375,-4.140625 0.734375,-5.375 0.01563,-0.0625 0.01563,-0.078125 0.01563,-0.171875 0,-0.03125 0,-0.140625 -0.07813,-0.140625 -0.03125,0 -0.04687,0 -0.234375,0.234375 -0.9375,1.125 -3.84375,4.625 -4.84375,5.453125 C 5.625,-1.859375 5.453125,-2.234375 5.109375,-3.625 4.8125,-4.75 4.640625,-5.578125 4.46875,-6.546875 4.453125,-6.6875 4.390625,-6.953125 4.390625,-6.984375 4.359375,-7.03125 4.3125,-7.03125 4.28125,-7.03125 c -0.171875,0 -0.59375,0.21875 -0.625,0.4375 -0.125,0.828125 -0.3125,2.140625 -1.015625,4.046875 -0.796875,2.125 -1.015625,2.125 -1.203125,2.125 -0.125,0 -0.5,-0.078125 -0.71875,-0.28125 C 0.671875,-0.75 0.640625,-0.75 0.625,-0.75 c -0.140625,0 -0.359375,0.453125 -0.359375,0.734375 0,0.078125 0,0.203125 0.328125,0.375 C 0.84375,0.484375 1.078125,0.5 1.125,0.5 1.75,0.5 2.328125,-0.921875 2.53125,-1.4375 3,-2.5625 3.5625,-4.140625 3.84375,-5.578125 Z m 0,0"
           id="id-149e2aa0-0ab4-42a3-bda8-6e5b8fb2aa6d" />
      </symbol>
      <symbol
         overflow="visible"
         id="id-415affbf-e94d-497e-884d-f9c91bc366e5">
        <path
           style="stroke:none;stroke-width:0"
           d=""
           id="id-edd8ac81-326d-402f-8be5-9a72e24d3707" />
      </symbol>
      <symbol
         overflow="visible"
         id="id-8963958e-9c81-42ae-9ee1-cf82baa7f3d8">
        <path
           style="stroke:none;stroke-width:0"
           d="m 2.328125,-4.4375 c 0,-0.1875 0,-0.1875 -0.203125,-0.1875 -0.453125,0.4375 -1.078125,0.4375 -1.359375,0.4375 v 0.25 c 0.15625,0 0.625,0 1,-0.1875 v 3.546875 c 0,0.234375 0,0.328125 -0.6875,0.328125 H 0.8125 V 0 c 0.125,0 0.984375,-0.03125 1.234375,-0.03125 0.21875,0 1.09375,0.03125 1.25,0.03125 V -0.25 H 3.03125 c -0.703125,0 -0.703125,-0.09375 -0.703125,-0.328125 z m 0,0"
           id="id-15a89338-90e2-4b07-9b81-90829457068e" />
      </symbol>
    </g>
  </defs>
  <path
     style="fill:none;stroke:#000000;stroke-width:3.47093534;stroke-linecap:butt;stroke-linejoin:miter;stroke-miterlimit:4;stroke-dasharray:none;stroke-opacity:1"
     d="m 1634.0967,531.50876 526.7859,2.60325"
     id="path3522"
     inkscape:connector-curvature="0" />
  <g
     transform="translate(-135.96939,-0.02428749)"
     id="g5457">
    <path
       style="fill:none;stroke:#000000;stroke-width:3;stroke-linecap:butt;stroke-linejoin:miter;stroke-miterlimit:4;stroke-dasharray:none;stroke-opacity:1"
       d="m 1771.0345,531.28316 24.4862,-16.86829"
       id="path5451"
       inkscape:connector-curvature="0" />
    <path
       inkscape:connector-curvature="0"
       id="path5453"
       d="m 1771.0005,531.72528 24.4862,16.86829"
       style="fill:none;stroke:#000000;stroke-width:3;stroke-linecap:butt;stroke-linejoin:miter;stroke-miterlimit:4;stroke-dasharray:none;stroke-opacity:1" />
  </g>
  <g
     transform="rotate(180,1965.5235,532.80432)"
     id="g5463">
    <path
       inkscape:connector-curvature="0"
       id="path5459"
       d="m 1771.0345,531.28316 24.4862,-16.86829"
       style="fill:none;stroke:#000000;stroke-width:3;stroke-linecap:butt;stroke-linejoin:miter;stroke-miterlimit:4;stroke-dasharray:none;stroke-opacity:1" />
    <path
       style="fill:none;stroke:#000000;stroke-width:3;stroke-linecap:butt;stroke-linejoin:miter;stroke-miterlimit:4;stroke-dasharray:none;stroke-opacity:1"
       d="m 1771.0005,531.72528 24.4862,16.86829"
       id="path5461"
       inkscape:connector-curvature="0" />
  </g>
  <g
     id="g11"
     transform="matrix(1,0,0,0.78327466,-550.01397,123.17193)"
     style="stroke-width:1.12991">
    <path
       style="fill:none;stroke:#d91100;stroke-width:2.25982;stroke-linecap:butt;stroke-linejoin:miter;stroke-miterlimit:4;stroke-dasharray:none;stroke-dashoffset:0;stroke-opacity:1"
       d="M 2612.4806,521.89548 2480.8615,791.92315"
       id="path3976-9"
       inkscape:connector-curvature="0" />
    <path
       style="fill:none;stroke:#d91100;stroke-width:2.25982;stroke-linecap:butt;stroke-linejoin:miter;stroke-miterlimit:4;stroke-dasharray:none;stroke-dashoffset:0;stroke-opacity:1"
       d="m 2344.1307,522.487 137.58,269.06273"
       id="path3976-7"
       inkscape:connector-curvature="0" />
    <path
       inkscape:connector-curvature="0"
       id="path5521-3"
       d="m 2480.9617,313.20373 131.5079,208.69241"
       style="fill:none;stroke:#d91100;stroke-width:2.25982;stroke-linecap:butt;stroke-linejoin:miter;stroke-miterlimit:4;stroke-dasharray:none;stroke-dashoffset:0;stroke-opacity:1" />
    <path
       inkscape:connector-curvature="0"
       id="path5521-6"
       d="M 2477.2721,312.10658 2345.7642,520.79899"
       style="fill:none;stroke:#d91100;stroke-width:2.25982;stroke-linecap:butt;stroke-linejoin:miter;stroke-miterlimit:4;stroke-dasharray:none;stroke-dashoffset:0;stroke-opacity:1" />
    <path
       id="path15148-4-6"
       d="m 2553.3685,427.00216 -3.2266,-35.07254 -7.2846,18.53427 -19.8933,-1.26087"
       style="fill:#ed0000;fill-opacity:1;fill-rule:nonzero;stroke:none;stroke-width:1.50654;stroke-opacity:1"
       inkscape:connector-curvature="0" />
    <path
       id="path15148-4-6-5"
       d="m 2409.6445,420.32717 3.2266,-35.07254 7.2846,18.53427 19.8933,-1.26087"
       style="fill:#ed0000;fill-opacity:1;fill-rule:nonzero;stroke:none;stroke-width:1.50654;stroke-opacity:1"
       inkscape:connector-curvature="0" />
    <path
       id="path15148-4-6-5-2-19"
       d="m 2548.0713,652.94537 0.044,-35.22061 8.9296,17.8002 19.698,-3.0533"
       style="fill:#ed0000;fill-opacity:1;fill-rule:nonzero;stroke:none;stroke-width:1.50654;stroke-opacity:1"
       inkscape:connector-curvature="0"
       inkscape:transform-center-x="-29.238541"
       inkscape:transform-center-y="23.756572" />
    <path
       id="path15148-4-6-5-2-1"
       d="m 2411.5887,652.6101 -0.044,-35.22061 -8.9296,17.8002 -19.698,-3.0533"
       style="fill:#ed0000;fill-opacity:1;fill-rule:nonzero;stroke:none;stroke-width:1.50654;stroke-opacity:1"
       inkscape:connector-curvature="0"
       inkscape:transform-center-x="29.238558"
       inkscape:transform-center-y="23.756572" />
  </g>
  <path
     inkscape:connector-curvature="0"
     id="path5523"
     d="m 1637.362,740.42027 523.5201,2.60367"
     style="fill:none;stroke:#000000;stroke-width:3.46043825;stroke-linecap:butt;stroke-linejoin:miter;stroke-miterlimit:4;stroke-dasharray:none;stroke-opacity:1" />
  <g
     transform="matrix(0.3,0,0,0.3,1442.3085,417.11107)"
     id="g6055">
    <g
       style="font-style:normal;font-variant:normal;font-weight:normal;font-stretch:normal;letter-spacing:normal;word-spacing:normal;text-anchor:start;fill:none;fill-opacity:1;fill-rule:evenodd;stroke:#000000;stroke-linecap:butt;stroke-linejoin:miter;stroke-miterlimit:10.433;stroke-dasharray:none;stroke-dashoffset:0;stroke-opacity:1"
       id="g6053"
       transform="matrix(2.9352381,0,0,-2.9352381,-513.66668,2405)"
       xml:space="preserve"
       stroke-miterlimit="10.433"
       font-style="normal"
       font-variant="normal"
       font-weight="normal"
       font-stretch="normal"
       font-size-adjust="none"
       letter-spacing="normal"
       word-spacing="normal"><path
         style="fill:#000000;stroke-width:0"
         inkscape:connector-curvature="0"
         d="m 472.89,437.68 0.04,0.04 0.04,0.03 0.08,0.07 0.08,0.08 0.07,0.08 0.08,0.08 0.03,0.05 0.04,0.04 0.03,0.05 0.03,0.04 0.03,0.05 0.03,0.05 0.03,0.05 0.03,0.05 0.02,0.05 0.03,0.05 0.02,0.05 0.02,0.05 0.02,0.05 0.02,0.06 0.02,0.05 0.01,0.05 0.01,0.06 0.01,0.05 0.01,0.06 0.01,0.05 v 0.06 0.05 c 0,0.89 -0.89,1.8 -1.8,1.8 -0.75,0 -1.29,-0.55 -1.5,-0.86 l -5.97,-7.61 0.85,-0.9 z"
         id="path6041" /><path
         style="fill:#000000;stroke-width:0"
         inkscape:connector-curvature="0"
         d="m 461.17,417.71 0.04,1.05 c 0.3,7.42 4.49,8.66 6.19,8.66 5.13,0 5.63,-6.72 5.63,-8.66 h -11.82 l -0.04,-1.05 h 13.9 c 1.1,0 1.24,0 1.24,1.05 0,4.92 -2.69,9.75 -8.91,9.75 -5.78,0 -10.37,-5.12 -10.37,-11.36 0,-6.67 5.23,-11.5 10.97,-11.5 6.07,0 8.31,5.53 8.31,6.47 0,0.5 -0.39,0.61 -0.64,0.61 -0.46,0 -0.55,-0.3 -0.66,-0.7 -1.73,-5.13 -6.22,-5.13 -6.72,-5.13 -2.5,0 -4.48,1.49 -5.62,3.33 -1.5,2.39 -1.5,5.69 -1.5,7.48 z"
         id="path6043" /><path
         style="fill:#000000;stroke-width:0"
         inkscape:connector-curvature="0"
         d="m 483.54,417.06 0.01,0.38 v 0.36 l 0.02,0.36 0.02,0.35 0.03,0.34 0.03,0.34 0.03,0.32 0.04,0.32 0.05,0.31 0.05,0.3 0.06,0.29 0.06,0.29 0.13,0.55 0.15,0.51 0.17,0.49 0.18,0.46 0.2,0.43 0.21,0.4 0.22,0.38 0.23,0.35 0.24,0.32 0.25,0.3 0.26,0.28 0.26,0.26 0.27,0.23 0.28,0.21 0.27,0.19 0.29,0.16 0.28,0.15 0.28,0.13 0.28,0.12 0.29,0.09 0.27,0.08 0.28,0.06 0.27,0.05 0.27,0.03 0.26,0.02 0.25,0.01 c 0.43,0 3.58,-0.05 5.33,-1.85 -2.05,-0.15 -2.35,-1.64 -2.35,-2.29 0,-1.3 0.89,-2.3 2.3,-2.3 1.28,0 2.28,0.86 2.28,2.34 0,3.39 -3.78,5.33 -7.63,5.33 -6.21,0 -10.81,-5.37 -10.81,-11.55 0,-6.37 4.94,-11.31 10.72,-11.31 6.67,0 8.27,5.99 8.27,6.47 0,0.5 -0.5,0.5 -0.64,0.5 -0.46,0 -0.55,-0.19 -0.66,-0.5 -1.44,-4.62 -4.67,-5.22 -6.52,-5.22 -2.64,0 -7.03,2.14 -7.03,10.16 z"
         id="path6045" /><path
         style="fill:#000000;stroke-width:0"
         inkscape:connector-curvature="0"
         d="m 508.11,422.75 v 5.46 l -6.93,-0.54 v -1.55 c 3.49,0 3.89,-0.34 3.89,-2.78 v -13.36 c 0,-2.23 -0.54,-2.23 -3.89,-2.23 v -1.55 c 1.96,0.05 4.28,0.16 5.69,0.16 1.99,0 4.33,0 6.33,-0.16 v 1.55 h -1.05 c -3.69,0 -3.79,0.54 -3.79,2.34 v 7.67 c 0,4.92 2.09,9.36 5.89,9.36 0.34,0 0.43,0 0.54,-0.05 -0.15,-0.04 -1.15,-0.64 -1.15,-1.93 0,-1.41 1.04,-2.14 2.15,-2.14 0.89,0 2.14,0.59 2.14,2.18 0,1.6 -1.54,3.03 -3.68,3.03 -3.64,0 -5.44,-3.32 -6.14,-5.46 z"
         id="path6047" /><path
         style="fill:#000000;stroke-width:0"
         inkscape:connector-curvature="0"
         d="m 535.95,409.98 0.02,-0.19 0.03,-0.18 0.03,-0.19 0.04,-0.18 0.05,-0.19 0.06,-0.18 0.06,-0.18 0.07,-0.18 0.07,-0.18 0.09,-0.17 0.08,-0.18 0.1,-0.16 0.1,-0.16 0.1,-0.16 0.12,-0.16 0.12,-0.14 0.12,-0.14 0.14,-0.14 0.13,-0.13 0.15,-0.12 0.15,-0.12 0.16,-0.1 0.16,-0.1 0.17,-0.09 0.17,-0.08 0.18,-0.07 0.19,-0.06 0.19,-0.05 0.2,-0.04 0.21,-0.03 0.21,-0.02 0.22,-0.01 c 1.03,0 4.07,0.71 4.07,4.74 v 2.78 h -1.25 v -2.78 c 0,-2.89 -1.23,-3.19 -1.79,-3.19 -1.64,0 -1.85,2.23 -1.85,2.48 v 9.97 c 0,2.1 0,4.03 -1.78,5.88 -1.95,1.93 -4.44,2.73 -6.83,2.73 -4.09,0 -7.53,-2.33 -7.53,-5.62 0,-1.49 1,-2.35 2.3,-2.35 1.39,0 2.3,1 2.3,2.3 0,0.59 -0.25,2.23 -2.55,2.3 1.34,1.73 3.78,2.28 5.37,2.28 2.46,0 5.29,-1.94 5.29,-6.38 v -1.84 -1.05 -4.98 c 0,-4.74 -3.58,-6.42 -5.83,-6.42 -2.44,0 -4.49,1.75 -4.49,4.23 0,2.73 2.1,6.88 10.32,7.17 v 0 1.05 c -2.54,-0.14 -6.02,-0.3 -9.16,-1.8 -3.73,-1.69 -4.98,-4.28 -4.98,-6.47 0,-4.03 4.82,-5.28 7.96,-5.28 3.3,0 5.58,1.99 6.54,4.33 z"
         id="path6049" /><path
         style="fill:#000000;stroke-width:0"
         inkscape:connector-curvature="0"
         d="m 549.79,423.34 v -13.36 c 0,-2.23 -0.54,-2.23 -3.89,-2.23 v -1.55 c 1.75,0.05 4.28,0.16 5.63,0.16 1.29,0 3.89,-0.11 5.57,-0.16 v 1.55 c -3.32,0 -3.87,0 -3.87,2.23 v 9.17 c 0,5.19 3.53,7.97 6.72,7.97 3.14,0 3.69,-2.69 3.69,-5.53 v -11.61 c 0,-2.23 -0.55,-2.23 -3.89,-2.23 v -1.55 c 1.75,0.05 4.29,0.16 5.64,0.16 1.29,0 3.87,-0.11 5.58,-0.16 v 1.55 c -2.6,0 -3.85,0 -3.9,1.5 v 9.51 c 0,4.28 0,5.83 -1.54,7.61 -0.69,0.86 -2.35,1.84 -5.22,1.84 -3.64,0 -5.99,-2.14 -7.38,-5.21 v 5.21 l -7.03,-0.54 v -1.55 c 3.49,0 3.89,-0.34 3.89,-2.78 z"
         id="path6051" /></g>
  </g>
  <g
     id="g6227"
     transform="matrix(0.3,0,0,0.3,1668.927,419.59586)">
    <g
       word-spacing="normal"
       letter-spacing="normal"
       font-size-adjust="none"
       font-stretch="normal"
       font-weight="normal"
       font-variant="normal"
       font-style="normal"
       stroke-miterlimit="10.433"
       xml:space="preserve"
       transform="matrix(2.9352381,0,0,-2.9352381,-513.66668,2405)"
       id="g6225"
       style="font-style:normal;font-variant:normal;font-weight:normal;font-stretch:normal;letter-spacing:normal;word-spacing:normal;text-anchor:start;fill:none;fill-opacity:1;fill-rule:evenodd;stroke:#000000;stroke-linecap:butt;stroke-linejoin:miter;stroke-miterlimit:10.43299961;stroke-dasharray:none;stroke-dashoffset:0;stroke-opacity:1"><path
         id="path6223"
         d="m 466.83,421.95 -0.15,1.28 v 13.45 c 0,1.66 0.11,2 2.43,2 h 4.44 c 7.92,0 7.92,-5.28 7.92,-7.72 0,-2.34 0,-7.73 -7.92,-7.73 h -6.87 l 0.15,-1.28 h 8.42 c 5.97,0 11.36,4.03 11.36,9.01 0,4.88 -4.93,9.27 -11.76,9.27 h -17.58 v -1.55 h 1.19 c 3.84,0 3.93,-0.54 3.93,-2.34 v -26.25 c 0,-1.8 -0.09,-2.34 -3.93,-2.34 h -1.19 v -1.55 c 1.73,0.16 5.42,0.16 7.31,0.16 1.89,0 5.64,0 7.38,-0.16 v 1.55 h -1.19 c -3.84,0 -3.94,0.54 -3.94,2.34 z"
         inkscape:connector-curvature="0"
         style="fill:#000000;stroke-width:0" /></g>
  </g>
  <g
     transform="matrix(3.9311946,0,0,4.2394451,1691.6544,476.55366)"
     ns2:version="1.10.0"
     ns2:texconverter="pdflatex"
     ns2:pdfconverter="inkscape"
     ns2:text="$(\\mathcal{L}_2)$"
     ns2:preamble="/home/eb/.config/inkscape/extensions/textext/default_packages.tex"
     ns2:scale="0.8517226130881177"
     ns2:alignment="middle center"
     ns2:stroke-to-path="0"
     ns2:inkscapeversion="1.3.2"
     id="g8059"
     ns2:jacobian_sqrt="1.13563"
     style="stroke-width:0.278176">
    <defs
       id="id-556267b4-d0aa-49f9-b711-4c93977eb110">
      <g
         id="id-47f2d1d8-8247-4994-927d-08fa04c6c561">
        <symbol
           overflow="visible"
           id="id-4249585c-ee17-4af0-bdfa-8f7f4a55a5ae">
          <path
             style="stroke:none;stroke-width:0"
             d=""
             id="id-4d537302-7af3-44e2-9789-c4ddafbc729e" />
        </symbol>
        <symbol
           overflow="visible"
           id="id-8a4d30b0-99f3-4694-8771-583a114967bb">
          <path
             style="stroke:none;stroke-width:0"
             d="m 3.296875,2.390625 c 0,-0.03125 0,-0.046875 -0.171875,-0.21875 C 1.890625,0.921875 1.5625,-0.96875 1.5625,-2.5 c 0,-1.734375 0.375,-3.46875 1.609375,-4.703125 0.125,-0.125 0.125,-0.140625 0.125,-0.171875 0,-0.078125 -0.03125,-0.109375 -0.09375,-0.109375 -0.109375,0 -1,0.6875 -1.59375,1.953125 -0.5,1.09375 -0.625,2.203125 -0.625,3.03125 0,0.78125 0.109375,1.984375 0.65625,3.125 C 2.25,1.84375 3.09375,2.5 3.203125,2.5 c 0.0625,0 0.09375,-0.03125 0.09375,-0.109375 z m 0,0"
             id="id-96877f0b-e6e8-4149-bd89-95b72af0a717" />
        </symbol>
        <symbol
           overflow="visible"
           id="id-4011142c-1d8e-4559-abdf-f5dc35a8da94">
          <path
             style="stroke:none;stroke-width:0"
             d="m 2.875,-2.5 c 0,-0.765625 -0.109375,-1.96875 -0.65625,-3.109375 -0.59375,-1.21875 -1.453125,-1.875 -1.546875,-1.875 -0.0625,0 -0.109375,0.046875 -0.109375,0.109375 0,0.03125 0,0.046875 0.1875,0.234375 0.984375,0.984375 1.546875,2.5625 1.546875,4.640625 0,1.71875 -0.359375,3.46875 -1.59375,4.71875 C 0.5625,2.34375 0.5625,2.359375 0.5625,2.390625 0.5625,2.453125 0.609375,2.5 0.671875,2.5 0.765625,2.5 1.671875,1.8125 2.25,0.546875 2.765625,-0.546875 2.875,-1.65625 2.875,-2.5 Z m 0,0"
             id="id-371b996f-e0a8-4dad-b990-0aa32b0f33e8" />
        </symbol>
        <symbol
           overflow="visible"
           id="id-693143e3-93d8-4a10-b0ee-92c51903546e">
          <path
             style="stroke:none;stroke-width:0"
             d=""
             id="id-1b5689e8-c2a2-4939-8644-8cef6a434e04" />
        </symbol>
        <symbol
           overflow="visible"
           id="id-727aff7c-0810-4f68-a512-29f2dbd13298">
          <path
             style="stroke:none;stroke-width:0"
             d="M 1.796875,-0.921875 C 2.328125,-1.765625 2.5,-2.40625 2.625,-2.9375 2.984375,-4.3125 3.359375,-5.5 3.984375,-6.1875 4.09375,-6.3125 4.171875,-6.40625 4.5,-6.40625 c 0.6875,0 0.703125,0.6875 0.703125,0.828125 0,0.171875 -0.046875,0.3125 -0.046875,0.359375 0,0.078125 0.0625,0.078125 0.0625,0.078125 0.171875,0 0.4375,-0.109375 0.6875,-0.296875 0.171875,-0.140625 0.265625,-0.234375 0.265625,-0.640625 0,-0.546875 -0.28125,-0.953125 -0.84375,-0.953125 -0.3125,0 -1.1875,0.078125 -2.171875,1.0625 -0.796875,0.828125 -1.265625,2.625 -1.453125,3.359375 -0.171875,0.703125 -0.25,1 -0.5625,1.609375 -0.0625,0.109375 -0.328125,0.546875 -0.46875,0.6875 C 0.40625,-0.0625 0.3125,0.109375 0.3125,0.15625 c 0,0.015625 0.015625,0.0625 0.09375,0.0625 0.03125,0 0.234375,-0.046875 0.5,-0.203125 0.171875,-0.109375 0.1875,-0.125 0.421875,-0.359375 0.5,0 0.84375,0.09375 1.46875,0.28125 0.515625,0.125 1.015625,0.28125 1.53125,0.28125 0.8125,0 1.625,-0.609375 1.9375,-1.046875 C 6.46875,-1.09375 6.53125,-1.34375 6.53125,-1.375 c 0,-0.078125 -0.0625,-0.078125 -0.078125,-0.078125 -0.15625,0 -0.390625,0.125 -0.5625,0.234375 C 5.625,-1.046875 5.609375,-0.984375 5.546875,-0.8125 5.5,-0.65625 5.4375,-0.578125 5.390625,-0.515625 5.3125,-0.40625 5.296875,-0.40625 5.15625,-0.40625 4.671875,-0.40625 4.171875,-0.546875 3.515625,-0.734375 3.234375,-0.8125 2.6875,-0.96875 2.1875,-0.96875 c -0.125,0 -0.265625,0.015625 -0.390625,0.046875 z m 0,0"
             id="id-9700b411-3afb-4870-bfc3-c186794e6de3" />
        </symbol>
        <symbol
           overflow="visible"
           id="id-46fb7c7c-c6d8-478b-afb2-e86c90c5d513">
          <path
             style="stroke:none;stroke-width:0"
             d=""
             id="id-6c7822fe-e398-4ff7-806c-6b2a4fee935e" />
        </symbol>
        <symbol
           overflow="visible"
           id="id-1dc28943-b099-4969-a06d-cd4fae868093">
          <path
             style="stroke:none;stroke-width:0"
             d="M 3.515625,-1.265625 H 3.28125 c -0.015625,0.15625 -0.09375,0.5625 -0.1875,0.625 C 3.046875,-0.59375 2.515625,-0.59375 2.40625,-0.59375 H 1.125 c 0.734375,-0.640625 0.984375,-0.84375 1.390625,-1.171875 0.515625,-0.40625 1,-0.84375 1,-1.5 0,-0.84375 -0.734375,-1.359375 -1.625,-1.359375 -0.859375,0 -1.453125,0.609375 -1.453125,1.25 0,0.34375 0.296875,0.390625 0.375,0.390625 0.15625,0 0.359375,-0.125 0.359375,-0.375 0,-0.125 -0.046875,-0.375 -0.40625,-0.375 C 0.984375,-4.21875 1.453125,-4.375 1.78125,-4.375 c 0.703125,0 1.0625,0.546875 1.0625,1.109375 0,0.609375 -0.4375,1.078125 -0.65625,1.328125 L 0.515625,-0.265625 C 0.4375,-0.203125 0.4375,-0.1875 0.4375,0 h 2.875 z m 0,0"
             id="id-bf0abb59-91af-4e17-aac6-92e60d889ee5" />
        </symbol>
      </g>
    </defs>
    <g
       id="id-a237ae60-3eab-4d62-a06a-980400502c09"
       transform="translate(-149.696,-127.281)"
       style="stroke-width:0.278176">
      <g
         style="fill:#000000;fill-opacity:1;stroke-width:0.278176"
         id="id-b4d052af-3389-4d28-bc3d-4492a3ed8d48">
        <g
           transform="translate(148.712,134.765)"
           id="g1025"
           style="stroke-width:0.278176">
          <path
             style="stroke:none;stroke-width:0"
             d="m 3.296875,2.390625 c 0,-0.03125 0,-0.046875 -0.171875,-0.21875 C 1.890625,0.921875 1.5625,-0.96875 1.5625,-2.5 c 0,-1.734375 0.375,-3.46875 1.609375,-4.703125 0.125,-0.125 0.125,-0.140625 0.125,-0.171875 0,-0.078125 -0.03125,-0.109375 -0.09375,-0.109375 -0.109375,0 -1,0.6875 -1.59375,1.953125 -0.5,1.09375 -0.625,2.203125 -0.625,3.03125 0,0.78125 0.109375,1.984375 0.65625,3.125 C 2.25,1.84375 3.09375,2.5 3.203125,2.5 c 0.0625,0 0.09375,-0.03125 0.09375,-0.109375 z m 0,0"
             id="id-ae99790f-f490-4619-a9b2-355c0f28b7bc" />
        </g>
      </g>
      <g
         style="fill:#000000;fill-opacity:1;stroke-width:0.278176"
         id="id-8be54a08-5d03-4669-851e-ac4244e3d77e">
        <g
           transform="translate(152.587,134.765)"
           id="g288"
           style="stroke-width:0.278176">
          <path
             style="stroke:none;stroke-width:0"
             d="M 1.796875,-0.921875 C 2.328125,-1.765625 2.5,-2.40625 2.625,-2.9375 2.984375,-4.3125 3.359375,-5.5 3.984375,-6.1875 4.09375,-6.3125 4.171875,-6.40625 4.5,-6.40625 c 0.6875,0 0.703125,0.6875 0.703125,0.828125 0,0.171875 -0.046875,0.3125 -0.046875,0.359375 0,0.078125 0.0625,0.078125 0.0625,0.078125 0.171875,0 0.4375,-0.109375 0.6875,-0.296875 0.171875,-0.140625 0.265625,-0.234375 0.265625,-0.640625 0,-0.546875 -0.28125,-0.953125 -0.84375,-0.953125 -0.3125,0 -1.1875,0.078125 -2.171875,1.0625 -0.796875,0.828125 -1.265625,2.625 -1.453125,3.359375 -0.171875,0.703125 -0.25,1 -0.5625,1.609375 -0.0625,0.109375 -0.328125,0.546875 -0.46875,0.6875 C 0.40625,-0.0625 0.3125,0.109375 0.3125,0.15625 c 0,0.015625 0.015625,0.0625 0.09375,0.0625 0.03125,0 0.234375,-0.046875 0.5,-0.203125 0.171875,-0.109375 0.1875,-0.125 0.421875,-0.359375 0.5,0 0.84375,0.09375 1.46875,0.28125 0.515625,0.125 1.015625,0.28125 1.53125,0.28125 0.8125,0 1.625,-0.609375 1.9375,-1.046875 C 6.46875,-1.09375 6.53125,-1.34375 6.53125,-1.375 c 0,-0.078125 -0.0625,-0.078125 -0.078125,-0.078125 -0.15625,0 -0.390625,0.125 -0.5625,0.234375 C 5.625,-1.046875 5.609375,-0.984375 5.546875,-0.8125 5.5,-0.65625 5.4375,-0.578125 5.390625,-0.515625 5.3125,-0.40625 5.296875,-0.40625 5.15625,-0.40625 4.671875,-0.40625 4.171875,-0.546875 3.515625,-0.734375 3.234375,-0.8125 2.6875,-0.96875 2.1875,-0.96875 c -0.125,0 -0.265625,0.015625 -0.390625,0.046875 z m 0,0"
             id="id-9d81275e-d527-4ce3-8c81-938881b75880" />
        </g>
      </g>
      <g
         style="fill:#000000;fill-opacity:1;stroke-width:0.278176"
         id="id-df562ae2-1a00-4331-a5c1-7675e05dcf44">
        <g
           transform="translate(159.458,136.259)"
           id="g1445"
           style="stroke-width:0.278176">
          <path
             style="stroke:none;stroke-width:0"
             d="M 3.515625,-1.265625 H 3.28125 c -0.015625,0.15625 -0.09375,0.5625 -0.1875,0.625 C 3.046875,-0.59375 2.515625,-0.59375 2.40625,-0.59375 H 1.125 c 0.734375,-0.640625 0.984375,-0.84375 1.390625,-1.171875 0.515625,-0.40625 1,-0.84375 1,-1.5 0,-0.84375 -0.734375,-1.359375 -1.625,-1.359375 -0.859375,0 -1.453125,0.609375 -1.453125,1.25 0,0.34375 0.296875,0.390625 0.375,0.390625 0.15625,0 0.359375,-0.125 0.359375,-0.375 0,-0.125 -0.046875,-0.375 -0.40625,-0.375 C 0.984375,-4.21875 1.453125,-4.375 1.78125,-4.375 c 0.703125,0 1.0625,0.546875 1.0625,1.109375 0,0.609375 -0.4375,1.078125 -0.65625,1.328125 L 0.515625,-0.265625 C 0.4375,-0.203125 0.4375,-0.1875 0.4375,0 h 2.875 z m 0,0"
             id="id-0ea4ed97-ab6e-4932-be6e-fe91cea2230d" />
        </g>
      </g>
      <g
         style="fill:#000000;fill-opacity:1;stroke-width:0.278176"
         id="id-5c2264f3-59e6-4f9a-b3fc-d9dd77f87e44">
        <g
           transform="translate(163.928,134.765)"
           id="g4439"
           style="stroke-width:0.278176">
          <path
             style="stroke:none;stroke-width:0"
             d="m 2.875,-2.5 c 0,-0.765625 -0.109375,-1.96875 -0.65625,-3.109375 -0.59375,-1.21875 -1.453125,-1.875 -1.546875,-1.875 -0.0625,0 -0.109375,0.046875 -0.109375,0.109375 0,0.03125 0,0.046875 0.1875,0.234375 0.984375,0.984375 1.546875,2.5625 1.546875,4.640625 0,1.71875 -0.359375,3.46875 -1.59375,4.71875 C 0.5625,2.34375 0.5625,2.359375 0.5625,2.390625 0.5625,2.453125 0.609375,2.5 0.671875,2.5 0.765625,2.5 1.671875,1.8125 2.25,0.546875 2.765625,-0.546875 2.875,-1.65625 2.875,-2.5 Z m 0,0"
             id="id-2d6ea81f-73c1-4d27-bc83-de34d0dcd8ab" />
        </g>
      </g>
    </g>
  </g>
  <path
     style="fill:none;stroke:#000000;stroke-width:5;stroke-linecap:butt;stroke-linejoin:miter;stroke-miterlimit:4;stroke-dasharray:none;stroke-opacity:1"
     d="m 1773.3846,367.40219 316.7785,2.7597"
     id="path926"
     inkscape:connector-curvature="0" />
  <g
     transform="matrix(4.2769574,0,0,4.2769574,1884.5769,312.90623)"
     ns2:version="1.10.0"
     ns2:texconverter="pdflatex"
     ns2:pdfconverter="inkscape"
     ns2:text="$(\\mathcal{M}_1)$"
     ns2:preamble="/home/eb/.config/inkscape/extensions/textext/default_packages.tex"
     ns2:scale="0.8517226130881177"
     ns2:alignment="middle center"
     ns2:stroke-to-path="0"
     ns2:inkscapeversion="1.3.2"
     id="g2602"
     ns2:jacobian_sqrt="1.13563"
     style="stroke-width:0.265523">
    <defs
       id="id-0174dab3-eed1-4555-b02d-4a10d124b346">
      <g
         id="g18">
        <symbol
           overflow="visible"
           id="symbol12">
          <path
             style="stroke:none;stroke-width:0"
             d=""
             id="path12" />
        </symbol>
        <symbol
           overflow="visible"
           id="symbol13">
          <path
             style="stroke:none;stroke-width:0"
             d="m 3.296875,2.390625 c 0,-0.03125 0,-0.046875 -0.171875,-0.21875 C 1.890625,0.921875 1.5625,-0.96875 1.5625,-2.5 c 0,-1.734375 0.375,-3.46875 1.609375,-4.703125 0.125,-0.125 0.125,-0.140625 0.125,-0.171875 0,-0.078125 -0.03125,-0.109375 -0.09375,-0.109375 -0.109375,0 -1,0.6875 -1.59375,1.953125 -0.5,1.09375 -0.625,2.203125 -0.625,3.03125 0,0.78125 0.109375,1.984375 0.65625,3.125 C 2.25,1.84375 3.09375,2.5 3.203125,2.5 c 0.0625,0 0.09375,-0.03125 0.09375,-0.109375 z m 0,0"
             id="path13" />
        </symbol>
        <symbol
           overflow="visible"
           id="symbol14">
          <path
             style="stroke:none;stroke-width:0"
             d="m 2.875,-2.5 c 0,-0.765625 -0.109375,-1.96875 -0.65625,-3.109375 -0.59375,-1.21875 -1.453125,-1.875 -1.546875,-1.875 -0.0625,0 -0.109375,0.046875 -0.109375,0.109375 0,0.03125 0,0.046875 0.1875,0.234375 0.984375,0.984375 1.546875,2.5625 1.546875,4.640625 0,1.71875 -0.359375,3.46875 -1.59375,4.71875 C 0.5625,2.34375 0.5625,2.359375 0.5625,2.390625 0.5625,2.453125 0.609375,2.5 0.671875,2.5 0.765625,2.5 1.671875,1.8125 2.25,0.546875 2.765625,-0.546875 2.875,-1.65625 2.875,-2.5 Z m 0,0"
             id="path14" />
        </symbol>
        <symbol
           overflow="visible"
           id="symbol15">
          <path
             style="stroke:none;stroke-width:0"
             d=""
             id="path15" />
        </symbol>
        <symbol
           overflow="visible"
           id="symbol16">
          <path
             style="stroke:none;stroke-width:0"
             d="m 3.84375,-5.578125 c 0.265625,1.296875 0.703125,3.4375 1.265625,4.59375 0.21875,0.421875 0.328125,0.640625 0.4375,0.640625 0.03125,0 0.0625,0 0.234375,-0.171875 C 6.546875,-1.25 7.0625,-1.828125 7.75,-2.625 l 2.1875,-2.53125 c -0.140625,0.84375 -0.5,3.078125 -0.5,4.25 0,0.265625 0.015625,0.53125 0.046875,0.796875 0,0.109375 0.046875,0.40625 0.46875,0.40625 0.421875,0 1.171875,-0.453125 1.171875,-0.640625 0,-0.0625 -0.0625,-0.078125 -0.09375,-0.078125 -0.125,0 -0.328125,0.09375 -0.4375,0.15625 -0.234375,-0.03125 -0.25,-0.1875 -0.28125,-0.40625 -0.03125,-0.328125 -0.03125,-0.625 -0.03125,-0.65625 0,-1.109375 0.4375,-4.140625 0.734375,-5.375 0.01563,-0.0625 0.01563,-0.078125 0.01563,-0.171875 0,-0.03125 0,-0.140625 -0.07813,-0.140625 -0.03125,0 -0.04687,0 -0.234375,0.234375 -0.9375,1.125 -3.84375,4.625 -4.84375,5.453125 C 5.625,-1.859375 5.453125,-2.234375 5.109375,-3.625 4.8125,-4.75 4.640625,-5.578125 4.46875,-6.546875 4.453125,-6.6875 4.390625,-6.953125 4.390625,-6.984375 4.359375,-7.03125 4.3125,-7.03125 4.28125,-7.03125 c -0.171875,0 -0.59375,0.21875 -0.625,0.4375 -0.125,0.828125 -0.3125,2.140625 -1.015625,4.046875 -0.796875,2.125 -1.015625,2.125 -1.203125,2.125 -0.125,0 -0.5,-0.078125 -0.71875,-0.28125 C 0.671875,-0.75 0.640625,-0.75 0.625,-0.75 c -0.140625,0 -0.359375,0.453125 -0.359375,0.734375 0,0.078125 0,0.203125 0.328125,0.375 C 0.84375,0.484375 1.078125,0.5 1.125,0.5 1.75,0.5 2.328125,-0.921875 2.53125,-1.4375 3,-2.5625 3.5625,-4.140625 3.84375,-5.578125 Z m 0,0"
             id="path16" />
        </symbol>
        <symbol
           overflow="visible"
           id="symbol17">
          <path
             style="stroke:none;stroke-width:0"
             d=""
             id="path17" />
        </symbol>
        <symbol
           overflow="visible"
           id="symbol18">
          <path
             style="stroke:none;stroke-width:0"
             d="m 2.328125,-4.4375 c 0,-0.1875 0,-0.1875 -0.203125,-0.1875 -0.453125,0.4375 -1.078125,0.4375 -1.359375,0.4375 v 0.25 c 0.15625,0 0.625,0 1,-0.1875 v 3.546875 c 0,0.234375 0,0.328125 -0.6875,0.328125 H 0.8125 V 0 c 0.125,0 0.984375,-0.03125 1.234375,-0.03125 0.21875,0 1.09375,0.03125 1.25,0.03125 V -0.25 H 3.03125 c -0.703125,0 -0.703125,-0.09375 -0.703125,-0.328125 z m 0,0"
             id="path18" />
        </symbol>
      </g>
    </defs>
    <g
       id="id-5477c274-aa53-4e3e-833d-d889cb31d899"
       transform="translate(-149.696,-127.281)"
       style="stroke-width:0.265523">
      <g
         style="fill:#000000;fill-opacity:1;stroke-width:0.265523"
         id="id-04525115-7a37-492f-a899-68306449b3a0">
        <g
           transform="translate(148.712,134.765)"
           id="g2028"
           style="stroke-width:0.265523">
          <path
             style="stroke:none;stroke-width:0"
             d="m 3.296875,2.390625 c 0,-0.03125 0,-0.046875 -0.171875,-0.21875 C 1.890625,0.921875 1.5625,-0.96875 1.5625,-2.5 c 0,-1.734375 0.375,-3.46875 1.609375,-4.703125 0.125,-0.125 0.125,-0.140625 0.125,-0.171875 0,-0.078125 -0.03125,-0.109375 -0.09375,-0.109375 -0.109375,0 -1,0.6875 -1.59375,1.953125 -0.5,1.09375 -0.625,2.203125 -0.625,3.03125 0,0.78125 0.109375,1.984375 0.65625,3.125 C 2.25,1.84375 3.09375,2.5 3.203125,2.5 c 0.0625,0 0.09375,-0.03125 0.09375,-0.109375 z m 0,0"
             id="id-6d72f978-2ac9-40d8-96f5-f88b7f909696" />
        </g>
      </g>
      <g
         style="fill:#000000;fill-opacity:1;stroke-width:0.265523"
         id="id-2dabc375-049f-4b66-be4a-751a0b5c0382">
        <g
           transform="translate(152.587,134.765)"
           id="g3584"
           style="stroke-width:0.265523">
          <path
             style="stroke:none;stroke-width:0"
             d="m 3.84375,-5.578125 c 0.265625,1.296875 0.703125,3.4375 1.265625,4.59375 0.21875,0.421875 0.328125,0.640625 0.4375,0.640625 0.03125,0 0.0625,0 0.234375,-0.171875 C 6.546875,-1.25 7.0625,-1.828125 7.75,-2.625 l 2.1875,-2.53125 c -0.140625,0.84375 -0.5,3.078125 -0.5,4.25 0,0.265625 0.015625,0.53125 0.046875,0.796875 0,0.109375 0.046875,0.40625 0.46875,0.40625 0.421875,0 1.171875,-0.453125 1.171875,-0.640625 0,-0.0625 -0.0625,-0.078125 -0.09375,-0.078125 -0.125,0 -0.328125,0.09375 -0.4375,0.15625 -0.234375,-0.03125 -0.25,-0.1875 -0.28125,-0.40625 -0.03125,-0.328125 -0.03125,-0.625 -0.03125,-0.65625 0,-1.109375 0.4375,-4.140625 0.734375,-5.375 0.01563,-0.0625 0.01563,-0.078125 0.01563,-0.171875 0,-0.03125 0,-0.140625 -0.07813,-0.140625 -0.03125,0 -0.04687,0 -0.234375,0.234375 -0.9375,1.125 -3.84375,4.625 -4.84375,5.453125 C 5.625,-1.859375 5.453125,-2.234375 5.109375,-3.625 4.8125,-4.75 4.640625,-5.578125 4.46875,-6.546875 4.453125,-6.6875 4.390625,-6.953125 4.390625,-6.984375 4.359375,-7.03125 4.3125,-7.03125 4.28125,-7.03125 c -0.171875,0 -0.59375,0.21875 -0.625,0.4375 -0.125,0.828125 -0.3125,2.140625 -1.015625,4.046875 -0.796875,2.125 -1.015625,2.125 -1.203125,2.125 -0.125,0 -0.5,-0.078125 -0.71875,-0.28125 C 0.671875,-0.75 0.640625,-0.75 0.625,-0.75 c -0.140625,0 -0.359375,0.453125 -0.359375,0.734375 0,0.078125 0,0.203125 0.328125,0.375 C 0.84375,0.484375 1.078125,0.5 1.125,0.5 1.75,0.5 2.328125,-0.921875 2.53125,-1.4375 3,-2.5625 3.5625,-4.140625 3.84375,-5.578125 Z m 0,0"
             id="id-2d61d0f3-f73f-4e57-a54b-60e92a135251" />
        </g>
      </g>
      <g
         style="fill:#000000;fill-opacity:1;stroke-width:0.265523"
         id="id-accca598-851b-48d8-867a-34c7d03fd5a9">
        <g
           transform="translate(164.551,136.259)"
           id="g712"
           style="stroke-width:0.265523">
          <path
             style="stroke:none;stroke-width:0"
             d="m 2.328125,-4.4375 c 0,-0.1875 0,-0.1875 -0.203125,-0.1875 -0.453125,0.4375 -1.078125,0.4375 -1.359375,0.4375 v 0.25 c 0.15625,0 0.625,0 1,-0.1875 v 3.546875 c 0,0.234375 0,0.328125 -0.6875,0.328125 H 0.8125 V 0 c 0.125,0 0.984375,-0.03125 1.234375,-0.03125 0.21875,0 1.09375,0.03125 1.25,0.03125 V -0.25 H 3.03125 c -0.703125,0 -0.703125,-0.09375 -0.703125,-0.328125 z m 0,0"
             id="id-8af3dd7e-3cda-4d79-a4d4-6fdb71dc41f4" />
        </g>
      </g>
      <g
         style="fill:#000000;fill-opacity:1;stroke-width:0.265523"
         id="id-4e20ac2f-0f1c-488e-b4c4-03a89dc6e30e">
        <g
           transform="translate(169.02,134.765)"
           id="g3476"
           style="stroke-width:0.265523">
          <path
             style="stroke:none;stroke-width:0"
             d="m 2.875,-2.5 c 0,-0.765625 -0.109375,-1.96875 -0.65625,-3.109375 -0.59375,-1.21875 -1.453125,-1.875 -1.546875,-1.875 -0.0625,0 -0.109375,0.046875 -0.109375,0.109375 0,0.03125 0,0.046875 0.1875,0.234375 0.984375,0.984375 1.546875,2.5625 1.546875,4.640625 0,1.71875 -0.359375,3.46875 -1.59375,4.71875 C 0.5625,2.34375 0.5625,2.359375 0.5625,2.390625 0.5625,2.453125 0.609375,2.5 0.671875,2.5 0.765625,2.5 1.671875,1.8125 2.25,0.546875 2.765625,-0.546875 2.875,-1.65625 2.875,-2.5 Z m 0,0"
             id="id-3f607859-97e4-4ca0-8fa7-5962bf31e9d4" />
        </g>
      </g>
    </g>
  </g>
</svg>
