<?xml version="1.0" encoding="UTF-8" standalone="no"?>
<!-- Created with Inkscape (http://www.inkscape.org/) -->

<svg
   version="1.1"
   id="svg2"
   width="3206.6667"
   height="2054.6667"
   viewBox="0 0 3206.6667 2054.6667"
   sodipodi:docname="coin_air_source.svg"
   inkscape:version="1.3.2 (1:1.3.2+202311252150+091e20ef0f)"
   inkscape:export-filename="coin_air_source.pdf"
   inkscape:export-xdpi="96"
   inkscape:export-ydpi="96"
   xmlns:inkscape="http://www.inkscape.org/namespaces/inkscape"
   xmlns:sodipodi="http://sodipodi.sourceforge.net/DTD/sodipodi-0.dtd"
   xmlns="http://www.w3.org/2000/svg"
   xmlns:svg="http://www.w3.org/2000/svg"
   xmlns:rdf="http://www.w3.org/1999/02/22-rdf-syntax-ns#"
   xmlns:cc="http://creativecommons.org/ns#"
   xmlns:dc="http://purl.org/dc/elements/1.1/"
   xmlns:ns2="http://www.iki.fi/pav/software/textext/">
  <sodipodi:namedview
     pagecolor="#ffffff"
     bordercolor="#666666"
     borderopacity="1"
     objecttolerance="10"
     gridtolerance="10"
     guidetolerance="10"
     inkscape:pageopacity="0"
     inkscape:pageshadow="2"
     inkscape:window-width="3440"
     inkscape:window-height="1364"
     id="namedview4"
     showgrid="false"
     inkscape:zoom="0.9188838"
     inkscape:cx="1563.8539"
     inkscape:cy="658.95165"
     inkscape:window-x="0"
     inkscape:window-y="0"
     inkscape:window-maximized="1"
     inkscape:current-layer="svg2"
     inkscape:snap-global="false"
     inkscape:showpageshadow="0"
     inkscape:pagecheckerboard="0"
     inkscape:deskcolor="#d1d1d1" />
  <metadata
     id="metadata8">
    <rdf:RDF>
      <cc:Work
         rdf:about="">
        <dc:format>image/svg+xml</dc:format>
        <dc:type
           rdf:resource="http://purl.org/dc/dcmitype/StillImage" />
        <dc:title />
      </cc:Work>
    </rdf:RDF>
  </metadata>
  <defs
     id="defs6">
    <marker
       inkscape:isstock="true"
       style="overflow:visible;"
       id="marker5571"
       refX="0.0"
       refY="0.0"
       orient="auto"
       inkscape:stockid="Arrow1Lend">
      <path
         transform="scale(0.8) rotate(180) translate(12.5,0)"
         style="fill-rule:evenodd;stroke:#000000;stroke-width:1pt;stroke-opacity:1;fill:#000000;fill-opacity:1"
         d="M 0.0,0.0 L 5.0,-5.0 L -12.5,0.0 L 5.0,5.0 L 0.0,0.0 z "
         id="path5569" />
    </marker>
    <marker
       inkscape:isstock="true"
       style="overflow:visible"
       id="marker5543"
       refX="0.0"
       refY="0.0"
       orient="auto"
       inkscape:stockid="Arrow1Lstart">
      <path
         transform="scale(0.8) translate(12.5,0)"
         style="fill-rule:evenodd;stroke:#000000;stroke-width:1pt;stroke-opacity:1;fill:#000000;fill-opacity:1"
         d="M 0.0,0.0 L 5.0,-5.0 L -12.5,0.0 L 5.0,5.0 L 0.0,0.0 z "
         id="path5541" />
    </marker>
    <marker
       inkscape:isstock="true"
       style="overflow:visible"
       id="Arrow2Sstart"
       refX="0.0"
       refY="0.0"
       orient="auto"
       inkscape:stockid="Arrow2Sstart">
      <path
         transform="scale(0.3) translate(-2.3,0)"
         d="M 8.7185878,4.0337352 L -2.2072895,0.016013256 L 8.7185884,-4.0017078 C 6.9730900,-1.6296469 6.9831476,1.6157441 8.7185878,4.0337352 z "
         style="fill-rule:evenodd;stroke-width:0.625;stroke-linejoin:round;stroke:#000000;stroke-opacity:1;fill:#000000;fill-opacity:1"
         id="path4028" />
    </marker>
    <marker
       inkscape:isstock="true"
       style="overflow:visible;"
       id="Arrow2Lend"
       refX="0.0"
       refY="0.0"
       orient="auto"
       inkscape:stockid="Arrow2Lend">
      <path
         transform="scale(1.1) rotate(180) translate(1,0)"
         d="M 8.7185878,4.0337352 L -2.2072895,0.016013256 L 8.7185884,-4.0017078 C 6.9730900,-1.6296469 6.9831476,1.6157441 8.7185878,4.0337352 z "
         style="fill-rule:evenodd;stroke-width:0.625;stroke-linejoin:round;stroke:#000000;stroke-opacity:1;fill:#000000;fill-opacity:1"
         id="path4019" />
    </marker>
    <marker
       inkscape:isstock="true"
       style="overflow:visible"
       id="Arrow2Lstart"
       refX="0.0"
       refY="0.0"
       orient="auto"
       inkscape:stockid="Arrow2Lstart">
      <path
         transform="scale(1.1) translate(1,0)"
         d="M 8.7185878,4.0337352 L -2.2072895,0.016013256 L 8.7185884,-4.0017078 C 6.9730900,-1.6296469 6.9831476,1.6157441 8.7185878,4.0337352 z "
         style="fill-rule:evenodd;stroke-width:0.625;stroke-linejoin:round;stroke:#000000;stroke-opacity:1;fill:#000000;fill-opacity:1"
         id="path4016" />
    </marker>
    <marker
       inkscape:isstock="true"
       style="overflow:visible;"
       id="Arrow1Lend"
       refX="0.0"
       refY="0.0"
       orient="auto"
       inkscape:stockid="Arrow1Lend">
      <path
         transform="scale(0.8) rotate(180) translate(12.5,0)"
         style="fill-rule:evenodd;stroke:#000000;stroke-width:1pt;stroke-opacity:1;fill:#000000;fill-opacity:1"
         d="M 0.0,0.0 L 5.0,-5.0 L -12.5,0.0 L 5.0,5.0 L 0.0,0.0 z "
         id="path4001" />
    </marker>
    <marker
       inkscape:isstock="true"
       style="overflow:visible"
       id="Arrow1Lstart"
       refX="0.0"
       refY="0.0"
       orient="auto"
       inkscape:stockid="Arrow1Lstart">
      <path
         transform="scale(0.8) translate(12.5,0)"
         style="fill-rule:evenodd;stroke:#000000;stroke-width:1pt;stroke-opacity:1;fill:#000000;fill-opacity:1"
         d="M 0.0,0.0 L 5.0,-5.0 L -12.5,0.0 L 5.0,5.0 L 0.0,0.0 z "
         id="path3998" />
    </marker>
    <marker
       inkscape:isstock="true"
       style="overflow:visible"
       id="marker5543-8"
       refX="0"
       refY="0"
       orient="auto"
       inkscape:stockid="Arrow1Lstart">
      <path
         transform="matrix(0.8,0,0,0.8,10,0)"
         style="fill:#000000;fill-opacity:1;fill-rule:evenodd;stroke:#000000;stroke-width:1pt;stroke-opacity:1"
         d="M 0,0 5,-5 -12.5,0 5,5 Z"
         id="path5541-9" />
    </marker>
    <marker
       inkscape:isstock="true"
       style="overflow:visible"
       id="marker5571-7"
       refX="0"
       refY="0"
       orient="auto"
       inkscape:stockid="Arrow1Lend">
      <path
         transform="matrix(-0.8,0,0,-0.8,-10,0)"
         style="fill:#000000;fill-opacity:1;fill-rule:evenodd;stroke:#000000;stroke-width:1pt;stroke-opacity:1"
         d="M 0,0 5,-5 -12.5,0 5,5 Z"
         id="path5569-3" />
    </marker>
  </defs>
  <path
     style="fill:none;stroke:#d91100;stroke-width:2;stroke-linecap:butt;stroke-linejoin:miter;stroke-miterlimit:4;stroke-dasharray:none;stroke-dashoffset:0;stroke-opacity:1"
     d="m 2060.8487,532.20264 -0.8576,-270.02767"
     id="path3976"
     inkscape:connector-curvature="0" />
  <path
     style="fill:none;stroke:#d91100;stroke-width:2;stroke-linecap:butt;stroke-linejoin:miter;stroke-miterlimit:4;stroke-dasharray:none;stroke-dashoffset:0;stroke-opacity:1"
     d="m 1791.9749,531.61112 -0.3175,-269.06273"
     id="path3976-7"
     inkscape:connector-curvature="0" />
  <g
     id="g1"
     transform="translate(14)">
    <path
       style="fill:none;stroke:#000000;stroke-width:3.47094;stroke-linecap:butt;stroke-linejoin:miter;stroke-miterlimit:4;stroke-dasharray:none;stroke-opacity:1"
       d="m 1634.0967,531.50876 526.7859,2.60325"
       id="path3522"
       inkscape:connector-curvature="0" />
    <g
       transform="translate(-135.96939,-0.02428749)"
       id="g5457">
      <path
         style="fill:none;stroke:#000000;stroke-width:3;stroke-linecap:butt;stroke-linejoin:miter;stroke-miterlimit:4;stroke-dasharray:none;stroke-opacity:1"
         d="m 1771.0345,531.28316 24.4862,-16.86829"
         id="path5451"
         inkscape:connector-curvature="0" />
      <path
         inkscape:connector-curvature="0"
         id="path5453"
         d="m 1771.0005,531.72528 24.4862,16.86829"
         style="fill:none;stroke:#000000;stroke-width:3;stroke-linecap:butt;stroke-linejoin:miter;stroke-miterlimit:4;stroke-dasharray:none;stroke-opacity:1" />
    </g>
    <g
       transform="rotate(180,1965.5235,532.80432)"
       id="g5463">
      <path
         inkscape:connector-curvature="0"
         id="path5459"
         d="m 1771.0345,531.28316 24.4862,-16.86829"
         style="fill:none;stroke:#000000;stroke-width:3;stroke-linecap:butt;stroke-linejoin:miter;stroke-miterlimit:4;stroke-dasharray:none;stroke-opacity:1" />
      <path
         style="fill:none;stroke:#000000;stroke-width:3;stroke-linecap:butt;stroke-linejoin:miter;stroke-miterlimit:4;stroke-dasharray:none;stroke-opacity:1"
         d="m 1771.0005,531.72528 24.4862,16.86829"
         id="path5461"
         inkscape:connector-curvature="0" />
    </g>
  </g>
  <path
     inkscape:connector-curvature="0"
     id="path5521"
     d="M 1929.0602,740.89439 2060.5681,532.20198"
     style="fill:none;stroke:#d91100;stroke-width:2;stroke-linecap:butt;stroke-linejoin:miter;stroke-miterlimit:4;stroke-dasharray:none;stroke-dashoffset:0;stroke-opacity:1" />
  <path
     inkscape:connector-curvature="0"
     id="path5521-6"
     d="M 1925.3706,741.99154 1793.8627,533.29913"
     style="fill:none;stroke:#d91100;stroke-width:2;stroke-linecap:butt;stroke-linejoin:miter;stroke-miterlimit:4;stroke-dasharray:none;stroke-dashoffset:0;stroke-opacity:1" />
  <g
     id="g1020"
     transform="matrix(0.1,0,0,0.1,1592.3699,464.54042)">
    <g
       id="content-3"
       transform="matrix(11.428571,0,0,-11.428571,-2000,8000.0002)"
       xml:space="preserve"
       stroke-miterlimit="10.433"
       font-style="normal"
       font-variant="normal"
       font-weight="normal"
       font-stretch="normal"
       font-size-adjust="none"
       letter-spacing="normal"
       word-spacing="normal"
       style="font-style:normal;font-variant:normal;font-weight:normal;font-stretch:normal;letter-spacing:normal;word-spacing:normal;text-anchor:start;fill:none;fill-opacity:1;fill-rule:evenodd;stroke:#000000;stroke-linecap:butt;stroke-linejoin:miter;stroke-miterlimit:10.433;stroke-dasharray:none;stroke-dashoffset:0;stroke-opacity:1"><path
         d="m 472.91,425.53 -6.37,1.54 c -3.1,0.75 -5.04,3.44 -5.04,6.33 0,3.49 2.69,6.53 6.58,6.53 8.31,0 9.41,-8.17 9.71,-10.42 0.04,-0.3 0.04,-0.59 0.6,-0.59 0.65,0 0.65,0.25 0.65,1.2 v 10 c 0,0.86 0,1.2 -0.55,1.2 -0.35,0 -0.41,-0.04 -0.75,-0.65 L 476,437.84 c -1.5,1.44 -3.54,3.48 -7.98,3.48 -5.53,0 -9.7,-4.39 -9.7,-9.67 0,-4.12 2.64,-7.76 6.51,-9.11 0.55,-0.2 3.1,-0.79 6.58,-1.64 1.34,-0.36 2.84,-0.7 4.23,-2.54 1.05,-1.3 1.55,-2.94 1.55,-4.58 0,-3.55 -2.48,-7.13 -6.67,-7.13 -1.45,0 -5.23,0.25 -7.88,2.69 -2.89,2.69 -3.04,5.87 -3.09,7.67 -0.05,0.5 -0.44,0.5 -0.59,0.5 -0.64,0 -0.64,-0.36 -0.64,-1.25 v -9.97 c 0,-0.84 0,-1.18 0.54,-1.18 0.35,0 0.39,0.09 0.74,0.64 0,0.04 0.15,0.2 1.79,2.84 1.55,-1.69 4.74,-3.48 9.18,-3.48 5.82,0 9.81,4.87 9.81,10.35 0,4.99 -3.28,9.07 -7.47,10.07 z"
         id="path1017"
         inkscape:connector-curvature="0"
         style="fill:#000000;stroke-width:0" /></g>
  </g>
  <circle
     r="12.9836"
     cy="739.89362"
     cx="1927.3724"
     id="circle880-9"
     style="fill:#ff0000;fill-rule:evenodd" />
  <path
     style="fill:none;stroke:#000000;stroke-width:5;stroke-linecap:butt;stroke-linejoin:miter;stroke-miterlimit:4;stroke-dasharray:none;stroke-opacity:1"
     d="m 1760.1167,259.60002 316.7785,2.7597"
     id="path926"
     inkscape:connector-curvature="0" />
  <g
     id="g2567"
     transform="matrix(0.1,0,0,0.1,1539.6191,-101.93926)">
    <g
       word-spacing="normal"
       letter-spacing="normal"
       font-size-adjust="none"
       font-stretch="normal"
       font-weight="normal"
       font-variant="normal"
       font-style="normal"
       stroke-miterlimit="10.433"
       xml:space="preserve"
       transform="matrix(11.428571,0,0,-11.428571,-2000,8000.0002)"
       id="g2565"
       style="font-style:normal;font-variant:normal;font-weight:normal;font-stretch:normal;letter-spacing:normal;word-spacing:normal;text-anchor:start;fill:none;fill-opacity:1;fill-rule:evenodd;stroke:#000000;stroke-linecap:butt;stroke-linejoin:miter;stroke-miterlimit:10.433;stroke-dasharray:none;stroke-dashoffset:0;stroke-opacity:1"><path
         id="path2557"
         d="m 472,394.25 v 0.02 0.03 0.01 0.02 0.01 l -0.01,0.02 v 0.01 l -0.01,0.02 -0.01,0.02 -0.01,0.02 -0.01,0.02 -0.02,0.03 -0.01,0.02 -0.02,0.03 -0.02,0.03 -0.03,0.03 -0.02,0.03 -0.03,0.04 -0.02,0.02 -0.01,0.02 -0.02,0.02 -0.02,0.02 -0.02,0.02 -0.02,0.03 -0.02,0.02 -0.02,0.02 -0.02,0.03 -0.03,0.02 -0.02,0.03 -0.03,0.03 -0.03,0.03 -0.02,0.03 -0.03,0.03 -0.03,0.03 -0.03,0.03 -0.03,0.03 -0.04,0.04 -0.03,0.03 -0.04,0.04 -0.03,0.03 -0.04,0.04 -0.04,0.04 c -6.22,6.28 -7.81,15.69 -7.81,23.31 0,8.67 1.89,17.35 8.01,23.56 0.64,0.61 0.64,0.71 0.64,0.86 0,0.35 -0.18,0.49 -0.48,0.49 -0.5,0 -4.98,-3.38 -7.92,-9.7 -2.55,-5.49 -3.14,-11.02 -3.14,-15.21 0,-3.89 0.54,-9.9 3.28,-15.54 2.98,-6.13 7.28,-9.36 7.78,-9.36 0.3,0 0.48,0.14 0.48,0.5 z"
         inkscape:connector-curvature="0"
         style="fill:#000000;stroke-width:0" /><path
         id="path2559"
         d="m 494.02,434.04 0.13,-0.62 0.13,-0.64 0.14,-0.66 0.15,-0.68 0.14,-0.7 0.16,-0.72 0.32,-1.47 0.33,-1.52 0.36,-1.55 0.38,-1.57 0.39,-1.58 0.41,-1.56 0.43,-1.55 0.44,-1.51 0.46,-1.46 0.24,-0.71 0.24,-0.7 0.24,-0.67 0.25,-0.65 0.26,-0.64 0.25,-0.6 0.26,-0.59 0.27,-0.55 c 1.09,-2.14 1.64,-3.25 2.14,-3.25 0.2,0 0.3,0 1.19,0.9 3.79,3.64 6.39,6.53 9.87,10.52 l 10.91,12.7 c -0.71,-4.23 -2.49,-15.45 -2.49,-21.28 0,-1.34 0.05,-2.64 0.19,-3.98 0.06,-0.55 0.25,-1.99 2.34,-1.99 2.1,0 5.88,2.19 5.88,3.19 0,0.3 -0.3,0.34 -0.44,0.34 -0.65,0 -1.64,-0.45 -2.2,-0.79 -1.19,0.14 -1.28,0.93 -1.39,2.09 -0.14,1.59 -0.14,3.09 -0.14,3.28 0,5.53 2.19,20.63 3.62,26.81 0.07,0.35 0.11,0.44 0.11,0.85 0,0.2 -0.04,0.75 -0.4,0.75 -0.21,0 -0.25,-0.05 -1.19,-1.16 -4.69,-5.67 -19.24,-23.11 -24.17,-27.3 -1.24,2.64 -2.14,4.54 -3.88,11.52 -1.45,5.62 -2.3,9.77 -3.14,14.59 -0.16,0.71 -0.41,2.05 -0.41,2.14 -0.14,0.25 -0.39,0.25 -0.54,0.25 -0.89,0 -2.99,-1.09 -3.14,-2.14 -0.6,-4.18 -1.6,-10.76 -5.08,-20.28 -3.99,-10.61 -5.08,-10.61 -6.03,-10.61 -0.64,0 -2.49,0.39 -3.58,1.39 -0.25,0.25 -0.36,0.25 -0.45,0.25 -0.71,0 -1.8,-2.23 -1.8,-3.64 0,-0.43 0,-1.04 1.59,-1.89 1.25,-0.64 2.44,-0.69 2.69,-0.69 3.09,0 6.03,7.13 7.03,9.66 2.35,5.63 5.13,13.5 6.53,20.67 z"
         inkscape:connector-curvature="0"
         style="fill:#000000;stroke-width:0" /><path
         id="path2561"
         d="m 552.31,405.11 h -1.19 c -0.09,-0.77 -0.45,-2.83 -0.9,-3.18 -0.27,-0.2 -2.95,-0.2 -3.44,-0.2 h -6.42 c 3.66,3.23 4.87,4.2 6.97,5.84 2.58,2.07 4.98,4.22 4.98,7.54 0,4.21 -3.69,6.79 -8.15,6.79 -4.32,0 -7.25,-3.03 -7.25,-6.23 0,-1.78 1.5,-1.96 1.86,-1.96 0.82,0 1.84,0.6 1.84,1.85 0,0.62 -0.25,1.84 -2.06,1.84 1.07,2.47 3.45,3.24 5.09,3.24 3.48,0 5.3,-2.71 5.3,-5.53 0,-3.04 -2.16,-5.44 -3.28,-6.69 l -8.39,-8.3 c -0.36,-0.31 -0.36,-0.39 -0.36,-1.36 h 14.36 z"
         inkscape:connector-curvature="0"
         style="fill:#000000;stroke-width:0" /><path
         id="path2563"
         d="m 571.55,418.65 v 0.37 l -0.01,0.39 v 0.39 l -0.02,0.41 -0.04,0.84 -0.06,0.88 -0.08,0.92 -0.11,0.95 -0.13,0.97 -0.16,1.01 -0.2,1.02 -0.23,1.03 -0.27,1.05 -0.3,1.06 -0.35,1.07 -0.39,1.07 -0.22,0.53 -0.22,0.53 -0.24,0.53 -0.25,0.53 c -2.99,6.12 -7.27,9.36 -7.77,9.36 -0.29,0 -0.5,-0.19 -0.5,-0.49 0,-0.15 0,-0.25 0.94,-1.15 4.89,-4.92 7.74,-12.85 7.74,-23.27 0,-8.51 -1.85,-17.28 -8.03,-23.56 -0.65,-0.59 -0.65,-0.7 -0.65,-0.84 0,-0.3 0.21,-0.5 0.5,-0.5 0.5,0 4.97,3.39 7.93,9.71 2.53,5.47 3.12,11 3.12,15.19 z"
         inkscape:connector-curvature="0"
         style="fill:#000000;stroke-width:0" /></g>
  </g>
  <path
     id="path15148-4-6"
     d="m 2001.467,627.09596 -3.2266,35.07254 -7.2846,-18.53427 -19.8933,1.26087"
     style="fill:#ed0000;fill-opacity:1;fill-rule:nonzero;stroke:none;stroke-width:1.33333;stroke-opacity:1"
     inkscape:connector-curvature="0" />
  <path
     id="path15148-4-6-5"
     d="m 1857.743,633.77095 3.2266,35.07254 7.2846,-18.53427 19.8933,1.26087"
     style="fill:#ed0000;fill-opacity:1;fill-rule:nonzero;stroke:none;stroke-width:1.33333;stroke-opacity:1"
     inkscape:connector-curvature="0" />
  <path
     id="path15148-4-6-5-2"
     d="m 2060.1755,383.66431 -16.2492,31.24831 16.1493,-11.65275 16.053,11.81676"
     style="fill:#ed0000;fill-opacity:1;fill-rule:nonzero;stroke:none;stroke-width:1.33333;stroke-opacity:1"
     inkscape:connector-curvature="0"
     inkscape:transform-center-x="-32.195891"
     inkscape:transform-center-y="-14.079367" />
  <path
     id="path15148-4-6-5-2-2"
     d="M 1792.2492,383 1776,414.24831 l 16.1493,-11.65275 16.053,11.81676"
     style="fill:#ed0000;fill-opacity:1;fill-rule:nonzero;stroke:none;stroke-width:1.33333;stroke-opacity:1"
     inkscape:connector-curvature="0"
     inkscape:transform-center-x="-32.195891"
     inkscape:transform-center-y="-14.079367" />
  <g
     transform="matrix(5.0745816,0,0,5.0745816,1882.1757,470.62101)"
     ns2:version="1.10.0"
     ns2:texconverter="pdflatex"
     ns2:pdfconverter="inkscape"
     ns2:text="$(\\mathcal{L}_1)$"
     ns2:preamble="/home/eb/.config/inkscape/extensions/textext/default_packages.tex"
     ns2:scale="0.8517226130881177"
     ns2:alignment="middle center"
     ns2:stroke-to-path="0"
     ns2:inkscapeversion="1.3.2"
     id="g5700"
     ns2:jacobian_sqrt="1.13563"
     style="stroke-width:0.223788">
    <defs
       id="id-c1082975-3d4f-44a2-b26d-c613b3db1580">
      <g
         id="id-f9f2acd4-6e01-442f-90d6-bcd58a546e89">
        <symbol
           overflow="visible"
           id="id-b7df19f2-a464-4ee2-a68a-85718a768ea6">
          <path
             style="stroke:none;stroke-width:0"
             d=""
             id="id-1d59ec92-7c1d-4d9f-8b87-7dffd3473f1c" />
        </symbol>
        <symbol
           overflow="visible"
           id="id-7a7b2045-c098-477a-bf7c-838e4a701cb7">
          <path
             style="stroke:none;stroke-width:0"
             d="m 3.296875,2.390625 c 0,-0.03125 0,-0.046875 -0.171875,-0.21875 C 1.890625,0.921875 1.5625,-0.96875 1.5625,-2.5 c 0,-1.734375 0.375,-3.46875 1.609375,-4.703125 0.125,-0.125 0.125,-0.140625 0.125,-0.171875 0,-0.078125 -0.03125,-0.109375 -0.09375,-0.109375 -0.109375,0 -1,0.6875 -1.59375,1.953125 -0.5,1.09375 -0.625,2.203125 -0.625,3.03125 0,0.78125 0.109375,1.984375 0.65625,3.125 C 2.25,1.84375 3.09375,2.5 3.203125,2.5 c 0.0625,0 0.09375,-0.03125 0.09375,-0.109375 z m 0,0"
             id="id-642e2997-cc3b-4e22-b708-59b2f726767d" />
        </symbol>
        <symbol
           overflow="visible"
           id="id-7aff9780-d413-46b8-8a81-fe186d796fa3">
          <path
             style="stroke:none;stroke-width:0"
             d="m 2.875,-2.5 c 0,-0.765625 -0.109375,-1.96875 -0.65625,-3.109375 -0.59375,-1.21875 -1.453125,-1.875 -1.546875,-1.875 -0.0625,0 -0.109375,0.046875 -0.109375,0.109375 0,0.03125 0,0.046875 0.1875,0.234375 0.984375,0.984375 1.546875,2.5625 1.546875,4.640625 0,1.71875 -0.359375,3.46875 -1.59375,4.71875 C 0.5625,2.34375 0.5625,2.359375 0.5625,2.390625 0.5625,2.453125 0.609375,2.5 0.671875,2.5 0.765625,2.5 1.671875,1.8125 2.25,0.546875 2.765625,-0.546875 2.875,-1.65625 2.875,-2.5 Z m 0,0"
             id="id-54f57f0c-51a9-4351-92f9-d503448525f0" />
        </symbol>
        <symbol
           overflow="visible"
           id="id-1b1875cb-28c0-41e9-b639-c73814802866">
          <path
             style="stroke:none;stroke-width:0"
             d=""
             id="id-6605a1d7-3daa-45d1-9da1-fedeca7d7659" />
        </symbol>
        <symbol
           overflow="visible"
           id="id-8141be00-a9c1-4b12-b6ae-5da6f1ef0116">
          <path
             style="stroke:none;stroke-width:0"
             d="M 1.796875,-0.921875 C 2.328125,-1.765625 2.5,-2.40625 2.625,-2.9375 2.984375,-4.3125 3.359375,-5.5 3.984375,-6.1875 4.09375,-6.3125 4.171875,-6.40625 4.5,-6.40625 c 0.6875,0 0.703125,0.6875 0.703125,0.828125 0,0.171875 -0.046875,0.3125 -0.046875,0.359375 0,0.078125 0.0625,0.078125 0.0625,0.078125 0.171875,0 0.4375,-0.109375 0.6875,-0.296875 0.171875,-0.140625 0.265625,-0.234375 0.265625,-0.640625 0,-0.546875 -0.28125,-0.953125 -0.84375,-0.953125 -0.3125,0 -1.1875,0.078125 -2.171875,1.0625 -0.796875,0.828125 -1.265625,2.625 -1.453125,3.359375 -0.171875,0.703125 -0.25,1 -0.5625,1.609375 -0.0625,0.109375 -0.328125,0.546875 -0.46875,0.6875 C 0.40625,-0.0625 0.3125,0.109375 0.3125,0.15625 c 0,0.015625 0.015625,0.0625 0.09375,0.0625 0.03125,0 0.234375,-0.046875 0.5,-0.203125 0.171875,-0.109375 0.1875,-0.125 0.421875,-0.359375 0.5,0 0.84375,0.09375 1.46875,0.28125 0.515625,0.125 1.015625,0.28125 1.53125,0.28125 0.8125,0 1.625,-0.609375 1.9375,-1.046875 C 6.46875,-1.09375 6.53125,-1.34375 6.53125,-1.375 c 0,-0.078125 -0.0625,-0.078125 -0.078125,-0.078125 -0.15625,0 -0.390625,0.125 -0.5625,0.234375 C 5.625,-1.046875 5.609375,-0.984375 5.546875,-0.8125 5.5,-0.65625 5.4375,-0.578125 5.390625,-0.515625 5.3125,-0.40625 5.296875,-0.40625 5.15625,-0.40625 4.671875,-0.40625 4.171875,-0.546875 3.515625,-0.734375 3.234375,-0.8125 2.6875,-0.96875 2.1875,-0.96875 c -0.125,0 -0.265625,0.015625 -0.390625,0.046875 z m 0,0"
             id="id-c9bbf036-13b6-4bfb-8d03-0f6eede43d3a" />
        </symbol>
        <symbol
           overflow="visible"
           id="id-be44c28e-6704-4b43-bf59-929019a72186">
          <path
             style="stroke:none;stroke-width:0"
             d=""
             id="id-b4e63138-6d3c-4c83-9ab1-08cef51c5124" />
        </symbol>
        <symbol
           overflow="visible"
           id="id-b0a8758e-76c1-48b7-8163-8e431f851656">
          <path
             style="stroke:none;stroke-width:0"
             d="m 2.328125,-4.4375 c 0,-0.1875 0,-0.1875 -0.203125,-0.1875 -0.453125,0.4375 -1.078125,0.4375 -1.359375,0.4375 v 0.25 c 0.15625,0 0.625,0 1,-0.1875 v 3.546875 c 0,0.234375 0,0.328125 -0.6875,0.328125 H 0.8125 V 0 c 0.125,0 0.984375,-0.03125 1.234375,-0.03125 0.21875,0 1.09375,0.03125 1.25,0.03125 V -0.25 H 3.03125 c -0.703125,0 -0.703125,-0.09375 -0.703125,-0.328125 z m 0,0"
             id="id-6a791f78-ce9e-44e8-b918-ca155ff4b8c7" />
        </symbol>
      </g>
    </defs>
    <g
       id="id-bb46ec5c-f54b-49dc-84b3-fa387edb0217"
       transform="translate(-149.696,-127.281)"
       style="stroke-width:0.223788">
      <g
         style="fill:#000000;fill-opacity:1;stroke-width:0.223788"
         id="id-7f1e8968-dd38-4e6b-acdd-ff79017899b5">
        <g
           transform="translate(148.712,134.765)"
           id="g4733"
           style="stroke-width:0.223788">
          <path
             style="stroke:none;stroke-width:0"
             d="m 3.296875,2.390625 c 0,-0.03125 0,-0.046875 -0.171875,-0.21875 C 1.890625,0.921875 1.5625,-0.96875 1.5625,-2.5 c 0,-1.734375 0.375,-3.46875 1.609375,-4.703125 0.125,-0.125 0.125,-0.140625 0.125,-0.171875 0,-0.078125 -0.03125,-0.109375 -0.09375,-0.109375 -0.109375,0 -1,0.6875 -1.59375,1.953125 -0.5,1.09375 -0.625,2.203125 -0.625,3.03125 0,0.78125 0.109375,1.984375 0.65625,3.125 C 2.25,1.84375 3.09375,2.5 3.203125,2.5 c 0.0625,0 0.09375,-0.03125 0.09375,-0.109375 z m 0,0"
             id="id-3e427610-5ac1-4547-9d63-b6b1e07c85ec" />
        </g>
      </g>
      <g
         style="fill:#000000;fill-opacity:1;stroke-width:0.223788"
         id="id-c9ea3c17-4ff5-4e09-bc56-ab65b27f4750">
        <g
           transform="translate(152.587,134.765)"
           id="g6249"
           style="stroke-width:0.223788">
          <path
             style="stroke:none;stroke-width:0"
             d="M 1.796875,-0.921875 C 2.328125,-1.765625 2.5,-2.40625 2.625,-2.9375 2.984375,-4.3125 3.359375,-5.5 3.984375,-6.1875 4.09375,-6.3125 4.171875,-6.40625 4.5,-6.40625 c 0.6875,0 0.703125,0.6875 0.703125,0.828125 0,0.171875 -0.046875,0.3125 -0.046875,0.359375 0,0.078125 0.0625,0.078125 0.0625,0.078125 0.171875,0 0.4375,-0.109375 0.6875,-0.296875 0.171875,-0.140625 0.265625,-0.234375 0.265625,-0.640625 0,-0.546875 -0.28125,-0.953125 -0.84375,-0.953125 -0.3125,0 -1.1875,0.078125 -2.171875,1.0625 -0.796875,0.828125 -1.265625,2.625 -1.453125,3.359375 -0.171875,0.703125 -0.25,1 -0.5625,1.609375 -0.0625,0.109375 -0.328125,0.546875 -0.46875,0.6875 C 0.40625,-0.0625 0.3125,0.109375 0.3125,0.15625 c 0,0.015625 0.015625,0.0625 0.09375,0.0625 0.03125,0 0.234375,-0.046875 0.5,-0.203125 0.171875,-0.109375 0.1875,-0.125 0.421875,-0.359375 0.5,0 0.84375,0.09375 1.46875,0.28125 0.515625,0.125 1.015625,0.28125 1.53125,0.28125 0.8125,0 1.625,-0.609375 1.9375,-1.046875 C 6.46875,-1.09375 6.53125,-1.34375 6.53125,-1.375 c 0,-0.078125 -0.0625,-0.078125 -0.078125,-0.078125 -0.15625,0 -0.390625,0.125 -0.5625,0.234375 C 5.625,-1.046875 5.609375,-0.984375 5.546875,-0.8125 5.5,-0.65625 5.4375,-0.578125 5.390625,-0.515625 5.3125,-0.40625 5.296875,-0.40625 5.15625,-0.40625 4.671875,-0.40625 4.171875,-0.546875 3.515625,-0.734375 3.234375,-0.8125 2.6875,-0.96875 2.1875,-0.96875 c -0.125,0 -0.265625,0.015625 -0.390625,0.046875 z m 0,0"
             id="id-b6617d13-635d-490d-9524-8a87b225331a" />
        </g>
      </g>
      <g
         style="fill:#000000;fill-opacity:1;stroke-width:0.223788"
         id="id-61db79d2-1aca-4188-b098-73945d66584b">
        <g
           transform="translate(159.458,136.259)"
           id="g2779"
           style="stroke-width:0.223788">
          <path
             style="stroke:none;stroke-width:0"
             d="m 2.328125,-4.4375 c 0,-0.1875 0,-0.1875 -0.203125,-0.1875 -0.453125,0.4375 -1.078125,0.4375 -1.359375,0.4375 v 0.25 c 0.15625,0 0.625,0 1,-0.1875 v 3.546875 c 0,0.234375 0,0.328125 -0.6875,0.328125 H 0.8125 V 0 c 0.125,0 0.984375,-0.03125 1.234375,-0.03125 0.21875,0 1.09375,0.03125 1.25,0.03125 V -0.25 H 3.03125 c -0.703125,0 -0.703125,-0.09375 -0.703125,-0.328125 z m 0,0"
             id="id-eb52763a-81a1-430d-98b2-8905f100ee77" />
        </g>
      </g>
      <g
         style="fill:#000000;fill-opacity:1;stroke-width:0.223788"
         id="id-df6670a8-c353-44f0-a114-7ee609883dce">
        <g
           transform="translate(163.928,134.765)"
           id="g5722"
           style="stroke-width:0.223788">
          <path
             style="stroke:none;stroke-width:0"
             d="m 2.875,-2.5 c 0,-0.765625 -0.109375,-1.96875 -0.65625,-3.109375 -0.59375,-1.21875 -1.453125,-1.875 -1.546875,-1.875 -0.0625,0 -0.109375,0.046875 -0.109375,0.109375 0,0.03125 0,0.046875 0.1875,0.234375 0.984375,0.984375 1.546875,2.5625 1.546875,4.640625 0,1.71875 -0.359375,3.46875 -1.59375,4.71875 C 0.5625,2.34375 0.5625,2.359375 0.5625,2.390625 0.5625,2.453125 0.609375,2.5 0.671875,2.5 0.765625,2.5 1.671875,1.8125 2.25,0.546875 2.765625,-0.546875 2.875,-1.65625 2.875,-2.5 Z m 0,0"
             id="id-bb676ad0-87e4-423e-9bba-3a2123fbc6d1" />
        </g>
      </g>
    </g>
  </g>
  <g
     id="g2"
     transform="translate(-23.581,3.3749486)">
    <path
       inkscape:connector-curvature="0"
       id="path5539"
       d="M 2097.6537,537.60878 V 738.39586"
       style="fill:none;stroke:#000000;stroke-width:1px;stroke-linecap:butt;stroke-linejoin:miter;stroke-opacity:1;marker-start:url(#marker5543-8);marker-end:url(#marker5571-7)" />
    <g
       transform="matrix(0.3,0,0,0.3,1856.648,281.10395)"
       id="g5659">
      <g
         style="font-style:normal;font-variant:normal;font-weight:normal;font-stretch:normal;letter-spacing:normal;word-spacing:normal;text-anchor:start;fill:none;fill-opacity:1;fill-rule:evenodd;stroke:#000000;stroke-linecap:butt;stroke-linejoin:miter;stroke-miterlimit:10.433;stroke-dasharray:none;stroke-dashoffset:0;stroke-opacity:1"
         word-spacing="normal"
         letter-spacing="normal"
         font-size-adjust="none"
         font-stretch="normal"
         font-weight="normal"
         font-variant="normal"
         font-style="normal"
         stroke-miterlimit="10.433"
         xml:space="preserve"
         transform="matrix(2.9352381,0,0,-2.9352381,-513.66668,2405)"
         id="content"><path
           style="fill:#000000;stroke-width:0"
           inkscape:connector-curvature="0"
           id="path5654"
           d="m 473.8,426.12 h 4.28 c 1,0 1.5,0 1.5,1 0,0.55 -0.5,0.55 -1.34,0.55 h -4.14 l 1.04,5.69 c 0.21,1.04 0.91,4.57 1.21,5.17 0.45,0.95 1.29,1.7 2.34,1.7 0.19,0 1.49,0 2.44,-0.91 -2.19,-0.18 -2.69,-1.93 -2.69,-2.68 0,-1.14 0.89,-1.74 1.85,-1.74 1.29,0 2.73,1.1 2.73,2.99 0,2.29 -2.3,3.43 -4.33,3.43 -1.7,0 -4.84,-0.89 -6.33,-5.82 -0.29,-1.05 -0.45,-1.55 -1.64,-7.83 h -3.43 c -0.96,0 -1.5,0 -1.5,-0.94 0,-0.61 0.45,-0.61 1.39,-0.61 h 3.29 l -3.75,-19.67 c -0.89,-4.83 -1.73,-9.38 -4.33,-9.38 -0.2,0 -1.43,0 -2.39,0.91 2.3,0.14 2.74,1.94 2.74,2.69 0,1.14 -0.89,1.75 -1.85,1.75 -1.29,0 -2.73,-1.1 -2.73,-3 0,-2.24 2.19,-3.44 4.23,-3.44 2.74,0 4.74,2.94 5.63,4.84 1.59,3.14 2.75,9.16 2.8,9.52 z" /><path
           style="fill:#000000;stroke-width:0"
           inkscape:connector-curvature="0"
           id="path5656"
           d="m 495.39,440.65 0.03,0.06 0.02,0.05 0.02,0.05 0.03,0.05 0.02,0.04 0.01,0.05 0.02,0.04 0.02,0.04 0.01,0.05 0.02,0.04 0.01,0.03 0.01,0.04 0.01,0.04 0.01,0.03 0.01,0.04 0.01,0.03 0.01,0.03 0.01,0.03 v 0.03 l 0.01,0.03 v 0.03 l 0.01,0.03 v 0.03 0.02 l 0.01,0.06 v 0.05 0.04 0.05 c 0,1.08 -0.98,1.92 -2.06,1.92 -1.33,0 -1.73,-1.09 -1.91,-1.64 l -4.61,-15.09 c -0.03,-0.06 -0.17,-0.52 -0.17,-0.56 0,-0.41 1.08,-0.77 1.36,-0.77 0.25,0 0.28,0.08 0.52,0.59 z" /></g>
    </g>
  </g>
</svg>
