<?xml version="1.0" encoding="UTF-8" standalone="no"?>
<!-- Created with Inkscape (http://www.inkscape.org/) -->

<svg
   xmlns:dc="http://purl.org/dc/elements/1.1/"
   xmlns:cc="http://creativecommons.org/ns#"
   xmlns:rdf="http://www.w3.org/1999/02/22-rdf-syntax-ns#"
   xmlns:svg="http://www.w3.org/2000/svg"
   xmlns="http://www.w3.org/2000/svg"
   xmlns:sodipodi="http://sodipodi.sourceforge.net/DTD/sodipodi-0.dtd"
   xmlns:inkscape="http://www.inkscape.org/namespaces/inkscape"
   version="1.1"
   id="svg2"
   width="3206.6667"
   height="2054.6667"
   viewBox="0 0 3206.6667 2054.6667"
   sodipodi:docname="michelson_equivalent.svg"
   inkscape:version="0.92.3 (2405546, 2018-03-11)">
  <sodipodi:namedview
     pagecolor="#ffffff"
     bordercolor="#666666"
     borderopacity="1"
     objecttolerance="10"
     gridtolerance="10"
     guidetolerance="10"
     inkscape:pageopacity="0"
     inkscape:pageshadow="2"
     inkscape:window-width="2560"
     inkscape:window-height="1412"
     id="namedview4"
     showgrid="false"
     inkscape:zoom="0.4594419"
     inkscape:cx="716.48704"
     inkscape:cy="712.47485"
     inkscape:window-x="1920"
     inkscape:window-y="0"
     inkscape:window-maximized="1"
     inkscape:current-layer="svg2"
     inkscape:snap-global="false" />
  <metadata
     id="metadata8">
    <rdf:RDF>
      <cc:Work
         rdf:about="">
        <dc:format>image/svg+xml</dc:format>
        <dc:type
           rdf:resource="http://purl.org/dc/dcmitype/StillImage" />
        <dc:title />
      </cc:Work>
    </rdf:RDF>
  </metadata>
  <defs
     id="defs6" />
  <path
     inkscape:connector-curvature="0"
     id="path817"
     d="M 909.58205,1297.4512 1117.3546,440.19708"
     style="fill:none;stroke:#d91100;stroke-width:2;stroke-linecap:butt;stroke-linejoin:miter;stroke-opacity:1;stroke-miterlimit:4;stroke-dasharray:6,2;stroke-dashoffset:0" />
  <path
     inkscape:connector-curvature="0"
     id="path821"
     d="m 874.18377,868.05463 607.92713,16.92962"
     style="fill:none;stroke:#d91100;stroke-width:2;stroke-linecap:butt;stroke-linejoin:miter;stroke-opacity:1;stroke-miterlimit:4;stroke-dasharray:none" />
  <path
     inkscape:connector-curvature="0"
     id="path823"
     d="M 1482.1109,884.98425 1028.0894,1011.1868"
     style="fill:none;stroke:#d91100;stroke-width:2;stroke-linecap:butt;stroke-linejoin:miter;stroke-opacity:1;stroke-miterlimit:4;stroke-dasharray:none" />
  <path
     inkscape:connector-curvature="0"
     id="path825"
     d="M 1028.0894,1011.1868 909.58205,1297.4512"
     style="fill:none;stroke:#d91100;stroke-width:2;stroke-linecap:butt;stroke-linejoin:miter;stroke-opacity:1;stroke-miterlimit:4;stroke-dasharray:none" />
  <path
     inkscape:connector-curvature="0"
     id="path827"
     d="m 874.18377,868.05463 272.41293,26.16395"
     style="fill:none;stroke:#d91100;stroke-width:2;stroke-linecap:butt;stroke-linejoin:miter;stroke-opacity:1;stroke-miterlimit:4;stroke-dasharray:6,2;stroke-dashoffset:0" />
  <path
     inkscape:connector-curvature="0"
     id="path831"
     d="m 1465.1812,689.52414 40.0155,386.30306"
     style="fill:none;stroke:#000000;stroke-width:5;stroke-linecap:butt;stroke-linejoin:miter;stroke-opacity:1;stroke-miterlimit:4;stroke-dasharray:none" />
  <path
     inkscape:connector-curvature="0"
     id="path833"
     d="m 918.81639,418.6503 389.38111,32.32017"
     style="fill:none;stroke:#000000;stroke-width:5;stroke-linecap:butt;stroke-linejoin:miter;stroke-opacity:1;stroke-miterlimit:4;stroke-dasharray:none" />
  <g
     id="g2808"
     transform="matrix(0.3,0,0,0.3,1221.9362,325.961)">
    <g
       word-spacing="normal"
       letter-spacing="normal"
       font-size-adjust="none"
       font-stretch="normal"
       font-weight="normal"
       font-variant="normal"
       font-style="normal"
       stroke-miterlimit="10.433"
       xml:space="preserve"
       transform="matrix(2.9352381,0,0,-2.9352381,-513.66668,2405)"
       id="content"
       style="font-style:normal;font-variant:normal;font-weight:normal;font-stretch:normal;letter-spacing:normal;word-spacing:normal;text-anchor:start;fill:none;fill-opacity:1;fill-rule:evenodd;stroke:#000000;stroke-linecap:butt;stroke-linejoin:miter;stroke-miterlimit:10.43299961;stroke-dasharray:none;stroke-dashoffset:0;stroke-opacity:1"><path
         id="path2799"
         d="m 472,394.25 v 0.02 0.03 0.01 0.02 0.01 l -0.01,0.02 v 0.01 l -0.01,0.02 -0.01,0.02 -0.01,0.02 -0.01,0.02 -0.02,0.03 -0.01,0.02 -0.02,0.03 -0.02,0.03 -0.03,0.03 -0.02,0.03 -0.03,0.04 -0.02,0.02 -0.01,0.02 -0.02,0.02 -0.02,0.02 -0.02,0.02 -0.02,0.03 -0.02,0.02 -0.02,0.02 -0.02,0.03 -0.03,0.02 -0.02,0.03 -0.03,0.03 -0.03,0.03 -0.02,0.03 -0.03,0.03 -0.03,0.03 -0.03,0.03 -0.03,0.03 -0.04,0.04 -0.03,0.03 -0.04,0.04 -0.03,0.03 -0.04,0.04 -0.04,0.04 c -6.22,6.28 -7.81,15.69 -7.81,23.31 0,8.67 1.89,17.35 8.01,23.56 0.64,0.61 0.64,0.71 0.64,0.86 0,0.35 -0.18,0.49 -0.48,0.49 -0.5,0 -4.98,-3.38 -7.92,-9.7 -2.55,-5.49 -3.14,-11.02 -3.14,-15.21 0,-3.89 0.54,-9.9 3.28,-15.54 2.98,-6.13 7.28,-9.36 7.78,-9.36 0.3,0 0.48,0.14 0.48,0.5 z"
         inkscape:connector-curvature="0"
         style="fill:#000000;stroke-width:0" /><path
         id="path2801"
         d="m 494.02,434.04 0.13,-0.62 0.13,-0.64 0.14,-0.66 0.15,-0.68 0.14,-0.7 0.16,-0.72 0.32,-1.47 0.33,-1.52 0.36,-1.55 0.38,-1.57 0.39,-1.58 0.41,-1.56 0.43,-1.55 0.44,-1.51 0.46,-1.46 0.24,-0.71 0.24,-0.7 0.24,-0.67 0.25,-0.65 0.26,-0.64 0.25,-0.6 0.26,-0.59 0.27,-0.55 c 1.09,-2.14 1.64,-3.25 2.14,-3.25 0.2,0 0.3,0 1.19,0.9 3.79,3.64 6.39,6.53 9.87,10.52 l 10.91,12.7 c -0.71,-4.23 -2.49,-15.45 -2.49,-21.28 0,-1.34 0.05,-2.64 0.19,-3.98 0.06,-0.55 0.25,-1.99 2.34,-1.99 2.1,0 5.88,2.19 5.88,3.19 0,0.3 -0.3,0.34 -0.44,0.34 -0.65,0 -1.64,-0.45 -2.2,-0.79 -1.19,0.14 -1.28,0.93 -1.39,2.09 -0.14,1.59 -0.14,3.09 -0.14,3.28 0,5.53 2.19,20.63 3.62,26.81 0.07,0.35 0.11,0.44 0.11,0.85 0,0.2 -0.04,0.75 -0.4,0.75 -0.21,0 -0.25,-0.05 -1.19,-1.16 -4.69,-5.67 -19.24,-23.11 -24.17,-27.3 -1.24,2.64 -2.14,4.54 -3.88,11.52 -1.45,5.62 -2.3,9.77 -3.14,14.59 -0.16,0.71 -0.41,2.05 -0.41,2.14 -0.14,0.25 -0.39,0.25 -0.54,0.25 -0.89,0 -2.99,-1.09 -3.14,-2.14 -0.6,-4.18 -1.6,-10.76 -5.08,-20.28 -3.99,-10.61 -5.08,-10.61 -6.03,-10.61 -0.64,0 -2.49,0.39 -3.58,1.39 -0.25,0.25 -0.36,0.25 -0.45,0.25 -0.71,0 -1.8,-2.23 -1.8,-3.64 0,-0.43 0,-1.04 1.59,-1.89 1.25,-0.64 2.44,-0.69 2.69,-0.69 3.09,0 6.03,7.13 7.03,9.66 2.35,5.63 5.13,13.5 6.53,20.67 z"
         inkscape:connector-curvature="0"
         style="fill:#000000;stroke-width:0" /><path
         id="path2803"
         d="m 552.31,405.11 h -1.19 c -0.09,-0.77 -0.45,-2.83 -0.9,-3.18 -0.27,-0.2 -2.95,-0.2 -3.44,-0.2 h -6.42 c 3.66,3.23 4.87,4.2 6.97,5.84 2.58,2.07 4.98,4.22 4.98,7.54 0,4.21 -3.69,6.79 -8.15,6.79 -4.32,0 -7.25,-3.03 -7.25,-6.23 0,-1.78 1.5,-1.96 1.86,-1.96 0.82,0 1.84,0.6 1.84,1.85 0,0.62 -0.25,1.84 -2.06,1.84 1.07,2.47 3.45,3.24 5.09,3.24 3.48,0 5.3,-2.71 5.3,-5.53 0,-3.04 -2.16,-5.44 -3.28,-6.69 l -8.39,-8.3 c -0.36,-0.31 -0.36,-0.39 -0.36,-1.36 h 14.36 z"
         inkscape:connector-curvature="0"
         style="fill:#000000;stroke-width:0" /><path
         id="path2805"
         d="m 571.55,418.65 v 0.37 l -0.01,0.39 v 0.39 l -0.02,0.41 -0.04,0.84 -0.06,0.88 -0.08,0.92 -0.11,0.95 -0.13,0.97 -0.16,1.01 -0.2,1.02 -0.23,1.03 -0.27,1.05 -0.3,1.06 -0.35,1.07 -0.39,1.07 -0.22,0.53 -0.22,0.53 -0.24,0.53 -0.25,0.53 c -2.99,6.12 -7.27,9.36 -7.77,9.36 -0.29,0 -0.5,-0.19 -0.5,-0.49 0,-0.15 0,-0.25 0.94,-1.15 4.89,-4.92 7.74,-12.85 7.74,-23.27 0,-8.51 -1.85,-17.28 -8.03,-23.56 -0.65,-0.59 -0.65,-0.7 -0.65,-0.84 0,-0.3 0.21,-0.5 0.5,-0.5 0.5,0 4.97,3.39 7.93,9.71 2.53,5.47 3.12,11 3.12,15.19 z"
         inkscape:connector-curvature="0"
         style="fill:#000000;stroke-width:0" /></g>  </g>
  <g
     id="g2924"
     transform="matrix(0.3,0,0,0.3,1070.6657,90.893187)">
    <g
       word-spacing="normal"
       letter-spacing="normal"
       font-size-adjust="none"
       font-stretch="normal"
       font-weight="normal"
       font-variant="normal"
       font-style="normal"
       stroke-miterlimit="10.433"
       xml:space="preserve"
       transform="matrix(2.9352381,0,0,-2.9352381,-513.66668,2405)"
       id="g2922"
       style="font-style:normal;font-variant:normal;font-weight:normal;font-stretch:normal;letter-spacing:normal;word-spacing:normal;text-anchor:start;fill:none;fill-opacity:1;fill-rule:evenodd;stroke:#000000;stroke-linecap:butt;stroke-linejoin:miter;stroke-miterlimit:10.43299961;stroke-dasharray:none;stroke-dashoffset:0;stroke-opacity:1"><path
         id="path2914"
         d="m 472,394.25 v 0.02 0.03 0.01 0.02 0.01 l -0.01,0.02 v 0.01 l -0.01,0.02 -0.01,0.02 -0.01,0.02 -0.01,0.02 -0.02,0.03 -0.01,0.02 -0.02,0.03 -0.02,0.03 -0.03,0.03 -0.02,0.03 -0.03,0.04 -0.02,0.02 -0.01,0.02 -0.02,0.02 -0.02,0.02 -0.02,0.02 -0.02,0.03 -0.02,0.02 -0.02,0.02 -0.02,0.03 -0.03,0.02 -0.02,0.03 -0.03,0.03 -0.03,0.03 -0.02,0.03 -0.03,0.03 -0.03,0.03 -0.03,0.03 -0.03,0.03 -0.04,0.04 -0.03,0.03 -0.04,0.04 -0.03,0.03 -0.04,0.04 -0.04,0.04 c -6.22,6.28 -7.81,15.69 -7.81,23.31 0,8.67 1.89,17.35 8.01,23.56 0.64,0.61 0.64,0.71 0.64,0.86 0,0.35 -0.18,0.49 -0.48,0.49 -0.5,0 -4.98,-3.38 -7.92,-9.7 -2.55,-5.49 -3.14,-11.02 -3.14,-15.21 0,-3.89 0.54,-9.9 3.28,-15.54 2.98,-6.13 7.28,-9.36 7.78,-9.36 0.3,0 0.48,0.14 0.48,0.5 z"
         inkscape:connector-curvature="0"
         style="fill:#000000;stroke-width:0" /><path
         id="path2916"
         d="m 494.02,434.04 0.13,-0.62 0.13,-0.64 0.14,-0.66 0.15,-0.68 0.14,-0.7 0.16,-0.72 0.32,-1.47 0.33,-1.52 0.36,-1.55 0.38,-1.57 0.39,-1.58 0.41,-1.56 0.43,-1.55 0.44,-1.51 0.46,-1.46 0.24,-0.71 0.24,-0.7 0.24,-0.67 0.25,-0.65 0.26,-0.64 0.25,-0.6 0.26,-0.59 0.27,-0.55 c 1.09,-2.14 1.64,-3.25 2.14,-3.25 0.2,0 0.3,0 1.19,0.9 3.79,3.64 6.39,6.53 9.87,10.52 l 10.91,12.7 c -0.71,-4.23 -2.49,-15.45 -2.49,-21.28 0,-1.34 0.05,-2.64 0.19,-3.98 0.06,-0.55 0.25,-1.99 2.34,-1.99 2.1,0 5.88,2.19 5.88,3.19 0,0.3 -0.3,0.34 -0.44,0.34 -0.65,0 -1.64,-0.45 -2.2,-0.79 -1.19,0.14 -1.28,0.93 -1.39,2.09 -0.14,1.59 -0.14,3.09 -0.14,3.28 0,5.53 2.19,20.63 3.62,26.81 0.07,0.35 0.11,0.44 0.11,0.85 0,0.2 -0.04,0.75 -0.4,0.75 -0.21,0 -0.25,-0.05 -1.19,-1.16 -4.69,-5.67 -19.24,-23.11 -24.17,-27.3 -1.24,2.64 -2.14,4.54 -3.88,11.52 -1.45,5.62 -2.3,9.77 -3.14,14.59 -0.16,0.71 -0.41,2.05 -0.41,2.14 -0.14,0.25 -0.39,0.25 -0.54,0.25 -0.89,0 -2.99,-1.09 -3.14,-2.14 -0.6,-4.18 -1.6,-10.76 -5.08,-20.28 -3.99,-10.61 -5.08,-10.61 -6.03,-10.61 -0.64,0 -2.49,0.39 -3.58,1.39 -0.25,0.25 -0.36,0.25 -0.45,0.25 -0.71,0 -1.8,-2.23 -1.8,-3.64 0,-0.43 0,-1.04 1.59,-1.89 1.25,-0.64 2.44,-0.69 2.69,-0.69 3.09,0 6.03,7.13 7.03,9.66 2.35,5.63 5.13,13.5 6.53,20.67 z"
         inkscape:connector-curvature="0"
         style="fill:#000000;stroke-width:0" /><path
         id="path2918"
         d="m 546.39,420.92 v 0.04 0.04 0.05 0.04 0.03 0.04 0.04 0.03 l -0.01,0.04 v 0.03 0.03 0.03 0.03 l -0.01,0.03 v 0.03 0.02 l -0.01,0.03 v 0.02 l -0.01,0.03 v 0.02 l -0.02,0.04 -0.01,0.04 -0.02,0.03 -0.02,0.03 -0.02,0.03 -0.02,0.03 -0.03,0.02 -0.03,0.02 -0.04,0.02 -0.03,0.01 -0.04,0.01 -0.05,0.02 H 546 545.97 l -0.02,0.01 h -0.03 l -0.02,0.01 h -0.03 -0.03 -0.03 -0.04 l -0.03,0.01 h -0.03 -0.04 -0.04 -0.03 -0.04 -0.04 -0.04 -0.05 -0.04 -0.05 c -2.23,-2.2 -5.39,-2.23 -6.82,-2.23 v -1.25 c 0.84,0 3.14,0 5.04,0.97 v -17.77 c 0,-1.16 0,-1.61 -3.48,-1.61 h -1.31 v -1.25 c 0.62,0.03 4.9,0.14 6.2,0.14 1.08,0 5.47,-0.11 6.23,-0.14 v 1.25 h -1.32 c -3.49,0 -3.49,0.45 -3.49,1.61 z"
         inkscape:connector-curvature="0"
         style="fill:#000000;stroke-width:0" /><path
         id="path2920"
         d="m 571.55,418.65 v 0.37 l -0.01,0.39 v 0.39 l -0.02,0.41 -0.04,0.84 -0.06,0.88 -0.08,0.92 -0.11,0.95 -0.13,0.97 -0.16,1.01 -0.2,1.02 -0.23,1.03 -0.27,1.05 -0.3,1.06 -0.35,1.07 -0.39,1.07 -0.22,0.53 -0.22,0.53 -0.24,0.53 -0.25,0.53 c -2.99,6.12 -7.27,9.36 -7.77,9.36 -0.29,0 -0.5,-0.19 -0.5,-0.49 0,-0.15 0,-0.25 0.94,-1.15 4.89,-4.92 7.74,-12.85 7.74,-23.27 0,-8.51 -1.85,-17.28 -8.03,-23.56 -0.65,-0.59 -0.65,-0.7 -0.65,-0.84 0,-0.3 0.21,-0.5 0.5,-0.5 0.5,0 4.97,3.39 7.93,9.71 2.53,5.47 3.12,11 3.12,15.19 z"
         inkscape:connector-curvature="0"
         style="fill:#000000;stroke-width:0" /></g>  </g>
  <g
     id="g2994"
     transform="matrix(0.3,0,0,0.3,590.64353,516.83466)">
    <g
       id="g2992"
       transform="matrix(2.9352381,0,0,-2.9352381,-513.66668,2405)"
       xml:space="preserve"
       stroke-miterlimit="10.433"
       font-style="normal"
       font-variant="normal"
       font-weight="normal"
       font-stretch="normal"
       font-size-adjust="none"
       letter-spacing="normal"
       word-spacing="normal"
       style="font-style:normal;font-variant:normal;font-weight:normal;font-stretch:normal;letter-spacing:normal;word-spacing:normal;text-anchor:start;fill:none;fill-opacity:1;fill-rule:evenodd;stroke:#000000;stroke-linecap:butt;stroke-linejoin:miter;stroke-miterlimit:10.43299961;stroke-dasharray:none;stroke-dashoffset:0;stroke-opacity:1"><path
         d="m 472.91,425.53 -6.37,1.54 c -3.1,0.75 -5.04,3.44 -5.04,6.33 0,3.49 2.69,6.53 6.58,6.53 8.31,0 9.41,-8.17 9.71,-10.42 0.04,-0.3 0.04,-0.59 0.6,-0.59 0.65,0 0.65,0.25 0.65,1.2 v 10 c 0,0.86 0,1.2 -0.55,1.2 -0.35,0 -0.41,-0.04 -0.75,-0.65 L 476,437.84 c -1.5,1.44 -3.54,3.48 -7.98,3.48 -5.53,0 -9.7,-4.39 -9.7,-9.67 0,-4.12 2.64,-7.76 6.51,-9.11 0.55,-0.2 3.1,-0.79 6.58,-1.64 1.34,-0.36 2.84,-0.7 4.23,-2.54 1.05,-1.3 1.55,-2.94 1.55,-4.58 0,-3.55 -2.48,-7.13 -6.67,-7.13 -1.45,0 -5.23,0.25 -7.88,2.69 -2.89,2.69 -3.04,5.87 -3.09,7.67 -0.05,0.5 -0.44,0.5 -0.59,0.5 -0.64,0 -0.64,-0.36 -0.64,-1.25 v -9.97 c 0,-0.84 0,-1.18 0.54,-1.18 0.35,0 0.39,0.09 0.74,0.64 0,0.04 0.15,0.2 1.79,2.84 1.55,-1.69 4.74,-3.48 9.18,-3.48 5.82,0 9.81,4.87 9.81,10.35 0,4.99 -3.28,9.07 -7.47,10.07 z"
         id="path2990"
         inkscape:connector-curvature="0"
         style="fill:#000000;stroke-width:0" /></g>  </g>
  <g
     id="g3074"
     transform="matrix(0.3,0,0,0.3,997.99653,368.4038)">
    <g
       word-spacing="normal"
       letter-spacing="normal"
       font-size-adjust="none"
       font-stretch="normal"
       font-weight="normal"
       font-variant="normal"
       font-style="normal"
       stroke-miterlimit="10.433"
       xml:space="preserve"
       transform="matrix(2.9352381,0,0,-2.9352381,-513.66668,2405)"
       id="g3072"
       style="font-style:normal;font-variant:normal;font-weight:normal;font-stretch:normal;letter-spacing:normal;word-spacing:normal;text-anchor:start;fill:none;fill-opacity:1;fill-rule:evenodd;stroke:#000000;stroke-linecap:butt;stroke-linejoin:miter;stroke-miterlimit:10.43299961;stroke-dasharray:none;stroke-dashoffset:0;stroke-opacity:1"><path
         id="path3066"
         d="m 472,394.25 v 0.02 0.03 0.01 0.02 0.01 l -0.01,0.02 v 0.01 l -0.01,0.02 -0.01,0.02 -0.01,0.02 -0.01,0.02 -0.02,0.03 -0.01,0.02 -0.02,0.03 -0.02,0.03 -0.03,0.03 -0.02,0.03 -0.03,0.04 -0.02,0.02 -0.01,0.02 -0.02,0.02 -0.02,0.02 -0.02,0.02 -0.02,0.03 -0.02,0.02 -0.02,0.02 -0.02,0.03 -0.03,0.02 -0.02,0.03 -0.03,0.03 -0.03,0.03 -0.02,0.03 -0.03,0.03 -0.03,0.03 -0.03,0.03 -0.03,0.03 -0.04,0.04 -0.03,0.03 -0.04,0.04 -0.03,0.03 -0.04,0.04 -0.04,0.04 c -6.22,6.28 -7.81,15.69 -7.81,23.31 0,8.67 1.89,17.35 8.01,23.56 0.64,0.61 0.64,0.71 0.64,0.86 0,0.35 -0.18,0.49 -0.48,0.49 -0.5,0 -4.98,-3.38 -7.92,-9.7 -2.55,-5.49 -3.14,-11.02 -3.14,-15.21 0,-3.89 0.54,-9.9 3.28,-15.54 2.98,-6.13 7.28,-9.36 7.78,-9.36 0.3,0 0.48,0.14 0.48,0.5 z"
         inkscape:connector-curvature="0"
         style="fill:#000000;stroke-width:0" /><path
         id="path3068"
         d="m 480.57,417.11 0.06,0.02 0.06,0.03 0.08,0.04 0.07,0.04 0.08,0.04 0.09,0.05 0.09,0.05 0.09,0.05 0.09,0.06 0.1,0.06 0.09,0.06 0.1,0.07 0.2,0.13 0.19,0.15 0.1,0.07 0.09,0.08 0.09,0.07 0.09,0.08 0.08,0.08 0.08,0.08 0.07,0.07 0.07,0.08 0.06,0.08 0.06,0.07 0.05,0.08 0.04,0.07 0.03,0.07 0.01,0.04 0.01,0.04 0.01,0.03 0.01,0.03 v 0.04 0.03 c 0,0.35 -0.31,0.35 -0.61,0.35 -1.68,0 -6.57,-2.14 -6.57,-7.13 0,-3.58 4.04,-7.26 10.12,-7.26 8.11,0 17.53,5.62 17.53,12.4 0,4.74 -4.98,7.02 -9.01,8.81 -3.49,1.6 -5.78,3.64 -5.78,6.49 0,1.05 0.45,2.98 2,4.33 1.48,1.29 4.28,1.45 4.96,1.45 0.57,0 2.65,-0.06 4.8,-1 0.94,-0.45 2.24,-1.05 2.24,-3.19 0,-0.7 -0.05,-0.95 -0.21,-1.5 -0.04,-0.14 -0.09,-0.34 -0.09,-0.5 0,-0.34 0.3,-0.34 0.5,-0.34 0.64,0 1.84,0.5 2.84,1.34 0.64,0.5 1.19,1.14 1.19,3.1 0,2.43 -1.3,3.14 -2.64,3.73 -2.34,1.09 -4.63,1.09 -5.33,1.09 -6.53,0 -14.5,-4.98 -14.5,-10.65 0,-4.19 4.33,-6.19 6.72,-7.24 3.55,-1.59 8.08,-3.87 8.08,-8.06 0,-3.34 -2.44,-7.53 -10.02,-7.53 -5.08,0 -9.17,3.3 -9.17,6.67 0,0.91 0.25,1.8 0.61,2.6 z"
         inkscape:connector-curvature="0"
         style="fill:#000000;stroke-width:0" /><path
         id="path3070"
         d="m 523.06,418.65 v 0.37 0.39 l -0.01,0.39 -0.02,0.41 -0.04,0.84 -0.06,0.88 -0.08,0.92 -0.1,0.95 -0.14,0.97 -0.16,1.01 -0.2,1.02 -0.23,1.03 -0.27,1.05 -0.3,1.06 -0.35,1.07 -0.39,1.07 -0.22,0.53 -0.22,0.53 -0.24,0.53 -0.25,0.53 c -2.98,6.12 -7.26,9.36 -7.76,9.36 -0.3,0 -0.5,-0.19 -0.5,-0.49 0,-0.15 0,-0.25 0.93,-1.15 4.89,-4.92 7.74,-12.85 7.74,-23.27 0,-8.51 -1.85,-17.28 -8.03,-23.56 -0.64,-0.59 -0.64,-0.7 -0.64,-0.84 0,-0.3 0.2,-0.5 0.5,-0.5 0.5,0 4.96,3.39 7.92,9.71 2.53,5.47 3.12,11 3.12,15.19 z"
         inkscape:connector-curvature="0"
         style="fill:#000000;stroke-width:0" /></g>  </g>
  <path
     inkscape:connector-curvature="0"
     id="path835"
     d="M 1028.0894,1011.1868 1308.1975,744.93016"
     style="fill:none;stroke:#000000;stroke-width:5;stroke-linecap:butt;stroke-linejoin:miter;stroke-opacity:1;stroke-miterlimit:4;stroke-dasharray:none" />
  <path
     style="fill:none;stroke:#d91100;stroke-width:2;stroke-linecap:butt;stroke-linejoin:miter;stroke-opacity:1;stroke-miterlimit:4;stroke-dasharray:6, 2;stroke-dashoffset:0"
     d="m 1146.5967,894.21858 -29.2421,-454.0215"
     id="path3116"
     inkscape:connector-curvature="0" />
  <path
     style="fill:none;stroke:#d91100;stroke-width:2;stroke-linecap:butt;stroke-linejoin:miter;stroke-opacity:1;stroke-miterlimit:4;stroke-dasharray:6, 2;stroke-dashoffset:0"
     d="M 1761.582,1297.4512 1969.3546,440.19708"
     id="path3118"
     inkscape:connector-curvature="0" />
  <path
     style="fill:none;stroke:#d91100;stroke-width:2;stroke-linecap:butt;stroke-linejoin:miter;stroke-opacity:1;stroke-miterlimit:4;stroke-dasharray:6, 2;stroke-dashoffset:0"
     d="m 1969.3546,440.19708 49.2498,714.12192"
     id="path3120"
     inkscape:connector-curvature="0" />
  <path
     style="fill:none;stroke:#d91100;stroke-width:2;stroke-linecap:butt;stroke-linejoin:miter;stroke-miterlimit:4;stroke-dasharray:none;stroke-opacity:1"
     d="M 2064.8855,567.65807 1763.0116,1296.8594"
     id="path3126"
     inkscape:connector-curvature="0" />
  <path
     style="fill:none;stroke:#000000;stroke-width:5;stroke-linecap:butt;stroke-linejoin:miter;stroke-miterlimit:4;stroke-dasharray:none;stroke-opacity:1"
     d="m 1743.1134,531.00138 481.7245,58.48413"
     id="path3130"
     inkscape:connector-curvature="0" />
  <path
     style="fill:none;stroke:#000000;stroke-width:5;stroke-linecap:butt;stroke-linejoin:miter;stroke-miterlimit:4;stroke-dasharray:none;stroke-opacity:1"
     d="m 1770.8164,418.6503 389.3811,32.32017"
     id="path3134"
     inkscape:connector-curvature="0" />
  <g
     transform="matrix(0.3,0,0,0.3,1983.6092,238.77556)"
     id="g3160">
    <g
       style="font-style:normal;font-variant:normal;font-weight:normal;font-stretch:normal;letter-spacing:normal;word-spacing:normal;text-anchor:start;fill:none;fill-opacity:1;fill-rule:evenodd;stroke:#000000;stroke-linecap:butt;stroke-linejoin:miter;stroke-miterlimit:10.43299961;stroke-dasharray:none;stroke-dashoffset:0;stroke-opacity:1"
       word-spacing="normal"
       letter-spacing="normal"
       font-size-adjust="none"
       font-stretch="normal"
       font-weight="normal"
       font-variant="normal"
       font-style="normal"
       stroke-miterlimit="10.433"
       xml:space="preserve"
       transform="matrix(2.9352381,0,0,-2.9352381,-513.66668,2405)"
       id="g3158"><path
         style="fill:#000000;stroke-width:0"
         inkscape:connector-curvature="0"
         id="path3148"
         d="m 472,394.25 v 0.02 0.03 0.01 0.02 0.01 l -0.01,0.02 v 0.01 l -0.01,0.02 -0.01,0.02 -0.01,0.02 -0.01,0.02 -0.02,0.03 -0.01,0.02 -0.02,0.03 -0.02,0.03 -0.03,0.03 -0.02,0.03 -0.03,0.04 -0.02,0.02 -0.01,0.02 -0.02,0.02 -0.02,0.02 -0.02,0.02 -0.02,0.03 -0.02,0.02 -0.02,0.02 -0.02,0.03 -0.03,0.02 -0.02,0.03 -0.03,0.03 -0.03,0.03 -0.02,0.03 -0.03,0.03 -0.03,0.03 -0.03,0.03 -0.03,0.03 -0.04,0.04 -0.03,0.03 -0.04,0.04 -0.03,0.03 -0.04,0.04 -0.04,0.04 c -6.22,6.28 -7.81,15.69 -7.81,23.31 0,8.67 1.89,17.35 8.01,23.56 0.64,0.61 0.64,0.71 0.64,0.86 0,0.35 -0.18,0.49 -0.48,0.49 -0.5,0 -4.98,-3.38 -7.92,-9.7 -2.55,-5.49 -3.14,-11.02 -3.14,-15.21 0,-3.89 0.54,-9.9 3.28,-15.54 2.98,-6.13 7.28,-9.36 7.78,-9.36 0.3,0 0.48,0.14 0.48,0.5 z" /><path
         style="fill:#000000;stroke-width:0"
         inkscape:connector-curvature="0"
         id="path3150"
         d="m 494.02,434.04 0.13,-0.62 0.13,-0.64 0.14,-0.66 0.15,-0.68 0.14,-0.7 0.16,-0.72 0.32,-1.47 0.33,-1.52 0.36,-1.55 0.38,-1.57 0.39,-1.58 0.41,-1.56 0.43,-1.55 0.44,-1.51 0.46,-1.46 0.24,-0.71 0.24,-0.7 0.24,-0.67 0.25,-0.65 0.26,-0.64 0.25,-0.6 0.26,-0.59 0.27,-0.55 c 1.09,-2.14 1.64,-3.25 2.14,-3.25 0.2,0 0.3,0 1.19,0.9 3.79,3.64 6.39,6.53 9.87,10.52 l 10.91,12.7 c -0.71,-4.23 -2.49,-15.45 -2.49,-21.28 0,-1.34 0.05,-2.64 0.19,-3.98 0.06,-0.55 0.25,-1.99 2.34,-1.99 2.1,0 5.88,2.19 5.88,3.19 0,0.3 -0.3,0.34 -0.44,0.34 -0.65,0 -1.64,-0.45 -2.2,-0.79 -1.19,0.14 -1.28,0.93 -1.39,2.09 -0.14,1.59 -0.14,3.09 -0.14,3.28 0,5.53 2.19,20.63 3.62,26.81 0.07,0.35 0.11,0.44 0.11,0.85 0,0.2 -0.04,0.75 -0.4,0.75 -0.21,0 -0.25,-0.05 -1.19,-1.16 -4.69,-5.67 -19.24,-23.11 -24.17,-27.3 -1.24,2.64 -2.14,4.54 -3.88,11.52 -1.45,5.62 -2.3,9.77 -3.14,14.59 -0.16,0.71 -0.41,2.05 -0.41,2.14 -0.14,0.25 -0.39,0.25 -0.54,0.25 -0.89,0 -2.99,-1.09 -3.14,-2.14 -0.6,-4.18 -1.6,-10.76 -5.08,-20.28 -3.99,-10.61 -5.08,-10.61 -6.03,-10.61 -0.64,0 -2.49,0.39 -3.58,1.39 -0.25,0.25 -0.36,0.25 -0.45,0.25 -0.71,0 -1.8,-2.23 -1.8,-3.64 0,-0.43 0,-1.04 1.59,-1.89 1.25,-0.64 2.44,-0.69 2.69,-0.69 3.09,0 6.03,7.13 7.03,9.66 2.35,5.63 5.13,13.5 6.53,20.67 z" /><path
         style="fill:#000000;stroke-width:0"
         inkscape:connector-curvature="0"
         id="path3152"
         d="m 544.83,440.65 0.02,0.06 0.03,0.05 0.02,0.05 0.02,0.05 0.02,0.04 0.02,0.05 0.02,0.04 0.02,0.04 0.01,0.05 0.02,0.04 0.01,0.03 0.01,0.04 0.01,0.04 0.01,0.03 0.01,0.04 0.01,0.03 0.01,0.03 v 0.03 l 0.01,0.03 0.01,0.03 v 0.03 0.03 l 0.01,0.03 v 0.02 l 0.01,0.06 v 0.05 0.04 0.05 c 0,1.08 -0.98,1.92 -2.06,1.92 -1.33,0 -1.74,-1.09 -1.91,-1.64 l -4.61,-15.09 c -0.03,-0.06 -0.17,-0.52 -0.17,-0.56 0,-0.41 1.08,-0.77 1.36,-0.77 0.25,0 0.28,0.08 0.52,0.59 z" /><path
         style="fill:#000000;stroke-width:0"
         inkscape:connector-curvature="0"
         id="path3154"
         d="m 552.31,400.18 h -1.19 c -0.09,-0.76 -0.45,-2.82 -0.9,-3.17 -0.27,-0.2 -2.95,-0.2 -3.44,-0.2 h -6.42 c 3.66,3.23 4.87,4.2 6.97,5.84 2.58,2.06 4.98,4.22 4.98,7.53 0,4.22 -3.69,6.8 -8.15,6.8 -4.32,0 -7.25,-3.03 -7.25,-6.23 0,-1.79 1.5,-1.96 1.86,-1.96 0.82,0 1.84,0.6 1.84,1.85 0,0.62 -0.25,1.84 -2.06,1.84 1.07,2.47 3.45,3.23 5.09,3.23 3.48,0 5.3,-2.7 5.3,-5.53 0,-3.03 -2.16,-5.43 -3.28,-6.68 l -8.39,-8.3 c -0.36,-0.31 -0.36,-0.39 -0.36,-1.36 h 14.36 z" /><path
         style="fill:#000000;stroke-width:0"
         inkscape:connector-curvature="0"
         id="path3156"
         d="m 571.55,418.65 v 0.37 l -0.01,0.39 v 0.39 l -0.02,0.41 -0.04,0.84 -0.06,0.88 -0.08,0.92 -0.11,0.95 -0.13,0.97 -0.16,1.01 -0.2,1.02 -0.23,1.03 -0.27,1.05 -0.3,1.06 -0.35,1.07 -0.39,1.07 -0.22,0.53 -0.22,0.53 -0.24,0.53 -0.25,0.53 c -2.99,6.12 -7.27,9.36 -7.77,9.36 -0.29,0 -0.5,-0.19 -0.5,-0.49 0,-0.15 0,-0.25 0.94,-1.15 4.89,-4.92 7.74,-12.85 7.74,-23.27 0,-8.51 -1.85,-17.28 -8.03,-23.56 -0.65,-0.59 -0.65,-0.7 -0.65,-0.84 0,-0.3 0.21,-0.5 0.5,-0.5 0.5,0 4.97,3.39 7.93,9.71 2.53,5.47 3.12,11 3.12,15.19 z" /></g>  </g>
  <g
     transform="matrix(0.3,0,0,0.3,1922.6657,90.893187)"
     id="g3172">
    <g
       style="font-style:normal;font-variant:normal;font-weight:normal;font-stretch:normal;letter-spacing:normal;word-spacing:normal;text-anchor:start;fill:none;fill-opacity:1;fill-rule:evenodd;stroke:#000000;stroke-linecap:butt;stroke-linejoin:miter;stroke-miterlimit:10.43299961;stroke-dasharray:none;stroke-dashoffset:0;stroke-opacity:1"
       id="g3170"
       transform="matrix(2.9352381,0,0,-2.9352381,-513.66668,2405)"
       xml:space="preserve"
       stroke-miterlimit="10.433"
       font-style="normal"
       font-variant="normal"
       font-weight="normal"
       font-stretch="normal"
       font-size-adjust="none"
       letter-spacing="normal"
       word-spacing="normal"><path
         style="fill:#000000;stroke-width:0"
         inkscape:connector-curvature="0"
         d="m 472,394.25 v 0.02 0.03 0.01 0.02 0.01 l -0.01,0.02 v 0.01 l -0.01,0.02 -0.01,0.02 -0.01,0.02 -0.01,0.02 -0.02,0.03 -0.01,0.02 -0.02,0.03 -0.02,0.03 -0.03,0.03 -0.02,0.03 -0.03,0.04 -0.02,0.02 -0.01,0.02 -0.02,0.02 -0.02,0.02 -0.02,0.02 -0.02,0.03 -0.02,0.02 -0.02,0.02 -0.02,0.03 -0.03,0.02 -0.02,0.03 -0.03,0.03 -0.03,0.03 -0.02,0.03 -0.03,0.03 -0.03,0.03 -0.03,0.03 -0.03,0.03 -0.04,0.04 -0.03,0.03 -0.04,0.04 -0.03,0.03 -0.04,0.04 -0.04,0.04 c -6.22,6.28 -7.81,15.69 -7.81,23.31 0,8.67 1.89,17.35 8.01,23.56 0.64,0.61 0.64,0.71 0.64,0.86 0,0.35 -0.18,0.49 -0.48,0.49 -0.5,0 -4.98,-3.38 -7.92,-9.7 -2.55,-5.49 -3.14,-11.02 -3.14,-15.21 0,-3.89 0.54,-9.9 3.28,-15.54 2.98,-6.13 7.28,-9.36 7.78,-9.36 0.3,0 0.48,0.14 0.48,0.5 z"
         id="path3162" /><path
         style="fill:#000000;stroke-width:0"
         inkscape:connector-curvature="0"
         d="m 494.02,434.04 0.13,-0.62 0.13,-0.64 0.14,-0.66 0.15,-0.68 0.14,-0.7 0.16,-0.72 0.32,-1.47 0.33,-1.52 0.36,-1.55 0.38,-1.57 0.39,-1.58 0.41,-1.56 0.43,-1.55 0.44,-1.51 0.46,-1.46 0.24,-0.71 0.24,-0.7 0.24,-0.67 0.25,-0.65 0.26,-0.64 0.25,-0.6 0.26,-0.59 0.27,-0.55 c 1.09,-2.14 1.64,-3.25 2.14,-3.25 0.2,0 0.3,0 1.19,0.9 3.79,3.64 6.39,6.53 9.87,10.52 l 10.91,12.7 c -0.71,-4.23 -2.49,-15.45 -2.49,-21.28 0,-1.34 0.05,-2.64 0.19,-3.98 0.06,-0.55 0.25,-1.99 2.34,-1.99 2.1,0 5.88,2.19 5.88,3.19 0,0.3 -0.3,0.34 -0.44,0.34 -0.65,0 -1.64,-0.45 -2.2,-0.79 -1.19,0.14 -1.28,0.93 -1.39,2.09 -0.14,1.59 -0.14,3.09 -0.14,3.28 0,5.53 2.19,20.63 3.62,26.81 0.07,0.35 0.11,0.44 0.11,0.85 0,0.2 -0.04,0.75 -0.4,0.75 -0.21,0 -0.25,-0.05 -1.19,-1.16 -4.69,-5.67 -19.24,-23.11 -24.17,-27.3 -1.24,2.64 -2.14,4.54 -3.88,11.52 -1.45,5.62 -2.3,9.77 -3.14,14.59 -0.16,0.71 -0.41,2.05 -0.41,2.14 -0.14,0.25 -0.39,0.25 -0.54,0.25 -0.89,0 -2.99,-1.09 -3.14,-2.14 -0.6,-4.18 -1.6,-10.76 -5.08,-20.28 -3.99,-10.61 -5.08,-10.61 -6.03,-10.61 -0.64,0 -2.49,0.39 -3.58,1.39 -0.25,0.25 -0.36,0.25 -0.45,0.25 -0.71,0 -1.8,-2.23 -1.8,-3.64 0,-0.43 0,-1.04 1.59,-1.89 1.25,-0.64 2.44,-0.69 2.69,-0.69 3.09,0 6.03,7.13 7.03,9.66 2.35,5.63 5.13,13.5 6.53,20.67 z"
         id="path3164" /><path
         style="fill:#000000;stroke-width:0"
         inkscape:connector-curvature="0"
         d="m 546.39,420.92 v 0.04 0.04 0.05 0.04 0.03 0.04 0.04 0.03 l -0.01,0.04 v 0.03 0.03 0.03 0.03 l -0.01,0.03 v 0.03 0.02 l -0.01,0.03 v 0.02 l -0.01,0.03 v 0.02 l -0.02,0.04 -0.01,0.04 -0.02,0.03 -0.02,0.03 -0.02,0.03 -0.02,0.03 -0.03,0.02 -0.03,0.02 -0.04,0.02 -0.03,0.01 -0.04,0.01 -0.05,0.02 H 546 545.97 l -0.02,0.01 h -0.03 l -0.02,0.01 h -0.03 -0.03 -0.03 -0.04 l -0.03,0.01 h -0.03 -0.04 -0.04 -0.03 -0.04 -0.04 -0.04 -0.05 -0.04 -0.05 c -2.23,-2.2 -5.39,-2.23 -6.82,-2.23 v -1.25 c 0.84,0 3.14,0 5.04,0.97 v -17.77 c 0,-1.16 0,-1.61 -3.48,-1.61 h -1.31 v -1.25 c 0.62,0.03 4.9,0.14 6.2,0.14 1.08,0 5.47,-0.11 6.23,-0.14 v 1.25 h -1.32 c -3.49,0 -3.49,0.45 -3.49,1.61 z"
         id="path3166" /><path
         style="fill:#000000;stroke-width:0"
         inkscape:connector-curvature="0"
         d="m 571.55,418.65 v 0.37 l -0.01,0.39 v 0.39 l -0.02,0.41 -0.04,0.84 -0.06,0.88 -0.08,0.92 -0.11,0.95 -0.13,0.97 -0.16,1.01 -0.2,1.02 -0.23,1.03 -0.27,1.05 -0.3,1.06 -0.35,1.07 -0.39,1.07 -0.22,0.53 -0.22,0.53 -0.24,0.53 -0.25,0.53 c -2.99,6.12 -7.27,9.36 -7.77,9.36 -0.29,0 -0.5,-0.19 -0.5,-0.49 0,-0.15 0,-0.25 0.94,-1.15 4.89,-4.92 7.74,-12.85 7.74,-23.27 0,-8.51 -1.85,-17.28 -8.03,-23.56 -0.65,-0.59 -0.65,-0.7 -0.65,-0.84 0,-0.3 0.21,-0.5 0.5,-0.5 0.5,0 4.97,3.39 7.93,9.71 2.53,5.47 3.12,11 3.12,15.19 z"
         id="path3168" /></g>  </g>
  <g
     transform="matrix(0.3,0,0,0.3,1774.1008,826.2467)"
     id="g3264">
    <g
       style="font-style:normal;font-variant:normal;font-weight:normal;font-stretch:normal;letter-spacing:normal;word-spacing:normal;text-anchor:start;fill:none;fill-opacity:1;fill-rule:evenodd;stroke:#000000;stroke-linecap:butt;stroke-linejoin:miter;stroke-miterlimit:10.43299961;stroke-dasharray:none;stroke-dashoffset:0;stroke-opacity:1"
       id="g3262"
       transform="matrix(2.9352381,0,0,-2.9352381,-513.66668,2405)"
       xml:space="preserve"
       stroke-miterlimit="10.433"
       font-style="normal"
       font-variant="normal"
       font-weight="normal"
       font-stretch="normal"
       font-size-adjust="none"
       letter-spacing="normal"
       word-spacing="normal"><path
         style="fill:#000000;stroke-width:0"
         inkscape:connector-curvature="0"
         d="m 472.91,425.53 -6.37,1.54 c -3.1,0.75 -5.04,3.44 -5.04,6.33 0,3.49 2.69,6.53 6.58,6.53 8.31,0 9.41,-8.17 9.71,-10.42 0.04,-0.3 0.04,-0.59 0.6,-0.59 0.65,0 0.65,0.25 0.65,1.2 v 10 c 0,0.86 0,1.2 -0.55,1.2 -0.35,0 -0.41,-0.04 -0.75,-0.65 L 476,437.84 c -1.5,1.44 -3.54,3.48 -7.98,3.48 -5.53,0 -9.7,-4.39 -9.7,-9.67 0,-4.12 2.64,-7.76 6.51,-9.11 0.55,-0.2 3.1,-0.79 6.58,-1.64 1.34,-0.36 2.84,-0.7 4.23,-2.54 1.05,-1.3 1.55,-2.94 1.55,-4.58 0,-3.55 -2.48,-7.13 -6.67,-7.13 -1.45,0 -5.23,0.25 -7.88,2.69 -2.89,2.69 -3.04,5.87 -3.09,7.67 -0.05,0.5 -0.44,0.5 -0.59,0.5 -0.64,0 -0.64,-0.36 -0.64,-1.25 v -9.97 c 0,-0.84 0,-1.18 0.54,-1.18 0.35,0 0.39,0.09 0.74,0.64 0,0.04 0.15,0.2 1.79,2.84 1.55,-1.69 4.74,-3.48 9.18,-3.48 5.82,0 9.81,4.87 9.81,10.35 0,4.99 -3.28,9.07 -7.47,10.07 z"
         id="path3258" /><path
         style="fill:#000000;stroke-width:0"
         inkscape:connector-curvature="0"
         d="m 493.5,435.54 v 0.28 l -0.01,0.27 -0.02,0.27 -0.02,0.26 -0.03,0.26 -0.04,0.25 -0.05,0.25 -0.05,0.24 -0.06,0.23 -0.06,0.23 -0.07,0.22 -0.08,0.21 -0.08,0.2 -0.09,0.2 -0.1,0.19 -0.11,0.18 -0.1,0.17 -0.12,0.16 -0.12,0.15 -0.13,0.15 -0.14,0.13 -0.14,0.12 -0.14,0.12 -0.15,0.1 -0.16,0.09 -0.17,0.08 -0.17,0.07 -0.17,0.05 -0.18,0.05 -0.19,0.03 -0.19,0.02 -0.2,0.01 c -1.73,0 -2.64,-1.35 -2.64,-2.64 0,-1.3 0.84,-2.64 2.64,-2.64 1,0 1.7,0.5 2,0.79 0.05,0.1 0.09,0.14 0.14,0.14 0.11,0 0.11,-0.68 0.11,-0.89 0,-1.59 -0.36,-5.18 -3.5,-8.26 -0.59,-0.6 -0.59,-0.71 -0.59,-0.85 0,-0.36 0.25,-0.56 0.5,-0.56 0.54,0 4.68,3.8 4.68,9.67 z"
         id="path3260" /></g>  </g>
  <path
     inkscape:connector-curvature="0"
     id="path3336"
     d="M 2064.8855,567.65807 2018.6044,1154.319"
     style="fill:none;stroke:#d91100;stroke-width:2;stroke-linecap:butt;stroke-linejoin:miter;stroke-opacity:1;stroke-miterlimit:4;stroke-dasharray:none" />
  <g
     id="g3416"
     transform="matrix(0.3,0,0,0.3,617.80801,935.51967)">
    <g
       word-spacing="normal"
       letter-spacing="normal"
       font-size-adjust="none"
       font-stretch="normal"
       font-weight="normal"
       font-variant="normal"
       font-style="normal"
       stroke-miterlimit="10.433"
       xml:space="preserve"
       transform="matrix(2.9352381,0,0,-2.9352381,-513.66668,2405)"
       id="g3414"
       style="font-style:normal;font-variant:normal;font-weight:normal;font-stretch:normal;letter-spacing:normal;word-spacing:normal;text-anchor:start;fill:none;fill-opacity:1;fill-rule:evenodd;stroke:#000000;stroke-linecap:butt;stroke-linejoin:miter;stroke-miterlimit:10.43299961;stroke-dasharray:none;stroke-dashoffset:0;stroke-opacity:1"><path
         id="path3412"
         d="m 466.83,421.95 -0.15,1.28 v 13.45 c 0,1.66 0.11,2 2.43,2 h 4.44 c 7.92,0 7.92,-5.28 7.92,-7.72 0,-2.34 0,-7.73 -7.92,-7.73 h -6.87 l 0.15,-1.28 h 8.42 c 5.97,0 11.36,4.03 11.36,9.01 0,4.88 -4.93,9.27 -11.76,9.27 h -17.58 v -1.55 h 1.19 c 3.84,0 3.93,-0.54 3.93,-2.34 v -26.25 c 0,-1.8 -0.09,-2.34 -3.93,-2.34 h -1.19 v -1.55 c 1.73,0.16 5.42,0.16 7.31,0.16 1.89,0 5.64,0 7.38,-0.16 v 1.55 h -1.19 c -3.84,0 -3.94,0.54 -3.94,2.34 z"
         inkscape:connector-curvature="0"
         style="fill:#000000;stroke-width:0" /></g>  </g>
  <g
     transform="matrix(0.3,0,0,0.3,1471.984,935.51967)"
     id="g3480">
    <g
       style="font-style:normal;font-variant:normal;font-weight:normal;font-stretch:normal;letter-spacing:normal;word-spacing:normal;text-anchor:start;fill:none;fill-opacity:1;fill-rule:evenodd;stroke:#000000;stroke-linecap:butt;stroke-linejoin:miter;stroke-miterlimit:10.43299961;stroke-dasharray:none;stroke-dashoffset:0;stroke-opacity:1"
       id="g3478"
       transform="matrix(2.9352381,0,0,-2.9352381,-513.66668,2405)"
       xml:space="preserve"
       stroke-miterlimit="10.433"
       font-style="normal"
       font-variant="normal"
       font-weight="normal"
       font-stretch="normal"
       font-size-adjust="none"
       letter-spacing="normal"
       word-spacing="normal"><path
         style="fill:#000000;stroke-width:0"
         inkscape:connector-curvature="0"
         d="m 466.83,421.95 -0.15,1.28 v 13.45 c 0,1.66 0.11,2 2.43,2 h 4.44 c 7.92,0 7.92,-5.28 7.92,-7.72 0,-2.34 0,-7.73 -7.92,-7.73 h -6.87 l 0.15,-1.28 h 8.42 c 5.97,0 11.36,4.03 11.36,9.01 0,4.88 -4.93,9.27 -11.76,9.27 h -17.58 v -1.55 h 1.19 c 3.84,0 3.93,-0.54 3.93,-2.34 v -26.25 c 0,-1.8 -0.09,-2.34 -3.93,-2.34 h -1.19 v -1.55 c 1.73,0.16 5.42,0.16 7.31,0.16 1.89,0 5.64,0 7.38,-0.16 v 1.55 h -1.19 c -3.84,0 -3.94,0.54 -3.94,2.34 z"
         id="path3476" /></g>  </g>
</svg>
