<?xml version="1.0" encoding="UTF-8" standalone="no"?>
<!-- Created with Inkscape (http://www.inkscape.org/) -->

<svg
   width="210mm"
   height="297mm"
   viewBox="0 0 210 297"
   version="1.1"
   id="svg8"
   inkscape:version="1.3.2 (1:1.3.2+202311252150+091e20ef0f)"
   sodipodi:docname="solenoide.svg"
   xmlns:inkscape="http://www.inkscape.org/namespaces/inkscape"
   xmlns:sodipodi="http://sodipodi.sourceforge.net/DTD/sodipodi-0.dtd"
   xmlns="http://www.w3.org/2000/svg"
   xmlns:svg="http://www.w3.org/2000/svg"
   xmlns:rdf="http://www.w3.org/1999/02/22-rdf-syntax-ns#"
   xmlns:cc="http://creativecommons.org/ns#"
   xmlns:dc="http://purl.org/dc/elements/1.1/">
  <sodipodi:namedview
     id="base"
     pagecolor="#ffffff"
     bordercolor="#666666"
     borderopacity="1.0"
     inkscape:pageopacity="0.0"
     inkscape:pageshadow="2"
     inkscape:zoom="1.4"
     inkscape:cx="227.5"
     inkscape:cy="617.5"
     inkscape:document-units="mm"
     inkscape:current-layer="layer1"
     showgrid="false"
     inkscape:window-width="3440"
     inkscape:window-height="1364"
     inkscape:window-x="0"
     inkscape:window-y="0"
     inkscape:window-maximized="1"
     inkscape:showpageshadow="0"
     inkscape:pagecheckerboard="0"
     inkscape:deskcolor="#d1d1d1" />
  <defs
     id="defs2">
    <marker
       inkscape:stockid="Arrow2Lstart"
       orient="auto"
       refY="0.0"
       refX="0.0"
       id="marker3520"
       style="overflow:visible"
       inkscape:isstock="true">
      <path
         id="path3518"
         style="fill-rule:evenodd;stroke-width:0.625;stroke-linejoin:round;stroke:#000000;stroke-opacity:1;fill:#000000;fill-opacity:1"
         d="M 8.7185878,4.0337352 L -2.2072895,0.016013256 L 8.7185884,-4.0017078 C 6.9730900,-1.6296469 6.9831476,1.6157441 8.7185878,4.0337352 z "
         transform="scale(1.1) translate(1,0)" />
    </marker>
    <marker
       inkscape:isstock="true"
       style="overflow:visible;"
       id="marker3192"
       refX="0.0"
       refY="0.0"
       orient="auto"
       inkscape:stockid="Arrow2Lend">
      <path
         transform="scale(1.1) rotate(180) translate(1,0)"
         d="M 8.7185878,4.0337352 L -2.2072895,0.016013256 L 8.7185884,-4.0017078 C 6.9730900,-1.6296469 6.9831476,1.6157441 8.7185878,4.0337352 z "
         style="fill-rule:evenodd;stroke-width:0.625;stroke-linejoin:round;stroke:#000000;stroke-opacity:1;fill:#000000;fill-opacity:1"
         id="path3190" />
    </marker>
    <marker
       inkscape:isstock="true"
       style="overflow:visible;"
       id="marker2329"
       refX="0.0"
       refY="0.0"
       orient="auto"
       inkscape:stockid="Arrow2Lend">
      <path
         transform="scale(1.1) rotate(180) translate(1,0)"
         d="M 8.7185878,4.0337352 L -2.2072895,0.016013256 L 8.7185884,-4.0017078 C 6.9730900,-1.6296469 6.9831476,1.6157441 8.7185878,4.0337352 z "
         style="fill-rule:evenodd;stroke-width:0.625;stroke-linejoin:round;stroke:#ff0000;stroke-opacity:1;fill:#ff0000;fill-opacity:1"
         id="path2327" />
    </marker>
    <marker
       inkscape:stockid="Arrow2Lstart"
       orient="auto"
       refY="0.0"
       refX="0.0"
       id="Arrow2Lstart"
       style="overflow:visible"
       inkscape:isstock="true">
      <path
         id="path891"
         style="fill-rule:evenodd;stroke-width:0.625;stroke-linejoin:round;stroke:#ff0000;stroke-opacity:1;fill:#ff0000;fill-opacity:1"
         d="M 8.7185878,4.0337352 L -2.2072895,0.016013256 L 8.7185884,-4.0017078 C 6.9730900,-1.6296469 6.9831476,1.6157441 8.7185878,4.0337352 z "
         transform="scale(1.1) translate(1,0)" />
    </marker>
    <marker
       inkscape:stockid="Arrow2Lend"
       orient="auto"
       refY="0.0"
       refX="0.0"
       id="marker2153"
       style="overflow:visible;"
       inkscape:isstock="true">
      <path
         id="path2151"
         style="fill-rule:evenodd;stroke-width:0.625;stroke-linejoin:round;stroke:#d45500;stroke-opacity:1;fill:#d45500;fill-opacity:1"
         d="M 8.7185878,4.0337352 L -2.2072895,0.016013256 L 8.7185884,-4.0017078 C 6.9730900,-1.6296469 6.9831476,1.6157441 8.7185878,4.0337352 z "
         transform="scale(1.1) rotate(180) translate(1,0)" />
    </marker>
    <marker
       inkscape:isstock="true"
       style="overflow:visible;"
       id="marker2075"
       refX="0.0"
       refY="0.0"
       orient="auto"
       inkscape:stockid="Arrow2Lend"
       inkscape:collect="always">
      <path
         transform="scale(1.1) rotate(180) translate(1,0)"
         d="M 8.7185878,4.0337352 L -2.2072895,0.016013256 L 8.7185884,-4.0017078 C 6.9730900,-1.6296469 6.9831476,1.6157441 8.7185878,4.0337352 z "
         style="fill-rule:evenodd;stroke-width:0.625;stroke-linejoin:round;stroke:#d45500;stroke-opacity:1;fill:#d45500;fill-opacity:1"
         id="path2073" />
    </marker>
    <marker
       inkscape:stockid="Arrow2Lend"
       orient="auto"
       refY="0.0"
       refX="0.0"
       id="marker2003"
       style="overflow:visible;"
       inkscape:isstock="true"
       inkscape:collect="always">
      <path
         id="path2001"
         style="fill-rule:evenodd;stroke-width:0.625;stroke-linejoin:round;stroke:#d45500;stroke-opacity:1;fill:#d45500;fill-opacity:1"
         d="M 8.7185878,4.0337352 L -2.2072895,0.016013256 L 8.7185884,-4.0017078 C 6.9730900,-1.6296469 6.9831476,1.6157441 8.7185878,4.0337352 z "
         transform="scale(1.1) rotate(180) translate(1,0)" />
    </marker>
    <marker
       inkscape:isstock="true"
       style="overflow:visible;"
       id="marker1937"
       refX="0.0"
       refY="0.0"
       orient="auto"
       inkscape:stockid="Arrow2Lend"
       inkscape:collect="always">
      <path
         transform="scale(1.1) rotate(180) translate(1,0)"
         d="M 8.7185878,4.0337352 L -2.2072895,0.016013256 L 8.7185884,-4.0017078 C 6.9730900,-1.6296469 6.9831476,1.6157441 8.7185878,4.0337352 z "
         style="fill-rule:evenodd;stroke-width:0.625;stroke-linejoin:round;stroke:#d45500;stroke-opacity:1;fill:#d45500;fill-opacity:1"
         id="path1935" />
    </marker>
    <marker
       inkscape:stockid="Arrow2Lend"
       orient="auto"
       refY="0.0"
       refX="0.0"
       id="marker1877"
       style="overflow:visible;"
       inkscape:isstock="true"
       inkscape:collect="always">
      <path
         id="path1875"
         style="fill-rule:evenodd;stroke-width:0.625;stroke-linejoin:round;stroke:#d45500;stroke-opacity:1;fill:#d45500;fill-opacity:1"
         d="M 8.7185878,4.0337352 L -2.2072895,0.016013256 L 8.7185884,-4.0017078 C 6.9730900,-1.6296469 6.9831476,1.6157441 8.7185878,4.0337352 z "
         transform="scale(1.1) rotate(180) translate(1,0)" />
    </marker>
    <marker
       inkscape:isstock="true"
       style="overflow:visible;"
       id="marker1823"
       refX="0.0"
       refY="0.0"
       orient="auto"
       inkscape:stockid="Arrow2Lend"
       inkscape:collect="always">
      <path
         transform="scale(1.1) rotate(180) translate(1,0)"
         d="M 8.7185878,4.0337352 L -2.2072895,0.016013256 L 8.7185884,-4.0017078 C 6.9730900,-1.6296469 6.9831476,1.6157441 8.7185878,4.0337352 z "
         style="fill-rule:evenodd;stroke-width:0.625;stroke-linejoin:round;stroke:#d45500;stroke-opacity:1;fill:#d45500;fill-opacity:1"
         id="path1821" />
    </marker>
    <marker
       inkscape:stockid="Arrow2Lend"
       orient="auto"
       refY="0.0"
       refX="0.0"
       id="marker1775"
       style="overflow:visible;"
       inkscape:isstock="true"
       inkscape:collect="always">
      <path
         id="path1773"
         style="fill-rule:evenodd;stroke-width:0.625;stroke-linejoin:round;stroke:#d45500;stroke-opacity:1;fill:#d45500;fill-opacity:1"
         d="M 8.7185878,4.0337352 L -2.2072895,0.016013256 L 8.7185884,-4.0017078 C 6.9730900,-1.6296469 6.9831476,1.6157441 8.7185878,4.0337352 z "
         transform="scale(1.1) rotate(180) translate(1,0)" />
    </marker>
    <marker
       inkscape:stockid="Arrow2Lend"
       orient="auto"
       refY="0.0"
       refX="0.0"
       id="marker1721"
       style="overflow:visible;"
       inkscape:isstock="true">
      <path
         id="path1719"
         style="fill-rule:evenodd;stroke-width:0.625;stroke-linejoin:round;stroke:#d45500;stroke-opacity:1;fill:#d45500;fill-opacity:1"
         d="M 8.7185878,4.0337352 L -2.2072895,0.016013256 L 8.7185884,-4.0017078 C 6.9730900,-1.6296469 6.9831476,1.6157441 8.7185878,4.0337352 z "
         transform="scale(1.1) rotate(180) translate(1,0)" />
    </marker>
    <marker
       inkscape:isstock="true"
       style="overflow:visible;"
       id="marker1253"
       refX="0.0"
       refY="0.0"
       orient="auto"
       inkscape:stockid="Arrow2Lend"
       inkscape:collect="always">
      <path
         transform="scale(1.1) rotate(180) translate(1,0)"
         d="M 8.7185878,4.0337352 L -2.2072895,0.016013256 L 8.7185884,-4.0017078 C 6.9730900,-1.6296469 6.9831476,1.6157441 8.7185878,4.0337352 z "
         style="fill-rule:evenodd;stroke-width:0.625;stroke-linejoin:round;stroke:#d45500;stroke-opacity:1;fill:#d45500;fill-opacity:1"
         id="path1251" />
    </marker>
    <marker
       inkscape:stockid="Arrow2Lend"
       orient="auto"
       refY="0.0"
       refX="0.0"
       id="Arrow2Lend"
       style="overflow:visible;"
       inkscape:isstock="true"
       inkscape:collect="always">
      <path
         id="path894"
         style="fill-rule:evenodd;stroke-width:0.625;stroke-linejoin:round;stroke:#000000;stroke-opacity:1;fill:#000000;fill-opacity:1"
         d="M 8.7185878,4.0337352 L -2.2072895,0.016013256 L 8.7185884,-4.0017078 C 6.9730900,-1.6296469 6.9831476,1.6157441 8.7185878,4.0337352 z "
         transform="scale(1.1) rotate(180) translate(1,0)" />
    </marker>
  </defs>
  <metadata
     id="metadata5">
    <rdf:RDF>
      <cc:Work
         rdf:about="">
        <dc:format>image/svg+xml</dc:format>
        <dc:type
           rdf:resource="http://purl.org/dc/dcmitype/StillImage" />
        <dc:title />
      </cc:Work>
    </rdf:RDF>
  </metadata>
  <g
     inkscape:label="Calque 1"
     inkscape:groupmode="layer"
     id="layer1">
    <path
       inkscape:connector-curvature="0"
       id="path869"
       d="M 119.82899,115.97201 H 22.00834"
       style="fill:none;stroke:#000000;stroke-width:0.264583;stroke-linecap:butt;stroke-linejoin:miter;stroke-miterlimit:4;stroke-dasharray:0.79375, 0.79375;stroke-dashoffset:0;stroke-opacity:1"
       inkscape:export-filename="solenoide.pdf"
       inkscape:export-xdpi="96"
       inkscape:export-ydpi="96" />
    <g
       id="g1190"
       transform="matrix(0.48999999,0,0,0.48999999,92.389114,67.861748)"
       style="stroke-width:2.04082">
      <g
         word-spacing="normal"
         letter-spacing="normal"
         font-size-adjust="none"
         font-stretch="normal"
         font-weight="normal"
         font-variant="normal"
         font-style="normal"
         stroke-miterlimit="10.433"
         xml:space="preserve"
         transform="matrix(0.3,0,0,-0.3,-52.5,222.75)"
         id="content"
         style="font-style:normal;font-variant:normal;font-weight:normal;font-stretch:normal;letter-spacing:normal;word-spacing:normal;text-anchor:start;fill:none;fill-opacity:1;fill-rule:evenodd;stroke:#000000;stroke-width:2.04082;stroke-linecap:butt;stroke-linejoin:miter;stroke-miterlimit:10.433;stroke-dasharray:none;stroke-dashoffset:0;stroke-opacity:1"><path
           id="path1183"
           d="m 489.11,435.84 -0.07,-0.06 -0.07,-0.07 -0.08,-0.07 -0.08,-0.07 -0.08,-0.08 -0.09,-0.08 -0.09,-0.09 -0.1,-0.08 -0.09,-0.09 -0.1,-0.1 -0.19,-0.19 -0.2,-0.19 -0.19,-0.21 -0.09,-0.1 -0.09,-0.1 -0.09,-0.1 -0.08,-0.11 -0.08,-0.1 -0.08,-0.1 -0.07,-0.1 -0.06,-0.1 -0.06,-0.1 -0.06,-0.1 -0.04,-0.1 -0.04,-0.09 -0.03,-0.09 -0.03,-0.1 -0.01,-0.08 v -0.09 c 0,-0.5 0.5,-1 1,-1 0.45,0 0.7,0.36 0.95,0.66 0.59,0.75 1.73,2.14 3.94,3.23 0.34,0.21 0.84,0.46 0.84,1.05 0,0.5 -0.34,0.75 -0.7,1 -1.1,0.75 -1.64,1.64 -2.05,2.83 -0.09,0.45 -0.3,1.11 -0.98,1.11 -0.71,0 -1,-0.66 -1,-1.05 0,-0.25 0.39,-1.84 1.18,-2.89 h -16.78 c -0.84,0 -1.75,0 -1.75,-1 0,-1 0.91,-1 1.75,-1 z"
           inkscape:connector-curvature="0"
           style="fill:#000000;stroke-width:0" /><path
           id="path1185"
           d="m 464.83,417.71 0.14,0.01 h 0.16 0.16 0.18 l 0.19,0.01 h 0.2 l 0.21,0.01 0.21,0.01 0.23,0.01 0.23,0.01 0.24,0.01 0.24,0.02 0.25,0.02 0.26,0.02 0.52,0.05 0.54,0.07 0.54,0.07 0.55,0.1 0.54,0.11 0.53,0.12 0.26,0.07 0.26,0.08 0.26,0.08 0.24,0.08 0.25,0.09 0.23,0.1 c 3.49,1.5 3.74,4.43 3.74,5.12 0,2.2 -1.89,4.23 -5.33,4.23 v -1.09 c 2.34,0 3.69,-1.44 3.69,-3.14 0,-5.17 -7.97,-5.17 -10.02,-5.17 h -2.05 c 1.96,7.56 7.08,8.31 8.38,8.31 v 1.09 c -5.53,0 -13.05,-4.82 -13.05,-13.54 0,-5.08 2.94,-9.02 7.81,-9.02 7.13,0 11.32,5.28 11.32,5.88 0,0.29 -0.3,0.65 -0.6,0.65 -0.25,0 -0.34,-0.11 -0.65,-0.5 -3.94,-4.93 -9.36,-4.93 -9.96,-4.93 -3.89,0 -4.34,4.18 -4.34,5.78 0,0.59 0.05,2.14 0.8,5.18 z"
           inkscape:connector-curvature="0"
           style="fill:#000000;stroke-width:0" /><path
           id="path1187"
           d="m 484.54,401.82 0.17,0.17 0.16,0.17 0.17,0.16 0.17,0.17 0.18,0.17 0.09,0.09 0.1,0.1 0.1,0.09 0.11,0.1 0.11,0.1 0.11,0.11 0.13,0.11 0.13,0.11 0.13,0.12 0.15,0.13 0.15,0.13 0.16,0.14 0.17,0.14 0.17,0.15 0.19,0.16 0.2,0.16 0.21,0.17 0.22,0.18 0.23,0.19 0.25,0.2 0.25,0.21 0.27,0.21 c 0.74,0.6 3.35,2.69 4.36,3.66 2.13,2.09 3.46,3.87 3.46,4.29 0,0.41 -0.46,0.41 -0.6,0.41 -0.31,0 -0.42,-0.06 -0.59,-0.34 -1.08,-1.6 -1.81,-2.13 -2.64,-2.13 -0.42,0 -0.96,0.03 -2,1.05 -1.17,1.19 -1.94,1.42 -2.75,1.42 -2.78,0 -4.67,-3.03 -4.67,-4.06 0,-0.33 0.36,-0.42 0.59,-0.42 0.42,0 0.5,0.09 0.62,0.48 0.54,1.22 2.49,1.3 3.05,1.3 0.8,0 1.7,-0.22 2.19,-0.33 1.92,-0.41 2.16,-0.41 3.03,-0.41 -0.91,-0.95 -1.53,-1.57 -4.84,-4.22 -2.72,-2.15 -3.66,-3.03 -4.32,-3.73 -2.09,-2.05 -3.11,-3.58 -3.11,-3.91 0,-0.4 0.46,-0.4 0.6,-0.4 0.34,0 0.42,0.06 0.59,0.34 0.94,1.33 2.02,2.13 3.21,2.13 0.42,0 0.93,-0.03 1.87,-0.91 1.09,-1.05 1.78,-1.56 2.91,-1.56 3.72,0 6.06,4.22 6.06,5.39 0,0.42 -0.39,0.45 -0.59,0.45 -0.43,0 -0.5,-0.17 -0.63,-0.55 -0.67,-1.75 -2.72,-2.57 -4.44,-2.57 -0.79,0 -1.67,0.17 -2.53,0.37 -1.61,0.35 -1.89,0.35 -2.51,0.35 -0.08,0 -0.6,0 -0.8,-0.04 z"
           inkscape:connector-curvature="0"
           style="fill:#000000;stroke-width:0" /></g>
    </g>
    <path
       style="fill:none;fill-rule:evenodd;stroke:#d45500;stroke-width:0.5;stroke-miterlimit:4;stroke-dasharray:none"
       id="path815"
       sodipodi:type="arc"
       sodipodi:cx="-118.74277"
       sodipodi:cy="-115.75218"
       sodipodi:rx="6.6817379"
       sodipodi:ry="22.45064"
       sodipodi:start="4.689822"
       sodipodi:end="1.5695645"
       sodipodi:open="true"
       d="m -118.89354,-138.19711 a 6.6817379,22.45064 0 0 1 5.885,10.92047 6.6817379,22.45064 0 0 1 0.08,22.58717 6.6817379,22.45064 0 0 1 -5.806,11.387911"
       sodipodi:arc-type="arc"
       transform="scale(-1)" />
    <path
       style="fill:none;stroke:#000000;stroke-width:0.264583px;stroke-linecap:butt;stroke-linejoin:miter;stroke-opacity:1"
       d="M 118.89354,138.19711 H 34.43637"
       id="path819"
       inkscape:connector-curvature="0" />
    <path
       inkscape:connector-curvature="0"
       id="path821"
       d="M 119.09434,93.27676 H 34.63717"
       style="fill:none;stroke:#000000;stroke-width:0.264583px;stroke-linecap:butt;stroke-linejoin:miter;stroke-opacity:1" />
    <path
       id="ellipse825"
       style="fill:none;fill-rule:evenodd;stroke:#000000;stroke-width:0.265;stroke-miterlimit:4;stroke-dasharray:none;stroke-dashoffset:0"
       sodipodi:type="arc"
       sodipodi:cx="-119.0276"
       sodipodi:cy="-115.75099"
       sodipodi:rx="6.6817379"
       sodipodi:ry="22.45064"
       sodipodi:start="1.5998629"
       sodipodi:end="4.7324524"
       sodipodi:open="true"
       d="m -119.22179,-93.309835 a 6.6817379,22.45064 0 0 1 -6.48554,-22.992605 6.6817379,22.45064 0 0 1 6.81378,-21.89467"
       sodipodi:arc-type="arc"
       transform="scale(-1)" />
    <path
       d="m -113.89354,-138.19711 a 6.6817379,22.45064 0 0 1 5.885,10.92047 6.6817379,22.45064 0 0 1 0.08,22.58717 6.6817379,22.45064 0 0 1 -5.806,11.387911"
       sodipodi:open="true"
       sodipodi:end="1.5695645"
       sodipodi:start="4.689822"
       sodipodi:ry="22.45064"
       sodipodi:rx="6.6817379"
       sodipodi:cy="-115.75218"
       sodipodi:cx="-113.74277"
       sodipodi:type="arc"
       id="path827"
       style="fill:none;fill-rule:evenodd;stroke:#d45500;stroke-width:0.5;stroke-miterlimit:4;stroke-dasharray:none"
       sodipodi:arc-type="arc"
       transform="scale(-1)" />
    <path
       style="fill:none;fill-rule:evenodd;stroke:#d45500;stroke-width:0.5;stroke-miterlimit:4;stroke-dasharray:none"
       id="path829"
       sodipodi:type="arc"
       sodipodi:cx="-108.74277"
       sodipodi:cy="-115.75218"
       sodipodi:rx="6.6817379"
       sodipodi:ry="22.45064"
       sodipodi:start="4.689822"
       sodipodi:end="1.5695645"
       sodipodi:open="true"
       d="m -108.89354,-138.19711 a 6.6817379,22.45064 0 0 1 5.885,10.92047 6.6817379,22.45064 0 0 1 0.08,22.58717 6.6817379,22.45064 0 0 1 -5.806,11.387911"
       sodipodi:arc-type="arc"
       transform="scale(-1)" />
    <path
       d="m -103.89354,-138.19711 a 6.6817379,22.45064 0 0 1 5.885004,10.92047 6.6817379,22.45064 0 0 1 0.08,22.58717 6.6817379,22.45064 0 0 1 -5.806,11.387911"
       sodipodi:open="true"
       sodipodi:end="1.5695645"
       sodipodi:start="4.689822"
       sodipodi:ry="22.45064"
       sodipodi:rx="6.6817379"
       sodipodi:cy="-115.75218"
       sodipodi:cx="-103.74277"
       sodipodi:type="arc"
       id="path831"
       style="fill:none;fill-rule:evenodd;stroke:#d45500;stroke-width:0.5;stroke-miterlimit:4;stroke-dasharray:none"
       sodipodi:arc-type="arc"
       transform="scale(-1)" />
    <path
       d="m -98.893541,-138.19711 a 6.6817379,22.45064 0 0 1 5.885005,10.92047 6.6817379,22.45064 0 0 1 0.08,22.58717 6.6817379,22.45064 0 0 1 -5.805997,11.387911"
       sodipodi:open="true"
       sodipodi:end="1.5695645"
       sodipodi:start="4.689822"
       sodipodi:ry="22.45064"
       sodipodi:rx="6.6817379"
       sodipodi:cy="-115.75218"
       sodipodi:cx="-98.742767"
       sodipodi:type="arc"
       id="path833"
       style="fill:none;fill-rule:evenodd;stroke:#d45500;stroke-width:0.5;stroke-miterlimit:4;stroke-dasharray:none"
       sodipodi:arc-type="arc"
       transform="scale(-1)" />
    <path
       style="fill:none;fill-rule:evenodd;stroke:#d45500;stroke-width:0.5;stroke-miterlimit:4;stroke-dasharray:none"
       id="path835"
       sodipodi:type="arc"
       sodipodi:cx="-93.742767"
       sodipodi:cy="-115.75218"
       sodipodi:rx="6.6817379"
       sodipodi:ry="22.45064"
       sodipodi:start="4.689822"
       sodipodi:end="1.5695645"
       sodipodi:open="true"
       d="m -93.893541,-138.19711 a 6.6817379,22.45064 0 0 1 5.885005,10.92047 6.6817379,22.45064 0 0 1 0.08,22.58717 6.6817379,22.45064 0 0 1 -5.805997,11.387911"
       sodipodi:arc-type="arc"
       transform="scale(-1)" />
    <path
       d="m -88.893541,-138.19711 a 6.6817379,22.45064 0 0 1 5.885005,10.92047 6.6817379,22.45064 0 0 1 0.08,22.58717 6.6817379,22.45064 0 0 1 -5.805997,11.387911"
       sodipodi:open="true"
       sodipodi:end="1.5695645"
       sodipodi:start="4.689822"
       sodipodi:ry="22.45064"
       sodipodi:rx="6.6817379"
       sodipodi:cy="-115.75218"
       sodipodi:cx="-88.742767"
       sodipodi:type="arc"
       id="path837"
       style="fill:none;fill-rule:evenodd;stroke:#d45500;stroke-width:0.5;stroke-miterlimit:4;stroke-dasharray:none"
       sodipodi:arc-type="arc"
       transform="scale(-1)" />
    <path
       style="fill:none;fill-rule:evenodd;stroke:#d45500;stroke-width:0.5;stroke-miterlimit:4;stroke-dasharray:none"
       id="path839"
       sodipodi:type="arc"
       sodipodi:cx="-83.742767"
       sodipodi:cy="-115.75218"
       sodipodi:rx="6.6817379"
       sodipodi:ry="22.45064"
       sodipodi:start="4.689822"
       sodipodi:end="1.5695645"
       sodipodi:open="true"
       d="m -83.893541,-138.19711 a 6.6817379,22.45064 0 0 1 5.885005,10.92047 6.6817379,22.45064 0 0 1 0.08,22.58717 6.6817379,22.45064 0 0 1 -5.805997,11.387911"
       sodipodi:arc-type="arc"
       transform="scale(-1)" />
    <path
       style="fill:none;fill-rule:evenodd;stroke:#d45500;stroke-width:0.5;stroke-miterlimit:4;stroke-dasharray:none"
       id="path841"
       sodipodi:type="arc"
       sodipodi:cx="-78.742767"
       sodipodi:cy="-115.75218"
       sodipodi:rx="6.6817379"
       sodipodi:ry="22.45064"
       sodipodi:start="4.689822"
       sodipodi:end="1.5695645"
       sodipodi:open="true"
       d="m -78.893541,-138.19711 a 6.6817379,22.45064 0 0 1 5.885005,10.92047 6.6817379,22.45064 0 0 1 0.08,22.58717 6.6817379,22.45064 0 0 1 -5.805997,11.387911"
       sodipodi:arc-type="arc"
       transform="scale(-1)" />
    <path
       d="m -73.893541,-138.19711 a 6.6817379,22.45064 0 0 1 5.885005,10.92047 6.6817379,22.45064 0 0 1 0.08,22.58717 6.6817379,22.45064 0 0 1 -5.805997,11.387911"
       sodipodi:open="true"
       sodipodi:end="1.5695645"
       sodipodi:start="4.689822"
       sodipodi:ry="22.45064"
       sodipodi:rx="6.6817379"
       sodipodi:cy="-115.75218"
       sodipodi:cx="-73.742767"
       sodipodi:type="arc"
       id="path843"
       style="fill:none;fill-rule:evenodd;stroke:#d45500;stroke-width:0.5;stroke-miterlimit:4;stroke-dasharray:none"
       sodipodi:arc-type="arc"
       transform="scale(-1)" />
    <path
       style="fill:none;fill-rule:evenodd;stroke:#d45500;stroke-width:0.5;stroke-miterlimit:4;stroke-dasharray:none"
       id="path845"
       sodipodi:type="arc"
       sodipodi:cx="-68.742767"
       sodipodi:cy="-115.75218"
       sodipodi:rx="6.6817379"
       sodipodi:ry="22.45064"
       sodipodi:start="4.689822"
       sodipodi:end="1.5695645"
       sodipodi:open="true"
       d="m -68.893541,-138.19711 a 6.6817379,22.45064 0 0 1 5.885005,10.92047 6.6817379,22.45064 0 0 1 0.08,22.58717 6.6817379,22.45064 0 0 1 -5.805997,11.387911"
       sodipodi:arc-type="arc"
       transform="scale(-1)" />
    <path
       d="m -63.893537,-138.19711 a 6.6817379,22.45064 0 0 1 5.885005,10.92047 6.6817379,22.45064 0 0 1 0.08,22.58717 6.6817379,22.45064 0 0 1 -5.805997,11.387911"
       sodipodi:open="true"
       sodipodi:end="1.5695645"
       sodipodi:start="4.689822"
       sodipodi:ry="22.45064"
       sodipodi:rx="6.6817379"
       sodipodi:cy="-115.75218"
       sodipodi:cx="-63.742764"
       sodipodi:type="arc"
       id="path847"
       style="fill:none;fill-rule:evenodd;stroke:#d45500;stroke-width:0.5;stroke-miterlimit:4;stroke-dasharray:none"
       sodipodi:arc-type="arc"
       transform="scale(-1)" />
    <path
       d="m -58.893537,-138.19711 a 6.6817379,22.45064 0 0 1 5.885005,10.92047 6.6817379,22.45064 0 0 1 0.08,22.58717 6.6817379,22.45064 0 0 1 -5.805997,11.387911"
       sodipodi:open="true"
       sodipodi:end="1.5695645"
       sodipodi:start="4.689822"
       sodipodi:ry="22.45064"
       sodipodi:rx="6.6817379"
       sodipodi:cy="-115.75218"
       sodipodi:cx="-58.742764"
       sodipodi:type="arc"
       id="path849"
       style="fill:none;fill-rule:evenodd;stroke:#d45500;stroke-width:0.5;stroke-miterlimit:4;stroke-dasharray:none"
       sodipodi:arc-type="arc"
       transform="scale(-1)" />
    <path
       style="fill:none;fill-rule:evenodd;stroke:#d45500;stroke-width:0.5;stroke-miterlimit:4;stroke-dasharray:none"
       id="path851"
       sodipodi:type="arc"
       sodipodi:cx="-53.742756"
       sodipodi:cy="-115.75218"
       sodipodi:rx="6.6817379"
       sodipodi:ry="22.45064"
       sodipodi:start="4.689822"
       sodipodi:end="1.5695645"
       sodipodi:open="true"
       d="m -53.89353,-138.19711 a 6.6817379,22.45064 0 0 1 5.885006,10.92047 6.6817379,22.45064 0 0 1 0.08,22.58717 6.6817379,22.45064 0 0 1 -5.805997,11.387911"
       sodipodi:arc-type="arc"
       transform="scale(-1)" />
    <path
       d="m -48.89353,-138.19711 a 6.6817379,22.45064 0 0 1 5.885006,10.92047 6.6817379,22.45064 0 0 1 0.08,22.58717 6.6817379,22.45064 0 0 1 -5.805997,11.387911"
       sodipodi:open="true"
       sodipodi:end="1.5695645"
       sodipodi:start="4.689822"
       sodipodi:ry="22.45064"
       sodipodi:rx="6.6817379"
       sodipodi:cy="-115.75218"
       sodipodi:cx="-48.742756"
       sodipodi:type="arc"
       id="path853"
       style="fill:none;fill-rule:evenodd;stroke:#d45500;stroke-width:0.5;stroke-miterlimit:4;stroke-dasharray:none"
       sodipodi:arc-type="arc"
       transform="scale(-1)" />
    <path
       style="fill:none;fill-rule:evenodd;stroke:#d45500;stroke-width:0.5;stroke-miterlimit:4;stroke-dasharray:none"
       id="path861"
       sodipodi:type="arc"
       sodipodi:cx="-43.742756"
       sodipodi:cy="-115.75218"
       sodipodi:rx="6.6817379"
       sodipodi:ry="22.45064"
       sodipodi:start="4.689822"
       sodipodi:end="1.5695645"
       sodipodi:open="true"
       d="m -43.89353,-138.19711 a 6.6817379,22.45064 0 0 1 5.885006,10.92047 6.6817379,22.45064 0 0 1 0.08,22.58717 6.6817379,22.45064 0 0 1 -5.805997,11.387911"
       sodipodi:arc-type="arc"
       transform="scale(-1)" />
    <path
       d="m -38.89353,-138.19711 a 6.6817379,22.45064 0 0 1 5.885006,10.92047 6.6817379,22.45064 0 0 1 0.08,22.58717 6.6817379,22.45064 0 0 1 -5.805997,11.387911"
       sodipodi:open="true"
       sodipodi:end="1.5695645"
       sodipodi:start="4.689822"
       sodipodi:ry="22.45064"
       sodipodi:rx="6.6817379"
       sodipodi:cy="-115.75218"
       sodipodi:cx="-38.742756"
       sodipodi:type="arc"
       id="path863"
       style="fill:none;fill-rule:evenodd;stroke:#d45500;stroke-width:0.5;stroke-miterlimit:4;stroke-dasharray:none"
       sodipodi:arc-type="arc"
       transform="scale(-1)" />
    <path
       style="fill:none;fill-rule:evenodd;stroke:#000000;stroke-width:0.264583"
       id="path867"
       sodipodi:type="arc"
       sodipodi:cx="-34.285603"
       sodipodi:cy="-115.75218"
       sodipodi:rx="6.6817379"
       sodipodi:ry="22.45064"
       sodipodi:start="4.689822"
       sodipodi:end="1.5695645"
       sodipodi:open="true"
       d="m -34.436376,-138.19711 a 6.6817379,22.45064 0 0 1 5.885005,10.92047 6.6817379,22.45064 0 0 1 0.08,22.58717 6.6817379,22.45064 0 0 1 -5.805997,11.387911"
       sodipodi:arc-type="arc"
       transform="scale(-1)" />
    <path
       style="fill:none;stroke:#000000;stroke-width:0.264583px;stroke-linecap:butt;stroke-linejoin:miter;stroke-opacity:1;marker-end:url(#Arrow2Lend)"
       d="m 119.82899,115.97201 h 11.62622"
       id="path871"
       inkscape:connector-curvature="0" />
    <g
       id="g1236"
       transform="matrix(-0.49999998,0,0,-0.49999999,160.89183,175.59348)"
       style="fill:#d45500;stroke-width:2">
      <g
         word-spacing="normal"
         letter-spacing="normal"
         font-size-adjust="none"
         font-stretch="normal"
         font-weight="normal"
         font-variant="normal"
         font-style="normal"
         stroke-miterlimit="10.433"
         xml:space="preserve"
         transform="matrix(0.3,0,0,-0.3,-52.5,222.75)"
         id="g1234"
         style="font-style:normal;font-variant:normal;font-weight:normal;font-stretch:normal;letter-spacing:normal;word-spacing:normal;text-anchor:start;fill:#d45500;fill-opacity:1;fill-rule:evenodd;stroke:#000000;stroke-width:2;stroke-linecap:butt;stroke-linejoin:miter;stroke-miterlimit:10.433;stroke-dasharray:none;stroke-dashoffset:0;stroke-opacity:1"><path
           id="path1232"
           d="m 474.16,436.39 0.04,0.16 0.04,0.16 0.04,0.15 0.04,0.14 0.04,0.14 0.04,0.13 0.05,0.12 0.05,0.11 0.05,0.11 0.06,0.11 0.07,0.09 0.07,0.09 0.08,0.09 0.08,0.08 0.1,0.07 0.1,0.07 0.12,0.06 0.12,0.06 0.14,0.05 0.15,0.05 0.17,0.04 0.08,0.02 0.09,0.02 0.1,0.02 0.1,0.02 0.1,0.01 0.1,0.02 0.11,0.01 0.12,0.01 0.12,0.02 0.12,0.01 0.13,0.01 h 0.13 l 0.13,0.01 0.14,0.01 0.15,0.01 h 0.15 0.16 l 0.16,0.01 h 0.16 0.17 0.18 0.18 c 1.19,0 1.6,0 1.6,0.96 0,0.59 -0.55,0.59 -0.75,0.59 -1.46,0 -5.15,-0.16 -6.58,-0.16 -1.5,0 -5.13,0.16 -6.63,0.16 -0.34,0 -1,0 -1,-1 0,-0.55 0.46,-0.55 1.39,-0.55 2.1,0 3.44,0 3.44,-0.95 0,-0.25 0,-0.34 -0.09,-0.8 l -6.72,-26.84 c -0.46,-1.84 -0.61,-2.34 -4.55,-2.34 -1.14,0 -1.59,0 -1.59,-1 0,-0.55 0.61,-0.55 0.75,-0.55 1.45,0 5.08,0.16 6.53,0.16 1.5,0 5.19,-0.16 6.67,-0.16 0.41,0 1,0 1,0.95 0,0.6 -0.41,0.6 -1.5,0.6 -0.89,0 -1.14,0 -2.14,0.09 -1.05,0.11 -1.23,0.3 -1.23,0.84 0,0.41 0.09,0.8 0.18,1.16 z"
           inkscape:connector-curvature="0"
           style="fill:#d45500;stroke-width:0" /></g>
    </g>
    <path
       style="fill:#d45500;stroke:#d45500;stroke-width:0.4;stroke-linecap:butt;stroke-linejoin:miter;stroke-miterlimit:4;stroke-dasharray:none;stroke-opacity:1;marker-end:url(#marker1253)"
       d="m 102.78921,125.59064 0.24299,1.98974"
       id="path1243"
       inkscape:connector-curvature="0" />
    <path
       inkscape:connector-curvature="0"
       id="path1717"
       d="m 112.78921,125.59064 0.24299,1.98974"
       style="fill:#d45500;stroke:#d45500;stroke-width:0.4;stroke-linecap:butt;stroke-linejoin:miter;stroke-miterlimit:4;stroke-dasharray:none;stroke-opacity:1;marker-end:url(#marker1721)" />
    <path
       inkscape:connector-curvature="0"
       id="path1771"
       d="m 92.789211,125.59064 0.242992,1.98974"
       style="fill:#d45500;stroke:#d45500;stroke-width:0.4;stroke-linecap:butt;stroke-linejoin:miter;stroke-miterlimit:4;stroke-dasharray:none;stroke-opacity:1;marker-end:url(#marker1775)" />
    <path
       style="fill:#d45500;stroke:#d45500;stroke-width:0.4;stroke-linecap:butt;stroke-linejoin:miter;stroke-miterlimit:4;stroke-dasharray:none;stroke-opacity:1;marker-end:url(#marker1823)"
       d="m 82.789211,125.59064 0.242992,1.98974"
       id="path1819"
       inkscape:connector-curvature="0" />
    <path
       inkscape:connector-curvature="0"
       id="path1873"
       d="m 72.789211,125.59064 0.242992,1.98974"
       style="fill:#d45500;stroke:#d45500;stroke-width:0.4;stroke-linecap:butt;stroke-linejoin:miter;stroke-miterlimit:4;stroke-dasharray:none;stroke-opacity:1;marker-end:url(#marker1877)" />
    <path
       style="fill:#d45500;stroke:#d45500;stroke-width:0.4;stroke-linecap:butt;stroke-linejoin:miter;stroke-miterlimit:4;stroke-dasharray:none;stroke-opacity:1;marker-end:url(#marker1937)"
       d="m 62.789211,125.59064 0.242992,1.98974"
       id="path1933"
       inkscape:connector-curvature="0" />
    <path
       inkscape:connector-curvature="0"
       id="path1999"
       d="m 52.78921,125.59064 0.24299,1.98974"
       style="fill:#d45500;stroke:#d45500;stroke-width:0.4;stroke-linecap:butt;stroke-linejoin:miter;stroke-miterlimit:4;stroke-dasharray:none;stroke-opacity:1;marker-end:url(#marker2003)" />
    <path
       style="fill:#d45500;stroke:#d45500;stroke-width:0.4;stroke-linecap:butt;stroke-linejoin:miter;stroke-miterlimit:4;stroke-dasharray:none;stroke-opacity:1;marker-end:url(#marker2075)"
       d="m 42.78921,125.59064 0.24299,1.98974"
       id="path2071"
       inkscape:connector-curvature="0" />
    <path
       inkscape:connector-curvature="0"
       id="path2149"
       d="m 32.78921,125.59064 0.24299,1.98974"
       style="fill:#d45500;stroke:#d45500;stroke-width:0.4;stroke-linecap:butt;stroke-linejoin:miter;stroke-miterlimit:4;stroke-dasharray:none;stroke-opacity:1;marker-end:url(#marker2153)" />
    <path
       style="fill:#ff0000;stroke:#ff0000;stroke-width:0.265;stroke-linecap:butt;stroke-linejoin:miter;stroke-miterlimit:4;stroke-dasharray:none;stroke-opacity:1;marker-start:url(#Arrow2Lstart);marker-end:url(#marker2329)"
       d="M 118.86774,115.61943 115.82929,96.23151"
       id="path2233"
       inkscape:connector-curvature="0" />
    <g
       id="g3057"
       transform="matrix(0.49999998,0,0,0.49999998,75.879184,56.460624)"
       style="fill:#ff0000;stroke-width:2">
      <g
         word-spacing="normal"
         letter-spacing="normal"
         font-size-adjust="none"
         font-stretch="normal"
         font-weight="normal"
         font-variant="normal"
         font-style="normal"
         stroke-miterlimit="10.433"
         xml:space="preserve"
         transform="matrix(0.3,0,0,-0.3,-52.5,222.75)"
         id="g3055"
         style="font-style:normal;font-variant:normal;font-weight:normal;font-stretch:normal;letter-spacing:normal;word-spacing:normal;text-anchor:start;fill:#ff0000;fill-opacity:1;fill-rule:evenodd;stroke:#000000;stroke-width:2;stroke-linecap:butt;stroke-linejoin:miter;stroke-miterlimit:10.433;stroke-dasharray:none;stroke-dashoffset:0;stroke-opacity:1"><path
           id="path3053"
           d="m 474.1,425.03 -0.09,0.17 -0.09,0.17 -0.09,0.16 -0.09,0.16 -0.1,0.16 -0.1,0.16 -0.11,0.15 -0.11,0.14 -0.11,0.15 -0.12,0.13 -0.12,0.14 -0.12,0.13 -0.13,0.12 -0.13,0.12 -0.14,0.11 -0.14,0.11 -0.14,0.11 -0.15,0.09 -0.15,0.1 -0.15,0.08 -0.16,0.08 -0.17,0.08 -0.17,0.06 -0.17,0.07 -0.17,0.05 -0.18,0.05 -0.19,0.04 -0.19,0.03 -0.19,0.03 -0.2,0.02 -0.2,0.01 h -0.21 l 0.05,-1.09 c 3.23,0 3.93,-4.08 3.93,-4.37 0,-0.32 -0.09,-0.61 -0.14,-0.86 l -2.5,-9.77 c -0.25,-0.89 -0.25,-0.98 -1,-1.84 -2.18,-2.74 -4.23,-3.53 -5.62,-3.53 -2.49,0 -3.19,2.73 -3.19,4.68 0,2.49 1.59,8.61 2.74,10.91 1.54,2.94 3.79,4.78 5.78,4.78 l -0.05,1.09 c -5.83,0 -12,-7.31 -12,-14.59 0,-4.69 2.73,-7.97 6.62,-7.97 0.99,0 3.49,0.21 6.47,3.74 0.41,-2.1 2.14,-3.74 4.53,-3.74 1.75,0 2.9,1.14 3.69,2.74 0.85,1.79 1.5,4.84 1.5,4.93 0,0.5 -0.45,0.5 -0.59,0.5 -0.5,0 -0.55,-0.2 -0.7,-0.9 -0.85,-3.24 -1.75,-6.17 -3.79,-6.17 -1.34,0 -1.5,1.29 -1.5,2.29 0,1.1 0.1,1.49 0.64,3.69 0.57,2.09 0.66,2.59 1.11,4.48 l 1.79,6.97 c 0.35,1.39 0.35,1.5 0.35,1.69 0,0.86 -0.6,1.36 -1.45,1.36 -1.19,0 -1.94,-1.11 -2.09,-2.2 z"
           inkscape:connector-curvature="0"
           style="fill:#ff0000;stroke-width:0" /></g>
    </g>
    <path
       inkscape:connector-curvature="0"
       id="path3188"
       d="M 120.41286,140.28975 H 34.640371"
       style="fill:none;stroke:#000000;stroke-width:0.26458329px;stroke-linecap:butt;stroke-linejoin:miter;stroke-opacity:1;marker-start:url(#marker3520);marker-end:url(#marker3192)" />
    <g
       inkscape:label=""
       transform="matrix(1.2946368,0,0,1.2946368,75.491347,142.60712)"
       id="g6"
       style="stroke-width:0.772417">
      <g
         id="g5"
         transform="matrix(0.352778,0,0,0.352778,-0.780256,-0.642761)"
         style="stroke-width:0.772417">
        <g
           style="fill:#000000;fill-opacity:1;stroke-width:0.772417"
           id="g4">
          <g
             id="g2"
             transform="translate(1.993,13.947)"
             style="stroke-width:0.772417">
            <path
               style="stroke:none;stroke-width:0.772417"
               d="M 1.578125,-2.921875 C 0.5,-1.859375 0.21875,-1.59375 0.21875,-1.53125 c 0,0.0625 0.078125,0.1875 0.1875,0.1875 0.09375,0 1.078125,-0.953125 1.21875,-1.09375 0.09375,1.140625 0.53125,2.640625 1.875,2.640625 0.6875,0 1.296875,-0.421875 1.578125,-0.640625 0.21875,-0.171875 1.046875,-0.875 1.046875,-1.03125 0,-0.078125 -0.078125,-0.1875 -0.171875,-0.1875 -0.0625,0 -0.328125,0.265625 -0.390625,0.328125 -0.609375,0.59375 -1.359375,1.1875 -2.046875,1.1875 -0.9375,0 -1.046875,-1.34375 -1.046875,-2.265625 0,-0.171875 0,-0.90625 0.109375,-1.03125 C 3.59375,-4.5 6.78125,-7.78125 6.78125,-10.828125 c 0,-0.6875 -0.25,-1.296875 -1,-1.296875 -1.59375,0 -2.984375,3.546875 -3.234375,4.203125 -0.0625,0.171875 -1.0625,2.828125 -0.96875,5 z M 2.625,-4 c 0.015625,-0.09375 0.78125,-4.609375 2.234375,-7.015625 0.28125,-0.46875 0.578125,-0.765625 0.921875,-0.765625 0.59375,0 0.625,0.546875 0.625,0.9375 0,0.59375 -0.171875,2.140625 -1.671875,4.3125 C 4.28125,-5.890625 3.59375,-5.03125 2.625,-4 Z m 0,0"
               id="path1" />
          </g>
        </g>
      </g>
    </g>
  </g>
</svg>
