<?xml version="1.0" encoding="UTF-8" standalone="no"?>
<!-- Created with Inkscape (http://www.inkscape.org/) -->

<svg
   xmlns:dc="http://purl.org/dc/elements/1.1/"
   xmlns:cc="http://creativecommons.org/ns#"
   xmlns:rdf="http://www.w3.org/1999/02/22-rdf-syntax-ns#"
   xmlns:svg="http://www.w3.org/2000/svg"
   xmlns="http://www.w3.org/2000/svg"
   xmlns:sodipodi="http://sodipodi.sourceforge.net/DTD/sodipodi-0.dtd"
   xmlns:inkscape="http://www.inkscape.org/namespaces/inkscape"
   width="210mm"
   height="297mm"
   viewBox="0 0 210 297"
   version="1.1"
   id="svg8"
   inkscape:version="0.92.5 (2060ec1f9f, 2020-04-08)"
   sodipodi:docname="solenoide_ampère.svg">
  <defs
     id="defs2">
    <marker
       inkscape:isstock="true"
       style="overflow:visible;"
       id="marker11578"
       refX="0.0"
       refY="0.0"
       orient="auto"
       inkscape:stockid="Arrow2Lend">
      <path
         transform="scale(1.1) rotate(180) translate(1,0)"
         d="M 8.7185878,4.0337352 L -2.2072895,0.016013256 L 8.7185884,-4.0017078 C 6.9730900,-1.6296469 6.9831476,1.6157441 8.7185878,4.0337352 z "
         style="fill-rule:evenodd;stroke-width:0.625;stroke-linejoin:round;stroke:#000000;stroke-opacity:1;fill:#000000;fill-opacity:1"
         id="path11576" />
    </marker>
    <marker
       inkscape:isstock="true"
       style="overflow:visible;"
       id="marker10494"
       refX="0.0"
       refY="0.0"
       orient="auto"
       inkscape:stockid="Arrow2Lend">
      <path
         transform="scale(1.1) rotate(180) translate(1,0)"
         d="M 8.7185878,4.0337352 L -2.2072895,0.016013256 L 8.7185884,-4.0017078 C 6.9730900,-1.6296469 6.9831476,1.6157441 8.7185878,4.0337352 z "
         style="fill-rule:evenodd;stroke-width:0.625;stroke-linejoin:round;stroke:#0000ff;stroke-opacity:1;fill:#0000ff;fill-opacity:1"
         id="path10492" />
    </marker>
    <marker
       inkscape:stockid="Arrow2Lend"
       orient="auto"
       refY="0.0"
       refX="0.0"
       id="marker10020"
       style="overflow:visible;"
       inkscape:isstock="true"
       inkscape:collect="always">
      <path
         id="path10018"
         style="fill-rule:evenodd;stroke-width:0.625;stroke-linejoin:round;stroke:#0000ff;stroke-opacity:1;fill:#0000ff;fill-opacity:1"
         d="M 8.7185878,4.0337352 L -2.2072895,0.016013256 L 8.7185884,-4.0017078 C 6.9730900,-1.6296469 6.9831476,1.6157441 8.7185878,4.0337352 z "
         transform="scale(1.1) rotate(180) translate(1,0)" />
    </marker>
    <marker
       inkscape:isstock="true"
       style="overflow:visible;"
       id="marker9426"
       refX="0.0"
       refY="0.0"
       orient="auto"
       inkscape:stockid="Arrow2Lend"
       inkscape:collect="always">
      <path
         transform="scale(1.1) rotate(180) translate(1,0)"
         d="M 8.7185878,4.0337352 L -2.2072895,0.016013256 L 8.7185884,-4.0017078 C 6.9730900,-1.6296469 6.9831476,1.6157441 8.7185878,4.0337352 z "
         style="fill-rule:evenodd;stroke-width:0.625;stroke-linejoin:round;stroke:#0000ff;stroke-opacity:1;fill:#0000ff;fill-opacity:1"
         id="path9424" />
    </marker>
    <marker
       inkscape:stockid="Arrow2Lend"
       orient="auto"
       refY="0.0"
       refX="0.0"
       id="marker8796"
       style="overflow:visible;"
       inkscape:isstock="true"
       inkscape:collect="always">
      <path
         id="path8794"
         style="fill-rule:evenodd;stroke-width:0.625;stroke-linejoin:round;stroke:#0000ff;stroke-opacity:1;fill:#0000ff;fill-opacity:1"
         d="M 8.7185878,4.0337352 L -2.2072895,0.016013256 L 8.7185884,-4.0017078 C 6.9730900,-1.6296469 6.9831476,1.6157441 8.7185878,4.0337352 z "
         transform="scale(1.1) rotate(180) translate(1,0)" />
    </marker>
    <marker
       inkscape:stockid="Arrow2Lend"
       orient="auto"
       refY="0.0"
       refX="0.0"
       id="marker8346"
       style="overflow:visible;"
       inkscape:isstock="true">
      <path
         id="path8344"
         style="fill-rule:evenodd;stroke-width:0.625;stroke-linejoin:round;stroke:#0000ff;stroke-opacity:1;fill:#0000ff;fill-opacity:1"
         d="M 8.7185878,4.0337352 L -2.2072895,0.016013256 L 8.7185884,-4.0017078 C 6.9730900,-1.6296469 6.9831476,1.6157441 8.7185878,4.0337352 z "
         transform="scale(1.1) rotate(180) translate(1,0)" />
    </marker>
    <marker
       inkscape:isstock="true"
       style="overflow:visible;"
       id="marker7932"
       refX="0.0"
       refY="0.0"
       orient="auto"
       inkscape:stockid="Arrow2Lend"
       inkscape:collect="always">
      <path
         transform="scale(1.1) rotate(180) translate(1,0)"
         d="M 8.7185878,4.0337352 L -2.2072895,0.016013256 L 8.7185884,-4.0017078 C 6.9730900,-1.6296469 6.9831476,1.6157441 8.7185878,4.0337352 z "
         style="fill-rule:evenodd;stroke-width:0.625;stroke-linejoin:round;stroke:#0000ff;stroke-opacity:1;fill:#0000ff;fill-opacity:1"
         id="path7930" />
    </marker>
    <marker
       inkscape:stockid="Arrow2Lend"
       orient="auto"
       refY="0.0"
       refX="0.0"
       id="marker7572"
       style="overflow:visible;"
       inkscape:isstock="true"
       inkscape:collect="always">
      <path
         id="path7570"
         style="fill-rule:evenodd;stroke-width:0.625;stroke-linejoin:round;stroke:#0000ff;stroke-opacity:1;fill:#0000ff;fill-opacity:1"
         d="M 8.7185878,4.0337352 L -2.2072895,0.016013256 L 8.7185884,-4.0017078 C 6.9730900,-1.6296469 6.9831476,1.6157441 8.7185878,4.0337352 z "
         transform="scale(1.1) rotate(180) translate(1,0)" />
    </marker>
    <marker
       inkscape:isstock="true"
       style="overflow:visible;"
       id="marker6749"
       refX="0.0"
       refY="0.0"
       orient="auto"
       inkscape:stockid="Arrow2Lend"
       inkscape:collect="always">
      <path
         transform="scale(1.1) rotate(180) translate(1,0)"
         d="M 8.7185878,4.0337352 L -2.2072895,0.016013256 L 8.7185884,-4.0017078 C 6.9730900,-1.6296469 6.9831476,1.6157441 8.7185878,4.0337352 z "
         style="fill-rule:evenodd;stroke-width:0.625;stroke-linejoin:round;stroke:#0000ff;stroke-opacity:1;fill:#0000ff;fill-opacity:1"
         id="path6747" />
    </marker>
    <marker
       inkscape:stockid="Arrow2Lend"
       orient="auto"
       refY="0.0"
       refX="0.0"
       id="marker6461"
       style="overflow:visible;"
       inkscape:isstock="true"
       inkscape:collect="always">
      <path
         id="path6459"
         style="fill-rule:evenodd;stroke-width:0.625;stroke-linejoin:round;stroke:#000000;stroke-opacity:1;fill:#000000;fill-opacity:1"
         d="M 8.7185878,4.0337352 L -2.2072895,0.016013256 L 8.7185884,-4.0017078 C 6.9730900,-1.6296469 6.9831476,1.6157441 8.7185878,4.0337352 z "
         transform="scale(1.1) rotate(180) translate(1,0)" />
    </marker>
    <marker
       inkscape:isstock="true"
       style="overflow:visible;"
       id="marker6337"
       refX="0.0"
       refY="0.0"
       orient="auto"
       inkscape:stockid="Arrow2Lend">
      <path
         transform="scale(1.1) rotate(180) translate(1,0)"
         d="M 8.7185878,4.0337352 L -2.2072895,0.016013256 L 8.7185884,-4.0017078 C 6.9730900,-1.6296469 6.9831476,1.6157441 8.7185878,4.0337352 z "
         style="fill-rule:evenodd;stroke-width:0.625;stroke-linejoin:round;stroke:#000000;stroke-opacity:1;fill:#000000;fill-opacity:1"
         id="path6335" />
    </marker>
    <marker
       inkscape:isstock="true"
       style="overflow:visible"
       id="marker6243"
       refX="0.0"
       refY="0.0"
       orient="auto"
       inkscape:stockid="Arrow2Lstart">
      <path
         transform="scale(1.1) translate(1,0)"
         d="M 8.7185878,4.0337352 L -2.2072895,0.016013256 L 8.7185884,-4.0017078 C 6.9730900,-1.6296469 6.9831476,1.6157441 8.7185878,4.0337352 z "
         style="fill-rule:evenodd;stroke-width:0.625;stroke-linejoin:round;stroke:#000000;stroke-opacity:1;fill:#000000;fill-opacity:1"
         id="path6241" />
    </marker>
    <marker
       inkscape:isstock="true"
       style="overflow:visible;"
       id="marker5883"
       refX="0.0"
       refY="0.0"
       orient="auto"
       inkscape:stockid="Arrow2Lend"
       inkscape:collect="always">
      <path
         transform="scale(1.1) rotate(180) translate(1,0)"
         d="M 8.7185878,4.0337352 L -2.2072895,0.016013256 L 8.7185884,-4.0017078 C 6.9730900,-1.6296469 6.9831476,1.6157441 8.7185878,4.0337352 z "
         style="fill-rule:evenodd;stroke-width:0.625;stroke-linejoin:round;stroke:#000000;stroke-opacity:1;fill:#000000;fill-opacity:1"
         id="path5881" />
    </marker>
    <marker
       inkscape:isstock="true"
       style="overflow:visible;"
       id="marker4969"
       refX="0.0"
       refY="0.0"
       orient="auto"
       inkscape:stockid="Arrow2Lend">
      <path
         transform="scale(1.1) rotate(180) translate(1,0)"
         d="M 8.7185878,4.0337352 L -2.2072895,0.016013256 L 8.7185884,-4.0017078 C 6.9730900,-1.6296469 6.9831476,1.6157441 8.7185878,4.0337352 z "
         style="fill-rule:evenodd;stroke-width:0.625;stroke-linejoin:round;stroke:#d45500;stroke-opacity:1;fill:#d45500;fill-opacity:1"
         id="path4967" />
    </marker>
    <marker
       inkscape:stockid="Arrow2Lend"
       orient="auto"
       refY="0.0"
       refX="0.0"
       id="marker4707"
       style="overflow:visible;"
       inkscape:isstock="true"
       inkscape:collect="always">
      <path
         id="path4705"
         style="fill-rule:evenodd;stroke-width:0.625;stroke-linejoin:round;stroke:#000000;stroke-opacity:1;fill:#000000;fill-opacity:1"
         d="M 8.7185878,4.0337352 L -2.2072895,0.016013256 L 8.7185884,-4.0017078 C 6.9730900,-1.6296469 6.9831476,1.6157441 8.7185878,4.0337352 z "
         transform="scale(1.1) rotate(180) translate(1,0)" />
    </marker>
    <marker
       inkscape:isstock="true"
       style="overflow:visible;"
       id="marker4442"
       refX="0.0"
       refY="0.0"
       orient="auto"
       inkscape:stockid="Arrow2Lend">
      <path
         transform="scale(1.1) rotate(180) translate(1,0)"
         d="M 8.7185878,4.0337352 L -2.2072895,0.016013256 L 8.7185884,-4.0017078 C 6.9730900,-1.6296469 6.9831476,1.6157441 8.7185878,4.0337352 z "
         style="fill-rule:evenodd;stroke-width:0.625;stroke-linejoin:round;stroke:#d45500;stroke-opacity:1;fill:#d45500;fill-opacity:1"
         id="path4440" />
    </marker>
    <marker
       inkscape:isstock="true"
       style="overflow:visible;"
       id="marker4176"
       refX="0.0"
       refY="0.0"
       orient="auto"
       inkscape:stockid="Arrow2Lend"
       inkscape:collect="always">
      <path
         transform="scale(1.1) rotate(180) translate(1,0)"
         d="M 8.7185878,4.0337352 L -2.2072895,0.016013256 L 8.7185884,-4.0017078 C 6.9730900,-1.6296469 6.9831476,1.6157441 8.7185878,4.0337352 z "
         style="fill-rule:evenodd;stroke-width:0.625;stroke-linejoin:round;stroke:#d45500;stroke-opacity:1;fill:#d45500;fill-opacity:1"
         id="path4174" />
    </marker>
    <marker
       inkscape:isstock="true"
       style="overflow:visible;"
       id="marker4112"
       refX="0.0"
       refY="0.0"
       orient="auto"
       inkscape:stockid="Arrow2Lend"
       inkscape:collect="always">
      <path
         transform="scale(1.1) rotate(180) translate(1,0)"
         d="M 8.7185878,4.0337352 L -2.2072895,0.016013256 L 8.7185884,-4.0017078 C 6.9730900,-1.6296469 6.9831476,1.6157441 8.7185878,4.0337352 z "
         style="fill-rule:evenodd;stroke-width:0.625;stroke-linejoin:round;stroke:#d45500;stroke-opacity:1;fill:#d45500;fill-opacity:1"
         id="path4110" />
    </marker>
    <marker
       inkscape:stockid="Arrow2Lstart"
       orient="auto"
       refY="0.0"
       refX="0.0"
       id="marker3520"
       style="overflow:visible"
       inkscape:isstock="true"
       inkscape:collect="always">
      <path
         id="path3518"
         style="fill-rule:evenodd;stroke-width:0.625;stroke-linejoin:round;stroke:#000000;stroke-opacity:1;fill:#000000;fill-opacity:1"
         d="M 8.7185878,4.0337352 L -2.2072895,0.016013256 L 8.7185884,-4.0017078 C 6.9730900,-1.6296469 6.9831476,1.6157441 8.7185878,4.0337352 z "
         transform="scale(1.1) translate(1,0)" />
    </marker>
    <marker
       inkscape:isstock="true"
       style="overflow:visible;"
       id="marker3192"
       refX="0.0"
       refY="0.0"
       orient="auto"
       inkscape:stockid="Arrow2Lend">
      <path
         transform="scale(1.1) rotate(180) translate(1,0)"
         d="M 8.7185878,4.0337352 L -2.2072895,0.016013256 L 8.7185884,-4.0017078 C 6.9730900,-1.6296469 6.9831476,1.6157441 8.7185878,4.0337352 z "
         style="fill-rule:evenodd;stroke-width:0.625;stroke-linejoin:round;stroke:#000000;stroke-opacity:1;fill:#000000;fill-opacity:1"
         id="path3190" />
    </marker>
    <marker
       inkscape:isstock="true"
       style="overflow:visible;"
       id="marker2329"
       refX="0.0"
       refY="0.0"
       orient="auto"
       inkscape:stockid="Arrow2Lend">
      <path
         transform="scale(1.1) rotate(180) translate(1,0)"
         d="M 8.7185878,4.0337352 L -2.2072895,0.016013256 L 8.7185884,-4.0017078 C 6.9730900,-1.6296469 6.9831476,1.6157441 8.7185878,4.0337352 z "
         style="fill-rule:evenodd;stroke-width:0.625;stroke-linejoin:round;stroke:#ff0000;stroke-opacity:1;fill:#ff0000;fill-opacity:1"
         id="path2327" />
    </marker>
    <marker
       inkscape:stockid="Arrow2Lstart"
       orient="auto"
       refY="0.0"
       refX="0.0"
       id="Arrow2Lstart"
       style="overflow:visible"
       inkscape:isstock="true">
      <path
         id="path891"
         style="fill-rule:evenodd;stroke-width:0.625;stroke-linejoin:round;stroke:#ff0000;stroke-opacity:1;fill:#ff0000;fill-opacity:1"
         d="M 8.7185878,4.0337352 L -2.2072895,0.016013256 L 8.7185884,-4.0017078 C 6.9730900,-1.6296469 6.9831476,1.6157441 8.7185878,4.0337352 z "
         transform="scale(1.1) translate(1,0)" />
    </marker>
    <marker
       inkscape:stockid="Arrow2Lend"
       orient="auto"
       refY="0.0"
       refX="0.0"
       id="marker2153"
       style="overflow:visible;"
       inkscape:isstock="true">
      <path
         id="path2151"
         style="fill-rule:evenodd;stroke-width:0.625;stroke-linejoin:round;stroke:#d45500;stroke-opacity:1;fill:#d45500;fill-opacity:1"
         d="M 8.7185878,4.0337352 L -2.2072895,0.016013256 L 8.7185884,-4.0017078 C 6.9730900,-1.6296469 6.9831476,1.6157441 8.7185878,4.0337352 z "
         transform="scale(1.1) rotate(180) translate(1,0)" />
    </marker>
    <marker
       inkscape:stockid="Arrow2Lend"
       orient="auto"
       refY="0.0"
       refX="0.0"
       id="Arrow2Lend"
       style="overflow:visible;"
       inkscape:isstock="true"
       inkscape:collect="always">
      <path
         id="path894"
         style="fill-rule:evenodd;stroke-width:0.625;stroke-linejoin:round;stroke:#000000;stroke-opacity:1;fill:#000000;fill-opacity:1"
         d="M 8.7185878,4.0337352 L -2.2072895,0.016013256 L 8.7185884,-4.0017078 C 6.9730900,-1.6296469 6.9831476,1.6157441 8.7185878,4.0337352 z "
         transform="scale(1.1) rotate(180) translate(1,0)" />
    </marker>
  </defs>
  <sodipodi:namedview
     id="base"
     pagecolor="#ffffff"
     bordercolor="#666666"
     borderopacity="1.0"
     inkscape:pageopacity="0.0"
     inkscape:pageshadow="2"
     inkscape:zoom="0.7"
     inkscape:cx="581.57648"
     inkscape:cy="863.68285"
     inkscape:document-units="mm"
     inkscape:current-layer="layer1"
     showgrid="false"
     inkscape:window-width="1848"
     inkscape:window-height="1016"
     inkscape:window-x="72"
     inkscape:window-y="27"
     inkscape:window-maximized="1" />
  <metadata
     id="metadata5">
    <rdf:RDF>
      <cc:Work
         rdf:about="">
        <dc:format>image/svg+xml</dc:format>
        <dc:type
           rdf:resource="http://purl.org/dc/dcmitype/StillImage" />
        <dc:title></dc:title>
      </cc:Work>
    </rdf:RDF>
  </metadata>
  <g
     inkscape:label="Calque 1"
     inkscape:groupmode="layer"
     id="layer1">
    <path
       inkscape:connector-curvature="0"
       id="path4613"
       d="M 31.837308,93.307208 H 87.402926"
       style="fill:none;stroke:#000000;stroke-width:0.26458332px;stroke-linecap:butt;stroke-linejoin:miter;stroke-opacity:1" />
    <path
       style="fill:none;stroke:#000000;stroke-width:0.26458332px;stroke-linecap:butt;stroke-linejoin:miter;stroke-opacity:1"
       d="M 31.636508,138.22756 H 87.376349"
       id="path4615"
       inkscape:connector-curvature="0" />
    <path
       d="m 31.509071,138.19448 a 6.6817379,22.45064 0 0 1 -6.485534,-22.9926 6.6817379,22.45064 0 0 1 6.813771,-21.894675"
       sodipodi:open="true"
       sodipodi:end="4.7324524"
       sodipodi:start="1.5998629"
       sodipodi:ry="22.45064"
       sodipodi:rx="6.6817379"
       sodipodi:cy="115.75333"
       sodipodi:cx="31.703259"
       sodipodi:type="arc"
       style="fill:none;fill-rule:evenodd;stroke:#000000;stroke-width:0.26499999;stroke-miterlimit:4;stroke-dasharray:none;stroke-dashoffset:0"
       id="path4617" />
    <path
       d="m 87.217344,93.332016 a 6.6817379,22.45064 0 0 1 5.885006,10.920464 6.6817379,22.45064 0 0 1 0.08,22.58717 6.6817379,22.45064 0 0 1 -5.805997,11.38791"
       sodipodi:open="true"
       sodipodi:end="1.5695645"
       sodipodi:start="4.689822"
       sodipodi:ry="22.45064"
       sodipodi:rx="6.6817379"
       sodipodi:cy="115.77694"
       sodipodi:cx="87.368118"
       sodipodi:type="arc"
       id="path4619"
       style="fill:none;fill-rule:evenodd;stroke:#000000;stroke-width:0.26458332" />
    <path
       style="fill:none;stroke:#000000;stroke-width:0.26458332;stroke-linecap:butt;stroke-linejoin:miter;stroke-miterlimit:4;stroke-dasharray:0.79374995, 0.79374995;stroke-dashoffset:0;stroke-opacity:1"
       d="M 30.901865,115.53231 H 97.85288"
       id="path4621"
       inkscape:connector-curvature="0" />
    <path
       inkscape:connector-curvature="0"
       id="path4623"
       d="M 30.901864,115.53231 H 19.27564"
       style="fill:none;stroke:#000000;stroke-width:0.26458332px;stroke-linecap:butt;stroke-linejoin:miter;stroke-opacity:1;marker-end:url(#Arrow2Lend)" />
    <g
       style="stroke-width:2.04081631"
       transform="matrix(0.48999999,0,0,0.48999999,-29.597317,66.754771)"
       id="g4633">
      <g
         style="font-style:normal;font-variant:normal;font-weight:normal;font-stretch:normal;letter-spacing:normal;word-spacing:normal;text-anchor:start;fill:none;fill-opacity:1;fill-rule:evenodd;stroke:#000000;stroke-width:2.04081631;stroke-linecap:butt;stroke-linejoin:miter;stroke-miterlimit:10.43299961;stroke-dasharray:none;stroke-dashoffset:0;stroke-opacity:1"
         id="g4631"
         transform="matrix(0.3,0,0,-0.3,-52.5,222.75)"
         xml:space="preserve"
         stroke-miterlimit="10.433"
         font-style="normal"
         font-variant="normal"
         font-weight="normal"
         font-stretch="normal"
         font-size-adjust="none"
         letter-spacing="normal"
         word-spacing="normal"><path
           style="fill:#000000;stroke-width:0"
           inkscape:connector-curvature="0"
           d="m 489.11,435.84 -0.07,-0.06 -0.07,-0.07 -0.08,-0.07 -0.08,-0.07 -0.08,-0.08 -0.09,-0.08 -0.09,-0.09 -0.1,-0.08 -0.09,-0.09 -0.1,-0.1 -0.19,-0.19 -0.2,-0.19 -0.19,-0.21 -0.09,-0.1 -0.09,-0.1 -0.09,-0.1 -0.08,-0.11 -0.08,-0.1 -0.08,-0.1 -0.07,-0.1 -0.06,-0.1 -0.06,-0.1 -0.06,-0.1 -0.04,-0.1 -0.04,-0.09 -0.03,-0.09 -0.03,-0.1 -0.01,-0.08 v -0.09 c 0,-0.5 0.5,-1 1,-1 0.45,0 0.7,0.36 0.95,0.66 0.59,0.75 1.73,2.14 3.94,3.23 0.34,0.21 0.84,0.46 0.84,1.05 0,0.5 -0.34,0.75 -0.7,1 -1.1,0.75 -1.64,1.64 -2.05,2.83 -0.09,0.45 -0.3,1.11 -0.98,1.11 -0.71,0 -1,-0.66 -1,-1.05 0,-0.25 0.39,-1.84 1.18,-2.89 h -16.78 c -0.84,0 -1.75,0 -1.75,-1 0,-1 0.91,-1 1.75,-1 z"
           id="path4625" /><path
           style="fill:#000000;stroke-width:0"
           inkscape:connector-curvature="0"
           d="m 464.83,417.71 0.14,0.01 h 0.16 0.16 0.18 l 0.19,0.01 h 0.2 l 0.21,0.01 0.21,0.01 0.23,0.01 0.23,0.01 0.24,0.01 0.24,0.02 0.25,0.02 0.26,0.02 0.52,0.05 0.54,0.07 0.54,0.07 0.55,0.1 0.54,0.11 0.53,0.12 0.26,0.07 0.26,0.08 0.26,0.08 0.24,0.08 0.25,0.09 0.23,0.1 c 3.49,1.5 3.74,4.43 3.74,5.12 0,2.2 -1.89,4.23 -5.33,4.23 v -1.09 c 2.34,0 3.69,-1.44 3.69,-3.14 0,-5.17 -7.97,-5.17 -10.02,-5.17 h -2.05 c 1.96,7.56 7.08,8.31 8.38,8.31 v 1.09 c -5.53,0 -13.05,-4.82 -13.05,-13.54 0,-5.08 2.94,-9.02 7.81,-9.02 7.13,0 11.32,5.28 11.32,5.88 0,0.29 -0.3,0.65 -0.6,0.65 -0.25,0 -0.34,-0.11 -0.65,-0.5 -3.94,-4.93 -9.36,-4.93 -9.96,-4.93 -3.89,0 -4.34,4.18 -4.34,5.78 0,0.59 0.05,2.14 0.8,5.18 z"
           id="path4627" /><path
           style="fill:#000000;stroke-width:0"
           inkscape:connector-curvature="0"
           d="m 484.54,401.82 0.17,0.17 0.16,0.17 0.17,0.16 0.17,0.17 0.18,0.17 0.09,0.09 0.1,0.1 0.1,0.09 0.11,0.1 0.11,0.1 0.11,0.11 0.13,0.11 0.13,0.11 0.13,0.12 0.15,0.13 0.15,0.13 0.16,0.14 0.17,0.14 0.17,0.15 0.19,0.16 0.2,0.16 0.21,0.17 0.22,0.18 0.23,0.19 0.25,0.2 0.25,0.21 0.27,0.21 c 0.74,0.6 3.35,2.69 4.36,3.66 2.13,2.09 3.46,3.87 3.46,4.29 0,0.41 -0.46,0.41 -0.6,0.41 -0.31,0 -0.42,-0.06 -0.59,-0.34 -1.08,-1.6 -1.81,-2.13 -2.64,-2.13 -0.42,0 -0.96,0.03 -2,1.05 -1.17,1.19 -1.94,1.42 -2.75,1.42 -2.78,0 -4.67,-3.03 -4.67,-4.06 0,-0.33 0.36,-0.42 0.59,-0.42 0.42,0 0.5,0.09 0.62,0.48 0.54,1.22 2.49,1.3 3.05,1.3 0.8,0 1.7,-0.22 2.19,-0.33 1.92,-0.41 2.16,-0.41 3.03,-0.41 -0.91,-0.95 -1.53,-1.57 -4.84,-4.22 -2.72,-2.15 -3.66,-3.03 -4.32,-3.73 -2.09,-2.05 -3.11,-3.58 -3.11,-3.91 0,-0.4 0.46,-0.4 0.6,-0.4 0.34,0 0.42,0.06 0.59,0.34 0.94,1.33 2.02,2.13 3.21,2.13 0.42,0 0.93,-0.03 1.87,-0.91 1.09,-1.05 1.78,-1.56 2.91,-1.56 3.72,0 6.06,4.22 6.06,5.39 0,0.42 -0.39,0.45 -0.59,0.45 -0.43,0 -0.5,-0.17 -0.63,-0.55 -0.67,-1.75 -2.72,-2.57 -4.44,-2.57 -0.79,0 -1.67,0.17 -2.53,0.37 -1.61,0.35 -1.89,0.35 -2.51,0.35 -0.08,0 -0.6,0 -0.8,-0.04 z"
           id="path4629" /></g>    </g>
    <g
       style="fill:#d45500;stroke-width:2"
       transform="matrix(0.49999998,0,0,0.49999999,-1.9399956,55.249379)"
       id="g4639">
      <g
         style="font-style:normal;font-variant:normal;font-weight:normal;font-stretch:normal;letter-spacing:normal;word-spacing:normal;text-anchor:start;fill:#d45500;fill-opacity:1;fill-rule:evenodd;stroke:#000000;stroke-width:2;stroke-linecap:butt;stroke-linejoin:miter;stroke-miterlimit:10.43299961;stroke-dasharray:none;stroke-dashoffset:0;stroke-opacity:1"
         id="g4637"
         transform="matrix(0.3,0,0,-0.3,-52.5,222.75)"
         xml:space="preserve"
         stroke-miterlimit="10.433"
         font-style="normal"
         font-variant="normal"
         font-weight="normal"
         font-stretch="normal"
         font-size-adjust="none"
         letter-spacing="normal"
         word-spacing="normal"><path
           style="fill:#d45500;stroke-width:0"
           inkscape:connector-curvature="0"
           d="m 474.16,436.39 0.04,0.16 0.04,0.16 0.04,0.15 0.04,0.14 0.04,0.14 0.04,0.13 0.05,0.12 0.05,0.11 0.05,0.11 0.06,0.11 0.07,0.09 0.07,0.09 0.08,0.09 0.08,0.08 0.1,0.07 0.1,0.07 0.12,0.06 0.12,0.06 0.14,0.05 0.15,0.05 0.17,0.04 0.08,0.02 0.09,0.02 0.1,0.02 0.1,0.02 0.1,0.01 0.1,0.02 0.11,0.01 0.12,0.01 0.12,0.02 0.12,0.01 0.13,0.01 h 0.13 l 0.13,0.01 0.14,0.01 0.15,0.01 h 0.15 0.16 l 0.16,0.01 h 0.16 0.17 0.18 0.18 c 1.19,0 1.6,0 1.6,0.96 0,0.59 -0.55,0.59 -0.75,0.59 -1.46,0 -5.15,-0.16 -6.58,-0.16 -1.5,0 -5.13,0.16 -6.63,0.16 -0.34,0 -1,0 -1,-1 0,-0.55 0.46,-0.55 1.39,-0.55 2.1,0 3.44,0 3.44,-0.95 0,-0.25 0,-0.34 -0.09,-0.8 l -6.72,-26.84 c -0.46,-1.84 -0.61,-2.34 -4.55,-2.34 -1.14,0 -1.59,0 -1.59,-1 0,-0.55 0.61,-0.55 0.75,-0.55 1.45,0 5.08,0.16 6.53,0.16 1.5,0 5.19,-0.16 6.67,-0.16 0.41,0 1,0 1,0.95 0,0.6 -0.41,0.6 -1.5,0.6 -0.89,0 -1.14,0 -2.14,0.09 -1.05,0.11 -1.23,0.3 -1.23,0.84 0,0.41 0.09,0.8 0.18,1.16 z"
           id="path4635" /></g>    </g>
    <path
       style="fill:#d45500;stroke:#d45500;stroke-width:0.40000001;stroke-linecap:butt;stroke-linejoin:miter;stroke-miterlimit:4;stroke-dasharray:none;stroke-opacity:1;marker-end:url(#marker4176)"
       d="m 37.941639,105.91368 -0.242992,-1.98974"
       id="path4641"
       inkscape:connector-curvature="0" />
    <path
       style="fill:none;fill-rule:evenodd;stroke:#d45500;stroke-width:0.5;stroke-miterlimit:4;stroke-dasharray:none"
       id="path4645"
       sodipodi:type="arc"
       sodipodi:cx="71.988083"
       sodipodi:cy="115.75214"
       sodipodi:rx="6.6817379"
       sodipodi:ry="22.45064"
       sodipodi:start="4.689822"
       sodipodi:end="1.5695645"
       sodipodi:open="true"
       d="m 71.837309,93.307213 a 6.6817379,22.45064 0 0 1 5.885006,10.920467 6.6817379,22.45064 0 0 1 0.08,22.58717 6.6817379,22.45064 0 0 1 -5.805997,11.38791" />
    <path
       inkscape:connector-curvature="0"
       id="path4647"
       d="m 77.941639,105.91368 -0.242992,-1.98974"
       style="fill:#d45500;stroke:#d45500;stroke-width:0.40000001;stroke-linecap:butt;stroke-linejoin:miter;stroke-miterlimit:4;stroke-dasharray:none;stroke-opacity:1;marker-end:url(#marker4112)" />
    <path
       inkscape:connector-curvature="0"
       id="path4651"
       d="m 57.941639,105.91368 -0.242992,-1.98974"
       style="fill:#d45500;stroke:#d45500;stroke-width:0.40000001;stroke-linecap:butt;stroke-linejoin:miter;stroke-miterlimit:4;stroke-dasharray:none;stroke-opacity:1;marker-end:url(#marker4969)" />
    <g
       id="g4927"
       transform="matrix(0.49999998,0,0,0.49999999,6.4306385,44.679954)"
       style="stroke-width:2">
      <g
         word-spacing="normal"
         letter-spacing="normal"
         font-size-adjust="none"
         font-stretch="normal"
         font-weight="normal"
         font-variant="normal"
         font-style="normal"
         stroke-miterlimit="10.433"
         xml:space="preserve"
         transform="matrix(0.3,0,0,-0.3,-52.5,222.75)"
         id="g4925"
         style="font-style:normal;font-variant:normal;font-weight:normal;font-stretch:normal;letter-spacing:normal;word-spacing:normal;text-anchor:start;fill:none;fill-opacity:1;fill-rule:evenodd;stroke:#000000;stroke-width:2;stroke-linecap:butt;stroke-linejoin:miter;stroke-miterlimit:10.43299961;stroke-dasharray:none;stroke-dashoffset:0;stroke-opacity:1"><path
           id="path4923"
           d="m 469.82,440.23 v 0 0.01 0 0.01 l -0.01,0.02 v 0.01 0.02 0.02 0.02 l -0.01,0.02 v 0.02 l -0.01,0.02 -0.01,0.02 -0.01,0.03 -0.01,0.02 -0.01,0.03 -0.01,0.02 -0.02,0.03 -0.02,0.02 -0.02,0.02 -0.02,0.03 -0.01,0.01 -0.01,0.01 -0.02,0.01 -0.01,0.01 -0.02,0.01 -0.01,0.01 -0.02,0.01 -0.01,0.01 -0.02,0.01 -0.02,0.01 h -0.02 l -0.02,0.01 -0.02,0.01 h -0.02 l -0.02,0.01 -0.02,0.01 h -0.03 -0.02 l -0.03,0.01 h -0.02 -0.03 l -0.03,0.01 h -0.02 -0.03 c -1.16,0 -4.79,-0.41 -6.08,-0.5 -0.41,-0.05 -0.96,-0.1 -0.96,-1 0,-0.6 0.46,-0.6 1.21,-0.6 2.39,0 2.48,-0.34 2.48,-0.84 l -0.15,-1 -7.22,-28.7 c -0.21,-0.69 -0.21,-0.8 -0.21,-1.1 0,-1.14 1,-1.39 1.46,-1.39 0.79,0 1.59,0.6 1.84,1.3 l 0.94,3.78 1.11,4.48 c 0.29,1.1 0.59,2.19 0.84,3.35 0.1,0.3 0.5,1.94 0.55,2.23 0.14,0.46 1.69,3.25 3.39,4.6 1.09,0.79 2.64,1.73 4.78,1.73 2.14,0 2.69,-1.69 2.69,-3.48 0,-2.69 -1.89,-8.13 -3.1,-11.16 -0.39,-1.16 -0.64,-1.75 -0.64,-2.75 0,-2.33 1.74,-4.08 4.08,-4.08 4.69,0 6.53,7.27 6.53,7.67 0,0.5 -0.45,0.5 -0.59,0.5 -0.5,0 -0.5,-0.15 -0.75,-0.9 -0.75,-2.64 -2.34,-6.17 -5.08,-6.17 -0.86,0 -1.2,0.5 -1.2,1.64 0,1.25 0.45,2.45 0.9,3.54 0.8,2.14 3.04,8.07 3.04,10.96 0,3.23 -2,5.32 -5.74,5.32 -3.14,0 -5.53,-1.53 -7.37,-3.82 z"
           inkscape:connector-curvature="0"
           style="fill:#000000;stroke-width:0" /></g>    </g>
    <path
       style="fill:none;stroke:#000000;stroke-width:0.26458332px;stroke-linecap:butt;stroke-linejoin:miter;stroke-opacity:1;marker-end:url(#marker5883)"
       d="M 72.476933,115.19344 V 97.995524"
       id="path5873"
       inkscape:connector-curvature="0" />
    <path
       style="fill:none;fill-rule:evenodd;stroke:#d45500;stroke-width:0.5;stroke-miterlimit:4;stroke-dasharray:none"
       id="path6173"
       sodipodi:type="arc"
       sodipodi:cx="130.94223"
       sodipodi:cy="115.75214"
       sodipodi:rx="6.6817379"
       sodipodi:ry="22.45064"
       sodipodi:start="4.689822"
       sodipodi:end="1.5695645"
       sodipodi:open="true"
       d="m 130.79146,93.307213 a 6.6817379,22.45064 0 0 1 5.885,10.920467 6.6817379,22.45064 0 0 1 0.08,22.58717 6.6817379,22.45064 0 0 1 -5.806,11.38791" />
    <path
       style="fill:none;stroke:#000000;stroke-width:0.26458332px;stroke-linecap:butt;stroke-linejoin:miter;stroke-opacity:1"
       d="m 130.79171,93.307208 h 55.56593"
       id="path6175"
       inkscape:connector-curvature="0" />
    <path
       inkscape:connector-curvature="0"
       id="path6177"
       d="m 130.59091,138.22756 h 55.74016"
       style="fill:none;stroke:#000000;stroke-width:0.26458332px;stroke-linecap:butt;stroke-linejoin:miter;stroke-opacity:1" />
    <path
       id="path6179"
       style="fill:none;fill-rule:evenodd;stroke:#000000;stroke-width:0.26499999;stroke-miterlimit:4;stroke-dasharray:none;stroke-dashoffset:0"
       sodipodi:type="arc"
       sodipodi:cx="130.65744"
       sodipodi:cy="115.75333"
       sodipodi:rx="6.6817379"
       sodipodi:ry="22.45064"
       sodipodi:start="1.5998629"
       sodipodi:end="4.7324524"
       sodipodi:open="true"
       d="m 130.46325,138.19448 a 6.6817379,22.45064 0 0 1 -6.48553,-22.9926 6.6817379,22.45064 0 0 1 6.81377,-21.894675" />
    <path
       style="fill:none;fill-rule:evenodd;stroke:#000000;stroke-width:0.26458332"
       id="path6181"
       sodipodi:type="arc"
       sodipodi:cx="186.32149"
       sodipodi:cy="115.77694"
       sodipodi:rx="6.6817379"
       sodipodi:ry="22.45064"
       sodipodi:start="4.689822"
       sodipodi:end="1.5695645"
       sodipodi:open="true"
       d="m 186.17071,93.332016 a 6.6817379,22.45064 0 0 1 5.88501,10.920464 6.6817379,22.45064 0 0 1 0.08,22.58717 6.6817379,22.45064 0 0 1 -5.806,11.38791" />
    <path
       inkscape:connector-curvature="0"
       id="path6183"
       d="m 129.85626,115.53231 h 66.95139"
       style="fill:none;stroke:#000000;stroke-width:0.26458332;stroke-linecap:butt;stroke-linejoin:miter;stroke-miterlimit:4;stroke-dasharray:0.79374995, 0.79374995;stroke-dashoffset:0;stroke-opacity:1" />
    <path
       style="fill:none;stroke:#000000;stroke-width:0.26458332px;stroke-linecap:butt;stroke-linejoin:miter;stroke-opacity:1;marker-end:url(#Arrow2Lend)"
       d="M 129.85626,115.53231 H 118.22997"
       id="path6185"
       inkscape:connector-curvature="0" />
    <g
       id="g6195"
       transform="matrix(0.48999999,0,0,0.48999999,69.3569,66.754771)"
       style="stroke-width:2.04081631">
      <g
         word-spacing="normal"
         letter-spacing="normal"
         font-size-adjust="none"
         font-stretch="normal"
         font-weight="normal"
         font-variant="normal"
         font-style="normal"
         stroke-miterlimit="10.433"
         xml:space="preserve"
         transform="matrix(0.3,0,0,-0.3,-52.5,222.75)"
         id="g6193"
         style="font-style:normal;font-variant:normal;font-weight:normal;font-stretch:normal;letter-spacing:normal;word-spacing:normal;text-anchor:start;fill:none;fill-opacity:1;fill-rule:evenodd;stroke:#000000;stroke-width:2.04081631;stroke-linecap:butt;stroke-linejoin:miter;stroke-miterlimit:10.43299961;stroke-dasharray:none;stroke-dashoffset:0;stroke-opacity:1"><path
           id="path6187"
           d="m 489.11,435.84 -0.07,-0.06 -0.07,-0.07 -0.08,-0.07 -0.08,-0.07 -0.08,-0.08 -0.09,-0.08 -0.09,-0.09 -0.1,-0.08 -0.09,-0.09 -0.1,-0.1 -0.19,-0.19 -0.2,-0.19 -0.19,-0.21 -0.09,-0.1 -0.09,-0.1 -0.09,-0.1 -0.08,-0.11 -0.08,-0.1 -0.08,-0.1 -0.07,-0.1 -0.06,-0.1 -0.06,-0.1 -0.06,-0.1 -0.04,-0.1 -0.04,-0.09 -0.03,-0.09 -0.03,-0.1 -0.01,-0.08 v -0.09 c 0,-0.5 0.5,-1 1,-1 0.45,0 0.7,0.36 0.95,0.66 0.59,0.75 1.73,2.14 3.94,3.23 0.34,0.21 0.84,0.46 0.84,1.05 0,0.5 -0.34,0.75 -0.7,1 -1.1,0.75 -1.64,1.64 -2.05,2.83 -0.09,0.45 -0.3,1.11 -0.98,1.11 -0.71,0 -1,-0.66 -1,-1.05 0,-0.25 0.39,-1.84 1.18,-2.89 h -16.78 c -0.84,0 -1.75,0 -1.75,-1 0,-1 0.91,-1 1.75,-1 z"
           inkscape:connector-curvature="0"
           style="fill:#000000;stroke-width:0" /><path
           id="path6189"
           d="m 464.83,417.71 0.14,0.01 h 0.16 0.16 0.18 l 0.19,0.01 h 0.2 l 0.21,0.01 0.21,0.01 0.23,0.01 0.23,0.01 0.24,0.01 0.24,0.02 0.25,0.02 0.26,0.02 0.52,0.05 0.54,0.07 0.54,0.07 0.55,0.1 0.54,0.11 0.53,0.12 0.26,0.07 0.26,0.08 0.26,0.08 0.24,0.08 0.25,0.09 0.23,0.1 c 3.49,1.5 3.74,4.43 3.74,5.12 0,2.2 -1.89,4.23 -5.33,4.23 v -1.09 c 2.34,0 3.69,-1.44 3.69,-3.14 0,-5.17 -7.97,-5.17 -10.02,-5.17 h -2.05 c 1.96,7.56 7.08,8.31 8.38,8.31 v 1.09 c -5.53,0 -13.05,-4.82 -13.05,-13.54 0,-5.08 2.94,-9.02 7.81,-9.02 7.13,0 11.32,5.28 11.32,5.88 0,0.29 -0.3,0.65 -0.6,0.65 -0.25,0 -0.34,-0.11 -0.65,-0.5 -3.94,-4.93 -9.36,-4.93 -9.96,-4.93 -3.89,0 -4.34,4.18 -4.34,5.78 0,0.59 0.05,2.14 0.8,5.18 z"
           inkscape:connector-curvature="0"
           style="fill:#000000;stroke-width:0" /><path
           id="path6191"
           d="m 484.54,401.82 0.17,0.17 0.16,0.17 0.17,0.16 0.17,0.17 0.18,0.17 0.09,0.09 0.1,0.1 0.1,0.09 0.11,0.1 0.11,0.1 0.11,0.11 0.13,0.11 0.13,0.11 0.13,0.12 0.15,0.13 0.15,0.13 0.16,0.14 0.17,0.14 0.17,0.15 0.19,0.16 0.2,0.16 0.21,0.17 0.22,0.18 0.23,0.19 0.25,0.2 0.25,0.21 0.27,0.21 c 0.74,0.6 3.35,2.69 4.36,3.66 2.13,2.09 3.46,3.87 3.46,4.29 0,0.41 -0.46,0.41 -0.6,0.41 -0.31,0 -0.42,-0.06 -0.59,-0.34 -1.08,-1.6 -1.81,-2.13 -2.64,-2.13 -0.42,0 -0.96,0.03 -2,1.05 -1.17,1.19 -1.94,1.42 -2.75,1.42 -2.78,0 -4.67,-3.03 -4.67,-4.06 0,-0.33 0.36,-0.42 0.59,-0.42 0.42,0 0.5,0.09 0.62,0.48 0.54,1.22 2.49,1.3 3.05,1.3 0.8,0 1.7,-0.22 2.19,-0.33 1.92,-0.41 2.16,-0.41 3.03,-0.41 -0.91,-0.95 -1.53,-1.57 -4.84,-4.22 -2.72,-2.15 -3.66,-3.03 -4.32,-3.73 -2.09,-2.05 -3.11,-3.58 -3.11,-3.91 0,-0.4 0.46,-0.4 0.6,-0.4 0.34,0 0.42,0.06 0.59,0.34 0.94,1.33 2.02,2.13 3.21,2.13 0.42,0 0.93,-0.03 1.87,-0.91 1.09,-1.05 1.78,-1.56 2.91,-1.56 3.72,0 6.06,4.22 6.06,5.39 0,0.42 -0.39,0.45 -0.59,0.45 -0.43,0 -0.5,-0.17 -0.63,-0.55 -0.67,-1.75 -2.72,-2.57 -4.44,-2.57 -0.79,0 -1.67,0.17 -2.53,0.37 -1.61,0.35 -1.89,0.35 -2.51,0.35 -0.08,0 -0.6,0 -0.8,-0.04 z"
           inkscape:connector-curvature="0"
           style="fill:#000000;stroke-width:0" /></g>    </g>
    <g
       id="g6201"
       transform="matrix(0.49999998,0,0,0.49999999,97.014226,55.249379)"
       style="fill:#d45500;stroke-width:2">
      <g
         word-spacing="normal"
         letter-spacing="normal"
         font-size-adjust="none"
         font-stretch="normal"
         font-weight="normal"
         font-variant="normal"
         font-style="normal"
         stroke-miterlimit="10.433"
         xml:space="preserve"
         transform="matrix(0.3,0,0,-0.3,-52.5,222.75)"
         id="g6199"
         style="font-style:normal;font-variant:normal;font-weight:normal;font-stretch:normal;letter-spacing:normal;word-spacing:normal;text-anchor:start;fill:#d45500;fill-opacity:1;fill-rule:evenodd;stroke:#000000;stroke-width:2;stroke-linecap:butt;stroke-linejoin:miter;stroke-miterlimit:10.43299961;stroke-dasharray:none;stroke-dashoffset:0;stroke-opacity:1"><path
           id="path6197"
           d="m 474.16,436.39 0.04,0.16 0.04,0.16 0.04,0.15 0.04,0.14 0.04,0.14 0.04,0.13 0.05,0.12 0.05,0.11 0.05,0.11 0.06,0.11 0.07,0.09 0.07,0.09 0.08,0.09 0.08,0.08 0.1,0.07 0.1,0.07 0.12,0.06 0.12,0.06 0.14,0.05 0.15,0.05 0.17,0.04 0.08,0.02 0.09,0.02 0.1,0.02 0.1,0.02 0.1,0.01 0.1,0.02 0.11,0.01 0.12,0.01 0.12,0.02 0.12,0.01 0.13,0.01 h 0.13 l 0.13,0.01 0.14,0.01 0.15,0.01 h 0.15 0.16 l 0.16,0.01 h 0.16 0.17 0.18 0.18 c 1.19,0 1.6,0 1.6,0.96 0,0.59 -0.55,0.59 -0.75,0.59 -1.46,0 -5.15,-0.16 -6.58,-0.16 -1.5,0 -5.13,0.16 -6.63,0.16 -0.34,0 -1,0 -1,-1 0,-0.55 0.46,-0.55 1.39,-0.55 2.1,0 3.44,0 3.44,-0.95 0,-0.25 0,-0.34 -0.09,-0.8 l -6.72,-26.84 c -0.46,-1.84 -0.61,-2.34 -4.55,-2.34 -1.14,0 -1.59,0 -1.59,-1 0,-0.55 0.61,-0.55 0.75,-0.55 1.45,0 5.08,0.16 6.53,0.16 1.5,0 5.19,-0.16 6.67,-0.16 0.41,0 1,0 1,0.95 0,0.6 -0.41,0.6 -1.5,0.6 -0.89,0 -1.14,0 -2.14,0.09 -1.05,0.11 -1.23,0.3 -1.23,0.84 0,0.41 0.09,0.8 0.18,1.16 z"
           inkscape:connector-curvature="0"
           style="fill:#d45500;stroke-width:0" /></g>    </g>
    <path
       inkscape:connector-curvature="0"
       id="path6203"
       d="m 136.89607,105.91368 -0.24299,-1.98974"
       style="fill:#d45500;stroke:#d45500;stroke-width:0.40000001;stroke-linecap:butt;stroke-linejoin:miter;stroke-miterlimit:4;stroke-dasharray:none;stroke-opacity:1;marker-end:url(#marker4176)" />
    <path
       d="m 170.79091,93.307213 a 6.6817379,22.45064 0 0 1 5.885,10.920467 6.6817379,22.45064 0 0 1 0.08,22.58717 6.6817379,22.45064 0 0 1 -5.806,11.38791"
       sodipodi:open="true"
       sodipodi:end="1.5695645"
       sodipodi:start="4.689822"
       sodipodi:ry="22.45064"
       sodipodi:rx="6.6817379"
       sodipodi:cy="115.75214"
       sodipodi:cx="170.94168"
       sodipodi:type="arc"
       id="path6205"
       style="fill:none;fill-rule:evenodd;stroke:#d45500;stroke-width:0.5;stroke-miterlimit:4;stroke-dasharray:none" />
    <path
       style="fill:#d45500;stroke:#d45500;stroke-width:0.40000001;stroke-linecap:butt;stroke-linejoin:miter;stroke-miterlimit:4;stroke-dasharray:none;stroke-opacity:1;marker-end:url(#marker4112)"
       d="m 176.8963,105.91368 -0.24299,-1.98974"
       id="path6207"
       inkscape:connector-curvature="0" />
    <path
       d="m 150.79118,93.307213 a 6.6817379,22.45064 0 0 1 5.88501,10.920467 6.6817379,22.45064 0 0 1 0.08,22.58717 6.6817379,22.45064 0 0 1 -5.80599,11.38791"
       sodipodi:open="true"
       sodipodi:end="1.5695645"
       sodipodi:start="4.689822"
       sodipodi:ry="22.45064"
       sodipodi:rx="6.6817379"
       sodipodi:cy="115.75214"
       sodipodi:cx="150.94196"
       sodipodi:type="arc"
       id="path6209"
       style="fill:none;fill-rule:evenodd;stroke:#d45500;stroke-width:0.5;stroke-miterlimit:4;stroke-dasharray:none" />
    <path
       style="fill:#d45500;stroke:#d45500;stroke-width:0.40000001;stroke-linecap:butt;stroke-linejoin:miter;stroke-miterlimit:4;stroke-dasharray:none;stroke-opacity:1;marker-end:url(#marker4969)"
       d="m 156.89619,105.91368 -0.24299,-1.98974"
       id="path6211"
       inkscape:connector-curvature="0" />
    <path
       inkscape:connector-curvature="0"
       id="path6213"
       d="m 130.7422,78.201842 h 38.17582"
       style="fill:none;stroke:#000000;stroke-width:0.26458332px;stroke-linecap:butt;stroke-linejoin:miter;stroke-opacity:1;marker-start:url(#marker6243);marker-end:url(#marker6337)" />
    <g
       style="stroke-width:2"
       transform="matrix(0.49999998,0,0,0.49999999,105.38489,26.688276)"
       id="g6219">
      <g
         style="font-style:normal;font-variant:normal;font-weight:normal;font-stretch:normal;letter-spacing:normal;word-spacing:normal;text-anchor:start;fill:none;fill-opacity:1;fill-rule:evenodd;stroke:#000000;stroke-width:2;stroke-linecap:butt;stroke-linejoin:miter;stroke-miterlimit:10.43299961;stroke-dasharray:none;stroke-dashoffset:0;stroke-opacity:1"
         id="g6217"
         transform="matrix(0.3,0,0,-0.3,-52.5,222.75)"
         xml:space="preserve"
         stroke-miterlimit="10.433"
         font-style="normal"
         font-variant="normal"
         font-weight="normal"
         font-stretch="normal"
         font-size-adjust="none"
         letter-spacing="normal"
         word-spacing="normal"><path
           style="fill:#000000;stroke-width:0"
           inkscape:connector-curvature="0"
           d="m 469.82,440.23 v 0 0.01 0 0.01 l -0.01,0.02 v 0.01 0.02 0.02 0.02 l -0.01,0.02 v 0.02 l -0.01,0.02 -0.01,0.02 -0.01,0.03 -0.01,0.02 -0.01,0.03 -0.01,0.02 -0.02,0.03 -0.02,0.02 -0.02,0.02 -0.02,0.03 -0.01,0.01 -0.01,0.01 -0.02,0.01 -0.01,0.01 -0.02,0.01 -0.01,0.01 -0.02,0.01 -0.01,0.01 -0.02,0.01 -0.02,0.01 h -0.02 l -0.02,0.01 -0.02,0.01 h -0.02 l -0.02,0.01 -0.02,0.01 h -0.03 -0.02 l -0.03,0.01 h -0.02 -0.03 l -0.03,0.01 h -0.02 -0.03 c -1.16,0 -4.79,-0.41 -6.08,-0.5 -0.41,-0.05 -0.96,-0.1 -0.96,-1 0,-0.6 0.46,-0.6 1.21,-0.6 2.39,0 2.48,-0.34 2.48,-0.84 l -0.15,-1 -7.22,-28.7 c -0.21,-0.69 -0.21,-0.8 -0.21,-1.1 0,-1.14 1,-1.39 1.46,-1.39 0.79,0 1.59,0.6 1.84,1.3 l 0.94,3.78 1.11,4.48 c 0.29,1.1 0.59,2.19 0.84,3.35 0.1,0.3 0.5,1.94 0.55,2.23 0.14,0.46 1.69,3.25 3.39,4.6 1.09,0.79 2.64,1.73 4.78,1.73 2.14,0 2.69,-1.69 2.69,-3.48 0,-2.69 -1.89,-8.13 -3.1,-11.16 -0.39,-1.16 -0.64,-1.75 -0.64,-2.75 0,-2.33 1.74,-4.08 4.08,-4.08 4.69,0 6.53,7.27 6.53,7.67 0,0.5 -0.45,0.5 -0.59,0.5 -0.5,0 -0.5,-0.15 -0.75,-0.9 -0.75,-2.64 -2.34,-6.17 -5.08,-6.17 -0.86,0 -1.2,0.5 -1.2,1.64 0,1.25 0.45,2.45 0.9,3.54 0.8,2.14 3.04,8.07 3.04,10.96 0,3.23 -2,5.32 -5.74,5.32 -3.14,0 -5.53,-1.53 -7.37,-3.82 z"
           id="path6215" /></g>    </g>
    <path
       inkscape:connector-curvature="0"
       id="path6239"
       d="M 171.43629,115.19346 V 80.583965"
       style="fill:none;stroke:#000000;stroke-width:0.26458335px;stroke-linecap:butt;stroke-linejoin:miter;stroke-opacity:1;marker-end:url(#marker6461)" />
    <path
       style="fill:#0000ff;stroke:#0000ff;stroke-width:0.26458332px;stroke-linecap:butt;stroke-linejoin:miter;stroke-opacity:1;marker-end:url(#marker6749)"
       d="m 69.891406,104.35565 -0.0084,-1.83256"
       id="path6739"
       inkscape:connector-curvature="0"
       sodipodi:nodetypes="cc" />
    <path
       sodipodi:nodetypes="cc"
       inkscape:connector-curvature="0"
       id="path7568"
       d="m 51.960984,97.82251 -1.83256,0.008"
       style="fill:#0000ff;stroke:#0000ff;stroke-width:0.26458332px;stroke-linecap:butt;stroke-linejoin:miter;stroke-opacity:1;marker-end:url(#marker7572)" />
    <path
       style="fill:#0000ff;stroke:#0000ff;stroke-width:0.26458332px;stroke-linecap:butt;stroke-linejoin:miter;stroke-opacity:1;marker-end:url(#marker7932)"
       d="m 31.797298,103.05743 0.008,1.83256"
       id="path7928"
       inkscape:connector-curvature="0"
       sodipodi:nodetypes="cc" />
    <path
       sodipodi:nodetypes="cc"
       inkscape:connector-curvature="0"
       id="path8342"
       d="m 49.593885,115.57588 1.83256,-0.008"
       style="fill:#0000ff;stroke:#0000ff;stroke-width:0.26458332px;stroke-linecap:butt;stroke-linejoin:miter;stroke-opacity:1;marker-end:url(#marker8346)" />
    <path
       sodipodi:nodetypes="cc"
       inkscape:connector-curvature="0"
       id="path8792"
       d="m 168.91477,101.01478 -0.008,-1.832559"
       style="fill:#0000ff;stroke:#0000ff;stroke-width:0.26458332px;stroke-linecap:butt;stroke-linejoin:miter;stroke-opacity:1;marker-end:url(#marker8796)" />
    <path
       style="fill:#0000ff;stroke:#0000ff;stroke-width:0.26458332px;stroke-linecap:butt;stroke-linejoin:miter;stroke-opacity:1;marker-end:url(#marker9426)"
       d="m 130.71941,99.831829 0.008,1.832561"
       id="path9422"
       inkscape:connector-curvature="0"
       sodipodi:nodetypes="cc" />
    <path
       sodipodi:nodetypes="cc"
       inkscape:connector-curvature="0"
       id="path10016"
       d="m 148.16535,79.905193 -1.83256,0.008"
       style="fill:#0000ff;stroke:#0000ff;stroke-width:0.26458332px;stroke-linecap:butt;stroke-linejoin:miter;stroke-opacity:1;marker-end:url(#marker10020)" />
    <path
       style="fill:#0000ff;stroke:#0000ff;stroke-width:0.26458332px;stroke-linecap:butt;stroke-linejoin:miter;stroke-opacity:1;marker-end:url(#marker10494)"
       d="m 146.98841,115.47962 1.83256,0.008"
       id="path10490"
       inkscape:connector-curvature="0"
       sodipodi:nodetypes="cc" />
    <g
       id="g11544"
       transform="matrix(0.49999998,0,0,0.49999998,-15.69492,61.67694)"
       style="fill:#0000ff;stroke-width:2">
      <g
         word-spacing="normal"
         letter-spacing="normal"
         font-size-adjust="none"
         font-stretch="normal"
         font-weight="normal"
         font-variant="normal"
         font-style="normal"
         stroke-miterlimit="10.433"
         xml:space="preserve"
         transform="matrix(0.3,0,0,-0.3,-52.5,222.75)"
         id="g11542"
         style="font-style:normal;font-variant:normal;font-weight:normal;font-stretch:normal;letter-spacing:normal;word-spacing:normal;text-anchor:start;fill:#0000ff;fill-opacity:1;fill-rule:evenodd;stroke:#000000;stroke-width:2;stroke-linecap:butt;stroke-linejoin:miter;stroke-miterlimit:10.43299961;stroke-dasharray:none;stroke-dashoffset:0;stroke-opacity:1"><path
           id="path11540"
           d="m 483.11,440.07 h -25.95 v -1.54 h 1.2 c 3.83,0 3.94,-0.55 3.94,-2.33 v -26.11 c 0,-1.8 -0.11,-2.34 -3.94,-2.34 h -1.2 v -1.55 c 1.75,0.16 5.64,0.16 7.58,0.16 2.05,0 6.58,0 8.37,-0.16 v 1.55 h -1.65 c -4.74,0 -4.74,0.64 -4.74,2.39 v 26.4 c 0,1.64 0.11,1.99 2.46,1.99 h 5.12 c 7.13,0 8.17,-2.94 8.97,-9.66 h 1.25 z"
           inkscape:connector-curvature="0"
           style="fill:#0000ff;stroke-width:0" /></g>    </g>
    <g
       style="fill:#0000ff;stroke-width:2"
       transform="matrix(0.49999998,0,0,0.49999998,82.408808,36.673816)"
       id="g11555">
      <g
         style="font-style:normal;font-variant:normal;font-weight:normal;font-stretch:normal;letter-spacing:normal;word-spacing:normal;text-anchor:start;fill:#0000ff;fill-opacity:1;fill-rule:evenodd;stroke:#000000;stroke-width:2;stroke-linecap:butt;stroke-linejoin:miter;stroke-miterlimit:10.43299961;stroke-dasharray:none;stroke-dashoffset:0;stroke-opacity:1"
         id="g11553"
         transform="matrix(0.3,0,0,-0.3,-52.5,222.75)"
         xml:space="preserve"
         stroke-miterlimit="10.433"
         font-style="normal"
         font-variant="normal"
         font-weight="normal"
         font-stretch="normal"
         font-size-adjust="none"
         letter-spacing="normal"
         word-spacing="normal"><path
           style="fill:#0000ff;stroke-width:0"
           inkscape:connector-curvature="0"
           d="m 483.11,440.07 h -25.95 v -1.54 h 1.2 c 3.83,0 3.94,-0.55 3.94,-2.33 v -26.11 c 0,-1.8 -0.11,-2.34 -3.94,-2.34 h -1.2 v -1.55 c 1.75,0.16 5.64,0.16 7.58,0.16 2.05,0 6.58,0 8.37,-0.16 v 1.55 h -1.65 c -4.74,0 -4.74,0.64 -4.74,2.39 v 26.4 c 0,1.64 0.11,1.99 2.46,1.99 h 5.12 c 7.13,0 8.17,-2.94 8.97,-9.66 h 1.25 z"
           id="path11551" /></g>    </g>
    <rect
       y="97.781021"
       x="31.7878"
       height="17.790401"
       width="38.175598"
       id="rect4643"
       style="opacity:1;fill:none;fill-opacity:1;fill-rule:evenodd;stroke:#0000ff;stroke-width:0.26499999;stroke-linecap:butt;stroke-linejoin:miter;stroke-miterlimit:4;stroke-dasharray:none;stroke-dashoffset:0;stroke-opacity:1" />
    <path
       d="m 31.837309,93.307213 a 6.6817379,22.45064 0 0 1 5.885006,10.920467 6.6817379,22.45064 0 0 1 0.08,22.58717 6.6817379,22.45064 0 0 1 -5.805997,11.38791"
       sodipodi:open="true"
       sodipodi:end="1.5695645"
       sodipodi:start="4.689822"
       sodipodi:ry="22.45064"
       sodipodi:rx="6.6817379"
       sodipodi:cy="115.75214"
       sodipodi:cx="31.988083"
       sodipodi:type="arc"
       id="path4611"
       style="fill:none;fill-rule:evenodd;stroke:#d45500;stroke-width:0.5;stroke-miterlimit:4;stroke-dasharray:none" />
    <path
       style="fill:none;fill-rule:evenodd;stroke:#d45500;stroke-width:0.5;stroke-miterlimit:4;stroke-dasharray:none"
       id="path4649"
       sodipodi:type="arc"
       sodipodi:cx="51.988083"
       sodipodi:cy="115.75214"
       sodipodi:rx="6.6817379"
       sodipodi:ry="22.45064"
       sodipodi:start="4.689822"
       sodipodi:end="1.5695645"
       sodipodi:open="true"
       d="m 51.837309,93.307213 a 6.6817379,22.45064 0 0 1 5.885006,10.920467 6.6817379,22.45064 0 0 1 0.08,22.58717 6.6817379,22.45064 0 0 1 -5.805997,11.38791" />
    <path
       style="fill:none;stroke:#000000;stroke-width:0.26458332px;stroke-linecap:butt;stroke-linejoin:miter;stroke-opacity:1;marker-start:url(#marker3520);marker-end:url(#marker4707)"
       d="M 31.7878,96.19352 H 69.963399"
       id="path4655"
       inkscape:connector-curvature="0" />
    <g
       id="g12030"
       transform="matrix(0.49999998,0,0,0.49999998,30.869317,57.812437)"
       style="stroke-width:2">
      <g
         word-spacing="normal"
         letter-spacing="normal"
         font-size-adjust="none"
         font-stretch="normal"
         font-weight="normal"
         font-variant="normal"
         font-style="normal"
         stroke-miterlimit="10.433"
         xml:space="preserve"
         transform="matrix(0.3,0,0,-0.3,-52.5,222.75)"
         id="g12028"
         style="font-style:normal;font-variant:normal;font-weight:normal;font-stretch:normal;letter-spacing:normal;word-spacing:normal;text-anchor:start;fill:none;fill-opacity:1;fill-rule:evenodd;stroke:#000000;stroke-width:4;stroke-linecap:butt;stroke-linejoin:miter;stroke-miterlimit:10.43299961;stroke-dasharray:none;stroke-dashoffset:0;stroke-opacity:1"><path
           id="path12026"
           d="m 459.91,409.14 -0.02,-0.07 -0.01,-0.08 -0.02,-0.07 -0.01,-0.08 -0.04,-0.16 -0.04,-0.16 -0.03,-0.16 -0.04,-0.16 -0.04,-0.16 -0.04,-0.16 -0.01,-0.08 -0.02,-0.07 -0.02,-0.07 -0.01,-0.07 -0.02,-0.07 -0.01,-0.07 -0.01,-0.06 -0.01,-0.06 -0.01,-0.06 -0.01,-0.05 -0.01,-0.05 -0.01,-0.04 -0.01,-0.04 v -0.04 -0.03 -0.02 c 0,-0.89 0.7,-1.35 1.43,-1.35 0.61,0 1.5,0.39 1.85,1.39 0.11,0.21 1.8,6.99 2,7.88 0.39,1.64 1.3,5.12 1.59,6.48 0.21,0.64 1.6,2.99 2.78,4.08 0.41,0.34 1.85,1.64 4,1.64 1.28,0 2.03,-0.59 2.08,-0.59 -1.48,-0.25 -2.58,-1.46 -2.58,-2.74 0,-0.79 0.55,-1.75 1.89,-1.75 1.35,0 2.74,1.14 2.74,2.94 0,1.75 -1.6,3.23 -4.13,3.23 -3.25,0 -5.43,-2.43 -6.39,-3.82 -0.39,2.23 -2.18,3.82 -4.53,3.82 -2.28,0 -3.23,-1.93 -3.69,-2.82 -0.89,-1.71 -1.54,-4.69 -1.54,-4.85 0,-0.5 0.5,-0.5 0.61,-0.5 0.5,0 0.54,0.07 0.84,1.16 0.84,3.53 1.84,5.92 3.64,5.92 0.84,0 1.55,-0.39 1.55,-2.28 0,-1.05 -0.16,-1.61 -0.8,-4.19 z"
           inkscape:connector-curvature="0"
           style="fill:#000000;stroke-width:0" /></g>    </g>
    <g
       id="g12184"
       transform="matrix(0.49999999,0,0,0.49999999,17.032084,53.845876)"
       style="stroke-width:2">
      <g
         word-spacing="normal"
         letter-spacing="normal"
         font-size-adjust="none"
         font-stretch="normal"
         font-weight="normal"
         font-variant="normal"
         font-style="normal"
         stroke-miterlimit="10.433"
         xml:space="preserve"
         transform="matrix(0.3,0,0,-0.3,-52.5,222.75)"
         id="g12182"
         style="font-style:normal;font-variant:normal;font-weight:normal;font-stretch:normal;letter-spacing:normal;word-spacing:normal;text-anchor:start;fill:none;fill-opacity:1;fill-rule:evenodd;stroke:#000000;stroke-width:4;stroke-linecap:butt;stroke-linejoin:miter;stroke-miterlimit:10.43299961;stroke-dasharray:none;stroke-dashoffset:0;stroke-opacity:1"><path
           id="path12180"
           d="m 501.66,436.39 0.04,0.16 0.04,0.16 0.04,0.15 0.04,0.14 0.04,0.14 0.04,0.13 0.04,0.12 0.05,0.11 0.05,0.11 0.05,0.11 0.07,0.09 0.06,0.09 0.08,0.09 0.08,0.08 0.09,0.07 0.09,0.07 0.11,0.06 0.12,0.06 0.13,0.05 0.14,0.05 0.15,0.04 0.09,0.02 0.08,0.02 0.09,0.02 0.09,0.02 0.1,0.01 0.1,0.02 0.1,0.01 0.11,0.01 0.11,0.02 0.12,0.01 0.12,0.01 h 0.12 l 0.13,0.01 0.13,0.01 0.14,0.01 h 0.14 0.15 l 0.15,0.01 h 0.16 0.16 0.17 0.17 c 1.14,0 1.6,0 1.6,1 0,0.55 -0.5,0.55 -1.35,0.55 h -6.58 c -1.29,0 -1.34,0 -1.93,-0.95 l -18.19,-28.39 -3.89,28.18 c -0.16,1.16 -0.25,1.16 -1.55,1.16 h -6.83 c -0.93,0 -1.48,0 -1.48,-0.95 0,-0.6 0.44,-0.6 1.44,-0.6 0.65,0 1.54,-0.04 2.14,-0.09 0.79,-0.11 1.09,-0.25 1.09,-0.8 0,-0.2 -0.05,-0.36 -0.19,-0.95 l -6.33,-25.36 c -0.5,-2 -1.34,-3.59 -5.39,-3.73 -0.25,0 -0.89,-0.05 -0.89,-0.96 0,-0.43 0.3,-0.59 0.71,-0.59 1.59,0 3.32,0.16 4.97,0.16 1.7,0 3.5,-0.16 5.14,-0.16 0.25,0 0.89,0 0.89,1 0,0.55 -0.55,0.55 -0.89,0.55 -2.85,0.04 -3.39,1.04 -3.39,2.18 0,0.35 0.04,0.6 0.2,1.14 l 6.76,27.16 h 0.07 l 4.28,-30.89 c 0.09,-0.59 0.14,-1.14 0.75,-1.14 0.54,0 0.84,0.55 1.09,0.89 l 20.13,31.55 h 0.04 l -7.12,-28.55 c -0.5,-1.95 -0.6,-2.34 -4.53,-2.34 -0.85,0 -1.39,0 -1.39,-0.96 0,-0.59 0.59,-0.59 0.75,-0.59 1.39,0 4.78,0.16 6.17,0.16 2.05,0 4.19,-0.16 6.23,-0.16 0.3,0 0.94,0 0.94,1 0,0.55 -0.45,0.55 -1.39,0.55 -1.84,0 -3.23,0 -3.23,0.89 0,0.2 0,0.29 0.25,1.2 z"
           inkscape:connector-curvature="0"
           style="fill:#000000;stroke-width:0" /></g>    </g>
    <circle
       style="fill:#000000;fill-rule:evenodd;stroke-width:0.26458332"
       id="path12191"
       cx="60.854164"
       cy="97.806534"
       r="0.69999999" />
    <g
       id="g12341"
       transform="matrix(0.5,0,0,0.49999998,12.769404,97.255002)"
       style="fill:#0000ff;stroke-width:2">
      <g
         word-spacing="normal"
         letter-spacing="normal"
         font-size-adjust="none"
         font-stretch="normal"
         font-weight="normal"
         font-variant="normal"
         font-style="normal"
         stroke-miterlimit="10.433"
         xml:space="preserve"
         transform="matrix(0.3,0,0,-0.3,-52.5,222.75)"
         id="content"
         style="font-style:normal;font-variant:normal;font-weight:normal;font-stretch:normal;letter-spacing:normal;word-spacing:normal;text-anchor:start;fill:#0000ff;fill-opacity:1;fill-rule:evenodd;stroke:#000000;stroke-width:4;stroke-linecap:butt;stroke-linejoin:miter;stroke-miterlimit:10.43299961;stroke-dasharray:none;stroke-dashoffset:0;stroke-opacity:1"><path
           id="path12334"
           d="m 459.91,409.14 -0.02,-0.07 -0.01,-0.08 -0.02,-0.07 -0.01,-0.08 -0.04,-0.16 -0.04,-0.16 -0.03,-0.16 -0.04,-0.16 -0.04,-0.16 -0.04,-0.16 -0.01,-0.08 -0.02,-0.07 -0.02,-0.07 -0.01,-0.07 -0.02,-0.07 -0.01,-0.07 -0.01,-0.06 -0.01,-0.06 -0.01,-0.06 -0.01,-0.05 -0.01,-0.05 -0.01,-0.04 -0.01,-0.04 v -0.04 -0.03 -0.02 c 0,-0.89 0.7,-1.35 1.43,-1.35 0.61,0 1.5,0.39 1.85,1.39 0.11,0.21 1.8,6.99 2,7.88 0.39,1.64 1.3,5.12 1.59,6.48 0.21,0.64 1.6,2.99 2.78,4.08 0.41,0.34 1.85,1.64 4,1.64 1.28,0 2.03,-0.59 2.08,-0.59 -1.48,-0.25 -2.58,-1.46 -2.58,-2.74 0,-0.79 0.55,-1.75 1.89,-1.75 1.35,0 2.74,1.14 2.74,2.94 0,1.75 -1.6,3.23 -4.13,3.23 -3.25,0 -5.43,-2.43 -6.39,-3.82 -0.39,2.23 -2.18,3.82 -4.53,3.82 -2.28,0 -3.23,-1.93 -3.69,-2.82 -0.89,-1.71 -1.54,-4.69 -1.54,-4.85 0,-0.5 0.5,-0.5 0.61,-0.5 0.5,0 0.54,0.07 0.84,1.16 0.84,3.53 1.84,5.92 3.64,5.92 0.84,0 1.55,-0.39 1.55,-2.28 0,-1.05 -0.16,-1.61 -0.8,-4.19 z"
           inkscape:connector-curvature="0"
           style="fill:#0000ff;stroke-width:0" /><path
           id="path12336"
           d="m 526.82,431.01 0.06,0.03 0.06,0.03 0.05,0.02 0.05,0.03 0.05,0.03 0.05,0.03 0.05,0.02 0.04,0.03 0.04,0.03 0.05,0.03 0.04,0.03 0.03,0.02 0.04,0.03 0.03,0.03 0.04,0.03 0.03,0.04 0.03,0.03 0.03,0.03 0.02,0.03 0.03,0.04 0.02,0.03 0.02,0.04 0.02,0.04 0.01,0.04 0.02,0.04 0.01,0.04 0.01,0.04 0.01,0.04 0.01,0.05 v 0.05 l 0.01,0.04 v 0.06 c 0,0.54 -0.46,1 -1,1 -0.14,0 -0.25,0 -0.89,-0.35 l -27.61,-13.01 c -0.55,-0.25 -0.94,-0.5 -0.94,-1.1 0,-0.59 0.39,-0.84 0.94,-1.09 l 27.61,-13 c 0.64,-0.36 0.75,-0.36 0.89,-0.36 0.54,0 1,0.45 1,1 0,0.55 -0.35,0.8 -0.96,1.09 l -26.15,12.36 z"
           inkscape:connector-curvature="0"
           style="fill:#0000ff;stroke-width:0" /><path
           id="path12338"
           d="m 564.45,425.03 -0.08,0.17 -0.09,0.17 -0.09,0.16 -0.1,0.16 -0.1,0.16 -0.1,0.16 -0.1,0.15 -0.11,0.14 -0.12,0.15 -0.11,0.13 -0.12,0.14 -0.13,0.13 -0.13,0.12 -0.13,0.12 -0.13,0.11 -0.14,0.11 -0.15,0.11 -0.14,0.09 -0.15,0.1 -0.16,0.08 -0.16,0.08 -0.16,0.08 -0.17,0.06 -0.17,0.07 -0.18,0.05 -0.18,0.05 -0.18,0.04 -0.19,0.03 -0.2,0.03 -0.2,0.02 -0.2,0.01 h -0.2 l 0.04,-1.09 c 3.24,0 3.94,-4.08 3.94,-4.37 0,-0.32 -0.09,-0.61 -0.14,-0.86 l -2.5,-9.77 c -0.25,-0.89 -0.25,-0.98 -1,-1.84 -2.19,-2.74 -4.24,-3.53 -5.63,-3.53 -2.48,0 -3.18,2.73 -3.18,4.68 0,2.49 1.59,8.61 2.73,10.91 1.55,2.94 3.8,4.78 5.78,4.78 l -0.04,1.09 c -5.83,0 -12,-7.31 -12,-14.59 0,-4.69 2.73,-7.97 6.62,-7.97 0.98,0 3.48,0.21 6.47,3.74 0.41,-2.1 2.14,-3.74 4.53,-3.74 1.75,0 2.89,1.14 3.69,2.74 0.84,1.79 1.5,4.84 1.5,4.93 0,0.5 -0.46,0.5 -0.6,0.5 -0.5,0 -0.54,-0.2 -0.7,-0.9 -0.84,-3.24 -1.75,-6.17 -3.78,-6.17 -1.34,0 -1.5,1.29 -1.5,2.29 0,1.1 0.09,1.49 0.64,3.69 0.56,2.09 0.66,2.59 1.11,4.48 l 1.78,6.97 c 0.36,1.39 0.36,1.5 0.36,1.69 0,0.86 -0.61,1.36 -1.45,1.36 -1.19,0 -1.94,-1.11 -2.1,-2.2 z"
           inkscape:connector-curvature="0"
           style="fill:#0000ff;stroke-width:0" /></g>    </g>
    <g
       id="g12504"
       transform="matrix(0.5,0,0,0.49999998,112.3206,97.255002)"
       style="fill:#0000ff;stroke-width:2">
      <g
         word-spacing="normal"
         letter-spacing="normal"
         font-size-adjust="none"
         font-stretch="normal"
         font-weight="normal"
         font-variant="normal"
         font-style="normal"
         stroke-miterlimit="10.433"
         xml:space="preserve"
         transform="matrix(0.3,0,0,-0.3,-52.5,222.75)"
         id="g12502"
         style="font-style:normal;font-variant:normal;font-weight:normal;font-stretch:normal;letter-spacing:normal;word-spacing:normal;text-anchor:start;fill:#0000ff;fill-opacity:1;fill-rule:evenodd;stroke:#000000;stroke-width:2;stroke-linecap:butt;stroke-linejoin:miter;stroke-miterlimit:10.43299961;stroke-dasharray:none;stroke-dashoffset:0;stroke-opacity:1"><path
           id="path12496"
           d="m 459.91,409.14 -0.02,-0.07 -0.01,-0.08 -0.02,-0.07 -0.01,-0.08 -0.04,-0.16 -0.04,-0.16 -0.03,-0.16 -0.04,-0.16 -0.04,-0.16 -0.04,-0.16 -0.01,-0.08 -0.02,-0.07 -0.02,-0.07 -0.01,-0.07 -0.02,-0.07 -0.01,-0.07 -0.01,-0.06 -0.01,-0.06 -0.01,-0.06 -0.01,-0.05 -0.01,-0.05 -0.01,-0.04 -0.01,-0.04 v -0.04 -0.03 -0.02 c 0,-0.89 0.7,-1.35 1.43,-1.35 0.61,0 1.5,0.39 1.85,1.39 0.11,0.21 1.8,6.99 2,7.88 0.39,1.64 1.3,5.12 1.59,6.48 0.21,0.64 1.6,2.99 2.78,4.08 0.41,0.34 1.85,1.64 4,1.64 1.28,0 2.03,-0.59 2.08,-0.59 -1.48,-0.25 -2.58,-1.46 -2.58,-2.74 0,-0.79 0.55,-1.75 1.89,-1.75 1.35,0 2.74,1.14 2.74,2.94 0,1.75 -1.6,3.23 -4.13,3.23 -3.25,0 -5.43,-2.43 -6.39,-3.82 -0.39,2.23 -2.18,3.82 -4.53,3.82 -2.28,0 -3.23,-1.93 -3.69,-2.82 -0.89,-1.71 -1.54,-4.69 -1.54,-4.85 0,-0.5 0.5,-0.5 0.61,-0.5 0.5,0 0.54,0.07 0.84,1.16 0.84,3.53 1.84,5.92 3.64,5.92 0.84,0 1.55,-0.39 1.55,-2.28 0,-1.05 -0.16,-1.61 -0.8,-4.19 z"
           inkscape:connector-curvature="0"
           style="fill:#0000ff;stroke-width:0" /><path
           id="path12498"
           d="m 526.82,417.56 0.1,0.05 0.1,0.04 0.05,0.03 0.05,0.02 0.04,0.03 0.04,0.02 0.05,0.03 0.04,0.02 0.04,0.03 0.04,0.03 0.03,0.03 0.04,0.03 0.03,0.03 0.04,0.03 0.03,0.03 0.03,0.03 0.02,0.04 0.03,0.03 0.02,0.04 0.03,0.04 0.02,0.04 0.01,0.04 0.02,0.04 0.02,0.04 0.01,0.05 0.01,0.05 0.01,0.04 v 0.05 l 0.01,0.06 v 0.05 c 0,0.6 -0.41,0.85 -0.96,1.1 l -27.59,13.01 c -0.66,0.35 -0.75,0.35 -0.91,0.35 -0.54,0 -0.98,-0.46 -0.98,-1 0,-0.46 0.25,-0.75 0.94,-1.1 l 26.15,-12.36 -26.15,-12.36 c -0.69,-0.34 -0.94,-0.64 -0.94,-1.09 0,-0.55 0.44,-1 0.98,-1 0.16,0 0.25,0 0.91,0.36 z"
           inkscape:connector-curvature="0"
           style="fill:#0000ff;stroke-width:0" /><path
           id="path12500"
           d="m 564.45,425.03 -0.08,0.17 -0.09,0.17 -0.09,0.16 -0.1,0.16 -0.1,0.16 -0.1,0.16 -0.1,0.15 -0.11,0.14 -0.12,0.15 -0.11,0.13 -0.12,0.14 -0.13,0.13 -0.13,0.12 -0.13,0.12 -0.13,0.11 -0.14,0.11 -0.15,0.11 -0.14,0.09 -0.15,0.1 -0.16,0.08 -0.16,0.08 -0.16,0.08 -0.17,0.06 -0.17,0.07 -0.18,0.05 -0.18,0.05 -0.18,0.04 -0.19,0.03 -0.2,0.03 -0.2,0.02 -0.2,0.01 h -0.2 l 0.04,-1.09 c 3.24,0 3.94,-4.08 3.94,-4.37 0,-0.32 -0.09,-0.61 -0.14,-0.86 l -2.5,-9.77 c -0.25,-0.89 -0.25,-0.98 -1,-1.84 -2.19,-2.74 -4.24,-3.53 -5.63,-3.53 -2.48,0 -3.18,2.73 -3.18,4.68 0,2.49 1.59,8.61 2.73,10.91 1.55,2.94 3.8,4.78 5.78,4.78 l -0.04,1.09 c -5.83,0 -12,-7.31 -12,-14.59 0,-4.69 2.73,-7.97 6.62,-7.97 0.98,0 3.48,0.21 6.47,3.74 0.41,-2.1 2.14,-3.74 4.53,-3.74 1.75,0 2.89,1.14 3.69,2.74 0.84,1.79 1.5,4.84 1.5,4.93 0,0.5 -0.46,0.5 -0.6,0.5 -0.5,0 -0.54,-0.2 -0.7,-0.9 -0.84,-3.24 -1.75,-6.17 -3.78,-6.17 -1.34,0 -1.5,1.29 -1.5,2.29 0,1.1 0.09,1.49 0.64,3.69 0.56,2.09 0.66,2.59 1.11,4.48 l 1.78,6.97 c 0.36,1.39 0.36,1.5 0.36,1.69 0,0.86 -0.61,1.36 -1.45,1.36 -1.19,0 -1.94,-1.11 -2.1,-2.2 z"
           inkscape:connector-curvature="0"
           style="fill:#0000ff;stroke-width:0" /></g>    </g>
    <rect
       style="opacity:1;fill:none;fill-opacity:1;fill-rule:evenodd;stroke:#0000ff;stroke-width:0.26499996;stroke-linecap:butt;stroke-linejoin:miter;stroke-miterlimit:4;stroke-dasharray:none;stroke-dashoffset:0;stroke-opacity:1"
       id="rect6171"
       width="38.175598"
       height="35.590706"
       x="130.74197"
       y="79.921654" />
    <g
       style="stroke-width:2"
       transform="matrix(0.49999998,0,0,0.49999998,130.56085,40.573552)"
       id="g12847">
      <g
         style="font-style:normal;font-variant:normal;font-weight:normal;font-stretch:normal;letter-spacing:normal;word-spacing:normal;text-anchor:start;fill:none;fill-opacity:1;fill-rule:evenodd;stroke:#000000;stroke-width:4;stroke-linecap:butt;stroke-linejoin:miter;stroke-miterlimit:10.43299961;stroke-dasharray:none;stroke-dashoffset:0;stroke-opacity:1"
         id="g12845"
         transform="matrix(0.3,0,0,-0.3,-52.5,222.75)"
         xml:space="preserve"
         stroke-miterlimit="10.433"
         font-style="normal"
         font-variant="normal"
         font-weight="normal"
         font-stretch="normal"
         font-size-adjust="none"
         letter-spacing="normal"
         word-spacing="normal"><path
           style="fill:#000000;stroke-width:0"
           inkscape:connector-curvature="0"
           d="m 459.91,409.14 -0.02,-0.07 -0.01,-0.08 -0.02,-0.07 -0.01,-0.08 -0.04,-0.16 -0.04,-0.16 -0.03,-0.16 -0.04,-0.16 -0.04,-0.16 -0.04,-0.16 -0.01,-0.08 -0.02,-0.07 -0.02,-0.07 -0.01,-0.07 -0.02,-0.07 -0.01,-0.07 -0.01,-0.06 -0.01,-0.06 -0.01,-0.06 -0.01,-0.05 -0.01,-0.05 -0.01,-0.04 -0.01,-0.04 v -0.04 -0.03 -0.02 c 0,-0.89 0.7,-1.35 1.43,-1.35 0.61,0 1.5,0.39 1.85,1.39 0.11,0.21 1.8,6.99 2,7.88 0.39,1.64 1.3,5.12 1.59,6.48 0.21,0.64 1.6,2.99 2.78,4.08 0.41,0.34 1.85,1.64 4,1.64 1.28,0 2.03,-0.59 2.08,-0.59 -1.48,-0.25 -2.58,-1.46 -2.58,-2.74 0,-0.79 0.55,-1.75 1.89,-1.75 1.35,0 2.74,1.14 2.74,2.94 0,1.75 -1.6,3.23 -4.13,3.23 -3.25,0 -5.43,-2.43 -6.39,-3.82 -0.39,2.23 -2.18,3.82 -4.53,3.82 -2.28,0 -3.23,-1.93 -3.69,-2.82 -0.89,-1.71 -1.54,-4.69 -1.54,-4.85 0,-0.5 0.5,-0.5 0.61,-0.5 0.5,0 0.54,0.07 0.84,1.16 0.84,3.53 1.84,5.92 3.64,5.92 0.84,0 1.55,-0.39 1.55,-2.28 0,-1.05 -0.16,-1.61 -0.8,-4.19 z"
           id="path12843" /></g>    </g>
    <circle
       r="0.69999999"
       cy="80.041656"
       cx="160.07292"
       id="circle12849"
       style="fill:#000000;fill-rule:evenodd;stroke-width:0.26458332" />
    <g
       style="stroke-width:2"
       transform="matrix(0.49999999,0,0,0.49999999,114.73893,36.458972)"
       id="g12855">
      <g
         style="font-style:normal;font-variant:normal;font-weight:normal;font-stretch:normal;letter-spacing:normal;word-spacing:normal;text-anchor:start;fill:none;fill-opacity:1;fill-rule:evenodd;stroke:#000000;stroke-width:4;stroke-linecap:butt;stroke-linejoin:miter;stroke-miterlimit:10.43299961;stroke-dasharray:none;stroke-dashoffset:0;stroke-opacity:1"
         id="g12853"
         transform="matrix(0.3,0,0,-0.3,-52.5,222.75)"
         xml:space="preserve"
         stroke-miterlimit="10.433"
         font-style="normal"
         font-variant="normal"
         font-weight="normal"
         font-stretch="normal"
         font-size-adjust="none"
         letter-spacing="normal"
         word-spacing="normal"><path
           style="fill:#000000;stroke-width:0"
           inkscape:connector-curvature="0"
           d="m 501.66,436.39 0.04,0.16 0.04,0.16 0.04,0.15 0.04,0.14 0.04,0.14 0.04,0.13 0.04,0.12 0.05,0.11 0.05,0.11 0.05,0.11 0.07,0.09 0.06,0.09 0.08,0.09 0.08,0.08 0.09,0.07 0.09,0.07 0.11,0.06 0.12,0.06 0.13,0.05 0.14,0.05 0.15,0.04 0.09,0.02 0.08,0.02 0.09,0.02 0.09,0.02 0.1,0.01 0.1,0.02 0.1,0.01 0.11,0.01 0.11,0.02 0.12,0.01 0.12,0.01 h 0.12 l 0.13,0.01 0.13,0.01 0.14,0.01 h 0.14 0.15 l 0.15,0.01 h 0.16 0.16 0.17 0.17 c 1.14,0 1.6,0 1.6,1 0,0.55 -0.5,0.55 -1.35,0.55 h -6.58 c -1.29,0 -1.34,0 -1.93,-0.95 l -18.19,-28.39 -3.89,28.18 c -0.16,1.16 -0.25,1.16 -1.55,1.16 h -6.83 c -0.93,0 -1.48,0 -1.48,-0.95 0,-0.6 0.44,-0.6 1.44,-0.6 0.65,0 1.54,-0.04 2.14,-0.09 0.79,-0.11 1.09,-0.25 1.09,-0.8 0,-0.2 -0.05,-0.36 -0.19,-0.95 l -6.33,-25.36 c -0.5,-2 -1.34,-3.59 -5.39,-3.73 -0.25,0 -0.89,-0.05 -0.89,-0.96 0,-0.43 0.3,-0.59 0.71,-0.59 1.59,0 3.32,0.16 4.97,0.16 1.7,0 3.5,-0.16 5.14,-0.16 0.25,0 0.89,0 0.89,1 0,0.55 -0.55,0.55 -0.89,0.55 -2.85,0.04 -3.39,1.04 -3.39,2.18 0,0.35 0.04,0.6 0.2,1.14 l 6.76,27.16 h 0.07 l 4.28,-30.89 c 0.09,-0.59 0.14,-1.14 0.75,-1.14 0.54,0 0.84,0.55 1.09,0.89 l 20.13,31.55 h 0.04 l -7.12,-28.55 c -0.5,-1.95 -0.6,-2.34 -4.53,-2.34 -0.85,0 -1.39,0 -1.39,-0.96 0,-0.59 0.59,-0.59 0.75,-0.59 1.39,0 4.78,0.16 6.17,0.16 2.05,0 4.19,-0.16 6.23,-0.16 0.3,0 0.94,0 0.94,1 0,0.55 -0.45,0.55 -1.39,0.55 -1.84,0 -3.23,0 -3.23,0.89 0,0.2 0,0.29 0.25,1.2 z"
           id="path12851" /></g>    </g>
  </g>
</svg>
