<?xml version="1.0" encoding="UTF-8" standalone="no"?>
<!-- Created with Inkscape (http://www.inkscape.org/) -->

<svg
   width="210mm"
   height="297mm"
   viewBox="0 0 210 297"
   version="1.1"
   id="svg8"
   inkscape:version="1.3.2 (1:1.3.2+202311252150+091e20ef0f)"
   sodipodi:docname="spire_surface.svg"
   inkscape:export-filename="spire_surface.png"
   inkscape:export-xdpi="300"
   inkscape:export-ydpi="300"
   xmlns:inkscape="http://www.inkscape.org/namespaces/inkscape"
   xmlns:sodipodi="http://sodipodi.sourceforge.net/DTD/sodipodi-0.dtd"
   xmlns="http://www.w3.org/2000/svg"
   xmlns:svg="http://www.w3.org/2000/svg"
   xmlns:rdf="http://www.w3.org/1999/02/22-rdf-syntax-ns#"
   xmlns:cc="http://creativecommons.org/ns#"
   xmlns:dc="http://purl.org/dc/elements/1.1/">
  <sodipodi:namedview
     id="base"
     pagecolor="#ffffff"
     bordercolor="#666666"
     borderopacity="1.0"
     inkscape:pageopacity="0.0"
     inkscape:pageshadow="2"
     inkscape:zoom="1.4683982"
     inkscape:cx="441.6377"
     inkscape:cy="455.939"
     inkscape:document-units="mm"
     inkscape:current-layer="layer1"
     showgrid="false"
     inkscape:snap-global="false"
     inkscape:window-width="3440"
     inkscape:window-height="1364"
     inkscape:window-x="0"
     inkscape:window-y="0"
     inkscape:window-maximized="1"
     inkscape:showpageshadow="0"
     inkscape:pagecheckerboard="0"
     inkscape:deskcolor="#d1d1d1" />
  <defs
     id="defs2">
    <marker
       inkscape:isstock="true"
       style="overflow:visible;"
       id="marker2249"
       refX="0.0"
       refY="0.0"
       orient="auto"
       inkscape:stockid="Arrow2Lend">
      <path
         transform="scale(1.1) rotate(180) translate(1,0)"
         d="M 8.7185878,4.0337352 L -2.2072895,0.016013256 L 8.7185884,-4.0017078 C 6.9730900,-1.6296469 6.9831476,1.6157441 8.7185878,4.0337352 z "
         style="fill-rule:evenodd;stroke-width:0.625;stroke-linejoin:round;stroke:#ff0000;stroke-opacity:1;fill:#ff0000;fill-opacity:1"
         id="path2247" />
    </marker>
    <inkscape:path-effect
       effect="spiro"
       id="path-effect3548"
       is_visible="true" />
    <marker
       inkscape:stockid="Arrow2Lend"
       orient="auto"
       refY="0.0"
       refX="0.0"
       id="marker3230"
       style="overflow:visible;"
       inkscape:isstock="true">
      <path
         id="path3228"
         style="fill-rule:evenodd;stroke-width:0.625;stroke-linejoin:round;stroke:#000000;stroke-opacity:1;fill:#000000;fill-opacity:1"
         d="M 8.7185878,4.0337352 L -2.2072895,0.016013256 L 8.7185884,-4.0017078 C 6.9730900,-1.6296469 6.9831476,1.6157441 8.7185878,4.0337352 z "
         transform="scale(1.1) rotate(180) translate(1,0)" />
    </marker>
    <marker
       inkscape:isstock="true"
       style="overflow:visible;"
       id="marker1453"
       refX="0.0"
       refY="0.0"
       orient="auto"
       inkscape:stockid="Arrow2Lend"
       inkscape:collect="always">
      <path
         transform="scale(1.1) rotate(180) translate(1,0)"
         d="M 8.7185878,4.0337352 L -2.2072895,0.016013256 L 8.7185884,-4.0017078 C 6.9730900,-1.6296469 6.9831476,1.6157441 8.7185878,4.0337352 z "
         style="fill-rule:evenodd;stroke-width:0.625;stroke-linejoin:round;stroke:none;stroke-opacity:1;fill:none;fill-opacity:1"
         id="path1451" />
    </marker>
    <marker
       inkscape:stockid="Arrow2Lend"
       orient="auto"
       refY="0.0"
       refX="0.0"
       id="Arrow2Lend"
       style="overflow:visible;"
       inkscape:isstock="true"
       inkscape:collect="always">
      <path
         id="path840"
         style="fill-rule:evenodd;stroke-width:0.625;stroke-linejoin:round;stroke:#ff0000;stroke-opacity:1;fill:#ff0000;fill-opacity:1"
         d="M 8.7185878,4.0337352 L -2.2072895,0.016013256 L 8.7185884,-4.0017078 C 6.9730900,-1.6296469 6.9831476,1.6157441 8.7185878,4.0337352 z "
         transform="scale(1.1) rotate(180) translate(1,0)" />
    </marker>
  </defs>
  <metadata
     id="metadata5">
    <rdf:RDF>
      <cc:Work
         rdf:about="">
        <dc:format>image/svg+xml</dc:format>
        <dc:type
           rdf:resource="http://purl.org/dc/dcmitype/StillImage" />
        <dc:title />
      </cc:Work>
    </rdf:RDF>
  </metadata>
  <g
     inkscape:label="Calque 1"
     inkscape:groupmode="layer"
     id="layer1">
    <path
       style="opacity:0.5;fill:#b3b3b3;fill-opacity:1;fill-rule:evenodd;stroke:none;stroke-width:1.00157475;stroke-linecap:butt;stroke-linejoin:miter;stroke-miterlimit:4;stroke-dasharray:4.00629902, 4.00629902000000016;stroke-dashoffset:0;stroke-opacity:1"
       d="m 342.96782,384.92245 c -58.63471,-0.0527 -117.80247,5.8746 -174.09479,22.86055 -21.83416,7.47943 -45.50168,15.60672 -60.74003,33.9191 -9.018101,10.15546 -6.35058,25.98168 3.43492,34.58786 20.09108,18.96186 47.6729,26.8743 73.63065,34.24851 59.68148,15.07583 121.60088,19.9084 183.02023,18.06814 56.1009,-0.60065 112.61522,-6.88324 166.36799,-23.46505 21.77907,-7.61951 45.61473,-16.04663 59.82615,-35.30711 8.20547,-11.02952 2.91386,-26.25005 -6.98425,-34.24654 -22.73057,-19.61129 -52.722,-27.64039 -81.19583,-34.95279 -53.4355,-12.42803 -108.49988,-16.60742 -163.26504,-15.71267 z"
       id="path2075"
       inkscape:connector-curvature="0"
       transform="scale(0.26458333)"
       inkscape:export-filename="spire_surface.pdf"
       inkscape:export-xdpi="300"
       inkscape:export-ydpi="300" />
    <ellipse
       style="fill:none;fill-rule:evenodd;stroke:#ff0000;stroke-width:0.5;stroke-miterlimit:4;stroke-dasharray:none"
       id="path815"
       cx="92.742523"
       cy="120.86938"
       rx="66.015572"
       ry="19.510675" />
    <path
       inkscape:connector-curvature="0"
       id="path1449"
       d="m 93.812996,90.954878 h -2.6727"
       style="fill:none;stroke:none;stroke-width:0.5;stroke-linecap:butt;stroke-linejoin:miter;stroke-miterlimit:4;stroke-dasharray:none;stroke-opacity:1;marker-end:url(#marker1453)" />
    <g
       id="g3525"
       transform="translate(77.429594,24.601013)"
       style="fill:#ff0000">
      <g
         word-spacing="normal"
         letter-spacing="normal"
         font-size-adjust="none"
         font-stretch="normal"
         font-weight="normal"
         font-variant="normal"
         font-style="normal"
         stroke-miterlimit="10.433"
         xml:space="preserve"
         transform="matrix(0.3,0,0,-0.3,-52.5,222.75)"
         id="content"
         style="font-style:normal;font-variant:normal;font-weight:normal;font-stretch:normal;letter-spacing:normal;word-spacing:normal;text-anchor:start;fill:#ff0000;fill-opacity:1;fill-rule:evenodd;stroke:#000000;stroke-linecap:butt;stroke-linejoin:miter;stroke-miterlimit:10.433;stroke-dasharray:none;stroke-dashoffset:0;stroke-opacity:1"><path
           id="path3522"
           d="m 483.11,440.07 h -25.95 v -1.54 h 1.2 c 3.83,0 3.94,-0.55 3.94,-2.33 v -26.11 c 0,-1.8 -0.11,-2.34 -3.94,-2.34 h -1.2 v -1.55 c 1.75,0.16 5.64,0.16 7.58,0.16 2.05,0 6.58,0 8.37,-0.16 v 1.55 h -1.65 c -4.74,0 -4.74,0.64 -4.74,2.39 v 26.4 c 0,1.64 0.11,1.99 2.46,1.99 h 5.12 c 7.13,0 8.17,-2.94 8.97,-9.66 h 1.25 z"
           inkscape:connector-curvature="0"
           style="fill:#ff0000;stroke-width:0" /></g>
    </g>
    <path
       style="fill:none;stroke:#000000;stroke-width:0.5;stroke-linecap:butt;stroke-linejoin:miter;stroke-miterlimit:4;stroke-dasharray:none;stroke-opacity:1;marker-end:url(#marker3230)"
       d="M 94.351386,120.79589 V 82.500947"
       id="path3220"
       inkscape:connector-curvature="0" />
    <g
       id="g3578"
       transform="translate(-30.483051,23.144987)">
      <g
         word-spacing="normal"
         letter-spacing="normal"
         font-size-adjust="none"
         font-stretch="normal"
         font-weight="normal"
         font-variant="normal"
         font-style="normal"
         stroke-miterlimit="10.433"
         xml:space="preserve"
         transform="matrix(0.3,0,0,-0.3,-52.5,222.75)"
         id="g3576"
         style="font-style:normal;font-variant:normal;font-weight:normal;font-stretch:normal;letter-spacing:normal;word-spacing:normal;text-anchor:start;fill:none;fill-opacity:1;fill-rule:evenodd;stroke:#000000;stroke-linecap:butt;stroke-linejoin:miter;stroke-miterlimit:10.433;stroke-dasharray:none;stroke-dashoffset:0;stroke-opacity:1"><path
           id="path3574"
           d="m 487.66,440.82 v 0.02 0.02 0.01 l -0.01,0.02 v 0.02 0.02 l -0.01,0.02 v 0.02 l -0.01,0.02 -0.01,0.02 -0.01,0.02 -0.01,0.02 -0.01,0.02 -0.01,0.02 -0.01,0.02 -0.02,0.02 -0.02,0.02 -0.01,0.02 -0.02,0.02 -0.02,0.02 -0.02,0.01 -0.03,0.02 -0.02,0.01 -0.03,0.02 -0.02,0.01 -0.03,0.01 -0.02,0.01 h -0.01 l -0.02,0.01 h -0.02 -0.01 l -0.02,0.01 h -0.02 -0.02 -0.02 -0.02 -0.02 -0.02 c -0.25,0 -0.31,-0.04 -0.9,-0.75 l -2.39,-2.84 c -1.3,2.34 -3.89,3.59 -7.13,3.59 -6.33,0 -12.3,-5.73 -12.3,-11.76 0,-4.03 2.65,-6.33 5.18,-7.06 l 5.32,-1.41 c 1.85,-0.44 4.6,-1.19 4.6,-5.28 0,-4.49 -4.1,-9.16 -8.97,-9.16 -3.19,0 -8.72,1.1 -8.72,7.27 0,1.2 0.25,2.39 0.3,2.69 0.04,0.2 0.09,0.25 0.09,0.35 0,0.5 -0.34,0.55 -0.59,0.55 -0.25,0 -0.35,-0.05 -0.5,-0.2 -0.21,-0.2 -2.99,-11.56 -2.99,-11.7 0,-0.3 0.25,-0.5 0.55,-0.5 0.25,0 0.3,0.04 0.89,0.75 l 2.45,2.82 c 2.14,-2.89 5.52,-3.57 8.41,-3.57 6.78,0 12.66,6.62 12.66,12.79 0,3.44 -1.69,5.14 -2.44,5.83 -1.14,1.16 -1.89,1.34 -6.33,2.5 -1.09,0.3 -2.89,0.8 -3.34,0.89 -1.35,0.45 -3.03,1.89 -3.03,4.53 0,4.05 3.98,8.28 8.71,8.28 4.15,0 7.18,-2.14 7.18,-7.73 0,-1.59 -0.21,-2.49 -0.21,-2.78 0,-0.05 0,-0.5 0.61,-0.5 0.5,0 0.55,0.15 0.74,1 z"
           inkscape:connector-curvature="0"
           style="fill:#000000;stroke-width:0" /></g>
    </g>
    <path
       style="fill:#ff0000;stroke:#ff0000;stroke-width:0.5;stroke-linecap:butt;stroke-linejoin:miter;stroke-miterlimit:4;stroke-dasharray:none;stroke-opacity:1;marker-end:url(#Arrow2Lend)"
       d="m 92.533966,140.3122 h 2.672696"
       id="path817"
       inkscape:connector-curvature="0" />
    <path
       inkscape:connector-curvature="0"
       id="path2245"
       d="m 87.219816,101.33146 -2.667546,0.16591"
       style="fill:#ff0000;stroke:#ff0000;stroke-width:0.5;stroke-linecap:butt;stroke-linejoin:miter;stroke-miterlimit:4;stroke-dasharray:none;stroke-opacity:1;marker-end:url(#marker2249)" />
    <g
       id="g3546"
       transform="translate(9.827381,54.050595)"
       style="fill:#ff0000">
      <g
         word-spacing="normal"
         letter-spacing="normal"
         font-size-adjust="none"
         font-stretch="normal"
         font-weight="normal"
         font-variant="normal"
         font-style="normal"
         stroke-miterlimit="10.433"
         xml:space="preserve"
         transform="matrix(0.3,0,0,-0.3,-52.5,222.75)"
         id="g3544"
         style="font-style:normal;font-variant:normal;font-weight:normal;font-stretch:normal;letter-spacing:normal;word-spacing:normal;text-anchor:start;fill:#ff0000;fill-opacity:1;fill-rule:evenodd;stroke:#000000;stroke-linecap:butt;stroke-linejoin:miter;stroke-miterlimit:10.43299961;stroke-dasharray:none;stroke-dashoffset:0;stroke-opacity:1"><path
           id="path3542"
           d="m 474.16,436.39 0.04,0.16 0.04,0.16 0.04,0.15 0.04,0.14 0.04,0.14 0.04,0.13 0.05,0.12 0.05,0.11 0.05,0.11 0.06,0.11 0.07,0.09 0.07,0.09 0.08,0.09 0.08,0.08 0.1,0.07 0.1,0.07 0.12,0.06 0.12,0.06 0.14,0.05 0.15,0.05 0.17,0.04 0.08,0.02 0.09,0.02 0.1,0.02 0.1,0.02 0.1,0.01 0.1,0.02 0.11,0.01 0.12,0.01 0.12,0.02 0.12,0.01 0.13,0.01 h 0.13 l 0.13,0.01 0.14,0.01 0.15,0.01 h 0.15 0.16 l 0.16,0.01 h 0.16 0.17 0.18 0.18 c 1.19,0 1.6,0 1.6,0.96 0,0.59 -0.55,0.59 -0.75,0.59 -1.46,0 -5.15,-0.16 -6.58,-0.16 -1.5,0 -5.13,0.16 -6.63,0.16 -0.34,0 -1,0 -1,-1 0,-0.55 0.46,-0.55 1.39,-0.55 2.1,0 3.44,0 3.44,-0.95 0,-0.25 0,-0.34 -0.09,-0.8 l -6.72,-26.84 c -0.46,-1.84 -0.61,-2.34 -4.55,-2.34 -1.14,0 -1.59,0 -1.59,-1 0,-0.55 0.61,-0.55 0.75,-0.55 1.45,0 5.08,0.16 6.53,0.16 1.5,0 5.19,-0.16 6.67,-0.16 0.41,0 1,0 1,0.95 0,0.6 -0.41,0.6 -1.5,0.6 -0.89,0 -1.14,0 -2.14,0.09 -1.05,0.11 -1.23,0.3 -1.23,0.84 0,0.41 0.09,0.8 0.18,1.16 z"
           inkscape:connector-curvature="0"
           style="fill:#ff0000;stroke-width:0" /></g>
    </g>
    <g
       inkscape:label=""
       transform="matrix(4.2683215,0,0,4.2683215,90.972865,68.419667)"
       id="g1"
       style="stroke-width:0.234284">
      <g
         id="surface1"
         transform="matrix(0.352778,0,0,0.352778,-0.796299,-0.70141)"
         style="stroke-width:0.234284">
        <g
           style="fill:#000000;fill-opacity:1;stroke-width:0.234284"
           id="g4">
          <g
             id="use3"
             transform="translate(2.0450001,7.7069998)"
             style="stroke-width:0.234284">
            <path
               style="stroke:none;stroke-width:0.234284"
               d="m 4.390625,-4.71875 -0.1875,0.1875 c -0.140625,0.15625 -0.15625,0.203125 -0.15625,0.265625 0,0.09375 0.078125,0.171875 0.171875,0.171875 0.09375,0 0.125,-0.046875 0.15625,-0.078125 0.109375,-0.125 0.296875,-0.359375 0.671875,-0.53125 C 5.125,-4.75 5.21875,-4.796875 5.21875,-4.90625 c 0,-0.09375 -0.078125,-0.140625 -0.125,-0.171875 -0.25,-0.15625 -0.328125,-0.34375 -0.375,-0.453125 -0.015625,-0.078125 -0.046875,-0.1875 -0.171875,-0.1875 -0.125,0 -0.1875,0.109375 -0.1875,0.1875 0,0.046875 0.0625,0.25 0.1875,0.453125 h -2.78125 c -0.125,0 -0.3125,0 -0.3125,0.171875 0,0.1875 0.1875,0.1875 0.3125,0.1875 z m 0,0"
               id="path5" />
          </g>
        </g>
        <g
           style="fill:#000000;fill-opacity:1;stroke-width:0.234284"
           id="g5">
          <g
             id="use4"
             transform="translate(1.9916,7.7069998)"
             style="stroke-width:0.234284">
            <path
               style="stroke:none;stroke-width:0.234284"
               d="M 1.921875,-2.8125 C 1.96875,-2.96875 2.03125,-3.234375 2.03125,-3.265625 c 0,-0.171875 -0.125,-0.25 -0.265625,-0.25 C 1.5,-3.515625 1.4375,-3.25 1.40625,-3.140625 L 0.296875,1.28125 c -0.03125,0.125 -0.03125,0.171875 -0.03125,0.1875 0,0.203125 0.15625,0.25 0.25,0.25 0.046875,0 0.21875,-0.015625 0.328125,-0.21875 0.03125,-0.0625 0.25,-1.015625 0.421875,-1.65625 0.125,0.109375 0.40625,0.234375 0.8125,0.234375 0.640625,0 1.078125,-0.53125 1.09375,-0.5625 0.15625,0.546875 0.6875,0.5625 0.78125,0.5625 0.375,0 0.5625,-0.296875 0.625,-0.4375 0.15625,-0.28125 0.265625,-0.75 0.265625,-0.78125 C 4.84375,-1.1875 4.8125,-1.25 4.71875,-1.25 4.625,-1.25 4.609375,-1.1875 4.5625,-1 c -0.109375,0.4375 -0.265625,0.859375 -0.578125,0.859375 -0.1875,0 -0.25,-0.15625 -0.25,-0.375 C 3.734375,-0.65625 3.8125,-1 3.875,-1.234375 l 0.203125,-0.8125 C 4.125,-2.25 4.171875,-2.421875 4.234375,-2.65625 4.265625,-2.828125 4.34375,-3.140625 4.34375,-3.1875 c 0,-0.203125 -0.15625,-0.25 -0.25,-0.25 -0.28125,0 -0.328125,0.203125 -0.40625,0.5625 L 3.515625,-2.21875 3.1875,-0.90625 c -0.015625,0.046875 -0.234375,0.359375 -0.421875,0.515625 -0.125,0.09375 -0.359375,0.25 -0.65625,0.25 -0.375,0 -0.625,-0.203125 -0.625,-0.703125 0,-0.203125 0.0625,-0.4375 0.109375,-0.625 z m 0,0"
               id="path6" />
          </g>
        </g>
      </g>
    </g>
  </g>
</svg>
